<?xml version="1.0" encoding="UTF-8" standalone="no"?>
<svg
   version="1.0"
   width="300.000000pt"
   height="301.000000pt"
   viewBox="0 0 300.000000 301.000000"
   preserveAspectRatio="xMidYMid meet"
   id="svg13"
   sodipodi:docname="ball.svg"
   inkscape:version="1.4 (86a8ad7, 2024-10-11)"
   xmlns:inkscape="http://www.inkscape.org/namespaces/inkscape"
   xmlns:sodipodi="http://sodipodi.sourceforge.net/DTD/sodipodi-0.dtd"
   xmlns="http://www.w3.org/2000/svg"
   xmlns:svg="http://www.w3.org/2000/svg">
  <defs
     id="defs13" />
  <sodipodi:namedview
     id="namedview13"
     pagecolor="#ffffff"
     bordercolor="#000000"
     borderopacity="0.25"
     inkscape:showpageshadow="2"
     inkscape:pageopacity="0.0"
     inkscape:pagecheckerboard="0"
     inkscape:deskcolor="#d1d1d1"
     inkscape:document-units="pt"
     inkscape:zoom="1.6270764"
     inkscape:cx="199.74477"
     inkscape:cy="200.66667"
     inkscape:window-width="1600"
     inkscape:window-height="871"
     inkscape:window-x="1911"
     inkscape:window-y="114"
     inkscape:window-maximized="1"
     inkscape:current-layer="svg13" />
  <metadata
     id="metadata1">
Created by potrace 1.10, written by Peter Selinger 2001-2011
</metadata>
  <g
     transform="matrix(0.06689773,0,0,-0.0620541,-58.260919,159.38076)"
     fill="#000000"
     stroke="none"
     id="g13">
    <path
       d="m 1744,2549 c -29,-8 -104,-78 -104,-97 0,-4 -16,-8 -36,-9 -44,-2 -153,-52 -183,-84 -12,-13 -42,-63 -67,-110 -24,-47 -55,-96 -69,-109 l -24,-23 -13,29 c -7,16 -21,37 -30,46 -21,21 -22,32 -8,58 8,15 6,21 -9,29 -44,24 -173,-41 -254,-128 -85,-91 -95,-141 -28,-141 41,0 63,-24 54,-59 -4,-16 -1,-21 15,-21 13,0 22,-9 26,-24 7,-29 0,-51 -29,-91 -79,-107 -121,-255 -112,-394 10,-158 70,-291 182,-401 140,-139 259,-189 453,-191 65,-1 137,4 162,11 120,32 263,137 331,243 73,113 119,269 119,409 0,176 -55,312 -175,434 -71,72 -148,118 -251,149 -70,21 -237,29 -323,16 -56,-9 -77,-9 -88,0 -12,10 -10,16 11,38 14,15 50,72 79,126 52,98 55,101 118,133 35,18 81,35 101,39 l 37,5 -1,-61 c -1,-57 2,-65 32,-96 18,-18 69,-56 114,-83 85,-52 359,-192 375,-192 6,0 20,10 31,23 30,31 140,228 140,250 0,10 -19,29 -47,45 -25,15 -74,45 -107,67 -190,127 -346,187 -422,164 z m 180,-49 c 50,-22 123,-60 161,-84 39,-25 103,-64 143,-87 56,-34 72,-48 72,-66 0,-13 -5,-22 -12,-21 -8,2 -13,-6 -12,-19 0,-12 -3,-20 -7,-18 -4,3 -21,-20 -38,-50 -34,-59 -40,-80 -15,-49 14,18 15,18 4,-4 -6,-12 -15,-20 -20,-17 -5,3 -16,-5 -24,-17 -12,-17 -13,-24 -4,-29 9,-6 8,-10 -5,-15 -22,-8 -70,4 -62,16 3,5 1,11 -5,15 -5,3 -10,1 -10,-5 0,-13 -239,110 -341,176 -86,55 -109,85 -109,140 0,37 3,44 20,44 16,0 20,-7 20,-33 0,-57 71,-108 123,-88 67,26 95,168 41,208 -24,17 -75,16 -101,-2 -20,-14 -53,-12 -53,4 0,3 12,14 28,23 45,29 105,22 206,-22 z m -82,-34 c 22,-27 23,-79 1,-97 -9,-8 -19,-13 -22,-12 -3,0 -5,-2 -4,-6 1,-3 -16,-6 -37,-6 -21,0 -36,3 -34,7 3,5 16,8 29,8 13,0 30,9 39,21 13,20 14,20 19,2 3,-10 4,0 3,22 -2,58 -12,68 -57,62 -43,-6 -52,8 -16,23 29,11 58,3 79,-24 z m -148,8 c 22,-9 20,-24 -3,-24 -21,0 -34,13 -24,24 8,7 8,7 27,0 z m 109,-45 c 15,-24 1,-49 -27,-49 -33,0 -41,16 -25,46 14,27 36,28 52,3 z m -81,-53 c -2,-12 1,-16 9,-10 9,5 10,2 6,-10 -5,-12 0,-19 18,-26 28,-11 80,4 70,20 -3,6 1,7 10,4 14,-6 13,-10 -6,-30 -31,-33 -75,-31 -111,3 -32,31 -39,77 -10,71 10,-2 16,-11 14,-22 z m -522,-112 c 0,-3 -5,-14 -10,-25 -8,-14 -7,-25 5,-43 15,-23 15,-25 -5,-31 -26,-8 -167,-140 -182,-169 -5,-12 8,-1 31,24 22,25 40,39 41,31 0,-8 6,-11 16,-7 9,3 12,2 9,-5 -4,-6 -13,-8 -20,-5 -7,2 -28,-11 -46,-30 l -33,-34 -24,30 c -19,25 -31,30 -55,28 -43,-4 -45,18 -7,70 40,55 133,128 195,152 50,19 85,25 85,14 z m 20,-112 c 0,-4 -17,-16 -37,-27 -20,-11 -50,-31 -65,-44 -16,-13 -31,-21 -34,-18 -7,6 113,97 127,97 5,0 9,-3 9,-8 z m -30,-53 c -60,-33 -81,-49 -63,-49 6,0 16,6 22,13 6,8 29,22 50,32 l 40,18 31,-26 c 27,-24 36,-26 78,-19 26,4 101,7 167,6 149,0 233,-23 334,-92 130,-88 209,-207 242,-367 24,-114 17,-207 -22,-328 -53,-161 -113,-258 -202,-325 -122,-92 -239,-128 -387,-118 -115,7 -178,24 -262,72 -183,104 -298,269 -321,462 -19,165 10,285 102,425 l 45,68 -17,45 c -16,44 -16,44 8,60 14,9 23,20 20,24 -3,4 3,14 12,21 12,10 14,10 9,2 -4,-7 -3,-13 2,-13 12,0 41,32 40,45 -1,13 90,75 111,75 9,0 -9,-14 -39,-31 z"
       id="path1" />
    <path
       d="m 2022,2338 c -7,-7 -12,-23 -12,-37 0,-13 -7,-32 -15,-41 -23,-26 4,-44 50,-36 38,7 41,15 24,67 -16,47 -31,63 -47,47 z m 36,-55 c 12,-37 8,-43 -30,-43 -33,0 -38,15 -7,23 16,4 19,9 11,24 -10,20 -4,50 8,36 4,-4 12,-22 18,-40 z"
       id="path2" />
    <path
       d="m 1040,2163 c -29,-21 -65,-54 -79,-73 -21,-29 -17,-27 30,16 30,28 70,59 87,68 18,9 32,19 32,21 0,12 -20,2 -70,-32 z"
       id="path3" />
    <path
       d="m 1257,2041 c 15,-13 31,-17 45,-13 23,7 23,7 -2,10 -14,2 -29,8 -34,13 -6,5 -15,9 -20,9 -6,-1 -1,-9 11,-19 z"
       id="path4" />
    <path
       d="m 1470,2026 c -10,-13 -9,-17 4,-22 22,-8 49,3 44,19 -7,18 -33,20 -48,3 z"
       id="path5" />
    <path
       d="m 1590,2010 c 0,-6 6,-12 13,-14 101,-31 131,-43 180,-78 59,-41 86,-42 73,-2 -9,28 -99,85 -148,95 -60,11 -118,11 -118,-1 z m 165,-29 c 43,-19 101,-69 92,-77 -3,-3 -32,11 -64,32 -32,20 -71,43 -88,50 -29,13 -29,13 -5,13 14,0 43,-8 65,-18 z"
       id="path6" />
    <path
       d="m 1503,1735 c -3,-9 2,-24 11,-34 14,-15 15,-25 5,-69 -15,-61 0,-109 37,-118 13,-3 28,-11 33,-18 8,-9 -22,-15 -132,-24 -318,-27 -365,-32 -430,-51 -74,-22 -97,-35 -97,-58 0,-83 114,-274 207,-347 71,-56 160,-104 222,-121 l 46,-12 1,33 c 0,18 -3,31 -8,28 -4,-3 -8,9 -8,26 0,19 -4,29 -10,25 -6,-4 -8,-16 -4,-28 7,-22 7,-22 -15,-3 -12,11 -19,26 -17,33 3,7 1,15 -4,18 -16,10 -11,-42 5,-55 8,-7 15,-21 15,-32 0,-23 -17,-19 -95,20 -141,70 -269,218 -311,359 l -14,46 98,-6 c 53,-4 138,-7 187,-7 h 90 l -41,-19 c -44,-20 -74,-56 -92,-110 -21,-62 -16,-73 51,-118 74,-50 97,-60 160,-68 36,-5 46,-9 38,-19 -6,-7 -6,-17 -1,-26 12,-19 13,-33 1,-26 -11,7 -21,-28 -14,-53 3,-11 12,-20 21,-21 10,0 49,-3 87,-6 78,-7 159,8 220,39 48,24 57,35 50,64 -3,12 -2,29 1,37 10,26 35,-1 29,-32 -4,-25 -4,-25 30,8 19,18 32,36 30,41 -3,4 2,9 10,13 24,9 92,122 115,191 60,181 73,298 40,353 -22,36 -28,38 -56,17 -18,-13 -17,-14 10,-12 16,1 31,-3 33,-9 2,-7 -9,-10 -33,-8 -19,1 -33,0 -30,-3 3,-4 1,-12 -5,-20 -9,-9 -8,-13 0,-13 6,0 11,5 11,10 0,6 7,10 15,10 32,0 1,-42 -40,-53 -60,-18 -288,-24 -293,-9 -2,7 8,12 27,12 40,0 78,49 93,122 17,82 -8,147 -32,83 -6,-17 -26,-33 -56,-45 -25,-11 -47,-20 -49,-20 -2,0 -8,13 -13,29 -7,21 -21,32 -49,41 -21,7 -42,16 -47,21 -15,13 -26,11 -33,-6 z m 61,-25 c 61,-26 75,-55 47,-101 -12,-19 -21,-45 -21,-59 1,-21 3,-18 14,13 18,51 41,74 85,88 44,14 61,27 71,54 6,14 9,5 9,-33 1,-34 -6,-67 -19,-92 -23,-45 -32,-52 -80,-60 -32,-5 -50,-28 -25,-32 13,-1 34,-30 35,-45 0,-8 -12,-13 -30,-13 -24,0 -30,4 -30,21 0,31 -16,55 -53,77 -40,23 -49,54 -34,111 9,32 8,44 -6,65 -21,31 -21,31 37,6 z m 469,-219 c -47,-64 -129,-85 -488,-123 -118,-13 -581,-15 -593,-4 -23,23 122,62 283,75 66,6 176,15 243,22 68,6 126,8 129,5 11,-11 -7,-36 -27,-36 -11,0 -20,-6 -20,-12 0,-9 -4,-8 -11,2 -9,13 -10,13 -6,0 2,-8 13,-13 23,-11 10,1 56,4 100,4 64,1 80,5 76,15 -2,8 -13,11 -24,9 -11,-3 -22,2 -28,13 -9,17 -2,19 98,25 184,11 184,10 242,81 14,18 15,17 18,-10 2,-17 -4,-40 -15,-55 z m 2,-112 c -13,-57 -31,-124 -39,-148 -23,-62 -74,-149 -95,-160 -24,-13 -51,19 -51,62 0,17 -4,39 -10,47 -5,9 -5,19 2,27 6,8 8,16 5,19 -3,3 -13,-6 -22,-20 -15,-23 -15,-27 0,-59 9,-19 15,-47 13,-62 -2,-16 2,-30 10,-32 8,-3 10,1 5,14 -3,10 -3,15 1,11 14,-12 13,-65 -1,-65 -7,0 -15,7 -17,14 -3,8 -11,11 -17,7 -8,-5 -10,6 -7,34 3,31 1,38 -9,30 -7,-5 -10,-21 -7,-37 4,-21 1,-30 -11,-35 -10,-4 -15,-12 -11,-22 3,-8 2,-12 -4,-9 -16,10 -12,-12 5,-29 14,-13 13,-16 -6,-27 -13,-6 -19,-7 -15,-1 3,6 2,13 -4,17 -5,3 -10,-3 -10,-13 0,-27 -71,-51 -173,-59 -74,-6 -78,-5 -84,15 -3,12 -9,22 -13,22 -5,0 -6,9 -3,19 3,11 0,28 -6,38 -9,15 -10,12 -5,-13 3,-17 2,-34 -4,-38 -20,-12 -9,68 12,85 19,16 18,17 -30,24 -27,5 -54,7 -61,6 -7,-1 -32,8 -55,21 -24,12 -46,21 -49,21 -3,-1 -18,9 -35,22 -28,23 -28,24 -5,20 13,-2 35,-12 50,-22 14,-10 30,-16 36,-15 5,2 14,-3 20,-10 5,-7 15,-14 20,-14 6,-1 20,-5 33,-9 13,-4 22,-2 22,4 0,6 -5,11 -11,11 -15,0 -81,32 -76,37 3,2 32,-9 67,-25 36,-17 57,-32 49,-35 -8,-3 -5,-6 8,-6 12,-1 45,-10 74,-21 61,-24 107,-19 150,17 42,36 38,53 -12,53 h -41 l 35,39 c 19,21 38,48 42,60 3,12 14,21 23,21 10,0 13,3 7,8 -8,5 -17,152 -10,152 1,0 48,7 106,16 108,16 173,41 211,81 12,12 23,22 24,20 2,-2 -7,-50 -21,-108 z m -336,-84 c -3,-65 -6,-75 -22,-75 -10,0 -15,-5 -12,-10 4,-6 11,-7 18,-3 6,3 1,-8 -12,-26 -45,-62 -103,-82 -167,-55 -18,8 -46,14 -61,13 -23,0 -20,-3 17,-14 25,-7 65,-21 89,-30 25,-9 64,-17 88,-18 23,-1 43,-5 43,-8 0,-18 -46,-43 -89,-47 -44,-4 -52,-1 -87,30 -44,39 -83,62 -91,54 -3,-3 6,-10 20,-15 14,-5 28,-15 32,-21 5,-8 2,-9 -11,-2 -78,41 -200,82 -247,82 -25,0 -27,3 -21,28 12,52 39,97 73,119 36,24 97,31 103,12 2,-7 35,-13 79,-15 61,-3 81,0 107,16 18,11 32,24 32,30 0,6 -14,0 -30,-12 -35,-25 -83,-27 -165,-4 l -50,13 45,6 c 25,4 90,9 144,12 55,3 102,7 104,10 3,3 21,5 39,5 h 34 z"
       id="path7" />
    <path
       d="m 1834,1310 c 15,-10 16,-14 5,-21 -11,-6 -9,-9 7,-9 12,0 24,7 28,15 3,9 0,15 -8,15 -8,0 -23,3 -33,6 -17,5 -17,5 1,-6 z"
       id="path8" />
    <path
       d="m 1910,1146 c 0,-9 -7,-16 -15,-16 -10,0 -15,-10 -15,-27 0,-20 3,-24 9,-14 7,10 10,10 13,1 2,-7 9,4 15,24 6,21 7,38 2,42 -5,3 -9,-2 -9,-10 z"
       id="path9" />
    <path
       d="m 1914,1665 c -8,-21 5,-37 29,-33 12,1 27,-1 34,-5 19,-12 23,8 7,31 -17,25 -62,30 -70,7 z"
       id="path10" />
    <path
       d="m 957,1596 c -4,-10 -9,-43 -12,-74 l -5,-57 15,65 c 15,62 16,102 2,66 z"
       id="path11" />
    <path
       d="m 1925,1590 c -11,-17 5,-32 21,-19 8,6 14,15 14,20 0,12 -27,11 -35,-1 z"
       id="path12" />
    <path
       d="m 1210,1024 c 0,-5 9,-20 20,-34 l 20,-25 v 29 c 0,16 -3,26 -7,23 -3,-4 -12,-2 -20,4 -7,6 -13,8 -13,3 z"
       id="path13" />
  </g>
</svg>
