<?xml version="1.0" encoding="UTF-8" standalone="no"?>
<svg
   version="1.0"
   width="300.000000pt"
   height="300.000000pt"
   viewBox="0 0 300.000000 300.000000"
   preserveAspectRatio="xMidYMid meet"
   id="svg53"
   sodipodi:docname="coffee.svg"
   inkscape:version="1.4 (86a8ad7, 2024-10-11)"
   xmlns:inkscape="http://www.inkscape.org/namespaces/inkscape"
   xmlns:sodipodi="http://sodipodi.sourceforge.net/DTD/sodipodi-0.dtd"
   xmlns="http://www.w3.org/2000/svg"
   xmlns:svg="http://www.w3.org/2000/svg">
  <defs
     id="defs53" />
  <sodipodi:namedview
     id="namedview53"
     pagecolor="#ffffff"
     bordercolor="#000000"
     borderopacity="0.25"
     inkscape:showpageshadow="2"
     inkscape:pageopacity="0.0"
     inkscape:pagecheckerboard="0"
     inkscape:deskcolor="#d1d1d1"
     inkscape:document-units="pt"
     inkscape:zoom="1.6325"
     inkscape:cx="166.00306"
     inkscape:cy="112.40429"
     inkscape:window-width="1600"
     inkscape:window-height="871"
     inkscape:window-x="1911"
     inkscape:window-y="114"
     inkscape:window-maximized="1"
     inkscape:current-layer="svg53" />
  <metadata
     id="metadata1">
Created by potrace 1.10, written by Peter Selinger 2001-2011
</metadata>
  <g
     transform="matrix(0.04855794,0,0,-0.04225892,-19.416122,118.70053)"
     fill="#000000"
     stroke="none"
     id="g53">
    <path
       d="m 1840,2706 c -102,-68 -176,-141 -206,-203 -27,-55 -27,-57 -16,-139 18,-123 -1,-193 -75,-275 -39,-43 -78,-66 -168,-100 -97,-36 -145,-92 -145,-169 0,-70 52,-150 98,-150 8,0 0,10 -19,23 -65,43 -87,129 -51,196 19,36 36,46 173,110 169,79 234,205 198,384 -11,53 -10,59 16,112 32,63 88,118 190,190 84,58 92,65 79,65 -5,0 -39,-20 -74,-44 z"
       id="path1" />
    <path
       d="m 1905,2692 c -104,-64 -197,-259 -181,-381 18,-134 18,-259 1,-317 -22,-76 -78,-132 -165,-165 -100,-38 -142,-92 -109,-139 8,-11 9,-7 4,16 -8,43 22,76 92,103 89,33 151,84 178,144 34,74 42,189 21,294 -18,85 -16,121 11,208 32,101 80,171 157,227 44,31 37,38 -9,10 z"
       id="path2" />
    <path
       d="m 1944,2365 c -15,-23 -15,-27 0,-51 20,-30 59,-30 64,1 4,20 4,20 -11,0 -13,-16 -17,-17 -31,-6 -21,18 -20,50 2,67 10,8 12,13 5,14 -7,0 -20,-11 -29,-25 z"
       id="path3" />
    <path
       d="m 2042,2363 c 50,-54 63,-92 63,-183 0,-109 -22,-151 -122,-232 -50,-41 -79,-73 -97,-110 -27,-54 -32,-78 -17,-78 5,0 11,17 14,38 7,39 46,86 153,182 36,32 55,60 67,94 20,59 21,156 3,209 -16,44 -62,107 -78,107 -7,0 0,-12 14,-27 z"
       id="path4" />
    <path
       d="m 2030,2318 c 0,-3 7,-23 16,-44 20,-47 12,-112 -21,-171 -13,-24 -20,-43 -14,-43 5,0 19,19 31,43 29,55 32,160 6,197 -10,13 -18,22 -18,18 z"
       id="path5" />
    <path
       d="m 1405,1593 c -11,-1 -92,-7 -180,-13 -226,-14 -383,-57 -439,-119 -17,-19 -18,-32 -13,-153 8,-162 27,-261 67,-346 l 30,-64 -35,6 c -38,8 -231,-42 -295,-75 -74,-39 -83,-51 -76,-102 9,-60 36,-85 165,-155 82,-44 267,-119 301,-122 3,-1 -11,-9 -30,-20 -46,-25 -30,-26 18,-1 41,21 136,19 129,-3 -4,-12 -20,-12 -64,-2 -22,5 -25,4 -13,-5 12,-9 11,-10 -8,-6 -12,3 -41,-2 -63,-11 -33,-13 -38,-17 -23,-22 10,-4 32,-1 49,5 16,7 46,16 65,19 30,5 28,3 -19,-19 -30,-14 -52,-28 -49,-30 6,-6 100,36 121,53 11,9 26,8 63,-3 145,-44 551,-64 640,-32 21,8 55,20 74,27 19,7 40,16 45,20 13,10 86,26 205,45 52,9 122,23 155,31 66,17 158,54 151,61 -2,3 -14,0 -25,-7 -12,-6 -21,-8 -21,-6 0,3 19,15 42,27 65,33 108,71 124,108 13,30 12,37 -5,76 -29,66 -124,125 -202,125 -16,0 -29,3 -29,8 0,4 25,22 54,39 132,80 220,199 220,299 0,71 -37,141 -89,168 -79,41 -209,20 -284,-48 l -24,-21 7,71 c 5,60 3,75 -12,92 -26,30 -217,79 -352,91 -111,10 -334,18 -375,14 z m 360,-33 c 124,-13 263,-43 315,-68 33,-16 34,-19 31,-64 -1,-30 2,-48 8,-48 7,0 11,-20 10,-47 -1,-48 -15,-122 -18,-93 -1,9 -9,4 -21,-15 -12,-17 -18,-39 -15,-51 3,-12 -1,-27 -9,-33 -12,-10 -14,2 -14,76 0,48 -5,100 -11,115 -8,20 -7,29 5,38 15,13 20,35 6,26 -4,-2 -14,-1 -21,3 -8,6 -3,10 18,14 16,4 35,16 41,27 15,29 7,35 -18,14 -46,-39 -324,-105 -432,-103 -19,1 -64,-2 -100,-6 -36,-3 -92,-2 -125,4 -58,9 -56,9 45,8 58,0 121,4 140,10 l 35,11 -40,2 c -103,7 -197,5 -201,-2 -3,-5 -14,-6 -24,-3 -10,3 -37,-1 -61,-9 -52,-18 -236,-16 -248,2 -3,6 -33,14 -66,17 -33,3 -69,9 -80,12 -20,6 -20,6 0,14 11,4 37,8 58,8 26,1 37,5 37,16 0,17 -25,20 -35,5 -3,-5 -18,-10 -33,-10 -15,0 -36,-6 -47,-13 -17,-12 -25,-12 -55,1 -32,13 -33,15 -15,23 17,8 15,9 -7,6 -16,-3 -28,-1 -28,3 0,27 232,86 434,110 164,20 352,20 541,0 z M 927,1375 c 75,-20 142,-28 283,-36 199,-11 523,-9 580,2 19,4 60,12 90,18 111,20 120,23 114,32 -6,11 4,11 31,-1 22,-9 24,-7 -58,-39 -16,-6 -26,-15 -23,-20 3,-5 -33,-26 -81,-47 -48,-22 -80,-40 -71,-42 9,-2 48,13 86,32 67,34 70,34 75,15 5,-17 -5,-25 -56,-50 -34,-16 -67,-29 -74,-29 -17,0 -24,-31 -14,-65 9,-30 9,-30 10,10 1,39 3,41 59,63 31,13 63,25 70,29 8,3 12,-5 12,-26 0,-27 -4,-31 -42,-41 -64,-16 -95,-28 -77,-29 9,-1 38,6 65,14 27,8 50,15 51,15 6,0 -12,-88 -21,-97 -6,-7 -36,-16 -66,-20 -30,-5 -50,-11 -45,-14 10,-6 105,12 138,26 10,4 17,3 17,-4 0,-6 -8,-11 -17,-11 -16,-1 -16,-2 1,-11 12,-7 21,-8 25,-2 6,10 75,37 95,38 5,0 10,9 11,20 2,11 6,29 9,40 4,11 -2,4 -13,-16 -13,-23 -32,-41 -52,-48 -43,-15 -54,-14 -39,4 7,9 18,14 24,12 16,-6 68,52 62,69 -7,17 14,65 25,58 11,-7 40,52 34,68 -12,30 96,97 168,105 41,5 68,-3 138,-42 28,-16 69,-90 69,-125 0,-11 -16,-54 -35,-94 -25,-54 -48,-85 -87,-118 -62,-53 -178,-129 -228,-150 -50,-21 -98,-65 -118,-107 -11,-24 -25,-37 -41,-39 -21,-3 -23,-1 -17,22 5,20 3,24 -9,20 -10,-4 -15,0 -15,11 0,12 5,15 20,10 17,-5 20,-2 20,22 0,15 3,39 5,53 5,22 4,22 -9,-5 -12,-26 -14,-27 -19,-10 -4,15 -5,14 -6,-7 -1,-26 -56,-104 -101,-143 -23,-20 -23,-20 -11,0 6,11 19,31 28,45 9,14 0,6 -21,-17 -43,-49 -84,-62 -44,-14 14,15 30,42 37,59 7,17 22,34 33,38 11,3 17,8 15,11 -3,2 -16,-1 -28,-8 -29,-15 -125,-41 -113,-30 5,5 42,19 81,31 40,13 78,29 84,36 16,19 10,18 -76,-16 -92,-37 -98,-37 -83,-5 8,18 19,25 38,25 48,0 200,53 188,65 -2,3 -35,-6 -74,-19 -38,-13 -85,-26 -105,-30 -35,-6 -36,-5 -32,19 4,19 13,26 42,30 70,11 160,37 178,52 12,9 13,13 3,9 -61,-20 -122,-37 -162,-45 -43,-8 -47,-7 -50,13 -3,12 -9,-3 -17,-36 l -12,-58 h -39 c -21,0 -42,-5 -45,-10 -4,-7 8,-8 34,-4 31,5 41,3 41,-7 0,-28 -17,-38 -90,-55 -41,-9 -79,-22 -85,-27 -7,-6 -1,-8 15,-3 42,10 130,19 130,13 0,-22 -37,-77 -54,-81 -12,-2 2,-4 31,-3 100,4 37,-19 -91,-33 l -71,-7 65,-2 c 36,0 91,5 121,13 82,22 84,22 82,9 -6,-27 21,-11 79,47 59,59 78,67 78,30 0,-10 10,-22 22,-26 23,-7 37,6 81,76 14,23 42,45 79,64 56,28 59,28 124,16 94,-18 163,-56 188,-104 19,-38 19,-39 0,-74 -36,-67 -203,-148 -385,-186 -41,-9 -108,-25 -149,-36 -92,-24 -272,-44 -345,-38 -31,3 -55,1 -55,-5 0,-6 51,-8 129,-5 110,3 125,2 101,-9 -67,-28 -152,-36 -308,-30 -149,5 -289,29 -345,59 -10,5 -34,11 -55,14 -100,12 -209,43 -296,83 -22,11 -71,33 -108,50 -140,62 -198,124 -165,174 30,46 190,108 342,132 39,6 41,5 58,-30 9,-20 39,-59 65,-87 26,-28 43,-49 37,-47 -5,2 -34,17 -62,32 -76,40 -65,26 20,-23 39,-24 88,-57 108,-74 19,-17 48,-41 63,-54 37,-31 27,-38 -29,-19 -25,9 -43,12 -41,8 3,-4 31,-16 63,-26 32,-10 67,-24 78,-31 11,-8 31,-14 45,-13 23,0 23,1 -7,12 -29,11 -145,117 -127,117 4,0 -3,11 -16,25 -12,13 -26,22 -30,20 -7,-4 -75,67 -70,74 1,2 -5,8 -14,13 -9,5 -14,13 -11,18 3,4 -2,11 -11,14 -10,4 -13,2 -8,-6 5,-7 3,-8 -5,-4 -7,5 -10,13 -8,20 3,7 -1,23 -9,37 -7,13 -13,18 -14,11 0,-7 -4,-10 -10,-7 -18,11 -11,21 16,21 21,0 30,-9 51,-50 29,-58 54,-91 68,-92 31,-1 66,-18 61,-29 -5,-15 46,-39 104,-49 25,-4 20,0 -20,14 -54,20 -96,48 -55,37 47,-13 90,-18 75,-9 -8,5 -32,12 -52,16 -60,11 -125,44 -147,75 -12,16 -21,31 -21,34 0,3 26,-6 58,-18 63,-25 121,-41 110,-30 -4,4 -44,20 -89,36 -46,16 -87,33 -93,39 -16,16 -1,21 28,10 15,-5 35,-10 44,-9 9,1 -7,8 -37,18 -38,11 -56,23 -62,39 -5,12 -7,22 -6,22 1,0 26,-9 55,-20 29,-11 60,-20 70,-20 9,0 -14,11 -51,24 -37,12 -73,28 -79,34 -6,6 20,-1 56,-14 37,-13 75,-24 84,-23 9,0 -8,9 -38,18 -30,10 -69,25 -87,34 -43,23 -44,22 -27,-19 13,-30 13,-38 2,-45 -7,-5 -16,-9 -21,-9 -9,0 -30,51 -23,58 3,2 8,-7 12,-22 3,-14 10,-26 15,-26 11,0 11,17 0,38 -5,9 -12,36 -16,60 l -7,43 44,-22 c 52,-27 132,-49 173,-48 18,0 0,8 -45,18 -41,9 -93,27 -115,39 -50,26 -44,27 25,3 30,-11 73,-22 95,-25 30,-5 34,-4 15,3 -66,23 -147,44 -170,45 -22,1 -26,7 -31,44 -5,37 -3,43 10,38 9,-3 41,-13 71,-24 30,-10 68,-22 85,-26 57,-14 16,6 -76,37 -51,18 -95,38 -97,46 -4,11 0,12 14,6 54,-22 186,-66 190,-62 2,2 -42,22 -98,43 -86,33 -104,43 -106,62 -3,22 -3,23 25,9 36,-19 140,-50 128,-38 -6,4 -37,17 -70,29 -33,11 -68,23 -77,27 -16,6 -18,0 -18,-71 0,-44 5,-99 11,-123 5,-24 8,-46 5,-48 -10,-10 -38,149 -44,247 l -7,105 -5,-110 -5,-110 -5,137 c -5,124 -4,135 12,127 9,-5 60,-20 115,-34 z m 1099,-62 c -4,-9 -9,-13 -13,-10 -3,4 -11,-1 -18,-10 -13,-17 -35,-10 -35,11 0,15 64,47 68,34 2,-5 1,-16 -2,-25 z m 10,-79 c -10,-26 -26,-14 -26,20 0,40 23,55 28,19 2,-14 1,-31 -2,-39 z m -40,-20 c -3,-8 -10,-14 -16,-14 -14,0 -13,53 3,69 10,10 13,7 15,-14 2,-15 1,-33 -2,-41 z m 44,-42 c 0,-35 -5,-50 -18,-59 -18,-10 -19,-8 -14,40 4,43 14,66 30,67 1,0 2,-21 2,-48 z m -56,-20 c -19,-14 -19,-15 0,-8 14,5 17,2 12,-10 -3,-8 -6,-21 -6,-29 0,-7 -9,-15 -20,-18 -11,-3 -18,-2 -16,2 2,3 7,27 11,51 7,47 27,72 34,43 2,-9 -5,-23 -15,-31 z M 845,982 c -5,-5 -35,97 -34,117 0,9 9,-13 20,-48 10,-36 17,-67 14,-69 z m 984,-230 c -7,-10 -22,-23 -33,-29 -12,-5 -16,-8 -10,-7 6,1 12,-8 12,-22 0,-13 -5,-24 -10,-24 -5,0 -6,5 -2,11 5,9 -3,10 -30,5 -20,-4 -36,-5 -36,-2 0,3 9,20 20,38 13,22 32,37 57,44 45,13 48,12 32,-14 z"
       id="path6" />
    <path
       d="m 1726,1531 c 5,-5 38,-12 74,-15 46,-4 55,-3 30,3 -61,15 -114,21 -104,12 z"
       id="path7" />
    <path
       d="m 1306,1501 c -4,-5 -32,-8 -65,-5 -35,2 -62,0 -66,-6 -4,-7 -13,-6 -27,1 -22,12 -68,-2 -68,-21 0,-5 -9,-10 -19,-10 -25,0 -38,-20 -20,-31 17,-11 21,-11 37,0 7,4 15,17 16,27 2,13 12,20 32,22 l 29,2 -25,-14 -25,-15 25,-1 c 23,-1 23,-2 5,-10 -19,-8 -19,-9 3,-9 15,-1 22,5 22,19 0,18 26,40 49,40 22,0 10,-30 -11,-31 -19,-1 -20,-2 -4,-6 10,-3 23,0 28,5 6,6 25,8 43,5 27,-4 33,-2 38,16 7,26 51,29 67,4 10,-16 10,-16 8,2 -2,14 -12,21 -35,23 -17,2 -34,-1 -37,-7 z"
       id="path8" />
    <path
       d="m 945,1493 c -34,-9 -68,-23 -64,-28 2,-2 33,5 69,15 56,16 51,27 -5,13 z"
       id="path9" />
    <path
       d="m 1555,1490 c -27,-5 -77,-9 -110,-10 -56,-2 -58,-3 -25,-11 19,-5 46,-6 60,-4 14,3 45,7 70,10 25,2 56,7 70,11 17,4 21,3 12,-4 -10,-7 -6,-12 17,-22 33,-13 61,-8 61,12 0,9 -3,9 -12,0 -18,-18 -38,-14 -38,8 0,22 -15,24 -105,10 z"
       id="path10" />
    <path
       d="m 1721,1475 c 3,-2 47,-12 98,-20 93,-16 175,-41 101,-30 -19,2 -55,7 -80,9 -39,5 -41,4 -15,-4 25,-8 22,-8 -15,-3 -90,11 -291,12 -284,1 5,-7 -1,-9 -17,-5 -13,3 -46,8 -74,11 -38,4 -44,3 -25,-4 21,-8 17,-9 -22,-7 -27,1 -48,-1 -48,-5 0,-5 -10,-8 -23,-8 -12,0 -28,-9 -35,-20 -7,-11 -20,-20 -29,-20 -13,0 -14,3 -5,12 18,18 14,38 -7,38 -29,0 -51,-11 -51,-25 0,-10 -11,-10 -55,1 -31,7 -84,12 -118,12 l -62,-1 63,-11 c 35,-6 60,-15 55,-19 -4,-5 10,-6 32,-3 28,4 32,3 15,-3 -16,-5 7,-7 65,-6 92,1 117,7 147,33 14,11 30,13 70,7 29,-4 73,-7 98,-7 25,1 84,-4 133,-12 48,-7 85,-10 82,-8 -13,13 74,31 125,27 42,-4 50,-3 35,5 -16,8 -10,9 25,6 25,-3 54,-1 65,3 16,7 10,11 -35,24 -80,23 -221,45 -209,32 z"
       id="path11" />
    <path
       d="m 2077,1359 c -14,-39 -19,-79 -11,-79 2,0 10,12 18,28 20,36 20,14 0,-33 -8,-20 -13,-40 -10,-43 6,-5 6,-4 31,67 18,51 19,62 4,41 -8,-12 -9,-10 -5,10 3,14 1,31 -3,39 -6,9 -13,0 -24,-30 z"
       id="path12" />
    <path
       d="m 2279,1348 c -10,-7 -5,-8 16,-4 22,4 15,-1 -23,-20 -59,-29 -80,-54 -93,-114 -11,-50 -38,-93 -54,-86 -8,3 -16,-19 -24,-62 -15,-79 -45,-152 -63,-152 -9,0 -9,-3 2,-10 11,-7 12,-12 4,-17 -6,-5 -15,-23 -19,-42 -6,-30 -5,-33 6,-20 23,24 40,59 34,68 -3,5 6,33 20,62 13,29 27,76 30,104 5,39 12,53 28,61 21,9 50,68 62,127 8,40 85,87 143,87 38,0 50,-5 83,-39 50,-50 50,-79 1,-151 -34,-51 -47,-60 -165,-120 -147,-75 -204,-115 -188,-134 6,-7 7,-16 3,-21 -4,-4 3,-2 16,4 12,6 22,8 22,4 0,-4 7,0 14,10 8,10 21,19 29,21 25,3 86,56 81,69 -2,7 4,13 16,14 13,1 18,-2 14,-10 -4,-7 4,0 19,16 31,32 48,36 21,5 -16,-20 -15,-19 9,2 16,14 32,23 35,21 4,-3 18,11 30,30 13,19 27,33 32,32 4,-1 11,9 14,23 4,14 11,22 16,19 6,-3 10,0 10,8 0,17 25,68 31,63 2,-2 5,15 6,37 1,31 -1,37 -7,22 -5,-11 -9,-14 -9,-7 -1,22 -61,103 -72,97 -5,-4 -14,-3 -21,1 -18,12 -94,13 -109,2 z m -50,-394 c -6,-7 -15,-12 -19,-9 -4,3 -13,-2 -20,-10 -7,-8 -17,-15 -23,-15 -7,0 3,14 22,30 32,30 64,33 40,4 z"
       id="path13" />
    <path
       d="m 845,1335 c 45,-37 198,-95 213,-80 3,2 -1,6 -9,8 -51,14 -161,52 -164,57 -2,3 38,-5 88,-17 51,-13 99,-22 107,-21 13,3 -160,51 -230,65 -25,4 -25,4 -5,-12 z"
       id="path14" />
    <path
       d="m 850,1300 c 0,-7 86,-52 135,-71 55,-21 85,-28 85,-19 0,4 -15,11 -32,14 -18,3 -68,23 -110,44 -43,21 -78,35 -78,32 z"
       id="path15" />
    <path
       d="m 1460,1295 c -138,-14 -184,-22 -134,-24 42,-1 229,18 274,29 48,11 13,10 -140,-5 z"
       id="path16" />
    <path
       d="m 1768,1295 c -3,-3 -47,-17 -99,-31 -74,-19 -83,-24 -44,-20 63,7 115,22 140,41 11,8 17,15 14,15 -3,0 -8,-2 -11,-5 z"
       id="path17" />
    <path
       d="m 2140,1231 c -12,-23 -20,-82 -13,-94 3,-5 12,1 20,12 8,12 12,25 9,30 -4,5 -2,21 4,35 11,31 -4,45 -20,17 z"
       id="path18" />
    <path
       d="m 912,1101 c 32,-18 136,-51 161,-51 4,0 5,5 2,10 -3,6 -16,10 -29,10 -13,0 -47,9 -77,19 -91,32 -95,33 -57,12 z"
       id="path19" />
    <path
       d="m 2025,1035 c -27,-13 -43,-24 -35,-24 8,0 35,11 60,24 58,31 40,31 -25,0 z"
       id="path20" />
    <path
       d="m 1795,1014 -50,-13 50,4 c 27,3 54,10 59,15 13,13 4,12 -59,-6 z"
       id="path21" />
    <path
       d="m 2275,835 c 17,-8 35,-14 42,-15 6,0 28,-16 48,-35 29,-27 36,-40 33,-60 -3,-14 -1,-25 3,-25 19,0 8,50 -17,80 -29,34 -64,54 -109,63 l -30,6 z"
       id="path22" />
    <path
       d="m 790,829 c -14,-6 -40,-12 -58,-15 -30,-4 -172,-69 -172,-79 0,-2 7,-1 17,2 11,5 14,3 8,-6 -6,-10 -3,-11 14,-1 12,6 18,16 15,22 -4,6 -3,8 3,5 6,-4 36,5 67,19 31,14 64,23 72,20 10,-4 13,-2 8,6 -5,8 -2,9 9,5 10,-3 17,-2 17,3 0,6 9,10 19,10 11,0 23,5 26,10 8,12 -12,12 -45,-1 z"
       id="path23" />
    <path
       d="m 2204,811 c 3,-5 27,-16 53,-25 26,-9 43,-12 38,-8 -15,14 -97,44 -91,33 z"
       id="path24" />
    <path
       d="m 1060,781 c 55,-28 157,-58 166,-48 3,2 -19,10 -48,17 -29,7 -77,23 -107,36 -72,32 -78,29 -11,-5 z"
       id="path25" />
    <path
       d="m 795,789 c -16,-5 -36,-7 -43,-4 -19,7 -54,-14 -46,-27 4,-6 1,-9 -7,-6 -14,5 -74,-30 -66,-39 3,-2 27,7 54,20 107,54 111,54 204,-3 46,-27 77,-50 69,-49 -28,0 -151,55 -143,63 13,12 -47,-5 -106,-31 -30,-13 -52,-26 -49,-29 4,-3 23,3 45,14 63,32 87,34 135,12 23,-11 33,-19 21,-16 -13,2 -23,1 -23,-4 0,-4 35,-11 78,-14 42,-4 88,-14 102,-22 25,-15 25,-15 -10,-10 -19,3 -71,8 -115,10 -59,4 -70,3 -40,-3 22,-5 78,-11 124,-14 88,-5 94,2 31,35 -77,40 -188,113 -184,120 3,4 4,8 2,7 -2,0 -16,-5 -33,-10 z"
       id="path26" />
    <path
       d="m 2185,788 c 11,-7 22,-11 25,-11 3,0 22,-8 43,-18 20,-11 37,-17 37,-14 0,7 -97,55 -112,55 -7,0 -4,-6 7,-12 z"
       id="path27" />
    <path
       d="m 2183,760 c 32,-20 87,-40 87,-33 0,13 -41,35 -74,39 -26,4 -28,3 -13,-6 z"
       id="path28" />
    <path
       d="m 1851,635 c -41,-20 -76,-33 -79,-31 -2,3 6,10 20,16 14,7 25,17 25,24 0,10 -16,8 -61,-7 -34,-10 -94,-21 -135,-23 -40,-2 -76,-6 -79,-9 -12,-11 117,-4 171,10 68,18 70,18 62,6 -9,-16 -126,-51 -185,-56 -30,-2 -84,-7 -120,-10 -36,-3 -85,-2 -110,4 l -45,9 60,3 c 33,1 70,3 82,3 31,0 16,12 -25,20 -22,4 -31,2 -26,-5 10,-17 -153,3 -166,21 -3,4 -23,11 -45,17 -22,6 -49,14 -60,18 -19,6 -19,6 -1,-5 10,-7 55,-25 100,-41 54,-19 72,-29 53,-29 -15,0 -47,9 -69,20 -49,24 -54,24 -39,6 6,-7 39,-22 74,-32 85,-26 316,-26 399,-1 32,10 65,20 75,23 10,3 2,-4 -17,-15 -63,-34 -164,-49 -380,-55 -197,-6 -462,29 -605,80 -16,5 -17,4 -9,-5 18,-19 161,-58 265,-71 52,-7 108,-17 124,-22 17,-6 173,-13 351,-16 351,-5 461,3 629,44 97,23 225,78 225,96 0,4 -21,-3 -48,-16 -54,-27 -251,-91 -258,-83 -3,3 19,13 48,23 29,9 47,19 40,22 -7,2 -42,-10 -78,-28 -62,-30 -71,-31 -241,-39 -98,-4 -191,-4 -208,0 -32,7 -13,13 36,9 15,0 34,7 44,16 18,19 74,21 170,9 29,-4 35,-2 20,4 -17,8 -16,10 10,9 17,0 41,-3 55,-7 18,-6 41,0 82,20 31,16 60,34 64,40 4,7 -11,2 -33,-10 -22,-13 -51,-21 -64,-19 -20,3 -15,8 36,35 60,31 106,62 94,63 -4,0 -42,-20 -85,-45 -77,-44 -135,-57 -149,-35 -3,6 -18,7 -33,4 -21,-4 -23,-3 -12,5 8,6 42,9 75,7 33,-2 49,-1 36,3 -21,6 -17,9 33,30 31,13 55,25 53,28 -3,2 -32,-7 -66,-21 -70,-30 -107,-35 -43,-6 23,10 42,21 42,25 0,8 0,8 -79,-30 z m -69,-44 c 13,-6 41,-13 63,-17 l 40,-7 -45,-8 c -64,-11 -138,-11 -121,0 7,5 32,7 55,5 36,-3 38,-2 11,5 -16,5 -25,9 -20,10 6,1 3,6 -5,11 -19,12 -8,13 22,1 z"
       id="path29" />
    <path
       d="m 923,613 c 26,-2 68,-2 95,0 26,2 4,3 -48,3 -52,0 -74,-1 -47,-3 z"
       id="path30" />
    <path
       d="m 802,591 c 15,-5 73,-14 129,-20 56,-6 106,-14 111,-17 6,-4 31,-8 57,-9 l 46,-3 -35,13 c -19,8 -46,14 -60,14 -14,1 -36,9 -49,18 -15,10 -21,11 -16,3 6,-10 -4,-12 -56,-6 -158,16 -155,16 -127,7 z"
       id="path31" />
    <path
       d="m 1698,523 c 17,-2 47,-2 65,0 17,2 3,4 -33,4 -36,0 -50,-2 -32,-4 z"
       id="path32" />
    <path
       d="m 1206,419 c 11,-4 87,-7 169,-7 83,0 143,2 135,4 -32,7 -321,10 -304,3 z"
       id="path33" />
    <path
       d="m 2447,553 c 18,-2 50,-2 70,0 21,2 7,4 -32,4 -38,0 -55,-2 -38,-4 z"
       id="path34" />
    <path
       d="m 525,510 c -50,-7 -49,-7 20,-8 39,-1 77,3 85,8 17,11 -23,11 -105,0 z"
       id="path35" />
    <path
       d="m 2398,513 c 17,-2 47,-2 65,0 17,2 3,4 -33,4 -36,0 -50,-2 -32,-4 z"
       id="path36" />
    <path
       d="m 2310,480 c 24,-8 178,-14 169,-6 -2,2 -47,6 -99,9 -57,4 -85,3 -70,-3 z"
       id="path37" />
    <path
       d="m 705,470 c -22,-5 -51,-13 -65,-19 -23,-11 -22,-11 10,-5 19,3 52,8 73,11 20,3 37,10 37,14 0,10 1,10 -55,-1 z"
       id="path38" />
    <path
       d="m 498,463 c 17,-2 47,-2 65,0 17,2 3,4 -33,4 -36,0 -50,-2 -32,-4 z"
       id="path39" />
    <path
       d="m 690,430 c -20,-6 -21,-8 -5,-8 11,-1 38,3 60,7 l 40,9 h -35 c -19,0 -46,-4 -60,-8 z"
       id="path40" />
    <path
       d="m 2190,431 c 14,-4 59,-11 100,-14 49,-4 63,-3 41,3 -46,11 -173,22 -141,11 z"
       id="path41" />
    <path
       d="m 2108,413 c 17,-2 32,-9 32,-15 0,-6 -18,-8 -47,-4 -91,11 -168,16 -158,11 6,-3 37,-8 69,-13 l 58,-7 -72,-57 c -92,-73 -81,-76 14,-4 66,51 74,54 116,49 25,-2 53,-4 63,-4 15,0 16,-3 7,-15 -14,-16 -35,-20 -25,-4 10,16 -8,11 -32,-9 -24,-20 -32,-37 -11,-25 7,5 20,9 29,9 9,1 37,16 64,34 28,19 56,30 67,28 10,-3 18,-2 18,3 0,8 -161,31 -201,28 -17,-1 -15,-2 9,-5 z m 126,-21 c 4,-3 2,-8 -5,-13 -19,-12 -32,-11 -24,1 4,6 -6,7 -25,4 -20,-4 -30,-3 -30,6 0,11 63,13 84,2 z"
       id="path42" />
    <path
       d="m 1011,364 c -18,-8 -31,-17 -28,-20 6,-6 77,22 77,30 0,9 -11,6 -49,-10 z"
       id="path43" />
    <path
       d="m 1858,342 c -31,-20 -57,-40 -57,-45 -1,-4 9,-1 22,8 13,8 26,12 30,9 3,-3 33,9 66,27 34,17 59,34 57,37 -3,2 -25,-7 -50,-22 -56,-33 -70,-33 -31,-1 43,35 29,30 -37,-13 z"
       id="path44" />
    <path
       d="m 1757,318 c -37,-28 -65,-53 -63,-55 3,-3 33,16 68,43 79,59 85,64 73,63 -6,0 -40,-23 -78,-51 z"
       id="path45" />
    <path
       d="m 2048,338 -33,-30 31,21 c 17,11 33,18 36,15 3,-2 10,2 16,9 22,27 -17,15 -50,-15 z"
       id="path46" />
    <path
       d="m 1092,328 c -24,-11 -42,-22 -39,-24 2,-3 29,6 58,20 30,13 47,24 39,24 -8,0 -35,-9 -58,-20 z"
       id="path47" />
    <path
       d="m 1526,314 c -37,-19 -66,-38 -63,-41 5,-5 137,65 137,73 0,6 2,7 -74,-32 z"
       id="path48" />
    <path
       d="m 1650,343 c -29,-11 -101,-55 -97,-60 3,-2 33,12 68,31 58,32 69,44 29,29 z"
       id="path49" />
    <path
       d="m 1667,305 c -75,-44 -107,-71 -48,-40 57,29 146,85 136,85 -6,0 -45,-20 -88,-45 z"
       id="path50" />
    <path
       d="m 1211,318 c -36,-13 -56,-17 -60,-10 -4,7 -12,8 -21,2 -12,-8 -11,-10 4,-10 20,0 20,0 0,-16 -19,-15 -19,-16 1,-9 45,16 150,57 154,61 10,10 -28,1 -78,-18 z"
       id="path51" />
    <path
       d="m 1260,299 c -41,-21 -68,-39 -59,-39 22,0 139,59 139,71 0,5 -1,8 -2,7 -2,0 -37,-18 -78,-39 z"
       id="path52" />
    <path
       d="m 1390,305 -65,-34 40,3 c 33,3 176,64 152,66 -4,0 -30,-12 -58,-26 -28,-14 -53,-23 -56,-20 -3,2 9,12 26,21 17,8 31,18 31,20 0,7 2,8 -70,-30 z"
       id="path53" />
  </g>
</svg>
