<?xml version="1.0" encoding="UTF-8" standalone="no"?>
<svg
   version="1.0"
   width="300.000000pt"
   height="610.000000pt"
   viewBox="0 0 300.000000 610.000000"
   preserveAspectRatio="xMidYMid meet"
   id="svg127"
   sodipodi:docname="eye2.svg"
   inkscape:version="1.4 (86a8ad7, 2024-10-11)"
   xmlns:inkscape="http://www.inkscape.org/namespaces/inkscape"
   xmlns:sodipodi="http://sodipodi.sourceforge.net/DTD/sodipodi-0.dtd"
   xmlns="http://www.w3.org/2000/svg"
   xmlns:svg="http://www.w3.org/2000/svg">
  <defs
     id="defs127" />
  <sodipodi:namedview
     id="namedview127"
     pagecolor="#ffffff"
     bordercolor="#000000"
     borderopacity="0.25"
     inkscape:showpageshadow="2"
     inkscape:pageopacity="0.0"
     inkscape:pagecheckerboard="0"
     inkscape:deskcolor="#d1d1d1"
     inkscape:document-units="pt"
     inkscape:zoom="5.7936387"
     inkscape:cx="-11.391805"
     inkscape:cy="57.90834"
     inkscape:window-width="1920"
     inkscape:window-height="1051"
     inkscape:window-x="-9"
     inkscape:window-y="-9"
     inkscape:window-maximized="1"
     inkscape:current-layer="g127" />
  <metadata
     id="metadata1">
Created by potrace 1.10, written by Peter Selinger 2001-2011
</metadata>
  <g
     transform="matrix(0.01900813,0,0,-0.01582069,0.77806125,96.956523)"
     fill="#000000"
     stroke="none"
     id="g127">
    <path
       d="m 1465.4652,5727.1737 c 15,-18 30,-38 35,-44 21,-27 26,-71 26,-251 0,-106 -2,-193 -4,-193 -2,0 -20,18 -39,40 -51,61 -50,41 1,-27 25,-32 80,-118 122,-192 92,-161 137,-225 224,-315 75,-78 61,-74 -60,15 -243,180 -372,375 -395,599 -5,45 -10,63 -12,45 -6,-46 17,-174 44,-239 68,-169 222,-334 434,-468 104,-65 226,-156 241,-179 6,-10 9,-7 9,12 0,21 -11,33 -58,62 -130,80 -252,217 -326,365 -62,123 -90,246 -91,388 0,134 5,147 70,182 46,25 233,23 305,-3 l 55,-20 -95,-6 c -59,-3 -107,-12 -127,-22 -51,-27 -48,-38 4,-15 73,32 175,36 264,8 41,-12 90,-30 110,-40 116,-60 252,-174 279,-237 8,-17 17,-30 21,-27 16,10 34,-65 31,-133 -2,-81 -28,-161 -70,-219 -45,-62 -46,-72 -4,-25 22,24 55,68 73,97 28,44 39,54 64,55 29,2 29,2 4,6 -25,4 -26,6 -15,35 l 11,31 135,-6 c 74,-4 146,-9 160,-12 21,-5 22,-4 8,4 -9,6 -82,15 -162,19 l -145,7 -21,-48 c -22,-48 -47,-58 -30,-11 6,14 10,47 10,73 0,37 5,52 24,70 l 25,23 4,-33 c 4,-32 4,-32 3,3 -1,21 1,39 4,40 3,2 2,21 -1,43 l -6,40 -2,-36 c -1,-27 -8,-41 -26,-53 l -25,-16 v 42 c 1,55 18,85 66,115 l 39,24 -35,-6 c -19,-4 -54,-20 -78,-36 -49,-33 -62,-37 -40,-11 23,25 33,63 16,60 -9,-2 -14,11 -16,41 -4,55 10,71 29,34 26,-52 49,-88 49,-78 0,6 -14,34 -30,62 -28,49 -32,52 -56,42 -15,-5 -45,-24 -67,-41 -38,-31 -39,-31 -32,-7 7,22 7,23 -10,9 -17,-14 -18,-13 -6,10 l 12,25 -20,-23 -20,-22 -15,22 c -11,15 -16,18 -16,8 -1,-10 -9,-6 -25,12 -13,15 -25,23 -27,18 -2,-5 -30,4 -62,20 -32,17 -64,30 -71,30 -6,0 -20,9 -29,19 -10,11 -40,28 -67,37 -27,10 -48,23 -45,29 2,7 -13,12 -42,14 -71,3 -80,16 -32,43 17,9 30,21 30,27 0,23 -62,-11 -73,-41 -3,-10 -17,-19 -29,-19 -160,-9 -236,-46 -253,-122 -12,-56 -17,-128 -10,-145 4,-9 8,-35 10,-57 1,-22 6,-59 10,-83 9,-54 -3,-53 -34,1 -28,48 -31,88 -21,276 6,96 11,126 23,132 16,10 51,102 45,120 -2,6 -18,-18 -35,-53 l -32,-63 -10,28 c -21,54 -23,74 -8,88 7,8 19,26 26,39 8,17 2,12 -20,-13 l -32,-38 -24,36 c -13,19 -28,35 -34,35 -6,0 1,-15 15,-32 z m 1009,-408 c 18,-29 15,-56 -4,-44 -5,3 -6,10 -3,16 4,6 2,8 -3,5 -15,-9 -37,19 -29,38 8,23 20,18 39,-15 z"
       id="path46" />
    <path
       d="m 1457.4652,5628.1737 c -20,-23 -36,-46 -36,-50 0,-5 -5,-8 -12,-6 -18,3 -73,-85 -107,-172 -36,-92 -51,-202 -41,-288 7,-52 16,-73 56,-130 82,-116 189,-213 217,-196 4,2 7,17 7,32 0,28 -27,75 -81,140 -15,19 -26,38 -23,42 2,4 -1,11 -8,16 -7,4 -25,31 -39,60 -15,29 -30,49 -34,45 -5,-4 -5,-2 -2,4 4,6 -1,45 -9,85 -11,51 -14,97 -9,148 6,76 35,176 56,195 9,8 10,6 4,-9 -17,-45 -15,-57 3,-20 11,22 39,60 61,85 36,40 49,60 37,60 -2,0 -20,-19 -40,-41 z m -142,-297 c -10,-23 -6,-48 16,-121 10,-33 14,-61 9,-61 -12,0 0,-28 33,-77 15,-23 28,-46 28,-52 0,-6 25,-44 55,-85 56,-76 78,-126 55,-126 -19,0 -150,138 -195,205 l -40,60 2,119 c 3,126 8,160 24,151 5,-4 10,4 10,17 1,18 2,19 6,5 3,-10 1,-26 -3,-35 z"
       id="path47" />
    <path
       d="m 1654.4652,5408.1737 c -18,-5 -33,-14 -33,-20 0,-7 12,-9 33,-6 96,17 129,17 212,3 60,-11 118,-29 177,-58 110,-52 117,-59 81,-88 l -28,-22 26,7 c 21,5 27,2 32,-14 3,-14 0,-21 -10,-21 -8,0 -12,4 -9,8 3,5 -1,9 -8,9 -8,0 -12,-6 -9,-14 3,-7 20,-13 39,-13 19,0 34,-4 34,-10 0,-16 78,-52 83,-37 6,18 45,-51 52,-94 9,-52 -22,-119 -66,-147 -56,-34 -146,-46 -245,-34 -48,7 -93,17 -100,23 -11,9 -14,6 -12,-15 3,-37 55,-50 203,-51 106,0 126,3 168,24 103,50 130,144 75,263 l -27,57 -44,-1 c -80,-1 -153,76 -108,114 21,16 18,18 -81,67 -57,28 -130,57 -163,66 -65,17 -221,19 -272,4 z"
       id="path55" />
    <path
       d="m 1907.4652,5206.1737 c 27,-13 68,-39 90,-58 33,-28 35,-29 14,-5 -28,31 -92,71 -130,80 -14,4 -2,-4 26,-17 z"
       id="path58" />
    <path
       d="m 1688.4652,5212.1737 c -16,-15 -6,-81 14,-104 l 21,-24 -16,27 c -19,32 -21,79 -4,96 7,7 8,12 2,12 -6,0 -14,-3 -17,-7 z"
       id="path59" />
    <path
       d="m 1809.4652,5127.1737 c -10,-7 -8,-12 9,-27 12,-10 20,-21 17,-24 -3,-3 1,-5 8,-4 32,1 49,-4 43,-13 -4,-6 6,-10 24,-10 41,0 48,17 18,47 -27,27 -97,46 -119,31 z"
       id="path62" />
    <path
       d="m 2505.4652,5110.1737 c 9,-51 -12,-142 -50,-218 -19,-36 -32,-68 -30,-71 7,-7 83,149 91,186 10,50 9,98 -5,119 -9,15 -10,12 -6,-16 z"
       id="path63" />
    <path
       d="m 2041.4652,5091.1737 c 6,-13 10,-35 8,-50 -5,-41 -40,-55 -123,-49 -38,2 -61,1 -50,-3 32,-12 145,-19 145,-9 0,4 7,6 15,3 9,-4 15,0 15,10 0,9 7,16 15,16 8,0 15,4 15,10 0,5 -6,7 -13,4 -10,-3 -13,3 -10,23 3,16 -3,36 -12,48 -16,19 -16,19 -5,-3 z"
       id="path66" />
    <path
       d="m 1801.4652,5054.1737 c 0,-8 44,-28 80,-37 43,-11 108,-10 129,2 10,6 -4,7 -39,3 -41,-4 -70,0 -112,15 -32,11 -58,19 -58,17 z"
       id="path67" />
    <path
       d="m 1702.4652,5013.1737 c -1,-14 37,-49 45,-41 3,3 0,15 -6,27 -9,17 -14,19 -20,10 -6,-10 -9,-9 -13,1 -3,8 -6,9 -6,3 z"
       id="path68" />
    <path
       d="m 1727.4652,4945.1737 c 3,-8 13,-18 22,-21 10,-3 33,-18 52,-35 39,-34 46,-36 57,-16 4,7 15,16 23,19 10,4 8,6 -7,6 -18,1 -86,28 -146,59 -4,2 -4,-3 -1,-12 z"
       id="path69" />
    <path
       d="m 1965.4652,4938.1737 c 0,-15 62,-67 70,-58 1,2 -14,20 -34,39 -26,26 -36,31 -36,19 z"
       id="path70" />
    <path
       d="m 1803.4652,4837.1737 c 31,-57 136,-167 188,-198 23,-14 51,-33 62,-43 10,-10 29,-17 41,-15 17,3 9,11 -40,36 -74,38 -176,130 -228,207 -46,66 -55,71 -23,13 z"
       id="path72" />
    <path
       d="m 925.46524,3569.1737 c -232,-23 -344,-106 -424,-313 -24,-60 -80,-300 -104,-439 -5,-29 -10,-36 -24,-31 -16,5 -16,5 0,-8 15,-12 16,-23 7,-94 -20,-149 7,-605 37,-634 3,-3 4,8 0,24 -24,116 -33,255 -17,255 5,0 16,3 24,6 20,7 30,-101 28,-306 -1,-164 -28,-379 -75,-597 -13,-62 -20,-113 -15,-113 5,0 9,3 9,8 0,6 21,108 36,177 3,11 16,92 30,180 20,125 26,201 27,350 1,105 -2,217 -6,251 l -8,61 40,11 c 21,7 44,19 51,27 16,19 30,19 30,1 0,-7 -19,-31 -42,-51 -39,-36 -35,-41 16,-20 18,8 18,2 13,-166 -4,-111 -11,-194 -21,-228 -22,-75 -12,-76 15,-2 12,34 24,59 27,56 10,-10 1,-178 -13,-245 -8,-36 -30,-104 -49,-150 l -36,-85 30,35 c 16,19 39,55 51,79 31,62 39,39 39,-119 0,-123 -8,-201 -26,-270 -6,-22 -5,-23 9,-10 26,26 119,258 132,333 4,20 11,37 15,37 4,0 13,-37 19,-82 18,-139 20,-138 16,7 -3,111 -12,182 -44,345 -52,265 -65,392 -58,560 9,207 50,369 130,509 74,130 173,199 321.99996,225 167,29 441,15 478,-24 10,-10 4,-11 -28,-6 -106,18 -251,18 -330,2 -44,-9 -83,-20 -88,-25 -5,-5 18,-3 50,5 33,7 98,15 144,16 92,3 268,-7 277,-16 14,-15 21,-4 10,15 -12,18 -10,23 17,42 16,12 43,34 60,49 l 30,28 -50,-22 c -64,-28 -200,-33 -337,-13 -105,16 -197,19 -271,9 -41,-6 -45,-9 -41,-30 3,-17 0,-24 -11,-24 -9,0 -26.99996,-8 -40.99996,-17 -14,-9 -39,-24 -55,-32 -32,-18 -119,-99 -119,-111 0,-4 -16,-31 -35,-60 -19,-29 -38,-64 -41,-79 -3,-14 -15,-46 -26,-71 -11,-24 -22,-54 -24,-65 -2,-11 -8,-45 -14,-75 -32,-161 -39,-223 -35,-310 8,-202 28,-373 60,-500 8,-30 20,-95 26,-144 10,-80 10,-91 -5,-101 -9,-7 -19,-27 -23,-46 -3,-19 -9,-36 -13,-39 -3,-3 -12,-24 -18,-47 -19,-64 -32,-52 -32,30 -1,95 -13,155 -35,171 -17,12 -17,17 -3,75 20,84 23,190 5,232 -9,22 -12,57 -9,99 2,36 -1,114 -6,174 -6,62 -7,118 -2,131 5,13 5,26 -1,32 -6,6 -6,20 0,39 5,16 12,70 15,119 3,50 7,97 10,105 3,8 7,42 10,75 2,33 21,117 43,187 l 40,127 -36,47 c -20,26 -43,50 -51,52 -13,4 -12,2 1,-14 43,-50 60,-114 40,-152 -5,-9 -20,-54 -33,-99 l -23,-83 -48,6 c -60,8 -61,-2 -1,-17 47,-12 67,-35 43,-50 -8,-4 -24,-6 -36,-4 -13,3 -35,7 -50,10 l -28,4 30,-14 c 17,-8 40,-14 53,-15 26,0 27,-1 8,-168 -15,-131 -23,-150 -80,-179 -22,-11 -30,-12 -36,-3 -4,7 -6,103 -5,213 2,181 5,213 29,302 54,207 136,317 290,387 21,10 37,21 33,24 -9,9 -109,-46 -160,-88 -31,-26 -54,-38 -64,-34 -13,6 -7,16 33,57 27,28 81,73 119,101 91,67 89,65 74,73 -8,6 -10,4 -4,-5 6,-10 4,-12 -9,-7 -11,5 -15,3 -10,-5 5,-8 2,-9 -9,-5 -10,4 -16,2 -14,-6 1,-7 -6,-11 -15,-11 -10,1 -15,-2 -13,-7 3,-4 -14,-21 -37,-37 -57,-40 -169,-153 -206,-208 -11,-17 -12,-16 -7,11 4,17 17,51 30,77 13,25 21,48 19,51 -6,6 34,85 54,110 8,9 12,17 7,17 -15,0 71,82 111,106 69,41 221,74 339.99996,74 53,0 59,-20 12,-39 -18,-7 -27,-15 -21,-18 14,-5 115,47 120,62 4,13 -115,15 -222.99996,5 z m -378,-468 c -41,-62 -72,-140 -88,-227 -9,-45 -17,-65 -28,-66 -10,0 -11,-2 -2,-6 6,-2 12,-13 12,-23 0,-13 -5,-17 -20,-13 -25,7 -25,3 0,125 23,111 33,134 93,225 34,52 44,60 55,50 11,-11 7,-23 -22,-65 z m -112,-549 c 1,-194 0,-202 -19,-207 -11,-3 -24,-6 -29,-6 -10,0 -2,376 9,403 4,10 14,17 23,15 13,-3 15,-32 16,-205 z"
       id="path96" />
    <path
       d="m 922.46524,3468.1737 c -106,-49 -101,-62 5,-15 43,19 79.99996,33 81.99996,31 9,-9 -31.99996,-107 -59.99996,-147 -34,-49 -89,-108 -98,-108 -4,0 -5,33 -3,73 3,50 1,77 -9,90 -11,15 -13,10 -10,-40 3,-51 -1,-68 -37,-139 -22,-44 -52,-93 -66,-108 -25,-28 -32,-51 -16,-60 4,-3 23,18 41,47 18,29 43,68 55,87 13,21 31,36 44,37 11,1 31,9 42,17 20,14 23,13 41,-10 17,-21 26,-24 56,-19 47.99996,8 90.99996,24 122.99996,46 25,17 28,17 88,-2 35,-10 70,-19 79,-18 10,0 -16,11 -57,23 l -74,22 24,20 c 13,10 31,28 39,39 8,11 -7,1 -34,-23 -31,-26 -53,-39 -60,-33 -14,10 -99,32 -105,26 -5,-5 7,-9 69,-26 l 45,-12 -70,-23 c -68.99996,-23 -114.99996,-30 -114.99996,-18 0,3 8,18 18,32 33,48 49.99996,96 56.99996,158 11,95 5,99 -93.99996,53 z"
       id="path97" />
    <path
       d="m 971.46524,3079.1737 c -17,-11 -9,-14 54.99996,-25 147,-24 384,-148 368,-192 -4,-10 -14,-23 -22,-30 -14,-10 -13,-11 6,-6 20,5 23,2 21,-21 -2,-19 -8,-26 -23,-26 -11,0 -27,-5 -35,-11 -12,-8 -11,-9 5,-5 55,13 81,15 94,7 12,-8 12,-12 2,-25 -11,-13 -11,-16 2,-16 9,0 19,5 22,10 3,6 16,10 29,10 54,0 94,-150 62,-233 -52,-136 -260,-192 -491,-132 -86.99996,22 -235.99996,98 -303.99996,155 -32,27 -62,46 -65,43 -3,-4 -6,-21 -6,-38 0,-27 9,-40 58,-80 31,-26 71,-54 89,-63 31,-15 33,-14 51,8 25,31 49,21 58,-24 5,-30 12,-37 43,-46 228.99996,-64 421.99996,-49 543.99996,44 106,81 125,233 46,363 -18,29 -21,30 -50,20 -26,-10 -36,-9 -67,9 -24,14 -41,34 -49,55 -10,30 -9,37 9,56 l 20,21 -43,32 c -130,96 -373,175 -428.99996,140 z"
       id="path98" />
    <path
       d="m 1731.4652,2996.1737 c 0,-4 9,-26 21,-48 36,-72 59,-184 59,-292 0,-215 -107,-451 -286,-631 -92,-92 -223,-187 -326,-237 -27,-13 -48,-27 -48,-32 0,-4 -3,-6 -8,-3 -4,2 -46,-9 -92,-25 -47,-16 -91.99996,-29 -100.99996,-29 -12,0 -16,-11 -16,-45 v -46 l 29,36 c 32,39 51.99996,44 62.99996,18 6,-16 8,-15 16,5 16,43 100,21 120,-32 l 12,-31 14,48 c 14,46 33,64 33,30 0,-14 6,-11 24,12 24,30 25,30 40,10 15,-19 15,-19 16,9 0,21 4,27 15,22 8,-3 15,-2 15,2 0,4 16,24 35,46 24,26 40,36 51,32 10,-4 21,0 28,10 7,9 28,16 48,17 33,1 36,3 26,20 -8,15 -5,24 13,43 12,13 31,24 42,24 14,0 18,5 14,20 -7,26 9,36 21,14 7,-12 10,-2 10,37 1,66 24,123 64,161 29,27 31,27 45,11 14,-17 14,-17 8,2 -23,71 -12,118 25,108 31,-8 32,-17 15,-84 -9,-34 -14,-63 -12,-66 3,-2 8,9 11,24 23,95 27,102 44,97 12,-4 12,-2 -3,7 -54,34 -57,43 -41,95 8,27 18,70 21,96 5,35 10,46 21,41 12,-4 14,13 14,106 0,114 -18,231 -48,305 -17,44 -52,106 -52,93 z m -150,-993 c 0,-8 -15,-30 -33,-47 -18,-18 -40,-44 -50,-59 -10,-16 -26,-28 -37,-28 -11,0 -20,-4 -20,-10 0,-5 -12,-10 -27,-10 -21,0 -39,-13 -72,-49 -24,-27 -54,-52 -68,-56 -14,-3 -43,-17 -65,-31 -40,-25 -68,-28 -75,-8 -2,6 36,30 83,54 97,49 174,98 219,141 17,16 36,29 43,29 7,0 12,6 12,14 0,7 16,24 35,37 19,13 35,27 35,32 0,4 5,7 10,7 6,0 10,-7 10,-16 z"
       id="path99" />
    <path
       d="m 900.46524,2942.1737 c -26,-29 -62,-83 -56,-83 2,0 23,25 45,55 46,61 49,69 11,28 z"
       id="path100" />
    <path
       d="m 1733.4652,2798.1737 c 17,-73 4,-293 -22,-369 -54,-160 -136,-285 -277,-421 -141,-137 -237,-191 -412,-235 -108.99996,-27 -96.99996,-32 -154.99996,76 -62,119 -105,304 -107,470 -1,41 -5,86 -10,100 -15,42 -1,-250 16,-326 27,-122 39,-157 92,-271 25,-54 62,-85 94,-78 15,4 47.99996,8 72.99996,9 94,7 291,124 422,252 151,148 243,297 285,463 17,69 20,106 17,216 -2,85 -7,138 -15,146 -9,9 -9,1 -1,-32 z"
       id="path104" />
    <path
       d="m 1101.4652,2788.1737 c 30,-16 66,-40 80,-52 l 25,-22 -20,24 c -20,24 -112,81 -130,81 -5,0 15,-14 45,-31 z"
       id="path105" />
    <path
       d="m 942.46524,2730.1737 c -39,-25 -2,-72 69.99996,-91 39,-11 85,-5 95,11 16,26 -64,85 -106,77 -7.99996,-2 6,-11 33,-21 43,-17 57,-34 40,-50 -3,-4 -12,-2 -20,4 -9,9 -13,8 -13,0 0,-16 -25,-14 -40,4 -5.99996,8 -16.99996,13 -22.99996,12 -6,-1 -13,8 -15,21 -2,12 1,22 7,22 6,0 11,5 11,10 0,12 -20,13 -39,1 z"
       id="path107" />
    <path
       d="m 1263.4652,2637.1737 c -2,-40 -19,-59 -33,-37 -6,10 -9,10 -9,2 0,-18 -54,-43 -97,-45 -36,-1 -36,-1 -6,-5 19,-3 34,-11 36,-21 4,-16 5,-16 6,0 1,12 6,15 18,11 11,-4 14,-3 9,5 -7,11 -3,14 27,16 6,1 22,10 35,22 18,16 23,29 19,55 l -4,34 z"
       id="path109" />
    <path
       d="m 1872.4652,2648.1737 c -18,-6 -31,-12 -28,-15 7,-8 87,8 87,17 0,11 -15,10 -59,-2 z"
       id="path110" />
    <path
       d="m 1486.4652,2510.1737 c -3,-11 -25,-37 -48,-57 -34,-30 -36,-33 -12,-19 32,18 82,81 72,91 -3,3 -8,-4 -12,-15 z"
       id="path112" />
    <path
       d="m 1738.4652,2086.1737 c -9,-18 -18,-39 -19,-46 -9,-48 -136,-269 -160,-279 -5,-2 -8,-8 -8,-14 0,-15 -85,-113 -165,-192 -158,-156 -346,-269 -609.99996,-369 -66,-25 -133,-50 -150,-55 -16,-6 -22,-11 -13,-11 30,-2 242,79 364,139 159.99996,78 279.99996,160 397.99996,271 166,157 281,319 353,496 35,86 41,118 10,60 z"
       id="path114" />
    <path
       d="m 481.46524,1067.1737 c 0,-6 3,-9 6,-5 4,3 19,0 35,-8 17,-9 54,-15 96,-14 61,1 65,2 33,10 -19,6 -56,10 -82,9 -26,0 -49,4 -53,10 -9,14 -35,13 -35,-2 z"
       id="path127" />
  </g>
</svg>
