<?xml version="1.0" encoding="UTF-8" standalone="no"?>
<svg
   version="1.0"
   width="300.000000pt"
   height="650.000000pt"
   viewBox="0 0 300.000000 650.000000"
   preserveAspectRatio="xMidYMid meet"
   id="svg95"
   sodipodi:docname="eye_4.svg"
   inkscape:version="1.4 (86a8ad7, 2024-10-11)"
   xmlns:inkscape="http://www.inkscape.org/namespaces/inkscape"
   xmlns:sodipodi="http://sodipodi.sourceforge.net/DTD/sodipodi-0.dtd"
   xmlns="http://www.w3.org/2000/svg"
   xmlns:svg="http://www.w3.org/2000/svg">
  <defs
     id="defs95" />
  <sodipodi:namedview
     id="namedview95"
     pagecolor="#ffffff"
     bordercolor="#000000"
     borderopacity="0.25"
     inkscape:showpageshadow="2"
     inkscape:pageopacity="0.0"
     inkscape:pagecheckerboard="0"
     inkscape:deskcolor="#d1d1d1"
     inkscape:document-units="pt"
     inkscape:zoom="0.75346154"
     inkscape:cx="200.40837"
     inkscape:cy="327.15671"
     inkscape:window-width="1600"
     inkscape:window-height="871"
     inkscape:window-x="1911"
     inkscape:window-y="114"
     inkscape:window-maximized="1"
     inkscape:current-layer="g95" />
  <metadata
     id="metadata1">
Created by potrace 1.10, written by Peter Selinger 2001-2011
</metadata>
  <g
     transform="translate(0.000000,650.000000) scale(0.100000,-0.100000)"
     fill="#000000"
     stroke="none"
     id="g95">
    <path
       id="path9"
       d="m 207.80065,6492.0089 -0.28876,-17.6597 c -0.2899,-21.1918 5.50638,-47.6814 15.65284,-70.6391 4.05858,-9.4186 6.95701,-17.3655 6.66711,-17.6598 -0.57979,-0.2943 -4.63923,-2.6455 -9.56751,-5.2944 l -8.40395,-4.415 -11.88614,15.3013 c -10.72626,14.1279 -14.78824,21.7807 -25.2246,47.3874 l -3.7667,8.8299 -0.87055,-13.8312 c -0.57979,-9.1242 0.8697,-17.0739 4.34849,-23.5492 2.60909,-5.2979 4.63838,-10.8893 4.34848,-12.361 -0.8697,-3.2376 11.30775,-29.1362 14.78653,-31.4909 1.4495,-1.1773 1.73714,-3.5317 0.57754,-5.592 -2.60909,-4.1206 -11.5934,9.1234 -23.47926,34.4356 -4.63837,10.0073 -9.27846,18.2462 -10.43805,18.2462 -4.05858,0.2943 11.30662,-37.671 19.42379,-48.2669 6.37777,-8.5355 6.9587,-11.4805 4.05971,-15.0125 -4.34848,-5.298 -1.16271,-9.1231 4.05547,-4.7081 2.89899,2.649 6.37947,0.2934 14.78654,-9.7137 11.88585,-14.7164 11.01445,-17.6607 -1.74109,-5.2988 -4.34848,4.4149 -8.11519,7.0656 -8.11519,6.1826 0,-3.5319 27.54124,-28.8437 31.30993,-28.8437 1.73939,0 3.47793,-1.1787 3.47793,-2.9447 0,-1.4717 -3.18718,-2.9448 -6.95587,-2.9448 -6.95757,0 -55.08276,-17.6577 -83.20295,-30.3139 -29.85958,-13.8334 -70.443155,-22.3681 -100.592635,-21.1908 -30.4393786,0.883 -32.7619667,-1.7694 -12.179149,-12.3652 16.234336,-8.5356 34.208629,-8.5333 71.605579,-0.5864 73.344415,15.8937 104.944235,20.3101 153.067445,20.6045 56.82017,0.5886 68.12765,0 68.12765,-2.9448 0,-1.766 -8.70036,-2.06 -20.87612,-1.177 -11.59595,0.8829 -20.28924,0.8841 -19.41954,-0.2931 0.86969,-1.1774 6.37692,-2.0641 12.1749,-2.3584 5.79797,-0.2944 9.85542,-1.47 8.98573,-2.6474 -0.8697,-1.4715 2.60937,-1.7667 7.53765,-0.8838 5.50808,1.1773 8.69697,0.5901 8.69697,-1.4701 0,-1.766 -3.47795,-3.2379 -7.82643,-3.2379 -6.95756,-0.2944 -7.53878,-0.589 -2.90041,-3.238 2.60909,-1.4717 6.37894,-2.0611 8.40823,-0.8838 2.02929,1.4716 2.32003,0.8855 0.87053,-1.7634 -1.73939,-2.9433 -1.16017,-3.5325 2.31861,-2.0609 13.91515,5.8866 15.07249,5.8862 9.27451,1.1771 -3.18889,-2.6491 -7.82585,-5.0057 -10.14504,-5.0057 -2.3192,-0.2943 -1.16131,-1.7663 2.60738,-3.238 3.76868,-1.4716 7.5385,-2.0599 8.40819,-1.177 0.8697,0.8831 -0.28819,1.4746 -2.60737,1.4746 -3.47879,0 -3.47992,0.5857 0.28876,2.9404 2.6091,1.4717 4.92686,1.4728 5.79656,-0.2932 1.15959,-1.766 6.66738,-1.1755 14.20475,1.7677 14.78484,5.2979 24.64453,6.1795 17.68696,1.4702 -3.76868,-2.6489 -3.76868,-2.9415 0,-2.6472 2.31919,0 6.95728,1.1768 9.85627,2.3541 4.92829,2.0602 4.63696,2.6486 -2.9004,5.5919 -4.63839,2.0603 -15.07643,3.2379 -23.4835,3.2379 -15.94443,-0.5887 -25.50883,5.0005 -22.31995,12.9474 2.0293,5.8866 -9.56694,8.5372 -51.02248,10.5975 -31.30908,1.766 -67.83774,0 -94.21853,-4.1218 -27.5404,-4.4149 -40.58444,-5.0021 -36.23595,-1.4701 6.37778,5.0036 27.25135,14.1281 57.40082,25.3126 27.83029,10.3015 44.93262,20.3076 37.39525,22.3679 -5.79797,1.1773 -39.71472,44.7386 -36.23594,46.2102 1.73939,0.5887 4.05831,-0.8844 5.5078,-2.9447 5.50808,-10.0072 11.01616,-15.5971 13.04545,-13.8311 1.15959,1.1772 -2.89786,9.4194 -8.98573,18.5436 -6.08789,8.8298 -10.43835,17.0699 -9.27875,17.9529 0.86969,0.883 9.85911,-6.1824 20.00556,-16.1895 20.58283,-20.3088 42.61457,-33.8479 50.15194,-30.9046 4.34849,1.766 3.76925,2.6498 -2.31862,5.2988 -7.82727,3.2375 -48.12519,34.4382 -48.41509,37.0872 0,1.4716 15.07615,9.4177 15.94585,7.946 11.01615,-18.2484 26.09005,-36.2033 33.91732,-40.6183 3.76868,-2.0603 4.34876,-1.4714 3.18917,3.2379 -0.8697,3.2377 -2.61023,6.7699 -4.05972,7.6528 -1.4495,0.8831 -2.60739,2.6502 -2.60739,4.1218 0,1.4717 7.53539,-1.4733 16.81215,-6.1826 18.26362,-9.4186 24.06217,-10.2993 32.46924,-5.0013 4.63838,2.9433 6.37919,2.3546 11.59737,-4.4149 6.95757,-8.83 14.782,-10.305 20.29008,-3.5355 5.21818,6.1809 7.53963,5.5957 21.16488,-5.2945 13.33534,-10.8901 27.54097,-17.9554 58.56014,-29.4343 11.30606,-4.1206 24.34866,-9.1236 28.98704,-11.184 4.92828,-2.0603 9.27961,-3.8274 10.14931,-4.1218 10.14645,-3.5319 15.65454,-5.8885 30.43937,-13.8354 9.56667,-5.0036 23.19191,-12.9494 30.43938,-17.953 7.24747,-5.0035 20.29208,-14.1272 29.56884,-20.0138 8.98686,-6.1809 18.55353,-14.4198 21.74242,-18.2461 2.89899,-3.8263 11.30464,-14.1287 18.842,-22.9585 25.801,-30.0217 28.70167,-33.5533 40.87742,-49.7414 6.66767,-8.8299 14.49494,-18.8371 17.39393,-22.0747 6.37778,-7.0639 30.1478,-47.3884 46.09224,-77.9987 6.37777,-12.0676 12.46762,-23.2535 13.62721,-25.0195 1.1596,-1.4717 4.63554,-8.827 7.24464,-16.1852 2.89898,-7.3583 11.59963,-23.5472 19.71679,-36.2034 7.82727,-12.6562 14.78317,-27.3713 15.65287,-32.3748 0.57979,-5.298 3.4782,-11.4797 6.66708,-14.1287 4.05859,-3.2376 5.50808,-7.3605 4.34849,-12.6584 -0.5798,-4.4149 1.16046,-12.6545 5.21904,-20.307 7.24748,-14.4222 9.56667,-26.7857 4.34849,-23.8424 -2.02929,1.1773 -0.87141,-1.1751 2.60738,-5.0014 3.18888,-3.8262 7.82898,-10.3011 10.43806,-14.4218 4.05859,-7.0639 4.05772,-7.9478 -0.87056,-14.1286 -6.08787,-7.6526 -5.21592,-10.596 8.11943,-30.9046 6.08788,-9.1242 8.69528,-15.5986 6.95589,-16.7759 -4.63838,-2.9433 37.39469,-41.2087 61.45629,-55.6309 15.07476,-9.4186 17.68723,-4.7087 3.48218,6.4758 -6.37777,5.0036 -18.55323,16.4827 -27.2502,25.3126 -16.52424,17.3655 -52.47482,64.1633 -52.47482,68.5782 0,1.1773 13.62525,-7.0616 30.43938,-18.2462 29.56968,-20.3086 55.66226,-34.4384 58.27133,-31.4952 0.86978,0.883 -6.95866,6.1823 -17.10512,11.7747 -10.14645,5.8865 -25.80099,17.9549 -34.78786,27.3735 -17.97373,18.2484 -44.06207,51.2115 -40.87318,51.2115 1.15959,0 8.98686,-4.7078 17.39393,-10.3 19.13332,-12.9506 38.26464,-21.1917 60.29695,-26.4897 21.45254,-5.298 17.68418,-0.8844 -5.50778,5.8851 -23.48181,6.7696 -40.87574,16.4845 -56.53028,31.4953 -14.78484,14.1278 -30.4388,34.1388 -28.40951,36.199 0.57981,0.883 9.56496,-3.2344 20.00132,-8.5323 22.61211,-12.3618 66.38654,-25.3161 66.38654,-20.0181 0,1.1773 -8.1149,4.1223 -17.97146,6.1825 -10.14646,2.0604 -25.51336,7.6517 -34.21033,12.361 -17.68383,9.4186 -51.31238,42.09 -46.67401,45.0333 1.4495,1.1773 3.48192,0.589 4.64152,-1.177 1.73939,-2.9433 20.2932,-11.7747 24.93159,-11.7747 5.50808,0 2.02561,4.7093 -6.67136,8.8299 -10.72625,5.0036 -39.71588,42.0892 -48.99264,61.8092 -35.94745,78.8803 -70.15523,133.3326 -118.56833,188.3722 -10.43636,12.0675 -22.90059,27.0766 -27.53897,33.5519 -8.11718,10.5958 -54.50212,43.855 -86.68089,61.8092 -14.20504,7.9468 -54.49843,24.7268 -75.66105,31.202 -38.84645,12.3619 -80.593,45.0293 -95.37785,74.7565 -4.34848,9.4185 -7.53682,17.6607 -6.66712,18.5436 3.18889,2.9433 53.34054,2.063 73.05367,-1.7634 11.30605,-2.0603 24.63943,-4.4158 29.85761,-5.2987 5.21818,-0.8831 10.15014,-2.6502 11.01984,-4.1218 0.86969,-1.4717 4.05573,-2.6472 7.24463,-2.6472 7.53736,0 54.21363,-20.3094 76.53584,-32.9655 23.77171,-13.8335 52.75904,-33.8485 66.96408,-46.2103 19.13333,-17.071 23.77397,-20.6028 25.51336,-18.8368 0.8697,0.883 2.89786,-1.7677 4.63725,-6.1826 1.73939,-5.0037 4.05917,-7.0625 6.37835,-5.8851 1.7394,1.1773 2.31778,0.882 1.44808,-0.884 -2.02929,-3.2376 6.0873,-12.0666 11.01557,-12.3609 1.7394,-0.2944 2.90042,-1.47 2.90042,-2.6472 0,-2.3547 8.98828,-12.6597 42.03675,-47.6849 6.66768,-7.3582 11.30577,-11.1844 9.85627,-8.8298 -1.44949,2.6489 0.87054,0.5887 5.21902,-4.415 4.34849,-4.7092 8.1152,-10.0055 8.1152,-11.4771 0,-1.1773 2.60767,-5.2979 5.79655,-8.8299 32.17878,-35.6139 91.31927,-141.2798 117.12026,-209.2699 17.97374,-46.7984 19.13362,-49.4453 20.58311,-47.9737 1.7394,1.4717 -18.5521,55.6288 -31.88745,85.9447 -32.75857,74.7597 -81.46215,158.3473 -115.09042,198.0817 -26.09089,31.199 -95.08624,103.0171 -115.37916,120.9711 -50.1525,43.2665 -117.99025,76.8203 -176.83972,87.1218 -14.49494,2.3547 -68.99508,2.6478 -81.75063,0.2932 -13.04545,-2.6489 -14.49775,0.8842 -14.49775,35.0263 0,19.1315 -0.57699,22.0722 -2.89618,15.0082 -1.44949,-4.7093 -2.029,-19.129 -1.15931,-31.4909 l 1.44808,-22.9585 h -8.11516 c -6.95759,0 -8.69953,1.7643 -11.30862,11.4771 -2.02929,6.1809 -3.47794,20.9003 -3.47794,32.3791 0,15.0107 -0.86998,20.6016 -3.18917,19.1299 -3.18889,-2.0603 -1.73769,-51.2123 1.74109,-60.9252 1.4495,-3.2377 -12.17886,-9.7138 -39.42936,-18.5437 -3.47878,-1.1773 -7.53567,3.5309 -15.65283,17.953 -12.46565,22.9577 -15.36606,31.2018 -20.29434,58.8688 z m 100.59263,-92.7137 c 4.34848,0 6.67052,-3.8269 10.1493,-15.3058 2.60909,-8.5355 8.98432,-23.2494 14.7823,-32.668 11.01615,-18.2484 11.59623,-19.7205 7.53765,-19.7205 -4.92828,0 -37.97704,56.2182 -37.97704,64.7538 0,1.4717 2.6088,2.9405 5.50779,2.9405 z m -26.34143,-6.769 c 5.54431,-0.1472 9.24053,-1.3237 9.24053,-3.5312 0,-2.0603 4.34819,-12.6579 9.85627,-23.8423 5.50808,-11.1846 9.56553,-20.601 8.98573,-21.4841 -2.60908,-2.3546 -20.00132,7.0645 -37.39525,19.7207 -25.801,19.4257 -27.25417,22.0746 -11.01984,26.4897 7.39242,1.9131 14.78824,2.7943 20.33256,2.6472 z m -98.49483,-143.5891 c -0.0357,0.011 -0.0742,-0.011 -0.11041,-0.043 -0.57981,0 -8.40707,-2.9439 -17.39393,-6.4758 -8.98686,-3.8263 -17.39365,-7.6526 -18.55325,-8.8299 -4.05858,-4.1206 4.92857,-2.058 16.23462,3.8286 6.37778,3.2376 13.33677,5.8852 15.94586,5.8852 2.31919,0 4.34848,1.473 4.34848,2.9446 0,1.5453 -0.22167,2.6381 -0.47137,2.6904 z m 12.06873,-3.2811 c -2.31918,0 -10.72908,-2.9426 -18.84624,-6.769 -3.48596,-1.704 -6.28236,-3.273 -8.1704,-4.5356 l 5.85177,-1.3495 c 4.05858,-1.1773 8.40734,0.2923 11.88613,3.8243 3.18889,3.2376 7.53822,6.4766 9.56751,7.3597 3.1889,1.1773 3.19002,1.4701 -0.28877,1.4701 z m -27.01664,-11.3046 -0.52657,0.1207 0.40342,-0.2026 c 0.0395,0.027 0.0827,0.055 0.12315,0.082 z m -0.12315,-0.082 c -2.26007,-1.5281 -3.1157,-2.5816 -1.8515,-2.7421 3.76868,0 3.76868,-0.2914 0,-2.9404 -5.79798,-3.8262 -9.56808,-3.8262 -7.24889,0 1.1596,1.766 -1.44921,1.4697 -5.50779,-0.5907 -4.05859,-1.7659 -7.53766,-4.7067 -7.53766,-6.1783 0,-1.4717 2.03128,-0.8832 4.93027,1.177 3.76868,3.2377 4.92686,3.2354 5.79656,0.5864 1.15959,-2.9433 2.89927,-2.647 7.53765,0.5907 9.27676,6.7696 13.33733,5.2962 4.93026,-1.7678 -4.05858,-3.2376 -5.51147,-5.2989 -3.48218,-4.1217 2.02929,1.1773 5.50835,0.589 7.53765,-1.177 2.60909,-2.3547 9.27931,-8e-4 24.35405,7.9461 11.59595,6.1809 20.29349,12.0697 19.42379,12.6584 -0.5798,0.8829 3.47765,1.7677 8.98573,1.7677 5.79798,0.2944 11.88472,1.7619 13.33422,3.2336 3.47878,3.532 -20.58141,2.9456 -31.88747,-0.5864 -5.50807,-1.766 -6.08815,-2.9439 -3.18916,-6.4758 4.63838,-5.8865 -0.002,-5.2982 -7.24889,1.1771 -6.08787,5.0035 -6.08561,5.005 -0.57753,-1.4703 5.79798,-7.0639 2.89672,-9.4199 -3.77096,-2.9448 -3.18888,2.9434 -3.47623,2.6513 -1.73683,-0.5862 1.73938,-3.2376 1.16015,-3.83 -2.31863,-2.3584 -2.60909,0.8829 -4.6415,0.8842 -4.6415,-0.2932 0.8697,-5.8866 -0.58008,-9.712 -3.18917,-7.9461 -1.44949,0.8831 -2.89616,0.2958 -2.89616,-1.4702 0,-1.7659 -1.45289,-2.3543 -3.48218,-1.177 -2.31919,1.4717 -1.73656,3.2374 1.45232,5.592 4.34849,3.2376 4.34679,3.8246 -1.74108,7.0622 z m -148.502384,11.0201 c 0.760984,0.2944 2.717519,0.071 6.051356,-0.5174 4.92828,-0.8829 18.553525,-2.9433 30.439377,-4.4149 l 21.742413,-2.6472 -26.961442,0.8838 c -16.234334,0.2944 -28.121319,2.0573 -30.150611,4.1175 -1.449494,1.4716 -1.882077,2.2839 -1.121093,2.5782 z m 260.497044,-1.8884 c -4.69649,0.1072 -12.94184,-1.4064 -19.62762,-4.2209 -8.40707,-3.5319 -9.85713,-3.5308 -10.72683,-0.2932 -0.57979,3.2377 -4.63923,2.6476 -18.26447,-2.9447 -9.56666,-4.1206 -17.68468,-7.3554 -18.26448,-7.3554 -0.5798,0 -2.8e-4,-1.4719 1.15931,-3.2379 1.15959,-2.0603 0.28934,-2.9439 -2.02986,-2.0608 -4.63838,1.766 -21.45109,-5.8878 -18.842,-8.5368 0.86969,-0.8829 3.48048,6e-4 6.08957,2.0609 2.60908,2.3547 4.34848,2.651 4.34848,0.5907 0,-2.0603 3.47567,-1.1799 8.40395,1.7634 4.63838,2.6489 7.82868,5.8891 7.24889,7.0664 -0.8697,1.1774 0.86884,1.4705 3.47794,0.2932 3.47879,-1.1772 4.34989,-0.8844 2.9004,1.4702 -1.4495,2.3547 -0.28848,2.9419 2.90041,1.4703 3.18888,-1.1773 4.34876,-0.879 3.18917,1.1813 -1.4495,2.0603 0.28989,2.6475 4.34848,1.4702 4.34848,-1.1773 5.5061,-0.5881 3.7667,2.0609 -1.73939,2.9433 -0.87168,3.2354 3.7667,0.5863 3.18889,-1.766 8.40962,-2.3532 11.3086,-1.4701 4.34849,1.4716 4.63923,1.1755 0.87055,-1.7678 -3.76868,-2.9432 -3.48218,-3.235 0.8663,-1.7634 2.89899,0.8831 6.09156,1.7634 6.67136,1.7634 0.86969,0 0.86969,1.1799 0,2.6516 -1.1596,1.4716 1.15846,2.0601 4.63725,1.177 5.50807,-1.1773 5.7974,-0.8824 2.31862,2.061 -3.76868,2.9433 -3.76868,3.2381 0,2.0608 2.31919,-0.5887 4.05773,-2.9454 3.47794,-5.0056 -0.5798,-2.0603 1.45034,-2.6476 5.21903,-1.4703 3.18888,0.8831 8.11773,0.2915 10.72681,-1.4745 4.34849,-2.6489 4.05803,-2.943 -2.02985,-1.177 -9.56666,2.6489 -5.79996,-1.4697 8.11519,-8.2392 5.79798,-2.9433 8.11915,-4.414 4.93026,-3.5311 -3.18889,0.8831 -8.40848,2.3549 -11.59737,3.2379 -4.92828,1.1774 -5.21676,0.8824 -1.44808,-2.0609 3.47878,-2.6489 3.18832,-2.9461 -2.02986,-1.4745 -3.47879,0.883 -6.95559,0.2958 -8.11518,-1.4702 -1.7394,-2.649 24.35008,-5.0039 36.23594,-3.2379 2.31919,0.2943 6.66851,0.8827 9.5675,1.177 2.60909,0.2944 4.92602,1.1768 4.92602,2.3541 0,2.3546 -23.48097,12.0692 -25.22036,10.5976 -0.57979,-0.8829 2.90128,-2.9422 8.11946,-4.7082 5.21818,-1.7658 8.6961,-4.1238 7.8264,-4.7124 -0.8697,-0.883 -7.24718,0.589 -14.20475,3.2379 -6.66767,2.9433 -10.7274,5.8872 -8.4082,6.4758 2.60908,0.8831 1.4492,2.6487 -3.18917,5.592 -5.79798,3.532 -5.7977,3.8278 -1.15932,2.9448 3.18889,-0.883 8.40849,-2.3538 11.59738,-3.5312 4.05858,-1.1773 3.47594,-0.2959 -1.45234,2.6473 -4.34848,2.649 -10.72342,3.8277 -15.9416,2.9447 -6.66767,-1.1773 -7.53737,-0.8844 -4.34848,1.4703 3.04394,2.189 1.53804,3.2535 -2.11479,3.337 z m 383.91073,-4.5141 12.75668,-12.361 c 6.66768,-6.7696 11.88528,-13.2468 11.01558,-13.8354 -0.8697,-0.8831 -6.37891,4.7084 -12.75669,12.361 z m -282.65986,-6.9371 c -3.31233,0.026 -8.18315,-0.8278 -13.61876,-2.4834 -7.82726,-2.0603 -18.2622,-3.237 -23.19049,-2.3541 -6.66766,1.1773 -7.82727,0.8856 -4.34848,-1.7634 3.18889,-2.3546 2.31919,-2.6487 -4.34848,-1.177 -7.82727,1.766 -8.40706,1.469 -4.34848,-2.6516 4.05858,-4.4149 6.08617,-4.4149 20.00131,0 21.45251,6.4753 21.45251,3.2377 0,-4.4149 -25.801,-9.7129 -19.71199,-10.006 8.40819,-0.2932 14.20505,4.7093 26.6707,7.3588 30.43939,6.4759 l 6.37835,-2.061 -6.6671,-0.8838 c -3.47878,-0.5887 -5.50694,-2.3558 -4.63724,-4.1218 1.15959,-1.7659 -0.29104,-2.3543 -4.05972,-1.1769 -5.79798,2.0602 -36.81915,-8.2381 -39.71814,-12.9474 -0.8697,-1.4716 4.05916,-0.2972 10.72683,2.9404 6.95757,3.2376 14.49721,5.5919 16.8164,5.5919 2.31918,0 2.9e-4,-1.7659 -5.50779,-4.4149 -5.50808,-2.3546 -9.27677,-4.7089 -8.69696,-5.592 0.86969,-0.5886 12.46251,3.2377 25.79786,8.83 29.27979,11.7731 40.58868,15.0102 40.58868,11.1839 0,-1.7659 -10.72683,-6.4715 -23.77229,-10.8864 -28.12018,-9.4186 -42.90729,-16.1887 -42.90729,-19.7207 0,-1.4717 2.89844,-0.8845 6.66712,1.4702 9.56667,6.4752 42.32523,18.2498 56.53028,20.6045 16.81414,2.649 15.36832,0 -2.02561,-3.8285 -15.65454,-3.2377 -48.41565,-17.0686 -46.09647,-19.4233 0.5798,-0.8829 7.82982,1.7658 15.6571,5.592 7.82726,3.8263 23.48067,9.1214 35.07662,11.7703 24.3515,5.5923 24.06103,5.5928 24.06103,2.061 0,-1.1774 -5.21961,-3.2346 -11.59737,-4.1175 -13.62526,-1.766 -54.49844,-17.3683 -49.57016,-19.1343 1.7394,-0.5886 10.43381,2.3552 19.13077,6.4758 8.69697,4.1206 23.48239,8.8316 32.46925,10.5976 20.00303,3.5319 19.13559,3.5319 16.8164,0 -0.8697,-1.4716 0.57895,-2.9436 3.47794,-3.238 4.63839,0 4.63639,-0.2968 -0.5818,-2.6515 -5.79797,-2.3546 -5.79484,-2.6472 0.29304,-2.6472 3.18888,-0.2943 6.9567,0.5872 7.82639,1.4702 2.6091,2.649 -21.45222,21.7815 -27.2502,21.7815 -2.60908,0 -7.82869,2.3543 -11.59738,5.5919 -4.34847,3.532 -11.88385,5.592 -21.1606,5.592 -7.53737,0.2944 -15.36464,1.4731 -17.39393,2.9448 -0.65228,0.6622 -2.08085,0.9933 -4.06821,1.0089 z m -112.3981,-0.7416 c -1.64342,0.1364 -0.32699,-1.2813 4.56506,-4.0959 8.40706,-5.0036 6.37777,-5.5908 -4.34849,-1.4702 -4.92828,2.0603 -6.9604,2.0603 -5.80081,0 2.6091,-4.1206 -1.44807,-3.5334 -10.14504,1.4702 -8.98687,5.298 -7.82699,5.2994 -22.90173,-1.4702 -6.95757,-3.2376 -11.88528,-6.7698 -11.01558,-7.6529 0.86969,-0.8829 4.63951,0.2958 8.40819,2.9448 3.47879,2.6489 8.40651,4.7093 11.01559,4.4149 2.89899,0 2.02873,-1.1775 -2.02985,-3.2379 -3.76869,-1.766 -6.66712,-4.4166 -6.66712,-6.1826 0,-1.4717 2.02817,-1.1777 4.63726,1.177 3.76868,2.9433 4.92658,2.9456 6.95587,-0.5863 2.31919,-3.532 3.48219,-3.2392 7.83067,1.4701 4.92828,5.298 4.92771,5.2971 -2.02987,3.5311 -5.79797,-1.7659 -6.3772,-1.4719 -2.31861,1.1771 2.60908,1.4716 6.95417,2.06 9.56326,1.177 3.76868,-1.4716 4.0583,-2.6489 1.15931,-4.4149 -2.31919,-1.1774 -2.8953,-3.2377 -2.02561,-4.4149 1.1596,-0.8831 4.05801,0.2957 6.66711,2.9446 5.21817,5.0036 11.59595,6.477 8.69696,1.7677 -2.31919,-3.8262 1.4461,-3.5354 9.56327,0.8796 l 6.67135,3.8286 -7.53765,3.531 c -4.56591,2.0604 -7.63533,3.1059 -8.91354,3.2121 z m -168.13001,-23.6441 c -4.348482,-0.028 -11.753078,-2.6717 -14.289692,-6.3508 -6.667673,-9.4185 -5.219594,-12.6573 1.448079,-4.1217 3.478786,4.1206 7.826983,7.0656 9.856275,6.1827 2.319198,-0.8831 4.926868,-0.2947 5.796568,1.1769 1.30455,2.2076 -0.20214,3.1302 -2.81123,3.1129 z m -4.654236,-8.1227 c -1.287692,-0.217 -5.172319,-5.2282 -9.928469,-13.5337 -4.058583,-7.3583 -6.956158,-14.4228 -5.796562,-15.3058 0.869696,-0.8829 2.897858,2.0609 4.637251,6.4758 1.739393,4.4149 3.771799,7.6521 4.641497,6.769 0.579797,-0.8829 -5.65e-4,-5.2976 -2.029859,-10.0069 -7.247472,-19.1313 -10.146743,-38.8505 -3.189171,-21.1908 3.188887,7.3582 8.696119,17.9538 12.174905,23.2518 5.797974,8.2411 6.087304,9.7108 2.31862,12.6541 -2.319185,1.766 -3.768968,5.0062 -3.189171,7.0664 0.996526,2.7319 1.035463,3.9337 0.360959,3.8201 z m 329.558916,-4.8849 c -3.36609,0.046 -6.71663,-0.4829 -8.70968,-1.5867 -4.34849,-2.0603 -3.47879,-2.3543 4.34848,-1.177 l 10.14504,1.7677 -7.24889,-4.7082 c -4.34849,-2.9432 -5.21874,-4.1208 -2.02984,-3.2379 14.78483,4.7093 20.29375,5.2974 18.26446,2.3541 -0.8697,-1.766 -6.08617,-4.1226 -11.30434,-5.0056 -13.33535,-3.2376 -31.02118,-10.5958 -31.02118,-13.2448 0,-1.4716 4.92773,0 11.01561,2.9447 5.79797,2.9433 21.16601,7.6512 33.92155,10.3001 28.12019,5.8866 32.17794,8.8299 12.17491,8.8299 -8.40707,0 -18.844,0.8835 -23.77228,2.0608 -1.7394,0.4416 -3.76416,0.6752 -5.78384,0.7029 z m -380.942354,-4.2339 c -1.449494,0 -3.478786,-1.1768 -4.348482,-2.3541 -2.319191,-3.8263 0.869696,-25.0189 8.696965,-53.8631 3.768684,-15.3052 8.989412,-35.0264 11.308603,-43.8562 10.146459,-40.3232 55.368128,-155.992 62.615608,-160.7013 2.89898,-1.766 -3.18889,15.3025 -21.74242,59.1576 -11.306054,27.0783 -15.652839,39.4416 -33.046769,95.6585 -10.726257,34.4366 -21.164314,81.2343 -19.135022,86.2379 0.869696,2.9433 0.292447,7.066 -1.736845,9.4206 -1.739393,2.3547 -2.611919,5.5893 -1.452324,7.3553 0.869697,1.4717 0.580079,2.9448 -1.159314,2.9448 z m 364.257614,-0.4786 c -0.79723,-0.037 -2.75404,-0.8474 -6.52273,-2.4662 -3.18888,-1.1773 -9.56637,-3.8259 -14.20475,-5.5919 -4.63838,-1.766 -7.53682,-4.1184 -6.66712,-5.0013 0.8697,-0.8831 5.50979,0.5857 10.43807,2.9404 11.01616,5.8866 17.68241,6.1841 10.14504,0.2975 -4.92828,-4.1206 -4.92686,-4.1215 2.90041,-0.8838 4.34847,2.0602 6.6654,4.1194 4.92601,4.708 -1.73939,0.5887 -2.60766,2.357 -1.44807,3.8286 0.8697,1.4716 1.23036,2.2055 0.43314,2.1687 z m 61.60493,-5.4066 c -1.4495,0 -2.90041,-1.1799 -2.90041,-2.6515 0,-1.1773 -3.18605,-1.7669 -7.24464,-0.8838 -7.24747,1.1773 -58.27305,-13.2432 -55.66396,-15.8921 0.86969,-0.883 11.8884,2.062 24.35405,6.1826 13.33535,4.415 25.51052,6.7693 28.4095,5.592 5.21818,-2.0604 5.21932,-2.3578 -0.28876,-4.7125 -3.76869,-1.4716 -2.03156,-1.7625 4.92602,-0.8795 5.79797,0.883 13.62524,0.2914 17.39393,-1.4745 5.79797,-2.649 5.2193,-2.9419 -4.63726,-1.4702 -10.14645,1.1773 -10.72625,0.8813 -4.34847,-1.7678 6.66767,-2.9433 4.9297,-3.8247 -18.84201,-10.3 -14.20505,-4.1207 -27.25191,-8.8316 -28.99131,-10.5976 -2.02929,-2.3547 -1.44778,-2.6476 1.7411,-1.4703 19.71313,6.7697 46.3824,14.1302 62.32684,17.0735 17.39392,2.9433 18.55265,3.5314 12.17488,6.769 -4.63838,2.649 -7.24747,2.6466 -8.69696,0.5864 -1.4495,-2.0604 -2.31861,-2.0584 -2.31861,0.5907 0,2.0602 -3.19031,5.0041 -7.2489,6.4758 -4.05858,1.4716 -7.24463,4.1192 -7.24463,5.885 0,1.4718 -1.16102,2.9448 -2.9004,2.9448 z m -360.23612,-0.038 c -0.76099,-0.037 -2.86417,-1.7292 -5.61821,-4.9668 -6.667673,-7.9469 -11.59256,-18.2464 -9.563268,-21.4841 0.869698,-1.4716 -0.291313,-7.0673 -2.900401,-12.3653 -4.058582,-8.8298 -4.349899,-9.1227 -2.9004,-1.4702 2.029292,10.5959 0.0035,10.0063 -4.055474,-0.8839 -1.739394,-5.2978 -1.742507,-8.2383 -0.293013,-7.3552 1.739393,1.1773 2.900403,-1.1794 2.900403,-5.0056 0,-4.4151 2.60739,-0.5902 6.955875,10.3 3.768688,9.1242 8.988278,20.0161 11.597368,23.8425 3.18889,5.2978 3.47964,7.6536 0.87054,8.5366 -2.60908,0.883 -2.61135,2.3532 0.57754,5.8852 2.60909,3.3847 3.19002,5.0035 2.42904,4.9668 z m 332.69714,-14.9737 c -3.18888,0 -12.17717,-2.6487 -20.29434,-5.592 -19.13332,-7.3583 -13.33534,-7.3583 8.69697,0 9.56666,2.9433 14.78626,5.592 11.59737,5.592 z m 14.49352,-2.9448 c -3.18888,0 -14.20446,-2.6475 -24.06102,-5.8852 -10.14646,-3.2376 -17.97602,-6.7699 -16.81642,-7.6528 0.86969,-0.8829 7.83094,0.589 15.36832,3.2379 7.53737,2.3547 17.97033,5.8881 22.60871,7.3597 5.79798,1.766 6.6691,2.6461 2.90041,2.9404 z m -342.65533,-5.8895 c -0.69305,-0.069 -1.67061,-1.1743 -2.32288,-2.9403 -6.37776,-17.6599 -13.045444,-39.4396 -13.045444,-42.0886 0.289904,-1.766 4.058584,7.3576 8.696974,20.0138 4.92827,12.9506 8.11433,24.1376 7.24463,24.7263 -0.14495,0.2207 -0.34227,0.3119 -0.57328,0.2888 z m 392.79029,-0.1939 c -2.11203,-0.016 -5.11146,-0.5393 -9.55054,-1.5694 -22.61211,-4.7093 -52.75875,-13.8306 -55.07794,-16.1853 -2.02929,-2.3546 -1.16243,-2.6498 2.89615,-0.8838 11.88585,4.7093 49.57215,13.2448 58.84892,13.2448 5.79798,0 8.99025,1.1787 7.83065,2.9447 -0.9784,1.6556 -2.23178,2.4696 -4.94724,2.449 z m 11.61434,-5.6869 c -0.5798,-0.2943 -8.11943,-2.0614 -16.8164,-4.1218 -14.49494,-3.5318 -15.07332,-3.8262 -5.79655,-4.4149 l 10.14504,-0.2931 -13.04545,-3.8286 c -7.24748,-2.0603 -26.08806,-7.3554 -42.03249,-11.7703 -15.94444,-4.7093 -34.2109,-10.5991 -40.58868,-13.5423 -6.37778,-2.6491 -14.78342,-6.1781 -18.84201,-7.3554 -14.20504,-4.4149 -65.51911,-40.9135 -83.20294,-59.1619 -23.77171,-24.4294 -36.52556,-44.7379 -46.09222,-71.8161 -8.40707,-23.8407 -9.56468,-43.5607 -3.7667,-57.3942 l 3.7667,-8.83 1.15931,8.2393 c 0.5798,5.8866 2.31777,7.9506 5.79656,6.7732 2.60909,-0.5886 12.75753,-2.9464 22.32419,-4.7124 19.71313,-3.5319 44.35595,-8.8304 50.73372,-10.8906 3.76869,-1.1774 3.76869,-1.4697 0,-3.8244 -3.47879,-2.3546 -2.89957,-2.9447 2.31861,-2.9447 3.76869,0 5.79572,1.1787 4.92603,2.9447 -2.0293,3.532 3.4802,3.532 11.59737,0 5.21818,-2.3546 5.2196,-2.6504 -1.44808,-2.9447 -4.05858,-0.2943 2.89842,-2.9419 15.36406,-5.8852 29.56968,-6.7696 39.42738,-11.1824 38.84758,-17.069 -0.2899,-4.415 -4.93083,-5.0077 -33.05102,-5.5963 -35.07776,-0.5887 -55.08192,-6.1796 -51.89302,-14.7151 2.60908,-6.7696 -16.23434,-24.4287 -26.09091,-24.4287 -9.27674,0 -27.25018,9.7113 -27.25018,14.715 0,1.766 -1.15678,2.3575 -2.89616,1.4746 -1.7394,-1.1774 -2.90041,1.4701 -2.90041,5.8851 0,4.1205 -1.15903,7.0656 -2.31862,6.1826 -1.1596,-0.5887 -2.031,-9.7166 -1.7411,-20.0181 0.2899,-10.3015 0.58065,-23.5423 0.87055,-29.7233 0.2899,-7.3582 1.44865,-10.599 3.47794,-9.1274 1.73939,0.8831 2.3189,5.0045 1.15931,9.7138 -1.44949,6.1809 -1.15789,7.0651 1.74109,4.1218 2.0293,-2.0603 4.05859,-9.42 4.34848,-16.1897 0.2899,-7.0638 0.58065,-15.0107 0.87055,-17.6597 0.2899,-2.9433 1.44978,-5.2987 3.18917,-5.2987 1.44949,0 2.31664,3.5342 1.73684,8.2435 -0.57979,4.4149 -0.28678,5.5894 0.29302,2.9404 0.5798,-2.9432 2.89672,-5.2945 4.92601,-5.2945 1.7394,0 5.21648,-4.4146 6.95588,-10.0069 5.21819,-14.4222 14.49495,-25.3126 21.74242,-25.3126 5.50808,0 5.221,0.8816 -2.89618,5.8852 -11.01615,6.7695 -12.46707,10.2997 -2.90041,7.0621 20.58283,-7.0639 26.67157,-2.3537 18.2645,14.1287 -4.05858,7.6526 -3.76868,7.9489 8.69696,13.8355 6.95758,3.532 13.3362,6.1783 13.91599,6.1783 0.5798,0 2.60909,-4.1183 4.34849,-9.4162 l 3.18917,-9.1231 -6.37835,5.592 -6.08956,5.592 5.50779,-9.7138 c 2.89899,-5.2979 5.79853,-8.5381 6.37832,-7.0665 0.2899,1.4717 6.08704,2.0632 12.17491,1.4745 9.27677,-0.8829 11.59738,-0.2963 11.59738,3.8244 0,3.5318 1.73768,4.4163 6.95586,2.9446 4.34848,-1.1773 8.11888,0 10.43807,2.6473 4.05858,5.0036 9.85598,2.9438 6.66709,-2.354 -1.15959,-2.0604 0.29132,-1.7641 2.90042,0.5906 3.76868,2.9433 4.34592,5.0028 1.73683,7.9461 -2.60908,3.2375 -2.31945,4.1217 1.15934,4.1217 6.66767,0 7.83095,-6.4753 2.32287,-13.2448 -2.31919,-3.2376 -0.58093,-2.061 4.63725,2.3541 10.43636,9.7128 16.23489,9.1227 28.12074,-2.9448 7.82727,-7.9469 10.14336,-14.717 4.05548,-10.8908 -2.02929,1.1774 -1.15791,-0.5855 1.74108,-4.1174 6.66767,-7.6526 8.11688,-8.243 5.50778,-1.7677 -1.44949,4.1206 -0.86882,4.4147 5.21906,1.177 6.66767,-3.8263 6.95812,-3.5313 2.02984,2.0609 -2.89899,3.2376 -5.21902,7.0651 -5.21902,8.5367 0,1.766 -4.05859,7.0641 -8.69696,12.0678 -7.53738,7.6525 -11.59512,9.4172 -25.22037,10.3001 -8.98686,0.2944 -19.71367,-0.5892 -23.77226,-2.0609 -9.85655,-4.1206 -16.23575,-3.8254 -15.94585,0.8839 0.2899,1.7659 0.58064,7.9469 0.87053,13.2447 0.28991,6.7697 1.73911,9.7127 5.50779,10.007 6.95758,0.5887 25.22007,7.6516 30.72815,12.3609 4.05858,3.532 4.05971,4.7093 -0.28877,13.2449 -2.60909,5.0035 -5.21676,7.358 -5.79655,5.592 -0.8697,-2.0604 -2.60909,-3.8244 -4.34849,-3.8244 -1.73939,0 -0.86911,2.6476 2.02988,5.8852 3.76869,4.1206 5.21592,10.0067 4.92602,20.0138 -0.5798,16.7768 -6.08817,22.3685 -29.28008,28.8438 -8.98686,2.3546 -20.87158,6.182 -26.37966,8.5366 -9.27677,3.8264 -60.2998,16.7751 -79.14324,20.307 -12.75555,2.3547 -20.87243,5.2991 -22.90172,8.5368 -3.47878,5.5922 0.29046,7.3602 10.72682,5.0056 5.79798,-1.1773 12.75696,-1.7669 15.94586,-0.8839 3.18888,0.883 8.11773,0.5867 10.72681,-0.5906 2.89899,-1.1774 9.27537,-2.6482 14.49355,-3.5311 4.92827,-0.5887 27.53981,-6.179 50.15192,-12.6542 22.32221,-6.4752 42.32494,-11.7745 44.64413,-11.7745 6.37777,0 11.30832,7.9457 8.11943,13.5379 -2.89899,5.298 -29.86297,17.9553 -46.96701,21.7815 -5.50807,1.4716 -17.39393,4.4144 -26.09089,6.769 -8.69697,2.649 -20.58282,5.2965 -26.0909,5.8852 -5.50808,0.883 -16.23489,2.9453 -23.77226,5.0056 -7.53737,2.0604 -15.65114,2.945 -18.26023,1.7677 -6.66768,-2.649 -5.50893,8.2412 3.47793,26.4896 16.23434,33.5536 66.96494,79.7613 111.31946,100.953 17.39393,8.2412 60.88047,23.8424 66.96835,23.8424 1.44949,0 11.30605,3.5322 21.74241,7.6529 13.62524,5.5922 19.71196,6.7695 22.03115,4.4149 1.73939,-1.7659 6.95899,-3.2379 11.59737,-3.2379 4.34849,0 10.724,-1.4731 13.62299,-2.9447 3.76869,-2.0604 6.08929,-2.0604 7.24889,0 0.86969,1.4716 -0.28818,2.9447 -2.60738,2.9447 -2.60908,0 -4.64151,1.4687 -4.64151,2.9404 0,1.766 -5.50724,2.9436 -12.17491,3.2379 -9.56666,0 -11.01557,0.5913 -6.6671,2.6516 8.69697,3.8262 24.05964,3.5299 25.50913,-0.5907 0.5798,-2.0603 2.03069,-3.237 2.90039,-2.3541 3.47878,3.2377 -3.18718,9.124 -11.30435,10.0069 -4.63838,0.5887 -8.11746,2.649 -7.53766,4.415 0.2899,1.766 0.2899,2.9447 0,2.9447 z m -509.388216,-0.4354 c -0.4859668,-0.086 -0.04671,-1.8454 0.904518,-5.1565 1.159596,-4.1206 2.318624,-9.4201 2.318624,-11.7747 0.289899,-5.8865 10.729088,-20.6044 14.497773,-20.6044 1.739394,0 -0.293012,4.4146 -4.641495,10.0069 -4.928281,6.7695 -6.37466,10.5995 -4.05547,11.1882 2.319191,0.883 1.159312,4.1204 -3.18917,10.0069 -3.542201,4.3782 -5.284018,6.4307 -5.83478,6.3336 z m 109.090016,-30.827 c -0.99727,-0.094 -4.17325,-8.107 -7.58861,-18.7765 -4.05859,-12.0675 -7.53851,-23.8374 -8.4082,-26.1921 -0.8697,-2.3546 -0.58094,-3.5346 0.28876,-2.6515 3.18889,2.6489 16.81555,44.1496 15.94586,47.3873 -0.0543,0.1656 -0.13465,0.2425 -0.23781,0.2328 z m -94.379915,-9.6664 c -0.971615,-0.041 -0.161936,-1.2551 2.429035,-4.6952 7.247471,-9.4184 11.594821,-18.2458 8.985732,-19.4231 -1.159596,-0.5887 0.28905,-3.5313 3.477935,-6.769 5.797977,-5.8865 5.800244,-5.8894 3.770953,2.9405 -2.898989,12.0674 -11.01644,25.6074 -16.23462,27.3734 -1.177714,0.368 -1.987392,0.5918 -2.429035,0.5734 z m 100.996065,-20.5872 c -1.1596,0 -5.21819,-9.1224 -8.69697,-20.307 -3.47879,-11.4788 -5.7977,-21.7832 -5.50779,-23.5492 0.57979,-1.766 4.63838,7.6551 8.69696,20.3113 4.05858,12.9505 6.66739,23.5449 5.5078,23.5449 z m -33.828142,-3.8501 c -0.395569,-0.061 -0.67096,-0.9701 -0.67096,-2.6257 -0.289894,-2.9433 1.161011,-5.2988 2.900408,-5.2988 1.449487,0 2.318907,-1.1755 1.159306,-2.6472 -0.869699,-1.4716 -0.291313,-3.5308 1.448084,-4.7081 1.449495,-0.883 2.9004,-5.3 2.9004,-9.4206 0,-4.4149 0.867144,-7.0614 1.736844,-6.1783 2.3192,2.6489 -2.028156,29.1351 -4.637244,27.3692 -1.449495,-0.883 -3.186907,0.2948 -3.766704,2.0608 -0.380492,1.0302 -0.762473,1.496 -1.070134,1.4487 z m 34.949232,-20.2682 c -0.77667,-0.1762 -2.64306,-3.3281 -5.46958,-10.0242 -5.79798,-14.1278 -9.27874,-42.3816 -4.93026,-42.3816 3.47878,0 6.37947,7.0604 6.08958,14.1243 -0.28991,2.9432 -1.16215,2.0609 -2.61164,-2.354 l -2.31863,-7.3554 -0.28876,7.9461 c -0.2899,4.4149 2.3189,15.0093 5.50779,23.5449 3.95893,10.6602 5.15663,16.7575 4.0215,16.4999 z m 5.75834,-2.8024 c -0.93934,-0.033 -2.46131,-2.768 -3.98328,-6.6311 -4.05858,-10.8902 -6.95531,-24.1382 -4.92601,-22.3722 2.60909,2.3546 10.72399,27.6664 9.27449,28.8437 -0.10871,0.1106 -0.23101,0.1641 -0.3652,0.1596 z m -86.009931,-2.7767 c -0.110127,-4e-4 -0.210913,-0.011 -0.301506,-0.03 -1.739394,0 -1.451759,-0.8848 0.577533,-1.7677 1.739393,-0.5887 2.610789,-2.649 1.741092,-4.415 -0.869696,-1.4716 0.578948,-4.7087 3.477936,-6.769 5.21818,-4.1207 5.21818,-4.1207 0,-4.4149 -5.797976,0 -5.797976,0 0,-4.4149 7.247472,-5.5924 11.594256,-5.5924 6.955874,0 -2.898989,3.5318 -2.898989,4.4149 0,4.4149 2.898989,0 2.898989,0.8829 0,4.4149 -2.029292,2.3546 -2.608808,4.4149 -1.159314,4.4149 1.449495,0 0.0029,2.0604 -2.896156,4.415 -2.989582,2.2074 -6.743546,4.1594 -8.395459,4.1519 z m 420.902531,-14.5728 c -4.54042,0.087 -10.96376,-1.352 -13.89899,-4.0009 -4.05859,-3.5319 -6.37807,-3.5319 -16.23463,0 -14.49494,5.0036 -23.47954,5.2999 -26.66842,0.5906 -1.1596,-2.0603 -2.31862,-5.003 -2.31862,-6.769 -0.2899,-3.8262 -9.85856,-2.06 -17.97572,3.2379 -13.62525,8.83 -37.97476,1.1768 -34.20607,-10.8907 1.44949,-3.8263 0.57838,-5.592 -2.90041,-5.592 -3.47878,0 -4.3499,-1.7666 -2.9004,-6.4759 1.15959,-4.7091 0.87308,-5.5948 -0.86632,-2.6515 -1.44948,2.0604 -3.47878,2.6487 -4.34847,1.1771 -1.7394,-2.9433 8.11322,-12.9465 11.88191,-12.0635 1.15959,0 5.22015,-1.1787 9.27873,-2.9447 6.66767,-3.2377 6.66625,-3.5325 -2.90041,-2.0609 -8.40707,1.4717 -9.2745,1.1756 -4.92602,-1.7677 3.18889,-1.766 8.98687,-2.6465 13.04545,-1.7634 4.63838,0.8829 14.49326,-1.4714 24.34982,-5.592 9.27676,-3.8263 17.39477,-7.0664 18.26447,-7.0664 4.63838,0 -7.24718,8.8316 -14.20475,10.5976 -4.05859,0.8829 -6.66626,2.9432 -5.79656,4.4149 0.86969,1.4716 -0.58122,1.7667 -2.90041,0.8838 -2.60909,-0.883 -4.63725,-0.2957 -4.63725,1.4703 0,4.7091 7.53537,4.1208 12.46365,-1.1771 2.31919,-2.3547 5.21989,-3.2382 6.08959,-2.0609 1.15959,0.883 2.89588,0.5878 4.05548,-0.8838 1.15959,-1.766 4.9294,-4.7099 8.40819,-6.4759 5.50808,-3.2375 6.08675,-3.2367 4.63726,0.8839 -1.4495,3.8262 -0.86744,4.1223 3.77094,1.7677 2.89899,-1.766 8.4062,-5.8886 12.17488,-9.4205 3.47879,-3.2377 6.37836,-5.2948 6.37836,-4.1175 0,0.8829 1.73742,0.2914 3.76671,-1.4745 3.18889,-2.3547 5.22015,-1.7634 9.27873,2.6515 2.89899,3.2377 7.53908,5.8851 10.43807,5.8851 2.89899,0 7.53595,3.2391 10.14504,7.3597 2.60909,4.1206 6.37578,7.3565 8.11517,7.0623 11.59595,-1.4718 19.13504,6.1794 19.13504,19.1298 0,16.1882 -21.45336,30.3185 -31.30992,20.3114 -2.3192,-2.0603 -5.50527,-2.9439 -7.24467,-2.0608 -2.02929,1.1773 0.28764,-2.0587 4.92603,-7.0623 10.43636,-11.4788 14.20391,-12.3658 4.63725,-1.1813 -4.05858,4.415 -0.57838,1.7685 7.24889,-6.1784 11.88586,-11.4788 13.62383,-14.4212 10.14504,-16.7759 -3.18888,-2.0602 -6.08532,-0.592 -10.43381,5.2945 -3.47879,4.415 -7.54047,7.9504 -8.98996,7.9504 -1.4495,0 -6.95674,3.531 -12.17491,7.9461 -7.82727,6.7695 -8.69442,9.1242 -6.08533,13.2448 2.89899,4.7092 3.18634,4.708 1.73684,0.2931 -0.8697,-2.9433 -0.29019,-5.886 1.15931,-6.769 2.60908,-1.7659 4.05888,2.3538 3.18918,7.946 0,1.1773 1.45175,1.4737 3.77094,0.5907 2.31919,-0.883 4.92573,-0.2957 6.08532,1.4703 1.26831,2.0602 -1.12277,3.0497 -4.65424,3.117 z m -52.78477,-2.8584 c 1.56061,0.023 3.84481,-1.1788 6.12776,-3.4966 2.0293,-2.0603 3.47795,-2.6487 3.47795,-1.1771 0,2.9433 31.31133,-22.0737 42.90729,-34.4356 14.49494,-15.3051 6.37806,-15.8958 -9.85627,-0.5907 -7.82727,7.3582 -21.16291,18.2491 -29.28008,24.1356 -8.40706,5.8866 -15.36406,11.7732 -15.36406,13.2448 0,1.5453 0.77357,2.3025 1.98741,2.3196 z m 66.82394,-6.1094 c 1.70316,-0.1106 6.12693,-2.9788 11.77996,-8.5712 5.79797,-5.2978 8.40735,-10.5958 7.53765,-13.2448 -1.44949,-3.5319 -2.61193,-3.8259 -5.80082,-1.177 -2.31919,2.0603 -3.47707,4.1184 -2.60738,5.0013 0.8697,0.883 -2.02986,5.3019 -6.37835,10.0112 -5.21818,5.4451 -6.23422,8.0909 -4.53106,7.9805 z m -107.31073,-0.7889 c 4.00594,-0.1265 6.60767,-1.3438 6.60767,-3.3673 0,-1.4717 -4.63696,-3.2379 -10.14503,-3.2379 -10.43636,-0.2944 -13.91713,3.2373 -4.93026,5.5919 3.15265,0.7727 6.06407,1.0891 8.46762,1.0133 z m 12.40849,-1.8971 c 1.73939,0 2.89614,-1.1755 2.89614,-2.6472 0,-1.4716 4.05859,-3.5308 8.69697,-4.7081 4.92828,-1.1773 8.69696,-3.2409 8.69696,-4.7125 0,-1.4717 1.16102,-2.6472 2.90041,-2.6472 4.92828,0 49.28394,-35.9073 47.54455,-38.8506 -1.7394,-2.9434 -1.74137,-2.9456 -22.32419,13.8312 -11.59595,9.4185 -14.49607,10.5984 -17.10516,7.0664 -2.31919,-3.2376 -2.60769,-3.2368 -1.4481,0.8839 1.15959,2.9433 -0.87054,6.473 -5.21902,9.4162 -8.98686,5.8866 -11.88302,5.8855 -7.24463,0.2932 3.18888,-3.8263 2.89928,-4.1189 -1.1593,-2.6472 -2.89899,1.1773 -4.35191,3.8279 -3.48221,6.1826 1.15959,2.6489 -1.15789,5.2951 -6.95587,7.3554 -8.11716,2.6489 -12.46423,11.1839 -5.79655,11.1839 z m -246.64476,-10.2096 c -1.18267,0.087 -3.03204,-5.2599 -4.11917,-12.1583 -2.60908,-17.6598 -0.29074,-19.4239 3.47795,-2.6473 1.73938,7.3584 2.03014,14.1265 0.87054,14.7151 -0.0725,0.055 -0.15047,0.085 -0.22932,0.09 z m -105.582343,-1.5607 8.696965,-4.1218 c 4.92828,-2.6489 10.434378,-4.4138 12.46367,-4.708 4.638381,0 13.915993,-8.83 9.567511,-8.83 -6.377775,0 -2.897858,-5.2985 4.059714,-6.4758 7.53737,-1.4716 10.144479,1.766 3.766705,4.415 -2.609089,1.1772 -2.317211,1.7666 0.581777,2.0608 2.898989,0 1.737979,1.766 -2.900402,4.4149 -4.058585,2.3547 -5.507229,4.1207 -3.477937,4.4151 1.739393,0 3.477937,1.1744 3.477937,2.9403 0,1.4716 -4.350466,2.6484 -9.278746,2.3541 -5.218179,-0.2943 -13.331949,0.5915 -18.260229,1.4746 z m 113.289863,-3.7726 c -0.68262,0.2563 -3.20956,-8.6726 -5.73711,-20.363 -6.95757,-34.1422 -8.41075,-42.0899 -6.67136,-40.6182 2.3192,2.0602 13.91742,59.4536 12.46793,60.9253 -0.0181,0.027 -0.0374,0.047 -0.0595,0.056 z m 227.33986,-8.002 c 1.7394,0 2.90041,-1.1755 2.90041,-2.6472 0,-1.4716 2.89841,-2.0612 6.6671,-0.8839 5.50807,1.4716 5.79742,1.177 2.31863,-3.2379 -2.89898,-3.8262 -5.22017,-4.1223 -9.27876,-1.7677 -5.79798,2.9433 -7.53566,8.5367 -2.60738,8.5367 z M 67.66401,5998.7384 c -2.763098,0.1323 -2.242188,-1.2 1.562734,-4.1433 5.797978,-4.4149 5.509212,-4.4149 -0.288764,-4.4149 -3.188888,0 -12.75357,1.1744 -21.160636,2.9404 -9.566661,1.766 -16.81668,1.766 -20.005567,0 -3.478786,-2.0603 -2.028727,-2.6461 6.37834,-2.9404 13.915146,0 36.81772,-5.8898 36.81772,-9.1274 0,-2.3546 15.073325,-11.4771 18.842014,-11.4771 4.348477,0 0.581207,5.2959 -5.796567,8.2392 -4.058583,1.766 -7.248886,4.7099 -7.248886,6.4759 0,1.7659 1.45091,2.3574 2.900404,1.4745 1.739393,-0.8831 2.900403,-0.2946 2.900403,1.177 0,1.766 -1.742791,3.2379 -3.482184,3.2379 -2.898988,0 -2.898988,0.587 0,2.6472 2.898988,1.766 2.322024,2.9445 -2.896156,4.1218 -4.022346,1.1037 -6.864996,1.7099 -8.522855,1.7892 z m 89.03348,-10.9252 c -0.83557,0.1254 -2.51142,-4.5599 -3.97903,-11.7617 -2.02929,-8.5355 -3.47907,-18.5428 -3.18917,-22.0746 0,-3.532 2.02929,1.471 4.34849,11.1839 2.31918,9.7128 3.76896,19.4257 3.18917,22.0746 -0.0906,0.368 -0.21472,0.5546 -0.36946,0.5778 z m -9.33819,-3.4665 c -0.35742,0.054 -0.97954,-0.6452 -1.88547,-2.1169 -0.8697,-1.4716 -2.32259,-7.9443 -3.48219,-15.0082 -1.1596,-6.7696 -3.18776,-11.7748 -4.63725,-10.5975 -1.4495,0.8829 -2.60739,0 -2.60739,-1.4702 0,-1.766 1.44978,-3.238 3.18917,-3.238 1.7394,0 2.60654,-1.7639 1.73685,-3.8243 -0.8697,-2.3546 -0.29018,-5.8889 1.15931,-8.2435 1.73939,-2.6489 2.61164,0.2932 2.61164,9.1231 0,7.3582 1.15789,18.2478 2.60739,24.4288 1.59444,7.0822 2.09426,10.829 1.30794,10.9467 z m 283.37329,-5.9411 c -2.60908,0 -1.73797,-2.3541 2.90041,-6.769 4.05859,-3.8263 7.82614,-5.3003 8.98573,-3.8286 2.3192,3.2376 -5.79826,10.3032 -11.88614,10.5976 z m -259.71568,-9.6146 c -0.68171,-0.044 -1.91972,-1.9744 -2.93437,-4.8073 -0.8697,-3.2376 -3.47737,-15.0131 -5.79656,-25.9033 -3.47879,-18.2484 -3.76869,-18.835 -4.34849,-8.2392 l -0.58178,11.7747 -3.18492,-11.7747 c -2.0293,-8.2412 -2.03156,-11.7711 0.57753,-12.6542 1.7394,-0.5886 3.18917,-4.4171 3.18917,-8.2435 0,-3.8262 1.45091,-7.0621 2.9004,-7.0621 1.7394,0 2.89616,6.7669 2.89616,15.0082 0,8.2412 2.03241,22.9594 4.6415,32.6723 2.31919,9.7128 3.76585,18.247 2.89616,19.1299 -0.0725,0.073 -0.15741,0.105 -0.2548,0.099 z m 109.42549,-5.523 c 4.96283,0.3995 14.72567,-1.6024 39.54826,-6.9372 35.94745,-7.6524 72.475,-18.5447 90.15882,-27.0802 15.36464,-7.3582 5.2176,-7.9467 -15.07532,-1.1771 -51.60198,17.0711 -98.56644,27.3752 -113.93108,24.7263 -10.43636,-1.766 -12.75498,1.1745 -6.6671,7.3554 1.73939,1.766 2.98873,2.8731 5.96642,3.1128 z m -213.428117,-3.0783 c -0.154786,0 -0.286217,-0.016 -0.394929,-0.035 -1.449495,0 -6.669088,-0.8816 -11.597369,-1.4702 -15.364639,-2.3547 -14.78286,-6.7684 0.581779,-4.7081 16.524233,1.7659 31.01861,-0.5907 28.40952,-5.0057 -0.869696,-1.766 -0.0017,-2.9404 2.607391,-2.9404 2.31919,0 6.66852,-0.8836 9.56751,-2.0609 4.638385,-1.766 4.638095,-1.4744 1.159314,2.9405 -2.029292,2.6489 -2.897572,5.0045 -1.448077,5.2987 1.449495,0 -3.768967,2.0604 -11.886138,4.4151 -7.338064,1.9315 -14.677189,3.6064 -16.999001,3.5655 z m 452.870697,-5.7516 c -6.93041,-0.055 -9.86476,-1.9332 -16.38749,-8.1142 -17.68383,-16.7767 -17.97572,-32.0824 -0.5818,-50.6252 9.56667,-10.3015 12.17604,-11.4771 24.9316,-11.4771 8.69696,0 17.10516,2.058 21.45364,5.0013 6.66767,4.7093 6.66767,4.7084 4.34849,-0.8839 -1.15961,-2.9432 -4.34791,-12.9504 -6.6671,-22.0746 -4.34848,-15.8938 -4.35019,-16.7769 2.60738,-30.9046 5.50808,-11.1846 10.43691,-16.4787 23.77226,-24.1313 31.59897,-18.5428 50.15479,-16.7774 73.34669,6.769 15.07475,15.3052 15.65283,16.4801 15.65283,31.4909 -0.2899,17.6598 -5.51005,35.0253 -13.62722,44.1495 -7.82726,8.8299 -26.95778,20.6039 -37.68403,22.9586 -12.46565,2.9432 -33.91788,-1.7649 -40.29565,-9.1231 -6.37778,-7.3583 -9.85572,-7.0651 -7.82643,0.2931 2.60909,10.0072 -2.02985,24.4306 -10.72681,35.0264 -7.24748,8.5355 -10.72684,10.3009 -23.77228,11.184 -3.47879,0.2942 -6.23396,0.4796 -8.54408,0.4612 z m 5.74986,-6.6698 c 5.75959,0.1117 11.59821,-3.0655 18.44707,-9.6879 14.78484,-14.1278 13.04742,-33.2583 -3.76671,-43.2656 -8.98686,-5.2978 -28.70254,-4.7095 -28.70254,1.1771 0,1.4716 -1.7374,4.4155 -3.76669,6.4759 -2.02929,2.0602 -5.21959,7.6528 -7.24889,12.0677 -4.34848,10.0072 -1.73684,15.6015 11.30861,27.0804 4.81957,3.9918 9.24942,6.0653 13.72915,6.1524 z m -351.30136,-5.7774 c -0.73997,0.018 -2.89616,-5.8937 -4.79862,-13.6199 -2.02929,-8.2412 -2.89956,-15.5998 -2.02986,-16.4827 0.5798,-0.8831 2.89673,5.2968 4.92602,13.538 2.02929,8.2412 2.89956,15.5998 2.02986,16.4827 -0.0362,0.055 -0.0781,0.081 -0.1274,0.082 z m -94.957444,-8.2133 c -4.203532,-0.037 -7.975334,-0.5522 -13.338463,-1.5823 -14.205043,-2.649 -5.506095,-5.2977 17.975711,-5.592 26.960596,0 32.466976,2.9419 11.304358,5.8851 -7.102523,0.8831 -11.738072,1.3259 -15.941606,1.2892 z m 22.612954,-11.2961 c -8.407064,-0.2943 -8.698089,-0.5854 -4.059711,-4.1174 7.537371,-5.8866 6.087311,-7.6528 -6.378341,-7.6528 -6.377774,0 -12.464519,-1.4719 -13.334216,-3.2379 -1.449494,-2.0604 1.446381,-2.3556 8.403953,-0.8839 5.797977,0.883 14.496645,2.0597 19.135025,2.354 8.98686,0.2944 15.94472,4.7082 7.53765,4.7082 -3.47878,0 -4.63753,1.4716 -3.47793,4.4149 1.15959,3.2377 -0.57895,4.4149 -7.82643,4.4149 z m 749.74807,-3.0956 c -0.49941,0.1328 -0.94275,-1.0623 -0.94275,-3.3801 0,-6.1809 28.70251,-87.1178 28.70251,-81.5256 0.28996,4.7093 -24.93412,82.1145 -27.54321,84.7635 -0.0725,0.073 -0.14521,0.1232 -0.21655,0.1422 z m -663.55129,-0.332 c -0.50098,0.012 -1.32011,-1.8403 -2.41629,-5.9886 -0.8697,-3.8263 -1.45233,-11.4811 -1.45233,-17.0734 0.28991,-8.2412 0.87112,-7.3585 2.90041,5.5919 1.71221,10.6236 1.92464,17.4467 0.96821,17.4701 z m 115.27726,-5.7687 c -6.90137,0.011 -12.17065,-0.5355 -12.17065,-1.6943 0,-1.4718 10.72567,-2.6474 24.06102,-2.6474 15.65454,-0.2943 20.8733,0.2961 15.07532,1.7678 -6.52272,1.6555 -18.0925,2.5654 -26.96569,2.5739 z m -128.00846,-0.1083 c -1.69239,0.012 -3.02355,-1.6941 -3.02355,-4.5271 0,-4.4149 0.58121,-4.7101 2.9004,-0.8838 1.7394,2.9433 2.89701,-3.8244 3.7667,-21.4841 l 0.87055,-25.6101 v 25.6101 c -0.2899,17.6597 -1.44751,25.8999 -3.76671,26.7828 -0.25365,0.073 -0.50562,0.1106 -0.74739,0.1117 z m 422.805,-4.0657 c 7.33913,0.086 15.29048,-2.0279 23.80626,-6.3508 21.74241,-11.1846 31.59869,-27.6667 31.59869,-54.1564 0,-12.6561 -11.88473,-29.1372 -26.37967,-36.7897 -21.45252,-11.1846 -57.69213,2.6489 -68.99819,26.4897 -7.82727,15.8937 -7.53652,20.6033 0.87054,38.5574 9.76597,21.2469 22.95631,32.0616 39.10237,32.2498 z m -482.79197,-4.5746 c -0.23932,0 -0.48157,7e-4 -0.72617,-0.011 -6.66767,-0.5886 -6.95842,-0.5903 -0.87054,-1.7676 11.01615,-2.3547 6.95955,-5.8861 -12.46368,-11.1841 -10.436356,-2.9431 -19.713401,-6.4743 -20.583097,-7.9459 -2.029292,-2.9433 -2.608805,-2.9428 16.234623,2.0608 19.423224,5.298 26.962004,5.8851 20.294334,1.4702 -3.76869,-2.6489 -3.76869,-2.9415 0,-2.6472 2.31919,0 6.95616,1.1756 10.14504,2.6472 5.21818,2.3547 5.22016,2.6516 0.58178,2.6516 -2.89899,0.2943 -4.64065,1.4687 -3.77095,2.9404 3.37008,5.4175 -1.42241,11.6657 -8.84134,11.7832 z m 78.51049,-3.5008 c -0.45862,-0.1027 -1.26605,-3.3819 -2.41205,-10.0457 -0.86969,-6.1809 -1.44921,-19.1309 -1.15932,-28.8438 0.28991,-14.7164 0.5781,-12.9519 2.60739,10.3002 1.48574,18.8554 1.78152,28.7719 0.96398,28.5893 z m 127.69421,-0.7675 c -3.31401,-0.03 -6.03181,-0.1724 -7.7712,-0.4484 -17.97374,-2.9432 -6.08762,-5.2988 24.93156,-5.2988 18.26363,0 31.02286,0.8848 28.41376,1.7677 -5.65302,2.1523 -31.21337,4.1103 -45.57412,3.9795 z m -147.66156,-3.1473 c -0.39574,-0.019 -0.70918,-4.2968 -0.70918,-11.4298 0,-9.7129 0.57952,-13.2439 1.15932,-7.946 0.57979,5.298 0.57979,13.2449 0,17.6598 -0.15401,1.1727 -0.307,1.7231 -0.45014,1.716 z m 25.9635,-3.9191 c -0.70663,-0.097 -1.74194,-3.4622 -2.61164,-8.9808 -3.47879,-21.1917 -1.15846,-47.9758 4.05972,-48.5643 3.76868,-0.5887 4.63838,3.5318 4.34848,26.4895 0,15.0108 -0.87026,26.7808 -2.02986,26.1921 -0.86969,-0.5886 -2.31947,1.1797 -3.18917,3.8286 -0.14495,0.736 -0.34199,1.067 -0.57753,1.0349 z m 7.82641,-7.5107 0.28878,-26.4896 c 0.57979,-19.7201 -0.29132,-26.1944 -2.90041,-25.6058 -2.02929,0.2943 -3.7667,-1.4728 -3.7667,-4.1217 0,-2.9433 1.73939,-4.121 4.34848,-3.238 2.31919,1.1774 4.92687,0.5878 5.79656,-0.8838 4.34848,-7.0639 7.24691,-1.7637 6.66711,12.6584 l -0.28877,15.3058 -1.44808,-13.2448 c -1.44949,-11.4789 -2.03014,-9.7158 -5.21902,16.1852 z m 179.63822,-1.5392 c -15.3769,0.086 -42.08178,-1.2569 -46.86511,-2.8757 -4.34848,-1.4716 5.7994,-1.7668 24.64282,-0.8838 17.68384,0.883 32.46697,2.0628 33.04676,2.6515 0.81534,0.7359 -3.83498,1.0693 -10.82447,1.108 z m -74.02191,-1.2847 c -0.59492,-0.1307 -0.3312,-2.2541 0.48414,-6.8897 0.86969,-7.064 -0.28622,-10.0082 -6.3741,-14.1287 -6.37777,-3.8264 -9.27847,-4.4124 -14.78655,-1.7634 -4.05858,2.0602 -7.24888,2.3554 -7.24888,0.8838 0,-2.6489 9.8574,-6.1827 18.26446,-6.1827 5.79797,0 16.52339,10.0067 16.52339,15.5989 0,2.0603 -1.73739,6.183 -3.76668,9.4207 -1.6488,2.0602 -2.63304,3.1626 -3.09578,3.0611 z m -93.02099,-0.4657 c -0.39574,-0.019 -0.70917,-4.2925 -0.70917,-11.4254 0,-9.7128 0.5795,-13.2483 1.15931,-7.9503 0.5798,5.2979 0.5798,13.2448 0,17.6597 -0.15401,1.1727 -0.307,1.7231 -0.45014,1.716 z m 8.85834,-1.1253 c -0.8697,0 -2.31948,-5.0041 -3.18917,-10.8908 -0.8697,-6.1808 -2.31947,-15.0102 -3.18917,-20.0138 -0.5798,-5.0035 -0.29132,-7.3567 1.44807,-5.8851 2.60909,3.2376 7.24945,36.7897 4.93027,36.7897 z m 5.55026,-2.7334 c -0.90256,0.023 -1.61115,-3.9916 -2.94287,-13.4561 -1.1596,-9.7129 -3.18889,-23.5432 -4.34849,-30.6071 -1.44949,-7.3583 -1.15959,-15.8967 0,-19.1343 1.7394,-4.4149 2.60938,-1.469 3.18917,11.4814 l 0.57754,17.6598 1.74108,-18.8368 c 1.1596,-13.5392 2.90069,-19.1331 6.08958,-19.4275 3.47879,-0.5886 4.34736,4.1203 4.63725,27.6667 l 0.28877,28.2573 -3.47794,-27.9641 c -2.89899,-22.6634 -3.47992,-25.3123 -4.05971,-13.2448 -0.28991,8.2411 -0.86715,22.0746 -1.73685,30.9046 -0.8697,12.9504 -0.58008,14.1307 1.15931,5.8894 l 2.31863,-10.3045 0.28876,10.3045 c 0,5.5922 -0.87026,13.5391 -2.02985,17.6597 -0.69758,2.0236 -1.22162,3.14 -1.69438,3.1518 z m -34.72841,-1.4056 c 0.15017,0.069 0.31254,-0.6812 0.47561,-2.3368 0.5798,-6.1809 0.5798,-16.7754 0,-23.5449 -0.5798,-7.064 -1.15931,-2.0597 -1.15931,10.8907 0,9.3082 0.29993,14.8154 0.6837,14.991 z m 60.77684,-4.6908 c -0.2899,0 -1.45205,-7.0645 -2.61164,-15.3058 -2.31919,-21.486 -2.31721,-66.5158 0.58178,-67.9874 1.15959,-0.8831 2.02873,17.6594 2.31862,40.9115 0.2899,23.2519 8.7e-4,42.3817 -0.28876,42.3817 z m -128.86202,-0.073 c -2.89899,-0.073 -5.94293,-0.9551 -6.52272,-2.5738 -0.28991,-1.4718 -7.24804,-5.3004 -15.07532,-8.2437 -7.82726,-2.9433 -15.073035,-7.359 -15.652831,-9.7136 -1.159593,-3.532 -0.581494,-3.8261 2.60739,-1.1771 2.319193,1.766 12.177731,6.1806 22.324201,10.0069 9.85656,4.1206 17.97146,8.2433 17.97146,9.4206 0,1.6188 -2.7532,2.3543 -5.65218,2.2807 z m 262.50568,-0.2199 c 16.81413,0.2944 21.15919,-0.5886 22.60869,-4.4149 1.15959,-2.6489 1.44923,-5.2976 1.15933,-5.592 -2.60909,-2.0602 -57.39658,-3.2372 -57.39658,-1.177 0,1.4716 5.79485,2.6473 12.75242,2.6473 7.24747,0 13.62809,1.1767 14.49779,2.354 1.44949,2.3547 -36.24046,-0.881 -43.77784,-3.8243 -2.02929,-0.5886 -3.76671,0 -3.76671,1.4703 0,2.3546 3.76869,3.5314 26.0909,6.7689 4.05858,0.883 16.52594,1.4735 27.832,1.7677 z m -140.31077,-2.6515 c -1.44949,0 -3.48191,-10.0049 -4.6415,-22.661 -2.31919,-29.7273 -2.31721,-47.3859 0.58178,-48.8576 1.15959,-0.883 2.02873,11.4754 2.31863,27.3692 0.28989,15.5995 1.15903,32.0816 2.31862,36.4966 0.8697,4.1205 0.58207,7.6528 -0.57753,7.6528 z m 70.21271,-1.2806 c -0.57319,0.033 -1.22869,-1.7 -2.08931,-5.1952 -3.47878,-13.8335 -28.11849,-15.0083 -41.74374,-1.7634 -3.76868,3.5319 -6.6671,5.0039 -6.6671,3.2379 0,-9.1242 27.24736,-20.3081 38.84331,-15.5989 8.69697,3.2377 13.91628,10.3007 12.75668,16.776 -0.3533,1.6739 -0.70767,2.5213 -1.09984,2.5436 z m 29.01252,-12.4816 c 3.74831,-0.074 5.06332,-1.6153 2.52671,-4.1908 -1.4495,-1.4716 -6.66794,-3.5318 -11.88612,-4.4149 -12.46565,-2.6489 -12.46678,3.8246 0.28876,7.0623 3.69622,1.1036 6.82168,1.5882 9.07065,1.5434 z m -209.35989,-1.0261 c -2.10064,-0.056 -3.98045,-1.1043 -5.24876,-3.1647 -0.8697,-1.766 -0.58008,-4.1214 1.15931,-5.2987 1.7394,-1.1774 -2.31891,-5.5908 -9.85628,-10.3001 -6.95757,-4.4149 -12.75243,-9.4191 -12.75243,-10.8907 0,-1.766 5.79486,1.1758 12.75243,5.8851 21.16262,14.7164 30.44051,4.7104 12.75669,-13.5381 -5.21819,-5.2978 -7.82472,-9.7136 -6.08533,-9.7136 1.73939,0 7.825,5.2981 13.62297,12.0677 5.50808,6.7695 11.30606,11.1842 13.04546,10.0069 1.73939,-0.8829 3.18917,0.2957 3.18917,2.9448 0,2.6489 -3.47765,5.2985 -8.98573,6.4758 -5.79798,1.1773 -7.53822,2.3558 -5.21903,4.1218 2.89899,1.766 2.89899,3.237 0,6.769 -2.6091,3.1456 -5.67766,4.7079 -8.37847,4.6348 z m 271.98824,-8.8903 c 5.07323,0.042 6.86753,-0.5292 3.38875,-1.9272 -2.89899,-1.1773 -2.61048,-2.6475 1.4481,-5.8852 3.76869,-2.9433 4.05943,-3.8277 0.87054,-2.9446 -2.31919,0.5886 -7.83066,2e-4 -12.17914,-1.1771 -4.63839,-1.1774 -8.69357,-0.8809 -9.56327,0.5907 -1.1596,1.4717 1.15733,2.6461 4.92601,2.9403 3.76869,0 5.21845,0.8848 3.18915,1.7678 -4.63838,1.766 -47.25151,-9.4195 -68.99392,-18.5437 -16.52424,-6.7695 -17.68496,-6.7712 -21.45364,-1.7676 -3.47879,4.7092 -3.76814,4.4163 -2.31865,-1.4703 0.8697,-3.8262 0.29019,-7.6536 -1.1593,-8.5367 -1.4495,-0.8829 -2.61164,0 -2.61164,1.4746 0,1.766 -0.87025,2.9416 -2.02985,2.6472 -3.76868,-1.1773 -16.52282,9.1268 -14.49353,11.4814 1.15959,0.883 3.7684,0.2915 5.5078,-1.4745 2.02929,-2.0602 5.21844,-3.5311 7.53763,-3.5311 3.47878,0 3.48079,0.883 0.5818,4.415 -2.02929,2.3546 -4.64122,3.8277 -5.80082,2.9447 -1.15959,-0.883 -5.21704,1.1742 -8.98572,4.1175 -6.95758,5.5922 -6.95927,5.5928 6.95588,2.0608 11.88585,-2.9433 16.81413,-2.9415 34.78786,1.7677 20.43787,5.298 65.17627,10.9262 80.39596,11.0503 z m -136.92624,-1.3365 6.08957,-7.3597 c 3.18889,-4.1206 6.08958,-8.2432 6.08958,-9.4205 0,-1.4717 -1.44978,-2.3541 -3.18917,-2.3541 -1.73939,0 -0.87112,-2.0591 1.44807,-4.7082 4.34849,-4.1205 5.79997,-9.7128 4.93027,-17.6597 -0.28991,-1.766 1.73628,-3.2379 4.05546,-3.2379 5.21818,0 5.22102,0.591 1.45234,8.2435 -1.7394,2.9433 -2.32203,5.592 -1.45234,5.592 2.89898,0 21.74241,-13.2454 21.74241,-15.3057 0,-3.5319 -4.05774,-2.9425 -7.82643,0.8839 -2.60908,2.6489 -2.89644,1.7625 -1.73683,-3.5355 0.86969,-3.8262 2.89785,-8.8272 4.63724,-10.5932 3.47879,-4.7093 -1.4523,-5.0056 -5.80079,-0.5907 -1.73939,1.766 -2.60654,5.2993 -1.73684,7.3597 0.8697,2.3546 -0.002,4.1218 -1.7411,4.1218 -1.73939,0 -3.18805,-4.417 -3.47794,-9.4207 0,-8.8298 -0.86941,-7.9463 -9.85628,10.8908 -5.50808,11.4788 -10.72767,26.4911 -11.59737,33.8493 z m 116.09684,-10.3259 c 3.19002,0.181 3.59515,-0.8986 1.3122,-3.2164 -2.0293,-2.0604 -14.20365,-7.0622 -27.539,-11.4772 -13.33535,-4.4149 -28.98988,-10.3026 -34.78786,-12.9516 -7.24748,-3.2376 -11.30406,-3.5305 -12.46365,-1.4702 -2.89899,4.4149 -1.74023,5.0036 33.91732,17.6598 21.19886,7.3582 34.2443,11.1537 39.56099,11.4556 z m -232.38478,-7.0968 c -1.2819,0.018 -2.42196,-0.3115 -3.14671,-1.1209 -0.86969,-0.8831 -1.74109,-4.4153 -1.74109,-7.6528 0,-5.0037 0.58122,-5.2998 2.9004,-1.7678 2.31919,3.8263 2.89616,3.8286 2.89616,-0.5863 0,-2.6491 2.61193,-5.8861 5.80081,-6.769 14.78484,-4.7093 -1.73911,-37.6748 -27.25021,-55.0402 -1.73939,-1.1773 -2.32202,-2.6513 -1.45232,-3.8286 3.18888,-3.2377 27.24964,21.4895 33.91731,34.4399 7.53737,15.5995 11.8884,33.5537 6.96012,30.9046 -4.34848,-2.9432 -12.75497,1.174 -11.01559,5.2946 1.08712,2.8696 -4.02319,6.0713 -7.86888,6.1265 z m 208.47662,-10.5415 c 2.31919,0 3.48133,-1.1744 2.61164,-2.9404 -0.86969,-1.4716 5.5e-4,-2.9435 2.02984,-3.2379 2.60909,0 2.60683,-0.5915 0.57754,-1.4746 -2.60909,-1.1773 -2.31832,-3.8247 0.87057,-10.3 2.31919,-4.7093 3.77007,-10.3006 2.90038,-12.361 -0.57981,-1.766 -3.48048,0.8804 -6.08956,6.1783 -2.89899,5.5923 -4.34764,11.7741 -3.47795,14.1287 0.8697,2.3546 0.29019,4.1217 -1.1593,4.1217 -1.7394,0 -2.90041,1.4732 -2.90041,2.9448 0,1.766 2.02816,2.9404 4.63725,2.9404 z M 185.76948,5804.753 c -0.8697,0 -1.74109,-3.5322 -1.74109,-7.6528 0,-4.1206 1.161,-6.7692 2.9004,-5.5919 1.73939,0.8829 2.89616,-1.1793 2.89616,-5.0057 0,-5.0036 0.87224,-5.5905 2.61164,-2.6472 2.02929,3.2377 2.89587,2.9405 4.05547,-1.4746 0.86969,-3.8262 1.45119,-2.9407 1.74109,2.6517 0.28989,5.5922 -0.86999,7.6499 -3.18917,6.1783 -2.02929,-1.1774 -2.31892,-0.8801 -1.15931,1.4745 2.02929,2.9433 -4.3465,12.0677 -8.11519,12.0677 z m 155.53045,-0.4785 c 1.73939,0.1839 2.17424,-0.5541 2.17424,-2.173 0,-1.4716 -4.64122,-4.4155 -10.14929,-6.4758 -5.50809,-2.0603 -10.14505,-5.001 -10.14505,-6.1783 0,-1.1773 -2.02929,-2.3541 -4.34848,-2.3541 -2.31919,0 -4.34848,1.4688 -4.34848,2.9405 0,1.7659 2.02929,2.9446 4.34848,2.9446 2.31919,0 4.34848,1.1768 4.34848,2.3541 0,1.4716 3.47682,3.826 8.1152,5.592 5.21818,2.0603 8.26551,3.1661 10.0049,3.35 z m -136.39968,-3.9364 -0.28876,-17.0733 c -0.2899,-14.1279 -2.02788,-19.7175 -10.14504,-32.668 -5.50808,-8.8299 -11.30606,-16.7768 -13.04545,-17.6598 -1.7394,-1.1774 -3.18918,-3.5328 -3.18918,-5.2988 0,-6.4753 14.20279,10.0064 22.31995,25.6057 4.34848,8.83 8.9897,15.0106 10.14929,14.422 3.18889,-2.0604 2.8973,0.8818 -1.74109,17.9529 z m 83.67433,-18.4444 c -0.12004,-0.011 -0.18261,-0.1348 -0.18261,-0.3923 0,-5.298 11.01474,-29.1419 14.49352,-31.2021 4.34848,-2.6491 3.77011,-1.4717 -5.79655,17.6597 -4.05859,8.2413 -7.67411,14.0031 -8.51436,13.9347 z m 33.49691,-0.7502 c 3.85021,0.3334 6.9049,-1.1138 6.9049,-4.0571 0,-6.4752 -5.2176,-8.5382 -6.6671,-2.6515 -1.15959,4.1206 -1.44694,3.8265 -1.73683,-1.1771 0,-3.8263 -1.73969,-6.769 -3.18918,-6.769 -4.92828,0 -6.96013,9.1245 -2.61164,12.0678 2.39166,1.5453 4.9897,2.3868 7.29985,2.5869 z m 107.79053,-2.88 c -0.57979,0 -6.9584,-5.8866 -13.91598,-13.2449 -6.95757,-7.3582 -11.30266,-13.2448 -9.56327,-13.2448 1.7394,0 7.82501,5.8866 13.62299,13.2448 6.08787,7.3583 10.43606,13.2449 9.85626,13.2449 z m -92.07401,-0.4527 c -2.26483,0.1094 -1.92652,-2.0494 -0.11466,-7.2003 2.02929,-5.2978 2.03042,-9.1255 -0.28876,-11.7746 -2.6091,-2.9433 -1.16128,-3.5325 6.95588,-2.0608 13.62525,2.0603 20.58621,-2.3538 25.2246,-16.7759 3.47879,-10.5959 3.47678,-13.2442 -0.5818,-20.0138 -2.60909,-4.415 -8.98771,-9.126 -13.91599,-10.5976 -8.11716,-2.3547 -10.1439,-1.766 -14.78228,4.4149 -6.37778,8.5355 -7.24719,2.9433 -1.15931,-8.8298 6.95757,-14.1279 44.93432,-42.6747 69.57572,-52.6819 13.04545,-5.2979 41.45214,-12.362 48.69962,-12.0678 3.47878,0 4.64093,0.8805 2.61164,1.7634 -1.73939,0.5887 -2.9007,2.6502 -1.74111,4.1218 0.8697,1.4716 0.003,2.6472 -1.73684,2.6472 -1.73939,0 -2.32203,1.4731 -1.45234,2.9448 0.8697,1.766 4.34877,2.9447 7.53767,2.9447 3.18888,0 4.92941,1.4687 4.05971,2.9405 -0.8697,1.7659 0.28819,2.9446 2.60738,2.9446 2.60909,0 3.7701,1.7671 2.90041,4.1218 -1.1596,3.2377 0.29077,3.8234 5.21905,2.9405 6.37777,-1.1774 -4.93084,5.0041 -20.00557,10.8907 -3.76869,1.4716 -6.66712,3.8272 -6.66712,5.2988 0,1.766 7.24888,0.296 15.94585,-2.6473 9.27676,-3.2375 16.52423,-4.4175 17.39393,-2.6515 1.15959,1.4716 -0.8697,2.6515 -4.34848,2.6515 -7.24748,0 -27.53842,8.2398 -25.50913,10.3001 0.8697,0.883 6.95418,-0.59 13.91176,-2.9447 14.49494,-5.2979 14.49778,-5.2985 14.49778,-2.0609 0,1.4717 -6.08988,4.1234 -13.62725,5.8894 -13.04544,3.2377 -14.20446,2.9411 -19.71254,-3.8285 -3.18889,-3.8263 -8.11775,-6.767 -10.72684,-6.1784 -6.37777,0.8831 -10.4372,4.7082 -5.21901,4.7082 4.05858,0 1.44919,4.1195 -3.18918,4.7082 -1.4495,0.2942 -3.7684,0.5894 -5.50779,0.8838 -1.4495,0 -2.89615,1.7651 -2.89615,3.5311 0,1.7659 2.31777,2.3543 5.79655,1.1769 3.1889,-0.8829 8.69811,0.2959 12.75669,2.9448 4.05858,2.6489 8.69441,4.1221 10.43381,2.9448 1.44948,-0.8831 2.90041,-0.2947 2.90041,1.177 0,1.766 -1.4498,3.2379 -3.18918,3.2379 -1.4495,0 -2.02901,1.4688 -1.15931,2.9404 1.15959,1.766 2.89899,2.3576 4.34849,1.4745 1.15959,-0.8829 3.19001,0.589 4.05971,3.2379 1.15959,2.9433 0.57808,3.8257 -1.7411,2.3541 -2.0293,-1.1773 -2.31891,-0.8833 -1.15931,1.177 1.15959,2.0604 4.3468,3.5311 6.95588,3.5311 3.76869,0 4.06254,0.5869 1.16355,2.6472 -3.18889,2.0604 -2.90239,2.9433 0.8663,4.415 2.60909,0.883 6.38003,0.8841 8.11943,-0.2932 2.02929,-0.883 2.60767,-0.8809 1.44808,0.5907 -1.1596,1.1773 -0.57894,5.0016 0.87056,8.2392 2.31919,4.1206 2.31919,6.1812 0,7.6528 -2.31919,1.4717 -2.03156,3.5335 0.57754,7.3597 3.76868,5.0036 4.34847,5.0013 13.04544,0.5864 10.72626,-5.5922 12.17714,-8.8273 2.90039,-6.1783 l -6.6671,1.7634 6.6671,-5.2989 c 7.82726,-6.4752 6.37638,-14.1269 -2.90039,-16.7759 -5.50807,-1.1773 -5.79429,-2.0609 -2.0256,-6.4758 3.76868,-4.7093 3.47623,-4.7078 -2.61165,-1.4703 -3.76868,2.0604 -7.5385,2.944 -8.40819,2.061 -1.1596,-0.883 2.89899,-3.8281 8.69696,-6.1827 12.17576,-5.0036 20.58479,-5.8851 13.62722,-1.4701 -3.76869,2.3546 -3.47794,2.9446 0.87053,2.9446 6.66768,0 9.85543,8.5359 4.63726,12.0679 -3.47879,2.0602 -3.47879,2.6472 0,2.6472 2.89899,0 3.19088,0.8842 0.5818,4.1218 -2.60909,2.9433 -2.61222,4.7067 -0.29304,6.1783 4.05859,2.649 11.5988,-3.8243 10.1493,-8.2392 -0.57979,-2.0603 -2.60908,-9.1256 -4.34847,-16.1896 -2.89899,-11.4788 -3.76814,-12.3624 -11.01561,-10.8907 -7.24747,1.4716 -7.25142,1.4719 -1.16354,-1.177 3.47878,-1.766 6.37832,-4.1204 6.37832,-5.592 0,-2.3547 -25.51164,-53.8615 -28.12073,-56.5104 -0.5798,-0.5887 -2.02846,0.2937 -3.47795,2.3541 -1.15959,1.7659 -2.02874,-1.764 -2.31864,-8.2393 0,-6.4753 0.58151,-11.7746 1.74111,-11.7746 0.86969,0 16.81187,-2.0615 35.36539,-4.1217 66.67673,-7.9469 116.54189,3.8262 167.85399,39.7345 18.84342,12.9504 45.22221,37.381 42.90302,39.4412 -2.60909,2.9433 -11.015,-2.0611 -8.98571,-5.2987 0.8697,-1.766 0.2913,-2.0613 -1.4481,-0.884 -2.02929,1.1773 -6.96012,-1.4713 -11.30861,-5.5919 -14.20503,-13.5392 -53.91917,-38.8509 -73.3424,-46.5035 -10.43636,-4.1206 -26.6724,-8.8273 -36.52896,-10.5933 -17.68384,-3.2376 -55.66029,-4.4154 -66.38655,-2.0608 -3.18889,0.5887 -6.9587,1.4701 -8.4082,1.4701 -6.95757,0.5887 4.92999,7.0663 14.78655,8.2436 12.46565,1.4717 31.30992,11.4758 40.00689,21.7773 3.18889,3.5318 4.058,5.5922 2.31861,4.4149 -2.0293,-1.1773 -6.08788,-0.589 -8.69697,1.177 -4.92828,3.2377 -4.92828,3.2394 0,1.7676 6.95758,-2.3545 19.42323,3.8264 17.39394,8.83 -1.7394,4.7093 3.76926,5.592 6.37835,1.177 0.8697,-1.4716 3.76923,-1.7668 6.37832,-0.8839 3.18889,1.4717 4.05803,0.8857 2.31865,-1.7634 -1.7394,-2.9432 -0.87284,-3.2407 4.05544,-0.2974 3.47879,1.766 7.53737,6.1806 8.69697,10.0069 1.44949,3.532 4.6398,8.2441 7.24889,10.3044 10.14646,8.5355 3.77069,38.5575 -8.11516,38.5575 -5.79798,0 -14.49779,-10.8937 -10.14931,-12.3653 2.3192,-0.8831 2.9007,-3.234 1.74111,-6.4716 -1.4495,-3.5319 -3.77011,-4.7095 -7.2489,-3.2379 -15.07473,6.4753 -15.07532,6.4759 -15.07532,-15.5989 0,-15.8938 -0.86856,-20.9005 -4.63724,-22.3722 -6.66767,-2.6489 -10.43749,-2.0606 -8.4082,1.1771 1.15959,1.766 -2.02729,2.6484 -8.11516,2.3541 l -10.14508,-0.8796 8.98573,-7.9503 c 5.21819,-4.1207 8.40539,-8.8296 6.9559,-10.007 -1.1596,-1.1773 -4.92828,0.591 -8.69696,3.8287 -8.40707,7.9468 -15.07277,11.7745 -12.46369,7.3596 1.1596,-2.0603 0.28819,-3.5354 -1.7411,-3.5354 -2.02929,0 0.2919,-3.2348 4.93028,-7.3553 6.95758,-5.5924 7.53653,-7.0654 3.47795,-7.3597 -2.89899,0 -8.40936,-2.0592 -12.46794,-4.7082 -3.76869,-2.6489 -7.82414,-4.4141 -8.40394,-3.531 -0.57979,0.5886 1.7391,7.6519 5.50779,15.5989 6.95758,15.0107 16.23462,48.5617 16.23462,59.1575 0,2.9433 1.44666,7.6523 2.89615,10.0069 2.3192,3.532 3.47962,3.534 5.21902,0.5907 2.89899,-4.1205 9.56782,-3.8253 12.75671,0.8839 1.15959,1.7659 2.31861,0.588 2.31861,-2.0609 0,-2.9433 -1.16102,-5.2988 -2.90041,-5.2988 -1.44949,0 -2.89615,-2.0603 -2.89615,-4.4149 0,-2.3547 -2.02929,-4.4149 -4.34848,-4.4149 -2.60909,0 -3.48133,-1.766 -2.61164,-4.415 1.1596,-2.3546 2.89899,-3.5302 4.34848,-2.6472 1.4495,0.883 2.61164,-0.5901 2.61164,-2.9448 0,-2.649 -2.02929,-4.7081 -4.34848,-4.7081 -4.92828,0 -5.79968,-4.7118 -1.7411,-7.0664 1.4495,-1.1774 3.47992,0 4.05971,1.7676 0.86969,2.0603 1.73684,0.8804 1.73684,-2.6515 0.28991,-5.2979 -1.44975,-6.7678 -7.53763,-7.0622 -8.11716,-0.5887 -8.11378,-0.5904 -0.8663,-1.7677 4.05858,-0.8829 8.98628,-2.9422 11.01557,-4.7082 3.18889,-2.6489 3.76701,-1.4699 2.60742,6.1827 -0.8697,5.298 -0.29019,10.0066 1.1593,11.1839 1.4495,0.8831 2.61164,6.7696 2.61164,13.2448 0,10.3016 1.73713,12.9508 9.2745,12.0679 0.8697,-0.2944 2.60822,1.766 3.47792,4.4149 1.44949,3.532 0.29019,4.1209 -5.50779,3.2379 -4.05858,-0.883 -7.24463,-0.2935 -7.24463,0.8839 0,1.4716 1.44865,2.6472 3.47794,2.6472 8.11718,0 -1.45065,3.5308 -12.75671,4.7082 -15.94443,1.7659 -20.58165,-2.647 -26.37963,-25.899 -2.31919,-9.1243 -6.95928,-20.3114 -10.43807,-24.7263 -3.47879,-4.415 -6.08532,-10.5935 -6.08532,-13.8312 0,-6.7696 -7.53795,-13.5412 -15.07532,-13.8354 -6.66767,0 -6.37691,0.8844 0.87057,20.6044 8.11716,22.0747 17.39334,58.8648 15.36405,62.1024 -2.60908,4.4149 -36.81886,26.1964 -40.87745,26.1964 -2.31918,0 -4.63809,-1.764 -5.50778,-3.8242 -2.02929,-5.8867 -13.04374,-4.1216 -24.3498,3.531 l -10.1493,7.3554 5.80082,-7.0622 5.79656,-6.769 -6.6671,3.5311 c -3.76868,2.0603 -7.53736,2.9439 -8.69696,2.0609 -0.86969,-0.8829 5.5e-4,-1.7677 2.02984,-1.7677 2.02929,0 2.89644,-1.1756 1.73684,-2.6472 -0.86969,-1.4717 0.002,-3.8284 1.74111,-5.0057 2.31919,-1.4716 2.6088,-0.8813 1.1593,1.7678 -1.44949,2.3546 -1.15875,3.2394 0.87054,1.7676 1.73939,-1.1773 2.60767,-3.828 1.44807,-6.1827 -0.86969,-2.3545 -0.29129,-4.4149 1.4481,-4.4149 1.4495,0 3.4819,2.0604 4.64149,4.4149 0.8697,2.3547 3.18973,4.4151 5.21902,4.4151 2.89899,0 2.89899,-0.587 0,-2.6473 -2.31919,-1.1773 -3.77208,-3.2377 -3.48217,-4.4149 0.28989,-1.1773 0.003,-3.5317 -0.86632,-5.592 -0.86969,-2.649 -2.03323,-2.6501 -5.51202,0.2932 -2.89898,2.3546 -5.50439,2.6498 -6.37408,0.8838 -0.8697,-1.4716 -4.63952,-2.06 -8.4082,-1.177 -5.79798,1.4716 -5.50866,0.5869 2.31861,-6.1827 4.92828,-4.1206 6.95841,-7.3585 5.21902,-7.6528 -2.02929,0 -3.77094,1.7639 -3.77094,3.8243 -0.28991,2.0603 -2.0293,1.1811 -4.34849,-2.0566 -3.47879,-4.7092 -4.92828,-5.0053 -8.69697,-1.7677 -2.89898,2.3546 -4.34848,2.6478 -4.34848,0.2931 0,-1.7659 1.16215,-3.2379 2.61164,-3.2379 1.4495,0 3.18579,-2.0571 4.05549,-4.1173 1.15959,-2.9433 0.29045,-3.8278 -2.31865,-2.9448 -5.50808,2.3546 -3.76726,-5.8854 2.90041,-13.538 2.89899,-3.2376 3.76927,-5.8894 2.02987,-5.8894 -1.73938,0 -4.06058,1.1786 -4.93028,2.9446 -0.86969,1.4717 -4.63638,4.4167 -8.11516,6.1827 -6.08788,3.2376 -6.09016,2.9433 0.5775,-4.4149 4.05859,-4.1206 5.5115,-7.6529 3.48221,-7.6529 -2.02929,0 -2.6108,-1.1787 -1.7411,-2.9447 0.8697,-1.4717 0.29132,-2.9448 -1.44808,-2.9448 -1.73939,0 -2.3189,-1.4719 -1.1593,-3.2379 0.8697,-1.766 4.92828,-2.3532 8.69697,-1.4702 4.05858,1.1773 6.95585,0.589 6.95585,-1.177 0,-1.766 -1.44978,-2.3543 -3.18918,-1.177 -1.73938,0.8829 -0.86798,-1.4702 1.74111,-5.8851 4.63839,-7.064 9.85514,-11.4821 5.79656,-4.7125 -1.15959,1.766 2.32032,2.9447 8.4082,2.9447 6.66767,0 11.30605,-1.7679 13.04544,-5.0056 1.73939,-2.9432 3.18918,-3.8237 3.18918,-1.7634 0,2.0603 2.0293,2.9438 4.34848,2.0609 6.66768,-2.649 5.2176,-7.0668 -2.02987,-5.8894 -3.76868,0.8829 -7.82614,1.4745 -8.98574,1.4745 -1.44948,0.2943 -1.45146,1.7662 -0.58176,3.2378 0.8697,1.766 -1.44921,2.9405 -5.50779,2.9405 -5.21817,0 -6.95615,-1.1742 -5.79655,-4.1175 1.15959,-3.2376 -1.74224,-3.8288 -14.49779,-2.6515 -9.56666,0.5887 -16.23463,0 -16.23463,-1.4702 0,-1.766 -2.02929,-2.6484 -4.34848,-2.3541 -5.21818,0.883 -9.27449,4.7081 -4.92602,4.7081 2.02929,0 3.47795,1.1756 3.47795,2.6473 0,3.2376 -5.5075,2.6524 -11.01558,-0.8796 -2.02929,-1.1773 -4.63812,-1.4736 -5.50781,-0.5907 -1.1596,0.8831 -0.58006,1.7677 1.15933,1.7677 1.44949,0 2.90038,2.0604 2.90038,4.415 0,2.9433 -1.16299,3.5305 -3.48218,1.4702 -4.05858,-3.2376 -8.11717,-0.5887 -13.04545,8.8299 -2.60908,5.0036 -2.89786,7.3562 -0.28876,8.2392 1.73939,0.5887 3.18917,2.3569 3.18917,3.8286 0,1.7659 -1.44865,2.0612 -3.47794,0.8839 -2.02929,-1.1773 -2.31891,-0.8833 -1.15931,1.177 2.89899,5.0035 7.53766,4.4141 7.53766,-0.8839 0,-2.3546 1.44666,-4.4149 2.89615,-4.4149 1.73939,0 2.90041,1.764 2.90041,3.8242 0,2.3547 1.16101,2.0638 2.90041,-0.8795 4.05858,-6.1809 3.47794,-9.7163 -0.87054,-7.9503 -2.31919,0.8829 -5.50837,0.5921 -7.53766,-0.8795 -2.89899,-1.766 12.46536,-5.8883 22.90172,-6.1827 0.86969,0 3.18973,2.3543 5.21902,5.592 3.18889,4.7092 2.89815,6.1812 -0.87054,7.6528 -2.60909,0.8829 -3.7701,0.589 -2.90041,-1.177 0.8697,-1.766 0.58009,-2.9448 -1.15931,-2.9448 -6.08787,0 -6.08674,6.1839 -0.28876,14.7194 3.47879,5.0036 7.82585,8.8298 10.14504,8.8298 2.02929,0 3.47907,2.3513 3.18918,5.2946 -0.57981,2.6489 -2.60683,5.0056 -4.92603,5.0056 -2.31918,0 -3.76784,-1.4719 -3.47794,-3.2379 0.2899,-1.766 -3.47992,-7.0654 -8.4082,-11.7746 -4.92828,-4.7093 -7.82669,-6.7697 -6.66709,-4.415 1.73939,3.2377 0.86657,3.83 -4.64152,2.3583 -12.17574,-3.2376 -10.43606,9.4151 3.18918,22.9543 13.33535,13.2449 15.65483,20.0152 3.18918,9.7137 -4.34848,-3.8263 -7.82442,-7.3562 -7.24462,-8.2391 0.28989,-1.1774 -1.4495,-3.2398 -4.34849,-5.0057 -5.21818,-3.2376 -5.22073,-3.2359 -6.96012,15.0126 -0.28991,3.8262 -1.44782,6.4749 -2.60741,5.5919 -1.44949,-0.5887 -2.31861,0.5858 -2.31861,2.9405 0,4.1206 -10.43749,9.7154 -21.45365,11.4814 -7.24747,1.1773 -9.56498,8.2424 -2.6074,8.5367 4.63838,0 4.63641,0.2926 -0.58178,2.6472 -3.47878,1.5453 -5.77533,2.4265 -7.13423,2.4921 z m 97.8706,-2.4921 c -0.8697,0 -13.62469,-13.2463 -28.40954,-29.4343 -30.72927,-33.8479 -33.33523,-39.4403 -4.05544,-8.83 23.4818,24.7237 28.9862,25.02 6.37409,0.5907 -8.69697,-9.7128 -15.94162,-19.7189 -15.94162,-22.3679 0,-4.4149 0.58066,-4.4149 5.21904,0 2.89899,2.649 4.63638,6.1789 3.76669,8.2393 -0.5798,1.766 5.21704,10.006 13.33421,17.9529 13.04545,12.9505 19.13474,22.369 11.59737,17.6597 -5.21817,-3.2376 -3.18972,2.3567 3.47795,9.4206 3.47879,3.8263 5.50695,6.769 4.63725,6.769 z m 364.30008,-3.7984 c -0.85613,0.138 -1.34617,-1.1331 -1.34617,-3.5613 0,-3.2376 5.2196,-13.5389 11.59737,-23.2517 12.75555,-18.8371 14.20334,-23.2503 6.95586,-20.307 -2.89899,1.1773 -6.37777,-0.2935 -8.69697,-3.5311 -4.34847,-5.8866 -0.57666,-15.6009 13.33848,-33.8493 7.82727,-10.3015 13.62212,-25.0192 8.40394,-21.7815 -1.4495,0.8829 -2.60738,-6e-4 -2.60738,-2.061 0,-1.7659 11.30409,-14.4195 25.50912,-28.253 21.16261,-20.6031 25.51114,-23.8415 26.09088,-18.5436 0.57982,3.532 -3.47737,11.4783 -10.14505,20.0138 -18.26363,22.0748 -59.42897,83.2949 -57.68958,85.0609 0.8697,0.8831 8.6981,-4.7072 17.10517,-12.6541 22.32221,-20.6031 51.31128,-40.6206 51.31128,-35.617 0,2.3546 -6.08678,10.5967 -13.33425,18.5437 -7.24746,7.9468 -24.64056,28.2553 -38.2658,45.3263 -13.62524,17.0711 -25.80494,32.0834 -27.25444,33.8494 -0.36237,0.3678 -0.68712,0.5705 -0.97246,0.6165 z m -580.52244,-5.0056 c -0.26542,-0.029 -0.3856,-0.2303 -0.33124,-0.6165 0,-2.0604 1.15903,-6.4719 2.31863,-9.7095 1.1596,-3.2376 0.58121,-11.1865 -1.44808,-18.2504 -2.02929,-7.064 -2.60767,-12.6542 -1.44808,-12.6542 3.47879,0 9.56383,23.2498 7.24464,27.076 -1.15959,2.0604 -0.86998,2.3544 1.15931,1.1771 2.02929,-1.1773 3.48218,-4.1212 3.48218,-6.4758 0,-2.3547 1.44979,-4.1175 3.18917,-4.1175 1.7394,0 2.31779,-2.0634 1.44809,-4.7125 -0.8697,-2.3546 -0.58008,-3.5301 1.1593,-2.6472 1.7394,0.8831 2.90041,-0.5878 2.90041,-3.5311 0,-4.4149 0.5781,-4.4146 2.60739,-1.177 2.3192,3.532 3.18776,2.6499 4.63725,-3.5311 1.1596,-4.4149 3.192,-7.0656 4.6415,-6.1826 1.44949,0.883 2.02788,-4.1212 1.44808,-10.8908 -0.8697,-8.5355 -0.2882,-11.1833 1.74109,-9.123 1.73939,1.7659 3.18605,8.242 2.89616,14.1286 l -0.28876,10.5933 7.24888,-10.8908 c 4.05858,-6.1809 9.27704,-16.1869 11.88613,-22.3678 2.3192,-6.4753 5.50638,-11.4772 6.95588,-11.4772 1.44949,0 -2.9e-4,5.2951 -3.18917,11.7703 -6.95758,13.8335 -7.24606,16.7782 -1.44808,11.7746 2.31919,-1.766 5.79826,-2.3543 7.53765,-1.177 2.31919,1.1774 2.60767,0.8833 1.44808,-1.1769 -1.1596,-1.766 -0.002,-7.3586 2.60739,-12.0679 2.31919,-5.0036 4.34849,-13.8329 4.34849,-20.0138 0.28989,-9.1242 0.58007,-10.3044 3.18916,-5.8895 2.02929,3.8263 1.73968,9.4191 -1.15931,19.7206 -4.92828,17.0712 -1.15818,16.4828 7.2489,-1.177 4.63839,-10.3015 5.50921,-10.8905 4.05971,-3.2379 -3.47878,16.7768 6.66768,-1.1759 13.04546,-23.5449 3.18888,-11.1846 7.24746,-23.2521 8.69696,-26.4897 4.34848,-9.4184 0.28622,14.4202 -6.67135,39.1439 -5.79798,20.0143 -7.24467,22.0758 -20.29011,30.6114 -7.82727,5.2979 -15.94528,9.7125 -18.26447,10.0069 -2.31919,0.2943 -6.08788,2.3578 -8.69697,4.7124 -2.31918,2.0603 -8.40707,7.0633 -13.04544,11.1839 -4.92829,4.1207 -11.30577,9.7121 -14.20476,12.361 -3.18889,2.649 -6.3792,4.1209 -7.24889,3.238 -0.8697,-1.1774 -1.73685,-6e-4 -1.73685,2.354 0,2.3546 -4.64121,9.1248 -10.14929,15.3057 -4.47531,5.022 -8.37493,8.099 -9.52504,7.9719 z m 379.87223,-35.9705 c 0.36237,0.1839 1.01464,-1.1409 2.17424,-3.7898 1.73939,-3.8264 2.60738,-4.4136 2.60738,-1.4703 0.2899,3.8263 0.58009,3.8263 3.18918,0 3.76868,-6.1808 3.48104,-16.7762 -0.57754,-24.4287 -3.18889,-6.181 -3.76839,-5.8901 -5.50779,5.2945 -1.44949,6.4753 -2.31861,15.0136 -2.31861,19.1342 0,3.3849 0.0708,5.0761 0.43314,5.2601 z m -168.04082,-1.1426 c 1.63633,-0.1581 3.92242,-1.6556 7.00259,-4.415 5.79798,-5.8865 7.53708,-6.1791 9.85627,-2.6472 2.0293,3.2377 2.32088,2.6475 1.74107,-2.9447 -0.57979,-4.1206 -2.32144,-6.767 -3.77094,-6.1784 -2.02929,0.883 -13.62609,7.9476 -18.26446,10.8909 -0.28991,0.5886 -2.9e-4,2.3513 1.1593,4.1173 0.54356,0.8831 1.29437,1.2719 2.27617,1.1771 z m -2.27617,-12.0678 6.37835,-3.5311 c 3.47879,-1.766 6.9567,-4.4134 7.8264,-5.8852 0.5942,-0.9049 -0.77014,-2.3961 -2.83246,-3.8587 l -5.57147,6.506 z m -8.11517,-0.8796 c 1.7394,0 4.34933,-1.1787 5.21902,-2.9446 0.8697,-1.4718 4.63638,-4.4168 8.11517,-6.1827 l 6.04712,-3.35 c -3.98959,-2.7894 -10.62025,-5.4393 -12.13244,-3.7122 -0.8697,0.883 -0.003,1.4703 2.02561,1.4703 2.02929,0 -0.28878,3.239 -4.63726,7.3596 -4.34848,3.8263 -6.66651,7.3596 -4.63722,7.3596 z m 40.87318,-6.1826 c -2.02929,0 3.48219,-2.6475 12.17915,-5.8851 8.69697,-3.2376 17.10375,-5.3011 18.55324,-4.7125 3.47879,1.1774 -24.93441,10.8919 -30.73239,10.5976 z m -103.27646,-4.6779 c 5.70739,-0.014 10.43891,-1.7229 5.87301,-3.268 -2.02929,-0.5887 -3.47795,-2.3571 -3.47795,-3.8287 0,-1.7659 1.15789,-2.3533 2.60738,-1.4702 1.4495,0.8829 2.60741,-1.7645 2.60741,-5.8852 v -7.6528 l -10.14506,10.0069 c -9.85657,9.7129 -9.85683,9.7112 -3.18916,11.4772 1.81187,0.4414 3.82191,0.6254 5.72437,0.6208 z m 99.22099,-1.134 c -0.72475,0 -1.15931,-0.2224 -1.15931,-0.6639 0,-2.3547 29.27753,-11.7729 31.01691,-10.0069 0.8697,0.8829 -4.05916,3.2396 -10.72683,5.0056 -6.66767,1.766 -13.91543,4.1184 -16.23463,5.0013 -1.15959,0.4415 -2.17139,0.6639 -2.89614,0.6639 z m 271.674,-0.5733 c -2.03205,-0.011 -4.82296,-1.2763 -7.2871,-3.6217 -4.34848,-4.4149 -5.79998,-8.5376 -4.93028,-13.8355 0,-1.1773 -2.89531,-4.4121 -6.37409,-7.3554 -3.76869,-2.9432 -7.82924,-7.359 -9.27874,-9.7137 -1.15959,-2.3546 0.87167,-1.4722 4.93025,2.3541 3.76869,3.5319 8.69442,6.4758 10.43381,6.4758 3.47879,0 4.64068,3.5337 3.77098,10.5976 -0.2899,3.2377 8.40451,12.3581 10.43381,10.8864 0.28989,-0.5886 0.8694,0 1.1593,1.1814 0.13587,2.0695 -1.06497,3.039 -2.85794,3.031 z m 10.41259,-7.9073 c -1.84304,0.1932 -7.26333,-5.0217 -13.35121,-12.4903 -6.66767,-8.5355 -13.33505,-15.5989 -14.20475,-15.5989 -1.15959,0 -4.63754,-2.0603 -7.82643,-4.4149 -7.53737,-5.5922 -8.98744,-12.0672 -2.02987,-10.0069 2.60909,0.8829 1.15734,-1.7689 -3.77095,-5.8895 -4.63837,-4.1206 -7.53481,-7.6529 -6.08532,-7.6529 1.4495,0 0.57696,-2.3523 -1.45234,-5.0013 -2.31918,-2.9432 0.87338,-1.7688 6.67136,2.9405 13.04545,10.0072 18.55298,10.3035 6.66712,0.5907 -5.50807,-4.7093 -6.95757,-7.3597 -4.34848,-7.3597 2.89899,0 2.02787,-2.0589 -2.90041,-5.8852 -4.05858,-3.2377 -5.50723,-5.8851 -3.47794,-5.8851 2.02929,0 2.89956,-1.1788 2.02986,-2.9448 -0.86969,-1.4716 -0.29244,-2.9447 1.73685,-2.9447 2.02929,0 1.15902,-2.0603 -2.02987,-4.415 -6.66767,-5.0035 -3.47879,-5.8831 4.34848,-0.8795 4.92828,2.9433 4.92802,3.8223 1.15933,7.6486 -3.76868,3.8263 -3.18775,5.3016 4.05972,11.1882 10.43635,8.8299 15.07387,9.122 7.8264,0.5864 -2.89899,-3.8263 -3.4785,-5.005 -1.15931,-2.9448 2.31919,1.766 5.5095,3.5354 7.24889,3.5354 1.4495,-0.2943 -0.29103,-2.9461 -4.05971,-5.8894 -9.85656,-8.5356 -4.05716,-7.061 7.24889,1.4745 5.50808,4.4149 10.14475,6.1809 11.30435,4.4149 0.8697,-1.4716 0.87195,-2.9447 -0.57755,-2.9447 -1.15959,0 -5.50891,-2.945 -9.56749,-6.1827 -5.21818,-4.7093 -3.47737,-4.1188 7.24888,1.7678 17.39394,10.0072 19.71171,11.7732 10.14505,8.8298 -6.37778,-2.0602 -6.66797,-1.7676 -3.18918,2.6473 2.02929,2.649 2.89957,4.7124 2.02988,4.7124 -1.15961,0 0.86969,4.1184 4.34847,9.4162 3.76869,5.0037 7.24661,7.6555 7.8264,5.8895 0.5798,-2.0603 -2.02787,-6.1829 -5.79655,-9.4205 -3.47879,-3.2376 -5.21731,-5.5908 -3.47792,-5.8852 1.44949,0 4.6347,1.7651 6.37409,3.5311 2.89899,2.9433 3.19057,0.8825 1.74108,-10.8908 -1.1596,-8.2411 -2.02871,-22.6619 -2.31861,-32.3748 -0.5798,-25.6066 -3.7684,-36.7934 -9.85627,-34.7331 -3.76869,1.1774 -4.05946,0.8845 -0.87057,-1.4702 2.02929,-1.4716 4.34735,-8.535 4.63725,-15.5989 0.8697,-11.1845 6.95928,-30.9063 23.48352,-76.8217 12.17574,-33.2592 70.73418,-114.4922 82.90994,-114.1978 2.31918,0.2943 2.02955,1.1777 -1.15934,3.238 -5.50808,3.2375 -29.56881,36.1993 -38.26578,52.6817 -11.01615,20.8974 -25.80299,61.2214 -35.36965,98.0125 -11.01616,42.6778 -10.72342,40.3252 -7.24464,40.3252 1.4495,0 4.05603,-4.4169 6.08532,-9.4205 15.36464,-39.7345 18.55666,-45.3265 35.0809,-67.4012 7.82726,-10.3015 17.39306,-22.9562 20.87185,-27.9599 11.88585,-17.071 46.0948,-57.1009 48.70387,-57.1009 5.21822,0 2.02698,6.1814 -16.81642,32.9654 -10.72626,15.0108 -25.21865,37.9679 -32.17622,50.9184 -13.91515,25.6067 -33.34034,72.1087 -31.02115,74.4634 1.7394,1.7659 0.86773,3.5347 12.46368,-20.6003 9.27676,-18.5428 40.87884,-63.8718 61.17176,-87.7124 8.11712,-9.4186 8.69581,-9.7121 8.98576,-3.5312 0,3.532 -3.47797,11.4789 -7.82642,17.6599 -9.8566,13.8334 -37.10708,73.5832 -34.7879,75.9378 0.8697,1.1773 5.50782,-2.6481 9.8563,-7.9461 4.34849,-5.2978 13.6255,-16.1886 20.58308,-24.1355 11.30604,-12.9505 12.17494,-13.5397 12.17494,-6.4758 0,5.0036 -5.21735,12.9519 -16.52342,25.0194 -22.61211,23.8407 -35.36653,23.5455 -30.72815,-0.8838 2.02929,-11.7732 1.738,-11.4783 -15.94583,15.3056 -9.85656,14.4222 -16.81442,22.0736 -20.58311,22.368 -3.47878,0.2942 -6.08958,-0.2941 -6.08958,-1.1771 0.2899,-0.883 2.03042,-10.0066 4.05972,-20.0139 2.02929,-10.3015 2.90069,-18.5435 1.74109,-18.5435 -1.15959,0 -5.50778,7.6537 -9.85626,17.3665 -8.98687,20.6031 -14.78598,26.1922 -21.45365,21.7773 -3.76869,-2.3547 -4.63838,-6.7679 -4.34848,-20.307 l 0.87054,-17.3666 -4.34848,11.7746 c -6.37778,17.3655 -7.53851,28.8431 -4.05972,40.0276 5.21818,17.6598 6.37946,80.3537 1.74107,90.0665 -2.31919,4.415 -3.48017,10.0075 -2.90037,12.0679 2.31918,5.8865 -1.74027,18.8361 -5.21906,16.7759 -1.44949,-1.1773 -4.9297,-0.2926 -7.24888,1.7677 -3.1889,2.6489 -3.47537,4.1203 -0.86628,5.592 1.73939,1.1773 2.89841,3.8259 2.31861,5.5919 -0.10871,0.2576 -0.3015,0.3949 -0.56478,0.4225 z m -150.76158,-6.1998 c 1.37702,0.2575 3.4751,-0.5531 6.37409,-2.4663 2.0293,-1.4716 3.18947,-4.1203 2.02988,-5.5919 -2.60909,-4.415 -10.43381,-1.1762 -10.43381,4.1218 0,2.3546 0.65282,3.6788 2.02984,3.9364 z m -178.03723,-4.5314 c -2.28295,-0.069 -4.23977,-1.1702 -4.89204,-2.9362 -1.73939,-4.7092 2.60825,-7.9488 12.17491,-9.4205 4.34849,-0.5886 6.08985,0.2937 4.93025,2.3541 -0.86969,1.766 -3.18775,2.3575 -4.63725,1.4745 -1.44949,-0.883 -1.74023,-5e-4 -0.87053,2.354 0.86969,2.649 -0.8697,4.7078 -4.34849,5.8851 -0.79722,0.2209 -1.59586,0.3119 -2.35685,0.289 z m 326.75195,-7.9418 c 4.63838,0.2944 5.80111,-0.5898 4.64151,-4.1217 -1.73939,-4.1206 -1.16244,-4.1183 2.89615,-0.5863 4.34848,3.5319 4.92743,3.5331 3.47794,-0.2933 -0.5798,-2.3545 -4.63838,-4.4149 -8.69696,-4.4149 -5.50808,-0.2943 -6.95618,0.8798 -5.79659,4.1175 1.15959,2.9433 0.29048,3.5336 -2.31861,1.7677 -2.31919,-1.4716 -3.18947,-1.1785 -2.02987,0.2931 0.86969,1.4717 4.34765,2.9436 7.82643,3.2379 z m -405.39408,-0.6897 c -0.3013,0 -0.46288,-0.1562 -0.46288,-0.4873 0,-1.7659 2.6088,-6.1795 5.50779,-10.3 5.50808,-7.064 10.43636,-23.2515 13.04545,-42.0886 0.57979,-4.7093 0.57979,0.5858 0,11.7703 l -0.87055,20.6045 5.21903,-10.3 c 4.63838,-9.1242 9.85572,-27.667 16.52339,-57.3943 0.8697,-4.7093 2.60938,-7.066 3.18918,-5.0056 2.02929,5.5922 -7.82814,47.6839 -13.91602,60.0458 -3.18888,6.1809 -5.50779,11.7711 -5.50779,12.6541 0,3.2376 13.33848,-6.477 26.38393,-19.4275 15.94444,-15.8938 23.76999,-32.6673 33.04676,-70.3415 7.24746,-30.9046 9.56808,-25.3141 2.90041,7.0622 -4.34849,20.8973 -19.42381,57.6874 -23.77228,57.6874 -1.15961,0 -6.0873,5.8866 -11.01558,13.2448 -6.08788,9.1242 -11.01758,13.248 -15.94586,13.5423 -4.05858,0.2944 -8.69754,0.8795 -10.72683,0.8795 -2.0293,0.2943 -8.11801,5.0054 -13.91599,10.5976 -4.47532,4.3046 -8.37657,7.2506 -9.68216,7.2563 z m 386.47989,-9.3991 c 0.47109,0.027 0.79777,-0.1365 0.94272,-0.5044 0.5798,-1.766 3.76813,-3.2379 6.66712,-3.2379 3.18889,0 4.92941,-1.4731 4.05971,-2.9448 -1.15959,-1.766 -3.19201,-2.3532 -4.64151,-1.4701 -1.44949,1.1773 -4.34592,0.8809 -6.08532,-0.5907 -2.02929,-1.1773 -6.37974,-2.6504 -9.27873,-2.9448 -5.21818,-0.8829 -5.21848,-0.2937 1.1593,6.4759 3.04394,3.3111 5.76345,5.1341 7.17671,5.2168 z m 102.98769,-5.2168 v -8.2393 c 0,-4.4149 4.63696,-15.0093 10.14504,-23.5449 5.50808,-8.2412 10.14504,-16.7807 10.14504,-18.8411 0,-2.0602 1.15904,-3.8242 2.31864,-3.8242 1.4495,0 4.0614,-3.2359 5.80079,-7.0623 2.89899,-6.4751 2.31893,-7.3604 -3.18915,-8.2435 -5.50808,-0.8829 -4.06058,-3.2381 12.46365,-19.7205 l 18.84625,-18.8369 0.8663,9.4205 c 0.57982,7.064 -1.44664,12.9497 -7.2446,21.191 -4.34852,6.4752 -15.07646,22.3666 -23.48352,35.9058 -8.40707,13.2449 -17.68299,28.2561 -20.87188,32.9654 z m -333.67385,-4.4149 c 1.73938,0 2.31889,-2.3524 1.1593,-5.0014 -0.8697,-2.9433 -0.87196,-4.4152 0.57753,-3.2379 1.15961,1.1773 4.05917,0.8822 6.37836,-0.8838 2.89899,-2.6491 4.93054,-2.3558 8.11943,0.2931 3.76868,2.9433 4.34849,2.6508 4.34849,-2.6472 0,-5.298 -1.74253,-6.1827 -13.33849,-6.1827 -9.85656,0 -12.46196,0.8853 -10.72257,3.8286 1.1596,1.766 1.738,5.8866 1.4481,8.8299 -0.5798,2.649 0.29045,5.0014 2.02985,5.0014 z m 236.01134,-0.4053 c 0.54356,0.037 0.97925,-0.6244 1.4141,-1.9488 0.5798,-2.0603 2.32035,-2.6465 4.05974,-1.7634 8.69697,5.5922 -3.47765,-8.243 -13.33422,-15.0125 -15.36464,-10.5959 -16.81697,-7.0628 -1.45233,4.1217 6.66767,5.0036 10.72936,9.1231 8.98996,9.1231 -1.73939,0 -4.06055,-1.4719 -4.93025,-3.2379 -1.15959,-1.766 -4.05916,-2.3532 -6.37835,-1.4703 -2.60909,1.1774 -6.08701,0.8799 -7.8264,-0.2974 -2.02929,-1.4717 -1.15904,0 2.02984,2.6515 2.89899,2.6489 6.95644,4.414 8.98573,3.5311 2.3192,-0.8829 5.21876,6e-4 6.37836,2.0609 0.86969,1.4716 1.52026,2.2052 2.06382,2.242 z m 15.94162,-5.8636 c 0.56626,-0.1846 -0.75675,-2.0248 -3.80068,-5.5014 -2.89899,-3.2377 -4.06001,-5.8896 -2.90041,-5.8896 1.15959,0 0.003,-2.6475 -2.89616,-5.8851 -5.21817,-5.8866 -11.88897,-8.2415 -8.98998,-3.238 1.15959,1.4717 0.29131,3.24 -1.44808,3.8286 -1.7394,0.5887 1.74165,4.7082 8.11943,9.1231 7.33806,5.298 11.1878,7.7996 11.91588,7.5624 z m -355.51394,-3.8847 c -0.33068,-0.055 -0.51384,-0.2958 -0.51384,-0.7372 0,-1.766 3.76981,-6.4739 8.4082,-10.3002 4.34848,-3.8262 10.43523,-10.8907 13.33421,-15.3056 2.89899,-4.4149 6.95645,-7.3589 8.98574,-6.4759 5.21817,2.0603 23.1919,-22.9571 30.43938,-42.0884 3.18888,-9.1244 7.25057,-23.8382 8.98996,-32.668 3.76869,-20.6032 6.66768,-23.5464 4.34848,-4.415 -2.60908,20.0144 -14.49691,60.3346 -17.9757,60.3346 -1.44949,0 -8.11688,7.3597 -14.20475,16.1896 -6.08787,8.8299 -12.46765,15.3049 -13.62725,14.4218 -1.15959,-0.5886 -3.76839,1.4705 -5.50779,4.7082 -1.73938,3.2376 -4.63892,5.8894 -6.37832,5.8894 -2.02929,0 -6.37638,2.9439 -10.14506,6.4759 -2.82652,2.6489 -5.16128,4.1364 -6.15326,3.9708 z m 35.13183,-16.8794 c -0.34257,-0.1925 1.42686,-2.5811 5.23177,-6.8121 5.79798,-6.4753 11.59283,-14.7173 12.75242,-18.5436 0.8697,-3.532 3.19202,-5.8855 4.64151,-4.7082 1.7394,0.8831 5.79685,-0.5909 8.98574,-3.8286 4.63838,-3.8262 6.37916,-4.4134 7.24886,-1.4701 1.1596,2.9433 2.31894,2.9421 5.50782,0.2931 2.31919,-1.7659 4.05546,-5.003 4.05546,-6.7689 0,-1.766 -1.15676,-1.1776 -2.89615,1.1769 -1.4495,2.3547 -3.48192,3.2372 -4.64152,2.3541 -0.8697,-1.1773 1.1596,-6.1814 4.34849,-10.8907 11.01615,-15.5995 22.90543,-45.3242 25.22462,-63.5726 2.02929,-15.3051 2.60909,-16.4824 4.34848,-8.8299 1.1596,5.0037 2.02871,6.4756 2.31861,3.2379 0,-3.2376 0.87028,-5.0047 2.02987,-4.1217 3.76869,3.8263 -16.81697,72.1082 -23.19475,76.8173 -1.73939,1.1774 -0.2896,1.7701 3.18918,1.1814 3.47879,-0.5886 8.69838,-2.9472 11.59737,-5.5963 2.89899,-2.3546 6.95642,-3.8223 8.98571,-3.2336 4.05858,1.4717 4.63925,-1.7673 0.87057,-7.3596 -1.7394,-2.9433 -4.34707,-1.7652 -10.14504,5.2988 -4.05859,5.0035 -7.53766,7.9474 -7.53766,6.4758 0,-1.766 5.21533,-8.5361 11.59311,-15.3057 6.37778,-6.7696 11.59738,-13.5409 11.59738,-15.0126 0,-1.7659 1.44865,-2.0611 3.47794,-0.8838 1.73939,1.1773 2.322,0.8821 1.45231,-0.8838 -1.1596,-1.766 1.15733,-10.3013 4.92601,-18.8369 3.76869,-8.8298 9.27593,-26.1955 12.17492,-38.5574 3.18888,-12.6562 6.37806,-22.9542 7.53765,-22.9542 4.34849,0 -7.53794,57.3925 -15.07532,73.2863 -8.69696,17.954 -6.66796,20.6013 5.50779,7.0622 19.71313,-22.0747 35.94833,-58.5701 40.00692,-89.7691 1.15959,-9.7129 2.0321,-10.5964 5.80078,-6.4757 3.76869,3.5318 3.76529,5.8876 0.8663,12.9515 -2.02929,4.7093 -4.05858,14.4202 -4.34847,21.4841 -1.1596,15.5995 -17.97231,57.9848 -23.19049,57.9848 -2.0293,0 -8.40678,4.7079 -14.20476,10.3002 -6.08787,5.5922 -13.3345,10.3044 -16.52339,10.3044 -3.47879,0 -5.50778,2.0589 -5.50778,5.8851 0,7.3582 3.76613,7.3582 19.13077,0 13.33534,-6.7696 21.45335,-14.7176 22.61295,-21.7815 0.2899,-2.6489 4.63924,-9.1239 9.56753,-14.4218 16.23433,-17.6598 33.91816,-47.3859 39.13634,-66.5173 2.89899,-10.3016 5.79627,-19.7215 6.95586,-20.6046 3.76869,-3.8262 -2.89869,28.8449 -9.85627,46.2104 -8.11717,20.8973 -6.95702,27.6687 2.02984,10.5975 15.65455,-30.6102 20.58311,-41.2078 20.58311,-45.9171 0,-2.6489 1.44979,-5.8859 3.18918,-6.769 7.53737,-5.0036 -14.20563,59.7489 -23.77229,70.6391 -1.44949,1.4716 -2.60738,4.7075 -2.60738,7.0621 0,6.7696 12.46253,-6.766 25.79788,-27.3691 6.37776,-10.0072 13.04715,-25.0206 14.78655,-33.5562 2.02929,-8.2411 4.34705,-15.3056 5.79655,-15.3056 4.63838,0 -6.08674,37.3812 -17.6827,60.3389 -13.62525,27.0783 -24.34924,40.0282 -31.01691,37.6735 -3.18889,-1.4716 -4.06114,-0.5872 -2.61164,2.9448 0.86969,2.6489 -0.57781,7.6509 -3.76669,11.4772 -3.18889,3.8262 -5.51092,5.2981 -5.80082,3.2379 0,-1.766 1.45092,-4.4158 2.90041,-5.2989 1.73939,-0.8829 2.90041,-3.2342 2.90041,-5.2944 0,-1.766 -3.76869,1.1767 -8.69697,6.769 -4.63838,5.5923 -8.40707,8.5361 -8.69696,6.4758 0,-2.6489 -1.44921,-2.9453 -5.50779,-0.5907 -3.76868,2.0604 -5.80165,2.0604 -6.67135,0 -0.5798,-1.766 -5.50753,0.2944 -11.01561,4.415 -14.49494,11.1845 -23.76887,15.3059 -11.59311,5.2988 5.50808,-4.4149 15.36464,-13.2477 21.74241,-19.1343 11.59596,-11.4789 20.87159,-15.0103 17.6827,-6.769 -0.86969,2.3547 -0.29019,4.4149 1.1593,4.4149 1.7394,0 2.90041,-2.0591 2.90041,-4.7082 0,-2.3545 1.15902,-3.8277 2.31861,-2.9446 1.4495,0.8829 6.08533,-1.4694 10.43381,-5.0013 l 8.11946,-6.769 -6.37836,-10.8908 -6.66708,-11.184 -8.98574,9.7138 c -4.92828,5.2979 -8.69925,10.5918 -8.11946,12.0634 0.5798,1.1774 -1.15872,2.061 -3.47791,2.061 -2.60909,0 -4.63726,1.4719 -4.63726,3.2379 0,1.4716 1.44666,2.06 2.89615,1.177 1.73939,-0.883 2.90041,-0.2946 2.90041,1.177 0,1.7659 -1.16102,3.2379 -2.90041,3.2379 -1.44949,0 -7.53511,5.5926 -13.62299,12.0678 -6.08787,6.7696 -13.6275,13.2477 -16.81638,14.7194 -3.1889,1.4716 -9.85711,5.2947 -15.0753,8.5324 -8.40707,5.0035 -8.98292,5.0056 -7.53342,0.5907 1.15959,-3.2377 -1.74079,-1.7669 -7.24887,3.531 -5.21818,5.0036 -9.27876,7.3579 -9.27876,5.5919 0,-1.7658 2.02929,-3.8238 4.34848,-5.0012 2.31919,-0.883 4.34848,-3.2397 4.34848,-5.0057 0,-2.3545 -2.60964,-1.1766 -6.37832,2.061 -11.59596,10.3015 -17.97205,14.717 -15.65286,10.8907 4.05858,-7.0639 -2.89727,-3.8286 -11.30434,5.0013 -4.63838,5.0036 -9.85911,8.5378 -11.30861,8.2435 -4.92828,-0.5886 -14.20307,3.8249 -21.16064,10.3001 -4.63838,4.1206 -6.6671,4.7099 -6.6671,2.0609 0,-2.649 -2.90237,-1.4713 -7.83065,3.238 -1.7394,1.5451 -2.70337,2.2194 -2.90891,2.1039 z m 9.28723,-7.1095 8.99,-6.4716 c 4.92828,-3.2376 10.72625,-8.5393 13.04544,-11.1883 3.76868,-4.7092 3.47708,-4.7055 -1.7411,-2.0565 -3.18889,1.766 -8.98686,7.0622 -13.04545,11.4771 z m 284.39247,-10.007 c -0.86969,0 -2.02987,-0.5873 -2.02987,-1.4702 -0.28989,-0.883 -0.58063,-2.9433 -0.87053,-4.4149 0,-1.766 -2.31807,-4.4136 -4.63725,-5.8852 -7.24748,-4.7092 -1.4495,-3.2373 13.04544,3.238 7.24747,3.2376 12.75471,6.7697 12.17492,7.6528 -0.8697,0.5887 -4.05577,0 -7.24467,-1.7677 -7.53737,-4.1206 -13.04599,-4.1195 -10.72681,-0.2932 0.8697,1.7659 1.15847,2.9404 0.28877,2.9404 z m -197.28692,-15.1893 c -1.1777,0.046 -1.22302,-0.4829 -0.1359,-1.5867 4.63838,-4.7091 31.0206,-9.4184 72.47614,-13.2447 57.68987,-5.2979 134.80296,1.7651 134.80296,12.3609 0,2.0604 -1.73911,2.3578 -5.50779,0.2975 -21.74242,-12.0675 -157.99319,-10.8916 -198.28913,1.4703 -1.52196,0.4414 -2.63964,0.6751 -3.34628,0.7027 z m 320.96389,-8.722 c -0.54356,-0.1473 -0.61519,-1.8408 -0.76014,-5.2255 0,-7.6527 24.06218,-55.6286 32.46925,-65.0471 5.21816,-5.5924 11.0156,-7.9469 11.0156,-4.415 0,0.883 -3.18837,6.4732 -6.66713,12.6542 -3.76868,5.8865 -11.59595,20.3107 -17.39392,31.4952 -5.79798,11.4788 -12.46623,23.5463 -15.07532,26.4896 -2.02929,2.7962 -3.04478,4.1957 -3.58834,4.0486 z m -192.67515,-17.2934 c -1.73939,0 -0.28764,-3.5311 3.77095,-7.946 3.76868,-4.7093 8.69751,-9.4203 10.72681,-10.5976 1.73938,-1.1773 3.47794,-3.826 3.47794,-5.592 0,-1.766 -2.32003,-1.1787 -5.21902,1.4703 -2.89899,2.9433 -6.37807,5.0056 -7.53766,5.0056 -1.1596,0 -4.63754,2.9427 -7.82642,6.769 -3.76869,4.7092 -5.50779,5.2985 -5.50779,2.0609 0,-3.532 -1.15961,-3.2379 -4.34849,1.177 -2.31919,3.2376 -5.21876,4.7115 -6.37835,3.8286 -0.8697,-1.1773 1.7411,-5.8883 6.08958,-10.5976 7.82727,-8.2413 7.53766,-11.4806 -1.15931,-10.5976 -2.31918,0.2944 -6.66738,0.8838 -9.85626,0.8838 -2.89899,0.2944 -9.85715,5.2974 -15.07532,11.184 -5.50808,5.5923 -9.85628,8.5361 -9.85628,6.4758 0,-2.3547 7.24776,-11.1851 16.23463,-19.7206 28.41008,-26.4897 48.703,-56.5095 56.53028,-82.1162 5.21817,-17.0711 6.9567,-20.6016 7.8264,-14.715 0.57979,4.4149 -4.05801,20.3073 -11.01558,36.7897 -6.66767,15.8938 -12.17688,30.3156 -12.75668,32.0816 -0.2899,2.0604 -2.31919,5.5903 -4.34848,8.2392 -2.3192,2.6489 -3.18947,5.596 -2.02988,6.7733 0.8697,0.883 2.31752,1.1751 2.60741,0.5864 4.34848,-5.0036 24.93469,-38.8494 29.57307,-47.9736 3.76869,-7.3584 6.0873,-10.011 6.6671,-6.7734 1.73939,8.8299 -19.42209,45.0364 -39.42511,67.4054 -5.50808,6.1809 -9.56666,12.0655 -8.69697,12.6542 2.02929,2.0603 37.10651,-31.7896 37.10651,-35.9102 0,-1.766 1.44865,-4.4147 3.47794,-5.592 2.02929,-1.4716 2.32003,-0.8813 0.87053,1.7678 -1.73939,2.6489 -1.15988,3.2393 1.15931,1.7677 2.0293,-1.4716 2.89844,-4.1224 2.31864,-6.1827 -0.8697,-1.766 1.15959,-7.3585 4.34849,-12.0678 3.18888,-4.7093 4.9294,-6.1812 4.05971,-3.2379 -0.8697,2.9433 -0.58322,4.7116 0.86627,3.8286 1.4495,-0.883 3.19002,-4.4152 4.05971,-7.6528 0.8697,-3.2377 0.29019,-5.2991 -1.1593,-4.1218 -4.05858,2.6489 -2.89841,-2.9453 2.02987,-9.4206 2.3192,-2.9433 3.47822,-3.8249 2.31861,-1.4702 -0.86969,2.0603 -0.58008,4.7078 1.15931,5.8851 3.47879,2.0604 -7.53792,25.6096 -23.77226,50.039 -13.33534,20.0144 -13.33534,25.015 0,11.7702 12.75556,-12.3618 35.08087,-45.9127 39.42935,-59.1576 1.73939,-5.2979 4.34709,-10.8925 5.79659,-12.6585 3.76868,-4.1205 -0.28964,12.3627 -5.50783,22.9586 -2.31918,4.4149 -3.18943,9.7155 -2.02984,11.4814 1.4495,2.0603 0.87112,2.3544 -1.44807,1.177 -2.31919,-1.766 -3.19144,-0.5915 -2.61164,2.9405 0.5798,3.2376 -0.57812,5.2999 -2.60741,5.0056 -2.02929,-0.5886 -3.77094,0.8801 -3.77094,2.9404 0,2.3546 -2.60655,7.362 -6.08533,11.1883 -3.47879,3.8262 -7.24747,10.298 -8.69696,14.1243 -1.4495,3.8263 -3.48189,6.1819 -4.64149,5.2988 -0.86969,-1.1773 -5.79429,1.1762 -10.72257,4.7082 -15.07475,11.1844 -21.45536,13.8374 -23.19475,10.0112 -0.8697,-2.649 -1.44807,-2.3558 -1.44807,0.2931 -0.28991,1.766 -1.74166,3.5311 -3.77095,3.5311 z m 80.59556,-2.9447 c -0.8697,0 -2.31948,-1.4719 -3.18918,-3.2379 -1.73939,-2.649 6.08675,-23.2517 8.98574,-23.2517 0.57979,0 -0.58122,4.7121 -2.90041,10.3043 -5.50808,12.9506 -3.47766,13.2415 4.05971,0.8796 3.18889,-5.2979 5.79656,-8.2406 5.79656,-6.769 0,3.5319 -10.72313,22.0747 -12.75242,22.0747 z m -113.56167,-3.3112 c -2.42466,0.027 -4.14039,-0.7528 -4.14039,-2.5739 0,-1.1773 3.19031,-4.4132 7.24889,-7.0623 4.05858,-2.6489 7.24889,-4.1219 7.24889,-2.9446 0,1.1773 2.02929,0.2926 4.34849,-1.7678 5.50808,-4.7092 5.50808,-1.7634 0,7.0665 -2.85371,4.2494 -10.07698,7.2315 -14.70588,7.2821 z m 86.00994,-0.8709 c -1.87529,0.027 -3.18068,-0.5269 -3.18068,-1.4099 0,-1.1773 1.45289,-3.5316 3.48218,-5.592 5.21818,-5.2978 -0.87225,-4.1177 -6.96012,1.4746 -11.01616,10.0072 -7.53538,1.4713 4.93027,-12.0678 15.94444,-17.3654 31.30624,-44.7378 37.68402,-67.4011 2.60908,-9.4186 5.50865,-16.4863 6.37835,-15.6032 2.89899,2.6489 -5.50782,32.3787 -14.20478,51.2158 -4.63839,10.3015 -8.11857,19.4253 -7.24887,20.0139 2.3192,2.649 22.03232,-38.8529 30.43938,-64.7539 8.11717,-24.4294 12.17915,-32.9618 12.17915,-26.1922 0,4.1206 -19.71484,62.0996 -23.48352,69.4578 -1.44949,2.6489 -2.02787,5.0056 -1.44808,5.0056 0.8697,0 4.92829,-6.1829 8.69697,-13.8355 4.05859,-7.9469 7.24776,-12.9488 7.53766,-11.4772 0,5.0036 -15.36776,30.906 -17.68696,29.4344 -1.44949,-0.883 -1.73597,0.5889 -0.86628,3.238 2.3192,5.5922 -21.16348,28.2535 -26.96146,25.8988 -2.60908,-1.1773 -3.47904,0.5907 -3.18914,5.0057 0.57979,4.4149 -0.87086,7.061 -4.05975,7.3553 -0.72475,0.1473 -1.41326,0.2237 -2.03834,0.2329 z"
       style="stroke-width:0.292105" />
  </g>
</svg>
