<?xml version="1.0" encoding="UTF-8" standalone="no"?>
<svg
   version="1.0"
   width="300.000000pt"
   height="425.000000pt"
   viewBox="0 0 300.000000 425.000000"
   preserveAspectRatio="xMidYMid meet"
   id="svg41"
   sodipodi:docname="girl wuth a blue hat.svg"
   inkscape:version="1.4 (86a8ad7, 2024-10-11)"
   xmlns:inkscape="http://www.inkscape.org/namespaces/inkscape"
   xmlns:sodipodi="http://sodipodi.sourceforge.net/DTD/sodipodi-0.dtd"
   xmlns="http://www.w3.org/2000/svg"
   xmlns:svg="http://www.w3.org/2000/svg">
  <defs
     id="defs41" />
  <sodipodi:namedview
     id="namedview41"
     pagecolor="#ffffff"
     bordercolor="#000000"
     borderopacity="0.25"
     inkscape:showpageshadow="2"
     inkscape:pageopacity="0.0"
     inkscape:pagecheckerboard="0"
     inkscape:deskcolor="#d1d1d1"
     inkscape:document-units="pt"
     inkscape:zoom="4.1577879"
     inkscape:cx="84.419891"
     inkscape:cy="88.147835"
     inkscape:window-width="1920"
     inkscape:window-height="1051"
     inkscape:window-x="-9"
     inkscape:window-y="-9"
     inkscape:window-maximized="1"
     inkscape:current-layer="g41" />
  <metadata
     id="metadata1">
Created by potrace 1.10, written by Peter Selinger 2001-2011
</metadata>
  <g
     transform="matrix(0.1,0,0,-0.1,-0.51020408,410.20408)"
     fill="#000000"
     stroke="none"
     id="g41">
    <path
       id="path1"
       d="m 497.87019,4102.036 c -11.88447,-0.1235 -23.68285,-2.6028 -42.78063,-6.4951 -16.97581,-3.5679 -37.54105,-10.0563 -45.7025,-14.273 -8.16144,-4.541 -34.60325,-18.1636 -59.08759,-30.4892 -30.68703,-15.5691 -47.66252,-26.2739 -55.17104,-35.0315 -13.05832,-14.5961 -42.44048,-75.5714 -49.94901,-103.1418 -16.9758,-64.2227 -23.17882,-93.0921 -23.17882,-110.283 -0.32645,-16.2179 -2.60975,-23.3531 -12.72994,-41.5171 -6.52915,-12.0013 -12.07958,-24.6527 -12.07958,-27.572 0,-7.4602 6.20175,-13.622 13.71028,-13.622 8.81436,0 7.18047,-11.6765 -3.26618,-25.6239 -16.64934,-21.0832 -24.48114,-44.1126 -22.84885,-68.115 1.30583,-20.1102 10.11636,-45.7363 15.66615,-45.7363 1.30583,0 -0.32678,5.5147 -3.59136,12.0019 -3.26458,6.8115 -6.20238,14.271 -6.20238,17.1903 0.32646,2.5948 2.28648,0.3256 4.57169,-5.1885 2.61166,-5.8384 7.1843,-11.6759 10.44888,-13.6221 5.22332,-2.9192 5.54659,-7.1352 3.26139,-46.3824 -0.97937,-24.0024 -3.58976,-50.5994 -5.22205,-59.6814 -5.22333,-25.9486 -20.89298,-53.8458 -40.48045,-72.3342 -22.52559,-21.0832 -19.26133,-21.7316 6.20238,-1.2971 29.70766,23.6781 39.4998,39.5741 50.59936,82.0649 4.89687,20.4345 8.81596,37.6232 8.16304,38.2719 -1.95874,1.6218 -8.16304,-14.9223 -8.16304,-21.4094 0,-7.1359 -10.4425,-43.7851 -12.07479,-42.1633 -0.65292,0.6487 1.30487,12.6493 3.91654,26.921 2.61166,13.9474 5.22205,34.3816 5.22205,45.0853 0.65291,18.4884 0.651,18.8112 2.9362,6.4856 1.95875,-10.0551 2.61581,-6.1596 2.61581,16.221 0,42.8152 -0.002,43.4633 4.24172,36.6518 1.63229,-2.9193 2.28361,-9.4055 1.6307,-13.6221 -0.97938,-4.8654 0.32581,-9.4073 2.61102,-10.7047 2.61166,-1.6218 7.1843,-7.7871 10.44888,-13.9499 11.09957,-20.4345 28.40119,-33.4053 31.99223,-23.999 2.93812,7.4602 2.28425,10.0551 -0.98033,4.8654 -2.61166,-3.8923 -4.24268,-3.5711 -10.11892,3.2404 -8.81436,9.7307 -19.91552,33.4101 -22.85364,48.3305 -1.30583,6.1628 -4.89495,16.8656 -7.83307,23.3528 -4.89687,11.0281 -4.89687,11.9999 0,10.0537 4.57041,-1.6218 4.57168,-0.9692 -0.32519,8.7615 -3.26457,6.1628 -4.89941,15.2419 -4.2465,21.4047 0.65292,6.1628 0.002,11.3531 -1.63069,12.0019 -1.63229,0.3243 -1.63357,5.8412 0.32518,12.6527 1.95875,6.8115 2.61485,17.8359 1.63548,25.2961 -1.63229,11.0282 -0.98161,12.9759 4.24172,12.9759 3.59103,0 10.77279,4.5397 15.99611,10.0538 5.54978,5.5141 14.03896,12.329 19.26229,14.9239 l 9.46855,4.8654 -1.96066,-14.924 c -1.30583,-8.4332 -0.65196,-15.5662 0.98033,-16.5393 4.24395,-2.5949 4.24395,-46.0587 0,-48.6536 -2.28521,-1.2974 -1.96002,-4.217 0.32518,-8.4336 1.63229,-3.5679 2.93749,-14.5983 2.61103,-24.9777 -1.63229,-35.0306 29.05474,-124.2263 58.76239,-170.9337 7.50853,-12.0012 13.05769,-22.3845 12.40478,-23.3576 -2.93812,-2.9192 -31.33773,43.1434 -38.5198,62.2804 -4.24395,10.7038 -10.12051,23.3528 -13.38509,28.2182 -3.59103,5.1897 -5.22587,10.3788 -4.2465,12.3249 0.97937,1.6218 0.32678,3.2452 -1.30551,3.2452 -1.95875,0 -3.59136,1.9426 -3.59136,4.5375 0,2.2705 -2.2852,6.1631 -4.89686,8.4336 -6.2027,5.1897 -6.1992,1.9499 0.32996,-10.7 9.79373,-18.4884 11.09925,-21.7329 11.09925,-25.3008 0,-1.9462 1.95524,-8.108 4.5669,-13.6221 10.77311,-23.6781 14.69347,-35.6793 12.73472,-38.9228 -0.97937,-1.6218 -0.32678,-2.275 1.30551,-1.3019 1.95875,1.2974 4.56786,0 5.54724,-2.9173 0.97937,-2.5949 0.65323,-3.8904 -1.30551,-2.9173 -5.87625,3.5679 -3.58817,-4.8679 7.83785,-28.546 11.75248,-24.9755 21.21688,-39.2453 21.54334,-32.1095 0,2.2705 1.96129,3.2443 4.2465,2.2712 1.95875,-1.2974 0.9765,0.6477 -2.94099,3.8913 -6.85562,5.8384 -15.99356,26.921 -11.74961,26.921 1.30583,0 8.4863,-5.84 16.32129,-12.9758 7.83499,-7.1359 16.32547,-12.9711 18.93713,-12.9711 3.59104,0 4.2433,-2.2709 2.61101,-8.4337 -1.30583,-5.514 -0.97843,-8.1108 0.98032,-6.8134 1.63229,0.9731 2.6101,-1.9467 1.63072,-7.1364 -0.65291,-5.5141 0.97712,-12.9712 4.2417,-17.8365 3.26458,-4.8654 4.57074,-10.7064 3.59136,-13.9499 -1.63229,-3.568 -3.26108,-4.2173 -4.56691,-2.2711 -1.30583,1.9461 -8.81498,9.0816 -16.97643,15.8931 -11.75248,10.3795 -13.06151,11.0298 -6.53235,3.2452 4.24395,-5.5141 10.12179,-12.0012 13.05991,-14.5961 2.61166,-2.9192 7.83338,-8.4314 11.42442,-12.648 l 6.53236,-7.7874 -7.50791,2.5942 c -6.85562,1.9461 -7.51108,1.624 -4.2465,-4.2145 4.57041,-8.4332 4.56913,-24.3274 0.32518,-21.7325 -1.95874,1.2974 -3.2649,-1.9468 -3.59136,-7.1365 v -9.0798 l -3.58656,8.1058 c -1.63229,4.541 -3.26618,12.0005 -3.26618,17.1903 0,4.8653 -1.3087,8.7614 -2.94099,8.7614 -1.63229,0 -2.9362,-1.6233 -2.9362,-3.2451 0,-1.9462 -1.63134,-2.9186 -3.91654,-2.5943 -1.95875,0.6487 -5.22395,-5.1925 -7.1827,-12.6528 -4.89686,-18.8127 -9.14274,-21.4053 -6.85754,-4.2144 l 1.96068,14.5961 -6.85754,-13.299 c -5.22333,-10.3794 -8.48823,-13.2992 -13.38509,-12.0018 -4.57041,1.2974 -6.20237,0 -6.20237,-4.8653 0,-3.8923 -1.62911,-7.7837 -3.2614,-8.7567 -4.89686,-2.9193 -3.91781,-8.1106 1.30552,-8.1106 2.2852,0 6.85561,3.2443 9.79373,7.1365 3.26458,4.8654 4.56721,5.5173 3.26138,1.625 -5.22331,-15.5692 15.34577,1.2936 25.1395,20.4307 l 7.50788,14.5961 2.61104,-12.6481 c 1.63229,-7.1358 4.57358,-14.9198 6.53232,-17.1903 2.61166,-3.2436 2.61166,-5.5156 0,-8.1105 -4.89686,-4.8654 -5.22554,-10.3788 -0.65513,-7.4596 5.22332,3.2436 7.5066,-6.8137 2.93619,-15.247 -8.16144,-15.8935 -39.17268,-37.3007 -58.10724,-40.2199 -7.18207,-1.2975 -13.38509,-3.2436 -13.38509,-4.8654 0,-1.6218 -2.94004,-2.9173 -6.85753,-2.9173 -8.81436,0 -76.06371,-27.5688 -87.16328,-35.6777 -5.22332,-3.8923 -23.83078,-11.0313 -41.78596,-16.2211 -48.96867,-14.2717 -77.695357,-28.8643 -104.464897,-53.191 -22.199131,-20.1102 -48.968352,-58.7096 -55.1710502,-78.8198 -4.5704094,-16.2179 5.2233252,-5.841 24.4843342,24.973 23.504961,38.2741 47.661245,60.0086 84.877433,77.1995 13.38477,5.8384 28.07696,12.6487 32.64737,14.9192 4.57041,2.2705 14.0361,4.541 21.21817,4.8653 8.4879,0.3244 27.75082,7.7865 55.82619,21.4095 59.41533,28.8678 58.76209,28.8653 64.96479,20.1076 l 4.89687,-6.8086 v 6.8086 c 0,6.8115 7.83307,17.1903 12.72994,17.1903 1.63229,0 3.91972,-4.5384 5.55201,-10.3769 2.93812,-9.4063 1.95684,-11.3512 -6.85752,-19.7845 -7.50853,-6.8115 -8.16081,-8.4342 -2.61103,-5.8394 3.91749,1.9462 7.83531,2.5946 8.48822,1.2971 0.97938,-1.6217 7.50726,-20.1095 15.01579,-41.517 12.07893,-34.7063 15.34318,-40.8684 30.6867,-56.1132 27.42245,-28.2191 70.51488,-52.5468 112.62794,-64.2237 18.28163,-5.1897 24.48371,-5.1916 51.57971,-1.948 33.62515,4.2166 48.97249,10.3791 87.16805,35.3546 21.87268,14.5961 51.24973,44.1142 51.24973,51.8987 0,4.2167 1.63454,8.1077 10.44891,24.6499 19.26101,36.0037 27.4202,63.8977 23.82916,80.44 -2.61166,12.0012 -0.65226,12.0005 21.87333,-2.2712 7.83499,-5.1897 15.67157,-9.4063 17.95678,-9.7307 1.95874,-0.3244 8.81436,-4.217 14.6906,-8.4336 5.87624,-3.8923 13.05926,-7.7801 15.67092,-8.4289 2.61166,-0.6487 12.4038,-5.8403 21.21816,-11.6787 9.14082,-6.1628 37.21524,-22.7066 62.67895,-37.3027 25.13725,-14.596 47.99024,-28.5405 49.94899,-31.1354 2.2852,-2.5949 5.87657,-4.8654 8.48823,-4.8654 2.2852,0 12.73218,-7.4633 23.17883,-16.221 16.64935,-14.5961 27.42086,-28.8652 40.80563,-54.1651 1.95874,-4.2167 5.22521,-7.4596 6.8575,-7.4596 1.63229,0 1.30489,2.2705 -0.98032,4.8654 -2.61166,2.9192 -2.93557,4.8653 -0.65037,4.8653 8.48791,0 -21.87489,43.1386 -39.83007,57.4103 -7.50853,5.5141 -28.40121,19.4598 -46.68284,30.8123 -18.6081,11.0282 -52.88777,32.7592 -76.71919,47.6796 -23.83142,14.9204 -53.53842,33.0841 -66.27028,40.22 -12.4054,7.1358 -30.03412,17.195 -39.17494,22.0604 -8.81436,5.1897 -20.24133,9.4029 -25.46465,9.4029 -9.79374,0 -27.41896,10.3791 -43.74185,25.6238 -11.42603,10.3795 -13.71218,18.8134 -5.87719,21.7326 2.61166,0.9731 5.54818,4.867 6.52756,8.1105 1.95874,6.1628 2.61166,6.1644 9.79373,-1.6202 4.24395,-4.8653 10.4457,-8.4336 13.71028,-8.4336 3.26458,0 11.7515,-0.9737 18.60712,-2.2711 9.14081,-1.2974 12.08119,-0.9747 10.4489,1.6202 -1.63229,2.9192 2.94001,3.5695 16.65124,3.2451 10.77311,-0.6487 18.93233,0.6494 18.93233,2.2712 0,1.9461 -4.89781,15.2423 -10.77405,29.8383 -5.54978,14.5961 -10.4441,29.5156 -10.4441,33.0835 0,3.5679 -1.30871,7.1374 -2.941,8.1105 -4.24395,2.5949 -0.32326,-23.0284 6.53236,-42.8142 3.59103,-9.7307 6.20237,-18.4884 6.20237,-19.4614 0,-0.6487 -5.22652,-0.65 -11.42922,0.3231 -6.85562,0.973 -11.42443,0.649 -11.42443,-1.2971 0,-1.9462 -1.63134,-2.9199 -3.91654,-2.2712 -5.54979,1.9462 -15.01801,34.3844 -15.67092,52.8728 -0.32646,14.2717 -0.65197,15.2416 -3.91655,8.1057 -3.9175,-9.7307 -1.30678,-43.7879 3.91655,-49.9506 5.87624,-7.4603 -1.63389,-9.0792 -8.16305,-1.9433 -3.26458,3.5679 -4.89719,6.4855 -3.59136,6.4855 1.30583,0 0.32711,2.2705 -2.61101,4.8654 -8.16145,8.1089 -8.81502,5.5156 -2.28586,-11.3509 3.59104,-9.082 4.89847,-16.2211 3.26618,-16.2211 -5.54978,0 -15.66772,20.7592 -14.03543,27.8951 1.30583,5.514 0.3226,7.1377 -3.92135,6.8134 -4.24395,-0.6488 -6.52596,2.2682 -8.15825,9.0798 -1.95874,8.1089 -2.28807,7.1374 -2.94099,-6.4856 -0.32646,-8.7576 -1.63036,-19.1387 -2.93619,-22.7066 -2.61167,-6.4871 -2.61294,-6.4871 -4.57169,0 -0.97937,3.5679 -2.9359,18.1669 -4.24173,32.1142 -1.95874,23.0294 -1.63549,25.2977 3.26138,23.6759 2.93812,-1.2974 5.22685,-0.6478 5.22685,0.974 0,1.9461 -1.63261,3.2452 -3.59136,3.2452 -2.61166,0 -2.93779,3.8916 -1.3055,12.3249 1.30583,6.4871 2.28233,18.4855 1.95587,26.2701 -0.32646,11.6768 1.3071,15.5716 9.46855,23.6806 5.54978,5.1897 11.42762,8.4326 13.05991,7.4596 1.95875,-0.9731 3.26138,6e-4 3.26138,2.2711 0,2.2705 6.20302,10.7016 13.3851,18.8105 7.18207,8.1089 16.32638,20.7614 19.91741,28.546 3.59104,7.4602 7.83277,14.5935 9.1386,15.2422 6.52916,3.8923 6.52789,-12.6499 0.32519,-29.1921 -3.9175,-10.0551 -6.85274,-20.4323 -6.85274,-23.6759 0,-2.9192 -2.28521,-9.7295 -4.89687,-14.9192 -6.2027,-12.0012 -6.20397,-14.9213 0.32518,-5.8393 8.48791,12.3255 17.30387,42.1648 22.85365,79.4659 6.2027,39.8959 6.20299,44.7597 3.59133,69.7352 -0.97937,9.082 -0.98065,16.8672 0.32518,16.8672 1.30584,0 2.61105,4.8663 2.61105,10.7047 0.32645,5.5141 0.65259,39.8976 1.3055,76.2256 0.65292,46.0587 1.96002,65.5208 4.57168,65.5208 1.95875,0 8.48791,-4.541 14.69061,-9.7308 8.81436,-8.1089 10.4457,-11.6793 8.81341,-18.8152 -1.63229,-6.4871 -1.30489,-7.4593 0.98032,-3.8913 8.16144,12.0012 29.70639,-27.5726 29.70639,-54.1699 0,-14.9205 -8.48951,-51.8927 -13.05992,-57.0825 -1.30583,-1.6217 -5.22365,4.5401 -8.48822,13.6221 -2.93813,8.7577 -6.52851,15.5679 -7.50788,14.9192 -0.97937,-0.3244 -1.95588,8.1067 -1.95588,18.8105 0.32646,20.1101 8.81084,43.1417 14.36062,39.5738 1.63229,-0.9731 2.28968,1.2974 1.31031,4.8653 -1.30584,4.8654 -2.94227,5.5157 -7.51268,3.2452 -8.16144,-4.2167 -9.137,-4.2173 -10.76929,2.5942 -0.97937,2.9192 -0.98286,-0.649 -0.32995,-8.4336 0.65292,-8.4333 -0.65324,-17.8387 -3.59136,-23.3528 -6.85561,-12.9742 -6.1995,-30.1674 1.63549,-44.4391 3.59103,-6.8115 6.52755,-15.5679 6.52755,-19.7846 0,-4.2166 1.30743,-6.4893 3.26618,-5.5162 7.83499,4.8653 6.20332,-8.7545 -2.61104,-22.7019 -8.81436,-14.2717 -10.44694,-27.5719 -3.59133,-27.5719 1.63229,0 2.61228,0.9724 2.28582,2.5942 -1.95874,4.8654 13.70934,26.9204 17.62683,24.6499 2.61167,-1.6218 2.93652,0.6516 1.63069,7.7874 -2.2852,11.6769 -0.65131,12.6499 8.16305,4.8654 3.59103,-2.9192 5.87718,-3.5711 5.87718,-1.625 0,2.2705 -1.3087,3.8961 -2.94099,3.8961 -1.30583,0 -1.95493,3.5648 -0.97555,8.1058 1.63229,9.7307 7.17792,7.4621 7.17792,-2.9173 0,-4.2167 2.61261,-11.0304 5.87719,-15.2471 5.87624,-7.4602 11.42668,-22.38 12.07959,-31.7863 0,-7.4602 16.32544,-17.1891 28.73083,-17.5134 14.36415,-0.3244 19.25847,3.567 10.44411,8.7567 -13.71123,7.7846 -35.25744,32.7594 -44.07181,51.2478 -11.09956,23.6781 -16.97675,54.8157 -15.67092,85.3053 0.97938,20.4345 1.63389,22.7075 8.16305,23.6806 12.73185,1.9461 15.66965,8.7545 11.09924,27.5672 -7.50853,32.1113 -8.81534,42.8196 -5.87722,54.8208 2.2852,9.082 1.30553,16.5391 -3.59133,32.4326 -3.9175,11.3525 -9.79279,37.6254 -13.71028,58.3842 -3.59104,21.0833 -8.81404,44.7604 -11.09924,52.5449 -4.57041,14.2718 -26.11761,40.5488 -30.36156,36.6565 -0.97937,-1.2974 -0.32326,-2.2711 1.63549,-2.2711 1.95875,0 2.93525,-2.5971 1.95587,-5.5163 -1.63228,-4.8654 -1.30743,-5.1907 1.63069,-0.974 2.93812,4.2166 3.59137,4.2192 3.59137,-0.6462 0,-2.9192 2.93779,-10.3826 6.20237,-16.221 5.54978,-9.082 11.10116,-30.1614 17.95678,-69.0843 0.97937,-5.1897 2.61199,-13.9474 3.59136,-19.4614 3.59104,-19.1371 8.81469,-35.6822 13.3851,-41.845 6.20269,-8.7576 5.87398,-21.081 -0.65517,-23.6758 -2.93812,-0.9731 -9.13824,1.9442 -15.34094,7.7827 -24.48434,22.705 -54.84716,41.5199 -118.17998,73.6312 -25.13725,12.65 -55.82428,25.9486 -68.55614,29.1922 -12.40539,3.2436 -30.03411,8.1099 -39.17493,10.7047 -23.83142,6.8115 -49.29513,8.1055 -73.45301,4.5376 -23.1785,-3.8923 -45.04958,-6.1612 -60.39309,-6.4856 -7.18208,-0.3244 -8.48663,-1.299 -5.22206,-3.2452 3.59104,-2.2705 1.62942,-4.2135 -7.83786,-8.1057 -15.66997,-6.4872 -17.9555,-6.4897 -18.28196,0.6461 0,3.2436 -0.9765,3.8907 -1.95587,1.6202 -0.65292,-2.2705 -2.9394,-4.2144 -4.57169,-4.2144 -1.63228,0 -15.01705,-7.1342 -29.3812,-16.2162 -14.36413,-8.7577 -27.42372,-16.2211 -29.05601,-16.2211 -1.30583,0 -10.44537,-5.1881 -19.91265,-11.3509 -9.46727,-6.4871 -18.93296,-11.0269 -21.21816,-10.0538 -2.28521,0.9731 -10.12179,-4.2198 -17.95678,-11.3557 -7.50852,-6.8115 -15.34415,-12.648 -16.97644,-12.648 -4.24395,0 0.32805,26.9207 8.16304,47.6796 3.59103,9.4063 7.83626,16.5431 9.46855,15.5701 1.63229,-1.2975 1.95492,0.3259 0.97555,3.2451 -1.30583,2.9192 0.65323,8.1074 3.59135,11.3509 3.26458,3.568 6.5333,13.6246 7.51268,22.7066 0.65291,9.082 2.60943,17.1912 4.24172,18.1643 1.63229,0.9731 0.97841,4.2148 -0.98033,7.7827 -2.93812,4.541 -2.60975,8.7599 1.96066,20.1124 7.50853,17.8396 20.24134,44.4347 25.46466,52.868 8.16145,12.9743 35.25743,36.3283 48.96866,42.4911 7.83499,3.2436 14.68678,6.8096 15.66616,7.7826 2.2852,2.9193 22.20265,10.3795 24.81431,9.7308 1.30584,-0.3244 3.26233,0.6493 4.2417,2.2711 2.28521,3.2436 40.80883,21.7329 52.23485,25.3008 8.4879,2.5949 37.54298,7.4602 57.4569,9.7307 7.50853,0.9731 21.87267,-0.9743 34.27807,-4.5422 11.75248,-3.568 32.31772,-9.4067 45.70249,-13.299 37.54265,-10.7038 75.73887,-26.2691 85.5326,-35.0268 4.57041,-4.2166 10.44473,-12.3259 12.72993,-18.1643 2.2852,-5.5141 6.85561,-12.0025 9.79373,-14.273 7.18208,-4.8654 19.58842,-22.0578 20.56779,-27.5719 0.32646,-2.2705 3.9191,-7.4574 8.16305,-11.674 5.54978,-5.5141 6.52948,-8.1124 3.59136,-10.0586 -2.61166,-1.6218 -1.63422,-2.917 2.93619,-4.2144 6.52916,-1.6218 6.52883,-1.2984 1.30551,8.7567 -7.50853,14.2717 -16.97581,27.5722 -29.3812,40.8709 -10.1202,11.0281 -17.30161,25.2976 -17.30161,33.4065 0.32645,2.2705 6.85783,-3.2429 15.34573,-12.3249 8.16145,-8.7576 13.05802,-12.9721 11.09927,-9.0798 -4.89686,9.7307 -26.77179,30.4874 -30.03637,28.5412 -1.30583,-0.973 -3.59103,0 -4.89686,1.9481 -3.26458,5.514 -37.54393,20.1073 -73.12783,31.1354 -54.47764,17.2315 -74.52418,23.5682 -94.33164,23.3623 z m 209.25978,-94.1713 c -0.505,0.02 -0.6647,-0.5473 -0.6647,-1.5204 0,-0.9731 6.52563,-10.0573 14.36061,-20.1124 7.50853,-10.055 16.64935,-23.355 19.58747,-28.869 6.85561,-13.2987 8.81789,-13.6227 5.22685,-1.2971 -1.30583,5.1897 -10.45017,19.1402 -19.91745,30.8171 -12.48701,15.5691 -17.07782,20.921 -18.59278,20.9818 z M 507.3244,3890.8728 c 8.16145,0 17.62713,-0.9724 21.21816,-2.5942 5.54979,-2.2705 5.22653,-2.9195 -3.26138,-3.5682 -5.87624,-0.3244 -1.961,-1.6247 9.13857,-2.9221 10.44665,-1.2974 22.20233,-3.8885 26.11982,-5.8346 3.9175,-1.9462 16.6484,-4.866 28.40089,-7.1365 37.21619,-6.4872 128.94796,-56.4414 163.55248,-89.2014 22.85205,-21.732 29.05602,-29.8396 29.05602,-39.246 0,-3.5679 2.28393,-11.3518 5.22205,-17.1903 5.87624,-12.0012 2.28648,-20.4364 -5.22205,-11.6787 -2.2852,2.5948 -5.54913,4.8653 -7.50788,4.8653 -1.63229,0 0.65034,-2.9163 5.54721,-6.8086 4.57041,-3.568 8.48823,-8.7608 8.48823,-11.3557 0,-9.4064 -13.05606,-3.891 -33.6229,14.273 -11.42603,10.0551 -30.36123,25.9508 -41.4608,34.7084 -11.09956,9.082 -21.54654,19.7823 -23.17883,23.999 -1.95875,4.541 -4.89494,6.8137 -7.83306,5.5163 -2.61166,-0.9731 -5.55171,-0.326 -6.85754,1.6202 -0.97937,1.6218 -4.24457,2.9185 -7.18269,2.5942 -11.75248,-1.2975 -48.31226,12.9739 -53.53559,20.7585 -1.30583,1.9462 -7.51235,3.5695 -13.71505,3.2452 -6.52915,0 -10.77183,0.9724 -10.11892,2.5942 2.93813,4.2167 -8.4879,8.4346 -39.17493,14.273 -50.92742,9.4064 -96.63056,6.1647 -175.3069,-12.6481 -39.17493,-9.4063 -60.39564,-17.8402 -69.53645,-26.5979 -3.26458,-3.5679 -24.15725,-18.1643 -46.68283,-32.7604 -32.31933,-20.7588 -42.11338,-25.9498 -47.66316,-24.0037 -11.09957,4.2167 -9.79405,13.3 6.20238,38.5998 8.16144,13.2987 14.6906,25.2993 14.6906,26.921 0,1.6218 2.28393,2.9173 5.22205,2.9173 2.93812,0 10.44856,4.541 16.65126,9.7308 5.87624,5.514 13.38318,9.7307 16.3213,9.7307 2.93812,0 12.08117,4.2179 20.24261,9.4076 28.72829,17.5153 71.49233,38.9213 91.0798,45.4084 29.3812,9.4064 73.77852,16.8707 101.85389,17.1951 16.64935,0 21.87587,0.9724 16.32609,2.5942 -6.52916,2.2705 -5.55138,2.5942 6.52755,2.5942 z m -22.72929,-75.5746 c 23.54577,0.4866 45.09293,-2.272 71.37278,-8.1105 45.05118,-10.055 119.15805,-36.6514 133.19573,-47.6795 10.12019,-8.109 14.68711,-41.5187 14.36065,-108.0119 -0.97937,-119.0391 -15.99676,-167.3671 -67.25063,-214.3989 -51.58034,-47.3561 -101.52456,-70.0602 -147.88157,-67.1409 -21.87267,1.6217 -28.40339,3.5676 -62.02855,20.7585 -51.25387,25.9486 -68.88132,43.4626 -93.36566,92.7649 -30.68704,61.6278 -47.66317,142.7149 -47.66317,228.0209 0,20.1101 1.30392,40.2225 2.93621,44.4391 6.52916,16.5422 47.98802,34.3797 112.95312,48.0027 34.27807,7.1358 59.82532,10.8691 83.37109,11.3556 z m 134.62078,-38.5617 c -15.50674,-0.041 -31.74387,-1.6598 -42.68021,-4.9034 -19.58747,-5.8384 -36.5639,-17.1909 -36.5639,-24.3268 0,-2.2705 0.97873,-2.5936 2.61101,-0.3231 4.89687,6.4872 25.13791,13.6227 31.66706,11.0279 9.14082,-3.568 27.09248,-3.568 29.05122,0 0.97938,1.6217 8.81851,3.891 17.30641,5.1884 8.81436,1.2974 17.62618,3.8932 20.23784,5.8394 2.61166,2.2705 3.92037,2.2679 2.94099,0.6462 -1.30583,-2.2705 1.95875,-2.9199 9.79374,-2.2712 11.42602,1.6218 11.75153,1.6231 3.91654,4.5423 -7.99821,3.0814 -22.77395,4.6208 -38.2807,4.5803 z M 379.9724,3761.4134 c -16.04276,0.1625 -30.81745,-1.2356 -36.53047,-4.4995 -5.22332,-2.9192 -9.13856,-6.4874 -9.13856,-8.4336 0,-1.9461 -1.30743,-2.2701 -3.26618,-1.2971 -1.63229,0.9731 -3.26617,0.3212 -3.26617,-1.6249 0,-1.9462 -1.30265,-2.5933 -3.26139,-1.6202 -1.63229,0.973 -3.26617,0.3259 -3.26617,-1.6202 0,-1.9462 3.26394,-2.5968 7.50787,-1.9481 9.79374,2.2705 57.45563,6.1637 67.57582,5.8394 4.57041,0 16.6535,-0.975 27.10015,-1.948 10.12019,-0.9731 18.60714,-0.6465 18.60714,0.6509 0,1.2974 -4.57266,5.1888 -10.4489,8.7567 -8.26346,4.7437 -30.98679,7.5358 -51.61314,7.7446 z m -56.92131,-7.8967 c -1.77974,0.077 -5.51886,-1.4494 -10.94622,-4.7133 -5.87624,-3.5679 -10.44888,-8.1076 -10.44888,-10.0538 0,-2.5948 1.30838,-2.9192 4.2465,0 2.61166,1.9462 5.22301,2.9164 6.20238,1.9433 0.97937,-0.9731 4.24331,1.2974 7.50789,4.8654 4.77445,5.1086 5.72656,7.8594 3.43833,7.9584 z m 285.13729,-35.003 c -3.70324,-0.076 -7.49544,-0.9312 -9.45419,-2.1476 -3.59104,-2.5948 -2.2852,-2.9176 4.89687,-1.6202 l 9.79373,1.9481 -11.09924,-5.1932 c -13.05831,-5.8385 -14.36734,-6.1625 -11.42922,-1.2971 1.30583,2.5948 0,2.5948 -4.89687,0 -8.16144,-4.541 -9.137,-7.4568 -0.97555,-4.5376 2.93812,1.2975 -0.65452,-3.5688 -8.16305,-10.7047 -13.38477,-12.6499 -17.62966,-20.7585 -10.77405,-20.7585 1.95875,0 3.26618,1.9426 3.26618,4.5375 0,4.541 11.74961,14.9239 16.64647,14.9239 0.97938,0 1.30805,-3.5708 0.65514,-7.7874 -1.30583,-5.5141 0.32773,-8.7573 4.57168,-11.0278 8.16145,-4.541 24.8089,-0.9719 22.5237,4.5422 -2.28521,6.1628 2.93939,5.8362 9.46855,-0.6509 8.4879,-8.4333 15.34126,-3.2426 14.03543,10.7047 -0.65292,9.082 -2.28615,12.0044 -5.87719,11.3557 -3.59104,-0.9731 -3.91717,-0.325 -1.3055,2.5942 2.93812,2.9192 7.18141,1.9433 17.30161,-2.9221 14.6906,-7.7845 16.979,-14.2704 6.53235,-19.7845 -9.79373,-5.514 -5.87656,-7.134 6.20237,-2.9173 5.87624,1.9461 9.46761,4.8625 8.48823,6.8087 -1.30583,2.2705 1.63037,2.5958 7.83306,0.974 5.87625,-0.9731 13.05897,-0.326 16.97646,1.6202 6.52916,3.5679 6.52723,4.2166 -6.85754,14.5961 -7.83498,6.1627 -16.97548,11.6797 -20.89297,12.6527 -6.2027,1.2975 -6.20015,1.2968 -0.65037,-2.2711 29.3812,-18.8127 30.36028,-24.978 1.30554,-9.0845 -9.14082,5.1897 -23.50562,10.3813 -31.66706,11.6787 -8.16145,0.9731 -18.28324,2.5952 -22.85365,3.5683 -1.1426,0.1622 -2.36649,0.2249 -3.60092,0.1995 z m -237.97625,-3.1169 c -8.16145,0 -17.62712,-0.3288 -21.21816,-1.3018 -9.14082,-2.2705 -40.48109,-17.515 -42.7663,-20.7586 -2.61166,-4.541 -0.003,-3.5679 15.34097,4.8654 23.17851,12.6499 32.319,13.3009 11.09924,0.6509 -11.75247,-6.8115 -24.15628,-11.6787 -31.01189,-11.6787 l -11.42443,-0.3231 8.15826,-4.5423 c 4.57041,-2.5948 12.73568,-4.541 18.61192,-4.8653 8.81436,0 10.12051,-0.9706 8.48822,-5.5116 -1.95875,-5.1897 -1.63548,-5.1894 3.26137,-1.2971 5.22333,3.8923 5.55139,3.8891 3.26618,-1.6249 -1.95875,-5.1898 -1.63418,-5.5113 2.93623,-1.9433 4.57041,3.5679 5.87653,3.2439 8.48819,-1.2971 1.63229,-3.2436 3.9175,-3.8942 4.89687,-1.9481 1.30583,1.6218 -2.93714,6.4881 -8.81338,10.7048 -6.2027,4.2166 -10.44665,8.7563 -9.79373,10.0538 2.2852,3.2435 23.17977,13.9467 33.95288,17.1903 l 8.15825,2.2711 -7.17793,-7.7827 c -15.01706,-15.8935 -6.20364,-32.1145 13.71028,-25.9517 6.2027,1.6217 11.42443,2.2714 11.42443,0.974 0,-1.2974 3.26392,-2.2689 7.50787,-1.6202 3.9175,0.3244 8.16145,0.974 9.79374,0.974 1.30583,0.3244 2.28585,1.9465 2.28585,3.5683 0,1.9461 -1.9578,2.9185 -3.91654,2.5942 -2.28521,-0.6487 -3.91652,1.623 -3.91652,4.5422 0.32646,3.2436 -1.30968,4.5366 -3.92134,3.5635 -2.61167,-0.973 -4.56689,-0.3212 -4.56689,1.625 0,1.6218 -3.59263,4.2154 -8.16304,5.1884 -4.57041,1.2975 -7.50693,3.5702 -6.52756,5.5163 1.30583,1.6218 5.22107,2.2702 9.13857,1.2972 12.07894,-3.2436 21.87492,-9.084 20.24263,-11.6788 -0.97937,-1.2974 2.60847,-3.2449 8.15825,-4.5423 5.22332,-1.2974 11.10116,-4.5403 13.05991,-7.4595 2.61166,-4.541 2.93972,-4.8629 3.26618,-0.6462 0,2.9192 -8.16177,12.9711 -18.28196,22.7018 -10.1202,9.7307 -17.30194,15.8938 -15.99611,13.299 1.95875,-3.568 1.30296,-4.2161 -2.94099,-2.5943 -3.26458,1.2974 -14.0342,2.5977 -24.15439,2.9221 l -18.61191,0.3231 16.32609,2.2711 16.32129,2.2711 z m 242.23234,-12.3296 c 1.30583,0 3.26233,-0.9712 4.2417,-2.9173 1.95875,-2.9193 -3.26363,-4.5388 -13.71028,-4.2145 -2.28521,0.3244 -3.59038,-0.9737 -2.61101,-2.2711 0.97937,-1.2974 -0.65452,-4.2198 -3.26618,-6.4903 -3.91749,-3.2436 -4.89687,-3.2401 -4.89687,0.3278 0,8.7576 5.55204,12.9705 20.24264,15.5654 z m -373.75913,-2.447 c -1.46675,0.25 -2.48223,-3.4288 -3.62483,-10.5242 -2.28521,-14.596 2.61166,-35.3571 9.79373,-39.5737 5.87624,-3.2436 8.81309,-21.7326 5.22205,-31.4633 -2.2852,-5.5141 -1.96129,-9.407 0.65037,-12.0019 8.16144,-8.7576 11.75439,-13.9467 11.75439,-17.1903 0,-1.6218 -1.95779,-3.2404 -3.91654,-3.2404 -3.26457,0 -3.2633,-0.6481 -0.32518,-2.5942 2.28521,-1.2974 5.54915,-10.0551 7.50789,-19.4614 4.57041,-20.1102 10.1186,-23.0323 6.52757,-2.9221 -9.14082,47.0318 -11.09989,54.166 -13.38509,50.2738 -3.59104,-5.5141 -6.85339,-1.6183 -4.24172,5.1932 0.97937,2.9192 3.58848,4.2147 5.54723,2.9173 3.91749,-2.2705 0.32614,35.0296 -3.59136,37.9488 -1.30583,0.9731 -5.22236,10.3826 -8.8134,21.0864 -4.59081,14.4136 -7.21929,21.2306 -9.10511,21.552 z m -23.54226,-14.0924 c 0.65291,-0.6487 0.329,-22.0566 -0.65037,-47.3565 -0.97937,-25.2998 -2.93939,-46.0593 -4.57168,-46.0593 -1.30583,0 -5.55106,6.8102 -9.46855,14.9191 -5.87624,11.6769 -6.85307,18.1637 -5.54724,30.4893 1.63229,14.2717 17.29972,50.9266 20.23784,48.0074 z m 547.12927,-21.6613 c -1.515,0.091 -1.69576,-2.827 -0.96123,-10.1251 0.65292,-6.8115 -0.3306,-15.246 -2.61581,-19.1383 -2.93812,-5.5141 -2.61071,-8.1108 0.98032,-11.6788 4.24396,-3.8923 4.8988,-3.2413 6.85754,5.5163 3.26458,15.8935 2.28459,30.8127 -2.28582,34.3806 -0.81614,0.6487 -1.47004,1.0149 -1.975,1.0453 z m -138.72864,-3.6395 c -17.30226,0 -31.34188,-0.6471 -31.34188,-1.6202 0,-0.6487 5.55393,-4.2195 12.40955,-7.7874 11.09956,-5.5141 14.36159,-5.8378 30.03157,-2.5943 9.46727,2.2705 17.95772,5.84 18.9371,8.1105 0.97937,2.9193 -6.53138,3.8914 -30.03634,3.8914 z m -289.93374,-4.9889 c -1.18341,0.041 -1.59501,-0.3627 -0.94209,-1.1736 0.97937,-1.6218 6.2059,-3.891 11.42922,-5.1884 5.54979,-1.2974 9.13762,-3.2436 8.15825,-4.8654 -2.93812,-4.8653 8.4895,-6.489 13.05991,-1.948 3.59104,3.5679 7.83753,3.8919 18.9371,1.2971 10.77311,-2.2705 16.31842,-1.6199 23.17403,1.948 8.4879,4.2167 7.51268,4.5382 -21.86853,6.8087 -17.30226,1.2974 -32.64578,1.3009 -34.27807,0.3278 -1.95874,-0.9731 -7.18269,-0.649 -12.07955,1.2971 -2.44844,0.9731 -4.40686,1.4561 -5.59027,1.4967 z m 148.90491,-46.9098 c -3.59103,0 -4.572,-1.6193 -3.26617,-5.5116 1.30583,-2.9192 0.32933,-6.49 -1.95588,-7.7874 -2.2852,-1.2974 -2.94132,-3.5679 -1.63549,-4.8654 2.61167,-2.9192 11.75314,8.1102 12.0796,14.273 0,1.9462 -2.28393,3.8914 -5.22206,3.8914 z m 248.10474,-8.1058 -2.28106,-15.8932 c -1.30583,-8.7577 -2.2871,-20.4377 -1.96064,-25.9517 0.32646,-9.4064 0.65291,-9.4074 4.89687,3.8913 2.61166,9.4063 3.59292,18.4915 1.96064,25.9517 z m -252.90118,-37.3454 c -4.85335,-0.055 -10.75111,-1.721 -14.79102,-4.8226 -5.22333,-3.8923 -5.22427,-4.541 -0.98032,-4.8654 10.7731,0 25.78791,4.2185 23.82916,6.8134 -1.1426,1.9867 -4.28299,2.9172 -8.05782,2.8746 z m 58.67155,-0.8838 c -9.48504,0 -21.25068,-1.2439 -25.47422,-3.6157 -4.24395,-2.2705 -6.53043,-5.1894 -4.57169,-6.1625 1.63229,-0.9731 4.89622,-0.649 7.50788,1.2971 6.52916,3.8923 27.096,3.8936 24.48434,-0.3231 -0.97938,-1.6218 -0.65067,-3.2451 0.65516,-3.2451 3.26458,0 10.77406,6.8115 10.77406,9.7307 0,1.5609 -5.99827,2.3175 -13.37553,2.3186 z m 168.1146,-3.9388 2.61104,-10.3817 c 1.63229,-5.8384 1.30838,-13.622 -0.65036,-18.4874 -4.24396,-11.3525 -11.0999,-11.0281 -8.48823,0 1.30583,4.8654 3.26235,12.9768 4.24173,18.8153 z m 90.75465,-1.6202 c 0.65292,0 7.18462,-6.8138 14.04023,-15.247 8.81436,-10.3795 10.44411,-13.9483 5.54724,-10.7048 -6.52916,4.2167 -22.85205,25.9518 -19.58747,25.9518 z m -303.42882,-6.5284 c -1.55919,0.04 -2.77681,-2.4032 -1.80763,-6.4475 1.95875,-7.4602 1.95777,-7.4583 18.60712,-2.9173 8.16144,2.2705 11.4273,4.5394 9.46855,6.4856 -2.28521,2.2705 -6.5285,1.6208 -12.40474,-0.9741 -7.18208,-3.2436 -9.46823,-3.2436 -10.77406,0 -0.79574,2.6354 -2.02244,3.8259 -3.08924,3.8533 z m 292.50172,-16.278 c -1.04251,-0.1577 -1.8832,-1.3589 -2.12804,-3.7916 -2.93812,-37.9497 3.91527,-124.5556 9.13859,-116.1224 1.30584,1.9462 1.63324,7.4596 0.98032,12.325 -1.30583,6.4871 0.65103,4.866 7.8331,-7.4596 16.64935,-29.5165 31.66801,-49.3016 42.44111,-56.1131 16.64935,-11.0282 15.66838,-8.4346 -3.26617,10.0537 -29.70767,28.8678 -44.39765,64.5478 -46.68285,114.1744 -0.97937,17.8397 -2.2868,35.6802 -3.26618,39.8969 -1.02018,4.6626 -3.31237,7.2996 -5.04988,7.0367 z m -48.9878,-15.9549 c -1.19617,0.2261 -2.51793,-16.3421 -3.08923,-45.5748 -1.30584,-52.5458 -1.63291,-53.8429 -12.07956,-74.2774 l -10.44891,-21.0817 4.57169,-27.895 c 2.61166,-15.5691 7.5082,-33.7351 11.09924,-40.8709 3.59103,-6.8115 6.53108,-13.9471 6.85754,-15.8932 0.65291,-3.5679 16.9758,-8.7573 19.58746,-6.1625 0.97938,0.9731 -1.30583,4.2173 -4.89686,7.1365 -9.46728,7.7846 -15.99931,25.9483 -22.52846,64.5468 -3.9175,24.9755 -4.56881,34.7084 -1.63069,39.5738 1.95874,3.8923 4.89526,6.8086 6.52755,6.8086 1.95875,0 3.26618,4.2179 3.26618,9.4077 0,5.514 1.30743,10.3813 3.26618,11.6787 3.59103,2.2705 3.91749,78.8178 0,91.4678 -0.16323,0.7298 -0.33126,1.1032 -0.50213,1.1356 z m -454.95912,-15.7697 c -0.64526,0.1298 -0.51997,-3.1029 0.37779,-10.0158 1.30583,-8.7576 0.32582,-16.8707 -2.28584,-22.0604 -3.26458,-5.8384 -3.26203,-8.432 -0.65037,-10.0538 2.28521,-1.2974 4.89655,-9.0826 6.20238,-16.8672 1.30583,-8.1089 4.89719,-19.7842 8.48822,-25.947 3.26458,-6.1628 5.21982,-8.4333 4.56691,-4.8653 -0.97938,3.5679 -3.91463,15.2431 -6.85275,25.9469 -2.61166,10.3795 -4.90038,27.2476 -5.22683,37.3027 0,9.7307 -1.6291,20.7589 -3.26139,24.3268 -0.61211,1.4191 -1.06482,2.1741 -1.35812,2.2331 z m 236.37427,-0.9502 c -13.54793,-0.02 -29.06176,-1.6089 -40.44698,-4.5281 -29.3812,-7.4602 -52.5613,-16.8631 -47.33798,-19.1336 2.93812,-1.2974 14.36255,1.6203 26.11503,6.4856 28.40183,11.3525 62.03018,13.947 89.77909,6.1625 20.24039,-5.1897 33.29742,-4.8644 29.70639,0.974 -0.97937,1.6218 -6.52726,2.916 -12.72996,3.2404 -6.2027,0.3243 -15.02055,1.9499 -19.91742,3.8961 -5.28454,1.9867 -14.63089,2.9186 -25.16817,2.9031 z m 190.94432,-42.2916 c -0.68859,0.061 -1.23854,-1.1565 -1.23854,-3.1026 0,-8.7577 -17.30387,-48.9776 -27.75052,-64.5468 -7.50853,-11.3525 -9.46567,-16.2207 -6.52755,-17.5181 10.12019,-3.8923 26.44308,26.5995 34.27807,63.9006 1.95874,10.3794 2.93524,19.7854 1.95587,20.7585 -0.24484,0.3243 -0.48776,0.4881 -0.71733,0.5084 z m -489.75364,-4.2667 c -0.42346,-0.024 -0.96981,-1.7345 -1.82676,-4.9984 -1.30583,-4.541 -3.91718,-16.8694 -6.20238,-27.2488 -4.89687,-26.273 -17.62872,-58.385 -29.3812,-75.2516 -9.79374,-14.2717 -10.44634,-20.7588 -1.30552,-19.4614 7.50853,0.9731 24.48625,18.49 31.34186,32.4373 6.85562,14.2717 7.83435,19.139 2.61103,11.6788 -2.93812,-3.8923 -3.26777,-3.2442 -1.63548,2.5942 6.2027,23.0294 6.20621,22.3797 0.32997,13.6221 -3.9175,-5.8385 -4.89847,-6.4856 -3.26618,-1.6202 6.2027,19.7858 11.75344,49.3019 10.77407,59.6814 -0.5509,5.8384 -0.89497,8.5972 -1.43941,8.5666 z m 84.19359,-23.9324 c -0.10712,-0.031 -0.16259,-0.2031 -0.16259,-0.5274 -0.65291,-21.4076 21.54908,-68.115 32.3222,-68.115 5.87624,0 5.22332,1.9458 -4.89687,15.8932 -6.2027,8.4332 -15.01834,24.9761 -19.26229,36.3286 -3.99911,9.9334 -7.25061,16.6379 -8.00045,16.4206 z m 314.87239,-20.9629 c 0.32646,-0.3243 -0.65484,-8.4348 -1.96067,-17.8412 -0.97937,-9.4064 -1.95715,-35.6793 -1.63069,-58.3843 0.32646,-33.7331 1.95682,-44.4366 7.83306,-59.6814 7.83499,-20.4345 26.77209,-39.8956 48.3183,-49.9507 12.73186,-5.8384 13.38477,-6.8096 14.6906,-22.3787 0.97938,-12.0013 -1.63356,-24.3294 -9.46854,-48.0074 -14.03769,-41.5178 -20.24199,-52.8712 -37.54425,-69.0891 -38.84848,-36.6523 -74.10527,-55.7897 -115.23895,-61.9525 -25.79017,-3.8923 -31.34155,-3.567 -47.33799,0.974 -32.31932,9.4064 -85.52841,38.5995 -107.40109,59.3583 -10.7731,10.3795 -19.91745,20.1108 -19.91745,21.7326 0,1.6218 -3.58911,12.3268 -7.83306,24.0037 -4.24395,11.6769 -9.79566,29.8393 -11.7544,40.5431 -1.95875,10.7037 -4.89655,24.653 -6.20238,31.1401 -2.61166,11.3526 -2.28265,11.9994 9.14337,17.5134 25.4637,12.0013 43.41696,28.2172 51.90486,46.7056 8.16145,17.5153 8.48696,20.7614 8.81341,77.1995 0,51.8971 0.65292,58.384 4.89687,54.8161 5.22333,-4.2167 46.0315,-21.7335 64.63959,-27.572 44.72472,-13.9473 95.98052,-1.9436 143.96982,33.4113 6.2027,4.541 11.42668,8.1083 12.07959,7.4596 z m 184.81847,-5.1742 c -1.40187,-0.029 1.03419,-6.3192 7.13487,-18.1785 10.44665,-20.1102 16.65095,-37.9524 8.16304,-23.6806 -4.24395,7.4602 -12.73025,3.8922 -11.42442,-4.8654 0.97937,-6.8115 9.46728,-10.0519 34.27807,-12.9711 8.4879,-1.2975 6.85499,5.8368 -2.28582,11.3509 -4.89687,2.9192 -13.38383,13.6208 -18.60715,23.6758 -5.54979,10.0551 -12.40635,20.7614 -15.67092,23.6806 -0.73453,0.669 -1.26418,0.995 -1.58767,0.9883 z m -491.03526,-26.2891 c -0.65292,0 -5.22683,-15.8944 -10.1237,-35.0315 -11.75248,-44.1125 -12.72962,-56.7625 -4.24172,-58.3843 3.91749,-0.973 8.815,1.6215 12.07958,6.1625 8.16144,10.7038 7.83307,13.2996 -1.96066,10.7047 -4.57041,-0.973 -8.16304,-1.2949 -8.16304,-0.6462 0,1.6218 5.55361,19.4593 8.81818,28.5413 1.95875,5.1897 5.22365,48.6535 3.59136,48.6535 z m -10.22891,-4.1906 c -1.20171,-0.051 -6.25913,-10.516 -11.31922,-24.0275 -8.4879,-20.7588 -10.44601,-24.004 -12.40476,-17.8412 -2.93812,10.0551 -5.8756,9.0807 -12.40476,-4.5423 -8.81436,-18.8127 0.32455,-40.22 17.62681,-40.22 2.61166,0 3.2e-4,2.9212 -6.20238,6.8135 -7.50853,4.541 -9.79437,7.4579 -7.18271,9.0797 2.28521,1.2975 2.93653,5.1935 1.6307,8.7615 -1.95875,4.8653 -0.65069,4.5391 5.55201,-1.9481 l 7.83308,-8.1105 1.63547,16.5441 c 0.97937,9.0821 3.26331,18.8112 5.22205,21.0817 4.24395,5.514 12.07767,32.1148 10.11892,34.3853 -0.0306,0.02 -0.0664,0.025 -0.10521,0.024 z m 437.51405,-1.587 c -1.23953,-0.1216 -2.15867,-3.7117 -2.8932,-10.7665 -1.95875,-20.1101 5.2227,-39.2475 22.19851,-57.0872 15.01706,-16.5422 18.93743,-14.9175 7.83786,2.9221 -3.59104,5.8384 -6.53236,13.2958 -6.53236,16.5394 0,2.9192 -3.58783,11.3563 -8.15824,18.4921 -4.57041,7.1359 -8.16305,15.5682 -8.16305,18.4874 0,3.2436 -1.3039,7.7821 -2.93619,10.3769 -0.48969,0.7298 -0.94017,1.0764 -1.35333,1.0358 z m 55.07539,-1.145 c -1.30048,0.018 -3.55023,-3.7194 -7.03925,-11.5648 -2.93812,-6.8115 -5.22205,-17.8396 -5.22205,-24.3268 -0.32646,-11.3525 -0.98225,-12.0034 -7.83786,-10.3816 -4.24395,0.9731 -7.83306,0.6512 -7.83306,-0.6462 0.32646,-3.5679 9.14017,-14.2726 17.30161,-20.4354 5.54978,-4.2167 5.87529,-3.8933 3.91655,3.8913 -1.63229,5.5141 -0.32486,12.974 3.26618,20.7586 3.26457,6.1627 5.54723,15.5713 5.54723,20.1123 -0.32646,4.541 -0.32391,11.6765 -0.65037,15.8932 0,4.3991 -0.43748,6.685 -1.44898,6.6994 z M 235.01747,3361.214 c -1.44124,-0.1431 -4.67179,-4.9053 -8.12,-12.0209 -10.44665,-20.7588 -17.62713,-26.9203 -11.42443,-10.0537 7.50853,21.4075 4.89559,26.5998 -4.57168,9.0845 -4.57041,-8.7576 -8.48695,-17.5153 -8.81341,-19.4614 0,-1.6218 -1.63133,-3.2452 -3.91654,-3.2452 -2.2852,0 -5.8791,-1.9452 -7.83785,-3.8913 -3.26458,-3.2436 -2.93621,-4.2192 1.96066,-4.2192 3.26457,0 8.815,-2.2692 12.07958,-5.1885 4.24395,-4.2166 6.85433,-4.5429 10.11891,-1.948 2.28521,1.9461 7.18303,2.9211 10.77406,1.948 4.24396,-0.973 8.81182,1.9449 15.34097,10.0539 9.46728,11.6768 15.99898,33.7331 9.14337,29.1921 -1.95875,-0.9731 -3.59136,6e-4 -3.59136,2.2711 -0.32645,2.2705 -3.26776,-1.6221 -6.53234,-8.4336 -6.85561,-13.623 -15.6687,-24.6498 -19.91265,-24.6498 -1.30583,0 1.95811,8.1105 7.50789,17.8412 5.22333,9.7307 9.14114,19.7851 8.48823,22.0556 -0.12243,0.4866 -0.36082,0.6982 -0.69341,0.6652 z m 107.44414,-0.6652 8.16305,-9.4076 c 4.57041,-5.1897 8.16177,-9.7282 8.48823,-10.3769 0.32646,-0.3244 2.93907,-3e-4 5.87719,1.2971 5.22332,1.9462 4.89464,2.5911 -0.65514,5.8346 -3.59104,1.9462 -9.79151,5.5157 -14.03547,8.1106 z m -84.62876,-23.2007 c -1.20573,-0.1014 -3.50049,-2.5134 -5.7959,-6.3145 -3.26458,-4.8654 -8.16463,-12.3275 -11.42921,-16.5441 -5.54978,-7.7846 -5.54659,-7.7836 1.63548,-3.8914 7.50853,3.8923 18.28004,21.0804 16.32129,26.2701 -0.14282,0.3548 -0.39405,0.5083 -0.73166,0.4799 z m 426.69217,-5.0174 c -0.51336,0.073 -0.58822,-1.8673 -0.58822,-5.5163 -0.32645,-4.8653 1.96002,-13.623 4.57169,-19.4614 4.24395,-10.0551 4.57168,-10.3775 4.57168,-2.9173 0,4.541 -2.28648,13.2986 -4.57168,19.4614 -2.25459,5.6864 -3.40173,8.3513 -3.98347,8.4336 z m -18.12416,-190.3809 c -0.0204,0.026 -0.05,0.022 -0.0909,-0.019 -0.32646,0 -10.12212,-5.1881 -21.54814,-11.3509 -11.42603,-6.1628 -25.79082,-15.5688 -31.66706,-20.7585 -5.87624,-4.8654 -13.70708,-10.0548 -16.97166,-11.0279 -3.59104,-1.2974 -7.50883,-4.5416 -8.4882,-7.1365 -1.63229,-4.2166 -0.65262,-4.5438 3.59133,-2.922 3.26458,1.2974 13.71155,3.5714 23.17883,5.1932 19.91393,2.9192 34.60326,12.6496 24.80952,15.8932 -4.57041,1.6218 -2.93685,4.2169 9.46855,13.2989 8.16145,6.1628 15.6671,12.9718 16.64648,15.2423 0.85695,1.7029 1.21403,3.4054 1.0712,3.5872 z m -310.55415,-4.9746 c -0.77661,-0.096 -0.30511,-1.3887 0.98032,-3.8011 1.95875,-3.5679 10.12179,-10.3781 17.95678,-14.9191 20.24038,-11.6769 20.89268,-14.2746 2.61104,-12.6528 -10.44665,1.2974 -14.36479,0.6503 -12.07959,-1.6202 1.95875,-1.6218 13.38572,-3.8923 25.46466,-4.8654 12.40539,-0.973 24.48498,-3.5701 26.77019,-5.5163 2.61166,-2.2705 6.20077,-2.9163 7.83306,-1.9433 1.63229,1.2975 3.91622,0.6491 5.22205,-1.2971 0.97937,-1.6217 6.5333,-2.922 12.40954,-2.922 5.87624,0 15.34192,-1.2943 21.21816,-3.2404 6.2027,-1.9462 10.4441,-1.9462 10.4441,0 0,1.6218 -1.9578,2.9173 -3.91654,2.9173 -3.26458,0 -2.9394,0.9711 0.32518,2.9173 6.2027,4.2166 0.65452,6.1644 -21.21816,8.1105 -24.48433,1.9462 -54.5159,13.9464 -83.8971,33.0835 -6.05988,4.0139 -9.12519,5.8724 -10.12369,5.7491 z"
       style="stroke-width:0.325406" />
  </g>
</svg>
