<?xml version="1.0" encoding="UTF-8" standalone="no"?>
<svg
   version="1.0"
   width="300.000000pt"
   height="399.000000pt"
   viewBox="0 0 300.000000 399.000000"
   preserveAspectRatio="xMidYMid meet"
   id="svg56"
   sodipodi:docname="home on a road.svg"
   inkscape:version="1.4 (86a8ad7, 2024-10-11)"
   xmlns:inkscape="http://www.inkscape.org/namespaces/inkscape"
   xmlns:sodipodi="http://sodipodi.sourceforge.net/DTD/sodipodi-0.dtd"
   xmlns="http://www.w3.org/2000/svg"
   xmlns:svg="http://www.w3.org/2000/svg">
  <defs
     id="defs56" />
  <sodipodi:namedview
     id="namedview56"
     pagecolor="#ffffff"
     bordercolor="#000000"
     borderopacity="0.25"
     inkscape:showpageshadow="2"
     inkscape:pageopacity="0.0"
     inkscape:pagecheckerboard="0"
     inkscape:deskcolor="#d1d1d1"
     inkscape:document-units="pt"
     inkscape:zoom="1.5657895"
     inkscape:cx="199.89916"
     inkscape:cy="77.596639"
     inkscape:window-width="1920"
     inkscape:window-height="1051"
     inkscape:window-x="-9"
     inkscape:window-y="-9"
     inkscape:window-maximized="1"
     inkscape:current-layer="svg56" />
  <metadata
     id="metadata1">
Created by potrace 1.10, written by Peter Selinger 2001-2011
</metadata>
  <g
     transform="matrix(0.0234944,0,0,-0.02759987,-0.19957987,111.19845)"
     fill="#000000"
     stroke="none"
     id="g56">
    <path
       d="M 60,1995 C 60,39 60,0 79,0 c 14,0 23,13 34,45 9,25 12,45 6,45 -5,0 -9,-8 -9,-17 0,-10 -5,-25 -10,-33 -6,-10 -8,18 -6,82 2,54 0,98 -5,98 -4,0 -6,7 -2,15 4,13 8,59 12,160 0,6 -2,136 -6,290 -3,154 -5,307 -4,340 6,177 5,255 -2,255 -5,0 -5,5 -2,10 4,6 9,27 11,46 4,31 23,64 37,64 3,0 2,-15 -2,-33 -5,-18 -7,-41 -5,-52 2,-11 -2,-25 -8,-32 -7,-9 -7,-13 1,-13 7,0 9,-4 6,-10 -3,-5 0,-10 7,-11 7,0 3,-4 -10,-9 -12,-5 -22,-14 -22,-20 0,-6 6,-8 12,-4 7,4 10,4 6,-1 -4,-4 -3,-14 3,-22 6,-7 8,-13 3,-13 -5,0 -10,-14 -11,-30 -1,-17 3,-30 9,-30 7,0 6,-5 -2,-15 -9,-11 -9,-15 -1,-15 7,0 9,-5 5,-11 -3,-6 -8,-30 -10,-52 -2,-23 -6,-55 -9,-72 -3,-16 -2,-24 1,-17 17,35 20,7 15,-126 -1,-7 -7,-10 -13,-7 -7,4 -6,1 2,-7 15,-12 18,-63 5,-95 -2,-7 -1,-13 4,-13 9,0 5,-55 -4,-71 -4,-5 -3,-9 2,-9 4,0 8,-65 8,-145 0,-80 -3,-145 -7,-145 -5,0 -8,-10 -8,-22 0,-19 2,-20 11,-8 8,11 9,9 3,-10 -4,-14 -8,-56 -9,-93 -1,-57 2,-71 20,-92 16,-16 26,-20 33,-13 7,7 16,4 28,-11 13,-14 21,-17 30,-10 8,7 358,8 1061,5 1443,-6 1465,-7 1485,-17 14,-8 18,-6 18,7 0,10 5,14 15,11 8,-4 17,-1 21,4 3,6 17,8 30,5 19,-5 26,-2 33,16 7,19 9,15 12,-24 2,-25 0,-44 -5,-41 -5,3 -7,0 -4,-8 3,-8 14,-15 26,-17 l 22,-3 v 1995 1996 h -21 c -11,0 -17,-4 -14,-10 3,-5 2,-10 -4,-10 -5,0 -9,-9 -8,-20 1,-11 8,-20 17,-20 12,0 13,-2 1,-9 -19,-12 -20,-276 -1,-311 7,-14 8,-20 1,-16 -7,5 -10,-3 -7,-23 2,-18 -1,-31 -8,-31 -6,0 -5,-4 3,-9 10,-7 11,-13 2,-30 -7,-11 -8,-21 -3,-21 11,0 10,-141 -2,-159 -6,-9 -5,-12 1,-8 13,8 22,-86 13,-123 -4,-14 -4,-34 0,-45 4,-11 5,-24 3,-28 -7,-12 -9,-247 -3,-247 3,0 5,-31 5,-70 1,-69 -9,-83 -18,-25 -2,17 -2,-8 1,-55 8,-141 3,-244 -12,-269 -11,-18 3,-28 15,-11 6,10 8,-7 6,-52 -2,-38 -7,-71 -10,-75 -12,-11 -8,-51 6,-57 9,-5 9,-7 0,-12 -8,-4 -11,-30 -8,-87 2,-45 7,-134 10,-199 6,-115 -5,-234 -26,-273 -7,-14 -7,-28 1,-45 10,-23 10,-23 5,8 -2,19 -1,31 4,27 6,-3 11,7 13,22 3,16 5,-69 5,-187 0,-118 -4,-223 -9,-232 -5,-10 -5,-18 -1,-18 4,0 8,-13 8,-29 0,-16 -3,-27 -6,-25 -4,2 -10,-11 -14,-29 -6,-29 -7,-30 -15,-11 -6,16 -6,89 0,89 1,0 3,15 6,33 2,17 -1,32 -6,32 -6,0 -10,10 -9,23 0,21 1,21 10,2 9,-19 6,67 -6,140 -3,17 1,10 9,-15 l 14,-45 -3,88 c -2,49 -8,94 -15,102 -8,10 -11,64 -9,190 2,96 6,175 9,175 3,0 6,11 6,25 1,14 -2,25 -6,25 -10,0 -7,26 3,36 4,4 7,12 7,18 0,7 -3,7 -8,-1 -4,-6 -7,82 -8,195 -1,114 -2,245 -4,291 -1,46 1,86 6,90 11,8 12,72 1,89 -5,7 -4,12 2,12 14,0 14,37 0,45 -7,5 -5,15 6,31 15,23 12,29 -9,25 -5,-1 -4,5 3,13 9,10 10,20 3,32 -6,11 -7,27 -1,40 7,19 5,22 -9,17 -13,-5 -14,-3 -6,6 7,8 10,32 8,59 -3,31 -2,42 4,33 6,-8 12,-9 16,-3 3,5 -1,13 -9,16 -20,7 -19,116 1,116 7,0 16,4 19,10 3,6 -1,7 -9,4 -11,-4 -16,0 -16,10 0,9 4,16 9,16 4,0 6,11 3,25 -2,14 -7,25 -11,25 -11,0 -7,54 4,62 6,5 5,8 -3,8 -9,0 -11,22 -7,91 5,72 3,89 -7,83 -10,-5 -11,-4 0,7 14,16 16,33 2,24 -5,-3 -10,-1 -10,4 0,6 5,11 10,11 7,0 10,35 9,95 -2,60 -6,95 -13,95 -8,0 -8,2 0,8 10,6 11,38 4,107 -2,17 -3,16 -10,-5 -6,-18 -8,-20 -9,-7 -1,13 -6,17 -20,12 -20,-6 -46,18 -36,34 3,7 0,8 -9,5 -9,-3 -12,-12 -9,-21 4,-10 2,-14 -5,-9 -6,3 -13,2 -17,-3 -3,-6 -13,-7 -21,-4 -14,5 -15,-3 -11,-66 5,-59 3,-71 -9,-71 -12,0 -15,13 -13,68 2,63 1,67 -19,66 -24,-1 -29,15 -11,33 8,8 8,13 0,18 -7,4 -16,-6 -22,-24 -11,-31 -38,-33 -40,-2 0,13 -2,13 -6,1 -12,-31 -48,-41 -38,-11 3,11 0,21 -9,24 -18,7 -26,-1 -26,-25 0,-10 -5,-18 -11,-18 -5,0 -9,9 -7,20 2,10 -1,19 -7,20 -5,0 -11,-8 -13,-20 -4,-25 -22,-27 -22,-2 0,10 -3,13 -8,6 -4,-6 -14,-11 -22,-11 -8,0 -28,-3 -45,-7 -16,-3 -24,-3 -18,0 15,7 17,44 3,44 -5,0 -12,-11 -16,-25 -3,-14 -10,-25 -15,-25 -5,0 -7,11 -3,25 3,14 2,25 -4,25 -5,0 -12,-9 -15,-20 -8,-30 -27,-24 -27,9 0,17 -4,32 -9,36 -6,3 -8,-5 -5,-19 2,-13 -2,-29 -11,-36 -30,-25 -18,-39 31,-35 l 46,4 -7,-89 -7,-90 h 35 c 42,0 51,21 41,105 -4,30 -6,58 -5,62 0,5 26,8 57,9 l 56,1 -7,-89 -7,-88 h 38 39 l 3,45 c 2,26 -2,45 -8,45 -5,0 -10,19 -10,43 v 42 l 55,1 55,1 v -88 -89 h 35 c 36,0 35,-2 50,73 2,10 -3,17 -11,17 -10,0 -14,13 -14,46 0,43 2,46 23,40 12,-3 34,-6 50,-6 h 27 V 2055 c 0,-1497 2,-1795 13,-1795 8,0 22,-9 31,-19 23,-25 13,-59 -20,-67 -23,-6 -35,-34 -14,-34 6,0 10,-11 10,-25 0,-17 -5,-25 -17,-25 -15,0 -16,2 -3,10 13,8 12,10 -2,10 -10,0 -18,-4 -18,-10 0,-5 -8,-10 -17,-10 -15,0 -16,2 -3,10 13,8 12,10 -2,10 -10,0 -18,-4 -18,-10 0,-5 -7,-10 -15,-10 -8,0 -15,6 -15,13 0,8 -4,7 -10,-3 -6,-10 -10,-11 -10,-2 0,6 -7,12 -16,12 -8,0 -12,-4 -9,-10 3,-5 0,-10 -9,-10 -8,0 -17,6 -19,13 -4,9 -6,9 -6,0 -1,-7 -9,-13 -18,-13 -15,0 -16,2 -3,10 12,8 10,10 -8,10 -13,0 -20,-4 -17,-10 3,-5 -1,-10 -10,-10 -9,0 -13,5 -10,10 3,6 1,10 -5,10 -7,0 -9,-8 -5,-20 8,-26 -6,-26 -25,0 -17,24 -45,26 -54,5 -3,-8 -11,-15 -18,-15 -10,0 -10,2 0,9 10,6 7,10 -13,13 -18,4 -28,1 -33,-10 -5,-13 -7,-12 -13,4 -7,17 -8,17 -8,2 -1,-10 -5,-18 -11,-18 -5,0 -9,6 -7,12 1,7 -9,14 -23,16 -21,3 -22,2 -11,-12 12,-14 10,-16 -22,-14 -19,2 -33,6 -30,11 2,4 -5,7 -16,7 -12,0 -21,-4 -21,-10 0,-5 -4,-10 -10,-10 -5,0 -6,7 -3,17 4,10 3,14 -5,9 -14,-8 -1177,-8 -1708,1 l -401,6 1,1874 1,1873 h 41 c 42,0 42,0 46,-42 2,-24 1,-44 -3,-46 -4,-2 -6,-9 -4,-15 2,-7 6,-24 9,-39 6,-24 11,-28 41,-28 34,0 35,1 35,39 0,22 -4,43 -10,46 -5,3 -10,24 -10,46 v 40 l 58,-3 57,-3 1,-78 c 1,-42 3,-79 5,-81 10,-10 74,-10 72,0 -1,6 -5,45 -9,87 l -7,77 h 63 63 l -7,-72 c -3,-40 -2,-79 3,-87 5,-7 23,-15 41,-17 l 32,-4 -7,90 -7,90 h 56 56 v -90 -90 h 40 40 l -2,45 c 0,25 -5,45 -10,45 -4,0 -8,20 -8,45 v 45 h 60 61 l -4,-90 -4,-90 h 40 39 l -7,91 -7,90 57,-3 58,-3 -2,-87 -2,-88 h 41 42 l -6,53 c -4,28 -7,68 -9,87 l -2,35 59,2 58,2 -7,-90 -7,-89 h 42 42 l -7,89 -7,89 56,1 h 56 v -89 -90 h 36 36 l -7,88 -7,88 59,-1 58,-2 -3,-87 -4,-86 h 35 c 33,0 36,2 42,40 4,21 4,43 1,48 -3,6 -6,32 -7,58 -2,59 -14,94 -31,94 -8,0 -9,-3 -3,-8 6,-4 12,-46 14,-94 2,-74 0,-88 -13,-88 -13,0 -15,13 -13,74 1,41 -2,72 -7,69 -4,-3 -5,4 -1,16 4,12 2,21 -4,21 -6,0 -11,-6 -11,-14 0,-8 -5,-18 -11,-21 -14,-9 -39,26 -33,47 3,9 0,19 -6,23 -6,4 -10,-5 -10,-21 0,-29 -24,-53 -52,-54 -15,0 -18,-10 -18,-70 0,-39 -4,-70 -10,-70 -6,0 -9,31 -7,74 1,41 0,74 -3,74 -19,-1 -23,4 -10,12 13,9 13,11 0,20 -21,14 -33,12 -23,-2 13,-21 12,-38 -2,-38 -7,0 -16,6 -18,13 -4,10 -6,10 -6,0 -1,-7 -5,-13 -11,-13 -5,0 -11,28 -13,63 l -3,62 -2,-62 c -1,-35 -6,-63 -12,-63 -5,0 -10,5 -10,12 0,9 -3,9 -12,0 -19,-19 -37,-14 -44,14 -5,18 -9,22 -14,13 -5,-7 -6,-18 -3,-26 6,-15 -23,-18 -32,-3 -5,8 -11,7 -21,-1 -11,-9 -14,-8 -14,5 0,21 -16,20 -29,-1 -9,-15 -10,-14 -11,10 0,15 -4,27 -10,27 -10,0 -14,-14 -11,-37 3,-25 -17,-13 -24,14 -5,20 -9,23 -15,13 -4,-7 -6,-20 -3,-28 5,-12 2,-12 -17,-2 -18,9 -24,9 -30,0 -6,-9 -11,-7 -19,6 -6,11 -11,13 -11,6 0,-7 -4,-11 -9,-8 -5,4 -11,0 -14,-6 -2,-7 -8,-1 -12,14 -5,22 -10,25 -20,15 -10,-9 -10,-15 -1,-26 9,-11 8,-13 -4,-9 -8,2 -16,15 -18,27 -3,17 -6,20 -17,11 -8,-6 -11,-18 -8,-26 3,-8 -1,-14 -11,-14 -9,0 -16,7 -16,16 0,14 -3,14 -15,4 -8,-7 -15,-9 -15,-6 0,4 -9,2 -20,-4 -17,-9 -20,-6 -26,26 -4,25 -9,32 -15,23 -4,-8 -6,-24 -2,-36 3,-15 1,-23 -7,-23 -7,0 -10,7 -6,15 3,8 1,15 -4,15 -6,0 -10,12 -10,28 0,15 -5,34 -10,42 -8,11 -9,8 -4,-12 3,-14 0,-36 -6,-48 -8,-15 -8,-20 -1,-16 6,4 11,0 11,-8 0,-23 -42,-20 -70,4 -29,25 -33,25 -19,-1 8,-16 8,-20 -1,-14 -6,4 -16,19 -21,33 -8,21 -12,23 -19,12 -13,-20 -12,-33 0,-25 6,3 10,-1 10,-9 0,-9 -7,-16 -15,-16 -10,0 -15,10 -15,30 0,33 -14,40 -24,13 -6,-15 -8,-15 -16,-3 -8,13 -10,13 -10,-2 0,-9 6,-18 13,-21 6,-2 9,-8 5,-12 -4,-4 -14,-2 -23,5 -8,7 -15,9 -15,6 0,-4 -9,-2 -20,4 -16,8 -20,8 -20,-4 0,-21 -28,-9 -35,15 -9,28 -26,23 -19,-5 4,-16 1,-25 -10,-29 -10,-4 -16,-1 -16,9 0,8 4,12 10,9 15,-9 12,4 -4,21 -20,20 -27,17 -23,-8 2,-13 2,-17 0,-10 -8,21 -21,13 -17,-10 2,-13 2,-17 -2,-10 -3,6 -12,12 -20,12 -7,0 -11,6 -8,13 3,8 -2,20 -11,27 -17,14 -21,0 -3,-18 9,-9 7,-13 -6,-18 -17,-6 -30,4 -39,30 -2,5 -9,6 -16,2 -9,-6 -8,-11 6,-22 10,-7 13,-13 6,-14 -7,0 -20,11 -29,25 l -17,26 -19,-21 c -10,-11 -16,-24 -13,-30 3,-5 -3,-8 -14,-7 -11,0 -19,4 -18,7 2,6 -8,10 -24,10 -5,0 -8,-4 -5,-9 4,-5 -2,-7 -12,-4 -21,5 -79,-43 -59,-50 6,-2 4,-3 -5,-2 -22,4 -24,-23 -3,-31 8,-4 12,-10 9,-15 -3,-5 -10,-7 -15,-4 -5,4 -9,1 -9,-4 0,-6 7,-11 15,-11 18,0 20,-16 3,-23 -8,-3 -6,-6 5,-6 21,-1 23,-21 2,-21 -8,0 -15,-4 -15,-10 0,-5 7,-10 15,-10 11,0 15,-11 15,-42 0,-38 -1,-40 -14,-22 -11,14 -11,21 -3,26 9,5 9,10 -1,20 -9,9 -12,9 -12,-5 0,-29 -20,-19 -21,11 -1,15 0,32 1,37 6,18 2,208 -5,242 -3,18 -10,33 -15,33 -6,0 -10,-735 -10,-1995 z m 235,1868 c -3,-21 -6,-59 -7,-85 -1,-55 -12,-63 -22,-17 -11,57 -7,99 9,99 8,0 15,5 15,10 0,6 -4,10 -10,10 -5,0 -10,5 -10,10 0,6 7,10 16,10 13,0 15,-7 9,-37 z m 165,-52 c 0,-27 3,-56 6,-65 4,-11 1,-16 -11,-16 -12,0 -16,6 -12,20 3,11 1,23 -4,26 -5,3 -9,23 -9,45 0,28 4,39 15,39 11,0 15,-12 15,-49 z m 183,-16 c 0,-35 -5,-61 -12,-63 -7,-2 -11,18 -11,63 0,45 4,65 11,63 7,-2 12,-28 12,-63 z m 175,-4 c 2,-48 0,-62 -10,-59 -8,3 -14,27 -16,67 -2,48 0,62 10,59 8,-3 14,-27 16,-67 z m 172,4 c 0,-37 -4,-65 -10,-65 -5,0 -10,22 -10,49 0,27 -3,56 -6,65 -4,11 -1,16 10,16 13,0 16,-12 16,-65 z m 180,-1 c 0,-48 -3,-65 -12,-62 -8,3 -14,28 -16,66 -3,51 0,62 12,62 13,0 16,-13 16,-66 z m 170,1 c 0,-36 -4,-65 -9,-65 -9,0 -20,118 -12,126 15,14 21,-4 21,-61 z m 1040,1 c 0,-42 -4,-66 -12,-69 -10,-3 -12,12 -11,62 1,36 2,67 2,69 1,1 6,2 11,2 6,0 10,-28 10,-64 z m 165,2 c 0,-29 -4,-55 -9,-58 -10,-5 -17,98 -9,113 10,18 18,-5 18,-55 z M 109,3631 c 7,-5 14,-20 14,-35 0,-14 3,-24 7,-21 11,7 7,-29 -4,-37 -16,-11 -16,-59 0,-65 13,-5 13,-7 2,-14 -10,-7 -11,-12 0,-29 7,-12 8,-20 2,-20 -11,0 -7,-70 5,-90 5,-9 4,-11 -3,-6 -7,4 -12,1 -12,-8 0,-8 5,-18 10,-21 6,-3 10,-17 10,-31 0,-22 -3,-24 -22,-19 -21,6 -21,6 -6,-6 16,-13 18,-33 15,-216 -3,-140 -1,-204 7,-208 8,-3 7,-7 -1,-11 -10,-4 -10,-11 -2,-26 7,-14 9,-40 4,-72 -4,-28 -8,-66 -8,-83 0,-18 -5,-33 -11,-33 -6,0 -4,-5 4,-10 13,-9 13,-11 0,-20 -8,-5 -10,-10 -4,-10 7,0 15,-7 18,-16 4,-12 2,-15 -9,-10 -18,7 -19,-1 -2,-18 16,-17 10,-99 -7,-89 -8,5 -7,2 1,-8 8,-10 12,-66 11,-182 0,-92 2,-170 6,-174 3,-4 -1,-17 -9,-30 -9,-13 -11,-23 -6,-23 5,0 8,-47 7,-105 -1,-92 -3,-105 -18,-105 -12,0 -15,5 -11,17 5,12 3,14 -7,8 -9,-5 -11,-4 -6,3 4,7 13,12 19,12 7,0 13,9 13,21 0,19 -1,19 -13,3 -11,-15 -12,-15 -12,2 1,11 -2,29 -6,42 -5,14 -3,22 4,22 7,0 9,5 5,12 -5,8 -2,9 9,5 11,-4 17,-1 17,8 0,9 -6,12 -16,8 -10,-4 -15,-1 -13,8 1,8 -1,27 -6,43 -5,19 -4,31 5,36 8,5 9,10 2,14 -6,4 -8,14 -5,22 5,13 7,13 14,2 7,-10 9,-9 9,5 0,9 -6,17 -12,17 -9,0 -13,17 -13,54 0,30 4,52 9,49 4,-3 5,4 1,16 -4,13 -2,21 5,21 7,0 5,6 -4,16 -19,18 -21,34 -5,34 6,0 9,7 5,15 -3,8 0,14 5,12 6,-1 13,10 14,25 2,17 -1,27 -8,25 -14,-3 -26,62 -15,85 5,10 4,19 -2,23 -6,4 -8,11 -4,16 11,19 13,89 1,89 -6,0 -2,7 9,15 15,12 16,14 3,15 -13,0 -15,11 -13,61 2,37 8,66 16,71 10,7 8,8 -4,4 -10,-3 -18,-1 -18,4 0,6 7,10 15,10 8,0 15,4 15,10 0,5 -5,9 -11,7 -15,-3 -21,32 -10,65 5,14 6,29 3,33 -4,4 -7,51 -8,106 0,55 3,94 8,87 5,-10 8,-10 8,-1 0,6 -5,15 -11,19 -8,4 -7,9 2,15 10,6 11,9 2,9 -7,0 -13,5 -13,11 0,5 4,8 8,5 5,-3 6,15 2,39 -4,25 -4,45 -1,45 3,0 6,27 6,60 0,33 -2,60 -5,60 -10,0 3,95 14,102 8,6 8,8 0,8 -7,0 -15,7 -18,16 -4,9 -2,13 5,8 7,-4 9,0 6,12 -7,23 -10,67 -7,114 1,29 3,32 10,15 8,-19 9,-19 9,-1 1,10 -7,25 -16,32 -20,15 -6,19 16,5 z m 17,-1943 c -1,-46 -5,-89 -9,-95 -5,-7 -5,-13 0,-13 13,0 15,-91 2,-143 -6,-28 -16,-46 -23,-44 -6,3 -10,10 -8,18 3,13 3,114 -1,233 -1,39 2,60 11,63 6,3 12,13 12,22 0,14 -2,14 -10,1 -5,-8 -10,-12 -10,-8 0,3 -3,14 -7,24 -4,10 -2,15 3,11 6,-3 16,-2 24,4 8,5 15,9 16,9 0,0 0,-37 0,-82 z m 2791,-608 c 1,-72 -2,-89 -11,-80 -10,8 -13,-7 -13,-69 1,-49 4,-78 10,-74 6,3 8,2 5,-3 -3,-5 -8,-54 -12,-109 -4,-55 -9,-127 -11,-160 -3,-39 -2,-53 4,-40 4,11 6,26 3,34 -4,10 -1,12 7,7 7,-5 11,-17 8,-27 -3,-11 -2,-19 2,-19 4,0 6,-33 5,-72 -2,-40 -4,-104 -4,-142 v -68 l -20,23 c -17,21 -19,21 -14,4 5,-14 4,-17 -4,-10 -7,7 -8,35 -2,89 6,49 6,85 0,97 -6,10 -10,26 -10,36 0,15 2,16 11,3 9,-12 9,-11 3,5 -9,23 -8,152 2,279 4,53 3,87 -2,84 -12,-8 -12,115 0,123 12,9 -3,31 -16,23 -7,-4 -8,-2 -4,5 6,9 11,9 24,-1 14,-11 15,-10 8,12 -4,14 -8,31 -8,38 -1,6 -5,12 -10,12 -6,0 -5,29 2,50 1,3 8,-13 16,-35 l 14,-40 -5,52 c -4,36 -2,53 7,56 7,3 13,6 14,6 0,1 1,-40 1,-89 z m -3,-444 c 4,-21 9,-42 12,-47 3,-5 -2,-6 -10,-3 -11,4 -16,20 -16,52 0,53 6,53 14,-2 z m -24,-493 c 0,-20 -13,-53 -20,-53 -7,0 -7,35 -1,58 2,6 21,1 21,-5 z"
       id="path1" />
    <path
       d="m 1936,3963 c 4,-15 11,-29 16,-31 4,-2 8,-16 8,-30 0,-21 -2,-24 -10,-12 -7,11 -10,12 -10,2 0,-32 -23,-3 -25,31 0,20 -5,41 -11,47 -5,6 -8,-11 -7,-45 1,-49 -1,-55 -18,-55 -16,0 -19,5 -14,19 3,11 1,22 -5,26 -6,4 -10,-4 -10,-19 0,-16 -6,-26 -15,-26 -17,0 -18,5 -6,29 7,13 6,18 -5,18 -8,0 -14,-11 -15,-26 l -1,-26 -8,25 -8,25 -1,-25 c -1,-20 -3,-22 -11,-10 -9,13 -11,13 -20,0 -8,-13 -10,-12 -10,4 0,20 0,20 -14,0 -19,-25 -4,-33 46,-26 l 40,5 -7,-92 -7,-91 h 42 42 l -7,88 -7,87 59,-1 58,-1 -3,-64 c -1,-35 -5,-74 -7,-86 -5,-21 -2,-23 34,-23 38,0 39,0 43,43 3,23 0,45 -4,48 -5,3 -8,23 -6,44 l 3,38 h 55 l 55,-1 -3,-86 -3,-86 h 34 c 34,0 36,2 42,42 5,28 4,43 -4,46 -14,5 -15,79 -1,87 16,10 12,25 -5,19 -11,-5 -14,0 -13,14 2,12 -1,21 -7,22 -5,0 -11,-11 -13,-25 -2,-14 2,-25 8,-25 16,0 9,-122 -7,-128 -10,-3 -13,16 -15,70 -2,100 -3,106 -11,114 -4,4 -7,16 -7,26 0,10 -4,18 -9,18 -5,0 -6,-15 -1,-34 10,-47 -11,-77 -31,-45 -6,10 -13,10 -32,2 -16,-7 -29,-8 -38,-1 -11,7 -11,11 -1,15 17,7 15,20 -4,20 -14,0 -15,-9 -10,-59 8,-64 -1,-128 -17,-128 -7,0 -8,32 -4,96 5,73 4,95 -6,91 -6,-2 -13,-13 -15,-25 -5,-32 -22,-17 -22,19 0,16 -4,29 -10,29 -5,0 -10,9 -10,19 0,11 -5,23 -10,26 -7,4 -8,-3 -4,-22 z m -76,-167 c 0,-36 -4,-68 -10,-71 -6,-4 -10,20 -10,64 0,41 4,71 10,71 6,0 10,-28 10,-64 z"
       id="path2" />
    <path
       d="m 357,3463 c -4,-3 -7,-721 -7,-1595 V 280 h 33 c 552,-2 2241,1 2244,3 2,2 4,719 5,1593 l 3,1589 -1136,2 c -625,2 -1139,0 -1142,-4 z m 2263,-362 v -348 l -27,5 c -31,6 -93,-25 -93,-46 0,-12 5,-11 23,6 22,21 43,27 80,24 16,-2 17,-31 17,-461 v -458 l -61,-7 c -142,-14 -372,-6 -527,20 -34,5 -34,6 -15,26 40,46 120,61 174,32 40,-20 47,-12 13,15 -32,25 -101,28 -143,6 -16,-8 -40,-28 -54,-45 l -26,-31 -93,16 c -105,18 -308,65 -308,70 0,3 14,20 31,40 17,20 24,33 15,29 -13,-5 -16,2 -16,46 v 51 l 43,-6 c 124,-18 220,-23 392,-20 105,2 197,7 206,10 12,4 18,-1 23,-18 3,-14 8,-31 11,-39 9,-24 -286,-9 -544,28 -113,17 -150,13 -49,-5 152,-26 304,-42 451,-48 146,-6 156,-7 142,-23 -16,-17 -19,-47 -9,-74 12,-30 22,-16 17,23 -4,32 -2,41 18,55 13,9 43,16 69,16 46,0 172,16 203,26 9,3 17,9 17,13 0,4 -28,2 -62,-5 -35,-7 -98,-14 -142,-15 -67,-2 -81,1 -93,16 -27,38 -17,53 40,60 62,8 201,39 241,55 48,18 23,21 -35,4 -30,-9 -98,-24 -151,-34 -79,-14 -98,-15 -98,-4 0,7 10,20 22,28 14,10 17,16 9,16 -18,0 -51,-29 -51,-46 0,-15 -56,-20 -275,-23 -163,-2 -385,15 -385,29 0,14 46,74 70,92 14,10 45,22 70,27 l 45,9 -40,1 c -57,1 -105,-28 -140,-85 l -30,-50 -115,19 c -63,10 -144,30 -180,44 -87,34 -157,76 -139,81 14,5 29,21 29,33 0,4 -15,9 -32,13 -27,5 -36,2 -50,-16 -15,-19 -19,-21 -27,-9 -8,12 -12,12 -25,2 -9,-7 -13,-17 -10,-22 3,-5 0,-9 -5,-9 -7,0 -11,27 -11,69 0,61 -3,70 -20,76 -11,3 -29,3 -40,0 -18,-6 -20,-15 -20,-96 0,-83 -9,-111 -24,-72 -5,13 -9,14 -19,4 -7,-7 -12,-17 -12,-23 0,-6 -6,-13 -12,-16 -7,-2 -13,1 -13,7 0,17 -18,13 -39,-8 -11,-11 -45,-25 -78,-33 -74,-17 -295,-16 -345,1 l -38,12 -2,257 c -2,141 -2,431 0,644 l 2,388 1018,2 c 559,2 1065,2 1125,0 l 107,-3 z M 997,2372 c 7,-5 16,-36 19,-70 6,-52 4,-62 -9,-62 -8,0 -22,-3 -31,-6 -14,-5 -16,3 -16,54 0,84 8,102 37,84 z m 173,-100 c 0,-4 -29,-20 -64,-36 -43,-18 -63,-32 -60,-41 3,-7 1,-16 -5,-20 -7,-4 -11,5 -11,22 0,25 7,31 63,55 69,29 77,31 77,20 z m -18,-41 c 2,-5 19,-18 38,-30 41,-25 30,-27 -30,-6 -24,8 -45,13 -47,11 -12,-11 307,-98 376,-102 101,-6 107,-9 103,-54 -2,-22 0,-46 6,-53 7,-8 3,-20 -13,-41 l -23,-29 -123,38 c -104,32 -251,86 -381,138 -38,15 -36,46 5,84 48,45 82,62 89,44 z m -138,-9 c 3,-4 -8,-13 -25,-19 -31,-12 -40,0 -11,16 21,13 29,13 36,3 z m -78,-32 c 26,0 5,-18 -39,-33 -23,-8 -50,-18 -59,-22 -10,-4 -18,-3 -18,3 0,6 22,18 49,27 28,9 49,22 47,28 -1,7 -1,9 1,5 3,-5 11,-8 19,-8 z m 83,-557 c 1,-435 4,-559 13,-565 9,-5 9,-8 2,-8 -14,0 -36,25 -29,32 3,3 -5,12 -19,21 l -24,16 3,528 c 1,290 3,529 4,531 0,1 12,2 25,2 h 25 z m -69,132 c 0,-269 -3,-405 -10,-405 -5,0 -10,6 -10,14 0,7 -7,19 -15,26 -9,7 -13,21 -10,31 7,22 -25,42 -52,32 -15,-5 -16,-3 -5,8 19,20 15,42 -7,36 -14,-3 -21,2 -25,19 -7,27 -33,32 -42,9 -3,-8 -1,-27 4,-42 10,-27 10,-27 12,12 0,33 2,37 11,22 6,-10 8,-25 5,-33 -4,-11 -1,-14 13,-9 14,4 19,1 17,-12 -1,-13 7,-19 27,-21 15,-2 27,-8 27,-14 0,-6 -11,-8 -25,-6 -34,7 -32,-8 4,-20 34,-12 49,-46 29,-69 -12,-15 -11,-15 9,-5 42,23 44,17 42,-99 -1,-103 0,-111 20,-125 12,-9 19,-19 16,-24 -5,-8 97,-90 112,-90 4,0 -1,7 -11,15 -11,8 -15,15 -9,15 6,0 16,-7 23,-15 7,-8 9,-15 5,-15 -4,0 -2,-7 5,-15 7,-8 17,-15 22,-15 7,0 6,5 -1,13 -6,8 -8,16 -5,19 2,3 -18,22 -46,42 l -52,37 7,52 c 8,59 13,70 26,62 5,-4 8,5 7,19 -3,31 -12,33 -24,6 -7,-15 -9,-3 -10,45 -1,67 4,76 27,49 10,-12 10,-20 1,-35 -20,-31 -14,-34 16,-6 39,37 113,52 153,31 17,-9 33,-24 36,-34 5,-18 6,-18 36,1 18,10 44,19 60,19 15,0 27,5 27,11 0,8 -12,10 -34,6 -25,-4 -36,-1 -40,9 -3,8 -11,14 -18,14 -9,0 -9,-3 0,-12 14,-14 16,-32 3,-24 -5,4 -11,1 -13,-6 -3,-7 -7,-5 -11,6 -5,12 -3,15 6,10 7,-4 8,-3 4,2 -5,5 -16,9 -25,9 -9,0 -16,5 -15,10 2,14 -120,3 -139,-12 -12,-10 -19,-8 -36,12 -12,14 -26,25 -32,25 -7,0 -10,130 -10,375 0,206 2,375 5,375 3,0 22,-8 43,-19 58,-29 226,-90 362,-131 121,-37 125,-39 131,-69 6,-30 28,-65 36,-58 2,2 -4,21 -12,42 -9,20 -15,38 -13,40 2,1 55,-10 118,-26 63,-16 150,-34 193,-40 l 78,-11 -6,-42 c -4,-22 -2,-52 4,-66 8,-21 10,-15 10,36 1,33 3,63 6,66 3,2 47,-2 98,-10 101,-16 401,-22 485,-9 l 52,8 v -183 c -1,-154 -3,-180 -14,-166 -7,10 -16,14 -21,10 -4,-4 -5,7 -3,23 3,17 3,24 1,18 -3,-7 -8,-13 -11,-13 -4,0 -7,-11 -7,-24 0,-19 7,-26 28,-30 l 27,-5 V 1000 560 h -22 c -38,0 -103,26 -84,33 9,4 28,2 42,-4 15,-5 29,-7 31,-5 8,8 -7,26 -21,26 -18,0 -94,38 -102,51 -4,8 -9,7 -15,-2 -13,-21 -11,-28 9,-22 25,6 49,-22 27,-31 -9,-3 -13,-2 -10,4 3,6 2,10 -4,10 -5,0 -13,-4 -16,-10 -10,-16 -38,-12 -31,5 4,12 2,13 -13,3 -25,-15 -52,10 -44,41 3,13 1,21 -6,21 -7,0 -9,5 -6,10 9,15 25,12 25,-4 0,-8 7,-16 15,-20 17,-6 21,9 4,19 -6,4 -8,13 -5,21 3,7 -1,20 -9,28 -22,22 -18,29 7,12 12,-9 23,-25 25,-38 5,-32 13,-36 29,-14 7,11 17,16 21,12 4,-4 2,-11 -6,-15 -9,-6 1,-16 32,-35 47,-27 73,-34 62,-16 -3,6 1,10 9,10 9,0 16,5 16,11 0,7 -9,9 -21,6 -23,-6 -49,1 -49,13 0,5 8,11 18,13 9,3 2,5 -15,6 -18,0 -33,6 -33,12 0,7 -11,9 -27,6 -24,-4 -25,-4 -10,7 9,7 13,16 9,21 -4,4 7,0 25,-9 28,-14 34,-14 60,-1 15,8 23,15 17,15 -15,0 -107,71 -100,77 3,3 16,-2 30,-10 32,-21 106,-34 106,-18 0,6 -15,11 -32,11 -20,0 -51,12 -78,30 -25,16 -51,30 -57,30 -7,0 -13,7 -13,16 0,16 6,14 51,-17 33,-23 44,-14 17,13 -28,28 -16,33 23,9 19,-12 43,-21 54,-20 12,0 -4,12 -40,31 -56,29 -58,32 -35,39 14,4 18,7 9,8 -17,1 -59,41 -43,41 6,0 15,-5 20,-10 6,-6 18,-8 27,-4 14,5 9,13 -25,45 -50,45 -77,57 -89,38 -4,-7 -11,-10 -15,-6 -4,4 1,14 12,21 16,13 22,13 40,1 20,-13 22,-12 22,10 -1,15 -8,27 -19,30 -11,4 -19,11 -19,16 0,16 23,10 47,-13 13,-12 26,-18 30,-14 4,3 -4,14 -17,23 l -24,17 24,7 25,6 -27,11 c -16,6 -28,16 -28,22 0,7 6,7 21,0 11,-6 25,-9 32,-7 7,3 4,8 -8,12 -57,21 -75,31 -75,42 0,18 8,16 37,-7 14,-11 33,-20 42,-20 12,0 9,6 -9,20 -17,13 -20,20 -10,20 8,0 0,9 -19,21 -27,16 -36,18 -42,8 -4,-8 -11,-10 -16,-6 -4,5 -1,12 6,16 7,5 10,14 7,20 -11,17 3,13 31,-9 27,-21 43,-25 43,-12 0,4 -10,12 -21,17 -12,6 -21,15 -21,20 0,6 -7,18 -15,28 -15,16 -14,17 18,18 l 34,1 -32,14 c -31,13 -37,23 -46,84 -3,17 -5,12 -6,-13 -1,-41 -30,-76 -63,-77 -10,0 -18,-5 -18,-11 0,-6 9,-8 23,-4 22,7 22,7 2,-9 -15,-12 -16,-15 -5,-16 8,0 21,-9 27,-20 12,-17 9,-20 -22,-26 -50,-9 -59,-29 -9,-21 l 39,6 -27,-23 c -15,-13 -33,-26 -40,-29 -7,-2 -11,-7 -8,-10 10,-10 80,18 76,30 -3,7 1,10 10,6 22,-8 17,-20 -16,-35 -35,-15 -40,-29 -8,-23 19,4 19,2 -8,-26 -16,-18 -45,-38 -64,-47 -19,-8 -30,-17 -24,-19 10,-3 56,10 107,32 34,14 16,-12 -23,-34 -48,-27 -51,-35 -7,-26 l 32,6 -22,-20 c -13,-10 -23,-24 -23,-29 0,-6 -5,-12 -11,-14 -9,-3 -9,-10 0,-26 7,-13 16,-20 22,-17 5,4 7,10 4,15 -3,5 8,18 23,29 l 29,20 23,-21 c 14,-14 19,-23 12,-26 -8,-2 -3,-11 10,-23 17,-14 18,-17 6,-13 -14,5 -18,1 -18,-16 0,-12 -5,-20 -12,-18 -7,3 -12,23 -13,45 0,49 -11,65 -20,30 -4,-14 -14,-28 -23,-31 -10,-3 -23,-9 -31,-12 -9,-4 -11,-2 -7,5 10,15 1,14 -34,-4 -38,-20 -38,-29 0,-21 39,7 39,-9 0,-23 -33,-11 -40,-23 -12,-20 9,1 24,1 32,0 21,-2 -2,-22 -29,-24 -11,-1 -21,-7 -21,-14 0,-7 -12,-13 -27,-13 -18,0 -24,-3 -17,-10 12,-12 114,19 114,34 1,14 50,50 50,37 0,-5 -6,-16 -13,-23 -8,-7 -12,-19 -10,-25 3,-8 -13,-17 -41,-25 -44,-12 -64,-31 -28,-27 35,3 36,-2 4,-21 -35,-21 -87,-27 -97,-10 -3,6 -17,10 -31,10 -14,0 -24,6 -24,14 0,11 9,13 38,10 l 37,-6 -24,20 c -15,12 -22,26 -18,35 4,10 -4,20 -25,30 -18,9 -32,24 -33,35 -1,19 -1,19 29,1 35,-21 46,-23 46,-9 0,6 -6,10 -12,10 -7,0 -19,4 -27,9 -12,8 -12,12 -2,25 7,8 10,19 7,25 -4,5 2,11 11,14 14,3 11,6 -9,11 -38,11 -36,30 2,22 19,-3 29,-2 25,4 -3,6 -12,10 -20,10 -7,0 -16,7 -19,17 -6,14 -8,14 -22,-3 -9,-10 -13,-14 -10,-7 4,6 -2,17 -11,23 -16,10 -15,11 5,6 14,-3 25,1 29,10 3,8 10,11 17,7 6,-4 5,1 -2,10 -8,9 -11,25 -7,37 4,12 2,20 -5,20 -6,0 -8,-4 -5,-10 3,-6 -1,-7 -10,-3 -9,3 -13,9 -8,12 12,9 15,39 3,46 -5,3 -10,16 -11,28 0,21 -1,21 -10,-2 -5,-14 -11,-33 -12,-43 -2,-10 -12,-25 -23,-33 -18,-14 -17,-15 11,-10 28,5 29,5 7,-7 -13,-6 -21,-17 -18,-24 3,-8 -3,-18 -12,-23 -9,-6 -12,-11 -6,-11 16,0 35,25 27,36 -4,5 -1,3 7,-4 13,-12 12,-16 -9,-33 -13,-10 -19,-19 -15,-19 5,0 -4,-9 -21,-20 -18,-12 -24,-20 -14,-20 8,0 24,7 35,15 23,17 34,19 34,5 0,-5 -7,-10 -15,-10 -8,0 -15,-6 -15,-14 0,-8 -8,-17 -17,-19 -13,-3 -12,-5 5,-6 32,-1 24,-22 -17,-43 -18,-9 -36,-19 -39,-23 -7,-8 55,1 86,12 13,4 12,2 -3,-10 -11,-9 -28,-17 -37,-17 -10,0 -18,-5 -18,-11 0,-6 9,-9 19,-6 30,8 14,-20 -20,-35 -31,-14 -39,-31 -13,-26 28,5 27,-21 0,-33 -14,-7 -23,-16 -20,-20 3,-5 -7,-11 -21,-15 -14,-3 -25,-10 -25,-15 0,-17 36,-9 70,16 19,14 30,25 26,25 -5,0 -3,7 5,16 14,17 20,10 33,-32 5,-16 2,-23 -14,-27 -17,-4 -19,-3 -10,8 7,8 7,16 2,19 -13,8 -36,-20 -28,-33 4,-5 -4,-17 -16,-25 -12,-9 -19,-19 -15,-22 4,-4 15,0 24,8 10,8 26,18 36,21 26,10 16,-15 -12,-29 -12,-6 -22,-15 -21,-20 0,-5 -16,-12 -37,-16 -76,-15 -84,-19 -94,-41 -8,-18 -17,-22 -43,-19 -40,5 -96,-38 -95,-71 0,-21 1,-21 8,-2 17,41 48,58 91,51 35,-5 40,-4 40,14 0,23 28,40 66,40 33,0 106,20 119,33 7,7 4,8 -8,3 -13,-4 -17,-2 -15,6 5,14 39,24 37,11 -3,-19 2,-34 10,-29 16,10 40,-5 55,-34 14,-28 12,-40 -6,-40 -6,0 -8,6 -5,13 6,18 -11,47 -29,47 -8,0 -20,-12 -26,-26 -11,-24 -10,-29 10,-42 25,-17 29,-32 7,-32 -14,0 -20,-12 -16,-33 1,-5 -3,-5 -9,-2 -6,4 -9,13 -6,20 3,8 0,15 -6,17 -12,4 -77,-12 -121,-30 -16,-7 -36,-12 -45,-12 -9,0 -23,-4 -31,-9 -24,-15 27,-34 95,-35 34,0 65,-4 68,-7 3,-3 -3,-14 -14,-24 -22,-19 -28,-7 -7,14 10,10 9,11 -5,6 -9,-4 -19,-12 -22,-20 -2,-7 -22,-18 -43,-25 -21,-7 -42,-16 -47,-21 -19,-18 3,-19 49,-3 39,13 49,13 56,2 5,-7 9,-16 9,-19 0,-8 -57,-31 -129,-53 -64,-19 -81,-20 -81,-5 0,6 9,9 20,6 31,-8 24,3 -10,14 -16,6 -29,14 -29,17 3,22 -3,32 -19,32 -13,0 -18,7 -18,23 1,17 -4,21 -20,20 -16,-2 -24,5 -28,22 -4,14 -11,25 -16,25 -12,0 -23,-43 -17,-67 3,-12 5,-9 6,10 0,15 6,27 11,27 10,0 14,-14 10,-40 -1,-12 1,-13 11,-3 17,17 40,16 33,-1 -3,-8 4,-21 16,-29 12,-9 19,-20 15,-26 -3,-6 1,-11 10,-11 9,0 15,-6 13,-12 -4,-10 -87,-14 -362,-16 l -356,-2 2,187 c 2,142 6,188 16,189 6,1 21,2 32,3 18,1 20,8 20,70 0,63 -2,72 -26,90 -14,11 -34,23 -45,26 -13,5 -19,16 -19,37 v 31 l 85,-7 c 72,-6 86,-5 91,9 7,17 -12,45 -30,45 -6,0 -2,-7 8,-15 25,-19 27,-19 -151,-19 -112,-1 -143,2 -143,12 0,7 -4,10 -10,7 -6,-4 -9,16 -7,49 1,31 3,56 4,56 12,1 32,-14 27,-21 -3,-5 -1,-9 5,-9 5,0 17,-3 27,-7 12,-4 15,-3 10,5 -4,7 -3,12 3,12 23,0 19,-19 -6,-29 -19,-7 -21,-10 -8,-9 11,1 30,-4 43,-10 12,-7 26,-11 31,-8 4,3 25,-7 46,-21 77,-52 22,-3 -77,69 -57,41 -163,119 -236,172 -74,54 -136,95 -139,92 -3,-2 15,-19 41,-37 25,-18 43,-35 41,-38 -3,-2 -11,1 -17,7 -14,14 -28,16 -28,3 0,-5 10,-12 23,-16 l 22,-7 -25,-8 c -24,-8 -23,-8 8,-9 18,-1 45,-8 60,-17 21,-13 19,-10 -8,15 -19,17 -31,31 -27,31 13,0 148,-102 142,-108 -3,-3 -15,3 -26,14 -16,14 -23,15 -26,7 -3,-8 -24,-13 -51,-14 -26,-1 -58,-5 -72,-9 -24,-8 -24,-8 5,-8 17,0 54,3 82,7 44,6 58,4 85,-13 l 33,-21 -40,-6 -40,-6 40,-2 c 32,-2 36,-4 20,-11 -20,-9 -20,-9 0,-10 14,-2 11,-5 -10,-10 l -30,-8 28,-1 c 24,-1 27,-5 25,-31 -1,-17 -8,-30 -15,-30 -7,0 -10,7 -7,18 4,12 3,13 -3,4 -7,-9 -22,-5 -64,18 l -54,30 h 35 c 19,0 41,4 49,9 8,5 -17,7 -60,5 -61,-2 -66,-1 -29,5 l 45,8 -57,1 c -54,2 -57,3 -63,33 -4,17 -5,32 -3,34 2,3 36,8 76,11 39,4 69,11 66,16 -3,5 -13,7 -22,4 -46,-13 -122,-17 -122,-7 0,6 19,12 43,13 l 42,1 -43,4 -43,4 2,39 c 4,52 -6,61 -56,51 -68,-15 -215,-23 -215,-12 0,8 75,16 211,24 25,2 25,3 11,22 -13,18 -24,20 -89,17 -40,-3 -73,0 -73,5 0,5 -12,9 -27,8 h -28 v 232 c 0,188 3,234 14,238 20,8 43,-15 38,-37 -4,-15 -1,-18 15,-12 18,5 20,3 16,-20 -5,-23 -3,-25 21,-19 14,3 31,10 37,14 6,5 14,6 17,2 4,-3 7,-1 7,6 0,8 -11,10 -35,5 -28,-5 -35,-3 -35,10 0,9 -4,16 -8,16 -5,0 -14,12 -21,26 -9,21 -17,25 -39,22 l -27,-4 v 143 c 0,79 1,143 2,143 1,0 32,-7 70,-16 79,-19 166,-13 276,17 40,11 86,21 103,23 17,2 53,16 80,30 27,14 50,25 51,26 1,0 2,-182 3,-405 z m -370,355 c 63,0 130,6 164,15 69,18 86,12 31,-11 -97,-40 -269,-56 -361,-33 -36,9 -44,16 -44,34 0,22 1,22 52,9 29,-8 100,-14 158,-14 z m -35,-829 c -34,-14 -185,-24 -185,-13 0,13 40,18 135,20 45,0 63,-2 50,-7 z m 55,-56 c 0,-12 -14,-15 -62,-16 -35,0 -85,-5 -113,-9 -35,-6 -17,-7 63,-4 72,4 112,2 112,-4 0,-6 -30,-13 -67,-16 -38,-4 -92,-9 -120,-11 -53,-5 -53,-5 -53,24 v 29 l 98,7 c 53,3 102,8 107,10 22,8 35,4 35,-10 z m 18,-169 c -4,-6 -7,35 -6,90 l 1,99 7,-90 c 3,-49 2,-94 -2,-99 z m -18,105 c 0,-5 -24,-11 -52,-15 -151,-16 -188,-18 -188,-8 0,6 33,13 73,16 76,6 134,12 155,14 6,1 12,-2 12,-7 z m 0,-30 c 0,-4 -35,-11 -77,-15 -43,-3 -98,-9 -123,-12 -31,-5 -42,-3 -35,4 6,6 48,15 95,20 117,13 140,13 140,3 z m 0,-30 c 0,-4 -39,-11 -87,-15 -49,-4 -103,-9 -120,-12 -19,-4 -33,-2 -33,4 0,10 113,28 193,31 26,0 47,-3 47,-8 z m 296,-32 c 25,-17 43,-33 40,-36 -4,-5 -96,56 -96,64 0,8 15,1 56,-28 z m -336,1 -45,-7 44,-1 c 24,-1 42,-5 38,-8 -3,-4 -50,-3 -104,2 l -98,8 60,7 c 33,3 80,6 105,6 h 45 z m -81,-26 c 2,-2 -16,-4 -42,-4 -25,0 -52,-2 -60,-5 -8,-4 -14,0 -14,9 0,11 11,13 56,9 31,-3 58,-7 60,-9 z M 630,965 V 880 H 590 550 V 585 290 h -95 -95 v 369 370 l 53,5 c 28,4 77,8 107,9 30,2 67,4 83,5 l 27,2 z m 458,-154 c 18,-16 22,-30 22,-74 v -55 l -103,42 c -126,52 -340,148 -348,155 -4,3 -9,43 -12,88 l -5,82 211,-109 c 117,-60 222,-118 235,-129 z m 1292,110 c 0,-4 -17,-7 -37,-8 h -38 l 30,12 c 29,13 45,11 45,-4 z m -1374,-1 c 8,0 14,-10 14,-25 0,-25 0,-25 -30,-10 -31,16 -44,52 -14,41 9,-3 22,-6 30,-6 z m 1080,-35 c 9,-8 13,-15 10,-15 -4,0 8,-14 26,-31 18,-18 24,-25 13,-18 -11,8 -23,18 -26,22 -3,5 -15,10 -25,11 -11,2 -20,12 -22,24 -4,26 4,28 24,7 z M 834,786 c 105,-47 204,-88 220,-92 22,-5 25,-9 14,-15 -10,-6 -59,10 -144,47 -71,31 -174,74 -229,96 -55,22 -102,42 -104,44 -2,2 8,4 24,4 16,0 114,-38 219,-84 z m -133,19 c 74,-31 180,-75 237,-98 l 102,-42 V 478 290 H 805 570 v 254 c 0,139 -3,268 -6,285 -4,17 -4,31 -2,31 3,0 66,-25 139,-55 z m 1663,-16 c 9,13 26,15 26,2 0,-8 -23,-18 -62,-27 -23,-5 -23,5 -1,22 12,8 20,9 24,2 4,-7 9,-6 13,1 z m 64,2 c 9,-6 30,-13 46,-16 44,-9 25,-15 -24,-7 -24,4 -45,13 -48,20 -4,14 2,15 26,3 z m -315,-15 c 3,-8 3,-26 -1,-41 -7,-26 -8,-26 -26,-7 -10,12 -16,29 -13,39 4,15 5,14 6,-4 1,-15 6,-21 16,-17 11,5 12,11 4,25 -5,11 -6,19 0,19 5,0 11,-6 14,-14 z m 184,-43 c -24,-24 -113,-61 -127,-53 -7,5 -24,3 -36,-2 -17,-8 -27,-8 -39,2 -21,17 -12,24 14,11 13,-7 22,-8 26,-1 3,6 17,7 30,4 28,-7 43,12 16,21 -11,3 -21,11 -24,18 -6,16 84,18 95,2 5,-6 14,-4 24,7 10,9 22,15 27,11 5,-3 2,-12 -6,-20 z m 32,-39 c -8,-9 -34,-26 -59,-37 -39,-18 -42,-21 -21,-25 22,-4 22,-5 -12,-28 -37,-25 -63,-32 -52,-14 3,6 -1,10 -9,10 -8,0 -17,3 -20,8 -2,4 14,6 37,5 23,-1 31,1 18,4 -28,6 -74,33 -67,40 2,2 13,-1 23,-8 16,-9 24,-9 39,0 18,12 18,12 -1,7 -20,-6 -20,-6 -1,9 11,8 30,15 42,15 12,0 37,7 55,15 43,18 44,18 28,-1 z m 6,-74 c -10,-11 -25,-20 -33,-20 -12,0 -12,4 3,20 10,11 25,20 33,20 12,0 12,-4 -3,-20 z m 92,-39 c 10,-13 14,-14 22,-2 6,10 13,11 30,2 11,-7 21,-16 21,-22 0,-6 -8,-6 -21,1 -15,8 -24,8 -34,0 -10,-8 -15,-8 -20,0 -15,24 -49,28 -71,9 -11,-11 -29,-21 -40,-23 -10,-2 -31,-7 -46,-11 -50,-13 -29,4 27,21 30,10 55,23 55,30 0,18 62,14 77,-5 z m -137,-1 c 0,-5 -5,-10 -11,-10 -6,0 -23,-9 -38,-19 -29,-21 -64,-14 -38,7 30,25 87,40 87,22 z m -143,-30 c 12,-10 33,-22 47,-26 39,-9 42,-25 4,-18 -18,4 -46,19 -63,35 -33,32 -21,41 12,9 z m 219,-45 c -8,-8 -19,-15 -25,-15 -6,0 -11,-10 -11,-22 0,-19 -2,-20 -10,-8 -14,21 -13,23 23,65 29,35 32,36 35,17 2,-12 -3,-29 -12,-37 z m 70,25 c 8,0 14,-7 14,-15 0,-22 54,-52 109,-61 25,-4 49,-7 54,-6 4,1 7,-7 7,-18 0,-11 -1,-20 -3,-20 -18,0 -127,46 -142,61 -12,10 -35,24 -53,30 -29,10 -31,13 -20,32 7,14 13,17 16,9 2,-6 10,-12 18,-12 z m 89,11 c -15,-6 -9,-9 25,-14 25,-3 46,-2 48,4 6,17 22,9 22,-11 0,-16 -7,-20 -35,-20 -35,0 -85,18 -85,30 0,12 13,20 29,19 12,0 11,-2 -4,-8 z m -231,-39 c -11,-11 -32,-22 -48,-26 -22,-5 -27,-11 -23,-26 6,-25 -15,-26 -39,-2 -10,9 -19,16 -21,15 -8,-7 -23,-2 -23,7 0,6 10,6 27,-1 18,-7 30,-6 37,1 7,7 3,10 -12,10 -12,0 -22,5 -22,10 0,12 7,12 35,1 13,-5 33,-1 60,15 46,25 55,24 29,-4 z m -225,-11 c 18,7 27,5 37,-8 11,-15 10,-19 -2,-21 -8,-2 -22,2 -30,9 -8,6 -18,9 -22,5 -4,-4 1,-13 10,-20 13,-10 15,-15 6,-24 -7,-7 -8,-12 -4,-12 5,0 3,-6 -3,-14 -9,-11 -6,-15 14,-20 14,-4 23,-10 21,-15 -3,-5 1,-15 10,-22 12,-10 17,-10 23,-1 8,14 41,6 41,-10 0,-6 -7,-8 -15,-4 -8,3 -15,2 -15,-3 0,-4 -13,-6 -30,-3 -16,2 -28,8 -25,12 9,14 -6,39 -20,34 -7,-3 -15,2 -18,10 -4,9 -11,16 -17,16 -6,0 -8,-4 -5,-10 3,-6 -1,-7 -9,-4 -13,5 -13,9 -2,27 8,12 17,32 20,44 6,18 4,20 -14,16 -14,-4 -20,-1 -20,11 0,12 5,13 23,7 12,-5 33,-4 46,0 z m 331,-9 c -8,-3 -23,-11 -32,-20 -16,-13 -18,-13 -18,0 0,17 40,39 55,30 5,-3 2,-8 -5,-10 z m -113,-28 c 2,-5 -2,-17 -9,-26 -15,-19 -68,-35 -68,-20 0,5 14,12 31,16 25,5 29,9 20,19 -6,8 -8,17 -4,21 9,8 26,3 30,-10 z m 197,-11 c 25,-16 46,-34 46,-40 0,-20 -10,-15 -32,13 -15,19 -23,22 -29,13 -4,-8 -1,-18 9,-26 16,-11 16,-12 0,-13 -9,0 -18,5 -20,11 -3,8 -9,7 -19,-4 -10,-10 -21,-12 -31,-6 -12,7 -18,4 -23,-10 -3,-11 -20,-27 -37,-36 -41,-20 -48,-12 -9,11 17,10 31,24 31,31 0,7 5,13 11,13 6,0 9,6 6,13 -21,52 -22,53 -4,38 9,-7 14,-17 12,-22 -3,-4 4,-13 15,-19 24,-13 26,-3 4,21 -17,19 -12,39 11,39 8,0 34,-12 59,-27 z m -296,-18 c 3,-3 0,-5 -6,-5 -7,0 -12,-4 -12,-10 0,-5 7,-10 15,-10 8,0 15,-5 15,-11 0,-6 -7,-8 -16,-5 -9,3 -18,6 -20,6 -2,0 -4,6 -4,14 0,8 -9,18 -20,21 -33,11 -22,24 11,15 18,-5 34,-12 37,-15 z m 139,-6 c -4,-16 -3,-18 9,-8 7,6 11,15 8,20 -3,5 0,9 5,9 6,0 11,-6 11,-14 0,-16 -24,-38 -36,-34 -5,1 -35,-8 -67,-20 -69,-26 -68,-26 -93,-7 -15,12 -15,14 -2,9 25,-8 139,28 149,49 13,23 23,22 16,-4 z m -200,-46 c -10,-9 -47,27 -47,45 0,10 8,6 27,-12 14,-14 23,-29 20,-33 z m 470,-37 c 33,-18 27,-20 -16,-5 -17,6 -31,15 -31,20 0,5 -8,9 -17,10 -11,0 -13,3 -5,6 6,2 12,14 13,26 0,18 3,16 15,-10 7,-18 26,-39 41,-47 z m 23,44 c 0,-24 -10,-25 -36,-4 -16,13 -16,15 -1,10 9,-3 17,-1 17,4 0,6 5,10 10,10 6,0 10,-9 10,-20 z m -315,-30 c -16,-11 -37,-20 -45,-20 -23,1 31,40 55,40 17,0 15,-4 -10,-20 z m 189,1 c 26,-11 36,-20 28,-25 -7,-4 -22,0 -34,8 -12,9 -30,16 -40,16 -10,0 -18,5 -18,10 0,14 18,11 64,-9 z"
       id="path3" />
    <path
       d="m 2030,2978 c -32,-15 -66,-21 -121,-22 -64,-1 -82,-5 -116,-28 -24,-16 -49,-44 -62,-70 -23,-48 -28,-113 -10,-124 7,-4 9,0 5,14 -11,32 12,99 45,137 40,45 109,67 169,54 35,-8 46,-6 71,12 46,32 103,36 150,10 22,-13 45,-21 52,-18 16,5 -89,57 -116,57 -12,0 -42,-10 -67,-22 z"
       id="path4" />
    <path
       d="m 2164,2925 c 11,-8 23,-15 28,-15 4,0 8,-6 8,-14 0,-8 5,-18 10,-21 6,-3 10,1 10,9 0,22 -36,56 -57,56 -16,-1 -16,-2 1,-15 z"
       id="path5" />
    <path
       d="m 2240,2899 c 0,-6 6,-9 13,-6 24,9 75,-21 92,-54 11,-21 15,-46 12,-70 l -5,-39 39,5 c 33,4 44,1 64,-19 27,-27 42,-20 21,9 -7,10 -30,20 -52,24 -37,6 -39,8 -46,51 -9,56 -62,110 -108,110 -16,0 -30,-5 -30,-11 z"
       id="path6" />
    <path
       d="m 1751,2773 c -1,-25 2,-31 14,-27 8,4 15,13 15,21 0,8 -4,12 -9,8 -5,-3 -12,3 -14,12 -3,10 -5,4 -6,-14 z"
       id="path7" />
    <path
       d="m 1690,2695 c -7,-8 -15,-34 -17,-58 -4,-33 0,-47 17,-64 19,-21 40,-30 40,-18 0,3 -9,14 -20,25 -23,23 -26,64 -6,103 16,29 7,37 -14,12 z"
       id="path8" />
    <path
       d="m 1736,2544 c -3,-9 -6,-40 -6,-71 0,-49 4,-59 34,-89 21,-21 44,-34 59,-34 25,0 25,-1 11,-27 -21,-41 -18,-72 9,-82 22,-8 37,1 37,24 0,6 -5,3 -10,-5 -9,-13 -10,-13 -10,0 0,13 -1,13 -11,0 -8,-11 -9,-5 -5,25 12,81 13,78 -21,86 -18,3 -40,12 -48,19 -21,18 -38,88 -31,132 6,39 3,50 -8,22 z"
       id="path9" />
    <path
       d="m 2129,2317 c -18,-12 -43,-37 -55,-54 -12,-18 -25,-29 -29,-25 -4,4 -4,-3 -1,-15 5,-14 3,-23 -3,-23 -6,0 -11,-8 -11,-18 0,-16 -8,-19 -42,-18 -26,0 -54,-7 -71,-18 -37,-25 -27,-32 14,-11 20,11 44,15 65,12 38,-6 44,0 69,66 10,26 33,61 52,77 29,26 41,30 91,30 61,-1 92,-15 84,-40 -4,-12 -2,-13 9,-4 21,17 67,25 74,14 4,-6 11,-8 16,-4 5,3 7,10 4,15 -13,19 15,8 29,-13 9,-12 18,-19 21,-16 3,3 -2,15 -12,27 -16,19 -23,20 -72,12 -46,-7 -56,-6 -72,10 -28,28 -116,26 -160,-4 z"
       id="path10" />
    <path
       d="m 2516,2279 c -28,-22 -56,-69 -56,-91 1,-7 10,4 20,24 24,45 55,68 92,68 15,0 30,5 33,10 12,19 -62,10 -89,-11 z"
       id="path11" />
    <path
       d="m 2375,2166 c 17,-7 31,-10 33,-5 2,4 12,4 24,1 13,-3 19,-1 15,5 -4,6 -28,11 -54,11 -48,1 -48,1 -18,-12 z"
       id="path12" />
    <path
       d="m 1500,2086 c 19,-8 44,-15 55,-15 20,0 20,0 0,8 -11,5 -36,11 -55,15 l -35,6 z"
       id="path13" />
    <path
       d="m 915,2091 c -24,-23 -200,-102 -280,-125 -87,-25 -112,-36 -84,-36 35,0 199,55 268,90 76,38 135,79 116,80 -6,0 -15,-4 -20,-9 z"
       id="path14" />
    <path
       d="m 475,1928 c -27,-5 -61,-12 -75,-16 -24,-5 -25,-6 -2,-10 30,-5 132,17 132,29 0,5 -1,8 -2,8 -2,-1 -25,-6 -53,-11 z"
       id="path15" />
    <path
       d="m 1610,1862 c 0,-7 11,-24 24,-37 13,-13 27,-36 30,-52 4,-15 15,-36 23,-45 18,-20 4,-25 -16,-5 -11,10 -13,10 -7,0 4,-7 2,-13 -4,-13 -6,0 -9,-4 -6,-9 13,-20 -39,-38 -99,-34 -48,4 -69,0 -105,-19 -92,-47 -136,-167 -95,-259 10,-21 22,-39 26,-39 4,0 -1,19 -11,43 -27,58 -25,94 8,158 36,73 90,102 177,96 50,-3 65,0 95,21 26,17 44,22 68,18 32,-5 45,7 17,18 -27,10 -55,69 -56,116 0,40 -1,42 -10,20 l -10,-25 -25,30 c -13,17 -24,24 -24,17 z"
       id="path16" />
    <path
       d="m 524,1826 c -7,-19 14,-76 27,-76 5,0 3,13 -6,30 -18,34 -18,40 -5,40 6,0 17,-14 24,-31 10,-24 15,-27 19,-15 4,9 12,16 18,16 7,0 5,-10 -6,-26 -16,-25 -16,-25 4,-14 21,11 29,44 13,54 -4,2 -14,1 -22,-4 -10,-6 -17,-2 -24,12 -14,28 -34,34 -42,14 z"
       id="path17" />
    <path
       d="m 1939,1750 c -1,-14 -2,-30 -2,-37 0,-7 -12,-15 -27,-18 -15,-3 -36,-16 -46,-28 l -19,-21 29,18 c 19,12 39,16 62,13 19,-3 34,-2 34,4 0,5 -5,9 -11,9 -6,0 -9,6 -6,14 3,8 2,27 -3,43 -8,28 -8,28 -11,3 z"
       id="path18" />
    <path
       d="m 634,1743 c 15,-4 16,-7 5,-14 -11,-6 -8,-9 9,-9 13,0 22,6 22,15 0,10 -9,15 -27,14 -20,-1 -22,-3 -9,-6 z"
       id="path19" />
    <path
       d="m 617,1670 c 3,-11 14,-20 24,-20 12,0 16,-5 13,-15 -7,-17 11,-21 21,-5 5,8 11,7 21,-1 11,-9 14,-8 14,4 0,10 -14,18 -39,22 -29,5 -38,11 -34,21 3,8 -1,14 -10,14 -10,0 -13,-7 -10,-20 z"
       id="path20" />
    <path
       d="m 1598,1614 c 11,-8 27,-11 36,-8 24,9 11,21 -25,22 -30,1 -31,0 -11,-14 z"
       id="path21" />
    <path
       d="m 380,1603 c 0,-8 10,-12 25,-11 14,1 25,7 25,13 0,6 -11,11 -25,11 -14,0 -25,-6 -25,-13 z"
       id="path22" />
    <path
       d="m 689,1589 c -11,-7 -10,-9 6,-9 18,-1 18,-2 4,-13 -9,-7 -14,-18 -12,-24 3,-8 -4,-13 -18,-13 -17,0 -20,-3 -12,-11 17,-17 39,-5 57,32 9,18 16,33 16,34 0,9 -29,12 -41,4 z"
       id="path23" />
    <path
       d="m 514,1576 c -4,-9 -1,-27 5,-39 11,-20 11,-20 6,6 -4,19 -2,26 5,22 5,-3 10,-13 10,-22 0,-9 3,-13 7,-10 3,4 17,0 31,-9 14,-10 27,-12 31,-7 3,6 13,13 21,17 8,3 5,4 -8,2 -12,-2 -29,2 -36,10 -8,8 -18,14 -22,14 -4,0 -16,7 -26,16 -16,16 -18,15 -24,0 z"
       id="path24" />
    <path
       d="m 405,1560 c -3,-5 1,-10 9,-10 9,0 16,-4 16,-10 0,-5 7,-10 15,-10 8,0 15,-4 15,-10 0,-5 11,-10 25,-10 14,0 25,5 25,10 0,6 -8,10 -17,10 -10,0 -29,9 -43,20 -29,22 -36,24 -45,10 z"
       id="path25" />
    <path
       d="m 2340,1538 c -49,-26 -110,-105 -110,-142 1,-16 4,-14 15,12 33,75 103,132 162,132 44,0 111,-28 124,-51 15,-29 30,-23 17,7 -15,32 -56,54 -116,60 -37,5 -56,1 -92,-18 z"
       id="path26" />
    <path
       d="m 474,1489 c -5,-9 13,-49 22,-49 3,0 2,10 -1,23 -5,17 -4,19 4,7 6,-8 15,-16 21,-16 5,-1 15,-2 21,-3 5,0 8,-5 5,-10 -3,-5 6,-11 20,-14 18,-3 32,2 49,19 12,12 20,25 17,28 -3,3 4,6 16,6 11,0 28,3 37,7 14,5 16,2 10,-16 -6,-21 -5,-21 14,-9 18,11 23,11 31,-2 8,-13 10,-12 10,3 0,10 -7,17 -18,17 -10,0 -22,3 -26,7 -4,4 -25,8 -46,9 -33,2 -40,-1 -40,-17 0,-31 -56,-53 -62,-23 -3,18 -75,46 -84,33 z"
       id="path27" />
    <path
       d="m 447,1444 c -3,-4 -17,-7 -29,-8 -17,-1 -23,-8 -25,-26 -1,-15 0,-18 3,-7 4,12 12,16 25,12 11,-4 19,-2 19,5 0,8 8,10 21,7 12,-3 19,-1 16,6 -4,13 -21,20 -30,11 z"
       id="path28" />
    <path
       d="m 2210,1420 c 0,-13 -5,-18 -15,-14 -8,4 -15,2 -15,-4 0,-5 9,-12 19,-15 15,-4 20,2 23,24 3,16 1,29 -4,29 -4,0 -8,-9 -8,-20 z"
       id="path29" />
    <path
       d="m 1380,1410 c 0,-28 21,-41 38,-24 8,8 11,18 8,22 -4,3 -11,0 -15,-7 -7,-11 -11,-9 -20,5 -8,15 -10,16 -11,4 z"
       id="path30" />
    <path
       d="m 1776,1405 c -22,-7 -48,-22 -58,-33 -27,-26 -45,-86 -39,-125 4,-29 6,-27 12,21 8,60 34,96 86,118 45,20 92,17 131,-6 20,-12 32,-15 32,-8 0,7 7,3 16,-8 15,-18 15,-18 10,0 -6,16 -4,17 9,6 8,-7 15,-8 15,-2 0,16 -25,31 -39,23 -7,-5 -28,0 -49,10 -43,22 -73,23 -126,4 z"
       id="path31" />
    <path
       d="m 846,1395 c 4,-8 -1,-17 -9,-21 -9,-3 -13,-12 -10,-20 3,-8 1,-14 -5,-14 -5,0 -12,-13 -14,-30 -3,-20 0,-30 9,-30 7,0 13,-9 13,-20 0,-11 -2,-20 -6,-20 -3,0 -38,24 -78,54 l -72,53 -110,-9 c -147,-12 -154,-18 -14,-14 63,2 96,1 73,-1 -24,-2 -43,-8 -43,-12 0,-5 20,-6 45,-3 37,4 50,0 79,-22 19,-14 37,-26 40,-26 3,0 18,-12 33,-26 40,-37 194,-146 199,-141 3,3 -10,14 -28,26 -18,11 -28,21 -23,21 6,0 9,19 7,45 -3,36 -8,45 -23,45 -14,0 -19,7 -19,25 0,31 -15,32 -31,4 -13,-25 1,-39 39,-39 28,0 29,-16 1,-23 -30,-8 -69,22 -63,48 2,11 0,34 -4,50 -6,21 -5,33 5,40 17,13 29,75 15,75 -6,0 -9,-7 -6,-15 z m 41,-214 c 22,4 32,-3 30,-20 -1,-17 -6,-16 -45,12 -25,18 -61,47 -81,65 -24,23 -16,19 26,-12 34,-26 66,-46 70,-45 z"
       id="path32" />
    <path
       d="m 2059,1379 c -21,-18 -21,-20 -4,-13 51,19 96,17 121,-7 19,-18 24,-19 24,-6 0,45 -99,63 -141,26 z"
       id="path33" />
    <path
       d="m 1653,1180 c -38,-59 -19,-161 33,-180 15,-6 33,-9 40,-6 8,3 12,-6 11,-29 -1,-37 17,-65 41,-65 12,0 10,5 -7,21 -19,18 -22,29 -18,60 4,29 2,36 -9,32 -67,-25 -119,80 -79,157 17,33 7,41 -12,10 z"
       id="path34" />
    <path
       d="m 1486,1098 c -24,-34 -21,-113 5,-139 14,-14 18,-24 11,-31 -6,-6 -12,-6 -16,1 -4,6 -22,11 -41,11 -25,0 -40,-8 -58,-30 -19,-22 -26,-26 -31,-15 -13,35 -159,5 -197,-41 -19,-24 -1,-29 24,-7 12,11 32,26 44,32 28,14 98,14 125,0 16,-9 23,-7 34,10 8,11 24,26 35,31 25,14 62,3 55,-16 -7,-18 10,-18 21,0 11,18 51,38 63,31 23,-14 8,24 -15,39 -14,9 -25,12 -25,7 0,-6 8,-15 18,-20 15,-9 15,-10 0,-11 -44,0 -68,67 -43,125 18,45 14,56 -9,23 z"
       id="path35" />
    <path
       d="m 650,1083 c 0,-5 28,-7 62,-5 107,5 117,9 26,11 -49,0 -88,-2 -88,-6 z"
       id="path36" />
    <path
       d="m 1139,987 c 6,-8 8,-16 5,-20 -3,-3 5,-11 18,-18 21,-11 22,-11 9,4 -7,10 -10,17 -6,17 4,0 2,7 -5,15 -7,8 -17,15 -22,15 -7,0 -6,-5 1,-13 z"
       id="path37" />
    <path
       d="m 1005,970 c -6,-9 1,-14 18,-11 4,0 7,-3 7,-9 0,-5 7,-10 16,-10 18,0 10,16 -16,30 -13,7 -21,7 -25,0 z"
       id="path38" />
    <path
       d="m 1557,848 c -18,-18 -35,-33 -39,-33 -14,0 -20,-14 -13,-35 6,-19 9,-17 35,23 30,48 69,68 110,56 44,-13 54,-11 40,6 -8,9 -30,15 -57,15 -37,0 -50,-5 -76,-32 z"
       id="path39" />
    <path
       d="m 1308,804 c -16,-8 -28,-19 -28,-25 0,-6 10,-3 22,5 32,23 90,20 122,-5 26,-20 35,-49 16,-49 -5,0 -10,-4 -10,-10 0,-6 10,-6 27,1 15,5 38,8 50,4 13,-3 23,-1 23,5 0,5 -7,10 -15,10 -9,0 -18,7 -21,15 -8,21 -24,19 -25,-2 0,-13 -3,-12 -10,5 -5,13 -6,29 -2,35 3,7 3,9 -1,5 -4,-3 -23,0 -41,8 -43,18 -73,17 -107,-2 z"
       id="path40" />
    <path
       d="m 1094,614 c -1,-35 2,-44 16,-44 19,0 34,-26 24,-41 -3,-5 -1,-9 5,-9 5,0 12,4 16,10 3,5 12,7 19,4 8,-3 17,-1 21,5 4,7 -4,11 -19,11 -16,0 -26,6 -26,14 0,8 -8,17 -19,21 -13,4 -17,12 -14,28 3,13 -1,28 -9,34 -10,9 -13,3 -14,-33 z"
       id="path41" />
    <path
       d="m 1213,625 c 5,-30 3,-35 -13,-35 -30,0 -32,-16 -5,-34 34,-22 45,-19 16,4 -21,18 -21,20 -5,21 11,1 22,1 27,0 4,-1 4,11 1,25 -5,19 -4,25 5,20 6,-4 11,-13 11,-21 0,-7 14,-19 30,-27 17,-7 29,-17 27,-23 -5,-15 31,-46 38,-34 4,5 16,7 27,3 15,-4 19,-2 16,7 -3,8 -15,13 -27,12 -15,-2 -24,5 -31,22 -5,14 -14,25 -19,25 -5,0 -7,10 -4,21 5,19 3,21 -19,16 -18,-5 -30,-1 -43,13 -27,30 -38,24 -32,-15 z"
       id="path42" />
    <path
       d="m 1993,614 c -37,-20 -69,-40 -71,-45 -2,-5 -12,-9 -23,-9 -10,0 -19,-4 -19,-9 0,-5 24,-9 54,-8 30,1 54,6 53,11 -1,5 4,11 12,14 8,3 11,0 7,-7 -11,-17 10,-13 25,5 12,14 14,13 21,-7 5,-12 11,-19 15,-16 3,4 -2,18 -11,32 -15,23 -15,27 -1,41 14,14 20,34 11,34 -2,0 -35,-16 -73,-36 z"
       id="path43" />
    <path
       d="m 1382,477 c 11,-9 15,-21 11,-37 -4,-15 -3,-21 5,-16 6,3 15,-1 20,-10 6,-10 12,-13 16,-6 3,6 0,17 -8,24 -8,8 -16,23 -18,34 -2,10 -12,20 -23,22 -18,3 -19,2 -3,-11 z"
       id="path44" />
    <path
       d="m 1457,439 c -3,-11 -3,-28 1,-37 5,-13 8,-10 13,13 l 7,30 1,-29 c 1,-24 4,-27 22,-23 15,4 19,2 15,-9 -3,-8 -1,-14 5,-14 6,0 7,-4 4,-10 -3,-5 1,-10 11,-10 12,0 15,-6 11,-21 -3,-13 -1,-19 6,-16 7,2 12,14 12,26 1,24 21,42 41,34 6,-2 15,0 18,5 12,20 -36,20 -55,1 -23,-23 -42,-16 -33,13 5,18 3,20 -20,16 -23,-5 -26,-2 -26,23 0,34 -25,40 -33,8 z"
       id="path45" />
    <path
       d="m 1170,418 c 1,-27 25,-63 34,-50 3,5 -1,15 -9,22 -8,7 -15,18 -15,24 0,6 7,2 16,-9 13,-17 16,-18 25,-5 7,10 12,11 15,4 3,-7 14,-10 24,-7 12,3 20,0 20,-7 0,-7 8,-2 18,10 18,22 19,22 50,6 29,-15 32,-15 32,-1 0,9 -4,13 -10,10 -5,-3 -10,-2 -10,3 0,16 -38,21 -57,6 -22,-16 -53,-18 -53,-3 0,7 -10,9 -24,5 -14,-3 -28,-2 -31,4 -11,18 -25,11 -25,-12 z"
       id="path46" />
    <path
       d="m 412,555 c -7,-14 -12,-31 -11,-38 0,-7 4,-3 9,8 7,17 9,17 9,3 1,-22 21,-24 21,-3 0,8 5,15 10,15 7,0 7,-6 0,-19 -14,-28 -12,-36 5,-21 18,15 20,50 4,50 -7,0 -17,7 -23,16 -11,14 -13,12 -24,-11 z"
       id="path47" />
    <path
       d="m 420,453 c 0,-15 -2,-16 -10,-3 -8,13 -10,12 -10,-4 0,-14 6,-17 25,-14 13,3 26,0 29,-6 2,-6 5,-1 5,11 1,17 -3,21 -16,16 -11,-4 -14,-3 -9,5 4,7 2,12 -3,12 -6,0 -11,-8 -11,-17 z"
       id="path48" />
    <path
       d="m 439,400 c -1,-3 -3,-21 -4,-41 -2,-33 0,-36 23,-36 24,0 25,0 7,13 -14,10 -15,14 -4,14 12,0 12,2 -1,10 -12,8 -12,10 5,11 15,0 16,2 5,6 -8,3 -18,11 -22,17 -4,6 -8,9 -9,6 z"
       id="path49" />
    <path
       d="m 399,390 c -4,-27 -2,-70 3,-70 14,0 21,51 9,63 -6,6 -11,9 -12,7 z"
       id="path50" />
    <path
       d="m 636,792 c -3,-3 -5,-60 -5,-126 1,-77 4,-110 9,-91 5,21 8,5 9,-57 0,-48 6,-89 11,-91 6,-3 5,-4 -2,-3 -8,2 -15,26 -19,62 l -6,59 1,-64 1,-63 60,-19 c 33,-10 61,-19 63,-19 1,0 2,82 2,183 v 182 l -59,27 c -33,14 -62,23 -65,20 z m 74,-38 c 23,-14 23,-14 3,-9 -25,7 -26,3 -16,-35 l 7,-25 8,25 c 4,14 5,-44 3,-129 -5,-158 -8,-172 -28,-170 -9,0 -9,2 1,6 7,3 11,22 10,51 l -1,47 -7,-45 c -5,-33 -8,-11 -11,85 l -3,130 -6,-125 -6,-125 -2,161 c -1,88 1,164 5,167 9,10 14,8 43,-9 z m 39,-163 c -1,-82 -6,-155 -10,-163 -11,-17 -11,-18 -9,151 1,122 5,161 16,161 2,0 3,-67 3,-149 z"
       id="path51" />
    <path
       d="m 693,590 c 0,-41 2,-58 4,-37 2,20 2,54 0,75 -2,20 -4,3 -4,-38 z"
       id="path52" />
    <path
       d="m 882,523 3,-176 45,-13 c 25,-7 48,-10 51,-6 4,4 5,82 2,173 l -6,166 -49,16 -48,15 z m 62,141 c -7,-3 -8,-22 -2,-60 5,-31 9,-59 9,-62 1,-4 1,-46 0,-94 -1,-71 -4,-88 -16,-88 -12,0 -15,14 -17,63 l -1,62 -7,-60 c -5,-44 -7,-22 -8,88 -1,89 2,146 7,142 5,-3 12,-1 16,5 3,5 12,10 18,9 8,0 8,-2 1,-5 z"
       id="path53" />
    <path
       d="m 934,460 c 0,-52 1,-74 3,-47 2,26 2,68 0,95 -2,26 -3,4 -3,-48 z"
       id="path54" />
    <path
       d="m 2880,1838 c 0,-18 -3,-51 -7,-73 -3,-22 -3,-37 0,-34 11,9 24,129 15,135 -4,3 -8,-10 -8,-28 z"
       id="path55" />
    <path
       d="m 2690,199 c 0,-23 41,-41 81,-36 32,4 32,4 -8,5 -31,2 -46,8 -57,24 -12,16 -16,18 -16,7 z"
       id="path56" />
  </g>
</svg>
