<?xml version="1.0" encoding="UTF-8" standalone="no"?>
<svg
   version="1.0"
   width="300.000000pt"
   height="272.000000pt"
   viewBox="0 0 300.000000 272.000000"
   preserveAspectRatio="xMidYMid meet"
   id="svg12"
   sodipodi:docname="levi.svg"
   inkscape:version="1.4 (86a8ad7, 2024-10-11)"
   xmlns:inkscape="http://www.inkscape.org/namespaces/inkscape"
   xmlns:sodipodi="http://sodipodi.sourceforge.net/DTD/sodipodi-0.dtd"
   xmlns="http://www.w3.org/2000/svg"
   xmlns:svg="http://www.w3.org/2000/svg">
  <defs
     id="defs12" />
  <sodipodi:namedview
     id="namedview12"
     pagecolor="#ffffff"
     bordercolor="#000000"
     borderopacity="0.25"
     inkscape:showpageshadow="2"
     inkscape:pageopacity="0.0"
     inkscape:pagecheckerboard="0"
     inkscape:deskcolor="#d1d1d1"
     inkscape:document-units="pt"
     inkscape:zoom="2.296875"
     inkscape:cx="199.83673"
     inkscape:cy="127.34694"
     inkscape:window-width="1920"
     inkscape:window-height="1051"
     inkscape:window-x="-9"
     inkscape:window-y="-9"
     inkscape:window-maximized="1"
     inkscape:current-layer="svg12" />
  <metadata
     id="metadata1">
Created by potrace 1.10, written by Peter Selinger 2001-2011
</metadata>
  <g
     transform="matrix(0.04653149,0,0,-0.0438488,-22.935584,104.44402)"
     fill="#000000"
     stroke="none"
     id="g12">
    <path
       d="m 1620,2383 c -14,-2 -122,-17 -240,-34 -323,-45 -508,-96 -559,-154 -53,-61 -99,-244 -114,-460 l -10,-150 -79,-39 c -107,-54 -147,-111 -113,-162 20,-31 108,-74 153,-74 18,0 34,-6 36,-12 3,-7 17,-55 32,-106 15,-51 33,-97 41,-104 11,-9 12,-7 7,7 -6,14 -4,16 6,10 9,-5 11,-4 6,4 -4,6 -11,9 -16,6 -4,-3 -11,2 -14,10 -5,13 -2,14 17,3 12,-7 24,-12 27,-11 3,1 6,-13 7,-30 3,-44 49,-132 89,-172 41,-41 120,-67 175,-59 33,6 41,2 71,-27 19,-19 61,-47 93,-63 33,-16 61,-31 63,-32 2,-1 -24,-27 -57,-59 -71,-67 -100,-120 -135,-241 -30,-103 -59,-306 -54,-384 l 3,-55 8,60 c 29,239 40,304 63,377 37,116 64,166 125,227 l 54,52 16,-65 c 8,-36 17,-67 20,-69 2,-2 23,-11 47,-22 44,-19 48,-25 33,-53 -7,-13 1,-32 30,-77 74,-110 148,-274 158,-349 5,-37 13,-71 17,-75 9,-9 -5,149 -22,244 -8,44 -18,100 -21,124 l -6,45 36,-36 c 20,-20 45,-39 57,-43 11,-3 20,-12 20,-18 0,-7 7,-57 15,-112 8,-55 15,-124 15,-152 0,-31 4,-53 11,-53 6,0 8,11 5,27 -2,16 -8,68 -11,118 -4,50 -11,109 -16,133 -7,32 -6,49 5,70 12,24 12,36 0,92 -9,35 -20,73 -26,84 -12,22 -28,86 -22,86 1,0 14,-11 28,-24 37,-33 59,-102 46,-140 -15,-42 -11,-66 5,-31 8,17 14,24 15,17 0,-7 11,-93 25,-190 13,-97 25,-190 27,-206 2,-16 9,-32 17,-34 9,-3 11,0 6,7 -4,7 -8,105 -10,219 -2,114 -6,231 -10,260 -7,50 -7,52 16,51 18,0 38,-19 77,-69 28,-38 52,-75 52,-83 0,-7 -11,-24 -25,-37 -14,-13 -25,-28 -25,-34 0,-6 7,-2 16,9 13,18 14,17 8,-13 -10,-49 2,-38 21,19 l 17,51 22,-20 c 48,-44 100,-53 146,-27 37,21 38,19 29,-33 -11,-56 -31,-85 -88,-130 -47,-35 -82,-40 -135,-18 -25,10 -35,22 -40,47 -15,77 -61,229 -69,229 -5,0 -6,-8 -2,-18 9,-19 43,-158 76,-309 12,-57 26,-103 31,-103 11,0 10,4 -6,75 -8,33 -14,61 -13,62 1,1 24,-3 52,-8 63,-12 101,1 147,49 56,58 63,78 61,173 -1,94 -12,126 -62,173 -27,26 -35,28 -77,23 -40,-4 -50,-2 -65,16 -16,20 -15,23 5,50 17,24 21,43 22,114 0,75 3,88 26,116 36,46 58,92 58,122 0,15 8,39 19,53 40,58 122,239 128,284 l 6,47 37,-42 c 39,-43 64,-47 36,-5 -21,33 -52,123 -60,180 l -7,47 53,34 c 73,47 121,100 121,132 0,61 -81,104 -193,105 h -75 l -43,88 c -23,49 -42,92 -42,96 0,12 -140,259 -168,296 -33,43 -58,65 -97,83 -31,15 -141,27 -185,20 z m 162,-34 c 47,-12 124,-97 175,-193 71,-135 104,-208 100,-220 -7,-17 -112,-53 -222,-77 -49,-11 -126,-28 -170,-39 -224,-54 -567,-91 -797,-85 -71,2 -128,0 -128,-4 0,-15 196,-20 369,-11 219,12 227,13 694,110 84,18 201,53 239,71 25,13 50,11 42,-2 -3,-6 -2,-14 3,-18 10,-6 49,-75 65,-114 7,-15 -4,-24 -65,-52 -79,-38 -306,-99 -432,-115 -44,-6 -97,-16 -118,-21 -78,-20 -488,-59 -617,-58 -88,0 -185,11 -195,21 -13,12 14,336 35,428 34,151 57,206 94,228 94,54 376,118 651,147 82,9 152,18 155,21 6,6 67,-2 122,-17 z m 532,-583 c 121,-37 115,-102 -18,-180 -97,-58 -414,-151 -599,-176 -40,-5 -121,-17 -182,-25 -60,-8 -159,-19 -220,-25 -60,-6 -137,-15 -170,-20 -33,-5 -125,-14 -205,-20 -132,-10 -154,-9 -245,9 -110,23 -148,44 -153,85 -4,34 54,94 129,131 l 49,25 1,-37 c 1,-21 3,-31 6,-22 3,14 8,15 41,3 52,-18 305,-18 472,2 518,59 937,166 948,242 3,19 9,22 51,22 26,0 69,-6 95,-14 z m -78,-301 c 5,-30 7,-55 3,-55 -4,0 -12,-27 -17,-59 -6,-33 -22,-88 -36,-123 -30,-75 -78,-171 -72,-143 3,11 8,47 12,80 4,33 18,89 32,125 18,47 25,86 26,142 1,76 2,79 36,87 3,0 10,-24 16,-54 z m -66,-12 c 0,-27 -5,-66 -11,-88 -6,-22 -11,-48 -12,-57 -1,-9 -4,-15 -8,-12 -9,5 -23,-31 -24,-61 -4,-57 -6,-65 -20,-65 -19,0 -19,4 2,43 12,24 12,29 2,20 -12,-10 -13,7 -10,110 1,67 7,127 13,134 8,10 19,14 61,22 4,0 7,-20 7,-46 z m -91,-30 c 3,-75 -9,-143 -25,-143 -16,0 -18,14 -5,38 5,9 12,40 15,67 l 6,50 -23,-65 c -26,-71 -65,-151 -67,-135 -1,6 -3,19 -5,30 -2,11 -5,46 -7,77 -2,32 -6,58 -10,58 -5,0 -8,9 -8,20 0,14 11,22 43,30 23,6 47,13 52,15 26,9 32,2 34,-42 z m -146,4 c 3,-8 8,-43 12,-79 6,-55 5,-65 -9,-65 -12,0 -16,11 -16,47 0,26 -3,62 -6,79 -6,31 9,45 19,18 z m -34,-42 c -3,-51 -13,-48 -23,8 -6,30 -4,37 9,37 13,0 15,-10 14,-45 z m -45,13 c 3,-13 8,-44 11,-70 5,-40 3,-48 -9,-48 -9,0 -16,-4 -16,-10 0,-5 7,-10 15,-10 20,0 19,-17 -2,-30 -15,-9 -14,-10 5,-5 19,6 23,3 20,-12 -2,-10 -13,-19 -24,-21 -12,-2 -32,-15 -45,-29 -20,-22 -21,-25 -5,-19 57,20 114,28 195,25 49,-2 92,-7 96,-10 3,-4 -4,-59 -16,-122 -19,-95 -29,-124 -57,-162 l -34,-47 -20,22 c -53,56 -171,68 -246,24 -48,-29 -81,-85 -82,-141 0,-20 -5,-33 -12,-33 -52,0 -206,24 -268,41 -94,27 -135,47 -204,104 -50,40 -57,43 -84,34 -50,-17 -110,5 -165,63 -78,80 -100,166 -56,222 44,55 108,18 170,-99 24,-44 45,-61 35,-27 -18,57 -37,145 -34,154 2,6 16,-13 31,-43 26,-54 70,-109 87,-109 4,0 -3,23 -17,51 -13,28 -22,58 -18,66 3,9 -4,42 -16,74 -26,70 -21,89 22,89 24,0 30,-3 25,-16 -3,-9 -6,-47 -6,-85 0,-44 -4,-68 -10,-64 -27,16 10,-53 41,-80 13,-11 18,-13 12,-5 -15,16 -17,50 -4,50 5,0 18,-16 30,-36 12,-19 25,-33 30,-30 4,3 16,-3 26,-14 22,-25 104,-50 160,-50 51,0 145,27 145,41 0,6 -7,9 -15,5 -12,-4 -15,3 -15,29 0,64 -87,86 -125,32 -19,-28 -19,-46 2,-69 15,-17 15,-18 -9,-18 -52,0 -118,31 -143,68 -14,20 -21,39 -17,43 13,11 269,31 319,24 47,-7 47,-7 30,11 -16,17 -32,19 -140,17 -67,-1 -144,-6 -172,-12 -27,-5 -51,-8 -52,-7 -2,1 1,22 5,47 l 7,44 55,7 c 30,4 114,11 185,14 72,4 137,10 145,15 26,15 -200,10 -290,-6 -47,-8 -89,-15 -93,-15 -5,0 -7,17 -5,38 l 3,37 100,7 c 98,6 315,33 360,44 29,7 33,-4 41,-118 4,-51 8,-100 10,-108 1,-8 3,-17 3,-19 1,-2 11,7 22,20 35,39 51,89 57,177 5,79 17,106 26,60 z m -40,0 c -4,-6 -7,-27 -6,-46 1,-19 -5,-46 -12,-61 -7,-14 -11,-32 -9,-38 3,-7 -2,-13 -10,-13 -10,0 -16,22 -23,76 -10,72 -9,77 10,84 32,13 58,12 50,-2 z m -604,-122 c 0,-90 -28,-79 -43,17 -5,34 -4,37 19,37 22,0 24,-3 24,-54 z m -146,-36 c 10,-39 22,-68 27,-65 5,4 6,-1 3,-9 -3,-9 -9,-16 -13,-16 -11,0 -91,132 -91,150 0,6 13,10 28,10 26,0 29,-4 46,-70 z m -294,28 c 0,-18 7,-57 14,-85 8,-29 12,-53 10,-53 -7,0 -61,114 -68,143 -6,24 -4,27 19,27 22,0 25,-4 25,-32 z m 160,25 c 0,-5 -5,-25 -11,-45 -8,-31 -15,-38 -35,-38 -29,0 -63,-34 -64,-65 -2,-31 -28,46 -33,99 l -5,45 67,4 c 36,2 69,4 74,5 4,1 7,-1 7,-5 z m 58,-30 c 11,-21 22,-65 25,-98 6,-59 6,-60 -11,-35 -9,14 -29,38 -44,53 -26,27 -27,30 -16,73 7,24 16,44 20,44 4,0 16,-17 26,-37 z m 172,2 c 0,-20 7,-52 15,-72 20,-46 19,-53 -5,-53 -15,0 -20,7 -20,28 0,15 -3,51 -6,80 -5,36 -3,52 5,52 6,0 11,-16 11,-35 z m 790,-30 c 0,-32 -3,-35 -29,-35 -24,0 -28,3 -24,20 3,11 9,20 14,20 5,0 6,7 3,15 -4,10 0,15 15,15 17,0 21,-6 21,-35 z m 112,0 c -4,-34 -6,-35 -45,-35 -39,0 -40,0 -22,20 10,11 28,21 39,21 17,1 18,2 3,6 -21,6 -13,23 12,23 14,0 16,-7 13,-35 z m -573,-125 c 4,0 13,-11 19,-24 22,-49 -43,-89 -82,-50 -9,8 -16,24 -16,34 0,22 39,52 58,45 8,-3 17,-5 21,-5 z m 431,-248 c 19,-9 43,-31 53,-49 25,-44 25,-129 -2,-180 -58,-114 -248,-105 -297,14 -32,75 -5,171 58,212 43,27 138,29 188,3 z M 1376,706 c 17,-16 84,-117 84,-125 0,-3 -4,-12 -9,-20 -8,-12 -16,-11 -54,5 -44,18 -46,21 -61,81 -9,34 -16,67 -16,73 0,13 39,4 56,-14 z m 114,-12 c 30,-3 65,-7 78,-10 l 22,-4 -27,-43 c -15,-23 -28,-44 -29,-46 -2,-1 -20,7 -41,19 -43,24 -112,109 -77,96 10,-4 44,-10 74,-12 z m 147,-65 c 11,-11 6,-49 -7,-49 -15,0 -32,30 -26,45 6,18 18,19 33,4 z m -124,-48 c 17,-14 20,-14 33,3 15,22 16,21 34,-13 10,-20 50,-169 50,-188 0,-3 -13,8 -30,24 -24,23 -130,187 -130,200 0,6 22,-7 43,-26 z m 473,-58 c -4,-4 -16,3 -26,17 -29,37 -24,49 7,18 15,-15 23,-31 19,-35 z m -467,-41 c 27,-54 45,-110 60,-186 11,-59 21,-111 21,-115 0,-3 -20,35 -44,85 -24,51 -63,120 -87,155 -42,62 -42,63 -26,92 10,16 17,35 17,43 0,28 21,2 59,-74 z m 416,67 c 4,-5 8,-33 10,-60 l 2,-50 -33,50 c -39,58 -39,58 -16,64 28,8 31,7 37,-4 z m -162,-10 c 22,-10 25,-18 31,-107 12,-190 7,-209 -20,-67 -13,72 -29,142 -34,158 -10,31 -10,31 23,16 z m 317,-14 c 59,-31 90,-126 53,-167 -39,-43 -142,-8 -170,59 -21,51 -28,103 -14,103 6,0 11,-11 11,-24 0,-14 7,-31 15,-40 8,-8 15,-18 15,-22 0,-13 78,-84 92,-84 8,0 23,7 34,16 19,15 12,15 -28,-1 -26,-11 -23,20 4,39 12,9 19,18 16,21 -3,3 -16,-4 -31,-15 -30,-24 -33,-24 -41,-5 -4,10 5,22 27,35 19,12 25,20 16,20 -9,0 -28,-9 -41,-20 -45,-35 -54,5 -11,45 15,14 23,25 17,25 -6,0 -21,-11 -34,-25 -16,-17 -26,-21 -31,-14 -11,18 1,46 24,57 30,15 44,14 77,-3 z M 1680,408 c 0,-16 -4,-28 -10,-28 -5,0 -10,18 -10,39 0,22 -2,48 -5,58 -3,10 1,5 9,-12 8,-16 15,-42 16,-57 z"
       id="path1" />
    <path
       d="m 869,2169 c -22,-42 -59,-165 -43,-144 8,11 17,19 19,18 3,-2 11,-3 18,-3 9,0 9,2 0,8 -9,5 -9,19 -2,51 5,25 13,49 17,55 8,13 12,36 6,36 -2,0 -8,-10 -15,-21 z"
       id="path2" />
    <path
       d="m 852,1995 c -15,-33 -15,-35 3,-35 10,0 15,10 15,30 0,37 -3,37 -18,5 z"
       id="path3" />
    <path
       d="m 866,1938 c -8,-13 -22,-54 -30,-91 -18,-79 -19,-90 -7,-83 9,6 26,69 38,141 3,17 10,36 15,43 6,6 8,12 4,12 -3,0 -12,-10 -20,-22 z"
       id="path4" />
    <path
       d="m 802,1665 c -10,-21 -9,-27 2,-31 8,-3 12,-13 9,-22 -4,-15 -3,-15 6,-2 8,11 7,17 -3,24 -12,8 -12,13 1,33 8,13 11,23 6,23 -5,0 -15,-11 -21,-25 z"
       id="path5" />
    <path
       d="m 740,1473 c -8,-4 -21,-14 -28,-24 -7,-10 -33,-33 -58,-50 -25,-17 -43,-33 -41,-36 9,-9 66,27 114,72 45,43 48,51 13,38 z"
       id="path6" />
    <path
       d="m 1358,1230 c -32,-5 -70,-16 -85,-24 -37,-20 -17,-20 38,-1 65,23 196,24 237,2 36,-20 45,-10 10,12 -28,17 -125,22 -200,11 z"
       id="path7" />
    <path
       d="m 873,1153 c -20,-7 -16,-89 6,-132 21,-41 50,-64 93,-74 36,-9 43,6 28,57 -17,54 -32,70 -24,26 4,-19 11,-39 15,-44 30,-34 -24,-29 -72,5 -21,14 -31,33 -39,75 -13,63 -9,84 18,84 32,0 55,-35 50,-75 -5,-40 7,-48 16,-11 15,59 -38,111 -91,89 z"
       id="path8" />
    <path
       d="m 2040,1120 c -18,-35 -69,-80 -92,-80 -3,0 -1,13 5,29 15,41 -6,81 -43,81 -40,0 -63,-22 -63,-61 0,-19 -5,-37 -11,-41 -16,-10 39,-28 88,-28 29,0 55,8 80,25 20,13 36,21 36,17 0,-4 9,7 20,23 11,17 20,38 20,47 0,34 -20,28 -40,-12 z m -100,-25 c 0,-54 -31,-73 -64,-39 -21,21 -20,40 4,64 26,26 60,12 60,-25 z"
       id="path9" />
    <path
       d="m 1776,825 c -38,-28 -56,-68 -56,-122 0,-28 3,-59 6,-68 7,-17 94,-65 116,-65 7,1 -10,12 -39,27 -38,19 -55,34 -63,56 -16,48 -12,90 15,129 43,63 125,61 165,-4 25,-41 26,-90 2,-111 -23,-21 -71,-22 -100,-1 -36,25 -27,84 14,84 23,0 49,-31 37,-44 -3,-3 -1,-6 5,-6 18,0 14,25 -6,50 -17,21 -21,22 -48,9 -39,-19 -45,-68 -12,-98 33,-32 63,-36 100,-14 28,16 33,26 36,60 6,77 -45,133 -120,133 -18,0 -42,-7 -52,-15 z"
       id="path10" />
    <path
       d="m 1227,554 c 9,-14 32,-69 50,-122 19,-54 32,-81 29,-62 -6,52 -64,197 -81,204 -12,4 -12,0 2,-20 z"
       id="path11" />
    <path
       d="m 1300,288 c 0,-24 -9,-98 -19,-166 -11,-79 -14,-121 -7,-119 6,2 18,71 28,153 21,181 20,174 8,174 -5,0 -10,-19 -10,-42 z"
       id="path12" />
  </g>
</svg>
