<?xml version="1.0" encoding="UTF-8" standalone="no"?>
<svg
   version="1.2"
   viewBox="0 0 2048 2048"
   width="2048"
   height="2048"
   id="svg1"
   sodipodi:docname="Masonz.svg"
   inkscape:version="1.4 (86a8ad7, 2024-10-11)"
   xmlns:inkscape="http://www.inkscape.org/namespaces/inkscape"
   xmlns:sodipodi="http://sodipodi.sourceforge.net/DTD/sodipodi-0.dtd"
   xmlns="http://www.w3.org/2000/svg"
   xmlns:svg="http://www.w3.org/2000/svg">
  <defs
     id="defs1" />
  <sodipodi:namedview
     id="namedview1"
     pagecolor="#ffffff"
     bordercolor="#000000"
     borderopacity="0.25"
     inkscape:showpageshadow="2"
     inkscape:pageopacity="0.0"
     inkscape:pagecheckerboard="0"
     inkscape:deskcolor="#d1d1d1"
     inkscape:zoom="1.6269531"
     inkscape:cx="248.31693"
     inkscape:cy="215.43337"
     inkscape:window-width="1920"
     inkscape:window-height="1051"
     inkscape:window-x="-9"
     inkscape:window-y="-9"
     inkscape:window-maximized="1"
     inkscape:current-layer="svg1" />
  <title
     id="title1">Masonz</title>
  <style
     id="style1">
		.s0 { fill: #212121 } 
	</style>
  <path
     class="s0"
     d="m 75.089722,151.08447 c -0.23423,-0.08 -12.44767,-11.67088 -27.13726,-25.72717 -14.70632,-14.05629 -26.80264,-25.583082 -26.90303,-25.615102 -0.30115,-0.0961 -0.68596,0.304182 -1.58942,1.648972 -1.10423,1.61695 -4.55076,6.24368 -5.68845,7.60448 -1.12096,1.3448 -2.37576,2.43344 -2.71038,2.3694 -0.55211,-0.096 -0.61904,-0.52831 -0.23423,-1.45686 0.40154,-0.96056 4.38345,-7.8126 6.2573,-10.774352 0.61904,-0.99259 1.12096,-1.88911 1.12096,-2.00118 0,-0.128078 -4.06557,-4.114428 -9.0178699,-8.869228 -6.357679,-6.08359 -9.06805899,-8.78918 -9.15171899,-9.10937 -0.0837,-0.32019 -0.0167,-0.62437 0.16731,-0.97658 0.36808,-0.64038 11.05901889,-10.8544 11.27651889,-10.79036 0.10038,0.032 3.56365,3.24992 7.71287,7.15622 4.83518,4.56269 7.62922,7.07617 7.81326,7.04415 0.15057,-0.032 0.83653,-1.04061 1.55595,-2.28935 0.71943,-1.23272 1.53923,-2.62555 1.82366,-3.07381 0.73615,-1.1847 0.63576,-1.34479 -0.98712,-1.56893 -0.51865,-0.064 -0.90346,-0.22413 -1.17115,-0.49629 -0.36808,-0.38422 -0.40154,-0.52831 -0.40154,-2.22531 0,-1.58493 0.0335,-1.8571 0.33462,-2.16127 0.30115,-0.32019 0.435,-0.35221 1.42211,-0.25616 0.60231,0.048 2.02442,0.27216 3.17884,0.48029 4.58422,0.86451 7.41172,1.12066 12.54805,1.12066 4.33327,0 5.05269,-0.032 7.93037,-0.43226 4.66788,-0.65638 7.7798,-1.47287 15.15805,-3.95433 4.03211,-1.34479 7.67941,-2.33738 9.9046,-2.67357 2.54307,-0.38423 9.0346,-0.38423 11.25979,0 5.48768,0.94455 10.155573,3.44202 15.208258,8.11678 2.05788,1.92113 5.10287,5.10701 5.43749,5.71537 0.35135,0.64038 0.23423,1.60095 -0.26769,2.12926 -0.58558,0.60836 -1.75673,0.83249 -6.29076,1.20071 -6.090004,0.49629 -8.733468,1.2007 -10.557118,2.80165 -1.92403,1.697 -2.10807,4.45062 -0.40153,6.01955 0.8198,0.76845 1.27153,0.99258 2.82749,1.48888 1.873844,0.59234 1.890574,1.39282 0.0837,2.59352 -3.74768,2.49748 -7.09383,6.4358 -10.25594,12.10314 -1.10423,1.96916 -1.5225,2.35339 -2.45942,2.2093 -1.43884,-0.20812 -1.4723,-0.60835 -0.45173,-4.54668 1.13769,-4.338562 1.79019,-7.01213 2.45942,-10.10195 0.71942,-3.26593 1.55596,-7.87665 1.45558,-8.03674 -0.2175,-0.36822 -0.98712,0.24014 -4.93557,3.95433 -4.23288,3.98635 -8.33191,7.476408 -10.84152,9.253458 -0.68596,0.49629 -1.43884,1.0246 -1.65634,1.184692 -1.5225,1.10466 -5.37057,3.20189 -7.57903,4.11443 -1.67307,0.70442 -4.71807,1.61695 -6.74249,2.04921 -0.71942,0.14408 -1.02057,0.28817 -1.05403,0.49629 -0.0335,0.19211 3.31268,3.50607 10.62402,10.55022 5.87249,5.65134 10.80805,10.40614 10.97536,10.56623 0.15058,0.1601 0.38481,0.28817 0.50192,0.28817 0.11712,0 10.28941,-9.62167 22.60324,-21.38861 l 22.402468,-21.3726 -0.28442,-0.5123 c -0.15058,-0.28817 -0.76962,-1.23273 -1.37192,-2.11325 -0.58558,-0.88052 -2.175,-3.36198 -3.53019,-5.52326 -2.29211,-3.68217 -3.61384,-5.77941 -4.78499,-7.57246 -0.31788,-0.48029 -0.75288,-0.89653 -1.15442,-1.08864 -0.36808,-0.17611 -2.07461,-1.66499 -3.78115,-3.31396 -4.13249,-3.97034 -6.541725,-5.57128 -10.356338,-6.90007 -2.86096,-1.00859 -7.32807,-1.56892 -10.95864,-1.39282 -4.24961,0.19211 -7.27787,0.73643 -15.52612,2.72161 -12.06287,2.91371 -15.77709,3.47404 -23.17208,3.47404 -4.93557,0.016 -7.62921,-0.22413 -11.46055,-0.97657 -1.75673,-0.35221 -5.10288,-1.23273 -5.55461,-1.45686 -0.66923,-0.35221 -1.07077,-1.88911 -0.87,-3.36198 0.23423,-1.66499 0.93692,-1.77705 4.28307,-0.72043 2.40923,0.76846 6.30749,1.53691 7.82999,1.53691 0.70269,0 1.02057,-0.08 1.20461,-0.27216 0.36808,-0.41625 0.95365,-1.40883 6.9098,-11.81497 4.26633,-7.44439 10.5069,-18.34682 11.5944,-20.25194 0.31788,-0.57634 1.18788,-2.08123 1.92403,-3.36198 0.73616,-1.28076 1.62288,-2.83368 1.97423,-3.474053 l 0.63577,-1.15268 -0.48519,-1.328783 c -1.53923,-4.242502 -0.78635,-8.6130791 2.10807,-12.1351563 1.45557,-1.777048 4.21615,-3.47404897 6.67556,-4.08240697 6.37442,-1.60094403 13.1169,2.11324597 15.25844,8.40495617 0.80307,2.3533881 0.68596,5.2510961 -0.31789,7.7325601 l -0.51865,1.280755 0.51865,0.992585 c 0.2677,0.528312 1.33846,2.401413 2.35904,4.146443 1.02057,1.74503 1.85711,3.20189 1.85711,3.24992 0,0.048 0.25096,0.48028 0.56885,0.97657 0.50192,0.80048 3.630567,6.21167 4.751531,8.19684 1.070766,1.92113 2.827502,5.01095 3.463277,6.08359 0.38481,0.65638 1.2548,2.17728 1.92403,3.36198 0.66923,1.1847 1.70654,3.02578 2.30885,4.08241 0.6023,1.05662 1.32172,2.35338 1.62288,2.88169 0.28442,0.52832 0.71942,1.28076 0.95365,1.681 0.23423,0.40023 1.10423,1.90512 1.92403,3.36198 0.83654,1.45686 1.87385,3.24991 2.30885,4.00236 0.45173,0.75244 1.38865,2.3694 2.09134,3.60212 3.27922,5.73138 5.10287,8.88524 5.62153,9.71773 0.31788,0.4963 0.56884,0.92855 0.56884,0.96057 0,0.24014 3.8648,6.62791 4.0823,6.77199 0.2175,0.12808 1.65634,-1.1847 7.93037,-7.17223 4.19942,-4.01837 7.74633,-7.31631 7.88018,-7.31631 0.35135,0 11.12594,10.42215 11.3769,11.01449 0.20077,0.44827 0.20077,0.59235 0,0.96057 -0.13384,0.24014 -4.26634,4.30654 -9.18517,9.04533 -4.91884,4.7388 -8.98441,8.69313 -9.01787,8.773178 -0.0669,0.19211 0.30115,1.10465 0.58557,1.42484 0.10039,0.12807 0.53539,0.81648 0.95366,1.520902 0.40153,0.70441 1.72326,2.91371 2.92788,4.89888 2.17499,3.61814 3.2123,5.53927 3.2123,5.97153 0,0.3522 -0.50192,0.44826 -0.92019,0.19211 -0.98712,-0.62437 -4.11576,-4.51466 -7.39499,-9.17341 -1.00384,-1.44085 -1.70653,-2.289352 -1.87384,-2.289352 -0.16731,0 -12.14652,11.398722 -26.61861,25.310922 -14.488838,13.92822 -26.568428,25.48703 -26.852848,25.67915 q -0.95366,0.69641 -1.75673,0.38422 z m 26.568428,-30.44995 c 14.18767,-13.57601 25.7988,-24.79863 25.7988,-24.9267 -0.0167,-0.46427 -3.76441,-5.84345 -4.11576,-5.89148 -0.23423,-0.032 -6.57518,5.95552 -23.573615,22.22111 -12.782303,12.24722 -23.406313,22.34918 -23.573623,22.44523 -0.28442,0.14409 -2.10808,-1.55291 -15.09113,-13.97624 -8.13114,-7.78059 -14.90709,-14.16835 -15.07439,-14.20037 -0.16731,-0.032 -0.97039,-0.27216 -1.80692,-0.54432 -5.50442,-1.77705 -9.11826,-6.179652 -9.11826,-11.12656 0,-1.92114 0.2175,-2.89771 1.02058,-4.45063 0.66923,-1.31277 2.02442,-2.86569 2.92788,-3.32996 2.19172,-1.16869 2.54307,-1.26475 4.38345,-1.34479 1.97423,-0.0961 3.02827,0.11206 4.28307,0.81648 0.98711,0.54432 2.02442,1.68099 2.5598,2.76963 0.41827,0.8485 0.46846,1.10465 0.46846,2.76963 0,1.68099 -0.0502,1.90513 -0.45173,2.64156 -0.88672,1.61695 -2.76057,2.801648 -4.40018,2.801648 -1.35519,0 -2.15827,-0.608358 -2.35903,-1.793048 l -0.10039,-0.59235 1.05404,-0.46428 c 2.25865,-0.97657 2.94461,-2.7216 1.65634,-4.21048 -1.62288,-1.88911 -5.27018,-0.70442 -6.35768,2.06522 -0.30115,0.75244 -0.35135,1.1847 -0.30115,2.44944 0.0502,1.3608 0.11711,1.63297 0.61903,2.593528 0.71943,1.34479 2.52635,3.057802 3.93173,3.682172 0.53538,0.24014 1.62288,0.62437 2.40922,0.86451 1.28827,0.36822 1.75673,0.41625 4.04884,0.43226 2.20846,0 2.81077,-0.048 4.01538,-0.35221 5.10288,-1.32878 9.2521,-3.474052 14.6394,-7.57247 2.32557,-1.76103 10.12209,-9.06134 10.12209,-9.47758 0,-0.44827 -0.41826,-0.54433 -2.67691,-0.64038 -4.61769,-0.20812 -8.85057,-1.39282 -14.55575,-4.0664 -7.57902,-3.53809 -9.56998,-4.03438 -19.03958,-4.61072 -2.05788,-0.12807 -4.21614,-0.28817 -4.80172,-0.3362 -1.23807,-0.12807 -0.85327,-0.49629 -3.46326,3.45804 -2.49288,3.77823 -5.55461,8.37294 -6.32422,9.44557 -1.60615,2.30536 -4.86865,7.39636 -4.81845,7.54045 0.11711,0.3362 51.7649,49.61325 51.99913,49.61325 0.13385,0 11.86209,-11.11055 26.066508,-24.70256 z m 36.30571,-34.80453 c 3.88153,-3.76221 7.04364,-6.94809 7.02691,-7.04415 -0.0335,-0.11207 -1.13769,-1.28075 -2.45942,-2.60954 -1.57269,-1.58493 -2.50961,-2.40141 -2.74384,-2.40141 -0.38481,0 -13.3344,12.24722 -13.3344,12.61543 0,0.12808 0.25096,0.62437 0.56884,1.12067 0.31789,0.5123 1.12096,1.80906 1.79019,2.91371 1.25481,2.06522 1.40538,2.22532 1.82365,2.24133 0.13385,0 3.4298,-3.07382 7.32807,-6.83604 z M 20.932322,92.15372 c 0.92019,-1.42484 3.46326,-5.87546 3.46326,-6.06757 0,-0.12808 -2.89442,-2.99377 -6.4246,-6.37176 -5.11961,-4.88288 -6.4748,-6.0996 -6.6923,-5.98753 -0.46846,0.24014 -5.2869086,4.89889 -5.2869086,5.091 0,0.32019 14.0705486,13.68807 14.4051586,13.68807 0.16731,0 0.41827,-0.16009 0.53539,-0.35221 z m 54.5924,-12.2152 c 0.0669,-0.16009 -0.18404,-0.54432 -0.66923,-1.04061 -1.79019,-1.84109 -2.44269,-3.44203 -2.44269,-5.98753 0.0167,-0.97658 0.11712,-1.87311 0.25096,-2.25734 0.20077,-0.52831 0.20077,-0.67239 0.0167,-0.8485 -0.18404,-0.1761 -0.58557,-0.08 -2.37576,0.52832 -1.18788,0.41624 -2.45942,0.88052 -2.8275,1.04061 -0.36807,0.16009 -2.20845,0.8485 -4.09903,1.53691 -1.89057,0.6884 -3.47999,1.32878 -3.54691,1.40883 -0.30116,0.43225 0.0837,0.64037 5.47095,2.97775 1.95749,0.8485 4.7348,1.77705 6.94325,2.33738 2.35904,0.59235 3.14538,0.65639 3.27923,0.30418 z m 17.29958,-0.76845 c 3.078457,-0.83249 4.316531,-1.08864 7.947118,-1.64898 0.83654,-0.12807 1.84038,-0.28817 2.25865,-0.3522 1.13769,-0.17611 1.05404,-0.48029 -0.53538,-1.79306 -3.162115,-2.62555 -5.62155,-4.16245 -8.800388,-5.52326 -2.37576,-1.00859 -3.09519,-0.96056 -2.60999,0.17611 0.36807,0.8485 0.58557,3.02578 0.40153,4.21048 -0.26769,1.84108 -0.87,3.12184 -2.07461,4.46663 -0.75288,0.8485 -0.88673,1.13667 -0.6525,1.37682 0.16731,0.14408 0.13385,0.16009 4.06557,-0.91254 z M 50.813422,58.40582 c 1.89057,-0.20812 1.92403,-0.22413 2.59326,-1.16869 0.33462,-0.46427 1.80692,-2.33737 3.27923,-4.19447 1.4723,-1.84109 4.21614,-5.29912 6.10672,-7.68453 1.87384,-2.3694 4.34999,-5.50725 5.50441,-6.96411 4.85191,-6.08359 5.95614,-7.50843 5.95614,-7.65251 0,-0.08 -0.63577,-1.04061 -1.40538,-2.12926 -0.78634,-1.08864 -2.15827,-3.02578 -3.04499,-4.30654 -0.90346,-1.28075 -1.72327,-2.36939 -1.80692,-2.43343 -0.40154,-0.25615 -0.61904,-0.08 -1.12096,0.86451 -0.30116,0.56033 -1.12096,2.00118 -1.84038,3.23391 -0.73616,1.21671 -1.32173,2.24132 -1.32173,2.28935 0,0.032 -0.28443,0.56033 -0.6525,1.13667 -0.98712,1.63296 -4.19942,7.1242 -7.1273,12.19919 -2.87768,4.99495 -3.79787,6.57988 -5.85576,10.08595 -0.75288,1.28075 -1.65634,2.83367 -2.00768,3.44203 -0.35135,0.62437 -0.90346,1.5369 -1.22135,2.0332 -0.78634,1.24873 -0.63577,1.40883 1.20462,1.40883 0.73615,0 1.99095,-0.064 2.76057,-0.1601 z m 53.354338,-1.34479 c 0.0335,-0.14409 -0.40153,-1.04061 -0.98711,-1.98517 -0.56885,-0.94456 -1.43884,-2.40142 -1.9073,-3.23391 -0.46847,-0.83249 -1.371935,-2.3854 -2.007695,-3.44203 -0.61904,-1.05662 -1.957509,-3.36198 -2.961358,-5.12302 -1.020575,-1.76104 -2.091345,-3.60212 -2.392495,-4.08241 -0.56884,-0.92854 -3.98192,-6.83603 -7.16076,-12.40731 -2.50961,-4.38659 -2.72711,-4.72279 -3.06172,-4.72279 -0.15058,0 -0.55212,0.20813 -0.88673,0.46428 -0.71942,0.54432 -2.35903,1.34479 -3.27923,1.60094 -0.36807,0.11207 -1.30499,0.28817 -2.09134,0.38423 -1.6898,0.22413 -1.80692,0.40023 -0.97038,1.45686 0.73615,0.92854 2.62673,3.53808 5.65499,7.71655 0.31788,0.46427 2.1248,2.92972 4.01538,5.49123 1.89057,2.56152 3.99864,5.44321 4.6846,6.38777 0.68596,0.96057 2.00769,2.78564 2.92788,4.05039 0.92019,1.26475 2.04115,2.83367 2.492875,3.45804 0.451733,0.64038 0.987126,1.21672 1.171159,1.26474 0.20077,0.048 0.585583,0.19212 0.853276,0.30418 0.284423,0.11207 0.836543,0.32019 1.254813,0.48029 0.736155,0.28817 2.007695,0.96056 3.513455,1.8731 0.81981,0.48029 1.05404,0.49629 1.13769,0.064 z M 62.809362,56.58075 c 1.65634,-0.38423 4.80172,-1.13667 7.01018,-1.66499 7.7296,-1.85709 9.75402,-2.14526 15.39228,-2.2093 2.49288,-0.032 4.56749,-0.064 4.65114,-0.064 0.45173,-0.016 -0.0669,-0.81648 -4.24961,-6.56387 -0.35134,-0.48028 -2.29211,-3.13785 -4.28307,-5.90748 -2.00768,-2.76963 -3.78114,-5.10701 -3.94845,-5.20307 -0.25096,-0.14408 -0.36808,-0.11206 -0.58558,0.1601 -0.15057,0.19211 -1.17115,1.45686 -2.25865,2.80165 -1.07076,1.3608 -2.72711,3.41001 -3.6473,4.54668 -0.92019,1.15268 -2.44268,3.04179 -3.37961,4.21048 -0.93692,1.1847 -2.04115,2.56151 -2.45941,3.05781 -0.41827,0.5123 -1.47231,1.82507 -2.32558,2.91371 -0.87,1.08865 -1.95749,2.43344 -2.39249,2.97776 -0.76962,0.96057 -0.93692,1.31277 -0.68596,1.53691 0.13384,0.14408 -0.25096,0.20812 3.16211,-0.59235 z m 20.81304,-44.330144 c 0,-4.2425021 -3.59711,-7.6845323 -8.03076,-7.6845323 -4.43364,0 -8.03075,3.4420302 -8.03075,7.6845323 0,4.242501 3.59711,7.684534 8.03075,7.684534 4.43365,0 8.03076,-3.442033 8.03076,-7.684534 z"
     id="path1"
     style="stroke-width:0.0818305" />
</svg>
