<?xml version="1.0" encoding="UTF-8" standalone="no"?>
<svg
   version="1.0"
   width="300.000000pt"
   height="389.000000pt"
   viewBox="0 0 300.000000 389.000000"
   preserveAspectRatio="xMidYMid meet"
   id="svg47"
   sodipodi:docname="pcb.svg"
   inkscape:version="1.4 (86a8ad7, 2024-10-11)"
   xmlns:inkscape="http://www.inkscape.org/namespaces/inkscape"
   xmlns:sodipodi="http://sodipodi.sourceforge.net/DTD/sodipodi-0.dtd"
   xmlns="http://www.w3.org/2000/svg"
   xmlns:svg="http://www.w3.org/2000/svg">
  <defs
     id="defs47" />
  <sodipodi:namedview
     id="namedview47"
     pagecolor="#ffffff"
     bordercolor="#000000"
     borderopacity="0.25"
     inkscape:showpageshadow="2"
     inkscape:pageopacity="0.0"
     inkscape:pagecheckerboard="0"
     inkscape:deskcolor="#d1d1d1"
     inkscape:document-units="pt"
     inkscape:zoom="1.2589974"
     inkscape:cx="200.15926"
     inkscape:cy="195.79071"
     inkscape:window-width="1600"
     inkscape:window-height="871"
     inkscape:window-x="1911"
     inkscape:window-y="114"
     inkscape:window-maximized="1"
     inkscape:current-layer="svg47" />
  <metadata
     id="metadata1">
Created by potrace 1.10, written by Peter Selinger 2001-2011
</metadata>
  <g
     transform="matrix(0.0365627,0,0,-0.03304431,-18.87822,124.11735)"
     fill="#000000"
     stroke="none"
     id="g47">
    <path
       d="m 2995,1945 c 0,-1072 1,-1510 2,-972 2,538 2,1416 0,1950 -1,535 -2,95 -2,-978 z"
       id="path1" />
    <path
       d="m 2070,3755 c 0,-9 -16,-25 -35,-36 l -35,-21 v -98 c 0,-93 -1,-99 -22,-106 -26,-8 -47,-32 -48,-53 0,-15 -67,-101 -78,-101 -11,0 -44,99 -37,109 7,12 -24,43 -36,36 -13,-9 -11,-36 5,-54 7,-9 21,-38 31,-64 10,-26 22,-50 28,-54 5,-3 20,7 34,23 13,16 35,41 49,56 13,15 24,33 24,40 0,23 18,41 42,43 22,2 23,5 26,101 2,85 6,102 24,121 12,13 29,23 39,23 24,0 33,18 19,35 -16,19 -30,19 -30,0 z"
       id="path2" />
    <path
       d="m 1704,3499 c -4,-7 2,-19 14,-30 12,-9 22,-20 22,-23 0,-4 16,-39 35,-78 32,-66 33,-73 17,-82 -24,-13 -32,-27 -32,-57 0,-26 -75,-143 -177,-276 -58,-76 -73,-87 -73,-53 0,13 -7,20 -18,20 -13,0 -25,-17 -40,-52 -31,-74 -36,-82 -62,-95 -24,-12 -59,-66 -60,-93 -1,-42 -12,-44 -129,-24 -94,15 -116,16 -147,5 -19,-7 -37,-11 -39,-9 -1,1 -5,62 -8,133 -3,72 -11,202 -18,290 -6,88 -9,186 -6,218 4,46 2,60 -10,64 -21,8 -39,-13 -25,-29 6,-7 13,-65 17,-128 4,-63 8,-137 11,-165 2,-27 6,-124 10,-215 8,-199 18,-227 66,-183 22,20 66,19 174,-3 43,-8 85,-16 92,-17 7,-1 21,21 31,51 19,55 43,88 70,97 9,3 29,30 45,61 26,50 31,54 38,35 4,-11 13,-21 21,-21 16,0 37,20 37,36 0,7 27,50 61,96 96,132 152,221 158,252 4,16 15,34 26,40 11,6 22,12 24,13 2,2 -13,39 -34,84 -21,45 -41,95 -44,113 -7,32 -33,46 -47,25 z"
       id="path3" />
    <path
       d="m 900,3480 c -11,-7 -12,-13 -3,-32 7,-13 15,-101 18,-203 4,-99 9,-207 11,-240 3,-33 7,-130 11,-215 l 6,-156 -51,-13 c -28,-7 -81,-31 -118,-53 -37,-22 -86,-49 -110,-60 -47,-20 -60,-44 -52,-98 4,-26 -2,-37 -34,-65 -40,-37 -51,-69 -20,-63 9,2 18,13 20,24 2,12 16,33 31,48 25,24 28,33 23,72 -5,43 -4,44 34,60 21,9 58,29 82,46 57,39 142,77 178,80 16,1 31,5 34,9 3,4 2,58 -2,120 -22,356 -32,647 -25,718 2,27 -11,35 -33,21 z"
       id="path4" />
    <path
       d="m 1977,3444 c -4,-4 -7,-14 -7,-22 0,-14 -78,-114 -108,-139 -14,-11 -13,-15 3,-32 20,-24 14,-51 -15,-58 -12,-3 -33,-31 -52,-70 -18,-35 -50,-87 -71,-115 -26,-34 -35,-54 -28,-61 14,-14 42,-1 35,18 -4,8 5,29 18,48 14,17 35,52 48,77 12,25 40,61 61,81 38,35 50,71 29,84 -15,10 -12,18 20,53 16,18 41,48 56,67 14,19 33,35 41,35 19,0 12,34 -8,38 -8,1 -18,0 -22,-4 z"
       id="path5" />
    <path
       d="m 1813,3243 c -7,-3 -13,-14 -13,-24 0,-11 -7,-34 -16,-52 -23,-43 -105,-158 -126,-177 -20,-16 -24,-2 64,-224 25,-61 17,-83 -58,-157 -29,-29 -54,-56 -54,-60 0,-14 72,-87 90,-92 11,-3 24,1 31,9 6,8 18,14 26,14 18,0 13,32 -5,38 -7,2 -16,-5 -19,-17 -3,-12 -13,-21 -22,-21 -17,0 -71,49 -71,64 0,4 28,39 61,77 l 62,69 -47,138 -47,138 65,99 c 36,55 77,114 91,131 19,24 22,34 12,41 -6,6 -18,8 -24,6 z"
       id="path6" />
    <path
       d="m 1010,3221 c 0,-11 5,-23 10,-26 6,-4 10,-43 9,-93 -1,-112 12,-368 20,-379 5,-7 210,-53 239,-53 6,0 12,8 12,19 0,10 9,30 20,44 25,31 26,60 3,55 -11,-2 -18,-14 -20,-30 -3,-45 -22,-70 -46,-65 -12,3 -61,13 -108,23 l -86,18 -9,105 c -7,97 -9,329 -2,376 2,14 -3,21 -19,23 -17,3 -23,-2 -23,-17 z"
       id="path7" />
    <path
       d="m 2357,3234 c -3,-3 -3,-30 0,-60 l 6,-54 -31,6 c -42,8 -79,-16 -90,-59 -6,-25 -24,-43 -86,-84 l -78,-52 1,-130 c 2,-151 12,-132 -123,-235 -42,-33 -89,-70 -104,-84 -57,-50 -128,-92 -156,-92 -22,0 -47,17 -110,78 -48,46 -106,89 -141,107 -33,17 -62,31 -64,32 -10,6 20,81 34,87 17,6 21,36 5,36 -5,0 -13,1 -16,3 -3,1 -13,-20 -23,-48 -10,-27 -21,-57 -25,-66 -6,-13 9,-24 69,-54 52,-26 101,-61 153,-111 42,-41 83,-74 90,-74 7,0 22,-5 33,-10 15,-8 24,-6 41,10 12,11 25,20 29,20 6,0 226,172 307,240 21,18 22,25 21,150 0,73 1,133 3,134 1,1 28,19 58,39 81,53 97,69 104,100 8,36 49,56 77,39 29,-19 39,-6 39,49 0,27 5,49 10,49 16,0 11,27 -6,34 -19,7 -19,7 -27,0 z"
       id="path8" />
    <path
       d="m 798,3195 c -14,-15 7,-103 33,-140 53,-73 57,-92 60,-240 l 2,-139 -44,-20 c -24,-11 -57,-26 -73,-33 -16,-7 -33,-10 -38,-7 -5,3 -15,0 -24,-6 -11,-10 -12,-16 -3,-26 16,-19 28,-17 47,6 10,11 44,29 77,41 33,11 65,26 70,33 7,9 7,69 3,171 l -8,158 -41,53 c -37,48 -41,58 -37,100 3,43 -8,65 -24,49 z"
       id="path9" />
    <path
       d="m 1060,3100 c 0,-11 6,-20 14,-20 13,0 77,-73 174,-196 12,-16 25,-39 28,-51 8,-29 44,-31 44,-3 0,11 -6,20 -13,20 -13,0 -181,202 -205,246 -16,29 -42,32 -42,4 z"
       id="path10" />
    <path
       d="m 2488,3073 -128,-4 v -28 c 0,-29 -22,-47 -42,-35 -6,4 -16,0 -22,-9 -7,-8 -38,-35 -70,-59 l -58,-44 -3,-74 c -4,-97 -3,-96 -13,-85 -5,6 -7,46 -4,90 l 4,80 66,53 c 37,29 79,58 95,65 32,14 37,47 7,47 -11,0 -20,-6 -20,-14 0,-13 -115,-111 -158,-135 -13,-7 -16,-28 -14,-118 3,-160 4,-157 -121,-257 -108,-86 -209,-156 -226,-156 -16,0 -21,-31 -10,-53 7,-12 11,-35 11,-52 -1,-16 8,-50 20,-74 12,-24 25,-60 29,-80 4,-20 12,-54 18,-76 5,-22 12,-61 14,-88 2,-26 6,-47 10,-47 4,0 18,0 32,0 18,0 34,12 56,42 34,47 164,186 248,263 l 54,50 -7,-80 c -4,-44 -10,-90 -13,-102 -4,-18 -1,-23 15,-23 11,0 27,-11 35,-23 15,-23 20,-24 161,-26 81,-1 154,-5 162,-8 9,-3 30,8 52,29 28,27 46,35 75,36 20,0 40,-4 43,-9 9,-15 34,-10 41,7 8,21 -15,34 -41,24 -12,-4 -39,-6 -62,-5 -36,3 -43,0 -58,-26 l -17,-29 h -163 c -164,0 -164,0 -180,25 -9,14 -23,25 -32,25 -12,0 -14,8 -10,33 13,81 17,177 8,177 -12,0 -227,-212 -310,-304 -34,-39 -64,-68 -66,-65 -3,3 -14,50 -25,105 -10,54 -29,124 -41,154 -13,30 -24,66 -25,80 -1,14 -5,43 -9,65 -7,40 -6,40 41,67 26,15 100,67 163,117 63,50 121,90 128,91 8,0 12,17 12,50 0,48 1,50 20,38 17,-11 22,-10 30,2 5,9 5,19 0,25 -5,6 -8,45 -6,86 l 3,74 54,43 c 30,23 65,45 79,49 43,11 72,35 67,55 -5,17 3,18 94,18 61,0 107,-5 119,-12 15,-10 22,-10 31,-1 12,12 6,45 -8,41 -4,-1 -65,-4 -135,-5 z"
       id="path11" />
    <path
       d="m 1060,3043 c 0,-5 5,-26 10,-48 5,-22 10,-79 11,-127 1,-48 7,-94 13,-102 6,-7 43,-22 81,-31 39,-10 75,-22 81,-27 32,-24 33,72 1,123 -65,105 -198,248 -197,212 z m 110,-157 c 42,-49 60,-80 60,-104 0,-18 -4,-22 -17,-18 -10,3 -30,8 -46,12 -36,8 -47,31 -47,99 0,62 6,63 50,11 z"
       id="path12" />
    <path
       d="m 1602,2888 c -12,-24 -46,-83 -77,-132 -30,-49 -55,-94 -55,-101 0,-12 108,-88 119,-83 4,2 36,33 70,70 l 63,68 -30,72 c -16,40 -35,90 -42,111 -6,20 -15,37 -19,37 -4,0 -17,-19 -29,-42 z m 48,-102 c 28,-63 26,-76 -24,-125 -37,-36 -47,-41 -63,-33 -49,26 -48,37 3,122 27,44 52,80 56,80 4,0 17,-20 28,-44 z"
       id="path13" />
    <path
       d="m 1490,2814 c 0,-8 -14,-43 -31,-77 -57,-111 -57,-110 17,-153 36,-21 93,-65 127,-98 90,-86 102,-90 156,-49 24,18 50,33 57,33 8,0 14,9 14,20 0,29 -13,25 -58,-20 -48,-48 -80,-52 -114,-12 -31,37 -147,133 -186,154 -18,9 -32,24 -32,33 0,19 56,131 70,140 15,9 12,32 -5,39 -9,3 -15,0 -15,-10 z"
       id="path14" />
    <path
       d="m 1065,2611 c -3,-6 -22,-11 -42,-11 -49,0 -206,-54 -272,-94 -31,-19 -65,-36 -76,-38 -25,-4 -27,-41 -2,-46 12,-2 20,3 23,15 8,29 96,78 199,111 112,37 161,46 170,32 3,-5 15,-10 26,-10 15,0 20,6 17,22 -3,24 -32,36 -43,19 z"
       id="path15" />
    <path
       d="m 1143,2605 c -8,-23 2,-29 55,-30 61,-2 146,-22 197,-48 82,-41 177,-111 208,-153 26,-35 38,-43 63,-44 32,0 64,-26 64,-51 0,-8 6,-23 14,-34 31,-46 83,-259 71,-294 -7,-22 12,-38 26,-24 13,13 -13,132 -51,242 -17,47 -35,102 -40,121 -11,41 -33,60 -72,60 -20,0 -40,13 -74,50 -82,87 -217,162 -339,187 -38,8 -74,19 -79,24 -15,14 -36,11 -43,-6 z"
       id="path16" />
    <path
       d="m 2080,2549 c -14,-11 -33,-27 -43,-35 -19,-16 -99,-72 -163,-116 -23,-15 -47,-28 -54,-28 -8,0 -10,-8 -6,-22 3,-13 6,-30 6,-38 1,-30 69,-48 196,-52 l 121,-3 49,47 c 27,26 55,48 62,48 8,0 12,9 10,23 -4,29 -32,29 -36,0 -5,-35 -79,-93 -121,-95 -100,-4 -207,5 -231,20 -45,29 -53,56 -20,67 11,4 68,42 127,86 63,46 117,79 131,79 17,0 23,5 20,17 -5,24 -20,25 -48,2 z"
       id="path17" />
    <path
       d="m 1020,2550 c -145,-14 -295,-98 -397,-223 -42,-51 -93,-159 -93,-197 0,-11 -4,-20 -10,-20 -5,0 -10,-7 -10,-15 0,-14 4,-17 32,-19 8,-1 13,18 14,55 3,106 92,226 235,319 98,63 173,83 314,83 133,0 235,-22 321,-70 91,-51 224,-194 224,-241 0,-26 10,-34 26,-21 31,26 -121,200 -241,276 -95,60 -256,89 -415,73 z"
       id="path18" />
    <path
       d="m 975,2500 c -59,-12 -90,-26 -178,-78 -99,-59 -215,-183 -197,-212 12,-20 43,-4 37,20 -11,41 104,149 221,208 54,27 132,50 177,51 183,6 237,-3 344,-57 83,-42 142,-89 177,-141 13,-20 31,-46 40,-58 13,-18 14,-29 6,-53 -9,-26 -7,-38 16,-83 19,-37 26,-66 25,-99 -1,-34 3,-48 12,-48 8,0 16,4 19,8 7,12 -19,105 -41,150 -15,29 -17,44 -10,73 9,32 6,40 -33,95 -80,110 -204,192 -333,220 -68,15 -219,17 -282,4 z"
       id="path19" />
    <path
       d="m 1142,2453 c 3,-15 12,-17 56,-15 29,2 58,0 65,-6 7,-5 25,-12 41,-16 75,-18 219,-138 232,-194 12,-47 44,-52 44,-6 0,13 -5,24 -10,24 -6,0 -40,31 -75,69 -77,81 -172,133 -276,150 -83,14 -81,14 -77,-6 z"
       id="path20" />
    <path
       d="m 2250,2333 -104,-96 -141,7 c -77,4 -141,12 -143,17 -6,17 -32,9 -32,-10 0,-17 13,-19 157,-25 143,-7 158,-6 179,11 13,10 64,53 114,96 l 90,78 105,-2 c 58,-1 108,-5 111,-10 3,-5 14,-9 25,-9 14,0 19,6 17,18 -3,15 -18,17 -138,18 l -135,2 z"
       id="path21" />
    <path
       d="m 1670,2286 c 0,-8 6,-19 14,-23 17,-10 56,-87 62,-122 2,-14 9,-47 14,-74 5,-26 13,-78 16,-115 4,-37 8,-69 10,-70 1,-2 37,-5 78,-6 l 75,-2 72,79 72,78 71,-4 c 39,-3 83,-8 99,-12 21,-6 27,-4 27,9 0,14 -15,16 -105,16 h -105 l -54,-55 c -30,-30 -60,-64 -66,-75 -9,-17 -21,-20 -75,-20 -35,0 -66,4 -69,8 -2,4 -8,35 -11,67 -12,103 -35,198 -62,255 -14,30 -27,59 -27,65 -2,17 -36,18 -36,1 z"
       id="path22" />
    <path
       d="m 2153,2144 c -40,-41 -73,-77 -73,-79 0,-3 32,-5 70,-5 48,0 72,4 75,13 7,23 13,147 6,146 -3,-1 -39,-35 -78,-75 z"
       id="path23" />
    <path
       d="m 1856,2203 c -2,-3 4,-29 14,-59 11,-30 22,-81 26,-113 l 6,-58 109,110 c 60,60 109,110 109,111 0,0 -24,1 -52,1 -29,1 -88,3 -130,6 -43,3 -80,4 -82,2 z m 150,-55 c 6,-10 -53,-78 -67,-78 -7,0 -29,63 -29,82 0,17 85,14 96,-4 z"
       id="path24" />
    <path
       d="m 1680,2161 c 0,-12 4,-21 9,-21 20,0 36,-99 36,-225 0,-111 -3,-140 -23,-195 -52,-146 -151,-266 -269,-328 -55,-29 -66,-31 -102,-23 -30,6 -54,5 -89,-6 -54,-17 -214,-12 -238,8 -11,9 -15,8 -20,-5 -4,-9 -4,-19 -1,-22 14,-15 387,-2 428,14 53,21 158,104 197,155 122,162 162,327 127,527 -9,52 -17,104 -18,115 -3,28 -37,33 -37,6 z"
       id="path25" />
    <path
       d="m 1636,2151 c -3,-5 0,-15 7,-23 41,-41 62,-218 36,-313 -32,-121 -102,-260 -131,-260 -17,0 -17,-37 -1,-42 7,-3 16,4 20,14 3,10 17,32 30,50 28,37 84,175 103,253 8,35 11,83 7,139 -9,116 -49,219 -71,182 z"
       id="path26" />
    <path
       d="m 2036,1942 c -32,-34 -57,-64 -55,-66 2,-2 50,-6 106,-9 115,-7 120,-5 128,63 3,24 8,46 10,51 9,14 -19,23 -75,24 -55,0 -56,0 -114,-63 z m 139,-4 c -11,-35 -21,-41 -59,-34 -40,8 -41,9 -26,37 8,14 21,19 51,19 37,0 40,-2 34,-22 z"
       id="path27" />
    <path
       d="m 2264,1987 c -15,-7 -24,-24 -27,-52 -8,-56 -1,-79 50,-156 l 43,-66 157,-6 c 87,-4 187,-9 222,-12 60,-5 67,-3 93,22 15,15 28,30 28,33 0,4 -102,10 -226,14 -124,4 -231,10 -238,12 -6,3 -26,26 -43,50 -40,54 -43,96 -9,112 27,12 88,7 124,-11 26,-12 54,5 36,23 -11,11 -164,17 -180,7 -6,-3 -14,-25 -18,-47 -6,-38 -3,-46 38,-98 l 44,-57 68,-3 c 328,-10 375,-14 354,-29 -19,-14 -99,-13 -290,2 -14,2 -52,3 -86,4 l -61,1 -46,68 c -37,53 -47,76 -47,108 0,59 26,74 127,73 114,0 143,-7 153,-35 10,-24 17,-28 58,-24 13,1 30,-4 38,-10 18,-15 46,4 37,25 -4,11 -16,13 -51,8 -41,-6 -47,-4 -67,21 -20,25 -25,26 -140,30 -77,3 -128,0 -141,-7 z"
       id="path28" />
    <path
       d="m 1773,1810 c -7,-22 -13,-48 -13,-58 0,-10 -25,-68 -55,-129 -43,-85 -71,-126 -118,-175 -81,-82 -167,-133 -216,-129 -20,1 -54,2 -76,1 -22,-1 -80,-2 -130,-3 -168,-1 -215,7 -215,38 0,7 -27,28 -61,46 -34,18 -63,39 -66,46 -8,21 -43,16 -43,-7 0,-12 7,-20 17,-20 19,0 125,-57 135,-74 4,-6 12,-18 17,-26 6,-9 27,-15 53,-16 24,-1 68,-5 98,-9 32,-4 86,-2 128,4 53,8 84,8 116,0 42,-10 48,-9 107,22 84,45 163,119 220,207 49,74 102,197 114,265 l 7,37 h 162 c 109,0 169,-4 186,-13 14,-7 45,-42 70,-77 25,-36 52,-75 61,-87 14,-20 27,-23 140,-29 152,-9 175,-10 316,-12 l 111,-2 22,-45 c 22,-46 50,-60 50,-25 0,11 -6,20 -12,20 -7,0 -23,15 -35,34 l -21,33 -259,6 c -143,3 -266,9 -274,12 -8,3 -36,37 -64,76 -91,128 -64,116 -275,123 l -185,6 z"
       id="path29" />
    <path
       d="m 2200,1826 c 0,-8 7,-16 15,-19 8,-4 33,-36 56,-72 39,-59 45,-65 78,-66 52,-2 97,-4 268,-14 164,-8 163,-9 223,45 14,12 35,26 48,31 23,9 29,24 12,34 -5,3 -26,-10 -45,-29 -71,-71 -60,-69 -305,-61 l -221,8 -44,62 c -25,34 -45,70 -45,79 0,9 -8,16 -20,16 -11,0 -20,-6 -20,-14 z"
       id="path30" />
    <path
       d="m 1826,1798 c -43,-147 -97,-265 -147,-323 -34,-39 -33,-43 26,-77 21,-12 142,-105 163,-126 29,-27 79,-62 90,-62 7,0 12,13 12,28 0,31 -53,87 -158,167 l -63,47 19,22 c 38,41 118,209 107,226 -15,24 -33,8 -39,-34 -4,-26 -27,-78 -56,-127 -28,-45 -50,-86 -50,-90 0,-5 26,-28 58,-51 82,-60 164,-136 160,-148 -1,-5 -54,28 -116,74 -62,46 -122,90 -133,97 -20,14 -20,15 11,54 18,22 42,60 55,85 23,46 85,220 85,239 0,15 -20,14 -24,-1 z"
       id="path31" />
    <path
       d="m 1940,1792 c 0,-16 9,-18 94,-16 l 94,3 51,-69 c 95,-127 195,-285 192,-303 -3,-21 26,-34 42,-18 9,9 7,16 -9,29 -12,9 -66,84 -120,166 -55,82 -108,162 -120,179 -19,28 -26,31 -85,34 -35,1 -81,5 -101,8 -32,4 -38,2 -38,-13 z"
       id="path32" />
    <path
       d="m 2300,1599 c 0,-3 9,-14 21,-25 12,-10 29,-35 40,-54 35,-66 27,-65 145,-17 60,24 127,50 149,57 48,15 64,27 44,34 -21,7 -399,12 -399,5 z m 200,-49 c 0,-5 -2,-10 -4,-10 -2,0 -20,-7 -39,-15 -32,-13 -37,-13 -51,1 -27,26 -18,34 39,34 30,0 55,-4 55,-10 z"
       id="path33" />
    <path
       d="m 2725,1582 c -16,-16 -210,-100 -287,-126 -10,-3 -18,-10 -18,-15 0,-18 21,-23 38,-8 31,27 224,112 287,126 17,4 30,13 30,21 0,22 -28,23 -50,2 z"
       id="path34" />
    <path
       d="m 1472,1480 c -4,-12 -30,-34 -56,-50 -47,-27 -50,-27 -85,-13 -32,14 -40,14 -83,-2 -29,-10 -59,-14 -77,-10 -32,7 -51,-9 -32,-28 7,-7 30,-5 78,9 64,19 99,19 143,0 9,-4 37,8 67,28 29,19 60,36 70,38 23,4 23,42 0,46 -10,2 -20,-5 -25,-18 z"
       id="path35" />
    <path
       d="m 1575,1369 c -27,-28 -76,-64 -107,-80 -32,-16 -58,-33 -59,-37 -1,-4 -2,-134 -4,-290 -2,-196 -7,-293 -16,-313 -9,-23 -9,-33 0,-42 29,-29 33,11 32,312 -1,192 2,301 8,301 5,0 12,8 15,18 3,10 21,26 38,36 18,11 59,41 90,67 31,27 59,49 63,49 3,0 47,-33 98,-73 51,-40 119,-93 152,-117 33,-24 69,-53 80,-63 11,-11 31,-26 44,-35 23,-15 23,-17 20,-176 -2,-89 -8,-167 -13,-174 -6,-9 -4,-18 6,-28 13,-13 16,-13 28,1 9,11 10,19 3,26 -6,6 -8,69 -5,173 l 5,163 -29,27 c -16,15 -72,59 -124,97 -99,73 -159,119 -224,172 -21,18 -42,33 -45,34 -3,2 -28,-20 -56,-48 z"
       id="path36" />
    <path
       d="m 687,1373 c -12,-11 -8,-33 6,-33 7,0 44,-16 82,-35 37,-19 75,-33 84,-31 10,3 30,-13 56,-45 41,-50 70,-60 70,-24 0,12 -8,21 -20,23 -26,5 -55,31 -66,61 -8,20 -14,22 -40,17 -34,-7 -122,32 -132,59 -7,15 -28,20 -40,8 z"
       id="path37" />
    <path
       d="m 827,1373 c -15,-15 -5,-31 23,-37 17,-3 43,-19 58,-35 43,-48 103,-84 116,-71 16,16 -6,45 -37,45 -28,1 -67,30 -67,52 0,7 -9,13 -20,13 -11,0 -29,9 -40,20 -22,22 -24,23 -33,13 z"
       id="path38" />
    <path
       d="m 1585,1327 c -16,-16 -54,-46 -82,-65 l -53,-35 v -151 c -1,-83 -3,-188 -5,-234 -4,-81 -3,-83 28,-117 l 32,-35 -2,-188 c -1,-104 -5,-200 -8,-214 -7,-28 12,-42 36,-27 11,7 12,12 2,29 -9,14 -13,76 -13,213 v 194 l -30,38 -30,38 v 186 c 0,257 -1,251 79,310 36,27 75,50 86,53 23,4 27,32 5,34 -8,1 -28,-12 -45,-29 z"
       id="path39" />
    <path
       d="m 1631,1291 c -7,-13 -8,-22 -1,-26 6,-4 10,-72 10,-172 0,-164 0,-167 -26,-202 -15,-20 -32,-40 -38,-46 -26,-23 -66,-77 -66,-89 0,-7 10,-23 21,-35 20,-21 21,-31 16,-112 -5,-72 -3,-89 8,-89 19,0 39,37 25,45 -10,6 -6,102 4,113 3,2 -6,19 -19,37 -14,17 -25,35 -25,38 0,10 88,133 105,147 13,10 15,40 14,174 0,88 2,173 6,187 9,35 -19,60 -34,30 z"
       id="path40" />
    <path
       d="m 1595,1288 c -5,-5 -32,-29 -58,-52 l -49,-41 -3,-187 c -2,-103 -6,-197 -10,-208 -10,-31 22,-25 39,8 9,15 32,43 51,62 20,19 39,46 41,60 7,34 10,370 4,370 -3,-1 -9,-6 -15,-12 z m -23,-195 c 2,-133 1,-143 -13,-170 -28,-54 -35,-33 -34,111 0,142 4,166 31,166 11,0 14,-21 16,-107 z"
       id="path41" />
    <path
       d="m 1288,1285 c -2,-3 -56,-7 -119,-9 -93,-4 -115,-8 -117,-20 -4,-17 18,-22 34,-7 15,14 221,20 250,7 l 24,-11 V 972 c -1,-248 -3,-276 -20,-304 -10,-17 -16,-37 -13,-45 4,-11 -4,-13 -35,-12 -44,3 -62,-5 -46,-21 5,-5 35,-6 67,-3 41,4 55,9 48,16 -16,16 -13,53 3,70 16,16 18,50 17,373 l -1,210 -35,17 c -38,18 -48,20 -57,12 z"
       id="path42" />
    <path
       d="m 1080,1220 c -29,-22 -34,-55 -31,-215 l 2,-70 46,-35 c 25,-19 51,-37 57,-40 6,-3 47,-28 91,-57 76,-49 104,-60 96,-38 -1,6 -5,110 -7,233 -2,123 -6,227 -9,233 -4,5 -54,9 -113,9 -90,0 -111,-4 -132,-20 z m 208,-25 c 7,-6 8,-356 1,-361 -13,-7 -110,50 -155,91 -41,39 -43,43 -49,114 -6,75 6,137 30,156 11,9 164,9 173,0 z"
       id="path43" />
    <path
       d="m 1008,1043 c 4,-112 8,-140 21,-151 18,-14 117,-80 208,-137 67,-43 69,-45 52,-76 -7,-15 -19,-19 -42,-17 -23,2 -32,-2 -35,-13 -2,-13 5,-16 40,-16 40,1 45,4 62,41 l 19,39 -24,18 c -13,10 -48,32 -79,50 -110,65 -190,121 -200,140 -7,12 -8,57 -3,126 4,60 8,112 8,118 0,5 -7,11 -15,13 -14,2 -15,-15 -12,-135 z"
       id="path44" />
    <path
       d="m 974,1127 c -3,-9 -4,-35 -2,-57 4,-43 -2,-48 -47,-45 -16,1 -62,3 -102,3 -69,2 -71,3 -81,31 -9,26 -15,29 -79,36 -37,4 -74,12 -80,17 -17,13 -43,3 -43,-17 0,-8 3,-15 8,-16 4,0 39,-1 79,-3 75,-3 103,-16 103,-47 0,-17 9,-19 95,-20 52,-1 110,-2 128,-3 32,-1 32,-1 39,59 6,58 -5,96 -18,62 z"
       id="path45" />
    <path
       d="m 637,1003 c -4,-3 -7,-12 -7,-20 0,-10 35,-13 170,-13 h 170 v -39 c 0,-45 8,-71 21,-71 6,0 50,-27 99,-60 49,-33 94,-60 100,-60 5,0 10,-6 10,-14 0,-7 7,-19 16,-26 12,-11 18,-11 31,2 14,15 12,18 -23,40 -22,14 -61,37 -89,52 -27,15 -71,42 -97,62 -46,33 -48,36 -48,84 v 50 H 836 c -93,0 -157,4 -161,10 -7,11 -28,13 -38,3 z"
       id="path46" />
    <path
       d="m 1449,703 c 0,-4 0,-80 1,-167 1,-116 -2,-161 -11,-166 -16,-11 -3,-42 17,-38 13,3 15,28 16,188 0,127 -3,185 -11,188 -6,2 -11,0 -12,-5 z"
       id="path47" />
  </g>
</svg>
