<?xml version="1.0" encoding="UTF-8" standalone="no"?>
<svg
   version="1.0"
   width="300.000000pt"
   height="246.000000pt"
   viewBox="0 0 300.000000 246.000000"
   preserveAspectRatio="xMidYMid meet"
   id="svg4"
   sodipodi:docname="sticker.svg"
   inkscape:version="1.4 (86a8ad7, 2024-10-11)"
   xmlns:inkscape="http://www.inkscape.org/namespaces/inkscape"
   xmlns:sodipodi="http://sodipodi.sourceforge.net/DTD/sodipodi-0.dtd"
   xmlns="http://www.w3.org/2000/svg"
   xmlns:svg="http://www.w3.org/2000/svg">
  <defs
     id="defs4" />
  <sodipodi:namedview
     id="namedview4"
     pagecolor="#ffffff"
     bordercolor="#000000"
     borderopacity="0.25"
     inkscape:showpageshadow="2"
     inkscape:pageopacity="0.0"
     inkscape:pagecheckerboard="0"
     inkscape:deskcolor="#d1d1d1"
     inkscape:document-units="pt"
     showgrid="false"
     inkscape:zoom="5.0792683"
     inkscape:cx="65.757503"
     inkscape:cy="69.793517"
     inkscape:window-width="1920"
     inkscape:window-height="1051"
     inkscape:window-x="-9"
     inkscape:window-y="-9"
     inkscape:window-maximized="1"
     inkscape:current-layer="svg4" />
  <metadata
     id="metadata1">
Created by potrace 1.10, written by Peter Selinger 2001-2011
</metadata>
  <g
     transform="matrix(0.01078751,0,0,-0.01399584,0.88595477,35.463383)"
     fill="#000000"
     stroke="none"
     id="g4">
    <path
       d="m 2984,1316 c 5,-818 4,-1156 -4,-1185 -6,-22 -26,-61 -45,-86 L 2900,0 h 30 c 18,0 30,5 30,13 0,7 9,19 20,27 20,14 20,26 20,1217 0,904 -3,1203 -12,1203 -8,0 -9,-281 -4,-1144 z"
       id="path1" />
    <path
       d="m 1,2217 c -1,-15 6,-41 14,-56 13,-26 13,-30 0,-41 -9,-7 -15,-28 -14,-49 l 1,-36 14,33 c 18,42 30,35 39,-24 8,-53 29,-121 87,-283 33,-92 39,-117 29,-132 -15,-25 -14,-27 10,-31 16,-2 29,-26 59,-102 l 39,-99 -34,-42 C 171,1265 105,1078 75,870 66,812 49,709 37,640 19,534 16,476 15,263 15,125 12,14 8,17 3,19 0,16 0,11 0,5 14,0 30,0 h 30 l -1,252 c -2,201 2,271 15,338 9,47 25,150 36,230 31,227 90,410 165,512 36,49 143,145 260,233 77,58 286,153 395,179 83,20 452,66 531,66 54,0 64,-3 90,-29 55,-55 26,-139 -70,-200 -55,-36 -314,-152 -453,-204 -122,-46 -281,-79 -380,-79 -85,-1 -104,-8 -94,-33 6,-16 17,-17 109,-11 184,13 361,64 604,173 68,31 126,53 129,50 3,-3 14,-43 25,-89 15,-69 19,-125 19,-325 0,-139 -4,-244 -9,-248 -13,-8 -139,63 -151,85 -5,10 -14,48 -19,84 -11,74 -37,126 -63,126 -24,0 -23,-25 3,-66 21,-35 23,-75 2,-81 -6,-2 -16,12 -23,31 -17,51 -53,76 -110,76 -36,0 -53,-6 -74,-25 -14,-13 -26,-31 -26,-40 0,-8 -4,-15 -10,-15 -5,0 -10,4 -10,9 0,5 -12,23 -26,40 -32,39 -79,41 -144,9 -34,-17 -48,-32 -56,-58 -7,-19 -16,-33 -20,-30 -11,6 -11,69 0,92 13,29 -23,36 -46,9 -22,-28 -23,-69 -3,-118 33,-79 18,-127 -102,-316 -27,-43 -55,-48 -71,-11 -7,14 -46,79 -88,146 -41,66 -93,158 -114,204 -39,84 -70,111 -70,60 0,-30 90,-205 164,-321 32,-49 69,-107 82,-127 14,-22 32,-38 43,-38 39,0 84,45 134,135 63,116 93,155 118,155 40,0 96,-33 146,-87 48,-51 73,-61 73,-29 0,26 -84,108 -140,136 -87,44 -100,111 -30,158 47,32 79,26 109,-20 20,-31 30,-38 58,-38 21,0 33,5 33,14 0,7 10,25 21,40 17,22 28,26 57,24 29,-2 40,-10 55,-36 26,-45 17,-70 -56,-155 C 977,722 960,690 999,690 c 10,0 29,16 43,38 14,20 48,61 76,91 47,49 53,53 84,47 18,-3 58,-22 89,-40 32,-19 73,-40 92,-46 l 34,-13 7,-256 c 3,-141 9,-313 13,-383 6,-119 8,-128 26,-128 19,0 19,5 13,163 -3,89 -9,258 -12,376 l -7,214 24,-7 c 85,-23 172,-15 195,19 20,31 -6,74 -105,174 l -86,86 -6,175 c -5,111 -13,195 -23,230 -22,75 -21,77 24,100 144,73 188,228 85,296 -52,34 -97,36 -318,9 -267,-32 -351,-48 -458,-92 l -87,-36 -128,93 c -71,51 -156,106 -189,122 -88,44 -244,150 -251,171 -3,9 -12,17 -20,17 -26,0 -14,18 16,25 17,4 30,13 30,21 0,18 -17,18 -70,-1 -39,-14 -42,-14 -35,3 4,9 10,31 12,47 l 4,30 -21,-24 c -23,-26 -25,-26 -39,9 l -10,25 z m 249,-257 c 24,-13 23,-14 -35,-30 -33,-10 -67,-20 -75,-24 -13,-5 -20,9 -38,69 -12,42 -20,80 -17,85 3,5 36,-12 73,-39 37,-26 78,-54 92,-61 z m 121,-71 c 38,-18 67,-35 64,-39 -2,-4 -32,-8 -65,-9 -53,-2 -133,-21 -192,-46 -13,-5 -19,2 -29,34 -7,23 -9,44 -5,48 6,6 130,41 150,42 5,1 40,-13 77,-30 z m 168,-106 54,-38 -44,-7 c -147,-25 -182,-33 -253,-59 -44,-16 -81,-29 -82,-29 -7,0 -34,101 -30,109 9,13 99,42 160,51 111,16 137,13 195,-27 z m 111,-82 c 0,-7 -110,-83 -184,-128 -12,-7 -39,-13 -61,-13 -35,-1 -70,-10 -126,-34 -13,-6 -20,3 -33,40 -8,25 -13,50 -10,55 7,13 157,58 243,73 88,16 171,20 171,7 z M 418,1531 c -4,-12 -105,-91 -117,-91 -10,0 -21,24 -21,45 0,9 26,22 63,34 72,23 80,24 75,12 z M 1569,873 c 39,-42 68,-80 64,-86 -5,-9 -148,-5 -157,4 -7,8 7,159 14,159 5,0 40,-34 79,-77 z"
       id="path2" />
    <path
       d="m 1453,1764 c -8,-22 10,-49 32,-49 10,0 22,7 28,16 15,24 1,49 -28,49 -15,0 -28,-7 -32,-16 z"
       id="path3" />
    <path
       d="m 592,1528 c -20,-20 -14,-48 13,-60 21,-9 28,-8 45,7 24,22 25,29 4,49 -18,19 -45,21 -62,4 z"
       id="path4" />
  </g>
</svg>
