<?xml version="1.0" encoding="UTF-8" standalone="no"?>
<svg
   version="1.0"
   width="300.000000pt"
   height="294.000000pt"
   viewBox="0 0 300.000000 294.000000"
   preserveAspectRatio="xMidYMid meet"
   id="svg4"
   sodipodi:docname="sticker_2.svg"
   inkscape:version="1.4 (86a8ad7, 2024-10-11)"
   xmlns:inkscape="http://www.inkscape.org/namespaces/inkscape"
   xmlns:sodipodi="http://sodipodi.sourceforge.net/DTD/sodipodi-0.dtd"
   xmlns="http://www.w3.org/2000/svg"
   xmlns:svg="http://www.w3.org/2000/svg">
  <defs
     id="defs4" />
  <sodipodi:namedview
     id="namedview4"
     pagecolor="#ffffff"
     bordercolor="#000000"
     borderopacity="0.25"
     inkscape:showpageshadow="2"
     inkscape:pageopacity="0.0"
     inkscape:pagecheckerboard="0"
     inkscape:deskcolor="#d1d1d1"
     inkscape:document-units="pt"
     inkscape:zoom="2.125"
     inkscape:cx="200"
     inkscape:cy="198.35294"
     inkscape:window-width="1920"
     inkscape:window-height="1051"
     inkscape:window-x="-9"
     inkscape:window-y="-9"
     inkscape:window-maximized="1"
     inkscape:current-layer="svg4" />
  <metadata
     id="metadata1">
Created by potrace 1.10, written by Peter Selinger 2001-2011
</metadata>
  <g
     transform="matrix(0.02179011,0,0,-0.02107624,-21.79077,49.739919)"
     fill="#000000"
     stroke="none"
     id="g4">
    <path
       d="m 1872,2347 c -6,-7 -16,-35 -23,-62 -6,-28 -16,-55 -20,-61 -5,-6 -14,-46 -20,-90 -6,-43 -14,-86 -17,-94 -3,-8 -6,-22 -6,-30 -1,-10 -11,-15 -28,-14 -16,0 -86,1 -158,2 -116,2 -130,4 -131,20 0,9 -30,78 -67,152 -66,133 -68,135 -103,138 -51,4 -58,-14 -100,-258 -11,-63 -22,-130 -26,-149 -3,-19 -28,-70 -56,-114 -107,-173 -143,-306 -98,-363 26,-33 88,-75 129,-86 38,-11 40,-20 8,-41 -13,-9 -32,-31 -41,-49 -21,-43 -32,-118 -16,-118 15,0 14,-19 -2,-50 -23,-44 -38,-93 -46,-149 l -8,-53 36,7 c 84,17 94,14 108,-34 18,-61 29,-71 80,-71 34,0 49,6 67,24 l 22,25 274,2 c 223,1 275,-1 279,-12 9,-28 34,-42 79,-46 54,-4 98,15 94,40 -2,15 6,17 60,17 74,0 174,24 200,47 11,10 18,30 18,55 0,33 -4,40 -27,49 -30,11 -119,3 -129,-12 -12,-19 -34,-8 -34,17 0,14 -5,34 -11,45 -8,17 -6,24 15,40 17,14 26,30 26,49 0,34 -63,145 -90,160 -24,13 -26,30 -5,30 29,0 140,57 165,84 21,23 25,37 25,90 0,54 -6,74 -44,147 -24,46 -47,86 -51,89 -4,3 -28,48 -54,100 -26,52 -51,99 -55,105 -8,9 -17,43 -25,90 -6,36 -69,211 -103,288 -22,49 -29,57 -53,57 -15,0 -32,-6 -38,-13 z m 54,-84 c 8,-21 24,-65 35,-98 11,-33 24,-69 29,-80 5,-11 13,-37 19,-57 6,-21 15,-53 20,-70 5,-18 12,-48 16,-66 4,-18 12,-38 19,-45 8,-7 30,-44 51,-82 20,-39 56,-104 81,-145 48,-83 52,-95 27,-85 -24,9 -76,11 -90,2 -6,-4 -22,-7 -34,-6 -13,1 -63,-1 -111,-4 -53,-4 -88,-2 -88,4 0,5 6,9 13,9 25,0 57,49 57,85 v 35 h -48 c -26,0 -52,-4 -58,-10 -5,-5 -25,-12 -44,-14 -19,-3 -35,-5 -35,-6 0,-2 -39,-11 -60,-13 -15,-2 -19,-8 -16,-27 5,-36 19,-60 36,-60 8,0 15,-4 15,-10 0,-20 -55,-9 -102,21 -42,28 -55,31 -102,27 -37,-3 -63,-12 -88,-32 -30,-23 -41,-26 -68,-19 l -32,8 21,25 20,25 1,-23 c 0,-31 24,-23 28,9 2,19 -4,28 -23,37 -14,7 -31,12 -38,12 -7,0 -39,14 -72,30 -33,17 -70,30 -83,30 -23,0 -24,-2 -17,-52 3,-29 9,-61 11,-70 4,-15 -4,-16 -75,-14 -44,1 -83,4 -86,7 -7,7 84,183 130,252 19,28 35,64 35,78 0,72 61,371 77,376 5,2 25,-29 43,-69 18,-40 46,-101 61,-134 16,-34 29,-67 29,-73 0,-7 39,-12 118,-13 64,0 152,-1 195,-2 44,-1 84,2 89,5 6,4 8,19 5,34 -5,29 28,212 43,230 4,5 11,25 15,43 3,17 8,32 11,32 2,0 11,-17 20,-37 z m -630,-674 c 3,-5 16,-9 28,-9 13,0 29,-7 36,-15 11,-13 7,-15 -27,-15 -41,0 -99,33 -88,50 6,10 43,2 51,-11 z m 614,11 c 0,-19 -80,-52 -111,-45 -29,7 -40,24 -16,27 20,2 31,5 47,11 50,19 80,22 80,7 z m -316,-85 c 8,-8 18,-15 21,-15 4,0 20,-9 36,-21 22,-15 37,-19 57,-14 15,4 122,11 237,16 116,5 231,10 258,12 42,3 47,1 47,-18 0,-22 -39,-64 -78,-84 -57,-30 -178,-61 -272,-71 -57,-5 -105,-8 -108,-5 -3,3 -10,1 -16,-4 -6,-4 -43,-11 -82,-15 -67,-5 -72,-4 -77,15 -5,18 -12,20 -62,17 -35,-2 -59,-8 -62,-16 -5,-12 -53,-9 -93,5 -8,3 -39,5 -67,3 -41,-1 -53,2 -53,13 0,9 -13,18 -32,22 -18,4 -37,11 -43,15 -5,4 -22,10 -36,13 -14,4 -36,16 -49,27 -13,11 -28,20 -35,20 -14,0 -58,57 -47,63 4,2 103,-3 220,-11 l 212,-14 42,31 c 47,35 60,37 82,16 z m -14,-243 c 0,-10 -22,-32 -32,-32 -4,0 -8,14 -8,30 0,28 2,30 20,20 11,-6 20,-14 20,-18 z m -199,2 c 38,-4 69,-10 69,-14 0,-9 -70,-30 -100,-30 -27,0 -82,38 -74,51 3,6 13,8 21,5 8,-3 46,-9 84,-12 z m 592,9 c 11,-10 -82,-52 -129,-59 -45,-7 -154,12 -154,27 0,5 24,9 53,10 28,0 86,6 127,13 97,17 95,17 103,9 z m -743,-27 c 0,-7 14,-25 31,-42 27,-26 37,-29 93,-29 43,0 71,6 90,18 15,10 31,16 34,12 4,-3 1,-9 -5,-13 -14,-9 -26,-67 -18,-92 5,-15 15,-20 44,-20 21,0 44,6 50,14 8,9 26,12 61,8 l 50,-5 v 52 c 0,46 10,65 24,42 3,-5 34,-14 68,-20 81,-15 149,-3 236,44 76,40 76,40 130,-45 l 35,-54 -26,-20 c -15,-11 -42,-20 -59,-20 -38,-1 -38,-6 -22,-132 8,-59 7,-75 -6,-100 -22,-39 -52,-42 -80,-7 l -22,28 -311,-4 c -295,-3 -313,-5 -325,-23 -8,-11 -23,-18 -35,-16 -35,5 -55,82 -56,215 l -1,113 -30,-6 c -53,-11 -50,37 8,98 25,27 42,29 42,4 z m 303,-12 22,-25 23,21 c 17,16 30,19 57,14 34,-6 34,-6 17,-30 -9,-13 -23,-24 -30,-24 -9,0 -11,-7 -7,-20 7,-21 -9,-28 -20,-10 -5,8 -12,7 -23,-2 -12,-10 -16,-10 -19,0 -3,8 -11,5 -23,-10 -21,-26 -40,-16 -23,12 10,15 8,22 -14,44 -27,27 -26,56 2,56 9,0 26,-12 38,-26 z m -363,-224 v -80 h -41 -41 l 16,25 c 9,13 16,28 16,33 0,13 40,102 45,102 3,0 5,-36 5,-80 z m 944,-11 c 18,-44 14,-62 -8,-38 -18,18 -31,79 -18,79 5,0 17,-19 26,-41 z m 196,-79 c 0,-26 -133,-65 -188,-55 -27,5 -33,10 -30,28 2,14 9,20 18,18 31,-10 120,-5 132,7 14,14 68,16 68,2 z"
       id="path1" />
    <path
       d="m 1472,1398 c -7,-29 -6,-33 12,-36 11,-2 26,4 33,14 13,18 15,18 61,1 86,-33 94,-34 90,-2 -4,35 -47,53 -130,54 -57,1 -58,1 -66,-31 z"
       id="path2" />
    <path
       d="m 2390,1521 c 0,-27 2,-28 63,-35 78,-8 188,-39 233,-66 46,-26 74,-26 74,0 0,22 -44,54 -100,71 -19,6 -42,13 -50,16 -8,3 -19,7 -25,8 -5,1 -12,3 -15,5 -8,4 -62,11 -92,11 -15,0 -30,4 -33,9 -4,6 -17,10 -31,10 -20,0 -24,-5 -24,-29 z"
       id="path3" />
    <path
       d="m 2365,1412 c -18,-18 -1,-39 42,-51 25,-8 63,-29 83,-48 44,-39 70,-43 70,-10 0,24 -38,66 -77,86 -28,14 -110,30 -118,23 z"
       id="path4" />
  </g>
</svg>
