<?xml version="1.0" encoding="UTF-8" standalone="no"?>
<svg
   version="1.0"
   width="300.000000pt"
   height="300.000000pt"
   viewBox="0 0 300.000000 300.000000"
   preserveAspectRatio="xMidYMid meet"
   id="svg22"
   sodipodi:docname="trible.svg"
   inkscape:version="1.4 (86a8ad7, 2024-10-11)"
   xmlns:inkscape="http://www.inkscape.org/namespaces/inkscape"
   xmlns:sodipodi="http://sodipodi.sourceforge.net/DTD/sodipodi-0.dtd"
   xmlns="http://www.w3.org/2000/svg"
   xmlns:svg="http://www.w3.org/2000/svg">
  <defs
     id="defs22" />
  <sodipodi:namedview
     id="namedview22"
     pagecolor="#ffffff"
     bordercolor="#000000"
     borderopacity="0.25"
     inkscape:showpageshadow="2"
     inkscape:pageopacity="0.0"
     inkscape:pagecheckerboard="0"
     inkscape:deskcolor="#d1d1d1"
     inkscape:document-units="pt"
     inkscape:zoom="16.66"
     inkscape:cx="33.673469"
     inkscape:cy="21.638655"
     inkscape:window-width="1920"
     inkscape:window-height="1051"
     inkscape:window-x="-9"
     inkscape:window-y="-9"
     inkscape:window-maximized="1"
     inkscape:current-layer="svg22" />
  <metadata
     id="metadata1">
Created by potrace 1.10, written by Peter Selinger 2001-2011
</metadata>
  <g
     transform="matrix(0.01428513,0,0,-0.01612129,-2.3218214,36.701217)"
     fill="#000000"
     stroke="none"
     id="g22">
    <path
       d="m 380,1909 c 0,-310 -2,-350 -15,-339 -24,20 -44,4 -51,-39 -6,-39 -8,-41 -44,-39 -41,1 -60,-7 -60,-27 0,-7 -7,-15 -15,-19 -21,-8 -19,-40 5,-61 l 20,-18 -21,-24 c -20,-20 -21,-27 -11,-62 15,-48 34,-65 67,-58 20,3 25,0 24,-12 -3,-39 13,-61 45,-61 18,0 37,5 44,12 9,9 12,-40 12,-220 V 710 h 155 155 v 361 c 0,356 0,360 20,354 11,-3 20,-2 20,3 0,17 -12,21 -36,12 -14,-6 -24,-6 -24,0 0,5 8,11 18,14 9,4 28,15 41,25 l 24,18 -29,14 c -23,11 -30,22 -32,50 -3,36 -2,38 46,40 43,2 72,21 72,49 0,15 -7,33 -15,40 -9,8 -15,9 -15,2 0,-6 4,-13 9,-16 4,-3 8,-16 7,-28 -1,-20 -6,-23 -43,-23 -22,0 -39,-4 -36,-8 3,-5 -3,-7 -13,-5 -15,3 -19,13 -20,50 -1,32 3,49 13,52 8,3 12,2 9,-3 -3,-4 1,-17 9,-27 8,-10 15,-14 15,-8 0,6 -3,14 -7,18 -4,3 -8,13 -9,22 -2,12 4,14 29,8 65,-16 90,-11 105,20 11,21 11,30 3,36 -8,4 -10,17 -5,33 5,24 2,29 -33,45 -36,16 -39,19 -29,41 9,20 6,27 -19,47 -17,14 -40,27 -52,30 -22,6 -23,9 -23,145 v 139 H 535 380 Z m 292,201 c 2,-77 0,-140 -3,-140 -3,0 -11,-12 -18,-26 l -12,-26 -29,40 c -16,22 -34,43 -40,47 -17,11 -50,-25 -49,-54 0,-24 1,-23 12,8 7,19 17,36 22,38 12,3 65,-69 65,-90 0,-10 -7,-13 -18,-10 -10,2 -26,-5 -37,-17 -16,-18 -17,-25 -8,-51 12,-30 11,-31 -13,-25 -18,5 -24,3 -19,-5 4,-6 18,-9 31,-6 28,5 31,-5 8,-27 -14,-15 -14,-16 3,-16 17,-1 17,-1 1,-11 -10,-5 -18,-15 -18,-21 0,-7 5,-6 14,1 20,17 56,-3 56,-30 0,-39 -17,-56 -50,-51 -16,2 -33,9 -37,15 -13,21 -3,102 14,115 16,11 16,12 0,12 -20,0 -39,-33 -31,-54 7,-19 -16,-21 -37,-3 -19,15 -42,67 -30,67 4,0 6,11 3,25 -3,16 0,25 8,25 7,0 19,8 26,18 11,15 16,15 35,4 21,-13 21,-13 5,9 -9,13 -16,37 -16,54 -1,26 -2,27 -11,12 -6,-10 -8,-25 -5,-33 3,-9 -8,-27 -28,-45 -32,-28 -34,-34 -30,-77 4,-49 30,-82 64,-82 14,0 17,-8 16,-37 l -1,-38 39,3 c 27,3 36,0 31,-7 -4,-7 -16,-9 -28,-6 -12,2 -17,2 -10,-1 7,-3 9,-12 6,-20 -4,-12 -7,-12 -18,3 -12,16 -13,15 -18,-3 -3,-10 -8,-36 -12,-57 -6,-36 -8,-37 -41,-35 -26,2 -34,7 -34,21 0,10 -9,21 -20,24 -20,5 -20,14 -20,354 v 349 h 139 140 z m 52,-163 c -1,-13 4,-15 22,-11 21,5 24,3 24,-20 0,-14 -6,-30 -12,-36 -87,-73 -123,-76 -77,-7 l 21,32 -26,-28 c -22,-23 -26,-25 -27,-10 0,16 -1,16 -8,-1 -4,-11 -10,-15 -14,-10 -8,14 3,54 14,54 5,0 14,11 21,25 16,35 64,45 62,12 z m -106,-89 c 9,-24 15,-29 21,-20 6,10 10,9 14,-8 5,-18 2,-20 -16,-14 -12,4 -26,12 -30,18 -5,6 -5,1 -2,-11 8,-29 -20,-32 -35,-4 -16,30 -11,49 5,21 8,-15 14,-19 14,-10 1,8 -3,22 -8,30 -6,8 -7,18 -5,22 11,18 30,6 42,-24 z m 185,-9 c 19,-9 26,-21 31,-57 9,-68 -6,-80 -78,-59 -33,9 -56,11 -56,6 0,-6 -4,-7 -10,-4 -5,3 -10,17 -10,30 0,13 -5,27 -12,31 -7,4 -8,3 -4,-4 10,-17 -2,-32 -20,-25 -13,5 -13,7 -2,14 7,5 8,9 2,9 -5,0 -19,-7 -30,-16 -16,-13 -16,-15 -1,-10 11,4 17,0 17,-12 0,-10 3,-13 8,-7 10,14 32,17 32,5 0,-5 1,-13 3,-17 1,-5 -13,-9 -31,-10 -17,-1 -30,3 -27,8 4,5 -1,6 -9,3 -25,-10 -21,48 4,64 12,7 25,10 31,6 5,-3 16,0 24,6 12,10 15,10 15,0 0,-7 16,2 35,19 39,34 52,37 88,20 z M 671,1680 c -2,-14 -4,-31 -5,-38 -3,-17 -26,-32 -49,-32 -17,0 -17,2 -3,22 9,12 16,35 16,51 0,24 4,28 23,25 17,-2 21,-8 18,-28 z m 3,-114 c -2,-23 -4,-43 -5,-46 -1,-3 -1,-9 0,-13 1,-4 -13,-13 -30,-19 -24,-8 -28,-13 -17,-20 9,-7 7,-8 -7,-3 -11,4 -25,8 -32,8 -6,0 -10,14 -8,34 1,18 -2,33 -6,33 -5,0 -10,-19 -11,-42 0,-24 -2,-48 -2,-55 -2,-16 -16,-29 -16,-14 0,7 -7,20 -16,28 -9,10 -13,25 -10,37 3,12 6,36 6,54 0,29 3,32 20,27 14,-4 20,-2 20,8 0,19 8,22 68,23 h 48 z m -290,-17 c 27,-16 36,-28 36,-48 0,-34 -9,-44 -27,-29 -10,8 -20,8 -37,0 -19,-9 -25,-8 -30,4 -3,8 -4,20 -2,27 3,6 7,24 10,40 8,32 6,32 50,6 z m 325,-41 c 18,-11 18,-12 -6,-25 -14,-7 -32,-13 -41,-13 -13,0 -12,3 3,14 11,8 24,12 30,8 5,-3 4,2 -4,11 -16,20 -9,22 18,5 z m -249,-29 c 0,-8 4,-8 14,0 10,9 16,8 26,-3 6,-9 9,-20 5,-26 -3,-5 1,-10 9,-10 9,0 16,-4 16,-9 0,-5 3,-16 6,-24 3,-9 -4,-25 -17,-38 l -22,-22 -9,22 c -4,13 -17,25 -27,28 -13,3 -18,11 -14,21 3,12 -2,10 -15,-5 -24,-27 -52,-30 -53,-5 -1,16 -2,16 -6,0 -7,-29 -21,-20 -25,17 -4,31 -1,35 19,35 15,0 27,-8 33,-22 7,-18 9,-19 9,-5 2,37 51,82 51,46 z m -133,-26 c 8,-11 10,-19 4,-21 -6,-2 -5,-13 4,-26 8,-12 13,-25 10,-28 -3,-3 -31,-3 -63,-1 -40,3 -63,10 -77,24 -19,19 -19,21 -2,33 9,7 17,18 17,24 0,27 86,24 107,-5 z m 258,-4 c -3,-4 12,-5 32,-4 24,3 40,-1 47,-11 8,-10 10,-128 8,-364 L 669,720 H 530 390 v 224 c 0,191 2,225 16,237 8,7 13,21 11,31 -3,11 0,18 9,18 8,0 14,8 13,18 0,9 -3,12 -5,6 -7,-18 -41,-5 -47,17 -5,17 -3,18 9,8 12,-10 13,-9 7,7 -6,17 -5,18 12,4 10,-8 16,-10 12,-4 -4,7 0,15 9,18 28,11 33,6 24,-24 -10,-35 -1,-38 25,-10 15,16 15,22 5,35 -7,8 -21,15 -31,15 -24,0 -25,20 -1,21 11,1 9,4 -8,9 -14,4 -18,9 -10,9 12,1 11,4 -3,12 -9,6 -15,14 -12,20 10,15 43,-8 60,-41 9,-17 21,-30 27,-30 9,0 9,3 1,11 -9,9 -6,17 13,31 13,11 24,28 24,38 0,10 7,21 16,24 12,5 14,10 5,19 -8,10 -7,14 4,14 8,0 12,-4 10,-8 z m -186,-84 c 1,23 16,10 26,-23 5,-19 3,-22 -16,-19 -12,2 -26,12 -29,22 -5,13 -9,15 -14,7 -9,-15 -26,-16 -26,-2 0,6 10,14 23,19 16,6 24,4 29,-8 5,-13 7,-13 7,4 z m -69,-12 c 0,-7 -9,-13 -19,-13 -11,0 -22,-4 -25,-8 -3,-5 8,-6 25,-4 18,3 29,0 29,-7 0,-7 -3,-10 -7,-8 -5,3 -21,-1 -38,-8 l -30,-14 30,3 c 17,1 36,5 42,9 6,4 14,1 17,-5 3,-7 3,-3 1,9 -7,27 9,38 25,18 7,-8 16,-12 21,-9 5,3 9,3 9,-1 0,-8 -57,-31 -84,-34 -8,0 -29,-13 -46,-28 -38,-32 -55,-25 -77,30 -15,36 -14,39 7,62 19,20 31,24 71,22 31,-1 49,-6 49,-14 z m 11,-105 c 9,-22 9,-22 5,-2 -5,30 23,25 48,-10 19,-25 19,-27 3,-43 -14,-14 -17,-14 -17,-3 0,9 -6,6 -16,-8 -8,-12 -26,-22 -38,-22 -32,0 -52,69 -28,94 22,22 31,20 43,-6 z"
       id="path1" />
    <path
       d="m 580,2102 c 0,-3 8,-10 17,-17 13,-10 19,-10 30,1 19,18 17,21 -17,21 -16,0 -30,-2 -30,-5 z"
       id="path2" />
    <path
       d="m 635,1530 c 4,-6 -6,-10 -23,-10 -26,0 -29,-3 -25,-21 5,-18 7,-19 15,-6 5,10 18,14 36,12 15,-2 22,-2 15,1 -7,3 -9,12 -6,20 3,8 0,14 -7,14 -6,0 -8,-4 -5,-10 z"
       id="path3" />
    <path
       d="m 527,1327 c -4,-10 -7,-26 -7,-35 -1,-26 -32,-58 -64,-66 -37,-9 -30,-15 10,-9 23,4 37,14 50,38 l 18,33 17,-51 c 10,-29 18,-53 19,-54 1,-8 -35,7 -38,15 -7,22 -22,12 -22,-13 0,-14 -5,-25 -11,-25 -5,0 -7,-4 -4,-10 3,-5 -3,-10 -14,-10 -19,0 -68,-37 -59,-45 4,-4 47,-8 66,-6 8,1 10,6 6,14 -5,8 -2,8 9,-2 20,-16 22,-22 5,-18 -7,1 -12,-4 -10,-12 2,-10 -4,-12 -23,-7 -14,4 -25,2 -25,-4 0,-19 55,-11 68,10 8,14 23,20 47,20 37,0 40,-6 61,-115 4,-22 9,-33 11,-24 4,17 -13,97 -46,212 -11,37 -16,65 -10,62 5,-4 9,1 9,10 0,11 -5,15 -14,12 -14,-6 -29,25 -38,78 -3,19 -4,19 -11,2 z m 26,-150 c 4,3 7,-3 7,-15 0,-11 4,-23 9,-26 5,-4 7,4 5,16 -4,21 -4,22 5,3 17,-36 13,-55 -11,-54 -21,0 -21,1 -4,8 18,7 18,8 3,14 -9,3 -17,13 -17,21 0,10 -6,13 -15,10 -11,-4 -15,0 -15,16 0,18 3,20 13,11 8,-6 17,-8 20,-4 z m -12,-52 c -1,-6 -5,-10 -11,-9 -58,6 -57,5 -30,14 30,9 42,8 41,-5 z"
       id="path4" />
    <path
       d="m 1226,2202 c -2,-4 -4,-186 -3,-403 l 2,-396 -28,-13 c -16,-7 -50,-12 -77,-12 -27,0 -57,-6 -66,-12 -14,-11 -9,-12 27,-9 70,5 203,34 210,45 7,12 47,2 69,-17 17,-14 130,-36 130,-25 0,8 -50,20 -85,20 -12,0 -30,9 -41,21 -19,21 -60,23 -106,4 -14,-5 -18,-2 -18,13 0,17 8,22 38,25 l 37,4 -40,2 c -32,2 -36,4 -20,11 17,7 17,9 3,9 -17,1 -18,25 -18,361 v 360 h 225 225 v -332 -333 l -27,-12 c -31,-15 -56,-17 -67,-5 -4,4 -11,7 -14,8 -4,0 -16,4 -27,8 -45,17 -49,16 -47,-14 0,-3 -11,-6 -25,-7 l -26,-1 29,23 c 16,13 32,21 36,19 7,-4 8,6 8,70 0,31 -18,71 -28,62 -3,-4 0,-12 6,-18 23,-23 14,-77 -17,-109 -50,-49 -121,-37 -147,27 -12,30 -12,39 0,69 8,19 22,38 30,41 9,3 14,10 11,14 -3,5 3,7 12,5 10,-2 34,-6 53,-9 33,-5 34,-5 16,9 -25,19 -79,19 -116,0 -44,-23 -70,-62 -70,-107 0,-38 26,-98 42,-98 4,0 -1,15 -12,33 -33,54 -22,114 30,154 28,23 32,13 6,-18 -43,-51 -26,-124 35,-149 31,-13 31,-14 9,-22 -13,-5 -30,-6 -37,-3 -13,4 -73,-20 -73,-30 0,-13 109,17 154,43 5,3 6,0 2,-6 -4,-7 7,-12 31,-14 28,-2 42,2 54,16 15,19 18,19 49,4 17,-8 28,-18 24,-20 -5,-3 -54,-11 -109,-18 -110,-14 -138,-25 -73,-27 23,-1 47,2 53,7 5,5 38,10 72,12 39,2 65,8 68,15 2,7 15,13 27,14 13,0 37,9 53,20 17,10 36,22 43,25 18,9 42,-3 37,-19 -4,-10 3,-12 27,-9 24,3 38,-2 52,-17 11,-12 26,-21 35,-21 27,0 -40,48 -76,55 -18,3 -33,10 -33,14 0,14 -33,22 -44,11 -5,-5 -14,-10 -18,-10 -4,0 -9,150 -10,333 l -3,332 -232,3 c -127,1 -234,-1 -237,-6 z"
       id="path5" />
    <path
       d="m 2330,2125 c 0,-53 -1,-55 -27,-55 -62,0 -123,-64 -123,-130 0,-67 57,-130 117,-130 h 35 l -3,-218 c -3,-216 -4,-219 -26,-229 -13,-6 -21,-7 -18,-3 6,10 -43,50 -61,50 -23,0 2,-31 57,-70 55,-39 59,-53 27,-80 l -23,-19 23,-43 c 19,-37 22,-59 22,-146 0,-65 -6,-124 -16,-159 -9,-30 -13,-57 -10,-60 3,-3 -1,-18 -9,-34 -19,-36 -19,-45 1,-53 11,-4 20,5 31,34 l 16,40 171,2 171,3 6,175 c 3,96 7,176 8,176 0,1 9,1 18,0 12,-1 19,7 20,24 1,14 0,18 -3,8 -7,-24 -23,-23 -52,5 l -25,22 18,-27 c 22,-35 13,-75 -21,-90 -21,-10 -28,-8 -46,10 -20,20 -21,24 -8,61 10,31 16,38 26,30 8,-7 14,-7 19,1 3,5 3,10 -2,10 -4,0 -1,4 6,9 9,6 22,6 32,0 24,-12 66,-11 74,2 4,5 0,18 -8,27 -8,9 -13,22 -10,28 2,7 -8,21 -22,32 -24,19 -25,25 -25,113 0,67 -3,90 -11,82 -6,-6 -9,-43 -7,-92 l 3,-81 h -26 c -15,0 -32,-6 -38,-14 -6,-7 -22,-12 -36,-11 -13,2 -29,-3 -35,-10 -10,-12 -5,-13 26,-8 25,4 35,3 30,-5 -3,-6 -2,-13 4,-17 5,-3 10,-12 10,-19 0,-10 -32,-14 -76,-8 -16,3 -11,52 8,82 9,14 23,39 32,55 20,39 20,25 1,-22 -8,-20 -14,-38 -12,-40 5,-5 67,136 67,152 0,21 59,65 87,65 14,0 37,-9 52,-19 26,-18 28,-19 50,-2 41,31 5,91 -39,63 -25,-15 -57,-16 -66,0 -4,7 -3,8 4,4 6,-4 23,0 36,9 14,9 30,14 36,10 6,-4 18,-1 26,6 14,12 14,14 0,25 -15,10 -13,14 14,37 31,27 43,49 13,26 -16,-13 -17,-12 -4,3 7,10 17,16 21,13 10,-6 60,67 60,88 0,21 -36,23 -44,2 -3,-8 -13,-15 -23,-14 -16,0 -16,1 2,9 19,8 19,9 -2,9 -29,1 -29,-18 -1,-55 13,-15 18,-25 12,-21 -6,3 -52,-34 -103,-84 -93,-91 -127,-111 -76,-45 19,25 26,44 22,61 -3,18 1,29 14,36 11,5 19,18 19,27 0,10 6,24 13,31 10,11 10,14 0,18 -7,3 -13,11 -13,19 0,9 -5,12 -11,8 -7,-4 -7,1 1,15 17,33 21,61 9,82 -8,16 -14,17 -31,8 -17,-9 -19,-17 -13,-47 4,-21 7,-45 6,-55 0,-10 8,-23 18,-29 14,-8 17,-18 11,-37 -8,-32 -24,-34 -28,-3 -2,12 -7,20 -10,18 -4,-2 -13,7 -19,21 -10,21 -10,24 3,19 8,-3 14,1 14,10 0,8 -4,13 -9,10 -5,-4 -7,3 -4,14 3,11 0,20 -6,20 -10,0 -16,-22 -11,-45 1,-5 -2,-6 -7,-2 -4,5 -8,14 -8,20 0,7 -8,12 -17,12 -10,0 -23,7 -30,15 -11,12 -10,12 7,0 20,-14 20,-14 1,7 -10,13 -22,20 -27,18 -4,-3 -11,0 -15,6 -4,8 -3,9 4,5 8,-5 12,4 12,28 0,41 -16,55 -37,33 -14,-14 -14,-19 1,-51 9,-19 22,-37 29,-40 9,-5 9,-7 0,-12 -17,-8 -16,-41 1,-47 22,-9 28,5 8,19 -14,11 -14,13 -2,14 23,0 90,-49 90,-65 0,-8 -3,-14 -7,-13 -10,3 -73,-30 -73,-38 0,-3 5,-14 10,-25 8,-14 7,-19 -3,-19 -37,0 -65,-81 -32,-94 8,-3 15,-1 15,4 0,6 -4,10 -9,10 -17,0 1,45 26,66 21,18 23,25 14,42 -8,16 -7,21 5,26 19,7 34,-1 34,-19 0,-8 5,-17 12,-21 8,-5 9,-2 5,9 -4,10 -10,24 -13,32 -10,25 22,17 33,-8 11,-23 6,-31 -33,-53 -10,-6 -19,-18 -19,-25 0,-8 -10,-24 -23,-37 -28,-28 -29,-52 -1,-52 12,0 17,-4 14,-11 -4,-6 -13,-8 -21,-5 -11,4 -12,1 -4,-13 12,-23 -6,-79 -51,-158 l -31,-53 -19,24 c -10,13 -19,30 -19,38 -1,8 -9,3 -20,-11 -21,-24 -27,-76 -11,-86 6,-3 8,8 4,29 -6,40 8,53 31,27 13,-15 14,-23 5,-50 -6,-18 -9,-35 -6,-38 3,-3 10,10 16,28 8,31 9,32 10,8 1,-32 24,-53 50,-46 35,9 43,-6 29,-56 -11,-42 -10,-48 7,-67 14,-16 27,-20 47,-16 l 28,6 V 970 830 h -161 -161 l 6,23 c 3,12 9,41 12,64 7,47 32,62 49,28 6,-11 23,-21 38,-23 21,-3 29,2 39,22 6,14 19,26 29,26 35,0 52,66 24,90 -12,10 -13,16 -4,26 6,8 9,23 6,34 -3,14 0,20 11,20 8,0 13,3 9,6 -3,4 -27,3 -53,-1 -34,-5 -43,-9 -33,-16 8,-5 24,-9 37,-9 25,0 31,-27 7,-36 -19,-8 -20,-24 -1,-24 20,0 29,-35 16,-60 -13,-24 -28,-25 -58,-4 -26,18 -29,12 -6,-11 18,-17 13,-42 -11,-51 -23,-9 -45,15 -46,50 0,29 -1,30 -11,9 -14,-28 -24,-29 -31,-3 -3,13 3,28 16,42 12,11 16,18 10,14 -7,-4 -13,-2 -13,3 0,21 -2,26 -12,39 -7,8 -7,12 1,12 6,0 15,-8 18,-17 9,-25 25,-34 47,-27 16,5 17,4 5,-9 -8,-8 -17,-13 -21,-10 -4,2 -5,-3 -2,-11 5,-12 9,-13 25,-3 10,6 19,19 19,27 0,9 5,21 11,27 11,11 5,33 -10,33 -4,0 -16,-7 -27,-16 -18,-15 -18,-15 4,-9 13,4 22,2 22,-4 0,-6 -4,-11 -9,-11 -5,0 -17,-3 -27,-7 -12,-4 -15,-3 -10,5 4,7 2,12 -6,12 -7,0 -1,8 15,18 15,9 27,22 27,29 0,8 -8,5 -20,-7 -28,-28 -48,-25 -57,8 l -6,27 -8,-30 c -5,-16 -5,-33 0,-38 5,-5 3,-23 -5,-43 -16,-39 -18,-58 -4,-49 13,8 13,8 -5,-80 -9,-41 -25,-94 -36,-117 -11,-24 -17,-32 -13,-18 3,14 9,48 14,77 4,28 12,58 16,65 5,7 7,64 6,126 l -3,112 h 23 c 13,0 33,7 44,15 18,14 17,14 -9,5 -16,-5 -34,-10 -42,-10 -21,0 -45,29 -45,55 0,44 68,61 94,24 13,-20 43,-18 31,2 -4,5 2,6 11,2 11,-4 13,-8 6,-11 -7,-2 -10,-8 -6,-13 3,-5 0,-8 -7,-7 -6,2 -14,-3 -16,-9 -3,-7 3,-13 11,-13 9,0 19,7 22,15 4,8 16,15 28,15 11,0 17,-4 11,-8 -5,-4 -19,-18 -30,-32 -15,-19 -16,-22 -2,-11 10,8 17,9 17,3 0,-21 -23,-25 -37,-6 -14,19 -15,19 -11,-1 3,-16 11,-20 40,-20 30,-1 35,2 26,12 -8,10 -8,17 0,25 19,19 14,48 -7,48 -10,0 -21,6 -24,14 -3,7 -16,13 -29,12 -13,-1 -34,3 -48,10 -14,6 -31,9 -37,7 -9,-3 -13,7 -13,31 0,43 19,55 62,38 27,-10 30,-9 38,16 6,15 14,34 19,42 10,18 41,26 41,10 0,-6 -4,-8 -10,-5 -12,7 -13,-15 -1,-33 6,-10 10,-5 14,17 5,22 11,29 21,25 25,-9 67,45 65,83 0,10 -6,3 -14,-17 -13,-33 -20,-27 -15,13 2,22 -19,49 -31,41 -14,-8 -10,-40 6,-54 18,-15 16,-51 -1,-57 -7,-2 -10,7 -8,24 2,15 1,20 -2,11 -6,-21 -18,-23 -32,-5 -8,9 -7,20 2,37 11,22 10,28 -12,48 -18,17 -22,26 -14,34 8,8 16,7 28,-2 9,-8 25,-15 37,-17 11,-2 26,-8 34,-14 7,-6 13,-9 13,-5 0,3 -17,17 -38,31 -29,19 -48,24 -79,21 -47,-4 -63,13 -52,59 6,29 7,29 9,-10 3,-34 4,-35 7,-11 6,36 -5,79 -17,71 -6,-3 -10,-17 -10,-30 0,-13 -6,-25 -12,-27 -10,-4 -10,-10 0,-32 7,-15 8,-25 3,-21 -15,8 -25,-15 -12,-28 8,-8 14,-8 23,1 10,10 15,4 25,-25 l 13,-38 -5,38 c -2,20 1,37 6,37 5,0 9,-20 8,-44 -2,-36 -6,-42 -20,-39 -12,3 -23,-5 -34,-26 -16,-31 -13,-51 6,-51 6,0 7,5 4,10 -3,6 -3,19 0,30 7,21 39,27 50,10 4,-6 9,-8 13,-6 4,2 13,-2 20,-10 11,-12 9,-14 -7,-14 -11,0 -25,-9 -31,-20 -6,-11 -20,-20 -30,-20 -11,0 -20,-6 -20,-14 0,-19 -51,-14 -64,6 -5,8 -6,27 -2,42 5,22 11,26 28,20 14,-4 18,-2 14,5 -4,6 -14,11 -22,11 -12,0 -14,29 -14,169 v 169 l 35,21 c 36,21 65,71 65,112 0,37 -31,88 -66,110 -31,19 -34,25 -34,70 v 49 h 165 165 l 1,-142 c 0,-103 3,-136 10,-119 5,13 8,79 7,145 l -3,121 -177,3 -178,2 z m 30,-80 c 42,-22 60,-53 60,-107 0,-39 -6,-54 -29,-80 -26,-29 -36,-33 -79,-33 -60,0 -96,27 -113,86 -15,50 11,107 61,131 43,22 63,22 100,3 z m 443,-371 c -19,-17 -24,-27 -15,-31 17,-7 15,-24 -2,-17 -8,3 -27,-3 -43,-12 -19,-13 -13,-3 22,34 27,29 53,52 58,52 4,0 -5,-12 -20,-26 z m -129,-53 c 3,-4 -3,-16 -14,-26 -20,-18 -20,-18 -16,6 3,13 5,25 5,27 2,6 20,1 25,-7 z m 24,-50 c -7,-11 -22,-24 -35,-30 -13,-6 -32,-30 -43,-53 -25,-58 -25,-42 1,28 12,31 24,52 28,46 4,-7 15,-4 31,8 31,24 33,24 18,1 z m 132,-12 c 0,-9 -20,-23 -35,-25 -5,0 -19,5 -30,12 -12,6 -30,14 -40,17 -11,2 8,4 43,4 34,0 62,-4 62,-8 z m -347,-56 c -20,-31 -23,-29 -23,12 0,32 2,34 19,23 17,-11 18,-14 4,-35 z m 187,-192 31,-28 -31,-7 c -56,-11 -87,28 -46,56 14,10 11,12 46,-21 z m 31,19 c 19,-11 27,-40 11,-40 -5,0 -19,11 -32,25 -24,26 -14,33 21,15 z m 39,-76 c 0,-17 -34,-18 -63,-2 -21,12 -21,13 13,18 41,7 50,4 50,-16 z"
       id="path6" />
    <path
       d="m 760,2016 c 0,-8 4,-17 9,-20 11,-7 33,18 24,27 -12,12 -33,7 -33,-7 z"
       id="path7" />
    <path
       d="m 1572,1982 c 5,-18 0,-24 -25,-31 -24,-7 -27,-9 -10,-10 14,-1 25,-11 32,-28 9,-22 10,-23 7,-5 -3,17 -1,22 10,18 8,-3 14,-1 14,4 0,6 8,10 18,11 13,0 12,2 -5,9 -13,5 -23,16 -23,24 0,8 -5,18 -12,22 -8,5 -9,0 -6,-14 z"
       id="path8" />
    <path
       d="m 1330,1840 c -13,-13 -13,-17 3,-32 14,-15 17,-15 17,-3 0,8 6,15 13,15 8,0 9,3 1,8 -6,4 -13,12 -15,17 -2,7 -10,5 -19,-5 z"
       id="path9" />
    <path
       d="m 291,1710 c -1,-19 -7,-26 -22,-27 -33,-3 -48,-23 -18,-24 13,-1 27,-1 32,0 4,0 7,-11 8,-26 1,-28 1,-28 10,4 7,25 13,30 32,26 21,-4 22,-4 3,11 -11,9 -23,16 -27,16 -4,0 -10,10 -12,23 -4,20 -4,20 -6,-3 z"
       id="path10" />
    <path
       d="m 1910,1470 c 11,-8 -6,-9 -69,-4 -60,4 -82,3 -77,-5 10,-16 179,-15 174,2 -3,6 -13,13 -24,15 -16,3 -17,1 -4,-8 z"
       id="path11" />
    <path
       d="m 2771,1466 c -12,-14 -5,-26 16,-26 15,0 18,26 4,34 -5,3 -14,0 -20,-8 z"
       id="path12" />
    <path
       d="m 1455,1420 c 3,-5 26,-10 51,-10 24,0 44,5 44,10 0,6 -23,10 -51,10 -31,0 -48,-4 -44,-10 z"
       id="path13" />
    <path
       d="m 1822,1398 c -7,-7 -16,-13 -20,-13 -22,-2 -52,-18 -52,-28 0,-8 3,-8 12,1 7,7 22,12 35,12 13,0 23,5 23,10 0,6 9,10 21,10 16,0 20,-4 14,-17 -5,-14 -3,-15 6,-6 14,14 5,43 -14,43 -7,0 -19,-6 -25,-12 z"
       id="path14" />
    <path
       d="m 1615,1365 c -20,-10 -24,-14 -12,-15 10,0 27,5 37,10 12,7 34,7 60,1 22,-5 40,-5 40,-1 0,8 -51,21 -79,19 -9,0 -29,-7 -46,-14 z"
       id="path15" />
    <path
       d="m 1888,1373 c 6,-2 12,-13 12,-24 0,-13 7,-19 23,-20 20,0 20,-1 3,-8 -11,-4 11,-8 55,-8 67,0 70,0 29,8 -81,14 -98,21 -103,40 -3,10 -11,19 -19,18 -10,0 -10,-2 0,-6 z"
       id="path16" />
    <path
       d="m 985,1353 c -79,-17 -44,-33 67,-30 82,2 104,17 26,17 -20,0 -40,5 -43,10 -6,10 -15,11 -50,3 z"
       id="path17" />
    <path
       d="m 1673,1317 c 23,-19 25,-127 3,-127 -8,0 -18,5 -21,11 -4,6 -19,9 -33,8 -15,-1 -40,3 -55,10 -16,6 -46,11 -68,11 -22,0 -48,5 -58,12 -15,9 -26,8 -52,-4 -35,-17 -60,-17 -94,-3 -25,10 -55,35 -55,46 0,4 8,10 18,12 9,3 -17,4 -58,4 -53,0 -60,-2 -24,-4 l 50,-4 v -237 l -1,-237 238,-3 237,-2 v 250 c 0,137 1,253 3,258 1,4 -9,8 -23,10 -23,2 -24,1 -7,-11 z m -345,-107 c 10,0 23,-5 30,-12 7,-7 12,-8 12,-4 0,5 6,4 13,-2 14,-11 196,-28 185,-17 -4,5 -25,9 -45,11 -101,8 -120,11 -142,18 -24,8 -24,8 8,23 25,13 34,13 46,3 9,-7 40,-14 70,-15 30,-1 61,-7 69,-14 8,-7 20,-10 25,-7 5,4 28,1 50,-6 l 41,-13 V 1058 940 h -28 c -16,0 -32,-3 -35,-7 -4,-3 -19,-8 -33,-9 -15,-2 -32,-8 -38,-14 -13,-13 53,-2 70,11 6,5 23,8 38,7 24,-2 26,-6 26,-45 0,-28 -4,-43 -12,-43 -9,0 -8,-4 2,-10 10,-6 -62,-10 -212,-10 h -228 v 90 c 0,89 0,90 25,90 14,0 25,5 25,11 0,7 -10,9 -25,6 -20,-3 -25,-1 -23,12 2,9 12,17 23,20 11,2 23,8 27,14 4,7 11,7 21,-1 7,-7 17,-9 20,-5 4,3 12,-8 18,-25 6,-18 18,-32 26,-32 8,0 11,5 8,11 -5,7 8,9 41,5 35,-4 42,-3 24,3 -14,5 -40,9 -57,10 -23,1 -33,6 -33,16 0,24 -49,39 -80,24 -14,-7 -28,-15 -32,-17 -5,-2 -8,42 -8,97 v 101 l 35,-20 c 20,-11 44,-20 53,-20 z"
       id="path18" />
    <path
       d="m 1570,960 c 0,-5 14,-10 31,-10 17,0 28,4 24,10 -3,6 -17,10 -31,10 -13,0 -24,-4 -24,-10 z"
       id="path19" />
    <path
       d="m 1470,904 c -25,-7 -55,-13 -67,-13 -13,-1 -23,-5 -23,-11 0,-6 40,-10 103,-9 78,1 94,3 67,10 -19,4 -53,6 -75,3 -40,-4 -40,-4 8,9 47,14 73,28 46,26 -8,-1 -34,-7 -59,-15 z"
       id="path20" />
    <path
       d="m 1735,1320 c 3,-5 27,-9 53,-9 42,1 44,2 17,9 -45,11 -77,11 -70,0 z"
       id="path21" />
    <path
       d="m 731,1148 c -11,-18 -11,-20 3,-15 10,4 13,1 10,-7 -3,-8 -1,-17 5,-21 6,-3 11,0 11,9 0,8 5,16 11,18 6,2 3,11 -8,20 -18,16 -19,16 -32,-4 z"
       id="path22" />
  </g>
</svg>
