<?xml version="1.0" encoding="UTF-8" standalone="no"?>
<svg
   version="1.0"
   width="300.000000pt"
   height="171.000000pt"
   viewBox="0 0 300.000000 171.000000"
   preserveAspectRatio="xMidYMid meet"
   id="svg11"
   sodipodi:docname="سلمان.svg"
   inkscape:version="1.4 (86a8ad7, 2024-10-11)"
   xmlns:inkscape="http://www.inkscape.org/namespaces/inkscape"
   xmlns:sodipodi="http://sodipodi.sourceforge.net/DTD/sodipodi-0.dtd"
   xmlns="http://www.w3.org/2000/svg"
   xmlns:svg="http://www.w3.org/2000/svg">
  <defs
     id="defs11" />
  <sodipodi:namedview
     id="namedview11"
     pagecolor="#ffffff"
     bordercolor="#000000"
     borderopacity="0.25"
     inkscape:showpageshadow="2"
     inkscape:pageopacity="0.0"
     inkscape:pagecheckerboard="0"
     inkscape:deskcolor="#d1d1d1"
     inkscape:document-units="pt"
     inkscape:zoom="1.4320175"
     inkscape:cx="197.62328"
     inkscape:cy="90.431853"
     inkscape:window-width="1600"
     inkscape:window-height="871"
     inkscape:window-x="1911"
     inkscape:window-y="114"
     inkscape:window-maximized="1"
     inkscape:current-layer="svg11" />
  <metadata
     id="metadata1">
Created by potrace 1.10, written by Peter Selinger 2001-2011
</metadata>
  <g
     transform="matrix(0.04671267,0,0,-0.03819074,-17.2052,50.225887)"
     fill="#000000"
     stroke="none"
     id="g11">
    <path
       d="m 1716,1295 c -19,-20 -46,-108 -46,-152 0,-19 8,-50 19,-71 10,-20 24,-80 31,-132 14,-99 28,-156 29,-114 2,52 -30,219 -47,248 -19,33 -18,85 4,171 13,55 58,61 111,15 18,-16 41,-30 51,-29 14,0 14,2 2,6 -8,3 -19,12 -23,20 -10,16 -80,53 -101,53 -8,0 -22,-7 -30,-15 z"
       id="path1" />
    <path
       d="m 1733,1267 c -32,-40 -43,-145 -19,-169 7,-8 21,-66 30,-129 9,-63 21,-136 26,-164 13,-71 12,-95 -2,-93 -7,2 -12,-3 -10,-9 4,-21 -47,-15 -76,7 -14,12 -27,31 -29,43 -2,11 -7,24 -11,27 -4,3 -16,22 -27,43 -11,20 -32,43 -47,49 -20,10 -24,15 -16,25 45,55 -107,-26 -159,-84 -24,-26 -43,-53 -43,-60 0,-7 -4,-13 -10,-13 -5,0 -7,-6 -4,-13 8,-21 -40,-37 -107,-37 -103,0 -116,27 -124,270 -5,130 -10,186 -23,217 -18,45 -39,60 -28,21 8,-29 24,-187 34,-353 12,-179 10,-175 130,-175 88,0 101,3 135,25 20,14 37,29 37,33 0,16 86,94 123,114 28,14 42,16 51,8 17,-13 75,-130 79,-159 3,-21 9,-23 85,-24 60,-2 82,1 82,10 0,7 -13,107 -30,223 -16,116 -30,212 -30,215 0,3 -7,5 -15,5 -18,0 -19,21 -4,90 11,53 23,64 32,30 3,-12 22,-28 47,-38 l 41,-17 -6,-45 c -8,-53 -13,-63 -26,-54 -12,7 -11,-1 27,-246 13,-85 24,-159 24,-165 0,-14 127,-6 139,9 5,6 11,38 13,71 4,71 20,81 36,21 6,-24 23,-58 38,-75 24,-29 31,-31 89,-31 76,0 87,10 84,77 -4,84 24,103 35,24 8,-62 38,-101 77,-101 26,0 29,3 29,34 0,19 -9,45 -21,60 -18,24 -20,30 -9,56 7,17 16,30 21,30 21,0 39,-77 42,-176 l 2,-104 h -38 c -22,0 -54,7 -73,16 -31,15 -37,15 -68,0 -43,-20 -134,-21 -184,-1 -34,14 -41,14 -68,0 -23,-12 -70,-15 -241,-15 -187,0 -219,2 -264,19 -28,11 -59,27 -69,36 -16,14 -20,13 -48,-13 -17,-16 -46,-32 -63,-36 -50,-10 -198,-7 -220,4 -42,23 -62,109 -74,320 -7,128 -18,182 -40,200 -21,17 -20,21 21,81 36,55 31,81 -7,37 l -21,-23 14,24 c 24,41 44,48 77,28 38,-22 154,-142 164,-170 18,-47 37,-186 37,-269 0,-52 4,-88 10,-88 12,0 12,0 10,110 -1,87 -22,227 -37,253 -16,29 -140,152 -170,170 -17,9 -40,17 -52,17 -20,0 -71,-56 -71,-78 0,-7 -4,-12 -8,-12 -5,0 -15,-15 -24,-33 -15,-31 -15,-37 1,-73 l 18,-39 7,29 7,29 15,-29 c 17,-32 35,-257 22,-277 -10,-15 -8,-95 2,-127 7,-21 8,-18 10,20 l 2,45 16,-69 c 16,-63 20,-71 54,-88 60,-31 236,-25 305,10 29,14 35,14 70,0 21,-9 54,-19 73,-22 30,-5 275,-6 505,-3 39,1 96,-1 128,-5 31,-3 60,-2 63,3 6,11 108,10 144,0 37,-11 77,6 84,35 4,14 6,63 5,108 -1,63 -7,94 -23,126 -25,49 -64,65 -73,30 -3,-11 -9,-17 -14,-14 -5,3 -10,-7 -10,-23 -1,-17 -3,-21 -6,-10 -2,9 -8,15 -13,12 -5,-3 -6,-13 -3,-22 4,-11 3,-14 -5,-9 -7,4 -12,16 -12,27 0,13 -7,19 -22,19 -35,0 -47,-13 -46,-45 1,-59 -2,-76 -13,-70 -6,4 -8,13 -5,20 3,8 -5,15 -19,17 -25,5 -25,-16 1,-26 28,-11 15,-34 -18,-33 -38,1 -96,54 -118,106 -23,56 -59,37 -75,-39 -4,-19 -14,-43 -23,-52 -16,-19 -52,-25 -52,-9 0,5 -9,12 -19,16 -11,3 -20,14 -19,23 0,9 -5,51 -12,92 -6,41 -15,107 -19,145 -7,63 -4,81 17,145 10,30 -4,90 -22,90 -8,0 -16,6 -19,13 -2,6 -23,22 -45,34 -31,18 -42,20 -49,10 z m 631,-519 c -3,-4 0,-8 5,-8 6,0 11,-4 11,-10 0,-14 -28,-12 -33,3 -2,6 -2,20 1,30 4,14 7,15 13,6 4,-7 5,-17 3,-21 z"
       id="path2" />
    <path
       d="m 1960,1144 80,-77 v -59 c 0,-32 -6,-74 -14,-93 -10,-23 -11,-37 -5,-41 17,-10 28,8 39,65 19,102 18,105 -73,197 -46,46 -88,84 -95,84 -6,0 24,-34 68,-76 z"
       id="path3" />
    <path
       d="m 663,1065 c -25,-17 -63,-87 -63,-116 0,-36 31,-83 100,-149 73,-71 178,-143 160,-111 -5,10 -29,30 -53,44 -63,37 -197,181 -197,211 0,14 5,28 10,31 6,3 10,-4 10,-15 0,-13 8,-24 20,-27 11,-3 20,-9 20,-13 0,-5 14,-13 30,-19 26,-9 33,-7 55,15 14,14 25,31 25,39 0,8 4,15 10,15 11,0 1,32 -14,42 -7,5 -5,8 6,8 9,0 42,-23 72,-51 31,-28 56,-47 56,-41 0,19 -91,93 -151,122 -73,35 -68,34 -96,15 z m 64,-47 c 21,-12 40,-23 42,-25 4,-3 -30,-83 -35,-83 -2,0 -59,32 -81,45 -3,2 31,85 34,85 1,0 19,-10 40,-22 z"
       id="path4" />
    <path
       d="m 974,1004 c 3,-26 6,-55 6,-66 0,-11 4,-17 8,-14 5,3 5,29 2,58 -4,29 -6,56 -3,61 2,4 -1,7 -8,7 -8,0 -10,-14 -5,-46 z"
       id="path5" />
    <path
       d="m 1575,900 c 3,-5 12,-10 20,-10 7,0 15,-3 17,-7 2,-5 25,-28 52,-53 52,-48 52,-38 1,19 -36,40 -109,81 -90,51 z"
       id="path6" />
    <path
       d="m 2363,888 c -24,-31 -24,-41 -1,-20 42,39 64,30 159,-67 105,-107 119,-140 119,-296 0,-130 -8,-141 -102,-130 -35,3 -81,6 -103,5 -51,-2 -167,-3 -225,-2 -25,1 -139,-1 -255,-4 -216,-6 -282,1 -352,34 -30,14 -34,14 -50,0 -32,-28 -94,-40 -198,-36 -55,2 -109,7 -120,12 -17,6 -16,5 4,-13 21,-19 36,-21 138,-21 94,0 123,4 164,21 l 49,21 50,-21 c 49,-21 61,-22 303,-17 139,2 263,4 277,4 46,-2 205,-2 225,0 11,1 56,-1 100,-4 74,-5 82,-4 100,16 17,19 20,36 20,129 0,128 -16,191 -62,238 -18,20 -33,39 -34,42 0,3 -30,32 -65,64 -51,46 -70,57 -98,57 -18,0 -38,-6 -43,-12 z"
       id="path7" />
    <path
       d="m 885,864 c -23,-36 -30,-87 -14,-115 7,-13 13,-33 15,-44 1,-11 8,-34 15,-51 9,-24 10,-40 2,-65 l -11,-34 -1,40 c -1,22 -6,47 -11,55 -7,11 -10,1 -8,-36 0,-28 -2,-57 -7,-64 -4,-7 -35,-25 -69,-41 -34,-16 -52,-28 -41,-29 17,0 17,-2 5,-10 -8,-5 -50,-10 -92,-10 -76,0 -79,1 -118,36 -38,35 -40,39 -40,95 0,33 4,59 9,59 6,0 11,15 13,33 2,21 8,31 17,29 9,-2 11,3 7,13 -3,9 -6,27 -6,39 0,14 -9,27 -22,34 -21,10 -21,11 -3,11 11,0 28,-4 38,-8 25,-9 166,-151 173,-173 3,-10 -6,-43 -20,-74 -28,-62 -31,-74 -16,-74 14,0 60,99 60,130 0,33 -131,170 -191,200 -61,32 -85,20 -121,-59 -71,-158 -82,-275 -34,-369 25,-50 169,-199 223,-232 78,-47 283,-46 393,1 67,29 125,92 145,159 9,30 20,62 25,71 6,12 3,22 -11,35 -18,17 -19,16 -19,-14 0,-43 -27,-121 -56,-159 -14,-18 -54,-46 -91,-65 -66,-32 -71,-33 -193,-33 -81,0 -139,5 -164,14 -43,15 -202,161 -236,216 -13,21 -21,56 -24,106 -4,65 -4,68 4,24 5,-27 12,-62 15,-77 9,-33 62,-91 75,-83 6,4 10,2 10,-3 0,-12 6,-12 139,-19 181,-8 281,30 323,123 17,39 19,63 15,206 -4,173 -7,200 -25,206 -7,2 -12,10 -12,18 0,8 -4,14 -10,14 -14,0 -13,-8 11,-69 18,-48 20,-73 17,-196 -3,-136 -4,-143 -31,-184 -20,-31 -45,-50 -85,-69 -52,-25 -68,-27 -177,-27 -137,0 -180,14 -215,70 -38,61 -22,207 36,328 10,20 24,37 31,37 18,0 17,-9 -12,-75 -31,-69 -41,-160 -23,-195 7,-13 28,-34 45,-46 100,-67 339,-14 380,84 19,46 12,133 -18,201 -16,38 -18,54 -10,69 34,64 31,100 -4,46 z"
       id="path8" />
    <path
       d="m 2257,859 c -18,-10 -47,-59 -47,-79 0,-6 5,-8 10,-5 6,3 10,14 10,24 0,27 36,54 71,54 19,0 25,3 17,9 -17,10 -39,10 -61,-3 z"
       id="path9" />
    <path
       d="m 2061,858 c 2,-2 26,-23 52,-48 26,-24 47,-39 47,-34 0,21 -73,84 -96,84 -4,0 -5,-1 -3,-2 z"
       id="path10" />
    <path
       d="m 1489,770 c -34,-34 -32,-42 19,-74 47,-29 70,-37 76,-27 6,9 -50,131 -59,131 -4,0 -20,-13 -36,-30 z"
       id="path11" />
  </g>
</svg>
