<?xml version="1.0" encoding="UTF-8" standalone="no"?>
<svg
   version="1.0"
   width="300.000000pt"
   height="328.000000pt"
   viewBox="0 0 300.000000 328.000000"
   preserveAspectRatio="xMidYMid meet"
   id="svg46"
   sodipodi:docname="شعار الازهر.svg"
   inkscape:version="1.4 (86a8ad7, 2024-10-11)"
   xmlns:inkscape="http://www.inkscape.org/namespaces/inkscape"
   xmlns:sodipodi="http://sodipodi.sourceforge.net/DTD/sodipodi-0.dtd"
   xmlns="http://www.w3.org/2000/svg"
   xmlns:svg="http://www.w3.org/2000/svg">
  <defs
     id="defs46" />
  <sodipodi:namedview
     id="namedview46"
     pagecolor="#ffffff"
     bordercolor="#000000"
     borderopacity="0.25"
     inkscape:showpageshadow="2"
     inkscape:pageopacity="0.0"
     inkscape:pagecheckerboard="0"
     inkscape:deskcolor="#d1d1d1"
     inkscape:document-units="pt"
     showguides="true"
     inkscape:zoom="1.9047256"
     inkscape:cx="200.02881"
     inkscape:cy="122.06483"
     inkscape:window-width="1920"
     inkscape:window-height="1051"
     inkscape:window-x="-9"
     inkscape:window-y="-9"
     inkscape:window-maximized="1"
     inkscape:current-layer="g46">
    <sodipodi:guide
       position="212.62905,161.04681"
       orientation="0,-1"
       id="guide46"
       inkscape:locked="false" />
  </sodipodi:namedview>
  <metadata
     id="metadata1">
Created by potrace 1.10, written by Peter Selinger 2001-2011
</metadata>
  <g
     transform="translate(0.000000,328.000000) scale(0.100000,-0.100000)"
     fill="#000000"
     stroke="none"
     id="g46">
    <path
       id="path1"
       style="stroke-width:0.365949"
       d="M 461.14746 3279.8828 C 445.38769 3279.6309 431.99755 3278.9498 423.50098 3277.7588 C 411.07589 3275.9266 387.328 3270.7891 370.51758 3266.3916 C 185.96839 3216.92 50.756519 3073.2771 8.7304688 2882.7197 C -2.9637413 2830.3163 -2.9629703 2737.6042 9.0966797 2684.1016 C 31.7542 2579.6614 77.79701 2497.9402 154.1748 2423.916 C 225.07093 2355.3885 310.94055 2311.0471 407.7832 2293.0908 C 453.82914 2284.6622 540.08046 2284.6622 585.39551 2293.0908 C 734.49665 2320.575 867.88911 2418.7877 936.95801 2551.8115 C 976.79141 2628.0344 993.2373 2695.8204 993.2373 2783.0371 C 993.2373 2868.7879 977.14896 2938.4236 940.23926 3010.249 C 871.90116 3143.6392 748.74881 3238.185 599.28223 3272.2656 C 577.08151 3277.4876 508.42678 3280.6387 461.14746 3279.8828 z M 479.07715 3261.5869 C 521.07822 3261.952 569.27022 3259.3454 592.33887 3254.3066 C 684.06531 3234.1515 759.71813 3194.2022 825.49805 3131.5381 C 901.14503 3059.3462 950.83923 2966.6362 969.11133 2864.0283 C 976.05483 2825.5504 975.68781 2744.2031 968.37891 2702.0605 C 951.56851 2604.9495 905.88716 2516.9958 835.35645 2445.9033 C 716.22173 2326.0719 545.56048 2278.0638 382.20703 2318.374 C 227.62424 2356.8519 98.255355 2474.119 46.362305 2622.9004 C 19.319455 2700.5892 11.279917 2795.4978 25.532227 2868.7891 C 64.634727 3070.7067 215.5642 3220.224 416.92383 3257.6025 C 430.90205 3260.0762 453.87651 3261.3679 479.07715 3261.5869 z M 486.5625 3075.9033 C 469.14324 3075.7187 452.83537 3074.5188 441.0498 3072.1826 C 362.8448 3056.7915 291.57606 3007.687 249.18457 2939.8926 C 207.15851 2871.7316 194.36452 2793.3006 212.63672 2713.4131 C 215.56027 2700.2207 226.53027 2672.3675 236.7627 2651.4795 C 252.84224 2618.8649 260.15748 2608.6082 288.66211 2579.6582 C 323.01384 2544.8449 348.95232 2527.2572 389.5166 2510.7666 C 574.0658 2437.4753 775.06564 2565.3732 790.04883 2766.1914 C 795.53049 2835.4517 769.94396 2913.8692 724.62891 2969.2041 C 685.5264 3016.477 626.33083 3053.8474 567.12891 3068.8721 C 547.71469 3073.6818 515.5946 3076.2111 486.5625 3075.9033 z M 498.3252 3061.0059 C 522.4445 3061.0059 546.29944 3059.3528 560.55176 3056.0547 C 704.17123 3021.9742 796.98398 2881.6153 772.13379 2737.2314 C 744.72549 2580.7544 595.99881 2478.5187 441.41602 2510.4004 C 244.80717 2550.7106 153.80424 2782.3126 270.38086 2945.3857 C 309.11791 2999.9878 371.98174 3042.4958 434.47266 3056.0547 C 449.8213 3059.3528 474.2059 3061.0059 498.3252 3061.0059 z M 495.99609 3039.1943 C 493.84911 3039.1027 491.84752 3036.2683 490.38574 3030.7715 C 487.46219 3018.6785 456.38709 2991.5568 421.66992 2971.0352 C 366.85332 2938.4206 343.83265 2910.9327 352.96875 2888.9453 C 355.52686 2883.082 363.20717 2875.0176 369.78516 2870.6201 C 382.94114 2862.5581 385.86462 2853.7621 376.72852 2850.4639 C 373.07409 2848.9981 371.25 2843.1462 371.25 2833.6182 L 371.25 2818.5889 L 355.89844 2821.1523 C 347.12779 2822.6181 336.524 2826.2774 332.13867 2829.209 C 321.17536 2836.1718 316.43555 2835.806 316.43555 2828.1104 C 316.80099 2824.4459 331.78228 2764.7147 350.41992 2695.0879 L 384.4043 2568.6719 L 440.31738 2547.7832 L 496.59668 2526.8945 L 553.24219 2547.7832 C 584.30493 2559.1433 610.24003 2570.5017 610.60547 2572.334 C 619.37613 2602.75 678.22266 2827.7571 678.22266 2830.3223 C 678.22266 2836.1857 666.88409 2835.0726 659.5752 2828.8428 C 656.28621 2825.5447 646.43178 2822.6175 637.66113 2822.251 C 621.94703 2821.5181 621.57946 2821.5256 622.67578 2832.8857 C 623.40667 2839.8484 621.56949 2846.0673 617.91504 2848.999 C 609.50983 2855.9617 611.34157 2861.471 627.05566 2874.2969 C 645.6933 2888.9552 646.78343 2903.2425 631.06934 2924.8633 C 621.20236 2938.4223 585.76432 2964.8005 559.08691 2978.3594 C 543.37283 2986.4214 506.46129 3020.8768 502.44141 3031.1377 C 500.43147 3036.6345 498.14308 3039.2859 495.99609 3039.1943 z M 496.59668 3014.2773 L 506.08887 3002.1777 C 511.20509 2995.5815 522.1743 2983.126 529.84863 2974.3311 C 537.88839 2965.5361 556.89257 2948.3089 572.24121 2936.2158 C 587.22442 2923.7562 601.83643 2910.9351 604.39453 2907.2705 C 611.33797 2897.3762 610.97022 2883.8131 603.2959 2869.8877 L 596.71875 2857.0703 L 606.95801 2848.2666 C 616.45955 2839.8381 616.82262 2838.3719 612.80273 2827.0117 C 610.61007 2820.0491 609.87687 2813.4632 611.7041 2811.6309 C 613.16587 2810.1651 624.13511 2810.5308 635.46387 2812.7295 C 647.15808 2815.2947 657.39411 2816.3924 658.125 2815.293 C 659.22133 2814.1936 655.19846 2794.0396 649.7168 2769.8535 L 639.11133 2726.6113 L 632.53418 2739.0625 C 628.87974 2746.0252 625.59006 2752.2603 625.22461 2752.9932 C 624.49372 2753.7261 612.80365 2747.125 599.28223 2738.3301 C 585.39536 2729.1687 571.86964 2720.7383 569.31152 2719.2725 C 566.38798 2717.4402 563.8284 2719.6494 561.63574 2725.5127 C 559.80852 2730.643 552.14364 2737.9754 545.2002 2742.7393 C 533.506 2749.702 532.0459 2752.2659 532.0459 2766.5576 C 532.0459 2776.0856 534.23542 2783.7823 537.52441 2786.7139 C 545.19873 2793.3101 544.46479 2810.8944 536.05957 2816.7578 C 527.65436 2822.6211 524.37005 2850.1076 531.31348 2857.0703 C 538.25692 2864.0329 536.789 2877.591 528.38379 2880.1562 C 522.90213 2881.9886 521.81048 2884.5448 523.6377 2893.3398 C 524.73403 2899.5696 523.63232 2913.5034 521.07422 2924.4971 C 517.05433 2940.6212 517.05433 2946.1135 521.07422 2953.0762 C 523.63232 2958.2066 524.73326 2964.8071 523.27148 2968.4717 C 521.07883 2974.335 520.34571 2974.3355 515.22949 2967.7393 C 511.20961 2962.6088 509.01625 2962.244 507.91992 2965.542 C 504.99637 2971.7718 496.58825 2971.0398 492.56836 2964.0771 C 489.64482 2958.5803 488.55936 2958.9455 483.80859 2965.9082 C 478.32693 2973.6038 477.96002 2973.6033 476.13281 2966.6406 C 475.03647 2962.6095 476.48974 2956.3743 479.04785 2953.0762 C 482.70228 2947.9458 482.70075 2942.4534 478.31543 2924.4971 C 475.75732 2912.404 474.30406 2898.1042 475.40039 2892.6074 C 476.86216 2885.6447 475.75893 2882.3545 472.10449 2880.8887 C 465.5265 2878.3235 464.07476 2861.8334 469.92188 2858.1689 C 472.11454 2857.0695 473.56934 2848.2727 473.56934 2839.1113 C 473.56934 2825.9188 471.73759 2821.1564 464.42871 2815.293 C 453.46539 2806.498 452.74531 2796.6082 462.6123 2786.7139 C 467.36307 2781.95 469.92188 2774.6203 469.92188 2765.459 C 469.92188 2752.9994 468.81334 2751.1651 457.11914 2746.7676 C 445.79037 2742.7366 432.26849 2729.8992 428.97949 2720.0049 C 428.2486 2717.8062 420.5814 2721.1143 411.44531 2726.9775 C 402.30921 2732.8409 388.78272 2741.6377 381.1084 2746.0352 L 367.58789 2754.458 L 361.37695 2740.1611 L 355.53223 2726.2451 L 345.29297 2766.5576 C 331.4061 2820.0604 331.04059 2817.4925 352.23633 2814.1943 C 379.27919 2809.7968 384.03579 2809.7958 382.93945 2815.6592 C 377.45779 2840.2118 377.81856 2841.3026 387.68555 2850.4639 L 397.55859 2859.6338 L 389.15039 2870.6201 C 381.84151 2880.5144 381.48227 2883.0918 385.13672 2896.2842 C 388.79116 2907.2779 395.37192 2914.9655 414.375 2929.9902 C 439.95609 2950.1453 471.37652 2981.2897 487.45605 3002.1777 L 496.59668 3014.2773 z M 498.50098 2955.2148 C 500.80285 2955.5978 502.80762 2949.544 502.80762 2938.7793 C 502.80762 2929.6179 501.33895 2922.2998 499.51172 2922.2998 C 495.1264 2922.2998 491.84129 2937.3225 494.39941 2947.2168 C 495.63279 2952.4388 497.11986 2954.9851 498.50098 2955.2148 z M 508.33008 2921.3184 C 511.24391 2920.9099 514.0372 2914.234 513.03223 2906.1719 C 512.30135 2900.6751 510.47879 2895.9183 508.28613 2895.5518 C 503.90079 2894.8189 501.34968 2909.4771 504.63867 2917.5391 C 505.66648 2920.402 507.00561 2921.504 508.33008 2921.3184 z M 490.2832 2917.2754 C 492.92411 2917.0786 495.49805 2913.3626 495.49805 2907.6367 C 495.49805 2903.9721 493.66317 2899.5808 491.83594 2898.4814 C 487.08517 2895.5497 483.06766 2905.8005 485.99121 2913.4961 C 487.08755 2916.2445 488.69866 2917.3935 490.2832 2917.2754 z M 509.5459 2877.5342 C 512.59721 2877.4376 515.5957 2874.7427 515.5957 2870.6201 C 515.5957 2867.3219 510.47658 2865.1274 500.24414 2864.3945 C 487.45361 2863.2952 484.52637 2864.3911 484.52637 2869.5215 C 484.52637 2873.919 486.72279 2875.0159 493.30078 2873.1836 C 498.417 2872.0842 503.54235 2872.8308 504.63867 2874.6631 C 505.87205 2876.7244 507.71511 2877.5922 509.5459 2877.5342 z M 498.7207 2855.9277 C 499.9448 2855.8962 501.30016 2855.7887 502.80762 2855.6055 C 511.21283 2854.5061 511.94824 2853.0385 511.94824 2836.1816 L 511.94824 2817.8564 L 496.59668 2816.7578 C 481.97892 2815.6584 476.12116 2820.0504 484.52637 2825.1807 C 486.71903 2826.2801 488.18848 2832.8812 488.18848 2839.4775 C 488.18848 2852.3035 490.15204 2856.1482 498.7207 2855.9277 z M 514.13086 2812.3633 C 517.41986 2812.3633 521.44274 2809.7874 522.53906 2806.4893 C 527.65528 2792.9305 525.10354 2790.7417 504.63867 2791.4746 C 493.67536 2791.8411 484.52637 2793.3047 484.52637 2794.7705 C 484.52637 2798.4351 507.55288 2812.3633 514.13086 2812.3633 z M 498.7793 2786.7139 C 506.81907 2786.7139 514.49937 2785.2357 515.5957 2783.0371 C 517.05748 2780.8383 513.76856 2779.375 508.65234 2779.375 C 497.32359 2779.375 495.85721 2773.8838 506.45508 2770.9521 C 510.47497 2769.8528 513.76465 2765.8129 513.76465 2762.1484 C 513.76465 2755.9186 511.21597 2754.8245 497.3291 2754.458 C 480.15323 2754.458 477.22132 2757.031 486.35742 2764.7266 C 492.56997 2769.857 493.67014 2779.375 488.18848 2779.375 C 486.36125 2779.375 484.52637 2781.2048 484.52637 2783.0371 C 484.52637 2785.2357 491.10497 2786.7139 498.7793 2786.7139 z M 498.51563 2743.0469 C 511.39752 2742.8178 524.18885 2739.9816 532.0459 2734.668 C 538.62389 2729.904 546.29032 2722.571 549.21387 2718.54 C 553.96464 2710.8444 553.23014 2709.7471 526.55273 2693.623 C 511.20409 2684.4616 498.05923 2676.7627 496.96289 2676.7627 C 493.30845 2676.7627 444.3411 2706.8188 442.14844 2710.4834 C 439.22489 2714.8809 450.17639 2726.9716 464.42871 2735.7666 C 472.6512 2740.8971 485.63373 2743.2759 498.51563 2743.0469 z M 373.16895 2738.7695 C 375.85981 2738.7695 380.79776 2736.0459 392.44629 2729.1748 C 413.64203 2717.0817 413.27099 2717.4428 410.71289 2715.2441 C 407.78934 2711.9459 367.5925 2732.4682 369.78516 2736.1328 C 370.74445 2737.7819 371.55443 2738.7695 373.16895 2738.7695 z M 621.1377 2738.5791 C 622.96206 2738.4717 623.99123 2737.3243 625.22461 2735.4004 C 626.32095 2733.5681 626.68791 2731.7383 625.95703 2731.7383 C 624.8607 2731.7383 614.99088 2727.7133 603.66211 2722.583 C 578.81193 2711.5893 576.62777 2715.9824 600.74707 2729.1748 C 612.85241 2736.0459 618.09709 2738.758 621.1377 2738.5791 z M 844.49707 2735.4004 C 844.13164 2735.4004 842.66372 2732.4734 841.56738 2728.4424 C 840.47105 2723.312 844.50151 2719.2779 860.58105 2711.2158 L 881.04492 2700.5957 L 858.38379 2699.4971 C 841.93882 2698.7642 835.35337 2696.9219 833.8916 2692.5244 C 832.42983 2689.2263 832.44294 2685.9334 833.17383 2684.834 C 834.27016 2684.1011 849.24995 2684.8326 866.42578 2687.0312 C 884.69798 2689.2301 903.32739 2689.2298 911.36719 2687.3975 C 930.73559 2683.0001 937.69043 2683.3653 937.69043 2689.2285 C 937.69043 2694.7254 934.02702 2696.1982 912.46582 2700.5957 C 905.52232 2702.0615 887.61992 2710.4775 872.63672 2719.2725 C 858.01894 2728.0674 845.22796 2735.4004 844.49707 2735.4004 z M 365.34668 2727.4316 C 368.27666 2727.4567 375.03351 2724.1312 395.36133 2714.5117 C 427.88584 2699.487 427.8909 2699.4841 425.69824 2696.9189 C 424.60191 2696.186 412.54334 2699.8594 398.29102 2705.7227 C 384.40415 2711.2195 370.1437 2717.0741 366.48926 2718.54 C 362.83482 2719.6394 361.01305 2722.2154 362.10938 2724.4141 C 363.20571 2726.2005 363.58869 2727.4166 365.34668 2727.4316 z M 628.65234 2727.2119 C 630.56022 2727.111 630.71777 2725.6516 630.71777 2723.3154 C 630.71777 2720.7502 623.03671 2715.9789 613.53516 2712.6807 C 603.66817 2709.3826 589.7747 2704.26 582.46582 2700.9619 C 555.78841 2689.6017 568.94577 2701.3195 597.08496 2714.1455 C 617.41278 2723.7649 625.47255 2727.3801 628.65234 2727.2119 z M 111.0498 2713.4131 C 64.63842 2713.4131 60.251326 2712.6843 61.347656 2707.1875 C 62.078546 2702.7901 66.093679 2700.5957 73.037109 2700.5957 C 81.807769 2700.5957 84.379606 2698.3892 86.572266 2690.3271 C 88.764936 2681.5322 87.667134 2679.6956 78.896484 2674.9316 C 71.953054 2671.267 69.02574 2667.6097 70.12207 2663.9453 C 71.58385 2661.0136 73.03787 2658.4521 73.40332 2658.4521 C 75.23054 2658.4521 164.03627 2698.3972 165.49805 2700.2295 C 166.22894 2700.9624 165.86119 2704.2557 164.39941 2707.5537 C 162.5722 2712.6841 155.26851 2713.4131 111.0498 2713.4131 z M 360.27832 2713.4131 C 361.37465 2713.4131 379.64409 2707.1929 400.83984 2699.1309 C 421.67015 2691.4353 447.98688 2681.5409 458.9502 2677.5098 L 479.04785 2670.1709 L 480.14648 2605.6738 C 480.51193 2570.1274 480.51193 2541.1768 480.14648 2541.1768 C 479.41559 2541.1768 460.04445 2548.5098 437.02148 2557.3047 L 394.99512 2573.0664 L 381.1084 2627.6611 C 373.43407 2657.7105 365.03369 2689.2226 362.47559 2698.0176 C 359.91747 2706.446 358.81654 2713.4131 360.27832 2713.4131 z M 633.91113 2713.1348 C 634.23661 2713.0696 634.36523 2712.9097 634.36523 2712.6807 C 634.36523 2711.9478 626.3326 2680.4357 616.83105 2642.3242 L 599.28223 2573.0664 L 586.49414 2568.3057 C 579.55071 2566.1069 560.54577 2558.7737 543.73535 2552.5439 L 513.76465 2541.1768 L 514.49707 2605.6738 L 515.5957 2670.1709 L 572.24121 2691.4258 C 619.56622 2709.3821 631.63282 2713.5907 633.91113 2713.1348 z M 120.92285 2702.4268 C 131.88616 2702.4268 141.02051 2701.6948 141.02051 2700.9619 C 141.02051 2700.229 133.3402 2696.9214 124.2041 2693.2568 C 109.95178 2687.76 106.66455 2687.761 104.10645 2691.792 C 98.25934 2700.9535 100.45798 2702.4268 120.92285 2702.4268 z M 835.69336 2676.1182 C 830.23044 2676.298 827.29398 2672.4245 821.46973 2656.6211 C 817.0844 2645.261 814.16322 2634.2542 815.625 2632.4219 C 818.91399 2626.9252 831.70898 2628.7707 831.70898 2634.2676 C 831.70898 2644.162 837.55327 2643.4179 872.27051 2629.126 C 910.64211 2613.0019 916.8566 2611.9084 915.0293 2620.3369 C 914.2985 2624.0015 900.40957 2631.6984 879.21387 2640.127 C 846.68933 2653.3194 844.49707 2654.7836 844.49707 2664.3115 C 844.49707 2672.3735 842.6684 2675.2974 836.82129 2676.0303 C 836.43301 2676.0761 836.05755 2676.1062 835.69336 2676.1182 z M 872.85645 2670.9619 C 869.59859 2670.9847 866.97316 2670.3093 866.05957 2668.7061 C 862.77056 2663.9423 865.69546 2662.116 880.67871 2659.5508 C 891.64191 2657.7185 893.46375 2658.449 892.00195 2663.2129 C 890.24326 2667.4958 880.02373 2670.9117 872.85645 2670.9619 z M 175.00488 2669.4385 C 173.17766 2669.0721 152.70482 2661.3737 129.31641 2651.8457 C 105.92799 2642.3179 85.83678 2633.5213 84.375 2632.4219 C 82.18233 2630.2232 92.411555 2600.55 96.796875 2595.7861 C 97.893215 2594.3203 102.65157 2594.6863 107.40234 2596.5186 C 115.44211 2599.4503 115.43284 2600.1739 109.95117 2610.4346 C 107.02763 2616.6644 104.47266 2622.8991 104.47266 2624.7314 C 104.47266 2626.5637 120.9211 2634.6286 141.02051 2642.3242 C 168.06336 2652.9514 177.55371 2658.4492 177.55371 2662.8467 C 177.55371 2666.5113 176.46666 2669.4385 175.00488 2669.4385 z M 495.13184 2654.7754 C 501.34439 2654.7754 507.18979 2653.3121 508.28613 2651.1133 C 509.7479 2648.9146 505.36963 2647.4512 497.69531 2647.4512 C 490.38643 2647.4512 484.52637 2649.281 484.52637 2651.1133 C 484.52637 2653.3121 489.28474 2654.7754 495.13184 2654.7754 z M 497.3291 2643.7891 C 505.36886 2643.7891 509.7479 2642.3257 508.28613 2640.127 C 507.18979 2638.2947 502.07987 2636.4648 497.3291 2636.4648 C 492.57832 2636.4648 487.45376 2638.2947 486.35742 2640.127 C 484.89565 2642.3257 489.28933 2643.7891 497.3291 2643.7891 z M 582.77344 2643.4229 C 580.4249 2643.2726 578.1392 2640.714 576.25488 2635.7324 C 574.06221 2629.1361 572.96979 2628.7709 571.14258 2633.9014 C 569.6808 2637.566 567.12508 2640.127 565.29785 2640.127 C 563.10518 2640.127 564.92543 2634.2575 568.94531 2627.2949 C 574.06153 2618.8664 575.16477 2614.4775 572.24121 2614.4775 C 569.68311 2614.4775 565.29248 2611.5353 562.73438 2608.2373 C 559.81082 2604.2062 557.98752 2603.4745 557.62207 2606.4062 C 557.62207 2608.6049 554.33238 2610.8008 550.3125 2610.8008 C 544.83084 2610.8008 543.00216 2608.2423 542.63672 2600.9131 C 542.63672 2590.6523 542.27749 2590.6535 538.62305 2599.082 C 534.23773 2607.877 528.38379 2610.0732 528.38379 2602.7441 C 528.38379 2599.446 526.92899 2599.812 524.73633 2603.4766 C 519.25467 2611.9051 520.34097 2605.6823 526.91895 2593.2227 L 532.41211 2581.4893 L 545.93262 2590.6592 C 553.2415 2595.7896 562.37583 2599.8145 566.03027 2599.8145 C 569.68471 2599.8145 573.70835 2603.108 574.80469 2606.7725 C 576.26647 2612.2693 579.18832 2613.7459 587.95898 2612.6465 C 594.53697 2611.9136 597.46045 2612.2795 594.90234 2613.3789 C 591.2479 2614.8447 591.96798 2616.3059 596.71875 2620.3369 C 600.73863 2623.2686 601.47334 2625.0975 598.5498 2625.4639 C 595.99168 2625.4639 592.33503 2629.5034 590.50781 2634.6338 C 588.17811 2640.6689 585.43511 2643.5932 582.77344 2643.4229 z M 408.51563 2636.4648 C 406.6884 2636.4648 404.13343 2632.7909 403.03711 2628.7598 C 401.57533 2623.6295 399.01577 2621.4346 395.36133 2622.9004 C 391.70689 2624.3662 390.6183 2623.2691 392.08008 2619.6045 C 394.27275 2613.7412 399.01569 2613.0091 402.30469 2618.1396 C 405.95912 2624.3693 409.25257 2622.1626 418.38867 2608.2373 L 426.79688 2595.0537 L 433.74023 2603.8428 C 437.39466 2608.6066 440.68359 2614.4763 440.68359 2616.3086 C 440.68359 2618.5073 437.3939 2615.9312 433.37402 2610.8008 C 429.71958 2605.6705 425.32897 2602.7432 423.86719 2604.209 C 422.40541 2605.6749 423.1386 2608.9827 424.96582 2611.5479 C 427.15848 2614.1131 429.71499 2621.4316 431.17676 2627.2949 C 433.00399 2635.3569 432.63546 2636.8191 429.71191 2632.7881 C 427.1538 2628.3906 426.06445 2628.3909 426.06445 2632.4219 C 426.06445 2636.453 424.2327 2636.0871 416.92383 2631.3232 C 409.2495 2626.1928 408.15325 2626.1931 409.98047 2630.957 C 411.44225 2633.8887 410.70829 2636.4648 408.51563 2636.4648 z M 583.19824 2636.4648 C 584.66001 2636.4648 586.86264 2633.1571 587.95898 2629.126 C 590.15164 2620.6976 584.30079 2615.5726 579.18457 2620.7031 C 575.53014 2624.3676 578.44746 2636.4648 583.19824 2636.4648 z M 456.40137 2632.7881 C 454.57415 2632.7881 449.08183 2624.7383 444.33105 2614.4775 C 435.19496 2594.6888 435.1988 2594.69 446.16211 2591.0254 C 456.39454 2588.0939 475.03349 2617.7687 467.72461 2624.7314 C 463.70473 2628.3959 461.86991 2626.9346 457.11914 2618.1396 C 453.83015 2612.2762 449.81961 2607.1387 447.62695 2607.1387 C 445.43428 2607.1387 447.2553 2613.008 451.64063 2619.9707 C 456.02596 2626.9335 458.2286 2632.7881 456.40137 2632.7881 z M 155.22949 2629.0088 C 153.51514 2629.0063 151.58542 2627.8687 150.14648 2625.4639 C 149.05015 2623.6316 143.20474 2621.8018 136.99219 2621.8018 C 130.04876 2621.8018 126.40137 2619.9731 126.40137 2616.3086 C 126.40137 2610.0788 139.18248 2608.6141 142.83691 2614.4775 C 143.93325 2616.6762 148.32386 2618.1396 152.34375 2618.1396 C 155.99818 2618.1396 159.28711 2620.7012 159.28711 2623.6328 C 159.28711 2627.137 157.43367 2629.012 155.22949 2629.0088 z M 809.04785 2625.4639 C 807.95152 2625.4639 806.13051 2624.3662 805.03418 2622.9004 C 799.55252 2617.77 803.93355 2614.1111 844.86328 2592.4902 C 882.86944 2572.335 897.48047 2567.9336 897.48047 2576.7285 C 897.48047 2579.2938 813.43318 2625.4639 809.04785 2625.4639 z M 146.32324 2599.0967 C 144.83434 2599.1267 143.07306 2597.6189 139.55566 2595.0537 C 134.074 2591.0226 133.70472 2588.8191 137.72461 2580.3906 C 142.84082 2569.0304 143.94007 2568.6673 153.07617 2575.6299 C 159.65415 2580.7603 159.65568 2581.4981 153.80859 2590.293 C 149.69734 2596.477 148.23754 2599.058 146.32324 2599.0967 z M 800.47852 2596.0205 C 793.68934 2596.1268 787.01115 2593.8893 783.10547 2589.5605 C 774.33482 2580.0327 775.42264 2569.3972 786.02051 2558.0371 C 800.63827 2542.2794 811.96658 2539.7203 827.68066 2548.8818 C 844.12565 2558.0432 855.09095 2556.9456 856.55273 2546.3184 C 858.0145 2535.6911 848.88708 2528.7225 839.75098 2533.4863 C 833.90388 2536.418 832.07135 2536.0531 830.24414 2531.2891 C 827.32058 2523.5936 833.89297 2519.1895 848.51074 2519.1895 C 871.53375 2519.1895 879.57254 2543.7434 862.03125 2560.9668 C 848.50983 2574.5257 837.91701 2576.3538 822.56836 2567.1924 C 806.12338 2557.6645 800.27812 2557.665 795.52734 2566.46 C 790.77657 2575.2549 798.81619 2582.9563 809.41406 2579.6582 C 819.28104 2576.7265 823.664 2585.1619 815.25879 2591.3916 C 811.10187 2594.4378 805.75899 2595.9378 800.47852 2596.0205 z M 218.97949 2578.0029 C 212.97616 2577.7097 201.6153 2573.0599 175.7373 2560.9668 C 151.618 2549.9731 131.51138 2540.0786 130.41504 2539.3457 C 129.68415 2538.6128 130.05189 2535.3196 131.51367 2532.0215 C 133.34088 2526.8912 134.80022 2526.8915 144.30176 2531.6553 C 154.53419 2537.1522 155.27105 2536.7881 161.11816 2527.9932 C 166.96527 2519.1982 166.59982 2518.095 161.11816 2511.8652 C 154.90561 2504.9026 156.00501 2490.9739 162.58301 2495.0049 C 164.41022 2496.1043 180.12471 2513.6974 197.66602 2533.8525 C 225.43976 2565.7343 229.09236 2571.5986 224.70703 2575.9961 C 223.33662 2577.3703 221.70828 2578.1362 218.97949 2578.0029 z M 495.13184 2566.8262 C 501.34439 2566.8262 507.18979 2565.3628 508.28613 2563.1641 C 509.7479 2560.9653 505.36963 2559.502 497.69531 2559.502 C 490.38643 2559.502 484.52637 2561.3318 484.52637 2563.1641 C 484.52637 2565.3628 489.28474 2566.8262 495.13184 2566.8262 z M 199.93652 2558.96 C 202.88426 2559.0872 200.62681 2555.4101 193.6377 2547.7832 C 187.79059 2541.187 182.67913 2534.9516 181.94824 2534.2188 C 181.5828 2533.1193 178.29464 2534.949 175.37109 2538.2471 C 169.88943 2543.744 170.62256 2544.8489 183.41309 2551.8115 C 192.20658 2556.461 197.64384 2558.861 199.93652 2558.96 z M 497.3291 2555.8398 C 505.36886 2555.8398 509.7479 2554.3765 508.28613 2552.1777 C 507.18979 2550.3454 502.07987 2548.5156 497.3291 2548.5156 C 492.57832 2548.5156 487.45376 2550.3454 486.35742 2552.1777 C 484.89565 2554.3765 489.28933 2555.8398 497.3291 2555.8398 z M 761.38184 2550.0537 C 756.50125 2550.1668 752.5577 2547.0649 743.26172 2538.2471 L 728.65723 2524.6973 L 764.45801 2489.1455 C 792.23175 2461.6612 801.38051 2454.6905 805.40039 2457.6221 C 809.05483 2460.9203 807.2231 2464.5871 796.25977 2475.9473 L 782.73926 2489.8779 L 790.04883 2497.2021 L 797.3584 2504.541 L 812.34375 2491.709 C 825.13429 2481.0818 828.05454 2479.6208 831.70898 2484.3848 C 835.36341 2488.7823 834.2687 2491.3378 825.49805 2498.667 C 820.01638 2503.7974 810.88205 2510.0325 805.40039 2512.5977 C 799.55329 2515.1629 795.16113 2519.188 795.16113 2521.3867 C 795.16113 2529.0823 780.54752 2544.1183 769.21875 2548.1494 C 766.02112 2549.2946 763.60028 2550.0023 761.38184 2550.0537 z M 245.91797 2547.7832 C 243.85592 2547.6479 242.15913 2545.8936 239.69238 2543.0078 C 235.67249 2538.2438 236.76569 2535.3232 245.1709 2526.5283 C 251.018 2520.2985 255.04164 2515.1616 253.94531 2514.4287 C 253.21442 2513.6958 238.58699 2507.8267 221.41113 2501.2305 C 204.23525 2494.6342 187.43373 2486.5843 183.7793 2483.2861 C 177.56675 2477.7893 178.28751 2476.6897 192.90527 2461.665 C 209.71568 2444.4415 212.27121 2443.3348 219.58008 2451.0303 C 223.96541 2455.0613 222.87145 2457.6308 213.73535 2466.4258 C 202.04114 2477.4195 200.21706 2482.5537 208.25684 2482.5537 C 216.2966 2482.5537 266.00168 2504.1705 273.31055 2510.7666 C 279.88855 2516.63 279.51934 2517.3628 264.53613 2532.7539 C 253.80122 2543.7476 249.35471 2548.0086 245.91797 2547.7832 z M 767.13867 2532.6953 C 771.33744 2532.9272 775.37702 2530.2628 779.07715 2524.6973 C 783.09703 2518.4675 782.7424 2516.2643 777.26074 2509.668 L 771.03516 2501.9629 L 760.81055 2510.7666 C 750.94356 2519.1952 750.57045 2519.9318 757.14844 2526.8945 C 760.50595 2530.582 763.87296 2532.515 767.13867 2532.6953 z M 218.74512 2531.4502 C 216.932 2531.3286 214.56535 2529.2321 210.4541 2524.6973 L 202.0459 2515.5273 L 211.55273 2515.5273 C 222.51604 2515.5273 226.8951 2520.6638 222.50977 2528.3594 C 221.23071 2530.4436 220.15532 2531.5448 218.74512 2531.4502 z M 717.29004 2512.1143 C 713.93538 2512.2932 709.65368 2509.581 700.51758 2502.71 C 691.74692 2496.4802 684.80057 2489.513 685.16602 2487.6807 C 685.53145 2482.5503 737.79011 2409.2529 741.0791 2409.2529 C 742.54088 2409.2529 751.30747 2414.39 760.07813 2420.9863 C 773.965 2430.5142 775.78977 2433.4482 772.86621 2439.3115 C 768.48088 2447.7401 767.75021 2447.7411 752.03613 2437.8467 L 739.24805 2430.1416 L 732.6709 2438.9453 C 725.36203 2448.4732 723.90646 2453.2275 728.65723 2453.2275 C 730.11901 2453.2275 735.22971 2456.5357 739.98047 2460.2002 C 747.6548 2466.0636 748.01325 2467.5198 743.62793 2474.4824 L 738.88184 2482.1875 L 726.45996 2473.0176 C 719.88198 2467.5208 713.67111 2464.2283 713.30566 2464.5947 C 711.47845 2466.7935 703.79883 2481.8203 703.79883 2483.2861 C 703.79883 2484.019 709.64346 2487.6783 716.58691 2491.3428 C 731.20466 2499.4049 731.93472 2501.2399 723.16406 2508.9355 C 720.9714 2510.8594 719.30283 2512.0069 717.29004 2512.1143 z M 291.82617 2508.3496 C 287.61928 2508.1091 279.43495 2497.4815 260.88867 2468.623 C 241.52014 2438.94 234.20536 2425.0159 237.12891 2423.1836 C 244.07235 2418.7861 244.79917 2419.5234 256.12793 2438.5791 C 262.34048 2448.4735 267.81968 2456.8896 268.91602 2456.8896 C 270.01235 2456.8896 274.7707 2453.5961 279.52148 2449.9316 L 288.2959 2443.3398 L 276.5918 2426.4795 C 264.1667 2408.1566 263.07122 2403.7617 270.01465 2400.8301 C 275.49631 2398.6313 328.85051 2480.7189 325.56152 2486.2158 C 321.54163 2492.8119 316.79876 2489.8732 308.39355 2475.2148 C 299.25745 2459.0908 296.32952 2457.9973 285.36621 2466.4258 C 279.51911 2470.8232 279.14829 2473.0141 282.80273 2478.1445 C 295.22782 2495.7344 298.15897 2503.8059 293.4082 2507.8369 C 292.9514 2508.2034 292.42716 2508.384 291.82617 2508.3496 z M 670.67871 2482.3193 C 668.53173 2482.4568 666.34741 2480.7105 665.06836 2477.0459 C 663.97203 2474.1143 667.26171 2457.6338 672.37793 2440.0439 C 677.49415 2422.454 681.50236 2407.4221 680.77148 2407.0557 C 680.04059 2406.3227 670.9055 2419.1445 660.30762 2435.2686 C 638.38099 2467.8833 637.64734 2468.626 631.06934 2464.2285 C 627.04946 2462.0297 632.90093 2451.7677 654.09668 2422.4512 C 684.79398 2380.3087 688.09256 2377.3742 693.57422 2382.8711 C 696.86322 2386.1692 686.62325 2438.935 676.02539 2476.3135 C 674.92906 2480.1613 672.8257 2482.1819 670.67871 2482.3193 z M 239.80957 2478.833 C 237.39502 2478.771 234.90573 2476.8881 233.4668 2473.3838 C 232.37047 2470.0858 232.37123 2466.4264 233.83301 2465.3271 C 236.75656 2462.0289 247.3628 2471.9165 244.80469 2475.5811 C 243.52563 2477.8256 241.68756 2478.8812 239.80957 2478.833 z M 364.2041 2467.9199 C 357.55465 2468.163 347.42501 2457.442 328.125 2431.2402 C 313.50724 2411.0852 300.71547 2392.3944 299.61914 2389.4629 C 295.9647 2380.3014 308.39118 2379.9352 314.23828 2389.0967 C 319.35449 2396.7922 321.18694 2397.5364 330.68848 2394.2383 C 340.55546 2390.9403 340.90772 2389.4696 338.34961 2379.5752 C 335.79151 2371.1467 336.527 2368.2093 340.54688 2366.377 C 343.47044 2365.2776 346.75934 2364.9113 347.49023 2366.0107 C 350.41378 2368.9424 370.14754 2464.2273 368.32031 2466.0596 C 367.08694 2467.2276 365.73859 2467.8638 364.2041 2467.9199 z M 611.7041 2456.8896 C 607.31877 2456.8896 605.12925 2455.0603 606.22559 2452.4951 C 607.32192 2449.93 615.00299 2427.5799 623.4082 2403.0273 C 634.73697 2369.3133 639.85218 2358.6853 643.87207 2360.5176 C 646.79561 2361.617 648.98438 2363.4463 648.98438 2364.9121 C 648.98438 2366.0115 642.40423 2387.2639 633.99902 2411.8164 C 621.57393 2449.5615 617.91664 2456.8896 611.7041 2456.8896 z M 398.29102 2453.5938 L 388.05176 2410.3516 C 382.20465 2386.5319 376.7262 2364.1819 375.62988 2360.8838 C 374.53354 2356.1198 376.35841 2354.292 381.47461 2354.292 C 387.68717 2354.292 389.52121 2357.2125 391.71387 2370.7715 C 394.27198 2389.4608 396.10288 2391.2959 407.43164 2388.3643 C 414.74052 2386.532 415.47134 2384.3335 414.375 2366.0107 C 413.64411 2349.8866 414.36955 2345.1225 418.75488 2344.3896 C 424.60199 2342.9237 427.16385 2353.9222 427.5293 2381.04 C 427.5293 2388.3692 428.61635 2394.6045 430.07813 2394.6045 C 434.8289 2394.6045 441.04749 2415.8512 439.95117 2427.9443 C 438.85483 2441.1367 431.5409 2446.6329 409.61426 2451.0303 L 398.29102 2453.5938 z M 586.66992 2449.6094 C 584.69139 2449.4419 583.19824 2448.0567 583.19824 2445.1709 C 583.19824 2442.6057 586.48716 2427.2081 590.1416 2411.084 C 594.16149 2394.9598 596.73187 2381.4067 596.00098 2380.6738 C 595.63554 2379.9408 587.22204 2393.4943 578.08594 2410.7178 C 565.66085 2433.8045 559.09005 2442.2412 553.6084 2442.2412 C 544.83774 2442.2412 544.8277 2444.7968 555.79102 2390.9277 C 560.90723 2366.0086 564.93164 2345.4888 564.93164 2344.7559 C 564.93164 2344.023 567.4866 2343.291 570.41016 2343.291 C 577.35359 2343.291 577.35052 2349.8887 568.94531 2384.7021 C 565.29087 2400.0933 562.73592 2412.915 563.4668 2412.915 C 563.83224 2412.915 572.24727 2398.996 582.11426 2381.7725 C 593.44303 2361.251 601.84026 2350.6299 606.22559 2350.6299 C 609.51458 2350.6299 612.43652 2352.8251 612.43652 2355.7568 C 612.43652 2360.1543 601.1172 2419.8878 596.00098 2441.5088 C 594.63056 2446.7766 589.96748 2449.8885 586.66992 2449.6094 z M 460.95703 2447.4561 C 459.55236 2447.5076 458.85807 2442.9657 458.58398 2433.0713 C 458.58398 2423.177 457.85003 2411.453 457.11914 2407.4219 C 456.38825 2403.3909 456.75523 2396.058 457.85156 2390.9277 L 460.41504 2381.7725 L 462.97852 2390.9277 C 466.99841 2404.853 466.63219 2439.6735 462.6123 2445.9033 C 461.97278 2446.9111 461.42526 2447.4389 460.95703 2447.4561 z M 351.69434 2441.2012 C 351.77321 2441.2084 351.82444 2441.1884 351.87012 2441.1426 C 352.60101 2440.0432 351.14697 2431.9787 348.58887 2422.8174 C 344.93442 2408.5256 343.47895 2406.6874 337.63184 2409.6191 C 331.41929 2412.9171 331.77699 2414.0189 340.91309 2427.9443 C 345.70953 2435.1589 350.51128 2441.0925 351.69434 2441.2012 z M 491.11816 2438.5791 C 484.17473 2438.5791 483.79701 2436.3803 485.25879 2394.9707 C 486.35511 2346.2321 491.11486 2335.9668 510.4834 2335.9668 C 529.85193 2335.9668 533.87465 2349.8874 532.77832 2408.5205 C 532.04743 2434.5388 531.31661 2438.5791 525.83496 2438.5791 C 519.98785 2438.5791 519.24546 2434.9075 520.3418 2405.2246 C 521.80357 2364.9143 519.61874 2354.292 510.11719 2354.292 C 506.46275 2354.292 502.4391 2355.7556 501.34277 2357.5879 C 500.24643 2359.0537 499.14475 2378.1104 498.7793 2399.7314 C 498.41386 2435.6441 497.69616 2438.5791 491.11816 2438.5791 z M 413.27637 2431.2402 C 417.6617 2431.2402 423.50557 2429.045 425.69824 2426.1133 C 428.62179 2422.4487 428.62255 2418.4131 426.06445 2411.084 C 422.77544 2402.6555 420.94838 2401.5611 412.17773 2403.7598 C 399.75262 2407.058 400.11279 2405.9626 402.6709 2419.5215 C 404.49812 2428.6829 407.06383 2431.2402 413.27637 2431.2402 z M 705.33691 2421.8652 C 704.67551 2421.8705 704.66982 2420.9418 705.26367 2419.1553 C 706.36 2415.1242 708.54722 2408.1575 709.64355 2403.3936 C 710.73989 2398.6296 714.02957 2394.6045 716.95313 2394.6045 C 724.99289 2394.6045 722.80567 2404.1331 712.57324 2415.4932 C 708.66756 2419.8449 706.30359 2421.8576 705.33691 2421.8652 z " />
  </g>
</svg>
