<?xml version="1.0" encoding="UTF-8" standalone="no"?>
<svg
   version="1.0"
   width="300.000000pt"
   height="301.000000pt"
   viewBox="0 0 300.000000 301.000000"
   preserveAspectRatio="xMidYMid meet"
   id="svg38"
   sodipodi:docname="acm.svg"
   inkscape:version="1.4 (86a8ad7, 2024-10-11)"
   xmlns:inkscape="http://www.inkscape.org/namespaces/inkscape"
   xmlns:sodipodi="http://sodipodi.sourceforge.net/DTD/sodipodi-0.dtd"
   xmlns="http://www.w3.org/2000/svg"
   xmlns:svg="http://www.w3.org/2000/svg">
  <defs
     id="defs38" />
  <sodipodi:namedview
     id="namedview38"
     pagecolor="#ffffff"
     bordercolor="#000000"
     borderopacity="0.25"
     inkscape:showpageshadow="2"
     inkscape:pageopacity="0.0"
     inkscape:pagecheckerboard="0"
     inkscape:deskcolor="#d1d1d1"
     inkscape:document-units="pt"
     inkscape:zoom="2.0755814"
     inkscape:cx="199.94398"
     inkscape:cy="184.28571"
     inkscape:window-width="1920"
     inkscape:window-height="1051"
     inkscape:window-x="-9"
     inkscape:window-y="206"
     inkscape:window-maximized="1"
     inkscape:current-layer="g38" />
  <metadata
     id="metadata1">
Created by potrace 1.10, written by Peter Selinger 2001-2011
</metadata>
  <g
     transform="translate(0.000000,301.000000) scale(0.100000,-0.100000)"
     fill="#000000"
     stroke="none"
     id="g38">
    <path
       d="m 223.14195,3001.4982 c -9.54019,-11.984 2.93545,-20.7723 48.43485,-32.7563 22.7497,-6.3915 30.82217,-24.7669 18.34653,-42.3435 -46.96712,-71.1051 -49.16871,-90.2795 -8.80634,-111.8507 17.61267,-10.3862 33.02376,-26.3648 40.36237,-44.7403 13.94337,-31.9574 19.0804,-35.1531 19.0804,-11.984 0,7.9893 -14.67723,31.9573 -33.02376,52.7296 -18.34653,19.9733 -33.02376,43.1424 -33.02376,50.3328 0,7.9894 9.5402,30.3595 21.28198,49.5339 27.88673,44.7403 19.81425,64.7137 -37.42693,91.0785 -23.48356,10.3861 -27.88672,10.3861 -35.22534,0 z"
       id="path2"
       style="stroke-width:0.765707" />
    <path
       d="m 103.52257,2840.9125 c -14.677229,-16.7776 6.60475,-95.0731 27.88672,-104.6603 6.60476,-2.3968 24.95129,3.1957 40.36237,12.7829 43.29782,26.3648 61.64435,22.3701 87.32949,-18.3755 12.47565,-19.1744 27.88673,-36.7509 34.49148,-39.9467 19.81426,-7.9893 19.81426,0 -0.73386,14.3808 -10.27405,7.1904 -25.68514,29.5606 -33.75762,48.735 -18.34653,42.3435 -31.55603,45.5392 -77.78929,15.1797 -18.34653,-11.185 -36.69306,-18.3754 -42.56395,-16.7776 -5.13703,2.3968 -11.74178,19.9734 -14.67723,39.1478 -5.87089,39.9467 -13.2095,56.7243 -20.54811,49.5339 z"
       id="path3"
       style="stroke-width:0.765707" />
    <path
       d="m 475.59023,2780.1935 c -52.83801,-65.5126 -296.47995,-476.1646 -296.47995,-500.1326 0,-10.3861 14.67722,-15.9787 91.73265,-33.5552 75.58772,-17.5765 361.79361,-60.719 366.19678,-55.1264 5.87089,6.3914 -131.36117,587.2163 -142.36909,600.7982 -2.20158,3.1958 -11.00792,-2.3968 -19.08039,-11.984 z m 33.75762,-87.8827 c 8.80633,-31.9574 17.61267,-67.1105 19.08039,-78.2955 2.20158,-11.1851 7.33861,-30.3595 11.74178,-42.3435 9.5402,-27.1638 -4.40317,-43.9414 -21.28198,-25.5659 -24.21742,26.3648 -104.2083,35.1531 -144.57067,15.9787 -11.74178,-5.5926 -12.47564,-3.9947 -8.07247,12.7829 5.87089,19.9734 75.58771,134.2209 101.27285,164.5804 8.07248,9.5872 16.87881,15.9787 19.81426,14.3808 3.6693,-2.3968 13.2095,-30.3595 22.01584,-61.5179 z m -14.67723,-143.8081 c 18.34653,-9.5872 36.69306,-15.9787 41.83009,-15.1797 4.40317,0.7989 10.27406,-2.3968 13.20951,-7.1904 2.20158,-4.7937 0,-5.5926 -6.60476,-3.1958 -14.67722,6.3915 -14.67722,0 0,-24.7669 27.88673,-47.1371 25.68515,-118.2422 -6.60475,-165.3793 -33.75761,-50.3329 -104.2083,-68.7084 -157.04631,-41.5446 -52.83801,27.9627 -85.86177,109.4539 -67.51523,168.575 27.88672,92.6764 104.2083,129.4273 182.73145,88.6817 z M 321.47936,2335.9863 c 13.94337,-24.767 30.82218,-39.9467 57.97504,-54.3275 47.70098,-23.968 66.78138,-23.968 112.28078,0 37.42692,19.9733 59.44276,45.5392 76.32157,91.0785 l 9.54019,27.1637 8.07248,-27.1637 c 20.54811,-66.3116 36.69306,-150.1996 29.35445,-158.189 -13.94336,-15.1797 -385.27717,47.1371 -404.35756,67.9094 -6.60475,7.9894 -2.20158,20.7723 19.81426,60.719 15.41108,27.9627 35.9592,65.5126 45.49939,83.0891 l 16.14495,31.9574 5.13703,-43.9414 c 2.20158,-27.1637 11.74178,-57.5232 24.21742,-78.2955 z"
       id="path4"
       style="stroke-width:0.765707" />
    <path
       d="m 340.55976,2454.2285 c 0,-5.5925 5.13702,-7.9893 11.00791,-5.5925 5.87089,3.1957 12.47565,1.5978 14.67723,-2.3968 2.93544,-4.7936 -2.20158,-7.9894 -10.27406,-7.9894 -16.87881,0 -27.88673,-14.3808 -18.34653,-23.968 3.66931,-3.1957 15.41109,-7.9893 25.68514,-10.3861 18.34654,-4.7936 19.0804,-3.9947 14.67723,24.7669 -3.66931,22.3702 -8.07247,30.3595 -21.28198,31.9574 -8.80633,1.5978 -16.14494,-1.5979 -16.14494,-6.3915 z"
       id="path5"
       style="stroke-width:0.765707" />
    <path
       d="m 391.93004,2439.0488 c -7.33861,-15.1798 -3.6693,-39.9467 6.60476,-41.5446 2.20158,-0.7989 12.47564,-2.3968 22.74969,-3.1957 10.27406,-0.799 22.7497,-3.1958 28.62059,-4.7936 7.33862,-2.3968 11.00792,3.1957 11.00792,15.9786 0.73386,10.3862 5.13703,20.7723 11.00792,23.1691 8.07248,3.1958 9.5402,-1.5978 5.87089,-21.5712 -3.6693,-18.3755 -2.20158,-24.7669 5.87089,-24.7669 6.60475,0 11.00792,7.9893 11.00792,19.9733 0,11.984 4.40317,19.9734 11.00792,19.9734 8.07247,0 8.80634,-3.9947 3.66931,-19.1745 -6.60475,-19.9733 -3.66931,-28.7616 10.27405,-28.7616 8.80634,0 10.27406,39.1478 2.20159,53.5286 -2.20159,3.9947 -15.41109,8.7883 -28.62059,9.5872 -41.83009,3.1957 -56.50732,5.5925 -61.64435,11.1851 -10.27406,11.185 -31.55603,5.5925 -39.62851,-9.5872 z m 47.70099,-8.7883 c 5.87089,0 8.07247,-5.5925 5.87089,-14.3808 -2.20159,-11.1851 -8.07248,-14.3808 -21.28198,-11.1851 -9.5402,1.5979 -19.81425,6.3915 -22.01584,10.3861 -5.87089,11.1851 5.13703,24.767 16.87881,19.9734 5.87089,-2.3968 15.41109,-4.7936 20.54812,-4.7936 z"
       id="path6"
       style="stroke-width:0.765707" />
    <path
       d="m 519.6219,2785.7861 c 6.60476,-18.3755 136.4982,-575.2324 136.4982,-582.4228 0,-27.9627 154.84474,102.2635 165.85266,140.6123 2.20158,8.7883 -10.27406,35.9521 -33.75762,73.5019 -36.69306,60.719 -241.44037,349.9331 -262.72235,372.3032 -9.54019,10.3862 -10.27405,10.3862 -5.87089,-3.9946 z m 82.19247,-128.6284 c 19.81425,-23.968 46.23326,-59.92 57.97504,-79.0944 12.47564,-18.3755 34.49148,-50.3329 49.90256,-69.5073 14.67723,-19.9733 27.15287,-39.9467 27.15287,-45.5392 0,-4.7936 2.93544,-8.7883 6.60477,-8.7883 8.07247,0 59.44276,-86.2849 59.44276,-99.8667 0,-11.984 -52.10415,-71.9041 -88.79723,-102.2636 -37.42692,-30.3594 -48.43484,-27.9626 -57.97504,12.783 -4.40317,18.3755 -12.47564,49.5339 -18.34653,69.5072 -5.13703,19.9734 -11.00792,44.7403 -13.2095,55.9254 -2.20159,11.1851 -15.41109,71.904 -30.08832,135.8188 -38.16078,167.7761 -40.36237,175.7654 -33.75761,175.7654 2.93544,0 21.28197,-19.9733 41.09623,-44.7403 z"
       id="path7"
       style="stroke-width:0.765707" />
    <path
       d="m 98.385537,2637.9833 c -13.943364,-12.783 -32.289893,-23.1691 -40.362367,-23.968 -8.072474,0 -19.814254,-3.9947 -25.685145,-7.9894 -26.419005,-18.3754 25.685145,-6.3914 58.7089,13.5819 34.491475,20.7723 35.225345,20.7723 55.039595,7.1904 10.27406,-7.9893 26.41901,-26.3648 34.49148,-41.5445 16.87881,-31.1585 23.48356,-32.7563 52.10415,-12.783 24.95128,18.3755 41.09623,41.5446 41.83009,59.9201 0,12.7829 -14.67722,20.7722 -14.67722,7.9893 -0.73387,-3.9947 -11.74178,-20.7723 -25.68515,-38.3488 -24.21742,-31.1585 -24.95128,-31.1585 -39.62851,-16.7776 -8.80633,8.7882 -15.41108,19.1744 -15.41108,24.7669 0,11.1851 -38.16079,51.9307 -48.43485,51.9307 -3.6693,0 -18.34653,-10.3861 -32.289893,-23.968 z"
       id="path13"
       style="stroke-width:0.765707" />
  </g>
</svg>
