<?xml version="1.0" encoding="UTF-8" standalone="no"?>
<svg
   version="1.0"
   width="300.000000pt"
   height="258.000000pt"
   viewBox="0 0 300.000000 258.000000"
   preserveAspectRatio="xMidYMid meet"
   id="svg13"
   sodipodi:docname="aot.svg"
   inkscape:version="1.4 (86a8ad7, 2024-10-11)"
   xmlns:inkscape="http://www.inkscape.org/namespaces/inkscape"
   xmlns:sodipodi="http://sodipodi.sourceforge.net/DTD/sodipodi-0.dtd"
   xmlns="http://www.w3.org/2000/svg"
   xmlns:svg="http://www.w3.org/2000/svg">
  <defs
     id="defs13" />
  <sodipodi:namedview
     id="namedview13"
     pagecolor="#ffffff"
     bordercolor="#000000"
     borderopacity="0.25"
     inkscape:showpageshadow="2"
     inkscape:pageopacity="0.0"
     inkscape:pagecheckerboard="0"
     inkscape:deskcolor="#d1d1d1"
     inkscape:document-units="pt"
     inkscape:zoom="2.4215116"
     inkscape:cx="199.87515"
     inkscape:cy="171.58704"
     inkscape:window-width="1920"
     inkscape:window-height="1051"
     inkscape:window-x="-9"
     inkscape:window-y="-9"
     inkscape:window-maximized="1"
     inkscape:current-layer="svg13" />
  <metadata
     id="metadata1">
Created by potrace 1.10, written by Peter Selinger 2001-2011
</metadata>
  <g
     transform="matrix(0.04708883,0,0,-0.04314509,-29.501201,108.07306)"
     fill="#000000"
     stroke="none"
     id="g13">
    <path
       d="m 826,2398 c 3,-18 10,-48 14,-65 l 8,-33 H 754 660 V 1442 583 L 877,469 c 120,-63 225,-117 234,-121 9,-4 20,-11 23,-17 6,-10 -113,-119 -154,-141 -12,-7 -20,-14 -17,-16 3,-3 60,23 129,57 l 123,61 143,-75 142,-75 146,77 147,77 121,-63 c 66,-35 125,-62 129,-60 5,1 -15,19 -45,40 -52,36 -142,117 -136,121 2,2 21,12 43,23 22,11 129,66 238,122 l 197,103 v 859 859 h -90 -90 l 10,26 c 10,25 14,104 6,104 -15,0 -126,-73 -150,-99 l -30,-31 h -491 -492 l -24,26 c -21,23 -148,104 -163,104 -3,0 -3,-15 0,-32 z m 1333,-61 c -30,-124 -80,-192 -274,-369 l -30,-27 v 87 88 l 76,89 c 43,50 92,104 110,122 43,40 123,86 127,72 2,-5 -2,-33 -9,-62 z M 947,2319 c 29,-23 53,-44 53,-48 1,-3 21,-28 46,-56 89,-97 95,-109 93,-164 -2,-31 -7,-51 -14,-51 -14,0 -126,107 -177,171 -57,70 -96,189 -62,189 4,0 31,-19 61,-41 z m -88,-51 c 8,-22 6,-23 -60,-26 -65,-3 -69,-4 -69,-27 0,-13 -5,-27 -10,-30 -7,-4 -7,-12 0,-25 5,-10 10,-73 10,-139 0,-103 -2,-120 -15,-115 -19,8 -19,-6 1,-34 12,-18 15,-44 14,-115 -1,-51 -2,-136 -1,-189 l 1,-98 h 48 c 39,0 53,-5 72,-25 l 23,-25 h -70 c -59,0 -71,-3 -74,-17 -2,-10 -3,-191 -1,-403 l 2,-385 156,-80 c 85,-44 189,-97 231,-118 75,-38 76,-39 56,-58 -19,-19 -21,-18 -254,104 l -234,124 -3,851 -2,852 h 85 c 80,0 86,-2 94,-22 z m 1105,-3 -16,-25 h -209 -209 v -217 c -1,-216 -1,-218 -25,-245 -13,-16 -25,-28 -27,-28 -2,0 -1,110 1,245 l 3,245 h -209 -210 l -23,25 -23,25 h 481 482 z m 354,-827 -3,-853 -230,-121 c -148,-78 -234,-118 -241,-113 -6,5 -18,7 -25,5 -41,-13 -70,-16 -65,-7 8,13 -69,-21 -151,-66 l -63,-35 v 61 61 h 48 c 45,0 51,4 102,55 29,30 51,57 48,60 -3,3 -49,-10 -102,-29 -53,-19 -96,-32 -96,-28 0,4 46,23 102,42 99,34 102,36 135,88 19,28 36,59 40,68 7,19 7,19 -160,-41 -84,-30 -117,-38 -115,-28 3,12 133,70 230,102 23,8 43,24 55,44 24,41 55,118 50,124 -4,3 -284,-120 -292,-129 -11,-13 -35,-71 -31,-75 3,-3 13,10 22,30 15,31 32,42 148,95 72,33 133,58 135,56 1,-1 -10,-28 -25,-59 l -29,-57 -125,-49 c -69,-28 -132,-53 -140,-56 -12,-6 -13,-4 -2,9 7,8 10,22 6,31 -3,8 -1,25 6,36 7,14 7,21 0,21 -18,0 -10,38 21,100 17,34 29,64 26,66 -3,3 -17,-2 -31,-11 -26,-17 -26,-17 -26,8 0,13 7,30 15,37 18,15 55,113 55,146 v 25 l -35,-27 c -29,-22 -35,-24 -35,-9 0,9 9,28 20,42 21,27 60,141 60,176 0,18 -5,16 -40,-18 -42,-41 -52,-33 -26,21 8,16 17,58 21,94 7,60 6,64 -10,50 -9,-8 -13,-16 -8,-17 6,-2 6,-27 0,-66 -9,-59 -13,-66 -86,-142 -42,-44 -98,-108 -125,-142 -27,-35 -50,-63 -52,-63 -7,0 10,117 20,131 6,9 61,72 121,140 88,99 110,130 110,154 0,25 4,30 28,33 l 28,3 -6,-48 c -3,-26 -9,-60 -11,-75 -3,-16 -3,-28 0,-28 4,0 46,34 94,76 70,61 92,74 112,70 19,-3 40,7 85,40 33,25 61,40 63,35 4,-12 -11,-63 -40,-139 -22,-56 -6,-44 -263,-214 -6,-3 -2,29 9,72 18,77 20,79 88,136 37,31 66,59 64,62 -10,10 -147,-114 -152,-138 -3,-14 -14,-56 -24,-95 -10,-38 -18,-71 -17,-72 2,-1 38,23 82,53 44,30 107,71 140,90 61,36 66,43 105,148 20,53 20,20 1,-37 -11,-32 -18,-57 -15,-57 11,0 132,65 171,91 36,25 51,29 109,29 75,0 78,-8 9,-21 -26,-5 -93,-34 -149,-64 l -103,-55 -7,-50 c -4,-27 -13,-68 -21,-91 -9,-23 -13,-44 -11,-47 3,-2 56,20 118,50 111,54 143,79 205,163 l 23,30 -3,-350 -2,-350 -115,-59 -115,-59 -117,-2 -117,-1 -60,-65 c -32,-35 -58,-65 -56,-67 1,-1 36,-3 77,-3 82,-1 122,12 178,60 19,16 106,66 193,111 l 158,82 -2,363 c -1,199 1,367 6,374 4,7 2,24 -6,37 -11,22 -19,24 -77,24 h -65 l 23,25 c 16,17 35,25 69,27 l 46,3 -3,69 c -1,38 3,84 9,104 7,20 8,37 2,41 -18,12 -12,133 8,173 23,46 24,51 2,44 -16,-5 -18,4 -17,107 1,61 5,127 9,145 5,21 4,32 -4,32 -6,0 -10,10 -8,23 2,21 -2,22 -65,25 l -67,3 11,24 c 11,23 16,25 90,25 h 78 z M 895,2198 c 18,-32 253,-278 264,-278 3,0 6,45 6,99 l -1,100 -43,51 c -24,28 -42,52 -40,53 2,1 88,1 192,-1 l 187,-3 v -197 -197 l -134,134 -133,133 -7,-35 c -4,-20 -4,-65 0,-100 l 6,-64 100,-93 99,-93 35,34 c 27,26 34,29 34,15 0,-10 -34,-56 -76,-102 -66,-73 -77,-90 -82,-129 -6,-54 -32,-64 -32,-12 0,29 -10,41 -95,110 -52,42 -97,77 -101,77 -13,0 8,-77 39,-140 18,-36 34,-68 35,-72 6,-14 -44,-8 -64,7 -25,19 -35,19 -27,-1 4,-12 2,-15 -8,-12 -8,2 -15,14 -17,27 -4,26 -43,52 -187,123 l -105,53 v 69 70 l 43,-64 c 37,-57 57,-74 183,-156 l 142,-92 -24,52 c -13,29 -28,77 -34,107 -8,44 -17,60 -47,84 -99,82 -151,115 -205,130 l -58,16 1,107 v 107 l 49,-95 c 38,-76 58,-102 97,-131 26,-20 84,-63 128,-95 107,-79 110,-81 101,-59 -3,10 -11,58 -16,106 -8,85 -10,90 -46,121 -85,76 -210,168 -260,193 -76,38 -75,63 4,68 31,2 62,4 67,5 6,1 19,-13 30,-30 z m 1007,-5 c -11,-16 -29,-37 -41,-47 -19,-17 -21,-30 -21,-123 0,-56 4,-103 9,-103 15,0 227,213 256,258 l 28,42 h 63 c 57,0 64,-2 64,-19 0,-14 -16,-28 -51,-46 -56,-28 -91,-53 -214,-156 l -81,-66 -11,-104 c -7,-57 -10,-105 -8,-107 2,-2 66,43 142,100 138,103 138,103 180,188 l 43,85 v -96 -96 l -58,-17 c -38,-10 -78,-32 -117,-64 -33,-26 -74,-57 -91,-69 -25,-18 -33,-32 -38,-70 -4,-27 -17,-75 -31,-107 -13,-33 -23,-61 -22,-62 3,-4 253,159 278,182 12,10 35,39 51,63 l 28,45 v -60 -60 l -89,-43 c -142,-68 -201,-108 -201,-137 0,-13 -4,-24 -10,-24 -5,0 -7,7 -4,15 8,19 -7,19 -32,0 -10,-8 -29,-15 -41,-15 -22,0 -22,2 13,71 20,40 39,92 42,117 l 5,45 -59,-45 c -32,-25 -96,-78 -142,-117 -46,-40 -90,-71 -99,-69 -10,2 22,36 91,98 59,52 111,97 116,100 27,16 55,227 29,218 -6,-2 -73,-66 -150,-143 l -139,-139 v -68 c 0,-43 -4,-68 -11,-68 -7,0 -10,18 -7,50 1,28 -1,49 -5,47 -4,-1 -9,-37 -11,-80 l -4,-78 -64,-67 c -34,-37 -91,-100 -125,-140 -63,-72 -63,-72 -63,-40 1,78 16,106 132,240 110,128 114,135 110,173 -3,39 -1,43 80,120 46,44 110,105 142,135 l 60,55 4,82 c 7,134 9,134 -143,-17 l -135,-135 2,-80 2,-80 5,77 6,77 124,126 c 68,69 126,125 129,125 3,0 2,-38 -2,-84 l -6,-85 -58,-53 c -31,-29 -88,-83 -126,-120 -38,-37 -73,-65 -77,-62 -5,3 -9,129 -9,280 v 274 h 191 190 z m 337,-105 c -22,-46 -47,-99 -57,-118 -12,-24 -58,-66 -146,-132 -71,-54 -131,-97 -132,-95 -2,1 1,20 6,42 5,22 10,61 10,87 0,47 1,48 83,116 45,37 100,82 122,99 38,29 132,82 147,83 4,0 -11,-37 -33,-82 z m -1424,24 c 48,-27 125,-85 125,-94 0,-4 4,-8 10,-8 5,0 34,-24 64,-52 50,-49 55,-57 61,-111 l 7,-58 -29,15 c -16,8 -66,42 -110,74 -75,56 -83,66 -127,153 -25,51 -46,94 -46,96 0,7 16,2 45,-15 z m 519,-201 109,-109 -20,-25 c -18,-23 -22,-24 -45,-13 -13,7 -57,44 -96,83 -71,69 -72,71 -72,121 0,29 3,52 8,52 4,0 56,-49 116,-109 z m 922,-83 c -56,-99 -81,-125 -204,-206 -65,-42 -120,-78 -124,-80 -4,-2 2,15 13,38 11,23 23,63 26,90 6,48 8,51 97,119 84,64 156,98 209,100 16,1 13,-8 -17,-61 z m -390,-58 c -9,-41 -20,-76 -25,-79 -26,-17 -214,-188 -222,-203 -8,-15 -6,-18 12,-18 h 22 l -23,-25 c -30,-32 -73,-34 -68,-3 2,12 9,23 16,26 8,2 10,-2 6,-15 -6,-14 -4,-16 6,-6 9,8 12,36 11,85 l -2,73 138,138 c 152,152 155,152 129,27 z m -1045,78 c 19,-6 71,-39 115,-74 64,-49 83,-70 88,-96 17,-80 18,-77 -6,-70 -13,3 -25,8 -28,12 -3,3 -37,27 -76,52 -53,35 -82,63 -113,109 -22,33 -41,65 -41,70 0,12 20,11 61,-3 z m 694,-175 c -6,-61 -10,-69 -69,-136 -89,-103 -129,-157 -123,-163 3,-3 12,3 19,15 8,13 23,21 41,21 27,0 26,-1 -33,-74 l -61,-74 3,-73 3,-74 80,91 c 44,51 81,85 83,78 2,-7 -37,-59 -87,-115 l -91,-103 v -73 c 0,-40 3,-73 8,-72 4,0 43,46 87,102 54,69 81,96 83,85 2,-10 -33,-60 -85,-123 -79,-95 -89,-110 -93,-155 -3,-28 -3,-50 -1,-50 3,0 45,42 93,93 63,67 87,87 87,72 0,-13 -34,-50 -93,-103 -78,-69 -95,-89 -99,-120 -4,-20 -5,-37 -4,-39 2,-1 43,27 93,62 49,35 92,65 97,65 4,0 7,-9 7,-20 0,-14 -29,-39 -102,-86 -57,-36 -105,-68 -106,-69 -6,-5 -21,-79 -18,-83 2,-2 54,22 116,53 62,31 110,51 108,44 -2,-7 -58,-41 -124,-75 -115,-61 -119,-65 -131,-105 -7,-24 -11,-44 -9,-46 2,-2 60,21 130,52 139,60 136,59 136,45 0,-6 -20,-19 -44,-29 -23,-11 -82,-38 -130,-61 -96,-45 -132,-47 -122,-4 3,13 9,35 12,48 4,18 1,25 -18,30 -33,9 -113,7 -140,-3 -19,-6 -47,5 -148,59 l -125,67 -3,357 -2,358 58,-74 c 56,-70 65,-77 176,-131 64,-31 119,-57 121,-57 3,0 0,12 -7,28 -6,15 -18,58 -27,95 l -16,69 -114,59 c -81,42 -126,59 -153,59 -21,0 -38,5 -38,10 0,17 151,12 170,-5 22,-20 180,-105 180,-97 0,4 -9,31 -20,60 -14,37 -16,52 -7,52 6,0 23,-30 37,-67 23,-61 30,-69 85,-104 33,-21 63,-38 66,-38 4,-1 9,34 11,77 4,76 4,77 -26,104 l -31,26 48,-1 h 47 v -35 c 0,-20 3,-32 7,-28 4,4 6,42 5,84 -3,117 2,130 108,244 105,112 107,112 95,1 z m 409,-20 c -16,-69 -71,-158 -125,-201 -30,-24 -87,-71 -128,-104 l -73,-61 7,64 c 5,50 13,70 33,91 41,41 276,237 285,238 4,0 5,-12 1,-27 z m 342,-11 c -45,-125 -134,-226 -263,-295 l -71,-37 23,72 c 13,40 26,89 29,108 4,21 15,41 29,50 18,12 257,138 264,140 1,0 -4,-17 -11,-38 z m -757,-122 c -13,-16 -26,-30 -31,-30 -12,0 3,63 23,92 11,14 20,39 21,55 1,15 3,2 5,-29 3,-47 0,-63 -18,-88 z m -596,50 c 27,-17 52,-30 56,-30 4,0 15,-8 24,-18 15,-16 24,-47 44,-144 l 5,-27 -50,24 c -83,40 -189,154 -221,237 l -10,27 52,-20 c 29,-11 74,-33 100,-49 z m 272,10 c 46,-37 55,-50 55,-77 0,-17 -4,-34 -8,-37 -21,-13 -85,68 -113,142 -12,32 0,27 66,-28 z m -394,-61 c 26,-36 24,-39 -16,-39 h -35 l 1,68 1,67 15,-35 c 8,-19 24,-47 34,-61 z m 1469,11 c 0,-48 -1,-50 -29,-50 h -29 l 27,50 c 14,27 27,50 29,50 1,0 2,-22 2,-50 z m -800,-25 c 0,-19 -5,-25 -20,-25 -20,0 -20,1 -3,25 22,30 23,30 23,0 z m -392,-64 c 3,-16 -1,-22 -10,-19 -7,3 -15,15 -16,27 -3,16 1,22 10,19 7,-3 15,-15 16,-27 z m 132,4 c 31,-23 32,-25 11,-25 -12,0 -39,11 -59,25 -35,24 -35,25 -11,25 14,0 40,-11 59,-25 z m 100,0 c 0,-16 -6,-25 -15,-25 -9,0 -15,9 -15,25 0,16 6,25 15,25 9,0 15,-9 15,-25 z m 143,0 c -12,-15 -28,-24 -46,-25 -27,0 -27,0 -11,25 11,17 25,25 46,25 h 29 z m 437,21 c 0,-8 -67,-46 -81,-46 -20,1 43,50 64,50 9,0 17,-2 17,-4 z m -726,-58 c 11,-10 25,-18 31,-18 20,0 46,-41 47,-73 2,-70 2,-70 -40,-48 -31,16 -46,34 -69,83 -17,35 -28,68 -26,75 6,14 31,6 57,-19 z m 1098,-70 c -70,-102 -113,-139 -216,-189 -54,-27 -101,-48 -102,-46 -2,2 3,25 11,52 8,26 15,61 15,77 0,26 9,32 118,87 87,45 128,60 160,60 l 43,1 z m -744,-17 c -13,-17 -26,-30 -30,-30 -15,-2 -8,18 19,50 33,39 44,21 11,-20 z m -587,-14 103,-53 13,-50 c 15,-59 16,-64 4,-64 -21,0 -148,65 -174,89 -27,25 -97,116 -97,126 0,18 63,-2 151,-48 z m 666,-158 c -21,-58 -37,-78 -160,-201 -123,-122 -137,-134 -137,-109 0,20 27,59 101,147 103,122 210,236 216,230 2,-2 -7,-32 -20,-67 z m -79,-8 c -13,-17 -27,-30 -31,-30 -14,-1 4,42 27,67 31,34 35,1 4,-37 z m 22,-140 c 0,-11 -14,-30 -31,-42 l -31,-22 7,24 c 8,27 34,59 47,59 4,0 8,-9 8,-19 z m 65,-3 c -26,-88 -39,-101 -178,-195 -107,-72 -137,-88 -137,-74 0,11 47,60 117,122 64,57 133,119 153,136 42,38 54,41 45,11 z m -87,-199 c -22,-18 -23,-18 -26,4 -3,13 5,28 20,40 23,19 23,19 26,-4 3,-15 -4,-29 -20,-40 z m 41,-36 c -33,-56 -39,-60 -164,-125 -71,-37 -131,-66 -133,-64 -1,2 0,14 3,27 4,17 51,53 163,125 86,55 159,100 161,98 2,-2 -12,-29 -30,-61 z m -35,-100 c -34,-25 -51,-14 -19,12 19,16 31,20 34,13 2,-6 -4,-17 -15,-25 z m -21,-65 c -37,-48 -51,-58 -159,-105 -65,-29 -120,-50 -122,-48 -2,2 0,15 5,30 6,20 40,42 158,104 83,43 152,77 154,75 2,-2 -14,-27 -36,-56 z m 26,-14 c -10,-13 -10,-17 1,-24 11,-7 11,-15 -5,-49 -10,-23 -24,-46 -32,-52 -17,-15 -17,-5 2,31 13,26 13,30 1,30 -10,0 -12,7 -8,23 7,30 46,81 50,67 2,-6 -2,-18 -9,-26 z m 275,24 c -51,-88 -59,-93 -182,-136 -65,-23 -122,-42 -125,-42 -3,0 8,22 25,50 23,37 41,53 72,65 22,8 77,28 121,44 92,34 99,36 89,19 z M 1451,457 c -31,-51 -43,-59 -222,-144 l -166,-80 71,70 c 67,65 158,121 306,184 34,14 36,10 11,-30 z m -308,7 c -3,-8 -11,-9 -44,-5 -5,0 -7,5 -4,11 7,12 51,7 48,-6 z m 777,11 c 0,-9 -36,-41 -72,-63 -23,-14 -50,-22 -79,-21 -24,0 -38,3 -31,6 6,2 12,10 12,17 0,14 37,51 60,59 19,7 110,9 110,2 z M 1459,344 c 1,-52 -2,-93 -6,-91 -5,2 -39,21 -77,42 l -69,38 56,29 c 31,15 64,39 73,53 9,14 18,25 19,25 2,0 4,-43 4,-96 z m 69,-42 3,-73 94,50 c 84,45 98,49 120,39 14,-6 25,-14 24,-17 0,-3 -61,-37 -135,-74 l -134,-68 -130,68 c -72,37 -130,70 -130,74 0,3 10,10 23,16 18,8 38,2 113,-38 50,-27 94,-49 98,-49 5,0 6,34 4,75 l -3,76 25,-3 c 24,-3 25,-6 28,-76 z"
       id="path1" />
    <path
       d="m 1826,1199 c -140,-80 -196,-125 -196,-157 -1,-15 -9,-51 -19,-79 -10,-29 -15,-53 -12,-53 3,0 42,21 86,46 44,25 106,59 138,75 64,33 76,52 101,159 11,46 11,60 2,60 -6,0 -52,-23 -100,-51 z m 72,-56 -24,-68 -88,-47 c -49,-26 -107,-59 -129,-74 l -40,-26 7,23 c 4,13 10,44 13,68 5,38 12,48 56,80 91,65 222,139 225,125 2,-7 -7,-43 -20,-81 z"
       id="path2" />
    <path
       d="m 2105,1136 c -22,-7 -68,-27 -102,-44 -56,-29 -62,-35 -68,-71 -3,-21 -19,-66 -35,-100 -16,-34 -28,-61 -26,-61 12,0 120,42 156,60 56,29 169,136 199,190 l 22,40 -53,-1 c -29,0 -71,-6 -93,-13 z m 115,-16 c -6,-12 -41,-52 -77,-91 -53,-56 -83,-78 -151,-110 -46,-22 -86,-39 -88,-37 -2,2 8,31 21,64 14,32 25,69 25,81 0,39 157,108 253,112 25,1 27,-1 17,-19 z"
       id="path3" />
    <path
       d="m 1766,955 c -120,-71 -142,-87 -152,-117 -6,-19 -21,-53 -33,-77 -13,-24 -21,-44 -19,-46 2,-1 67,28 144,65 l 141,67 32,64 c 32,67 50,130 35,128 -5,0 -72,-38 -148,-84 z m 129,24 c -37,-104 -50,-117 -187,-183 -119,-57 -144,-66 -118,-40 6,6 19,32 29,58 16,44 25,51 147,126 71,43 132,79 136,79 4,1 1,-17 -7,-40 z"
       id="path4" />
    <path
       d="m 2080,916 c -25,-7 -74,-27 -110,-43 -65,-30 -65,-30 -97,-107 l -31,-78 26,7 c 15,4 63,20 107,37 68,26 90,40 142,95 35,35 67,73 73,83 10,18 7,20 -27,19 -21,0 -58,-6 -83,-13 z m 62,-43 c -65,-78 -85,-92 -177,-128 -96,-38 -113,-42 -98,-22 6,6 18,34 28,61 17,45 24,51 84,79 58,26 149,54 189,56 8,1 -4,-20 -26,-46 z"
       id="path5" />
    <path
       d="m 1965,689 -120,-39 -32,-62 c -18,-34 -30,-64 -28,-66 9,-9 130,29 180,56 34,19 62,45 89,84 22,32 38,60 35,62 -2,3 -58,-13 -124,-35 z m 73,-26 c -19,-26 -48,-56 -65,-65 -30,-18 -166,-69 -170,-64 -2,1 10,26 25,54 27,52 27,52 127,86 55,19 104,35 108,35 5,1 -6,-20 -25,-46 z"
       id="path6" />
    <path
       d="m 1120,1869 c 0,-19 7,-65 15,-104 15,-72 33,-95 127,-166 l 28,-20 9,23 c 5,13 21,34 35,47 l 26,25 -42,44 c -24,24 -78,75 -120,114 l -78,70 z m 128,-123 c 34,-33 62,-65 62,-72 0,-18 -42,-51 -47,-36 -3,6 -10,12 -17,12 -37,0 -95,101 -96,164 0,23 10,16 98,-68 z"
       id="path7" />
    <path
       d="m 1084,1210 c 3,-22 15,-63 26,-92 18,-48 26,-56 80,-84 l 60,-31 2,58 c 1,33 2,67 2,76 1,11 -28,33 -82,65 -46,26 -86,48 -89,48 -3,0 -3,-18 1,-40 z m 115,-53 c 32,-25 40,-57 22,-86 -8,-12 -14,-12 -39,-2 -30,12 -43,34 -61,98 l -10,33 36,-15 c 20,-9 44,-21 52,-28 z"
       id="path8" />
    <path
       d="m 776,1121 c 28,-48 107,-133 151,-164 37,-25 203,-101 203,-92 0,2 -11,26 -26,54 -14,28 -28,70 -32,93 -7,42 -9,44 -92,85 -65,33 -102,44 -154,49 l -69,7 z m 197,-46 c 33,-16 62,-37 67,-49 20,-56 31,-98 26,-103 -8,-8 -64,16 -111,48 -49,33 -125,113 -125,132 0,21 73,7 143,-28 z"
       id="path9" />
    <path
       d="m 1094,1015 c 3,-17 22,-62 41,-100 27,-56 41,-74 69,-86 19,-9 38,-14 41,-11 3,3 5,33 5,68 v 62 l -57,32 c -32,18 -69,40 -82,49 -24,15 -24,15 -17,-14 z m 116,-95 c 7,-17 9,-38 5,-47 -6,-15 -12,-12 -41,21 -19,22 -34,47 -34,57 0,29 55,4 70,-31 z"
       id="path10" />
    <path
       d="m 828,902 c 11,-15 44,-52 73,-82 47,-48 66,-59 149,-89 52,-18 100,-36 106,-38 6,-2 -2,22 -17,54 -16,32 -29,65 -29,74 0,29 -213,108 -293,109 -5,0 0,-12 11,-28 z m 182,-50 c 56,-28 77,-44 84,-64 6,-15 7,-31 3,-35 -11,-11 -117,28 -149,55 -15,13 -37,37 -49,53 l -20,29 h 28 c 15,-1 62,-18 103,-38 z"
       id="path11" />
    <path
       d="m 1130,825 c 0,-2 15,-38 34,-79 22,-47 41,-76 50,-76 15,0 17,10 20,90 1,15 -13,27 -51,45 -29,13 -53,22 -53,20 z"
       id="path12" />
    <path
       d="m 920,723 c 0,-2 17,-29 38,-59 26,-38 53,-62 92,-83 59,-30 129,-56 136,-49 2,3 10,25 18,51 l 14,46 -149,50 c -82,27 -149,47 -149,44 z m 237,-109 c 25,-16 21,-44 -6,-44 -43,1 -157,72 -146,90 6,10 121,-25 152,-46 z"
       id="path13" />
  </g>
</svg>
