<?xml version="1.0" encoding="UTF-8" standalone="no"?>
<svg
   version="1.0"
   width="300.000000pt"
   height="533.000000pt"
   viewBox="0 0 300.000000 533.000000"
   preserveAspectRatio="xMidYMid meet"
   id="svg39"
   sodipodi:docname="atom.svg"
   inkscape:version="1.4 (86a8ad7, 2024-10-11)"
   xmlns:inkscape="http://www.inkscape.org/namespaces/inkscape"
   xmlns:sodipodi="http://sodipodi.sourceforge.net/DTD/sodipodi-0.dtd"
   xmlns="http://www.w3.org/2000/svg"
   xmlns:svg="http://www.w3.org/2000/svg">
  <defs
     id="defs39" />
  <sodipodi:namedview
     id="namedview39"
     pagecolor="#ffffff"
     bordercolor="#000000"
     borderopacity="0.25"
     inkscape:showpageshadow="2"
     inkscape:pageopacity="0.0"
     inkscape:pagecheckerboard="0"
     inkscape:deskcolor="#d1d1d1"
     inkscape:document-units="pt"
     inkscape:zoom="4.6885553"
     inkscape:cx="78.062425"
     inkscape:cy="89.686475"
     inkscape:window-width="1920"
     inkscape:window-height="1051"
     inkscape:window-x="-9"
     inkscape:window-y="-9"
     inkscape:window-maximized="1"
     inkscape:current-layer="svg39" />
  <metadata
     id="metadata1">
Created by potrace 1.10, written by Peter Selinger 2001-2011
</metadata>
  <g
     transform="matrix(0.02971828,0,0,-0.02985065,-16.076929,146.56668)"
     fill="#000000"
     stroke="none"
     id="g39">
    <path
       d="m 1447,4895 c -8,-18 11,-31 25,-17 11,11 3,32 -12,32 -4,0 -10,-7 -13,-15 z"
       id="path1" />
    <path
       d="m 1450,4805 c 0,-30 5,-55 10,-55 6,0 10,25 10,55 0,30 -4,55 -10,55 -5,0 -10,-25 -10,-55 z"
       id="path2" />
    <path
       d="m 1480,4715 c 0,-2 21,-24 46,-47 97,-90 188,-249 238,-418 16,-56 25,-75 25,-55 1,46 -61,214 -110,301 -55,96 -199,255 -199,219 z"
       id="path3" />
    <path
       d="m 1456,4388 c 4,-178 8,-325 10,-327 2,-2 4,122 4,277 0,214 3,282 13,286 10,5 10,7 0,12 -7,3 -13,21 -13,40 0,19 -5,34 -10,34 -7,0 -8,-108 -4,-322 z"
       id="path4" />
    <path
       d="m 1388,4653 c -6,-13 -2,-83 6,-90 3,-3 6,17 6,45 0,49 -4,62 -12,45 z"
       id="path5" />
    <path
       d="m 1689,4315 c -3,-3 2,-29 12,-59 34,-99 44,-254 23,-354 l -5,-23 -217,3 -217,3 -17,70 c -9,39 -17,90 -18,115 l -2,45 -8,-40 c -5,-22 -11,-83 -15,-136 -5,-78 -3,-111 14,-182 21,-88 60,-176 104,-235 21,-28 23,-36 13,-57 -6,-14 -17,-25 -23,-25 -7,0 -13,-5 -13,-11 0,-6 -22,-48 -50,-94 -81,-139 -90,-158 -75,-172 11,-10 13,-9 12,5 -1,20 94,199 122,229 9,10 23,33 31,52 l 14,34 47,-53 47,-54 -50,-55 c -27,-31 -57,-71 -66,-89 -10,-20 -21,-31 -29,-27 -9,3 -13,-3 -11,-18 1,-12 -11,-60 -26,-107 -26,-76 -29,-99 -30,-220 -1,-115 3,-146 22,-209 23,-72 71,-166 125,-246 15,-21 24,-42 21,-47 -8,-12 -24,0 -24,18 0,17 0,17 -120,0 -52,-8 -154,-14 -227,-15 l -131,-2 23,108 c 24,110 88,332 106,364 5,10 9,23 9,29 0,17 -25,6 -26,-11 0,-8 -15,-59 -33,-114 -28,-86 -91,-332 -91,-359 0,-4 -21,-5 -47,-1 -35,5 -45,4 -37,-4 30,-31 266,-36 472,-10 76,10 84,9 97,-7 11,-16 9,-26 -16,-76 -95,-189 -123,-338 -103,-548 7,-74 13,-141 14,-147 0,-7 3,-13 8,-13 4,0 7,51 7,113 1,61 4,124 8,140 l 7,27 h 235 235 v -42 c 0,-24 5,-50 10,-58 15,-22 2,201 -16,272 -17,72 -49,135 -107,214 -25,34 -42,66 -37,70 4,5 23,38 41,74 19,36 37,67 42,68 14,7 7,32 -9,32 -9,0 -14,-5 -12,-12 3,-7 -13,-43 -34,-81 -21,-39 -38,-74 -38,-80 0,-6 -14,2 -30,18 -16,16 -30,33 -30,38 0,5 21,37 46,71 61,80 131,220 149,299 27,115 17,316 -22,442 -11,36 23,-2 74,-82 26,-41 49,-70 51,-64 2,6 -17,41 -42,78 -60,91 -73,106 -84,99 -5,-3 -18,14 -28,37 -10,23 -41,71 -67,106 l -48,63 31,49 c 66,103 139,320 127,381 -3,17 -5,14 -7,-12 -1,-19 -6,-46 -11,-60 -8,-23 -8,-23 -4,5 3,17 8,84 12,150 l 8,120 6,-85 c 5,-67 6,-60 3,35 -2,93 -9,140 -29,210 -29,97 -38,119 -46,110 z m -389,-502 c 24,-54 26,-70 3,-29 -24,46 -63,167 -62,195 0,14 9,-7 20,-47 10,-40 27,-93 39,-119 z m 14,-77 c 15,-25 49,-73 77,-106 27,-33 47,-65 44,-71 -4,-5 12,-30 34,-54 23,-25 41,-39 41,-33 0,7 -17,30 -37,52 -26,27 -28,33 -9,16 22,-19 28,-21 23,-7 -4,10 -1,17 6,17 7,1 -1,7 -18,15 -31,14 -17,19 23,9 18,-5 21,-11 16,-28 -4,-11 -11,-23 -15,-24 -5,-2 11,-27 36,-54 70,-78 156,-205 181,-267 40,-99 57,-213 51,-335 -3,-61 -12,-131 -20,-156 l -16,-45 7,45 c 12,80 6,242 -12,289 -9,23 -46,89 -83,145 -71,105 -85,130 -62,109 26,-25 32,-12 7,15 -14,15 -32,38 -41,52 -10,13 -17,20 -17,14 0,-6 10,-23 21,-38 12,-15 19,-29 17,-32 -3,-2 -29,30 -58,73 -30,43 -79,106 -110,140 -32,35 -71,89 -89,122 -37,70 -71,195 -70,260 v 46 l 23,-61 c 12,-34 35,-82 50,-108 z m 184,102 c 3,-25 0,-28 -25,-28 -20,0 -24,3 -14,9 10,6 -4,11 -43,16 -31,4 -60,5 -63,1 -4,-3 6,-6 20,-6 15,0 27,-4 27,-10 0,-5 -20,-10 -44,-10 -40,0 -45,3 -55,30 l -10,31 102,-3 102,-3 z m 45,20 c 3,-10 9,-10 26,0 24,14 100,17 86,3 -6,-5 -21,-12 -35,-14 -14,-3 6,-3 43,0 68,5 69,5 65,-18 -2,-15 -9,-24 -20,-23 -10,0 -58,1 -108,2 l -90,2 v 30 c 0,30 24,43 33,18 z m 60,-66 97,-2 -13,-32 c -12,-29 -18,-33 -48,-32 -168,6 -313,15 -318,21 -3,3 0,2 8,-2 11,-6 13,-4 8,8 -4,10 -10,23 -13,31 -4,11 12,13 88,11 51,-1 137,-2 191,-3 z m 112,-71 c -1,-38 -8,-77 -14,-87 -14,-25 -14,-15 0,25 8,24 8,35 -1,46 -9,11 -9,22 0,50 6,19 13,35 15,35 2,0 2,-31 0,-69 z m -305,-2 c 0,-7 18,-10 50,-7 49,3 50,2 50,-24 0,-28 -1,-28 -63,-28 -62,0 -64,0 -80,35 l -17,35 h 30 c 17,0 30,-5 30,-11 z m 172,-10 c 29,-7 64,-12 77,-13 29,-1 36,-16 19,-37 -10,-13 -28,-15 -85,-11 -46,3 -73,9 -73,16 0,7 15,11 43,9 32,-2 37,-1 22,6 -11,5 -30,10 -42,10 -14,1 -23,7 -23,16 0,18 -4,18 62,4 z m -24,-75 c 34,-3 62,-10 62,-14 0,-4 -8,-18 -18,-30 -17,-21 -20,-21 -86,-9 -104,19 -164,77 -68,65 26,-3 75,-8 110,-12 z m 82,-25 c -7,-11 -9,-23 -6,-26 3,-3 11,6 17,21 14,30 24,33 33,10 3,-8 2,-13 -3,-10 -5,3 -14,-7 -19,-23 -8,-24 -14,-28 -36,-24 -25,5 -26,7 -13,27 7,11 17,27 21,34 12,21 17,13 6,-9 z m -46,-75 c 22,-5 27,-4 21,6 -5,8 -3,11 5,8 20,-6 22,-21 7,-42 -11,-15 -18,-16 -60,-5 -43,10 -57,25 -40,42 4,4 14,5 22,3 9,-3 29,-8 45,-12 z m -8,-64 c 1,-8 2,-19 3,-25 1,-5 11,1 22,15 18,22 19,22 10,3 -6,-12 -15,-24 -20,-27 -12,-8 -62,34 -55,45 9,15 39,6 40,-11 z m -123,-132 c -21,-24 -83,-129 -83,-142 0,-4 3,-5 8,-3 4,3 15,2 24,-2 15,-5 15,-9 2,-31 l -15,-25 6,25 6,25 -17,-22 c -9,-13 -22,-23 -29,-23 -22,0 -37,-74 -17,-82 14,-5 -17,-68 -33,-68 -13,0 -14,10 -9,58 11,98 60,199 132,275 38,40 60,52 25,15 z m 35,-44 c -8,-9 -25,-14 -38,-12 l -22,3 22,28 c 21,26 24,27 38,13 15,-15 15,-17 0,-32 z m -10,-51 c -2,-22 -10,-29 -35,-34 -18,-3 -35,-4 -37,-1 -11,11 16,42 37,43 21,0 21,1 2,9 -18,8 -17,9 8,9 25,1 28,-2 25,-26 z m 63,5 c 23,-26 23,-28 3,-28 -8,0 -13,4 -10,9 4,5 -3,7 -15,4 -16,-4 -17,-8 -7,-14 10,-7 9,-9 -4,-9 -13,0 -18,8 -18,30 0,36 24,40 51,8 z m 52,-67 c 9,-16 17,-31 17,-33 0,-1 -45,-4 -100,-5 l -99,-2 11,25 c 12,26 26,31 93,37 22,2 45,4 50,5 6,1 18,-11 28,-27 z m -103,-82 v -32 l -52,7 c -29,3 -63,6 -75,6 -14,0 -23,6 -23,15 0,11 14,15 58,16 47,1 52,3 27,9 -27,7 -25,8 18,9 46,1 47,1 47,-30 z m 157,2 c 7,-9 13,-19 13,-23 0,-5 -37,-7 -82,-6 -76,1 -78,2 -33,8 l 50,7 -47,1 c -42,2 -48,5 -48,23 0,20 3,21 67,14 44,-5 72,-13 80,-24 z m 39,-65 c 8,-11 14,-23 14,-26 0,-6 -351,-21 -357,-16 -2,1 3,17 10,35 l 12,33 153,-4 c 138,-3 155,-5 168,-22 z m -411,-73 c -7,-174 71,-379 202,-528 24,-27 39,-51 33,-53 -6,-2 6,-21 27,-42 20,-21 40,-37 44,-34 11,7 103,-111 139,-178 29,-55 59,-164 60,-217 0,-20 -7,-13 -34,32 -57,95 -156,216 -172,210 -7,-3 -21,3 -30,12 -9,9 -22,14 -29,11 -8,-3 -11,2 -8,15 7,27 28,24 49,-8 11,-18 19,-23 22,-14 3,9 13,4 33,-15 41,-39 35,-17 -8,31 -31,35 -34,37 -29,15 7,-24 6,-24 -19,5 -85,101 -215,302 -220,344 -2,14 -20,64 -40,111 -33,79 -35,91 -35,196 0,97 7,174 15,174 1,0 1,-30 0,-67 z m 439,-5 c 3,-17 5,-32 4,-33 -2,-2 -49,-5 -105,-7 l -103,-4 v 33 c 0,18 5,33 10,33 6,0 10,-5 10,-11 0,-7 24,-9 73,-5 88,6 90,6 52,16 -29,7 -28,8 11,9 39,1 42,-1 48,-31 z m -224,-10 v -33 h -102 c -91,0 -103,2 -106,18 -8,42 3,47 108,47 h 100 z m 220,-68 c -8,-14 -21,-20 -48,-21 -20,0 -44,-2 -52,-3 -8,-2 -81,-7 -162,-10 l -148,-8 v 31 31 h 210 c 208,0 211,0 200,-20 z m 18,-55 c 4,-37 -11,-44 -111,-51 l -97,-7 v 30 c 0,29 24,54 32,33 2,-5 32,-11 68,-14 43,-4 57,-3 40,3 -14,5 -38,10 -55,11 -27,3 -26,3 10,9 77,12 110,8 113,-14 z m -218,-14 c 0,-15 -10,-20 -45,-26 -25,-3 -43,-10 -40,-16 4,-5 -19,-9 -53,-9 -53,0 -60,2 -66,23 -9,35 -8,37 20,27 37,-14 49,-13 34,5 -11,13 -2,15 69,15 73,0 81,-2 81,-19 z m 196,-130 c -19,-73 -71,-191 -85,-191 -5,0 -11,10 -13,23 -2,16 -9,21 -26,20 l -23,-3 25,43 c 20,33 32,43 56,45 41,4 60,41 37,75 -13,20 -13,27 -1,48 8,15 14,18 14,9 0,-11 4,-9 12,5 20,33 22,-5 4,-74 z m -47,55 c -12,-24 -52,-33 -249,-52 -64,-6 -66,-5 -78,21 -7,14 -10,30 -8,33 2,4 49,9 103,10 53,2 100,5 102,8 2,2 35,4 72,4 69,0 69,0 58,-24 z m 9,-59 c 2,-12 -3,-17 -17,-17 -12,0 -21,-5 -21,-11 0,-6 9,-8 23,-4 16,4 18,3 7,-3 -8,-5 -43,-13 -78,-16 l -63,-7 3,32 c 3,32 4,33 58,37 30,2 57,6 59,8 9,9 26,-3 29,-19 z m -158,-34 c 0,-28 -3,-29 -72,-37 -56,-7 -57,-7 -72,23 -19,36 -14,38 81,37 58,-1 63,-3 63,-23 z m 57,-73 c -15,-27 -30,-41 -49,-45 -16,-3 -40,-7 -56,-10 -22,-5 -30,0 -44,22 -9,15 -17,33 -18,38 -2,9 99,29 167,34 l 21,1 z m 29,-85 c -3,-8 -17,-15 -31,-15 -35,0 -30,32 5,40 27,7 35,-2 26,-25 z m -66,1 c 0,-31 -37,-42 -62,-19 -25,22 -23,31 6,26 13,-3 27,0 30,6 12,19 26,12 26,-13 z m 84,-18 c -16,-27 -66,-88 -73,-88 -4,0 -15,14 -25,30 -9,17 -14,30 -9,29 4,-1 21,3 36,9 37,15 37,15 31,-5 -3,-10 4,-6 16,10 22,28 37,37 24,15 z m -199,-157 c -17,-34 -13,-51 13,-52 11,0 12,-2 4,-6 -7,-3 -19,0 -26,6 -32,27 -109,-236 -130,-444 -2,-22 -3,7 -1,65 2,77 11,129 30,195 27,94 111,282 121,272 3,-3 -2,-19 -11,-36 z m 55,-29 c 0,-7 4,-11 9,-8 5,3 12,-1 15,-9 5,-13 2,-14 -17,-4 -12,7 -23,12 -24,11 -2,-1 -10,-2 -19,-2 -13,0 -14,3 -5,14 6,8 11,18 10,22 -1,5 -1,14 0,19 2,14 31,-26 31,-43 z m -5,-52 c 5,0 3,5 -5,10 -13,9 -13,10 0,10 31,0 42,-16 35,-49 -4,-21 -12,-31 -20,-27 -8,3 -32,10 -55,16 -31,8 -40,15 -36,26 3,9 6,19 6,24 0,5 15,4 32,-1 18,-5 37,-9 43,-9 z m -66,-49 c 7,-5 10,-14 7,-20 -4,-6 -11,-9 -15,-6 -5,2 -13,-7 -20,-22 -17,-37 -25,-21 -11,21 12,38 17,41 39,27 z m 116,-32 c 66,-17 88,-27 101,-47 l 16,-25 -29,6 c -17,3 -64,9 -105,13 -95,8 -106,14 -90,48 6,14 14,26 17,26 3,0 44,-10 90,-21 z m -40,-65 c 42,-6 45,-9 45,-35 0,-25 -4,-29 -27,-29 -36,0 -154,17 -160,23 -2,3 -1,17 3,32 7,30 -6,29 139,9 z m 190,-50 c 29,-35 31,-47 8,-40 -10,2 -46,8 -80,11 -60,7 -63,8 -63,34 0,15 2,30 5,33 3,2 28,2 56,-2 39,-5 56,-13 74,-36 z m -338,-61 c -14,-32 -16,-34 -16,-13 -1,41 10,73 22,61 6,-6 4,-22 -6,-48 z m 233,21 c 88,-10 151,-22 160,-30 12,-12 9,-14 -20,-14 -19,0 -110,-3 -202,-6 -93,-4 -168,-4 -168,-1 0,2 7,21 16,42 13,33 18,36 42,32 15,-3 92,-13 172,-23 z m -42,-94 -3,-31 -105,-3 c -58,-1 -84,-1 -57,1 26,2 47,8 47,14 0,6 -19,7 -50,3 -49,-6 -50,-6 -50,20 v 26 h 111 110 z m 77,20 c -4,-6 19,-9 62,-8 l 68,1 -55,7 -55,7 62,1 c 52,2 64,-1 73,-17 9,-17 6,-20 -18,-24 -25,-4 -25,-4 6,-6 17,0 32,-6 32,-11 0,-7 -42,-10 -117,-8 l -118,3 -3,33 c -3,31 -2,32 33,32 22,0 34,-4 30,-10 z"
       id="path6" />
    <path
       d="m 1270,3747 c 0,-11 40,-118 55,-148 22,-42 66,-102 71,-96 3,2 -11,27 -30,55 -31,46 -76,148 -76,172 0,5 -4,12 -10,15 -5,3 -10,4 -10,2 z"
       id="path7" />
    <path
       d="m 1660,3246 c 22,-42 47,-102 56,-133 10,-32 19,-52 22,-45 9,27 -70,215 -102,241 -8,7 3,-21 24,-63 z"
       id="path8" />
    <path
       d="m 1385,3680 c 3,-5 17,-10 31,-10 13,0 24,5 24,10 0,6 -14,10 -31,10 -17,0 -28,-4 -24,-10 z"
       id="path9" />
    <path
       d="m 1380,2497 c 0,-14 34,-67 42,-67 4,0 8,3 8,8 -1,10 -50,69 -50,59 z"
       id="path10" />
    <path
       d="m 1680,2176 c 0,-2 13,-32 29,-67 16,-35 32,-73 36,-84 4,-12 9,-15 12,-8 4,12 -61,163 -71,163 -3,0 -6,-2 -6,-4 z"
       id="path11" />
    <path
       d="m 1384,2948 c -3,-4 20,-8 50,-8 31,0 56,4 56,10 0,12 -98,11 -106,-2 z"
       id="path12" />
    <path
       d="m 1647,2575 c -10,-21 -16,-40 -13,-42 7,-7 38,56 34,68 -2,6 -11,-6 -21,-26 z"
       id="path13" />
    <path
       d="m 1801,3933 c 0,-92 4,-140 9,-128 12,28 12,262 0,270 -7,4 -10,-46 -9,-142 z"
       id="path14" />
    <path
       d="m 1460,3955 c 0,-30 5,-55 10,-55 6,0 10,25 10,55 0,30 -4,55 -10,55 -5,0 -10,-25 -10,-55 z"
       id="path15" />
    <path
       d="m 1760,3771 c 0,-6 7,-11 15,-11 9,0 29,-7 46,-15 28,-15 29,-17 14,-38 -31,-44 -9,-95 47,-106 41,-8 45,-25 47,-178 1,-68 5,-113 11,-113 13,0 13,100 0,209 -9,76 -8,86 10,109 27,33 25,58 -6,89 -21,21 -32,24 -60,20 -19,-3 -34,-2 -34,2 0,9 -34,27 -67,36 -14,4 -23,2 -23,-4 z m 180,-70 c 14,-28 12,-52 -7,-73 -30,-33 -93,-13 -93,30 1,14 3,14 12,-3 13,-23 28,-35 43,-34 6,0 0,7 -12,16 -13,8 -23,24 -23,35 0,10 -4,16 -10,13 -5,-3 -10,-2 -10,2 0,35 82,46 100,14 z"
       id="path16" />
    <path
       d="m 997,3686 c -152,-41 -183,-232 -85,-536 19,-60 38,-98 38,-74 0,5 -14,52 -30,104 -101,319 -40,513 156,496 34,-3 85,-14 115,-25 60,-23 73,-26 64,-11 -7,11 -121,46 -175,54 -19,2 -57,-1 -83,-8 z"
       id="path17" />
    <path
       d="m 1960,3282 c 0,-5 46,-15 103,-21 57,-7 135,-24 173,-37 100,-36 111,-39 99,-26 -5,6 -33,20 -62,31 -83,32 -313,71 -313,53 z"
       id="path18" />
    <path
       d="m 1926,3243 c -3,-10 -10,-56 -16,-103 -24,-179 -79,-386 -151,-557 -21,-51 -34,-93 -30,-93 13,0 78,160 117,289 37,120 78,315 89,419 7,59 2,82 -9,45 z"
       id="path19" />
    <path
       d="m 1160,3148 c 0,-7 -25,-69 -54,-138 -30,-68 -53,-126 -50,-129 7,-7 9,-3 63,119 58,128 64,147 50,155 -5,4 -9,0 -9,-7 z"
       id="path20" />
    <path
       d="m 2380,3155 c 0,-2 11,-21 25,-41 52,-77 24,-190 -76,-296 -27,-29 -49,-56 -49,-60 0,-4 -6,-8 -14,-8 -16,0 -31,-18 -23,-27 18,-18 139,121 179,205 37,76 35,140 -3,197 -21,30 -39,45 -39,30 z"
       id="path21" />
    <path
       d="m 610,2803 c -37,-45 -70,-112 -69,-139 0,-10 11,5 25,35 13,30 40,74 60,98 19,24 31,43 25,43 -5,0 -23,-17 -41,-37 z"
       id="path22" />
    <path
       d="m 1260,2522 c 0,-10 33,-42 44,-42 3,0 -1,11 -10,25 -16,25 -34,33 -34,17 z"
       id="path23" />
    <path
       d="m 676,2469 c -54,-43 -23,-129 47,-129 69,0 101,77 52,125 -30,30 -64,32 -99,4 z m 94,-14 c 30,-37 -2,-105 -49,-105 -25,0 -61,37 -61,62 0,49 79,80 110,43 z"
       id="path24" />
    <path
       d="m 677,2443 c -14,-23 24,-86 41,-68 3,3 1,10 -6,14 -7,4 -16,21 -21,36 -4,17 -10,25 -14,18 z"
       id="path25" />
    <path
       d="m 2112,2463 c -7,-3 -19,-18 -27,-33 -36,-69 49,-136 110,-89 31,25 35,87 7,112 -18,16 -63,21 -90,10 z m 78,-23 c 24,-24 25,-48 4,-78 -31,-44 -104,-16 -104,40 0,24 35,58 60,58 11,0 29,-9 40,-20 z"
       id="path26" />
    <path
       d="m 2110,2368 c 0,-11 47,-21 59,-13 20,12 11,20 -24,20 -19,0 -35,-3 -35,-7 z"
       id="path27" />
    <path
       d="m 2167,2219 c -11,-161 -85,-247 -204,-235 -33,3 -53,1 -53,-6 0,-6 27,-9 73,-6 88,4 132,31 166,101 26,55 50,202 34,218 -7,7 -12,-14 -16,-72 z"
       id="path28" />
    <path
       d="m 1795,2030 c 10,-15 65,-42 78,-37 7,2 -7,14 -30,25 -47,24 -57,27 -48,12 z"
       id="path29" />
    <path
       d="m 914,1945 c 9,-20 16,-39 17,-43 0,-4 10,-23 21,-42 10,-19 16,-26 12,-15 -4,11 -16,46 -27,78 -11,31 -24,57 -29,57 -4,0 -2,-16 6,-35 z"
       id="path30" />
    <path
       d="m 1004,1815 c -16,-24 -16,-27 1,-45 32,-35 75,-19 75,27 0,21 -25,43 -49,43 -6,0 -18,-11 -27,-25 z m 59,-9 c 7,-19 -1,-26 -30,-26 -22,0 -31,19 -16,33 11,12 41,7 46,-7 z"
       id="path31" />
    <path
       d="m 1610,1695 c 0,-90 4,-145 10,-145 6,0 10,55 10,145 0,90 -4,145 -10,145 -6,0 -10,-55 -10,-145 z"
       id="path32" />
    <path
       d="m 1195,1804 c -27,-13 -60,-24 -72,-24 -13,0 -23,-4 -23,-10 0,-14 19,-12 71,5 44,16 86,42 78,48 -2,3 -26,-6 -54,-19 z"
       id="path33" />
    <path
       d="m 1524,1620 c 0,-113 2,-159 3,-102 2,56 2,148 0,205 -1,56 -3,10 -3,-103 z"
       id="path34" />
    <path
       d="m 1602,1513 c 5,-26 38,-29 38,-4 0,15 -6,21 -21,21 -14,0 -19,-5 -17,-17 z"
       id="path35" />
    <path
       d="m 1611,1428 c 0,-29 4,-73 8,-98 7,-38 9,-30 10,53 1,59 -3,97 -9,97 -5,0 -10,-24 -9,-52 z"
       id="path36" />
    <path
       d="m 1520,1259 c 0,-64 4,-98 10,-94 6,3 10,48 10,101 0,56 -4,94 -10,94 -6,0 -10,-40 -10,-101 z"
       id="path37" />
    <path
       d="m 1410,1213 c 0,-5 9,-19 20,-33 13,-16 20,-20 19,-10 0,8 -6,23 -13,33 -14,18 -26,22 -26,10 z"
       id="path38" />
    <path
       d="m 1460,1124 c 0,-9 7,-14 17,-12 25,5 28,28 4,28 -12,0 -21,-6 -21,-16 z"
       id="path39" />
  </g>
</svg>
