<?xml version="1.0" encoding="UTF-8" standalone="no"?>
<svg
   version="1.0"
   width="300.000000pt"
   height="300.000000pt"
   viewBox="0 0 300.000000 300.000000"
   preserveAspectRatio="xMidYMid meet"
   id="svg20"
   sodipodi:docname="car.svg"
   inkscape:version="1.4 (86a8ad7, 2024-10-11)"
   xmlns:inkscape="http://www.inkscape.org/namespaces/inkscape"
   xmlns:sodipodi="http://sodipodi.sourceforge.net/DTD/sodipodi-0.dtd"
   xmlns="http://www.w3.org/2000/svg"
   xmlns:svg="http://www.w3.org/2000/svg">
  <defs
     id="defs20" />
  <sodipodi:namedview
     id="namedview20"
     pagecolor="#ffffff"
     bordercolor="#000000"
     borderopacity="0.25"
     inkscape:showpageshadow="2"
     inkscape:pageopacity="0.0"
     inkscape:pagecheckerboard="0"
     inkscape:deskcolor="#d1d1d1"
     inkscape:document-units="pt"
     inkscape:zoom="4.165"
     inkscape:cx="94.357743"
     inkscape:cy="18.367347"
     inkscape:window-width="1920"
     inkscape:window-height="1051"
     inkscape:window-x="-9"
     inkscape:window-y="206"
     inkscape:window-maximized="1"
     inkscape:current-layer="svg20" />
  <metadata
     id="metadata1">
Created by potrace 1.10, written by Peter Selinger 2001-2011
</metadata>
  <g
     transform="matrix(0.04515783,0,0,-0.05828496,-9.7106443,123.40804)"
     fill="#000000"
     stroke="none"
     id="g20">
    <path
       d="m 1165,2114 c -150,-15 -313,-38 -385,-54 -103,-22 -230,-70 -230,-86 0,-22 -172,-339 -201,-369 -30,-33 -79,-124 -79,-148 0,-8 -7,-20 -15,-27 -11,-9 -15,-34 -15,-93 0,-58 -4,-85 -15,-97 -19,-22 -10,-48 20,-56 17,-4 24,-15 29,-46 9,-58 51,-133 91,-165 l 35,-28 -30,-5 c -62,-10 -34,-25 60,-32 179,-12 765,-28 1050,-28 280,0 856,15 1078,28 119,7 155,25 60,30 l -57,3 48,47 c 33,32 55,64 67,100 13,37 24,52 37,52 27,0 77,29 77,45 0,16 -27,45 -41,45 -10,0 -8,18 18,162 18,101 12,145 -23,188 -41,48 -164,76 -444,101 -97,9 -140,17 -152,28 -19,18 -188,297 -188,310 0,16 -111,53 -220,72 -102,19 -473,33 -575,23 z m 575,-42 c 46,-13 41,-13 -140,-2 -184,11 -472,-1 -694,-30 -83,-11 -169,-22 -191,-25 l -40,-5 43,15 c 48,16 204,41 337,54 114,12 638,6 685,-7 z m -4,-33 c 133,-13 178,-24 202,-49 37,-40 145,-231 135,-241 -5,-5 -154,-11 -341,-12 -266,-3 -336,-1 -351,10 -11,7 -37,59 -59,116 -57,145 -56,143 -33,166 19,19 33,21 179,21 87,0 208,-5 268,-11 z m -568,-16 c 12,-10 39,-71 62,-138 51,-145 57,-173 39,-179 -8,-2 -102,-7 -211,-11 l -196,-6 8,36 c 5,20 14,84 21,143 16,137 25,147 135,157 43,3 84,8 89,10 21,7 33,4 53,-12 z m 123,-163 c 34,-91 83,-214 110,-274 27,-60 47,-112 44,-114 -9,-9 -96,188 -166,375 -38,102 -69,189 -69,192 0,23 28,-39 81,-179 z m -421,120 c 8,-15 5,-54 -11,-152 -11,-73 -24,-136 -27,-139 -4,-4 -77,-10 -163,-14 -137,-6 -158,-5 -173,10 -21,21 -21,20 10,96 43,104 82,176 101,184 24,9 169,32 215,34 28,1 40,-4 48,-19 z M 444,1708 c -20,-40 -52,-91 -71,-113 -48,-56 -80,-130 -97,-221 -11,-63 -14,-71 -15,-38 -2,79 41,189 104,264 20,24 52,75 71,112 19,37 37,68 39,68 3,0 -11,-33 -31,-72 z m 1496,2 c 254,-22 367,-53 438,-119 36,-34 39,-41 17,-41 -21,0 -19,-27 3,-39 15,-9 15,-10 1,-11 -27,0 -45,28 -31,50 10,16 6,23 -25,49 -40,33 -130,67 -203,76 l -45,6 60,-25 c 34,-15 75,-42 95,-63 34,-37 34,-38 12,-41 -16,-3 -34,8 -61,36 -75,77 -230,113 -476,111 l -150,-2 156,-12 c 226,-19 316,-40 367,-88 36,-33 74,-117 54,-117 -5,0 -14,17 -20,39 -7,21 -19,44 -27,51 -19,16 -19,10 0,-26 8,-16 15,-38 14,-49 0,-14 -4,-10 -12,12 -20,53 -44,75 -80,71 -25,-2 -36,-11 -52,-40 -19,-36 -19,-40 -4,-83 18,-50 8,-61 -16,-15 -25,49 -20,107 14,141 33,33 56,36 89,13 13,-9 26,-14 29,-11 10,11 -44,37 -107,51 -84,20 -298,36 -468,36 -73,0 -131,4 -128,9 3,4 72,14 153,21 82,6 155,13 163,15 33,6 131,4 240,-5 z m -735,-71 c -178,-11 -375,-15 -375,-7 0,8 126,14 345,14 l 150,1 z m 1242,-13 c 33,-16 57,-35 67,-54 15,-28 14,-29 -8,-25 -12,3 -30,17 -39,33 -9,15 -36,37 -59,49 -60,29 -25,26 39,-3 z m -1657,5 c 0,-5 -71,-12 -157,-16 -87,-3 -166,-9 -175,-11 -10,-3 -18,-1 -18,5 0,7 24,12 58,12 59,2 271,14 285,17 4,1 7,-2 7,-7 z m 500,-20 c 0,-10 -413,-20 -445,-12 -17,5 94,11 373,19 39,1 72,-2 72,-7 z m 63,-26 17,-35 h -36 c -31,0 -35,3 -29,18 4,9 10,25 12,35 8,26 17,21 36,-18 z m 499,14 c 87,-12 88,-12 82,-38 -10,-39 -14,-41 -84,-31 -36,5 -144,12 -241,16 -161,6 -177,9 -189,27 -12,20 -11,20 191,13 112,-3 229,-8 259,-11 l 55,-4 -45,9 c -25,6 -141,13 -258,16 -125,4 -215,11 -219,17 -8,13 326,3 449,-14 z m -1069,-6 c 80,-7 89,-23 13,-23 h -55 l -6,-53 c -8,-61 10,-258 25,-287 23,-43 46,-48 266,-53 132,-3 217,-1 228,5 14,8 17,7 14,-3 -4,-11 -49,-14 -235,-14 -217,0 -232,1 -253,20 -38,34 -52,83 -58,200 l -5,110 -166,-7 c -91,-4 -174,-9 -183,-12 -10,-2 -20,-1 -23,4 -13,20 34,29 200,37 l 180,8 2,25 c 1,14 -1,18 -3,8 -5,-17 -12,-18 -277,-32 -84,-5 -87,-4 -77,14 8,14 22,20 48,21 33,1 34,2 12,9 -15,5 17,6 75,4 55,-3 136,-1 180,4 76,10 73,10 -55,7 -97,-2 -115,-1 -65,4 104,11 143,12 218,4 z m 495,-20 c -3,-16 -21,-19 -138,-24 -219,-11 -367,-10 -350,1 8,5 30,10 48,10 17,0 32,4 32,10 0,11 66,16 263,18 137,2 148,1 145,-15 z m 1332,-57 -1,-31 -13,35 c -30,79 -30,77 -7,51 12,-13 21,-36 21,-55 z m 95,68 c 13,-5 10,-10 -14,-25 -34,-21 -46,-54 -37,-102 5,-30 5,-31 -9,-13 -22,29 -19,98 5,124 22,24 29,26 55,16 z m -377,-48 c -2,-19 -7,-23 -17,-17 -9,6 -12,18 -7,36 9,35 29,19 24,-19 z m -125,-27 c -8,-8 -14,-6 -22,9 -6,10 -7,22 -4,26 4,4 14,0 22,-9 11,-11 12,-18 4,-26 z m -933,6 c 0,-12 -19,-15 -112,-15 -62,0 -177,-3 -255,-7 -127,-5 -143,-4 -143,10 0,19 37,22 318,25 165,2 192,0 192,-13 z m 130,-26 c 12,-23 19,-43 16,-46 -2,-3 -12,9 -21,26 -13,27 -21,31 -55,31 h -39 l -4,-147 -3,-148 -2,156 c -1,86 1,159 5,162 3,4 23,7 44,7 35,0 41,-4 59,-41 z m 478,25 c 32,-5 42,-11 42,-25 0,-10 -5,-16 -12,-14 -31,11 -222,26 -329,26 -95,0 -120,3 -131,16 -12,15 4,16 187,10 110,-4 219,-10 243,-13 z m 188,-9 c 22,-34 7,-79 -28,-83 -20,-2 -28,3 -38,28 -26,63 30,110 66,55 z m 668,9 c 20,-19 20,-54 2,-80 -12,-15 -18,-17 -33,-8 -21,13 -29,69 -12,90 15,18 24,18 43,-2 z m -450,-3 c 3,-5 -1,-14 -10,-21 -11,-10 -18,-10 -27,-1 -9,9 -9,14 3,21 19,12 27,12 34,1 z m 244,-8 c 2,-8 -5,-13 -17,-13 -12,0 -21,6 -21,16 0,18 31,15 38,-3 z m -881,-36 c 77,-29 183,-137 183,-186 0,-9 -14,5 -30,32 -33,52 -40,55 -63,29 -16,-17 -16,-21 1,-60 19,-47 32,-54 32,-17 0,29 7,31 32,8 16,-15 20,-15 33,-2 19,19 5,72 -33,125 -45,63 -46,61 11,53 29,-4 62,-8 74,-8 12,-1 34,-12 50,-25 17,-14 48,-26 79,-31 45,-6 51,-9 47,-26 -6,-22 -8,-23 -35,-8 -29,16 -66,3 -82,-30 -13,-23 -13,-32 -1,-54 17,-33 12,-37 -45,-37 -49,0 -100,-28 -100,-55 0,-22 46,-52 91,-59 l 42,-7 -30,-32 c -57,-59 -68,-105 -33,-130 18,-13 19,-15 5,-21 -24,-9 -315,-7 -315,2 0,4 13,13 29,20 35,15 87,66 105,102 19,36 37,116 30,133 -3,8 1,21 9,29 13,13 11,22 -14,76 -45,94 -126,152 -209,152 -63,-1 -149,-67 -150,-117 -1,-10 -7,-31 -15,-48 l -13,-30 -1,48 c -1,26 3,47 7,47 4,0 16,13 25,30 51,86 187,133 284,97 z m 947,-7 c 33,-12 57,-61 63,-129 4,-41 2,-60 -8,-68 -20,-16 -526,-35 -552,-21 -16,8 -18,17 -14,52 8,55 44,138 65,151 9,6 42,13 72,16 94,10 347,9 374,-1 z M 535,1441 c 65,-29 134,-127 135,-191 1,-41 20,-2 20,41 0,26 -11,52 -40,93 -22,31 -40,59 -40,61 0,3 18,5 39,5 45,0 49,-7 52,-115 1,-38 5,-77 9,-85 4,-8 14,-29 23,-46 16,-31 16,-32 -6,-38 -12,-3 -32,-6 -43,-6 -12,0 -27,-7 -34,-15 -19,-23 3,-41 60,-49 28,-4 50,-8 50,-11 0,-2 -14,-26 -31,-54 -20,-31 -30,-58 -26,-71 6,-23 9,-23 -103,-21 -104,2 -162,10 -154,22 3,5 13,9 22,9 34,0 90,58 112,117 31,82 29,148 -4,218 -52,105 -147,144 -223,93 -18,-13 -33,-28 -33,-35 0,-6 -4,-15 -10,-18 -19,-12 -10,14 17,46 31,37 95,69 138,69 17,0 48,-9 70,-19 z m 719,7 c 3,-7 7,-64 9,-125 4,-102 3,-113 -14,-118 -22,-7 -420,2 -442,11 -24,9 -47,90 -47,165 0,56 3,68 18,71 9,2 119,5 245,7 181,2 228,0 231,-11 z m 114,0 c 7,-9 3,-23 -14,-48 l -24,-34 v 47 c 0,48 15,62 38,35 z m 206,-72 c 74,-31 124,-132 113,-227 -14,-113 -104,-195 -187,-170 -47,14 -102,74 -118,130 -34,112 7,229 93,267 39,17 58,17 99,0 z M 486,1351 c 99,-60 99,-272 1,-331 -40,-25 -64,-25 -103,-1 -46,28 -76,98 -76,175 0,135 88,212 178,157 z m 1545,-42 c 20,-23 15,-52 -10,-47 -9,2 -16,13 -15,26 0,17 -2,19 -13,10 -8,-6 -11,-20 -8,-32 6,-21 6,-21 -9,-2 -20,25 -20,31 0,50 21,21 33,20 55,-5 z m 709,-13 c 0,-8 -5,-18 -11,-22 -14,-8 -33,11 -25,25 10,16 36,13 36,-3 z M 1326,1164 c -7,-18 -36,-7 -36,13 0,9 8,22 18,29 15,11 17,10 20,-7 2,-11 1,-27 -2,-35 z m 1429,26 c 0,-12 -19,-16 -85,-21 -134,-11 -785,-22 -814,-15 -14,3 -26,13 -26,21 0,12 16,15 78,16 42,1 183,5 312,9 378,11 535,8 535,-10 z m -1538,-60 c 62,0 113,-4 113,-9 0,-12 -662,-1 -675,11 -7,7 65,9 219,4 126,-3 280,-6 343,-6 z m 1423,-20 c 0,-33 -86,-148 -120,-162 -10,-3 -71,-8 -136,-9 l -119,-3 v 25 c -1,32 -37,91 -76,123 -43,37 -57,35 324,44 124,3 127,3 127,-18 z m -1267,-60 c 30,-55 102,-114 144,-117 14,-1 28,-4 31,-7 3,-4 -99,-6 -226,-6 -153,0 -232,4 -232,10 0,6 7,13 15,16 34,14 38,44 10,85 -14,22 -23,44 -20,49 4,6 55,9 116,9 61,-1 113,1 116,5 12,12 18,6 46,-44 z m -312,-2 c 6,-13 23,-35 36,-50 l 25,-26 -198,-4 c -110,-2 -201,-2 -204,0 -3,2 3,8 13,13 9,6 26,28 37,50 l 20,39 h 130 c 124,0 130,-1 141,-22 z m 1119,4 c 0,-5 15,-26 34,-48 l 33,-39 -186,4 c -102,1 -187,4 -189,6 -1,1 10,21 24,44 l 28,41 h 128 c 70,0 128,-4 128,-8 z"
       id="path1" />
    <path
       d="m 1300,2015 c -10,-12 -7,-29 15,-87 36,-99 46,-121 39,-85 -7,30 2,34 33,12 13,-9 23,-31 27,-60 l 7,-46 92,3 92,3 1,68 c 0,37 5,72 10,77 5,5 59,11 119,12 l 110,3 38,-75 c 35,-69 41,-76 75,-82 54,-10 102,-9 102,2 0,14 -117,204 -137,222 -19,17 -91,31 -221,43 -73,7 -74,7 -63,-14 8,-15 21,-21 44,-21 32,0 57,-15 57,-32 0,-5 -37,-8 -82,-6 -66,2 -83,6 -83,18 0,9 11,16 28,18 29,4 34,11 15,30 -19,19 -302,17 -318,-3 z m 240,-34 c 0,-10 8,-29 18,-42 14,-19 17,-38 14,-85 -4,-60 -5,-62 -34,-68 -62,-12 -76,-8 -88,27 -13,39 -38,70 -69,86 -31,17 -58,80 -39,92 7,5 55,9 106,9 83,0 92,-2 92,-19 z m 295,-6 c 64,-8 72,-14 119,-89 50,-81 55,-96 29,-96 -29,0 -39,12 -68,73 -32,66 -65,97 -106,97 -20,0 -29,5 -29,16 0,8 4,13 9,10 5,-3 26,-8 46,-11 z"
       id="path2" />
    <path
       d="m 1662,1782 c -33,-18 -32,-18 93,-17 69,0 125,1 125,2 0,1 -13,9 -30,18 -40,21 -146,19 -188,-3 z"
       id="path3" />
    <path
       d="m 1025,2008 c -44,-5 -83,-13 -87,-17 -7,-6 -39,-157 -37,-171 0,-3 6,11 13,30 18,51 44,60 174,60 61,0 112,4 112,9 0,17 -32,86 -44,93 -13,9 -24,9 -131,-4 z m 115,-33 c 7,-9 11,-17 9,-19 -4,-5 -90,-8 -148,-7 -54,1 -25,19 49,29 36,5 68,10 71,11 4,0 12,-6 19,-14 z"
       id="path4" />
    <path
       d="m 1117,1733 c -16,-15 -3,-18 68,-15 41,2 75,8 75,13 0,10 -133,13 -143,2 z"
       id="path5" />
    <path
       d="m 890,1717 c 0,-8 14,-11 45,-9 25,2 45,8 45,13 0,5 -20,9 -45,9 -29,0 -45,-4 -45,-13 z"
       id="path6" />
    <path
       d="m 697,1966 c -52,-8 -84,-19 -96,-32 -26,-28 -103,-202 -98,-222 2,-10 18,12 40,59 19,42 43,79 52,83 9,3 68,6 131,6 h 115 l -5,-47 c -5,-43 -4,-44 4,-13 5,19 10,67 12,105 l 3,70 -40,2 c -22,0 -75,-4 -118,-11 z m 121,-43 c -3,-15 -16,-18 -91,-20 -65,-2 -87,1 -84,10 4,14 51,24 125,26 46,1 53,-1 50,-16 z"
       id="path7" />
    <path
       d="m 660,1710 c -8,-5 -12,-11 -9,-14 9,-9 169,6 169,15 0,12 -141,11 -160,-1 z"
       id="path8" />
    <path
       d="m 2210,1433 c -24,-3 -50,-9 -57,-15 -19,-16 -59,-146 -47,-157 5,-6 108,-7 257,-4 300,7 296,6 272,97 -9,33 -21,66 -27,73 -8,10 -51,13 -182,11 -94,-1 -191,-3 -216,-5 z m 345,-12 c 28,-6 -10,-9 -125,-10 -91,-1 -190,-4 -220,-7 -30,-4 -51,-3 -47,2 17,18 320,29 392,15 z m 55,-28 c 0,-5 -82,-9 -183,-10 -100,-1 -204,-5 -232,-9 -35,-4 -47,-3 -40,4 12,13 82,17 298,20 86,1 157,-1 157,-5 z m -180,-34 c -102,-4 -212,-10 -245,-14 -33,-4 -56,-3 -52,2 14,14 108,20 297,20 h 185 z m -17,-29 c -116,-4 -228,-11 -247,-14 -22,-4 -36,-3 -36,3 0,14 57,17 290,18 h 205 z m 207,-20 c 0,-6 -65,-10 -172,-11 -95,0 -208,-4 -250,-7 -43,-4 -78,-4 -78,0 0,5 10,9 23,9 12,1 74,5 137,9 187,11 340,11 340,0 z m -110,-30 c -203,-13 -393,-19 -386,-13 10,10 185,20 351,20 h 150 z"
       id="path9" />
    <path
       d="m 605,1309 c -4,-6 -1,-31 6,-57 7,-25 14,-41 17,-34 2,7 10,12 18,12 18,0 18,12 0,55 -15,35 -29,44 -41,24 z"
       id="path10" />
    <path
       d="m 1471,1338 c -44,-30 -71,-82 -71,-135 0,-36 3,-43 19,-43 27,0 51,27 51,56 0,34 51,84 85,84 38,0 75,-41 75,-84 0,-19 5,-38 10,-41 6,-3 10,-17 10,-31 0,-20 -4,-24 -19,-19 -10,3 -24,-1 -31,-10 -7,-8 -23,-15 -36,-15 -31,0 -33,-35 -3,-51 51,-27 100,36 100,127 0,135 -102,222 -190,162 z"
       id="path11" />
    <path
       d="m 1516,1254 c -27,-27 -31,-63 -9,-92 11,-15 28,-29 37,-30 27,-6 56,27 56,62 0,62 -48,96 -84,60 z"
       id="path12" />
    <path
       d="m 1411,1100 c 16,-46 83,-100 122,-99 h 32 l -40,15 c -47,17 -79,46 -95,85 -16,38 -32,38 -19,-1 z"
       id="path13" />
    <path
       d="m 381,1324 c -28,-20 -51,-72 -51,-114 0,-49 41,-37 54,15 18,71 81,89 116,33 11,-18 20,-43 20,-55 0,-12 5,-25 10,-28 14,-9 13,48 -2,82 -32,75 -94,104 -147,67 z"
       id="path14" />
    <path
       d="m 421,1246 c -29,-34 -9,-106 28,-106 27,0 41,21 41,60 0,54 -40,81 -69,46 z"
       id="path15" />
    <path
       d="m 341,1113 c 17,-47 59,-83 93,-82 l 31,1 -32,9 c -33,10 -83,61 -83,85 0,8 -4,14 -10,14 -6,0 -6,-10 1,-27 z"
       id="path16" />
    <path
       d="m 490,1126 c -7,-9 -21,-16 -31,-16 -25,0 -24,-26 0,-40 29,-15 39,-13 57,16 15,22 15,27 2,40 -13,13 -16,13 -28,0 z"
       id="path17" />
    <path
       d="m 2528,1183 c 34,-2 90,-2 125,0 34,2 6,3 -63,3 -69,0 -97,-1 -62,-3 z"
       id="path18" />
    <path
       d="m 2183,1173 c 42,-2 112,-2 155,0 42,1 7,3 -78,3 -85,0 -120,-2 -77,-3 z"
       id="path19" />
    <path
       d="m 1917,1163 c 18,-2 50,-2 70,0 21,2 7,4 -32,4 -38,0 -55,-2 -38,-4 z"
       id="path20" />
  </g>
</svg>
