<?xml version="1.0" encoding="UTF-8" standalone="no"?>
<svg
   version="1.0"
   width="300.000000pt"
   height="300.000000pt"
   viewBox="0 0 300.000000 300.000000"
   preserveAspectRatio="xMidYMid meet"
   id="svg13"
   sodipodi:docname="rd6bjp01.svg"
   inkscape:version="1.4 (86a8ad7, 2024-10-11)"
   xmlns:inkscape="http://www.inkscape.org/namespaces/inkscape"
   xmlns:sodipodi="http://sodipodi.sourceforge.net/DTD/sodipodi-0.dtd"
   xmlns="http://www.w3.org/2000/svg"
   xmlns:svg="http://www.w3.org/2000/svg">
  <defs
     id="defs13" />
  <sodipodi:namedview
     id="namedview13"
     pagecolor="#ffffff"
     bordercolor="#000000"
     borderopacity="0.25"
     inkscape:showpageshadow="2"
     inkscape:pageopacity="0.0"
     inkscape:pagecheckerboard="0"
     inkscape:deskcolor="#d1d1d1"
     inkscape:document-units="pt"
     inkscape:zoom="1.6325"
     inkscape:cx="199.69372"
     inkscape:cy="200"
     inkscape:window-width="1600"
     inkscape:window-height="871"
     inkscape:window-x="1911"
     inkscape:window-y="114"
     inkscape:window-maximized="1"
     inkscape:current-layer="g13" />
  <metadata
     id="metadata1">
Created by potrace 1.10, written by Peter Selinger 2001-2011
</metadata>
  <g
     transform="matrix(0.04987601,0,0,-0.05223375,-6.2602589,108.08594)"
     fill="#000000"
     stroke="none"
     id="g13">
    <path
       d="m 1620,2050 c -171,-9 -307,-37 -388,-80 -32,-17 -97,-62 -144,-99 -61,-49 -89,-66 -97,-58 -24,24 -134,-34 -117,-61 10,-16 -21,-22 -108,-22 -214,0 -382,-44 -429,-113 -40,-56 -86,-120 -134,-182 l -53,-68 2,-81 2,-81 3,68 c 2,37 7,67 12,67 7,0 7,-12 -4,-146 l -7,-81 31,-26 c 28,-23 62,-34 166,-53 50,-8 43,2 -11,16 l -39,10 41,-5 c 23,-3 54,-12 70,-20 l 29,-15 h -40 c -108,0 -247,39 -243,69 3,19 -23,22 -30,3 -6,-18 94,-61 170,-73 35,-6 157,-11 273,-12 120,-1 186,-5 155,-8 -30,-4 64,-6 210,-4 203,2 233,0 130,-5 -106,-6 -88,-6 82,-3 120,2 258,6 306,10 91,6 131,-4 161,-41 11,-13 36,-16 125,-16 132,0 174,15 241,85 30,31 53,45 70,45 15,0 36,5 47,11 11,6 84,24 161,39 140,28 142,28 166,9 20,-16 41,-19 127,-19 57,0 114,5 128,12 25,11 66,79 66,110 0,9 7,21 15,28 12,10 15,38 15,131 0,65 -4,120 -9,123 -5,3 -6,-16 -3,-42 6,-55 -3,-54 -12,2 -4,21 -9,42 -11,47 -3,4 0,17 7,28 10,16 9,27 -6,58 -41,86 -121,152 -187,153 -35,1 -139,101 -139,135 v 25 h 160 c 136,0 160,-2 160,-15 0,-11 11,-15 36,-15 32,0 37,4 54,43 11,24 17,52 14,63 -5,18 -14,19 -212,15 -114,-2 -248,-5 -299,-8 -73,-3 -98,-1 -124,13 -70,36 -288,48 -589,34 z m 453,-21 c 38,-5 73,-6 79,-3 7,5 8,2 3,-6 -6,-10 -3,-12 13,-8 12,4 20,2 17,-2 -3,-4 10,-14 28,-21 17,-7 36,-15 41,-17 5,-3 6,0 2,7 -5,8 15,11 68,11 65,0 75,-2 69,-16 -4,-12 -18,-15 -63,-12 -32,2 -56,0 -54,-4 2,-4 0,-9 -6,-13 -5,-3 -10,-1 -10,4 0,20 -16,11 -17,-9 -1,-11 2,-18 7,-15 6,3 7,-2 4,-12 -5,-17 -5,-17 9,-1 12,16 16,16 35,2 12,-8 26,-13 31,-9 5,3 13,0 17,-6 5,-8 2,-10 -7,-4 -8,4 10,-14 39,-40 48,-43 62,-68 45,-78 -5,-3 -29,-8 -55,-11 -46,-7 -48,-6 -48,16 0,13 -4,28 -9,33 -5,6 -14,27 -21,48 -10,33 -30,43 -30,16 0,-6 5,-7 11,-3 8,4 9,-1 4,-16 -5,-15 -4,-20 4,-16 6,4 11,2 11,-3 0,-6 -6,-11 -12,-11 -7,0 -23,25 -34,55 -12,31 -17,55 -11,55 6,0 8,3 5,6 -4,3 -15,1 -27,-5 -13,-7 -22,-8 -26,-1 -3,5 -21,11 -38,11 l -32,1 30,7 c 30,7 30,7 -10,13 -38,5 -65,-4 -65,-23 0,-5 19,-9 43,-9 23,0 49,-5 57,-10 11,-7 -1,-10 -41,-10 -63,0 -83,18 -53,51 16,18 27,18 99,4 33,-7 36,-9 20,-16 -12,-5 -14,-8 -5,-8 8,0 24,4 35,8 16,6 10,11 -30,24 -119,41 -136,24 -195,-200 -8,-32 -16,-43 -30,-43 -19,0 -19,1 1,58 11,31 27,84 35,117 15,55 14,60 -2,72 -19,14 -19,15 11,31 13,7 15,12 6,12 -8,0 -22,-7 -31,-15 -13,-11 -28,-12 -80,-4 -36,5 -141,9 -235,10 -117,0 -163,3 -146,10 13,5 77,9 143,8 65,-1 122,2 126,6 8,8 169,-2 275,-16 z m -583,-8 c -8,-5 -44,-11 -80,-14 l -65,-6 55,14 c 66,15 113,19 90,6 z m 100,-21 c 0,-4 24,-5 54,-2 48,4 215,-11 289,-25 53,-11 26,-20 -75,-27 -113,-8 -177,-23 -185,-43 -3,-8 -24,-13 -59,-13 h -54 l -30,-61 c -16,-33 -24,-59 -18,-57 6,2 18,22 27,44 25,62 28,64 87,64 50,0 55,-2 65,-27 21,-57 18,-67 -31,-76 -25,-4 -80,-10 -122,-12 l -78,-4 38,70 c 37,68 37,69 79,69 42,0 77,22 70,44 -6,20 -70,45 -89,35 -30,-16 -10,-39 33,-39 40,0 52,-13 23,-24 -27,-10 -66,-7 -58,5 5,8 1,8 -14,0 -15,-8 -23,-8 -28,0 -4,8 -9,7 -16,-2 -7,-11 -8,-9 -4,4 3,10 6,24 6,31 0,7 10,18 23,24 12,6 16,11 9,11 -17,1 -64,-49 -59,-63 2,-6 13,-15 24,-20 21,-10 21,-11 -13,-78 l -34,-68 -233,-3 c -227,-2 -226,-2 70,-5 201,-1 311,2 330,9 37,15 197,14 252,-1 24,-6 41,-13 40,-15 -3,-3 -132,-17 -165,-18 -39,-1 26,-117 65,-117 10,0 5,-10 -16,-32 -17,-18 -38,-48 -47,-65 -10,-21 -24,-33 -37,-33 -11,0 -30,-6 -42,-14 -31,-19 -196,-31 -444,-31 -117,0 -213,1 -213,2 0,2 206,121 290,167 36,20 61,36 55,36 -14,0 -175,-86 -290,-155 l -95,-57 -290,7 c -160,4 -290,10 -290,13 0,3 19,29 42,59 98,127 224,207 332,209 77,2 216,24 216,35 0,4 34,34 74,65 41,32 73,61 70,66 -3,5 -1,7 5,6 5,-2 38,16 73,40 60,40 70,43 182,57 66,8 120,16 122,17 6,6 84,4 84,-2 z m 388,-16 c 37,-15 37,-7 -7,-149 -15,-49 -34,-91 -41,-93 -9,-3 -11,1 -6,14 15,36 46,167 46,191 0,29 -8,32 -118,49 l -87,13 90,-5 c 50,-4 105,-12 123,-20 z m 496,20 c 24,-9 19,-24 -8,-24 -29,0 -44,-17 -52,-61 -4,-19 -11,-40 -17,-46 -8,-12 -4,-17 14,-15 3,1 30,-24 60,-54 39,-40 61,-54 82,-54 42,0 102,-35 134,-77 15,-21 31,-40 34,-43 16,-13 26,-47 18,-65 -4,-11 -8,-14 -8,-7 -1,6 -4,11 -8,10 -5,0 -16,2 -26,7 -23,10 -53,-17 -66,-59 -11,-38 -22,-96 -15,-78 5,10 9,10 20,1 16,-13 46,11 41,33 -2,7 -2,9 1,4 2,-4 9,-2 14,5 7,10 8,7 3,-11 -3,-14 -7,-32 -9,-40 -2,-8 -11,-14 -19,-12 -11,2 -15,-2 -11,-13 5,-12 11,-11 36,10 16,14 34,23 39,19 5,-3 9,2 9,10 0,10 -6,13 -16,9 -14,-5 -16,0 -12,33 3,21 3,30 1,19 -5,-18 -6,-18 -19,5 l -15,25 7,-24 c 4,-16 3,-21 -5,-17 -6,4 -11,23 -11,42 0,26 4,34 18,34 13,0 14,-2 3,-9 -9,-6 -10,-11 -2,-15 6,-4 11,-2 11,5 0,9 3,9 14,0 16,-13 36,-93 36,-141 0,-36 -26,-41 -33,-7 -4,19 -4,19 -6,-5 -1,-19 5,-29 19,-33 15,-5 20,-15 20,-43 0,-36 0,-36 -16,-14 -9,13 -14,29 -11,36 7,17 -56,37 -74,24 -11,-8 -10,-9 4,-4 9,3 17,1 17,-4 0,-5 8,-6 17,-3 12,5 15,2 10,-9 -3,-9 3,-24 14,-34 27,-24 14,-32 -13,-8 l -23,19 19,-22 c 11,-13 25,-23 33,-23 7,0 13,-11 13,-25 0,-29 -16,-33 -25,-6 -7,24 -35,36 -35,15 0,-8 -4,-13 -9,-10 -5,4 -7,-12 -4,-36 5,-43 5,-43 -10,-16 -8,15 -18,41 -22,60 -7,30 -6,31 9,19 14,-12 16,-12 9,4 -5,15 -3,17 11,12 10,-4 15,-3 11,4 -4,5 -15,7 -26,4 -20,-7 -28,18 -9,30 6,4 4,12 -5,21 -20,20 -19,34 1,34 13,0 14,3 4,15 -23,28 -31,4 -25,-77 8,-112 33,-168 75,-168 13,0 13,1 0,10 -10,6 -11,10 -2,10 15,0 16,27 1,32 -7,2 -9,13 -4,27 l 7,23 18,-28 c 9,-16 15,-33 11,-39 -3,-5 -6,-17 -8,-25 -3,-21 -32,-40 -50,-33 -8,3 -24,24 -34,47 -10,23 -19,34 -19,25 0,-9 11,-33 25,-53 l 24,-36 h -94 c -95,0 -151,12 -140,30 3,5 21,10 38,10 18,0 49,5 70,11 l 37,10 v 62 c 0,105 12,204 22,182 6,-14 7,-10 3,14 -3,19 0,39 5,46 6,7 10,17 8,21 -3,14 41,94 53,94 6,0 7,5 4,10 -3,6 4,10 17,10 16,0 19,-3 10,-9 -11,-6 -10,-10 5,-16 32,-14 42,-14 36,2 -4,11 -8,11 -13,3 -5,-9 -9,-9 -14,-1 -4,6 -2,11 4,11 6,0 8,5 5,10 -11,17 -48,11 -73,-12 l -25,-23 12,22 c 6,12 21,29 33,37 12,9 19,19 15,22 -3,4 -19,-7 -35,-24 -40,-43 -82,-195 -89,-322 l -6,-98 -56,-5 c -31,-3 -128,-19 -216,-36 -88,-17 -167,-31 -176,-31 -13,0 -17,20 -23,122 -8,142 -13,168 -32,168 -19,0 -18,45 2,64 14,14 13,23 -6,92 -11,42 -27,89 -35,105 l -16,29 h 42 c 31,0 40,-3 36,-14 -7,-16 23,-46 45,-46 8,0 20,11 26,24 9,21 19,25 74,29 83,6 228,34 244,48 10,8 11,16 3,30 -5,10 -13,18 -18,16 -15,-4 -86,68 -86,88 0,13 -7,20 -21,21 -11,1 -29,6 -38,11 -14,8 -5,10 37,12 l 56,1 -9,-31 c -10,-34 -5,-53 11,-43 5,3 7,9 5,13 -9,14 15,96 31,109 19,14 25,14 47,6 z m 356,-19 c 0,-41 -27,-85 -53,-85 -20,0 -22,5 -22,49 0,27 1,48 3,46 2,-2 15,1 30,5 41,12 42,12 42,-15 z m -90,0 c 0,-13 -19,-15 -120,-15 -105,0 -132,5 -116,21 3,2 57,5 120,7 99,2 116,1 116,-13 z m 0,-40 c 0,-13 -24,-15 -155,-15 -90,0 -155,4 -155,9 0,13 43,18 188,19 102,2 122,0 122,-13 z m -780,-20 c 0,-12 -18,-15 -105,-15 -114,0 -146,17 -42,23 144,8 147,8 147,-8 z m 274,-35 c 19,-49 19,-50 2,-50 -7,0 -16,12 -19,28 -3,15 -9,35 -12,45 -4,9 -3,17 3,17 5,0 17,-18 26,-40 z m -489,20 c 3,-5 16,-10 28,-10 15,0 18,-3 11,-10 -12,-12 -64,6 -64,22 0,11 17,10 25,-2 z m 48,-55 c 48,-27 87,-55 87,-61 0,-6 -19,-10 -47,-9 -108,3 -111,4 -117,29 -3,13 -9,31 -12,40 -4,10 18,1 61,-25 37,-22 69,-38 71,-36 3,3 -31,26 -76,52 -44,26 -77,51 -74,56 7,12 0,15 107,-46 z m 292,35 c 24,0 39,-7 49,-22 21,-30 20,-33 -9,-46 -13,-6 -31,-28 -40,-47 -13,-33 -35,-40 -35,-12 0,7 -7,25 -15,40 -8,15 -10,25 -6,22 9,-5 22,47 17,67 -1,7 -1,10 1,6 3,-5 20,-8 38,-8 z m 115,8 c 0,-7 3,-23 6,-35 10,-36 -36,-31 -58,6 -13,23 -25,31 -55,34 -22,2 -8,4 35,5 52,2 72,-2 72,-10 z m -255,-30 c -4,-18 -9,-36 -12,-40 -9,-16 -57,-7 -104,19 -44,23 -47,27 -31,39 10,8 45,13 85,14 h 69 z m 334,-51 c 14,-6 26,-18 29,-24 3,-10 -22,-13 -100,-15 -56,-1 -85,-3 -63,-5 61,-6 61,-18 0,-18 -30,0 -50,2 -45,3 6,2 7,8 4,13 -7,13 14,39 41,49 31,13 107,11 134,-3 z M 990,1803 c 0,-19 -37,-43 -67,-43 -44,0 -42,14 5,33 40,17 62,21 62,10 z m 933,-23 c -3,-11 -12,-20 -19,-20 -8,0 -14,9 -14,20 0,13 7,20 19,20 14,0 18,-5 14,-20 z m 117,-21 c 0,-11 -4,-19 -10,-19 -5,0 -10,6 -10,14 0,8 -3,23 -7,33 -6,16 -5,16 10,4 9,-7 17,-22 17,-32 z m 270,2 c 0,-16 -69,-33 -116,-29 -24,2 -44,-1 -44,-6 0,-4 -13,-6 -30,-4 -34,5 -39,1 -10,-10 13,-5 17,-11 10,-21 -7,-12 -11,-12 -24,-2 -35,30 1,68 54,57 31,-6 102,3 96,13 -2,3 11,7 30,8 19,2 34,-1 34,-6 z m -301,-106 c 12,-30 24,-73 27,-94 5,-34 3,-40 -16,-46 -17,-5 -29,2 -59,34 -50,55 -94,57 -148,7 -32,-29 -35,-36 -24,-50 7,-9 10,-16 6,-16 -4,0 -2,-7 5,-15 17,-20 5,-32 -15,-15 -11,9 -19,10 -26,3 -7,-7 0,-12 20,-16 27,-6 31,-11 31,-38 0,-22 -4,-30 -14,-26 -10,4 -12,0 -8,-15 3,-14 1,-19 -6,-14 -7,4 -12,13 -12,20 0,8 -7,31 -16,51 -12,29 -18,35 -25,24 -13,-21 -11,-39 6,-39 8,0 17,-14 21,-35 3,-19 12,-35 19,-35 16,0 46,44 48,70 1,10 5,16 9,14 4,-3 8,0 8,6 0,6 5,8 10,5 15,-9 12,-25 -5,-25 -8,0 -15,-8 -15,-18 0,-10 -7,-28 -16,-40 -9,-13 -13,-26 -10,-29 3,-3 15,14 27,38 11,24 18,33 14,19 -22,-85 -22,-84 -61,-63 -19,11 -21,10 -21,-10 -1,-52 -4,-67 -13,-67 -5,0 -11,10 -11,23 -1,16 -2,18 -6,5 -2,-10 -11,-18 -19,-18 -9,0 -14,-11 -14,-32 0,-24 3,-29 9,-18 6,8 8,17 5,21 -2,4 1,11 7,15 7,4 9,3 6,-4 -5,-6 0,-8 13,-5 24,6 26,-10 3,-28 -11,-10 -14,-10 -9,-1 11,18 -5,14 -20,-5 -7,-10 -14,-40 -16,-68 -1,-35 -4,-23 -8,40 l -6,90 -2,-92 c -2,-77 1,-93 13,-93 9,0 15,-9 15,-25 0,-21 -8,-26 -51,-39 -45,-14 -57,-14 -107,-1 -31,8 -71,15 -90,15 -50,0 -68,14 -82,64 -7,27 -17,43 -23,39 -6,-4 -7,-1 -2,6 9,16 -23,103 -36,96 -5,-4 -6,1 -3,9 3,8 0,24 -6,37 -12,21 -11,21 21,16 93,-16 131,-18 208,-8 47,6 86,10 87,8 2,-2 -2,-37 -9,-78 l -13,-74 -61,-7 c -64,-7 -123,-31 -123,-50 0,-8 25,-9 85,-4 69,5 85,3 85,-8 0,-16 -43,-26 -108,-26 -62,0 -50,-6 28,-14 48,-5 61,-4 50,4 -12,9 -8,10 15,5 17,-3 50,1 75,10 l 45,15 -48,-4 c -46,-4 -48,-2 -43,18 4,11 16,81 28,154 21,136 33,162 70,162 18,0 19,-2 7,-17 -8,-10 -9,-14 -2,-10 8,5 11,-8 8,-50 -4,-54 -2,-53 11,5 2,13 9,20 14,17 6,-3 10,1 10,10 0,10 -5,13 -11,9 -8,-5 -10,1 -8,17 3,15 -2,31 -13,42 -12,11 -18,13 -18,4 0,-7 -13,-18 -30,-24 -24,-9 -30,-17 -30,-40 0,-15 -4,-34 -9,-41 -10,-17 -162,-27 -266,-17 -95,9 -83,24 20,26 39,1 61,4 50,6 -21,6 -398,-13 -472,-24 -61,-8 -53,-19 9,-15 43,3 51,1 41,-9 -19,-19 -16,-29 10,-28 19,0 20,1 4,8 -16,6 -17,9 -5,19 8,6 23,11 33,11 11,-1 61,2 112,6 98,8 162,-3 88,-15 l -40,-7 42,-2 c 23,0 44,-4 47,-9 2,-4 -54,-3 -125,3 -71,6 -129,7 -129,3 0,-5 16,-8 36,-8 23,0 33,-4 28,-11 -4,-8 -99,-10 -313,-8 -168,2 -360,0 -426,-3 l -120,-7 -6,-32 c -11,-49 1,-108 25,-124 27,-20 5,-19 -42,1 -33,13 -35,17 -20,28 12,9 17,31 20,84 1,40 0,72 -4,72 -5,0 -8,-31 -8,-69 0,-52 -4,-70 -15,-75 -13,-4 -15,9 -15,86 0,68 3,89 11,81 6,-6 17,-9 24,-7 7,3 31,-5 54,-16 38,-20 48,-21 123,-12 l 83,9 -96,2 c -95,1 -119,9 -119,39 0,9 6,12 16,8 8,-3 12,-2 9,3 -3,5 -30,15 -59,22 -30,6 -60,15 -66,19 -17,11 50,100 70,95 8,-3 116,-9 240,-14 333,-15 886,-13 1069,4 85,7 159,12 163,9 4,-3 8,-1 8,5 0,5 -8,12 -17,15 -15,4 -15,5 2,4 45,-1 60,2 48,10 -18,11 49,107 88,127 40,21 85,11 121,-28 16,-16 30,-28 32,-26 10,10 -51,84 -99,122 l -55,42 57,5 c 32,3 66,2 75,-2 9,-4 26,-33 37,-63 z m -1370,41 c -94,-47 -184,-128 -243,-218 -17,-26 -24,-28 -82,-28 -34,0 -66,4 -69,10 -3,5 0,7 9,4 8,-3 29,2 48,12 30,16 31,18 13,26 -17,7 -17,8 4,4 41,-8 172,117 170,163 0,10 -2,12 -6,3 -2,-6 -9,-10 -14,-6 -5,3 -9,-5 -10,-18 0,-22 -1,-22 -9,-3 -7,17 -9,15 -9,-11 -1,-34 -9,-47 -23,-38 -5,3 -4,12 3,20 9,11 8,15 -6,20 -11,5 -26,-2 -43,-19 -24,-24 -25,-28 -12,-52 12,-23 12,-28 0,-35 -8,-6 -27,-10 -42,-10 h -27 l 21,37 c 53,88 122,126 273,149 108,16 106,16 54,-10 z m 1176,-6 c 29,-30 29,-31 10,-50 -22,-21 -30,-18 -63,24 -17,22 -19,32 -11,42 17,21 32,17 64,-16 z m 44,0 c 19,-16 32,-32 29,-36 -9,-8 -39,10 -67,40 -34,36 -5,33 38,-4 z m 79,-64 c 16,-18 16,-18 -8,-5 -14,7 -42,12 -63,11 -21,-1 -35,3 -32,7 9,16 84,6 103,-13 z m -1525,-8 c -4,-7 -6,-21 -5,-31 3,-13 -2,-16 -20,-13 -23,4 -26,20 -6,43 14,17 42,17 31,1 z m 1516,-53 c 16,-8 31,-21 35,-30 4,-13 -1,-12 -32,4 -20,11 -48,24 -62,30 l -25,10 h 28 c 15,1 41,-6 56,-14 z m 9,-40 c 43,-29 68,-66 94,-144 17,-50 18,-30 2,27 -4,12 -2,22 4,22 16,0 23,-46 18,-133 -3,-52 -2,-65 2,-37 6,38 8,29 13,-60 7,-108 3,-120 -33,-120 -15,0 -16,4 -8,26 17,44 29,104 19,98 -5,-3 -9,-14 -9,-24 0,-11 -9,-44 -20,-74 -28,-74 -89,-130 -159,-145 -75,-16 -212,-14 -235,4 -21,16 -19,17 49,32 29,6 41,14 45,32 5,22 6,22 19,7 37,-45 117,-59 170,-31 31,16 101,92 101,109 0,6 -8,-1 -18,-17 -26,-39 -34,-22 -10,20 15,24 23,31 29,22 9,-15 23,50 16,78 -3,10 -5,1 -6,-20 0,-21 -5,-36 -10,-33 -4,3 -7,18 -5,33 4,28 3,28 -5,3 -7,-21 -9,-22 -15,-8 -11,24 -3,53 14,53 22,0 30,16 28,55 0,22 -2,27 -5,13 -4,-21 -30,-50 -37,-42 -2,2 -6,20 -9,41 -4,30 -2,37 13,41 16,4 18,0 15,-27 l -5,-31 10,30 c 11,34 4,69 -12,59 -6,-4 -8,1 -4,13 4,12 1,25 -8,32 -17,15 -28,1 -15,-19 13,-22 11,-33 -6,-26 -8,3 -15,1 -15,-4 0,-6 10,-10 23,-10 16,0 12,-5 -19,-19 -23,-10 -45,-24 -49,-31 -6,-9 -10,-9 -16,1 -13,21 -11,32 7,25 8,-3 12,-2 9,4 -3,5 -2,17 3,26 6,11 11,13 16,5 4,-6 2,-11 -4,-11 -6,0 -9,-4 -5,-10 3,-5 12,-7 20,-4 8,4 13,10 10,14 -3,5 1,27 9,50 14,40 14,41 -18,65 -25,19 -40,23 -76,20 -40,-4 -41,-3 -15,5 26,8 25,9 -12,5 -47,-6 -52,-1 -26,28 23,24 79,17 131,-18 z m 719,-57 c -13,-39 -18,-35 -13,10 3,20 5,44 6,52 1,8 5,4 9,-10 4,-14 3,-37 -2,-52 z m -634,8 -6,-29 -13,24 c -11,21 -10,25 4,30 22,8 21,9 15,-25 z m -159,8 c 9,-3 13,-11 10,-16 -4,-6 -10,-5 -15,3 -5,8 -9,9 -9,3 0,-6 7,-17 15,-24 12,-10 15,-10 15,0 0,10 3,10 16,0 18,-16 41,-55 26,-46 -5,3 -12,-1 -16,-9 -3,-8 -15,-15 -27,-15 -17,0 -20,4 -15,24 4,15 0,28 -9,36 -8,7 -15,9 -15,4 0,-14 -20,19 -20,34 0,13 19,16 44,6 z m 101,-184 c 0,-28 -4,-35 -28,-41 -21,-6 -30,-4 -34,8 -5,12 -7,12 -14,2 -13,-22 9,-39 38,-28 28,10 43,5 43,-17 0,-8 -5,-12 -10,-9 -6,4 -7,12 -3,18 4,7 0,7 -10,-1 -15,-13 -14,-16 13,-38 18,-15 27,-32 25,-44 -6,-31 -25,-61 -35,-55 -5,3 -1,21 10,40 11,20 15,37 10,40 -6,4 -10,2 -10,-4 0,-5 -5,-22 -10,-37 -10,-25 -11,-26 -30,-9 -15,14 -17,21 -8,41 9,18 17,23 32,18 20,-5 20,-5 -2,11 -12,9 -19,21 -16,27 4,7 -2,8 -17,3 -26,-8 -70,-55 -62,-67 2,-5 -1,-8 -7,-8 -6,0 -8,-4 -5,-10 3,-5 1,-18 -5,-27 -9,-15 -10,-11 -6,19 2,21 1,37 -3,35 -5,-1 -18,9 -29,23 l -22,25 13,-27 c 6,-16 15,-28 20,-28 4,0 7,-9 7,-20 0,-11 -5,-20 -11,-20 -5,0 -7,6 -4,13 4,6 -3,1 -14,-13 l -21,-25 10,28 c 7,19 7,35 0,47 -11,21 -2,80 12,80 6,0 8,-7 4,-15 -3,-8 -1,-15 5,-15 5,0 14,-10 19,-22 5,-14 9,-17 10,-8 0,13 1,13 10,0 8,-13 10,-12 10,3 0,10 4,16 9,12 5,-3 12,3 15,12 8,26 14,85 8,78 -6,-6 -32,14 -32,26 0,17 29,9 44,-13 14,-20 16,-20 22,-4 6,16 9,14 21,-10 l 13,-29 -5,28 c -3,15 -3,32 1,38 12,20 29,2 29,-31 z m -1715,10 c 13,-9 13,-10 0,-11 -25,-2 -44,2 -54,12 -13,12 35,12 54,-1 z m 1600,-35 c 18,-22 -15,-72 -36,-54 -14,12 -19,51 -7,62 11,11 30,8 43,-8 z m -550,-35 c 0,-5 -17,-10 -37,-10 -21,0 -150,-5 -288,-11 -260,-11 -617,-2 -470,12 100,9 287,10 282,2 -6,-9 421,2 430,11 10,10 83,7 83,-4 z M 300,1185 c 0,-20 7,-51 14,-70 13,-31 19,-35 48,-34 29,2 30,2 6,6 -36,6 -46,20 -54,82 l -7,54 54,-7 c 30,-3 169,-11 309,-16 347,-14 338,-12 362,-67 32,-72 31,-73 -154,-75 l -163,-2 145,-7 c 105,-4 78,-5 -95,-3 -256,4 -434,18 -475,37 -22,11 -25,19 -28,75 -3,57 -1,62 18,62 16,0 20,-6 20,-35 z m 1032,-39 c 15,-37 26,-72 23,-76 -6,-10 -37,-15 -190,-35 -120,-16 -388,-20 -590,-9 -189,10 -107,14 146,7 140,-3 271,-3 292,1 50,9 61,32 41,90 -20,59 -45,75 -114,78 -72,3 170,14 279,14 l 84,-1 z m 578,45 c 0,-11 -5,-23 -11,-26 -6,-4 -8,-13 -5,-21 3,-8 1,-14 -4,-14 -5,0 -7,-28 -5,-65 l 4,-65 h -29 c -17,0 -30,5 -30,10 0,10 14,14 38,11 13,-2 15,39 2,79 -7,23 -8,23 -9,3 -1,-12 -4,-23 -8,-26 -5,-2 -2,-2 5,-1 6,2 12,-5 12,-16 0,-15 -7,-20 -24,-20 -19,0 -24,5 -24,23 1,12 9,33 18,47 9,14 16,32 15,40 -1,20 18,32 28,17 4,-7 5,0 1,16 -5,21 -3,27 10,27 9,0 16,-8 16,-19 z m 650,9 c 0,-16 -81,-33 -105,-22 -14,6 -40,7 -74,0 -29,-5 -58,-7 -64,-5 -14,4 161,34 211,36 17,1 32,-3 32,-9 z m -796,-36 c 9,-23 8,-24 -16,-25 -17,-1 -19,-2 -5,-6 19,-5 21,-12 8,-32 -5,-8 -14,-10 -22,-5 -11,6 -11,5 0,-9 8,-10 11,-20 7,-24 -21,-22 -30,62 -10,95 17,26 29,28 38,6 z m 671,7 c -6,-4 -73,-20 -150,-35 -77,-15 -149,-30 -160,-32 -20,-5 -20,-5 -1,10 16,13 17,16 4,16 -8,0 -20,-10 -26,-22 -11,-23 -11,-23 -11,3 -1,25 3,26 92,42 52,10 107,15 123,12 16,-3 49,-1 74,4 62,12 66,12 55,2 z m -835,-66 c 0,-10 -10,-15 -34,-15 -18,0 -55,-3 -82,-6 -59,-8 -51,10 11,25 64,15 105,13 105,-4 z m 209,-37 c -1,-24 -4,-33 -6,-20 -2,12 -9,22 -14,22 -6,0 -7,-4 -4,-10 10,-17 -12,-11 -26,7 -8,9 -9,14 -3,10 6,-3 17,3 24,14 22,30 30,23 29,-23 z m 131,2 c 0,-5 -8,-14 -17,-19 -10,-6 -13,-11 -7,-11 6,0 17,7 24,15 14,16 35,21 25,5 -3,-5 -19,-18 -35,-30 l -29,-21 1,23 c 2,25 15,48 29,48 5,0 9,-4 9,-10 z m -549,-40 c 5,0 9,-4 9,-10 0,-6 -54,-9 -147,-8 l -148,2 130,6 c 94,4 112,7 65,9 l -65,3 60,10 c 33,5 65,14 70,19 7,7 11,3 13,-10 2,-12 8,-21 13,-21 z m 397,1 c 12,-11 22,-22 22,-25 0,-9 -57,21 -65,34 -10,17 19,10 43,-9 z"
       id="path1" />
    <path
       d="m 1616,1741 c -4,-5 -30,-13 -59,-17 -28,-4 -44,-9 -34,-12 10,-2 59,3 110,12 51,9 108,17 127,19 19,2 -4,5 -52,5 -48,1 -89,-2 -92,-7 z"
       id="path2" />
    <path
       d="m 1625,1710 -40,-7 h 40 c 22,-1 54,3 70,7 l 30,8 -30,-1 c -16,0 -48,-3 -70,-7 z"
       id="path3" />
    <path
       d="m 728,1697 c -7,-8 -18,-12 -23,-10 -6,2 -33,-11 -60,-29 -27,-18 -55,-37 -64,-43 -19,-13 -50,-48 -51,-57 0,-5 41,-8 90,-8 h 91 l 96,61 c 52,34 109,67 127,75 l 31,15 -50,-4 c -29,-2 -78,-17 -116,-35 -37,-18 -76,-32 -88,-32 -21,0 -21,1 -4,26 9,15 31,33 48,40 25,11 26,13 8,14 -12,0 -28,-6 -35,-13 z m 119,-47 c -37,-21 -81,-49 -98,-61 -24,-17 -50,-23 -122,-27 l -92,-5 27,22 c 32,26 74,27 102,4 12,-10 18,-14 14,-9 -4,5 0,15 10,23 15,13 15,13 -7,7 -17,-4 -21,-3 -16,6 4,6 17,9 30,6 15,-4 45,5 82,22 135,65 171,72 70,12 z m -157,0 c -21,-29 -57,-46 -81,-38 -11,4 77,68 94,68 5,0 -1,-13 -13,-30 z"
       id="path4" />
    <path
       d="m 1080,1687 c -109,-47 -230,-115 -230,-129 0,-5 54,-8 120,-8 119,0 120,0 212,42 51,23 134,55 183,72 l 91,31 -71,2 c -38,1 -110,4 -160,7 -80,5 -96,3 -145,-17 z m 213,2 h 102 l -77,-28 c -61,-22 -88,-27 -136,-23 l -61,4 22,29 c 12,17 27,27 35,24 7,-3 59,-5 115,-6 z m -165,-8 c 10,-6 10,-10 -3,-21 -26,-22 -17,-30 35,-30 60,0 64,-11 12,-32 -35,-14 -40,-13 -59,1 -23,19 -24,58 -2,72 23,14 5,10 -29,-7 -18,-8 -32,-20 -32,-25 0,-6 -4,-8 -9,-5 -14,9 -42,-5 -34,-17 3,-5 1,-7 -5,-3 -12,7 -62,-13 -62,-25 0,-5 -8,-5 -17,-2 -13,5 10,20 82,55 112,53 105,51 123,39 z m -19,-95 c 9,-11 6,-15 -15,-20 -37,-10 -217,-4 -202,6 7,4 20,6 28,3 8,-2 26,2 40,10 33,19 134,20 149,1 z"
       id="path5" />
    <path
       d="m 1483,1703 c 9,-2 17,-9 17,-14 0,-6 -4,-8 -8,-5 -13,8 -103,-29 -95,-39 5,-4 0,-5 -9,-2 -10,3 -17,3 -15,-2 1,-4 -12,-20 -29,-34 -62,-52 -77,-132 -29,-151 72,-27 210,23 265,97 31,43 40,93 18,115 -16,16 -33,16 -21,0 25,-32 21,-58 -15,-105 -20,-26 -38,-41 -40,-35 -2,7 -8,9 -13,6 -6,-3 -22,-3 -37,1 l -27,8 25,6 c 16,4 26,15 28,29 5,31 32,28 32,-4 0,-14 4,-23 10,-19 6,3 10,24 10,45 0,21 4,41 8,44 5,3 7,-9 5,-27 l -3,-32 10,29 c 9,29 -4,65 -19,50 -6,-6 -7,-11 -10,-39 0,-8 -10,-15 -21,-15 -22,0 -27,15 -7,23 6,3 -4,3 -23,0 -19,-3 -44,-13 -54,-22 -18,-15 -18,-15 -7,7 17,33 56,55 83,47 18,-5 20,-4 8,4 -12,8 -8,11 17,11 17,0 35,5 39,11 5,9 -3,10 -29,5 -21,-4 -38,-2 -42,4 -3,5 -14,9 -23,9 -15,-1 -15,-2 1,-6 z m -53,-71 c -20,-27 -21,-31 -6,-65 14,-35 50,-55 84,-49 28,6 8,-11 -40,-33 -88,-41 -169,-30 -167,23 1,27 1,27 8,3 6,-24 31,-42 31,-23 0,6 8,9 18,7 62,-13 82,-14 77,-5 -3,5 1,7 9,4 8,-3 23,-1 33,6 15,9 10,10 -24,7 l -43,-5 -2,41 -1,42 -4,-37 c -4,-32 -8,-38 -28,-38 -13,0 -30,-3 -39,-6 -29,-11 -18,43 16,82 27,30 83,74 96,74 1,0 -7,-13 -18,-28 z m 50,-54 c 0,-13 -8,-18 -25,-18 -22,0 -34,18 -20,31 12,13 45,3 45,-13 z"
       id="path6" />
    <path
       d="m 683,1498 c -18,-30 -11,-38 18,-21 20,12 25,19 16,25 -17,11 -25,10 -34,-4 z"
       id="path7" />
    <path
       d="m 2377,1706 c 57,-64 57,-117 1,-115 l -33,1 33,10 c 35,12 43,28 14,28 -28,0 -56,-25 -49,-44 7,-18 39,-21 67,-6 18,10 19,7 13,-42 -7,-69 -48,-193 -78,-240 -27,-40 -71,-59 -187,-79 -38,-6 -68,-13 -68,-16 0,-10 113,9 177,28 75,24 98,52 138,173 27,82 36,173 22,238 -8,36 -7,37 30,47 50,14 75,14 51,0 -15,-8 -18,-25 -18,-99 0,-52 4,-92 11,-95 18,-12 56,34 68,80 27,107 7,141 -77,132 -29,-3 -60,-11 -67,-17 -11,-9 -16,-7 -25,9 -6,11 -20,26 -33,32 -17,10 -15,5 10,-25 z m 177,-82 c -2,-53 -28,-119 -44,-109 -6,4 -8,16 -6,28 3,12 8,48 11,80 5,47 10,58 23,55 13,-3 17,-14 16,-54 z"
       id="path8" />
    <path
       d="m 2593,1340 c 0,-36 2,-50 4,-32 2,17 2,47 0,65 -2,17 -4,3 -4,-33 z"
       id="path9" />
    <path
       d="m 298,1342 c -15,-3 -15,-5 3,-23 21,-21 36,-24 41,-8 4,11 583,14 616,2 14,-5 15,-3 5,7 -9,10 -70,14 -250,17 -131,2 -274,4 -318,6 -44,1 -88,1 -97,-1 z"
       id="path10" />
    <path
       d="m 637,1223 c 24,-2 62,-2 86,0 23,2 4,4 -43,4 -47,0 -66,-2 -43,-4 z"
       id="path11" />
    <path
       d="m 568,1063 c 29,-2 74,-2 100,0 26,2 2,3 -53,3 -55,0 -76,-1 -47,-3 z"
       id="path12" />
    <path
       d="m 2200,1147 c -30,-5 -50,-11 -45,-13 6,-2 42,2 80,10 39,7 59,14 45,14 -14,0 -50,-5 -80,-11 z"
       id="path13" />
  </g>
</svg>
