<?xml version="1.0" encoding="UTF-8" standalone="no"?>
<svg
   version="1.0"
   width="300.000000pt"
   height="312.000000pt"
   viewBox="0 0 300.000000 312.000000"
   preserveAspectRatio="xMidYMid meet"
   id="svg27"
   sodipodi:docname="crimson_moon.svg"
   inkscape:version="1.4 (86a8ad7, 2024-10-11)"
   xmlns:inkscape="http://www.inkscape.org/namespaces/inkscape"
   xmlns:sodipodi="http://sodipodi.sourceforge.net/DTD/sodipodi-0.dtd"
   xmlns="http://www.w3.org/2000/svg"
   xmlns:svg="http://www.w3.org/2000/svg">
  <defs
     id="defs27" />
  <sodipodi:namedview
     id="namedview27"
     pagecolor="#ffffff"
     bordercolor="#000000"
     borderopacity="0.25"
     inkscape:showpageshadow="2"
     inkscape:pageopacity="0.0"
     inkscape:pagecheckerboard="0"
     inkscape:deskcolor="#d1d1d1"
     inkscape:document-units="pt"
     inkscape:zoom="2.0024038"
     inkscape:cx="51.438175"
     inkscape:cy="176.53782"
     inkscape:window-width="1920"
     inkscape:window-height="1051"
     inkscape:window-x="-9"
     inkscape:window-y="-9"
     inkscape:window-maximized="1"
     inkscape:current-layer="svg27" />
  <metadata
     id="metadata1">
Created by potrace 1.10, written by Peter Selinger 2001-2011
</metadata>
  <g
     transform="matrix(0.03228952,0,0,-0.03145299,62.175273,184.27982)"
     fill="#000000"
     stroke="none"
     id="g27">
    <path
       id="path1"
       d="m -939.7852,5846.5895 c -3.9375,0.9024 -6.3467,-49.2949 -7.2217,-138.5449 -1,-90 -2.0029,-177.0039 -3.0029,-194.0039 0,-16 2.0059,-101.002 6.0059,-187.002 l 6.0058,-157.0019 -23.0127,5.0098 -23.9941,4.9951 22.998,-10.0049 c 13,-6 22.002,-18.9922 22.002,-31.9922 v -22.0019 l -22.002,19.9951 c -34,30 -83.0019,42.997 -157.0019,41.997 -58,-1 -61.9961,-2.9902 -30.9961,-9.9902 29,-7 25.9971,-6.999 -18.0029,-3.999 -38,3 -70.003,-2.0108 -108.003,-16.0108 -31,-12 -53.9873,-22.9902 -51.9873,-24.9902 2,-2 27.9864,4.9961 55.9864,15.9961 73,28 89.0058,25.001 21.0058,-3.999 -93,-38 -183.9961,-105.0069 -165.9961,-122.0069 8,-8 53.9981,28.001 52.9981,41.001 -1,6 10.997,11.0078 26.997,13.0078 l 26.9971,3.003 -22.0019,-45 c -12,-25 -23.9864,-44.001 -25.9864,-41.001 -3,2 -25.0136,-12.0069 -49.0136,-32.0069 -25,-21 -53.9952,-38.0048 -64.9952,-40.0048 -27,-4 -115.0009,-51.9864 -131.0009,-70.9864 -10,-13 -9.003,-14.0029 11.997,-3.0029 27,15 24.0069,4.9912 -12.9931,-39.0088 -11,-14 -14.0059,-18.9971 -6.0059,-11.9971 27,24 30.0059,11.9952 6.0059,-25.0048 -14,-21 -27.9961,-50.9981 -30.9961,-67.9981 -6,-29 -5.0108,-28.998 13.9892,7.002 25,45 46.0059,60.997 36.0059,26.997 -4,-13 -11,-29.998 -15,-37.998 -4,-7 -5.0068,-34 -2.0068,-60 3,-26 1.0009,-41.9981 -3.9991,-37.9981 -9,9 -9.9931,11.9952 -12.9931,49.9952 -2,21 -3.0049,21.0068 -10.0049,2.0068 -7,-18 -19.9922,-20.0049 -151.9922,-25.0049 l -144.0088,-5.9912 144.0088,-2.0068 142.998,-1.9922 -6.0058,-52.002 c -4,-35 -2.002,-67.998 7.998,-97.998 13,-42 14.0069,-43 17.0069,-15 1,17 1,38.999 0,48.999 -1,11 0.9951,16.9932 4.9951,12.9932 4,-3 17,15.0009 30,41.0009 39,79 125.0068,169.002 92.0068,97.002 -6,-14 -16.0058,-25.0049 -21.0058,-25.0049 -5,0 -6.9991,-8.999 -3.9991,-18.999 2,-10 0,-24.9922 -4.9951,-31.9922 -7,-10 -7.999,-9.0088 -3.999,5.9912 10,35 -27.0107,-22.9971 -46.0107,-71.9971 -14,-38 -13.9961,-44.0019 -0.9961,-52.0019 13,-7 13.0068,-11.9922 2.0068,-31.9922 -7,-13 -14.0107,-32.001 -16.0107,-41.001 -1,-10 -3.9952,-23.0039 -4.9952,-29.0039 -2,-6 3.9971,-13.9961 11.9971,-15.9961 11,-3 11.0029,-2.0009 3.0029,3.9991 -9,7 -5.9921,19.0029 13.0079,48.0029 14,22 22.999,30.9951 18.999,19.9951 -19,-60 -12.0098,-71 9.9902,-15 16,41 22,65.998 15,67.998 -8,3 -8,8.0069 0,17.0069 7,8 7.0068,15.999 2.0068,18.999 -6,3 -11.996,-1.0088 -15.996,-9.0088 -3,-8 -10,-15 -15,-15 -10,0 2,67.0029 15,78.0029 4,4 4.996,0.01 0.996,-8.9941 -3,-11 3.003,-21.0039 18.003,-29.0039 28,-15 38.997,-37.9941 26.997,-53.9941 -11,-15 -63.0019,-137.0127 -67.0019,-158.0127 -2,-11 1.9971,-17.9883 11.9971,-17.9883 10,0 13.0088,-5.0069 9.0088,-17.0069 -4,-10 -4,-14.0009 0,-11.0009 4,4 26.998,-19.9903 52.998,-54.9903 25,-34 56.9902,-67.0039 69.9902,-74.0039 14,-6 30.002,-22.0097 37.002,-35.0097 12,-21 13.0039,-20.9883 14.0039,-2.9883 0,18 1.9971,16.998 26.9971,-7.002 22,-22 26.0049,-35.0088 25.0049,-69.0088 -2,-22 0.9912,-37.9951 5.9912,-34.9951 15,9 44.0029,-30.001 63.0029,-86.001 10,-29 17.999,-42.9922 18.999,-31.9922 0,25 -39.9941,125.9962 -53.9941,135.9962 -6,4 -14.003,3.9921 -18.003,1.9921 -4,-3 -7.998,4 -7.998,15 0,29 39.9941,27.0118 68.9941,-2.9882 12,-13 42.0059,-29.0098 66.0059,-35.0098 66,-17 84.9941,-13.002 38.9941,7.998 -51,23 -60.9931,45 -27.9931,60 36,16 40.0029,14.0098 18.0029,-9.9902 -19,-22 -19.0059,-22 8.9941,-15 22,5 32.0059,1.001 51.0059,-18.999 14,-15 35.002,-25.001 52.002,-26.001 29,-1 28.999,-1.0088 3.999,-9.0088 -22,-7 -21.0069,-7.9941 12.9931,-8.9941 42,-1 45.0069,-6.001 17.0069,-41.001 -11,-14 -34.0098,-44.002 -50.0098,-67.002 -21,-30 -40.9902,-44.9941 -69.9902,-53.9941 -22,-7 -38.0059,-14.0108 -36.0059,-16.0108 10,-10 89,23.0079 105,43.0079 10,13 20.002,21.9951 22.002,19.9951 2,-1 16.999,13.0029 33.999,33.0029 19,23 21.002,29.0068 7.002,17.0068 -12,-11 -22.002,-15.0088 -22.002,-9.0088 0,13 53.998,63.003 67.998,63.003 11,0 17.0079,-60.9951 13.0079,-154.9951 0,-19 -1.0108,-46 -1.0108,-60 v -55.0049 c 1,-16 0,-38.0069 0,-47.0069 -2,-44 12.0108,-497.9873 16.0108,-501.9873 5,-5 8.9912,393.9873 5.9912,666.9873 -2,192.0001 -2.001,193.004 18.999,179.004 18,-13 28.0019,-12.001 82.0019,3.999 34,10 69.9991,18.999 78.9991,18.999 9,0 18.0097,5.0049 20.0097,10.0049 2,6 20.9971,16.9941 41.9971,23.9941 l 37.9981,13.0079 -33.9991,7.0019 c -29,7 -31.0078,8.9961 -13.0078,15.9961 28,12 43.0049,12 25.0049,0 -11,-7 -6.9971,-10.0049 18.0029,-10.0049 23,0 32.0039,4.0078 29.0039,13.0078 -2,7 16,21.003 45,33.003 36,15 57.9981,33.9902 82.9981,69.9902 44,63 86.9883,144.0088 77.9883,144.0088 -5,0 -15.9864,-18.0088 -25.9864,-39.0088 -9,-21 -34.0048,-49.0029 -55.0048,-63.0029 -20,-13 -35.9952,-29.9912 -34.9952,-35.9912 3,-14 -49.0039,-47.9971 -134.0039,-86.9971 -34,-15 -59.997,-32.0059 -56.997,-36.0059 6,-10 -11.002,-20.0039 -52.002,-29.0039 -19,-5 -32.0078,-3.9892 -28.0078,1.0108 10,17 -8.002,9 -37.002,-15 -2.5933,-2.2822 -4.4131,-3.4457 -6.6796,-5.2881 l -42.3194,11.2793 -45,13.0078 -1.9922,189.9902 c -2,211 -6.999,300.0039 -18.999,329.0039 -5,14 -2.0107,22.999 13.9893,33.999 12,8 22.0019,19.0088 22.0019,24.0088 0,6 -7.9922,3.9971 -16.9922,-3.0029 -15,-12 -16.0049,-11.9971 -10.0049,3.0029 3,10 3.0079,19.9873 -1.9921,21.9873 -6,4 -8.0108,61.0108 -1.0108,61.0108 1,0 3.0059,9.998 6.0059,22.998 2,14 -0.006,20.9922 -6.0059,16.9922 -5,-3 -9.9902,-2.001 -9.9902,3.999 0,5 5.9931,12.0039 12.9931,14.0039 8,4 8.0069,8.004 2.0069,14.004 -15,12 -17.0098,33.0029 -5.0098,48.0029 6,7 9.9981,31.0019 7.9981,52.0019 -2,26 1.0048,36.9912 10.0048,35.9912 6,-2 11.9971,1.9981 11.9971,7.9981 0,6 -7.999,7.999 -18.999,3.999 -14,-4 -17.9961,-0.9931 -15.9961,17.0069 1,13 2.999,51.0009 3.999,86.0009 l 0.9961,61.9922 33.0029,1.0108 32.0069,0.9961 -29.0039,7.0019 c -21,4 -32.002,13.999 -37.002,33.999 -7,27 3.0069,36.9961 17.0069,15.9961 6,-11 45.9882,-30.0039 92.9882,-44.0039 16,-5 21.0069,-4.001 17.0069,3.999 -9,14 -10.0059,14.0098 53.9941,-9.9902 30,-12 62.0049,-22.0088 70.0049,-24.0088 32,-7 106.0039,-42.9892 119.0039,-58.9892 26,-32 31.9912,-15.001 5.9912,18.999 -15,19 -29.9883,33.9883 -32.9883,32.9883 -4,-1 -26.0097,8.0097 -50.0097,20.0097 -23,13 -45.9912,21.003 -50.9912,18.003 -4,-3 -8.0127,0.9941 -8.0127,8.9941 0,22 19.0117,17.9951 57.0117,-10.0049 39,-29 47.9892,-31.998 28.9892,-7.998 -8,9 -32.997,25.0097 -56.997,35.0097 -45,20 -70.9912,15.9873 -50.9912,-8.0127 7,-9 7.9961,-13.9892 0.9961,-13.9892 -6,0 -12.004,2.998 -14.004,7.998 -1,4 -20.9931,14.9903 -42.9931,24.9903 -34,15 -37.0098,15.0107 -20.0098,1.0107 19,-15 18.001,-16.0088 -18.999,-9.0088 -58,10 -125.9912,46.002 -125.9912,67.002 0,10 5.9931,18.0029 12.9931,18.0029 8,0 8.9961,1.998 0.9961,7.998 -8,5 -11.9931,95.002 -12.9931,307.002 0,165 -4.9942,313.0039 -8.9942,329.0039 -0.625,2.25 -1.2246,3.416 -1.7871,3.5449 z m 160.7813,-577.5439 c -3,0 20.9941,-27 53.9941,-60 33,-33 61.999,-60 63.999,-60 3,0 -20.9941,27 -53.9941,60 -33,33 -61.999,60 -63.999,60 z m -92.1826,-41.6748 c -11.6079,-0.1143 -20.3184,-2.6475 -23.8184,-8.335 -4,-6 8.9961,-9.9902 30.9961,-9.9902 22,0 55.0019,-11.001 82.0019,-26.001 26,-15 43.0049,-21.0078 40.0049,-13.0078 -9.375,27.3437 -87.7279,57.7422 -129.1845,57.334 z m -243.8233,-21.3281 c -38,0 -54.998,-1.9991 -37.998,-3.9991 18,-2 50.0049,-2 70.0049,0 21,2 6.9931,3.9991 -32.0069,3.9991 z m 270,-26.9971 c -17,-1 -17.9951,-2.0078 -4.9951,-13.0078 8,-7 21.0039,-18.9971 29.0039,-26.9971 12,-13 12.9981,-12.9971 7.9981,3.0029 -6,15 -3.004,16.9971 15.996,11.9971 12,-4 33,-14.002 45,-22.002 13,-8 26.004,-11.9941 29.004,-8.9941 8,8 -98.0069,56.001 -122.0069,56.001 z m -260.4931,-31.875 c 25.25,0.125 47.498,-2.6299 60.498,-8.1299 24,-10 9.0049,-14.001 -49.9951,-11.001 -54,3 -132.0108,-15.9941 -166.0108,-38.9941 -29,-22 -38.9941,-24.0117 -38.9941,-12.0117 0,13 73.001,51.0107 116.001,61.0107 25,6 53.251,9.001 78.501,9.126 z m -24.5069,-39.126 h 45 l -46.9922,-13.0078 c -26,-7 -64.0049,-23.9981 -85.0049,-37.9981 -49,-33 -82.998,-44.0009 -82.998,-26.0009 0,35 93.9951,77.0068 169.9951,77.0068 z M -975,5096.0475 c 39,0 38.998,-0.01 -7.002,-6.0058 -26,-4 -50.0088,-10.0039 -54.0088,-14.0039 -4,-4 6.0127,-3.9961 23.0127,-0.9961 18,3 32.9873,1.0049 36.9873,-4.9951 4,-6 2.0049,-11.001 -4.9951,-11.001 -7,0 -10.0019,-3.0059 -7.0019,-6.0059 4,-3 16.0078,0.01 28.0078,6.0059 l 22.998,11.9971 -5.0097,-86.001 c -2,-48 -8.9893,-91.0059 -13.9893,-96.0059 -12,-12 -6.0088,-69.9902 5.9912,-69.9902 10,0 -10e-4,-93.9981 -11.001,-97.9981 -4,-2 -5.9882,-9.0068 -2.9882,-17.0068 3,-7 -0.01,-15.9951 -5.0098,-19.9951 -6,-3 -8.9912,-11.0108 -5.9912,-16.0108 3,-5 -2.0117,-17.9931 -12.0117,-27.9931 -19,-21 -66.9952,-23.9981 -304.9952,-22.9981 -48,1 -90.0029,-2.998 -93.0029,-7.998 -6,-9 41.0108,-11.0039 316.0108,-14.0039 70,-1 104.9882,-19.9951 92.9882,-49.9951 -4,-12 -1.9912,-15.001 9.0088,-11.001 11,5 13.9971,19.9931 11.9971,57.9931 -1,29 0.007,43.9952 2.0068,34.9952 3,-10 9,-17.9883 15,-17.9883 11,0 0.9922,-60.0039 -13.0078,-74.0039 -12,-13 -12,-29.0059 0,-21.0059 18,10 23.002,-15.999 7.002,-33.999 -9,-10 -16,-26.002 -15,-37.002 0,-16 1.997,-14.9941 11.997,6.0059 11,24 11,24.0068 15,-12.9932 2,-21 -1.998,-45.0019 -7.998,-52.0019 -7,-8 -8.9951,-19.001 -4.9951,-26.001 6,-8 9.9922,-7.0078 16.9922,1.9922 6,9 7.0068,2.0088 2.0068,-20.9912 -4,-19 -7.0059,-44.0049 -6.0059,-55.0049 4,-44 6.9991,-274.9951 3.9991,-274.9951 -2,0 -12.9903,5.001 -24.9903,11.001 -15,7 -13.0019,2 7.9981,-15 43,-37 20.999,-32.0049 -26.001,4.9951 -21,17 -39.0088,27.0019 -39.0088,22.0019 -1,-4 -12.001,6.002 -26.001,22.002 -28,32 -22.9873,17.9922 8.0127,-28.0078 14,-19 15.9912,-26.9971 5.9912,-26.9971 -7,0 -21,14 -30,30 -9,17 -23,30 -30,30 -7,0 -17.998,10.002 -22.998,22.002 -6,12 -30.0049,33 -55.0049,45 -25,13 -53.9951,36.9941 -64.9951,53.9941 -11,17 -29.0049,35.001 -40.0049,41.001 -18,10 -17.9971,7.9961 3.0029,-14.0039 12,-13 22.002,-27.9922 22.002,-31.9922 0,-12 -48.9951,27.997 -49.9951,41.997 0,6 -4.0088,11.9971 -9.0088,11.9971 -14,0 -20.9941,43.0117 -8.9941,57.0117 9,11 18.9951,6.9912 49.9951,-24.0088 21,-20 37.998,-42.0029 37.998,-48.0029 0,-5 10.0059,-20.9951 21.0059,-34.9951 13,-15 19,-17.998 15,-7.998 -3,12 -0.9951,15.0009 10.0049,11.0009 7,-3 13.9892,-7.997 13.9892,-11.997 0,-4 16.0098,-13.0059 35.0098,-21.0059 19,-8 34.9951,-17.9941 34.9951,-23.9941 0,-5 3.0059,-7.003 6.0059,-3.003 4,3 24.9882,-8.997 47.9882,-26.997 22,-18 55.001,-41.0059 71.001,-51.0059 22,-13 19.0069,-8.0049 -12.9931,19.9951 -23,20 -39.0059,42.0069 -36.0059,47.0069 4,6 3.0078,8.9951 -1.9922,4.9951 -5,-3 -40.999,14.0088 -78.999,39.0088 -39,24 -76.002,43.9892 -82.002,43.9892 -16,0 -43.0078,51.9981 -43.0078,82.9981 0,35 -73.9941,137.0068 -98.9941,137.0068 -12,0 -45.002,71.998 -52.002,112.998 -6,35 -6.9951,30.9952 -4.9951,-25.0048 0,-38 3.9981,-67.9981 7.9981,-67.9981 4,0 12.0029,-18.9971 18.0029,-41.9971 6,-24 19.9961,-55.0048 30.9961,-70.0048 25,-35 6.0029,-47.9922 -26.9971,-16.9922 -13,12 -24.0088,25.9961 -24.0088,30.9961 0,5 -3.9902,14.0058 -9.9902,21.0058 -47,57 -60,76.001 -60,86.001 0,6 -4.0049,11.001 -10.0049,11.001 -5,0 -10.0049,3.9902 -10.0049,9.9902 0,5 7.0108,7.0029 16.0108,3.0029 13,-5 14.9873,-1.9921 6.9873,13.0079 -13,28 -9.9981,52.9951 7.0019,64.9951 12,8 12.001,9.0019 -3.999,7.0019 -17,-3 -18.999,4.9981 -18.999,82.9981 -1,85 -1.0039,86.001 45.9961,161.001 26,42 77.0088,103.999 114.0088,138.999 56,52 61,59.001 30,41.001 -44,-25 -51.001,-27.0088 -41.001,-9.0088 4,7 2.9931,9.0136 -2.0069,4.0136 -5,-5 -8.9941,-12 -8.9941,-15 0,-4 -47,-54.0019 -105,-112.0019 -58,-58 -113.0029,-121.0098 -123.0029,-140.0098 l -18.003,-34.9951 20.0098,25.0049 c 12,14 35.002,41.9883 52.002,62.9883 17,21 35.997,36.0136 41.997,34.0136 7,-2 20,5.9922 30,16.9922 18,21 17.9961,19.9942 0.9961,-6.0058 -9,-15 -19.9941,-25.9981 -23.9941,-22.9981 -11,6 -20.0049,-8.0019 -25.0049,-37.0019 -6,-31 -82.999,-99.9912 -108.999,-95.9912 -10,2 -20.9981,8.0039 -22.9981,14.0039 -5,14 122,172.9961 180,225.9961 22,21 37.9951,39.9931 34.9951,42.9931 -2,3 -44.0029,-35.9902 -93.0029,-84.9902 -48,-50 -89.9922,-90 -91.9922,-90 -3,0 -3,8.9951 0,19.9951 3,10 -0.01,20.998 -6.0058,22.998 -14,4 50.0088,75.003 84.0088,93.003 16,8 28.9892,11.998 28.9892,7.998 0,-3 16.0098,5.9951 35.0098,19.9951 19,15 38.9892,25.002 43.9892,22.002 4,-3 23.001,5.999 41.001,18.999 18,13 37.001,21.999 41.001,18.999 5,-3 19.0107,2.0049 31.0107,10.0049 28,20 57.9932,19.9961 57.9932,0.9961 0,-8 3.998,-15 7.998,-15 5,0 9.0088,7 9.0088,15 0,8 -4.0088,15 -9.0088,15 -4,0 -7.998,5.001 -7.998,11.001 0,6 6.0039,9.0059 14.0039,6.0059 8,-3 12.9971,1.0009 11.9971,11.0009 -2,25 119.0039,59.0039 209.0039,59.0039 z m 401.6601,-32.1826 c -5.9048,-0.1988 -10.8545,-2.3262 -13.667,-6.8262 -3,-6 -1.0048,-7.999 4.9952,-3.999 11,7 74.0058,-63 66.0058,-75 -2,-4 9.001,-22.001 26.001,-41.001 17,-18 38.9951,-50.9931 49.9951,-72.9931 11,-22 20.0098,-34.0117 20.0098,-27.0117 0,15 -28.0049,68.0117 -70.0049,132.0117 -16,25 -33.9941,54.9912 -38.9941,65.9912 -7.9063,17.25 -29.2506,29.3363 -44.3409,28.8281 z m -728.6718,-184.8193 c -2,0 -23.9991,-22.0029 -48.9991,-48.0029 -25,-26 -55.9941,-63.002 -68.9941,-82.002 l -22.998,-34.9951 41.997,39.9902 c 36,34 107.9942,125.0098 98.9942,125.0098 z m 562.1631,-131.1035 c -8.4139,0.076 -10.5967,-5.4659 -8.1592,-20.9034 2,-12 11.0058,-24.0009 21.0058,-26.0009 14,-3 18,1.0097 15,20.0097 -2,12 -11.0058,23.9864 -21.0058,25.9864 -2.625,0.5625 -4.8992,0.8906 -6.8408,0.9082 z m -90.293,-93.2813 c -0.7324,-0.041 -1.3604,-0.2402 -1.8604,-0.6152 -4,-4 -4.0068,-13.0098 -2.0068,-20.0098 8,-19 -13.9922,-54.9902 -31.9922,-54.9902 -24,0 -31.0068,-35.9981 -32.0068,-172.9981 -1,-140 10,-167.0097 15,-35.0097 2,45 6.0009,83.997 11.0009,86.997 11,9 13.0069,31.0108 2.0069,31.0108 -5,0 -10.0049,3.9902 -10.0049,9.9902 0,5 7,6.999 15,3.999 8,-4 14.9961,-1.9931 15.9961,2.0069 0,5 2.0029,18.9922 3.0029,31.9922 2,12 -1.998,22.0019 -7.998,22.0019 -31,1 35.0029,23.0117 78.0029,27.0117 111,8 266.9922,8.9922 271.9922,1.9922 3,-5 17.0068,-3.9931 32.0068,2.0069 18,7 100.9903,7.999 249.9903,3.999 145,-5 222.0117,-4.0078 222.0117,1.9922 0,10 -293.0049,17 -625.0049,15 -159,-1 -160,-0.9912 -180,24.0088 -9.625,12.25 -20.0098,19.9013 -25.1367,19.6142 z m -643.3594,-46.626 c 3.5,1.25 4.002,-8.5 -0.498,-30 -4,-20 -1.0088,-37.9921 5.9912,-46.9921 10,-13 9.9961,-13.9981 0.9961,-7.9981 -8,4 -12.9893,1.9941 -13.9893,-6.0059 0,-9 -2.0098,-9.996 -5.0098,-0.996 -3,7 -12.9873,8.9912 -21.9873,5.9912 -11,-3 -13.0058,-1.9864 -6.0058,4.0136 6,4 16.998,24.9961 22.998,45.9961 7.5,22.5 14.0049,34.7412 17.5049,35.9912 z m 867.4951,-39.375 c -1.5,-0.125 -3.5019,-4.623 -7.0019,-13.623 -10,-24 21.998,-51.9922 37.998,-31.9922 6,7 19.0039,14.999 29.0039,18.999 14,6 15.9942,11.003 8.9942,18.003 -8,8 -17.9912,5.9941 -35.9912,-6.0059 -24,-15 -26.004,-14.9932 -29.004,2.0068 -1.5,8.5 -2.499,12.7373 -3.999,12.6123 z m -401.8213,-51.123 c -5.5305,-0.132 -12.4521,-2.4531 -20.1709,-7.5 -10,-6 -10.0117,-10.9912 2.9883,-20.9912 14,-12 18.0049,-11 25.0049,0 10.5469,16.875 5.2764,28.8038 -7.8223,28.4912 z m -457.3095,-68.9941 c 3.875,1.5 5.1279,-4.0049 1.1279,-17.5049 -10,-30 58.0029,-141.9922 108.0029,-181.9922 11,-8 2.9971,6.999 -18.0029,33.999 -20,27 -34,50.9902 -30,54.9902 9,9 74.0039,-70.9961 74.0039,-90.9961 0,-9 5.0049,-19.998 10.0049,-22.998 6,-4 7.9951,-10.9961 4.9951,-15.9961 -4,-5 0,-9.0088 7.998,-9.0088 8,0 20.001,-5.9892 26.001,-13.9892 7,-8 44.002,-33.0118 82.002,-57.0118 38,-23 68.0058,-46.998 66.0058,-52.998 -5,-16 -50.0058,-13.001 -66.0058,3.999 -7,8 -5.001,2.0069 3.999,-12.9931 l 17.0068,-29.004 -34.0136,7.002 c -34,7 -173,82.9961 -165,90.9961 2,3 39.0019,-14.002 82.0019,-37.002 73,-40 77.0078,-40.999 73.0078,-18.999 -3,22 -14.0078,27.0088 -103.0078,54.0088 -26,8 -61.9951,26.9932 -79.9951,42.9932 -27,23 -88.0029,112.998 -78.0029,112.998 4,0 0.998,4.0049 -7.002,10.0049 -8,5 -10.998,11.9961 -7.998,15.9961 4,3 15.997,-8.9971 26.997,-26.9971 12,-19 26.003,-33.999 33.003,-33.999 7,0 13.9961,-10.0059 15.9961,-21.0059 3,-24 48.0078,-70.9961 58.0078,-60.9961 7,7 -25.001,61.003 -71.001,123.003 -46,60 -60.0068,99.9941 -47.0068,128.9941 6.5,14.5 13,23.0069 16.875,24.5069 z m 144.0381,-45.7178 c 9.6972,2.1387 26.9726,-14.0332 50.0976,-47.7832 33,-48 46.9922,-86.001 31.9922,-86.001 -6,0 -11.001,7 -11.001,15 0,8 -5.001,15 -11.001,15 -5,0 -6.9882,-4.9971 -2.9882,-11.9971 4,-7 3.0009,-7.999 -3.9991,-3.999 -6,4 -9.0058,11.999 -6.0058,18.999 2,7 -9.001,20 -26.001,30 -22,14 -30,24.9922 -30,46.9922 0,14.625 3.0879,22.5059 8.9063,23.7891 z m 484.2187,-28.7403 c -3.0174,-0.047 -6.4033,-0.7382 -10.1221,-2.0507 -13,-5 -18.0019,-34.9961 -7.0019,-45.9961 11,-11 33.999,4.998 33.999,22.998 0,17.1875 -6.0985,25.2182 -16.875,25.0488 z m 245.0244,-185.5078 c -2.6074,0.029 -8.7695,-3.4179 -23.1445,-11.5429 -11,-6 -43.0117,-25.9893 -72.0117,-43.9893 -43,-29 -61.9864,-35.0019 -115.9864,-37.0019 -43,-1 -63,-6.0079 -60,-13.0079 2,-7 13.9864,-9.998 25.9864,-7.998 12,2 16.0088,2.0078 9.0088,-1.9922 -6,-3 -10.0059,-10 -6.0059,-15 3,-5 -8.9971,-9.0088 -26.9971,-9.0088 -21,0 -28.9941,-3.9941 -23.9941,-8.9941 13,-13 93.9883,7.997 167.9883,41.997 57,27 79.0068,44.9971 32.0068,26.9971 -41,-15 -29.0049,-3.9902 34.9951,35.0098 33,20 60,38.001 60,41.001 0,2.25 -0.2812,3.5127 -1.8457,3.5302 z M -886.3184,4005.237 c 6.8125,-0.2031 16.5615,-0.9473 29.3115,-2.1973 l 38.7891,-3.6914 c -19.2143,-15.4884 -28.6907,-16.2988 -51.7822,-8.3056 -30.75,10.5 -36.7559,14.8037 -16.3184,14.1943 z m -332.6806,-171.1963 5.9912,-70.0049 c 8,-112 44.0068,-146.9883 77.0068,-77.9883 18,37 17.9893,37.9951 -1.0107,19.9951 -11,-9 -21.9864,-17.0068 -25.9864,-17.0068 -10,0 -29.0078,42.0098 -43.0078,95.0098 z" />
  </g>
</svg>
