<?xml version="1.0" encoding="UTF-8" standalone="no"?>
<svg
   version="1.0"
   width="300.000000pt"
   height="405.000000pt"
   viewBox="0 0 300.000000 405.000000"
   preserveAspectRatio="xMidYMid meet"
   id="svg4"
   sodipodi:docname="duck.svg"
   inkscape:version="1.4 (86a8ad7, 2024-10-11)"
   xmlns:inkscape="http://www.inkscape.org/namespaces/inkscape"
   xmlns:sodipodi="http://sodipodi.sourceforge.net/DTD/sodipodi-0.dtd"
   xmlns="http://www.w3.org/2000/svg"
   xmlns:svg="http://www.w3.org/2000/svg">
  <defs
     id="defs4" />
  <sodipodi:namedview
     id="namedview4"
     pagecolor="#ffffff"
     bordercolor="#000000"
     borderopacity="0.25"
     inkscape:showpageshadow="2"
     inkscape:pageopacity="0.0"
     inkscape:pagecheckerboard="0"
     inkscape:deskcolor="#d1d1d1"
     inkscape:document-units="pt"
     inkscape:zoom="1.5425926"
     inkscape:cx="200.31212"
     inkscape:cy="270"
     inkscape:window-width="1920"
     inkscape:window-height="1051"
     inkscape:window-x="-9"
     inkscape:window-y="-9"
     inkscape:window-maximized="1"
     inkscape:current-layer="svg4"
     showguides="true">
    <sodipodi:guide
       position="238.23529,263.51741"
       orientation="0,-1"
       id="guide1"
       inkscape:locked="false" />
  </sodipodi:namedview>
  <metadata
     id="metadata1">
Created by potrace 1.10, written by Peter Selinger 2001-2011
</metadata>
  <g
     transform="matrix(0.04862749,0,0,-0.04985194,-22.898562,156.33173)"
     fill="#000000"
     stroke="none"
     id="g4">
    <path
       d="m 1340,3099 c 0,-4 -9,-5 -20,-2 -26,7 -149,-31 -225,-69 -77,-39 -169,-105 -222,-160 -82,-84 -172,-278 -199,-428 -4,-25 -9,-48 -10,-52 -1,-5 -2,-26 -3,-47 -1,-31 -12,-53 -57,-110 -103,-132 -133,-242 -100,-369 9,-35 16,-88 16,-117 0,-30 4,-65 10,-79 9,-25 12,-26 82,-24 40,1 78,-1 85,-5 6,-4 15,-22 18,-40 4,-17 13,-35 19,-39 8,-6 8,-8 -1,-8 -27,0 22,-107 75,-162 35,-37 35,-38 17,-58 -21,-23 -24,-72 -5,-94 7,-9 25,-16 41,-16 23,0 31,-7 43,-34 23,-55 55,-70 135,-62 54,5 71,3 81,-9 8,-10 30,-15 61,-15 42,0 55,5 88,35 l 38,35 h 109 c 60,0 159,7 221,16 l 112,17 36,-31 c 44,-39 76,-41 139,-7 31,16 63,25 94,25 60,0 108,29 128,76 8,19 22,38 32,41 54,19 69,78 30,120 l -21,23 31,62 c 33,66 51,158 52,261 0,68 12,78 61,48 72,-44 145,-12 169,73 10,38 10,57 -4,119 -23,104 -74,183 -180,284 l -90,84 -22,107 c -35,176 -93,297 -194,402 -95,99 -237,175 -383,204 -73,14 -287,18 -287,5 z m 305,-64 c 192,-52 366,-188 448,-351 106,-209 162,-911 91,-1127 -41,-124 -218,-246 -454,-311 -152,-41 -424,-38 -583,9 -230,66 -357,178 -382,335 -4,25 -11,53 -16,62 -12,23 2,31 76,43 51,8 60,13 63,33 5,32 19,27 65,-24 33,-36 52,-48 87,-55 56,-11 344,15 414,38 68,22 154,109 184,187 39,103 42,216 5,216 -10,0 -74,-13 -143,-30 -69,-16 -231,-55 -360,-85 -129,-30 -243,-58 -252,-61 -10,-3 -18,-1 -18,5 0,6 6,11 14,11 20,0 31,19 18,32 -8,8 -23,3 -52,-16 -50,-33 -90,-110 -90,-173 0,-49 -26,-83 -63,-83 -34,0 -102,75 -137,154 -30,66 -31,71 -21,137 15,94 53,169 123,242 40,43 56,67 52,79 -9,29 15,165 47,263 83,261 286,435 564,485 70,13 249,4 320,-15 z m 674,-821 c 88,-95 131,-178 131,-257 0,-128 -45,-140 -152,-41 l -45,41 -6,99 c -4,55 -10,129 -13,167 -5,44 -3,67 4,67 5,0 42,-34 81,-76 z m -692,-223 c -2,-32 -14,-79 -25,-104 -30,-69 -104,-143 -160,-161 -63,-21 -343,-50 -398,-41 -83,12 -130,87 -114,179 5,29 6,29 180,67 96,21 249,55 340,77 91,22 169,40 174,41 5,0 6,-25 3,-58 z M 908,1838 c -2,-39 -7,-53 -18,-53 -10,0 -17,14 -21,45 -8,53 -5,60 22,60 18,0 20,-6 17,-52 z m -58,-18 c 0,-42 2,-48 17,-43 13,5 15,2 10,-11 -4,-10 -7,-24 -7,-32 0,-29 -16,-13 -28,29 -22,77 -24,107 -7,107 11,0 15,-12 15,-50 z m -29,-74 c 16,-17 10,-26 -15,-26 -23,0 -24,2 -20,53 8,75 18,90 22,32 2,-27 7,-54 13,-59 z m -241,5 c 6,-16 18,-32 26,-35 22,-9 16,-23 -12,-29 -27,-5 -29,-3 -39,56 -7,44 8,49 25,8 z m 1583,-369 c 24,-21 21,-32 -7,-32 -31,0 -56,-24 -56,-54 0,-47 -22,-60 -98,-58 -61,2 -72,0 -84,-17 -22,-31 -61,-42 -87,-25 -29,21 -26,40 6,49 46,11 181,83 236,124 51,40 57,41 90,13 z M 990,1283 c 47,-23 121,-52 165,-64 44,-11 84,-24 88,-29 9,-8 -39,-50 -58,-50 -7,0 -24,9 -38,20 -23,19 -35,20 -100,14 -70,-6 -75,-5 -91,17 -9,13 -16,31 -16,41 0,21 -29,38 -64,38 -14,0 -26,3 -26,7 0,10 43,54 49,51 3,-2 44,-22 91,-45 z"
       id="path1" />
    <path
       d="m 1847,2620 c -37,-29 -37,-80 -1,-109 35,-27 65,-27 92,2 60,64 -22,161 -91,107 z m 62,-44 c 14,-17 -9,-39 -33,-30 -12,5 -13,10 -5,25 12,22 22,24 38,5 z"
       id="path2" />
    <path
       d="m 1080,2587 c -75,-38 -28,-154 54,-133 26,6 56,50 56,81 0,22 -45,65 -67,65 -10,0 -29,-6 -43,-13 z m 58,-60 c 4,-20 -25,-34 -40,-19 -15,15 -1,44 19,40 10,-2 19,-11 21,-21 z"
       id="path3" />
    <path
       d="m 1446,2539 c -101,-16 -181,-66 -216,-133 -35,-64 -23,-92 55,-131 59,-29 63,-30 215,-30 176,0 240,14 302,65 73,60 56,141 -39,192 -80,43 -199,57 -317,37 z m 255,-39 c 43,-12 104,-52 98,-63 -2,-4 -66,-10 -142,-13 -124,-4 -302,-23 -379,-40 -33,-8 -35,4 -8,39 24,31 109,74 170,87 53,11 210,5 261,-10 z m 119,-116 c 0,-26 -62,-81 -105,-93 -125,-37 -345,-32 -424,8 -37,19 -58,46 -43,54 29,17 300,44 450,46 106,1 122,-1 122,-15 z"
       id="path4" />
  </g>
</svg>
