<?xml version="1.0" encoding="UTF-8" standalone="no"?>
<svg
   version="1.0"
   width="300.000000pt"
   height="400.000000pt"
   viewBox="0 0 300.000000 400.000000"
   preserveAspectRatio="xMidYMid meet"
   id="svg62"
   sodipodi:docname="eye_3.svg"
   inkscape:version="1.4 (86a8ad7, 2024-10-11)"
   xmlns:inkscape="http://www.inkscape.org/namespaces/inkscape"
   xmlns:sodipodi="http://sodipodi.sourceforge.net/DTD/sodipodi-0.dtd"
   xmlns="http://www.w3.org/2000/svg"
   xmlns:svg="http://www.w3.org/2000/svg">
  <defs
     id="defs62" />
  <sodipodi:namedview
     id="namedview62"
     pagecolor="#ffffff"
     bordercolor="#000000"
     borderopacity="0.25"
     inkscape:showpageshadow="2"
     inkscape:pageopacity="0.0"
     inkscape:pagecheckerboard="0"
     inkscape:deskcolor="#d1d1d1"
     inkscape:document-units="pt"
     inkscape:zoom="1.561875"
     inkscape:cx="199.7599"
     inkscape:cy="237.85514"
     inkscape:window-width="1920"
     inkscape:window-height="1051"
     inkscape:window-x="-9"
     inkscape:window-y="-9"
     inkscape:window-maximized="1"
     inkscape:current-layer="svg62" />
  <metadata
     id="metadata1">
Created by potrace 1.10, written by Peter Selinger 2001-2011
</metadata>
  <g
     transform="matrix(0.03516059,0,0,-0.03447562,-0.03823946,122.32813)"
     fill="#000000"
     stroke="none"
     id="g62">
    <path
       d="m 1410,3534 c -47,-8 -125,-21 -175,-30 -49,-9 -106,-19 -126,-21 -34,-4 -40,-11 -69,-69 -18,-35 -41,-71 -52,-81 -10,-9 -17,-22 -14,-29 3,-7 0,-28 -6,-48 -14,-44 -40,-51 -141,-37 -84,12 -127,26 -127,41 0,6 -10,8 -26,4 -23,-6 -52,3 -94,27 -8,5 -22,12 -30,15 -8,3 -36,14 -62,25 -61,25 -83,24 -102,-3 -23,-32 -20,-60 10,-104 24,-35 25,-41 13,-64 -23,-40 -11,-67 55,-135 42,-43 58,-66 49,-69 -7,-3 -13,-13 -13,-23 0,-25 55,-90 91,-108 16,-9 29,-22 29,-30 0,-8 6,-15 14,-15 7,0 44,-20 82,-45 38,-25 78,-48 90,-51 20,-5 91,6 141,21 18,6 23,2 29,-21 10,-39 42,-92 84,-138 45,-50 191,-146 255,-168 61,-21 95,-22 205,-3 97,16 147,31 172,52 9,8 21,12 26,9 5,-3 24,8 43,24 38,31 84,110 119,203 18,47 25,57 38,51 30,-13 112,-17 112,-5 0,6 5,11 11,11 6,0 29,13 52,28 23,15 51,33 62,38 11,6 21,20 23,31 2,11 25,39 52,62 57,50 82,107 54,128 -14,10 -14,17 -4,47 6,20 16,38 21,42 5,3 7,9 4,14 -3,4 6,32 19,61 14,29 23,56 20,61 -3,4 -6,20 -8,35 -5,40 -45,103 -64,103 -19,0 -179,-28 -202,-35 -8,-2 -33,-5 -55,-6 -22,-1 -58,-10 -80,-19 -82,-36 -90,-35 -119,16 -14,26 -26,53 -26,61 0,7 -7,16 -15,19 -18,7 -75,98 -75,120 0,11 -5,14 -17,9 -40,-16 -53,-16 -75,-1 -27,19 -80,19 -198,0 z m 185,-24 c 24,-13 51,-19 66,-16 23,4 30,-1 53,-42 15,-26 45,-76 68,-111 22,-35 36,-67 31,-72 -4,-4 -33,-9 -63,-11 -33,-2 -54,-8 -53,-15 1,-6 -3,-16 -11,-22 -9,-8 -21,-3 -47,18 -26,22 -38,27 -52,20 -11,-6 -55,-6 -120,1 -165,18 -366,17 -402,-2 -16,-8 -40,-18 -52,-22 -18,-6 -21,-4 -16,16 3,13 21,57 40,99 40,88 61,104 148,114 33,4 110,18 170,31 61,13 126,25 145,27 19,2 40,5 45,5 6,1 29,-7 50,-18 z m 682,-182 c 5,-7 15,-31 22,-53 11,-36 10,-49 -13,-125 -32,-103 -47,-150 -54,-169 -4,-10 1,-11 16,-6 21,6 21,4 11,-22 -22,-59 -210,-223 -256,-223 -44,0 -104,22 -99,37 3,7 8,36 12,65 4,29 13,59 21,66 11,11 13,4 13,-44 0,-32 3,-55 6,-51 3,3 6,22 6,41 0,20 4,33 9,30 22,-13 6,24 -24,56 -55,57 -70,67 -182,110 -74,29 -293,54 -410,47 -184,-12 -313,-60 -459,-171 -17,-13 -14,-42 3,-31 19,11 39,-23 44,-75 5,-47 4,-51 -6,-27 -11,27 -27,37 -27,16 0,-20 21,-49 35,-49 24,0 17,-25 -7,-27 -13,0 -50,-4 -84,-7 -58,-5 -63,-3 -120,35 -32,22 -69,50 -80,64 -12,13 -24,22 -27,19 -2,-2 -28,18 -58,46 -53,50 -53,50 -31,66 22,15 22,15 -48,84 -71,70 -79,89 -59,133 9,19 7,31 -10,63 -21,39 -29,104 -12,104 17,0 76,-23 91,-35 25,-22 171,-72 245,-85 116,-21 221,-17 301,13 38,14 85,28 104,31 44,8 373,-24 381,-37 4,-6 16,-3 30,7 32,22 46,20 81,-9 35,-30 54,-32 68,-6 9,18 24,24 94,37 16,3 56,11 90,19 34,8 95,21 136,30 41,9 100,22 130,29 74,18 106,19 117,4 z m -696,-280 c 40,2 81,-5 140,-24 92,-30 125,-49 72,-42 -18,3 -33,1 -33,-3 0,-4 17,-9 37,-11 20,-2 39,-9 41,-17 3,-10 -2,-12 -22,-7 -15,4 -26,2 -26,-4 0,-5 15,-10 34,-10 52,0 58,-15 52,-131 -3,-56 -8,-104 -11,-107 -3,-3 -5,42 -5,100 0,89 -3,107 -16,112 -9,4 -19,4 -22,1 -3,-2 2,-7 10,-10 11,-4 16,-22 17,-63 1,-69 -8,-124 -20,-116 -5,3 -8,-7 -8,-23 1,-17 3,-21 6,-10 2,9 9,17 14,17 16,0 9,-34 -18,-85 -14,-28 -25,-52 -23,-54 1,-2 -18,-25 -44,-52 -47,-48 -107,-78 -203,-99 -59,-14 -82,-5 -90,31 -3,16 -9,29 -14,29 -12,0 -11,-13 1,-44 6,-17 6,-26 0,-26 -6,0 -11,8 -11,18 -1,15 -2,15 -6,0 -7,-26 -28,-28 -100,-10 -74,19 -167,67 -158,83 4,5 -2,9 -12,9 -28,0 -119,105 -157,182 -30,58 -36,82 -36,132 0,33 4,66 8,71 8,11 75,37 89,34 4,-1 16,1 26,6 24,10 31,1 23,-30 -4,-16 -13,-25 -26,-25 -10,0 -22,-5 -25,-11 -5,-7 5,-8 29,-4 30,6 36,4 36,-9 0,-31 39,-94 77,-123 42,-33 150,-65 173,-51 8,4 36,17 62,28 38,15 55,31 84,75 19,31 38,71 41,90 6,40 -31,161 -53,169 -7,3 -14,10 -14,16 0,6 5,8 13,3 6,-4 37,-6 68,-5 z m -290,-7 c -11,-7 -11,-9 0,-13 17,-6 -73,-98 -96,-98 -8,0 -15,-5 -15,-11 0,-5 4,-8 8,-5 5,3 9,-1 9,-9 0,-11 -4,-12 -13,-4 -18,15 -15,69 5,71 9,0 23,2 31,2 9,1 14,9 12,20 -2,10 1,15 7,12 6,-4 18,5 27,19 9,14 21,25 28,25 6,0 5,-4 -3,-9 z m 159,-1 c 0,-4 -7,-13 -15,-20 -11,-9 -15,-9 -15,-1 0,7 -8,11 -17,10 -38,-3 -93,1 -93,9 0,4 32,8 70,9 39,1 70,-2 70,-7 z m -240,-30 c -30,-9 -62,-15 -70,-12 -17,7 61,30 100,30 15,0 4,-7 -30,-18 z m 275,0 c 4,-6 1,-17 -5,-25 -10,-11 -10,-15 -1,-15 7,0 9,-5 5,-12 -5,-8 -2,-9 9,-5 24,9 31,-10 13,-37 -18,-28 -64,-42 -80,-25 -8,9 -7,10 7,6 23,-8 47,2 47,19 0,8 8,14 18,15 14,0 13,2 -4,9 -24,9 -37,36 -27,53 3,7 -3,4 -14,-5 -22,-20 -33,-23 -33,-8 0,6 6,10 14,10 8,0 16,7 20,15 6,17 22,20 31,5 z m -109,-17 c -1,-12 12,-20 44,-28 34,-8 45,-16 45,-30 0,-15 -8,-21 -33,-23 -29,-3 -34,1 -47,32 -15,35 -29,49 -53,52 -10,2 -11,-1 -1,-12 6,-8 8,-14 5,-14 -4,0 1,-12 11,-27 31,-45 45,-83 29,-77 -7,3 -21,-2 -30,-11 -11,-11 -16,-12 -16,-4 0,7 -7,20 -15,29 -17,19 -9,64 11,56 19,-7 18,-3 -6,24 -24,28 -11,50 30,50 20,0 27,-5 26,-17 z m -243,-23 c -5,-19 -18,-24 -53,-22 -8,0 -30,-9 -48,-20 -34,-21 -54,-20 -27,2 10,9 118,58 132,60 0,0 -1,-9 -4,-20 z m 151,-12 c -3,-18 -6,-39 -6,-45 -1,-7 -5,-13 -10,-13 -5,0 -4,-10 3,-21 9,-18 13,-19 21,-8 7,10 8,8 3,-8 -5,-18 -1,-24 19,-29 25,-6 38,-36 14,-31 -7,1 -14,-9 -15,-23 -2,-23 -2,-23 7,-5 9,17 10,15 7,-12 -2,-18 0,-33 5,-33 4,0 8,-4 8,-10 0,-14 -30,-12 -35,3 -10,25 -12,78 -4,83 5,3 9,11 9,17 0,14 -40,-33 -40,-48 0,-5 5,-3 10,5 6,9 10,10 10,3 0,-7 -9,-17 -20,-23 -14,-7 -20,-7 -20,0 0,5 -11,10 -25,10 -18,0 -25,5 -25,20 0,12 -7,20 -16,20 -11,0 -14,5 -10,16 4,10 -1,22 -10,29 -17,12 -12,35 7,35 6,0 7,-4 4,-10 -9,-14 -1,-13 40,7 30,14 33,18 18,24 -16,6 -14,8 10,19 15,7 27,21 27,30 0,15 8,30 16,30 2,0 1,-15 -2,-32 z m 211,-88 -30,-8 33,-1 c 17,0 32,-5 32,-11 0,-5 -5,-10 -11,-10 -5,0 -9,-10 -7,-22 5,-35 -40,-41 -73,-11 -38,35 -60,22 -53,-31 6,-37 4,-44 -14,-48 -17,-5 -21,0 -24,26 -5,51 2,76 22,76 10,0 24,10 33,23 12,18 24,22 68,23 43,1 48,0 24,-6 z m -33,-113 c 8,-16 6,-18 -23,-15 -26,2 -34,9 -40,32 -5,16 -6,33 -3,38 7,10 50,-27 66,-55 z"
       id="path1" />
    <path
       d="m 1455,3490 c 44,-11 116,-11 90,0 -11,5 -42,8 -70,8 -43,0 -46,-1 -20,-8 z"
       id="path2" />
    <path
       d="m 1640,3455 c 7,-8 18,-32 26,-52 10,-29 13,-32 14,-15 0,29 -27,82 -41,82 -8,0 -7,-5 1,-15 z"
       id="path3" />
    <path
       d="m 1701,3410 c 6,-16 15,-30 20,-30 12,0 11,4 -3,35 -16,35 -29,31 -17,-5 z"
       id="path4" />
    <path
       d="m 1733,3302 c -13,-2 -23,-8 -23,-13 0,-8 67,-3 78,6 6,5 -34,10 -55,7 z"
       id="path5" />
    <path
       d="m 2060,3289 c -14,-4 -42,-11 -64,-14 -21,-4 -36,-8 -33,-11 2,-3 31,-1 63,5 35,5 66,5 76,0 10,-6 19,-5 23,0 5,8 -27,33 -37,30 -2,-1 -14,-5 -28,-10 z"
       id="path6" />
    <path
       d="m 2250,3251 c 0,-27 -22,-170 -30,-193 -5,-17 -5,-28 0,-28 5,0 14,17 19,38 13,46 26,192 17,192 -3,0 -6,-4 -6,-9 z"
       id="path7" />
    <path
       d="m 435,3125 c 5,-30 82,-111 94,-100 3,4 -11,21 -31,38 -20,18 -44,46 -53,62 l -16,30 z"
       id="path8" />
    <path
       d="m 1800,3082 c 0,-13 23,-32 39,-32 11,0 10,4 -4,20 -19,21 -35,26 -35,12 z"
       id="path9" />
    <path
       d="m 966,3030 c -16,-17 -26,-33 -23,-36 8,-8 60,42 56,54 -2,7 -16,0 -33,-18 z"
       id="path10" />
    <path
       d="m 1996,3008 c 10,-18 19,-28 21,-21 5,15 -15,53 -28,53 -5,0 -2,-15 7,-32 z"
       id="path11" />
    <path
       d="m 877,2994 c -14,-14 -7,-25 13,-22 12,2 21,8 21,13 0,12 -24,18 -34,9 z"
       id="path12" />
    <path
       d="m 2174,2916 c -3,-7 -23,-21 -45,-31 -50,-23 -52,-40 -1,-20 35,15 62,39 62,57 0,13 -10,9 -16,-6 z"
       id="path13" />
    <path
       d="m 861,2876 c -11,-13 -10,-18 2,-30 13,-14 16,-13 21,7 7,28 -7,42 -23,23 z"
       id="path14" />
    <path
       d="m 670,2852 c 0,-11 36,-44 73,-67 21,-14 31,-15 40,-6 8,8 7,11 -5,11 -9,0 -37,16 -62,35 -25,19 -46,31 -46,27 z"
       id="path15" />
    <path
       d="m 1545,3030 c -3,-6 5,-10 19,-10 28,0 107,-17 144,-31 12,-5 22,-6 22,-3 0,10 -26,31 -46,38 -37,11 -133,16 -139,6 z"
       id="path16" />
    <path
       d="m 1550,2999 c 0,-9 17,-14 93,-28 26,-5 50,-5 52,0 3,4 -11,11 -32,14 -21,3 -55,9 -75,14 -21,4 -38,4 -38,0 z"
       id="path17" />
    <path
       d="m 1760,2905 c -1,-5 -2,-18 -1,-27 1,-9 -6,-18 -16,-21 -15,-4 -15,-6 5,-12 19,-6 22,-13 18,-31 -4,-14 -2,-24 4,-24 5,0 10,6 10,14 0,9 8,12 25,8 32,-6 33,6 1,18 -16,6 -27,21 -34,47 -5,21 -11,34 -12,28 z"
       id="path18" />
    <path
       d="m 1000,2853 c 0,-23 -2,-25 -11,-13 -21,30 0,-79 26,-133 24,-49 92,-133 101,-125 2,3 -7,20 -21,38 -14,19 -25,45 -25,58 0,17 -4,22 -14,19 -10,-4 -17,3 -21,23 -3,15 -13,31 -21,34 -11,4 -13,17 -10,50 2,24 7,49 10,55 4,5 2,12 -4,16 -6,4 -10,-5 -10,-22 z"
       id="path19" />
    <path
       d="m 1673,2718 c 2,-7 1,-22 -3,-33 -7,-18 -9,-18 -19,9 -6,16 -14,26 -18,23 -3,-4 0,-19 6,-35 8,-20 28,-37 62,-52 53,-25 58,-38 34,-83 -10,-20 -11,-27 -3,-25 15,5 60,118 55,138 -3,10 -8,5 -15,-13 -12,-27 -12,-27 -48,-12 -20,8 -38,15 -40,15 -2,0 -1,18 2,40 5,29 3,40 -6,40 -7,0 -10,-6 -7,-12 z"
       id="path20" />
    <path
       d="m 1246,2660 c 5,-4 27,-12 49,-15 26,-5 37,-4 30,2 -5,6 -28,13 -49,16 -23,4 -35,3 -30,-3 z"
       id="path21" />
    <path
       d="m 1635,2598 c 8,-26 55,-79 55,-62 0,6 -9,19 -20,29 -11,10 -20,26 -20,37 0,10 -5,18 -11,18 -6,0 -8,-9 -4,-22 z"
       id="path22" />
    <path
       d="m 1314,2569 c -3,-6 -1,-16 5,-22 16,-16 14,-44 -4,-51 -9,-3 -15,-17 -14,-33 1,-21 3,-23 6,-8 3,11 14,27 26,37 18,14 20,19 9,43 -7,14 -10,31 -7,36 4,5 2,9 -4,9 -5,0 -13,-5 -17,-11 z"
       id="path23" />
    <path
       d="m 1551,2528 c -1,-20 -4,-43 -7,-52 -3,-9 -2,-16 4,-16 14,0 23,56 12,82 -8,20 -9,19 -9,-14 z"
       id="path24" />
    <path
       d="m 1645,2496 c -22,-11 -42,-22 -44,-23 -2,-2 -2,-6 2,-9 7,-7 87,36 87,48 0,4 -1,8 -2,7 -2,-1 -21,-11 -43,-23 z"
       id="path25" />
    <path
       d="m 1908,3398 c -10,-7 -9,-12 6,-23 21,-16 76,-21 76,-7 0,14 -68,39 -82,30 z"
       id="path26" />
    <path
       d="m 1840,3375 c 0,-8 5,-15 12,-15 6,0 20,-7 30,-17 16,-14 18,-15 18,0 0,15 -35,47 -52,47 -5,0 -8,-7 -8,-15 z"
       id="path27" />
    <path
       d="m 915,3336 c -14,-24 -32,-50 -40,-56 -23,-19 -18,-40 9,-40 17,0 28,9 41,36 17,37 32,104 22,104 -4,0 -18,-20 -32,-44 z"
       id="path28" />
    <path
       d="m 804,3309 c 3,-17 6,-35 6,-40 0,-21 17,-6 33,26 22,46 22,45 -14,45 -30,0 -31,-2 -25,-31 z"
       id="path29" />
    <path
       d="m 2362,3175 c -7,-55 -15,-110 -18,-122 -5,-17 -2,-23 10,-23 22,0 20,-23 -5,-71 -11,-22 -19,-48 -17,-57 2,-11 12,1 27,31 19,39 22,57 17,97 -4,31 -1,74 10,121 10,46 13,74 6,78 -5,3 -12,15 -14,26 -2,11 -9,-25 -16,-80 z"
       id="path30" />
    <path
       d="m 2420,3144 c -13,-32 -13,-74 -1,-74 15,0 24,20 26,61 3,44 -11,51 -25,13 z"
       id="path31" />
    <path
       d="m 1910,2631 c -5,-11 -10,-26 -10,-33 0,-8 -9,-30 -19,-51 -10,-20 -16,-37 -11,-37 20,0 84,106 76,126 -8,20 -24,17 -36,-5 z"
       id="path32" />
    <path
       d="m 947,2613 c 8,-22 45,-76 58,-85 24,-17 20,7 -8,52 -31,48 -64,69 -50,33 z"
       id="path33" />
    <path
       d="m 1229,2381 c 12,-21 41,-41 60,-41 20,0 11,15 -22,35 -47,29 -50,29 -38,6 z"
       id="path34" />
    <path
       d="m 1590,2010 c -148,-14 -250,-33 -270,-50 -11,-10 -39,-20 -63,-24 -23,-4 -67,-16 -98,-27 -49,-18 -60,-28 -90,-75 -57,-91 -104,-148 -135,-163 -16,-7 -36,-17 -44,-22 -56,-33 -90,-47 -125,-53 -66,-12 -108,-29 -142,-59 -17,-16 -46,-36 -65,-45 -33,-17 -33,-18 -41,-107 -6,-63 -5,-106 4,-142 13,-56 9,-83 -31,-223 -23,-83 -34,-192 -25,-257 10,-73 21,-48 24,53 1,59 8,113 18,138 8,23 17,57 18,76 2,20 11,64 20,98 14,48 16,79 10,144 -4,46 -8,106 -9,133 l -1,50 54,27 c 30,15 61,34 70,42 20,18 104,46 136,46 14,0 25,4 25,9 0,5 9,12 19,16 11,3 35,16 54,29 38,26 47,24 64,-16 14,-30 17,-66 38,-353 9,-115 18,-216 20,-222 2,-7 15,-13 29,-13 15,0 25,-7 29,-18 2,-12 17,-22 36,-25 34,-7 181,-77 181,-87 0,-8 -103,-50 -122,-50 -9,0 -20,-4 -23,-10 -3,-5 -20,-10 -37,-10 -17,0 -28,-3 -25,-7 4,-3 2,-12 -5,-20 -9,-11 -7,-17 8,-28 11,-7 42,-46 70,-87 67,-97 72,-107 44,-83 -23,20 -23,20 -15,0 4,-11 8,-27 9,-36 1,-9 12,-29 25,-45 12,-16 20,-21 17,-11 -5,15 -1,15 37,-4 23,-12 48,-26 56,-32 7,-7 28,-12 47,-14 18,-1 46,-9 62,-17 28,-14 42,-13 42,5 0,4 -26,17 -57,29 -72,27 -153,70 -153,82 0,5 11,1 25,-8 23,-15 25,-15 25,0 0,9 -6,13 -14,10 -8,-3 -17,0 -21,5 -3,6 -11,9 -16,6 -5,-3 -33,31 -63,77 -30,46 -64,94 -75,108 -24,30 -26,40 -7,40 7,0 19,7 26,15 7,8 25,15 41,15 16,0 60,19 101,44 55,34 78,55 96,88 12,24 31,54 41,67 l 18,23 31,-46 c 18,-26 32,-50 32,-53 0,-4 6,-14 14,-22 37,-42 116,-225 116,-269 0,-10 16,-50 35,-90 19,-40 32,-72 28,-72 -3,0 0,-6 6,-13 6,-8 23,-12 41,-9 24,3 30,8 24,21 -4,9 -11,61 -15,116 -5,82 -13,116 -43,189 l -37,88 15,57 c 26,95 28,101 38,101 5,0 6,5 3,10 -4,6 -11,7 -17,4 -7,-4 -8,-2 -4,4 4,6 -2,17 -13,23 -10,7 -17,19 -14,26 4,11 9,11 24,-3 17,-15 20,-14 44,11 29,32 29,32 49,-15 9,-24 11,-42 5,-58 -8,-20 -7,-23 6,-18 18,7 30,-32 20,-65 -5,-14 -3,-19 3,-15 7,4 13,-7 16,-26 22,-149 27,-193 25,-228 -2,-21 0,-43 4,-47 4,-4 6,71 4,167 -4,162 -6,181 -33,255 -15,44 -33,83 -39,87 -6,5 -6,8 2,8 6,0 18,-9 26,-21 11,-14 16,-17 19,-7 7,21 35,-7 49,-50 6,-20 33,-77 59,-127 48,-89 48,-91 38,-145 -15,-83 4,-330 26,-330 41,1 53,12 64,69 7,31 12,88 12,127 0,38 5,126 12,196 9,94 9,137 1,163 -12,36 -11,36 10,21 12,-9 42,-26 67,-39 25,-13 61,-33 80,-44 27,-15 40,-18 58,-10 28,13 28,12 44,-46 16,-61 5,-103 -60,-241 -3,-5 0,-6 7,-2 6,4 11,5 11,2 0,-13 -64,-143 -82,-165 -22,-29 -23,-51 -2,-51 10,0 26,23 42,60 15,33 32,60 38,60 6,0 17,28 23,63 7,34 21,88 33,121 16,46 19,74 15,137 -3,43 -8,83 -12,89 -5,7 -21,9 -46,5 -21,-4 -47,-4 -58,0 -19,6 -16,11 29,53 l 50,48 -35,68 c -19,37 -40,96 -46,129 -6,34 -19,87 -29,117 -16,48 -41,162 -37,167 7,6 146,-106 146,-118 1,-11 14,-18 40,-23 52,-8 140,-65 140,-91 0,-11 -6,-63 -13,-115 -7,-52 -9,-97 -5,-100 4,-3 3,-28 -3,-55 -15,-74 -16,-337 -1,-352 6,-7 14,-13 16,-13 3,0 4,35 4,78 -1,42 -1,86 0,97 0,11 0,61 -1,110 0,50 3,103 7,118 4,17 4,26 -1,23 -11,-6 -4,76 12,146 6,27 15,50 20,51 5,1 15,-22 22,-51 8,-29 20,-65 29,-81 8,-16 17,-51 21,-78 5,-40 14,-259 14,-342 0,-13 3,-21 6,-18 7,6 15,63 15,102 0,11 0,40 0,65 0,62 1,55 -12,150 -6,47 -12,102 -13,122 -2,20 -9,44 -17,54 -8,9 -21,35 -29,58 -12,31 -27,47 -67,71 -78,46 -205,136 -230,162 -12,13 -28,23 -36,23 -19,0 -67,52 -67,73 0,10 -22,29 -57,47 -32,17 -76,43 -99,58 -22,15 -56,37 -74,49 -18,11 -43,40 -57,63 -21,34 -40,48 -118,86 -51,24 -98,51 -105,59 -7,8 -22,14 -34,13 -11,-1 -55,-4 -96,-8 z m 120,-21 c 5,-6 50,-33 101,-58 93,-46 94,-46 157,-141 35,-52 75,-107 89,-121 41,-44 57,-173 33,-269 -6,-25 -11,-83 -11,-130 -1,-105 -5,-126 -25,-109 -9,7 -14,31 -14,68 0,93 -13,122 -82,182 -62,53 -101,79 -121,79 -5,0 -26,-12 -45,-26 l -34,-27 7,24 c 4,13 28,47 54,74 54,57 101,141 100,176 l -1,24 -8,-25 c -7,-23 -10,-19 -40,45 -56,121 -93,170 -146,196 -59,28 -125,32 -231,11 -122,-23 -146,-33 -164,-72 -10,-19 -14,-37 -9,-40 4,-3 26,-48 49,-100 23,-52 47,-98 54,-103 7,-5 -3,-6 -23,-2 l -35,6 40,-25 c 22,-14 45,-30 52,-35 7,-6 17,-11 23,-11 6,0 27,-10 48,-23 69,-42 163,-91 195,-101 18,-6 22,-23 8,-44 -7,-12 -14,-11 -40,2 -78,41 -77,41 -120,-26 -24,-36 -45,-84 -52,-117 -6,-30 -22,-71 -34,-89 l -23,-33 -28,38 c -16,21 -48,62 -71,91 -39,48 -43,59 -43,108 0,55 6,64 28,42 9,-9 12,-9 12,0 0,6 -9,16 -20,22 -29,15 -87,136 -99,206 -24,143 -21,184 14,184 8,0 15,8 15,18 1,9 18,37 40,60 39,43 40,44 147,61 142,22 244,26 253,10 z m -80,-42 c 23,6 120,-38 120,-54 0,-7 6,-16 14,-20 13,-8 47,-67 45,-79 0,-4 3,-10 8,-13 4,-3 19,-26 31,-50 33,-60 24,-92 -43,-166 -30,-33 -55,-63 -55,-67 0,-17 -48,-6 -95,22 -27,16 -72,41 -100,56 -59,32 -115,73 -115,85 0,5 -16,43 -36,85 -59,127 -56,159 18,171 18,2 50,10 72,17 21,7 53,12 72,11 19,-1 34,3 35,9 0,7 2,7 5,0 3,-7 13,-10 24,-7 z m -379,-69 c -17,-18 -36,-48 -41,-68 -11,-40 1,-136 26,-203 33,-90 51,-164 53,-216 1,-32 11,-75 27,-108 21,-48 40,-79 115,-190 14,-20 15,-30 6,-54 -13,-33 -38,-41 -30,-9 11,43 -5,17 -27,-41 -19,-53 -24,-60 -44,-55 -35,9 -169,74 -196,96 -14,11 -42,21 -63,22 -20,1 -37,4 -37,7 0,3 -4,56 -9,116 -6,61 -12,187 -16,280 -5,147 -8,172 -23,185 -17,13 -14,21 52,122 64,97 75,109 111,119 22,6 58,17 80,24 22,7 42,11 44,9 2,-2 -10,-18 -28,-36 z m 820,-151 c 19,-13 53,-34 76,-46 44,-25 57,-49 68,-116 18,-121 80,-352 119,-446 4,-9 -6,-32 -25,-58 -27,-39 -34,-43 -61,-37 -49,10 -138,66 -149,93 -13,34 0,248 18,306 10,34 13,66 8,110 -10,93 -23,128 -68,175 -45,46 -39,55 14,19 z m -421,-340 c 0,-7 -4,-17 -9,-22 -9,-11 -46,-116 -44,-126 1,-3 -8,-4 -21,-2 -20,4 -23,10 -22,48 0,24 4,41 7,39 4,-2 18,14 33,36 25,39 56,53 56,27 z m 249,-26 43,-40 -11,-53 c -7,-29 -14,-63 -17,-75 -6,-29 -44,-31 -51,-3 -8,29 -29,25 -84,-16 l -49,-36 -39,35 c -21,19 -44,36 -52,39 -11,4 -11,14 -1,56 16,70 38,102 71,103 14,0 46,6 71,13 68,20 73,19 119,-23 z m 101,-70 c 0,-20 3,-22 9,-12 6,10 8,-1 4,-30 -7,-53 -4,-49 -30,-43 -29,8 -35,29 -23,75 9,32 8,44 -5,61 -26,38 -16,45 15,9 17,-19 30,-45 30,-60 z m -404,-94 c 64,-37 73,-51 69,-108 -2,-30 -6,-72 -10,-94 -5,-31 -3,-37 5,-25 9,12 10,9 5,-15 -4,-16 -9,-63 -12,-102 -5,-76 -17,-94 -28,-44 -7,34 -82,162 -101,174 -7,4 -15,20 -19,36 -3,16 -17,39 -31,51 -13,13 -24,32 -24,42 0,26 20,12 21,-15 1,-20 2,-20 9,3 4,14 8,19 9,12 2,-20 21,-3 21,18 0,17 47,78 60,79 3,0 14,-5 26,-12 z m 442,-87 52,-57 -31,-67 c -17,-36 -33,-66 -35,-66 -8,0 -74,140 -74,157 -1,10 -7,29 -14,42 -10,18 -11,31 -4,47 14,30 37,18 106,-56 z m 82,-174 c 0,-7 -4,-6 -9,2 -8,14 -22,-135 -26,-286 -2,-87 -8,-103 -27,-84 -11,11 -14,103 -8,277 3,72 33,133 56,114 8,-6 14,-17 14,-23 z M 1690,758 c 0,-10 7,-18 15,-18 9,0 15,-10 15,-26 0,-15 4,-23 11,-19 7,5 8,-7 4,-38 -4,-26 -3,-47 3,-51 12,-7 4,-46 -9,-46 -27,0 -80,201 -61,234 6,11 22,-14 22,-36 z"
       id="path35" />
    <path
       d="m 1928,1634 c -5,-4 -8,-20 -8,-36 0,-16 -5,-38 -10,-49 -12,-22 2,-26 19,-5 13,15 11,103 -1,90 z"
       id="path36" />
    <path
       d="m 1542,1421 c -14,-38 -11,-49 7,-27 7,8 11,25 9,38 -3,20 -5,19 -16,-11 z"
       id="path37" />
    <path
       d="m 1344,1343 c 8,-16 21,-37 30,-48 25,-32 19,4 -6,42 -28,40 -44,44 -24,6 z"
       id="path38" />
    <path
       d="m 1050,1734 c -12,-32 -13,-82 -1,-68 10,10 24,94 16,94 -3,0 -10,-12 -15,-26 z"
       id="path39" />
    <path
       d="m 1246,1338 c 4,-13 17,-36 30,-51 23,-27 29,-43 36,-92 2,-11 8,-19 13,-17 16,5 5,43 -33,114 -36,67 -60,90 -46,46 z"
       id="path40" />
    <path
       d="m 2117,1383 c -10,-9 -8,-73 2,-73 4,0 8,18 8,40 0,43 0,44 -10,33 z"
       id="path41" />
    <path
       d="m 2290,1118 c 0,-14 -3,-35 -7,-45 -6,-17 -5,-17 15,1 26,23 26,26 7,52 -14,18 -14,18 -15,-8 z"
       id="path42" />
    <path
       d="m 1902,1294 c -1,-12 -5,-37 -8,-55 -4,-28 -3,-31 6,-16 6,9 9,34 7,55 -2,20 -4,27 -5,16 z"
       id="path43" />
    <path
       d="m 1060,1918 c -37,-26 -58,-54 -47,-64 3,-4 17,1 29,10 13,9 38,26 55,37 32,20 36,39 9,39 -7,0 -28,-10 -46,-22 z"
       id="path44" />
    <path
       d="m 701,1641 c -30,-8 -40,-31 -14,-31 23,0 60,25 47,32 -5,3 -20,2 -33,-1 z"
       id="path45" />
    <path
       d="m 901,1596 c -18,-13 -28,-27 -22,-30 11,-7 69,39 60,48 -3,3 -20,-5 -38,-18 z"
       id="path46" />
    <path
       d="m 580,1564 c -19,-14 -36,-29 -38,-35 -8,-20 25,-7 63,26 46,39 27,46 -25,9 z"
       id="path47" />
    <path
       d="m 2480,1532 c 0,-24 122,-84 137,-68 13,12 -21,37 -43,32 -15,-4 -32,2 -52,19 -31,26 -42,30 -42,17 z"
       id="path48" />
    <path
       d="m 2384,1407 c 11,-7 34,-24 51,-39 34,-30 45,-34 45,-19 0,14 -81,71 -99,70 -13,0 -12,-3 3,-12 z"
       id="path49" />
    <path
       d="m 2614,1404 c 3,-9 6,-18 6,-20 0,-2 9,-4 20,-4 23,0 26,10 8,28 -18,18 -41,15 -34,-4 z"
       id="path50" />
    <path
       d="m 650,1385 c 0,-39 39,-173 73,-250 34,-79 35,-83 22,-397 -5,-127 -4,-178 4,-178 6,0 11,5 11,11 0,5 4,8 9,5 22,-14 29,171 15,394 -9,138 -11,147 -40,190 -35,52 -74,165 -74,215 0,19 -4,35 -10,35 -5,0 -10,-11 -10,-25 z"
       id="path51" />
    <path
       d="m 1436,968 c -18,-26 -20,-38 -6,-38 5,0 16,14 25,30 18,35 4,41 -19,8 z"
       id="path52" />
    <path
       d="m 2737,926 c -10,-26 -8,-96 2,-96 13,0 23,64 13,90 -8,20 -9,21 -15,6 z"
       id="path53" />
    <path
       d="m 2361,886 c -1,-34 2,-47 9,-40 7,7 7,24 1,50 l -9,39 z"
       id="path54" />
    <path
       d="m 1830,801 c 0,-16 -4,-41 -10,-55 -5,-14 -5,-28 -1,-31 11,-6 31,49 31,86 0,16 -4,29 -10,29 -5,0 -10,-13 -10,-29 z"
       id="path55" />
    <path
       d="m 835,785 c 3,-22 0,-75 -7,-117 -10,-69 -8,-101 7,-87 10,11 15,186 6,214 -11,29 -11,28 -6,-10 z"
       id="path56" />
    <path
       d="m 1255,810 c -3,-5 -13,-10 -22,-10 -9,0 -31,-10 -50,-21 -24,-15 -31,-25 -24,-32 8,-8 17,-5 33,10 13,11 38,26 56,33 36,14 51,30 28,30 -8,0 -18,-4 -21,-10 z"
       id="path57" />
    <path
       d="m 1580,682 c 0,-21 80,-162 92,-162 4,0 -11,35 -34,78 -44,83 -58,103 -58,84 z"
       id="path58" />
    <path
       d="m 2456,622 c -8,-16 -22,-34 -30,-41 -18,-15 -21,-41 -6,-41 10,0 70,87 70,102 0,18 -20,6 -34,-20 z"
       id="path59" />
    <path
       d="m 1964,578 c 3,-13 6,-45 7,-73 1,-48 2,-48 8,-14 9,45 2,109 -11,109 -6,0 -8,-10 -4,-22 z"
       id="path60" />
    <path
       d="m 2124,545 c -10,-25 4,-45 31,-45 14,0 25,5 25,10 0,6 -6,10 -12,9 -31,-4 -39,2 -33,21 7,23 -3,27 -11,5 z"
       id="path61" />
    <path
       d="M 2,28 C 4,13 13,4 28,2 55,-2 56,11 32,33 7,56 -2,54 2,28 Z"
       id="path62" />
  </g>
</svg>
