<?xml version="1.0" encoding="UTF-8" standalone="no"?>
<svg
   version="1.0"
   width="300.000000pt"
   height="300.000000pt"
   viewBox="0 0 300.000000 300.000000"
   preserveAspectRatio="xMidYMid meet"
   id="svg3"
   sodipodi:docname="flower.svg"
   inkscape:version="1.4 (86a8ad7, 2024-10-11)"
   xmlns:inkscape="http://www.inkscape.org/namespaces/inkscape"
   xmlns:sodipodi="http://sodipodi.sourceforge.net/DTD/sodipodi-0.dtd"
   xmlns="http://www.w3.org/2000/svg"
   xmlns:svg="http://www.w3.org/2000/svg">
  <defs
     id="defs3" />
  <sodipodi:namedview
     id="namedview3"
     pagecolor="#ffffff"
     bordercolor="#000000"
     borderopacity="0.25"
     inkscape:showpageshadow="2"
     inkscape:pageopacity="0.0"
     inkscape:pagecheckerboard="0"
     inkscape:deskcolor="#d1d1d1"
     inkscape:document-units="pt"
     inkscape:zoom="1.1543518"
     inkscape:cx="247.75809"
     inkscape:cy="88.794421"
     inkscape:window-width="1600"
     inkscape:window-height="871"
     inkscape:window-x="1911"
     inkscape:window-y="114"
     inkscape:window-maximized="1"
     inkscape:current-layer="g3" />
  <metadata
     id="metadata1">
Created by potrace 1.10, written by Peter Selinger 2001-2011
</metadata>
  <g
     transform="matrix(0.04302716,0,0,-0.04130265,-20.506025,115.10542)"
     fill="#000000"
     stroke="none"
     id="g3">
    <path
       d="m 1506.5936,2714.6953 c -8.7228,-20.254 -8.7228,-34.4317 0,-59.7491 13.569,-39.4952 15.5073,-360.5198 2.9076,-497.2337 -8.7228,-90.1301 -39.7375,-261.2756 -46.522,-254.1867 -1.9384,2.0253 3.8768,48.6093 12.5997,103.2949 22.2919,139.7521 22.2919,346.3421 0,424.3197 -31.9839,113.4219 -86.2596,167.0949 -167.6732,167.0949 -46.522,0 -73.6599,-19.2413 -104.6746,-74.9395 l -24.2302,-43.5459 -85.2905,32.4062 c -205.47239,80.0029 -284.94756,40.5078 -269.44022,-134.6886 5.81527,-58.7364 4.84606,-63.7998 -15.50734,-71.9014 -25.19944,-10.127 -67.84466,-55.6984 -84.32123,-89.1173 -5.81525,-12.1523 -10.6613,-48.6094 -10.6613,-81.0157 0,-68.8633 29.07629,-140.7647 88.19806,-223.8059 l 38.76838,-53.6728 -27.13787,8.1016 c -49.42968,14.1778 -188.99584,9.1142 -220.97975,-9.1144 -39.73759,-22.2792 -62.02941,-49.622 -68.81387,-86.0791 L 518,1740.4817 l 53.30652,5.0634 c 57.18336,5.0635 109.52067,-9.1142 157.01193,-41.5205 15.50735,-10.1269 20.3534,-16.2032 9.69209,-12.1524 -10.6613,4.0508 -51.36809,10.127 -89.16726,12.1524 -75.59834,6.0762 -128.90486,-8.1016 -128.90486,-34.4317 0,-38.4825 122.12038,-114.4346 291.73204,-181.2726 l 74.62913,-29.3682 -35.86074,-20.2539 c -47.49127,-28.3555 -79.47519,-92.1554 -85.29044,-171.1457 -4.84605,-56.7109 -2.90762,-65.8252 19.38419,-93.168 24.23024,-29.3681 26.16865,-29.3681 120.18198,-28.3555 84.32122,0 103.70542,4.0508 172.51932,33.4189 100.7978,42.5333 196.7495,105.3204 292.7012,192.4124 l 77.5368,68.8632 11.6304,-147.8535 c 18.4151,-237.9837 47.4913,-501.28461 74.6292,-667.36677 25.1994,-157.98055 65.9062,-346.34206 83.352,-379.76104 20.3534,-40.50784 16.4766,-5.06348 -11.6305,105.32039 -40.7067,164.05683 -81.4136,424.3197 -67.8446,438.49747 6.7844,7.08876 70.7523,11.13957 182.2113,11.13957 h 171.5501 l 62.9987,32.40635 c 79.4751,40.50784 200.6262,141.77743 319.8391,266.33903 88.198,92.1554 152.1658,170.133 144.4121,175.1964 -1.9384,1.0127 -73.6599,0 -158.9503,-3.0381 -152.1659,-5.0634 -157.012,-6.0761 -221.9489,-39.4951 -49.4297,-25.3175 -94.9826,-62.7872 -174.4578,-141.7774 -210.3185,-211.65358 -316.9315,-299.75814 -335.3464,-277.47875 -3.8769,4.05068 -14.5382,86.07909 -23.261,180.2598 -8.723,95.19345 -18.4151,186.33605 -21.3227,204.56465 -3.8769,30.3809 -2.9076,32.4062 31.0147,39.4951 18.415,4.0508 65.9063,4.0508 103.7055,0 38.7683,-3.0381 118.2435,-8.1015 176.3961,-12.1523 98.8593,-5.0635 109.5206,-4.0508 150.2275,18.2286 60.091,32.4062 79.4751,73.9268 75.5983,160.0059 -5.8153,111.3965 -66.8755,170.133 -188.0267,180.2599 -61.0601,5.0636 -192.8727,-18.2284 -255.8713,-44.5586 l -33.9224,-14.1778 24.2303,19.2413 c 24.2303,20.2539 63.9679,33.419 276.2247,91.1427 138.597,38.4825 239.3947,85.0664 272.3478,125.5743 46.5221,58.7363 23.2611,158.9933 -53.3065,226.8439 -33.9222,31.3936 -120.182,56.711 -160.8887,49.6221 l -32.9531,-7.0889 38.7684,76.965 c 32.9531,66.8379 37.7992,86.0791 37.7992,144.8155 0,83.041 -21.3227,131.6505 -67.8447,156.9678 -67.8447,36.4572 -126.9665,8.1016 -185.119,-87.0918 -20.3534,-34.4317 -37.7992,-60.7618 -37.7992,-57.7237 0,37.4698 55.2449,166.0822 93.0441,218.7424 30.0455,40.5079 30.0455,68.8633 -0.9693,83.041 -38.7683,18.2286 -60.0909,14.1778 -92.0748,-15.1903 -40.7068,-39.4953 -67.8447,-127.5998 -80.4444,-267.3518 -8.7228,-92.1554 -14.5382,-120.5109 -27.1379,-128.6124 -15.5073,-10.127 -16.4765,4.0507 -12.5997,223.8057 2.9076,129.6252 9.6921,252.1614 15.5073,273.4281 7.7537,27.3428 7.7537,44.5586 0,62.7871 -14.538,32.4063 -28.107,32.4063 -42.6452,0 z m 31.0148,-36.4571 c 0,-17.2158 -3.8769,-28.3555 -9.6921,-24.3047 -4.8461,3.0381 -9.6921,17.2158 -9.6921,31.3936 0,13.1651 4.846,24.3047 9.6921,24.3047 5.8152,0 9.6921,-14.1777 9.6921,-31.3936 z M 1382.5348,2555.702 c 93.0441,-65.8252 121.1512,-294.6946 72.6908,-579.2622 -8.723,-50.6348 -19.3843,-134.6885 -23.261,-187.3488 -5.8154,-75.9521 -8.723,-32.4062 -9.6922,194.4377 -0.9692,254.1867 0.9692,294.6946 14.5382,316.9738 13.5689,20.2539 14.5381,30.3809 5.8152,49.6222 -23.261,51.6475 -71.7215,10.127 -51.3681,-43.5459 7.7536,-22.2794 21.3226,-593.4399 13.569,-586.3511 -0.9693,2.0254 -13.569,43.546 -27.1379,93.168 -25.1995,89.1173 -61.0602,327.1009 -67.8447,445.5864 -3.8769,65.8251 -25.1994,96.206 -50.3989,74.9395 -19.3842,-17.2158 -15.5073,-45.5714 10.6613,-74.9395 19.3842,-21.2667 25.1995,-43.5459 33.9224,-129.6252 18.4149,-165.0694 44.5837,-288.6184 83.352,-391.9133 40.7068,-109.3712 44.5837,-134.6887 24.2303,-138.7394 -19.3843,-3.038 -91.1058,87.0919 -187.0575,234.9454 -42.6452,66.8381 -95.9517,146.841 -118.2436,177.2219 -22.2918,30.3809 -46.522,68.8634 -54.2757,86.0792 -15.5073,34.4316 -44.5836,45.5713 -53.3065,20.2539 -6.78447,-17.2158 20.3534,-55.6983 39.7376,-55.6983 11.6305,0 65.9062,-75.9523 178.3345,-249.1232 32.9531,-50.6348 85.2905,-124.5617 117.2744,-164.0568 75.5983,-94.1807 71.7214,-108.3585 -22.2918,-82.0284 -219.0414,62.7872 -461.34375,261.2756 -551.48024,451.6625 -54.27573,116.46 -34.89154,220.7678 51.3681,266.339 50.3989,27.3428 72.69072,25.3175 142.47379,-11.1396 111.45905,-57.7236 244.24085,-238.9963 401.25275,-549.894 31.9839,-64.8126 61.0601,-115.4474 63.9678,-113.422 7.7537,8.1016 -62.0294,153.9299 -135.6893,283.555 -124.0589,219.755 -168.6425,344.3166 -160.8888,454.7004 3.8768,53.673 7.7537,62.7873 44.5836,100.257 22.2918,22.2793 40.7069,44.5587 40.7069,49.6221 0,4.0508 13.5689,24.3047 30.0455,44.5586 25.1993,30.3809 35.8607,35.4445 71.7214,35.4445 26.1686,0 52.3374,-8.1016 72.6907,-22.2794 z m 352.7922,-4.0508 c 23.261,-9.1143 18.4151,-29.3682 -17.4457,-78.9902 -31.0147,-42.5333 -63.9678,-129.6252 -78.506,-204.5647 -2.9076,-17.2158 -16.4765,-42.5332 -30.0455,-54.6856 l -23.261,-23.292 v 40.5078 c 0,52.6603 25.1995,206.59 40.7068,243.0471 26.1686,63.7998 67.8447,94.1808 108.5514,77.9776 z m -689.1078,-39.4951 c 23.261,-8.1017 59.1217,-22.2793 79.4752,-31.3936 34.8915,-15.1904 35.8607,-16.2032 16.4765,-30.3809 -48.4605,-35.4443 -51.3681,-154.9425 -7.7537,-282.5422 22.2918,-65.8253 23.2611,-68.8633 3.8769,-40.5078 -67.8447,100.2569 -183.18064,186.3361 -253.93292,190.3868 -32.95313,2.0254 -34.89154,4.0508 -40.7068,45.5713 -9.6921,70.8888 0.9692,125.5744 31.0147,152.9172 23.26102,20.2539 32.95312,23.292 78.50596,17.2158 28.10708,-3.0381 69.78306,-13.165 93.04416,-21.2666 z m 842.2429,-135.7013 c 29.0764,-27.3428 31.984,-34.4317 34.8916,-107.3458 3.8769,-73.9268 1.9384,-82.0284 -31.0147,-150.8918 -19.3842,-39.4951 -62.9986,-112.4092 -96.921,-161.0186 -66.8753,-98.2315 -279.1323,-362.5452 -285.9168,-356.469 -7.7536,9.1142 163.7965,356.469 201.5957,408.1166 23.261,30.3808 33.9223,52.6601 26.1686,52.6601 -29.0762,0 -144.4122,-205.5773 -210.3185,-372.6722 -17.4458,-46.584 -33.9223,-80.0029 -35.8607,-74.9395 -5.8152,18.2286 34.8915,180.2599 65.9062,263.301 33.9224,91.1427 91.1058,184.3107 143.443,231.9074 19.3842,17.2159 31.9839,35.4444 27.1379,40.5079 -11.6305,13.165 -113.3975,-107.3458 -148.2891,-175.1964 -39.7376,-77.9776 -88.198,-231.9075 -96.9209,-304.8216 -4.846,-44.5586 -7.7536,-52.6602 -15.5074,-37.4697 -17.4458,32.4062 -9.692,156.9678 17.4458,277.4787 14.5381,63.7998 28.1071,138.7394 31.0148,165.0694 3.8767,35.4445 10.6612,51.6476 26.1686,59.7491 48.4604,25.3174 108.5514,87.0919 147.3198,150.8917 77.5368,123.5489 135.6894,150.8917 199.6571,91.1427 z m -457.4668,-46.584 c 0,-26.3301 -13.5689,-33.419 -24.2302,-15.1905 -8.7229,14.1778 0.9692,40.5078 14.5381,40.5078 4.846,0 9.6921,-11.1395 9.6921,-25.3173 z m -135.6893,-42.5333 c 0,-24.3046 -24.2302,-9.1142 -27.1378,17.2158 -2.9077,21.2667 -1.9385,22.2794 11.6304,11.1397 8.723,-7.0889 15.5074,-20.2539 15.5074,-28.3555 z m 682.3235,-277.4787 c 55.2449,-14.1778 105.6438,-58.7363 131.8124,-115.4474 55.245,-119.4981 -27.1379,-180.2598 -368.2995,-268.3644 -66.8755,-17.2158 -140.5354,-42.5333 -163.7965,-56.7111 -23.261,-13.165 -44.5836,-22.2792 -47.4912,-19.2411 -9.6921,9.1142 131.8125,141.7774 199.6571,187.3488 37.7992,25.3173 68.8139,49.622 68.8139,54.6856 1.9384,25.3173 -120.1819,-60.7619 -212.2569,-150.8918 -80.4444,-77.9776 -64.937,-54.6856 56.2141,88.1046 44.5837,51.6475 110.4899,135.7013 145.3815,187.3488 35.8607,50.6348 71.7215,95.1934 79.4752,97.2188 27.1379,9.1142 68.8138,7.0889 110.4899,-4.0508 z M 804.886,1847.8274 c 47.49126,-9.1142 63.96782,-18.2286 106.61303,-60.7618 103.70547,-105.3204 267.50187,-203.5519 390.59147,-236.9708 l 56.2141,-15.1904 -77.5368,4.0507 c -42.6451,3.038 -103.7054,12.1524 -135.6892,21.2666 -141.5047,38.4825 -340.1926,110.3838 -367.33047,131.6505 -62.99861,48.6095 -115.33593,69.8761 -177.36532,69.8761 -33.92234,1.0126 -61.0602,4.0507 -61.0602,8.1015 0,18.2286 53.30652,69.8761 80.44438,77.9776 43.61442,13.165 119.21276,13.165 185.11901,0 z m 59.12178,-218.7423 c 251.02522,-84.0537 331.46972,-104.3078 429.35972,-111.3966 48.4606,-3.0382 89.1673,-9.1143 89.1673,-14.1777 0,-4.0508 -31.9839,-15.1905 -69.7831,-25.3175 -54.2756,-14.1778 -108.5514,-17.2158 -230.6718,-17.2158 l -159.91956,1.0127 -99.82857,41.5206 c -171.55008,71.9014 -283.00916,136.7139 -283.00916,164.0567 0,15.1905 62.99862,28.3555 111.45908,22.2794 27.13787,-3.0381 123.08961,-30.3809 213.22609,-60.7618 z m 629.01692,-54.6856 c 28.1071,-23.292 31.984,-54.6856 9.6921,-88.1046 -29.0763,-43.5459 -110.4899,-15.1905 -110.4899,38.4824 0,24.3047 40.7068,70.8889 61.0602,70.8889 7.7537,0 25.1995,-9.1144 39.7376,-21.2667 z m 433.2366,-35.4444 c 54.2758,-33.419 76.5676,-77.9776 76.5676,-151.9044 0,-52.6602 -3.8769,-67.8507 -24.2303,-94.1807 -38.7683,-47.5968 -78.5059,-55.6984 -212.2568,-45.5714 -64.937,5.0635 -155.0735,9.1143 -202.5648,9.1143 -77.5368,0 -84.3213,2.0254 -85.2904,20.254 0,11.1395 -2.9077,52.6601 -6.7844,93.1679 -7.7538,72.9142 -7.7538,72.9142 19.3841,85.0665 14.5381,6.0762 29.0763,19.2412 31.9839,29.3682 5.8152,19.2413 56.2141,41.5205 145.3815,64.8125 82.3828,22.2794 214.1952,16.2033 257.8096,-10.1269 z m -520.4655,-72.9141 c 14.5382,-18.2286 13.569,-21.2666 -30.0455,-63.7998 -101.7669,-99.2443 -252.9636,-192.4124 -365.3919,-226.8439 -37.79917,-12.1525 -79.47517,-16.2033 -128.90485,-13.1651 -92.0749,5.0634 -103.70542,17.2157 -96.92095,106.333 4.84605,72.9142 28.10707,119.4982 75.59834,152.9172 31.01471,23.292 38.76837,24.3047 154.10426,19.2411 137.6278,-5.0634 267.5019,5.0636 324.6853,27.3429 50.3988,19.2413 47.4911,19.2413 66.8753,-2.0254 z m 870.3501,-255.1994 c -80.4444,-45.5713 -114.3667,-68.8633 -273.317,-188.3615 -61.0603,-45.57136 -132.7817,-94.18069 -159.9196,-108.35846 -53.3065,-27.3428 -219.0413,-90.13003 -223.8874,-85.06648 -1.9384,2.02534 33.9223,37.46976 81.4136,78.99033 46.5221,40.50784 125.9973,115.44721 176.3962,166.08221 124.0588,123.5488 125.9972,124.5616 190.9343,152.917 48.4604,20.2539 72.6907,24.3047 167.6731,24.3047 h 111.4592 z m 95.9518,22.2793 C 2356.5903,1202.7401 2137.549,987.0357 2064.8584,929.31202 1940.7995,831.0805 1857.4475,802.72509 1722.7273,813.86465 l -71.7214,5.06355 76.5675,27.3428 c 111.459,39.4951 179.3038,77.9776 304.3317,174.1837 61.0603,47.5967 130.8433,98.2315 155.0736,114.4347 43.6144,29.3682 187.0574,115.4474 191.9034,116.46 0.9693,0 -1.9383,-8.1015 -6.7844,-18.2285 z"
       id="path3"
       style="stroke-width:0.990715" />
  </g>
</svg>
