<?xml version="1.0" encoding="UTF-8" standalone="no"?>
<svg
   version="1.0"
   width="300.000000pt"
   height="404.000000pt"
   viewBox="0 0 300.000000 404.000000"
   preserveAspectRatio="xMidYMid meet"
   id="svg57"
   sodipodi:docname="little.svg"
   inkscape:version="1.4 (86a8ad7, 2024-10-11)"
   xmlns:inkscape="http://www.inkscape.org/namespaces/inkscape"
   xmlns:sodipodi="http://sodipodi.sourceforge.net/DTD/sodipodi-0.dtd"
   xmlns="http://www.w3.org/2000/svg"
   xmlns:svg="http://www.w3.org/2000/svg">
  <defs
     id="defs57" />
  <sodipodi:namedview
     id="namedview57"
     pagecolor="#ffffff"
     bordercolor="#000000"
     borderopacity="0.25"
     inkscape:showpageshadow="2"
     inkscape:pageopacity="0.0"
     inkscape:pagecheckerboard="0"
     inkscape:deskcolor="#d1d1d1"
     inkscape:document-units="pt"
     inkscape:zoom="1.5464109"
     inkscape:cx="199.81753"
     inkscape:cy="273.21329"
     inkscape:window-width="1920"
     inkscape:window-height="1051"
     inkscape:window-x="-9"
     inkscape:window-y="-9"
     inkscape:window-maximized="1"
     inkscape:current-layer="svg57" />
  <metadata
     id="metadata1">
Created by potrace 1.10, written by Peter Selinger 2001-2011
</metadata>
  <g
     transform="matrix(0.0277335,0,0,-0.02988687,-9.606121,117.49535)"
     fill="#000000"
     stroke="none"
     id="g57">
    <path
       d="m 2414,3931 c -4,-4 -36,-8 -81,-10 -13,-1 -23,-7 -23,-16 0,-8 -5,-15 -11,-15 -5,0 -7,5 -4,10 3,6 -3,10 -14,10 -15,0 -21,-7 -22,-22 -1,-17 -2,-19 -6,-5 -5,20 -4,20 -40,5 -15,-6 -38,-10 -51,-9 -12,1 -38,-3 -57,-9 -25,-8 -33,-16 -29,-28 5,-15 4,-15 -8,-2 -7,9 -22,14 -32,12 -15,-3 -16,-6 -5,-13 11,-8 9,-9 -6,-8 -11,2 -45,-3 -76,-10 -30,-6 -69,-14 -85,-17 -16,-3 -62,-12 -103,-19 -55,-11 -78,-12 -88,-4 -9,8 -13,8 -13,1 0,-6 -11,-9 -26,-6 -14,3 -23,1 -21,-3 3,-4 -9,-9 -26,-9 -18,-1 -63,-13 -102,-27 -38,-13 -73,-23 -77,-20 -5,2 -8,-1 -8,-7 0,-7 7,-10 15,-6 8,3 15,1 15,-3 0,-16 -28,-20 -34,-5 -8,21 -31,17 -64,-11 -16,-13 -65,-41 -108,-61 -44,-20 -93,-47 -110,-60 -17,-12 -60,-37 -95,-55 -67,-34 -91,-56 -84,-76 5,-16 -33,-43 -62,-43 -14,0 -28,-11 -40,-30 -9,-16 -21,-30 -26,-30 -4,0 -6,-4 -3,-9 9,-13 32,-8 56,14 14,13 17,21 9,26 -10,6 124,13 224,11 20,0 37,4 37,9 0,7 -40,9 -104,7 -57,-2 -102,0 -99,5 2,4 22,16 44,27 21,11 39,23 39,26 0,3 -6,2 -12,-2 -9,-5 -10,-4 -3,4 6,6 24,12 40,14 18,2 29,8 27,16 -2,9 4,11 18,7 11,-4 20,-2 20,4 0,6 6,11 14,11 7,0 30,11 50,25 21,14 42,22 48,19 6,-4 9,-3 6,2 -3,5 5,17 17,27 15,10 26,13 30,7 10,-16 25,-12 25,7 0,9 3,14 6,11 3,-3 16,5 30,19 19,19 32,24 54,20 19,-4 30,-2 34,8 3,10 0,12 -12,8 -9,-3 -14,-3 -10,2 4,4 20,9 35,10 21,1 29,7 31,23 2,15 10,22 25,22 20,-1 20,-2 5,-11 -24,-14 -22,-36 5,-53 39,-25 148,-57 170,-50 26,8 117,101 117,120 0,8 -16,12 -55,10 -55,-1 -76,10 -32,18 36,6 230,38 261,42 16,2 32,6 34,9 3,3 11,-3 19,-13 9,-12 12,-13 8,-2 -4,11 3,15 22,16 16,1 37,4 48,7 11,3 22,6 25,6 2,1 -1,6 -8,13 -17,17 -15,28 4,28 8,0 13,-4 10,-9 -3,-5 1,-14 9,-21 12,-10 15,-10 15,3 0,9 5,19 12,23 7,4 8,3 4,-5 -4,-6 0,-14 9,-18 10,-3 21,0 26,8 5,8 9,10 9,6 0,-5 7,-1 16,7 11,11 20,13 33,6 13,-6 24,-5 39,6 12,8 22,11 22,5 0,-6 17,-8 43,-4 23,3 50,6 60,7 20,0 23,12 5,19 -8,3 -5,6 6,6 12,1 16,6 13,15 -4,10 -1,13 9,9 11,-4 12,-9 5,-16 -16,-16 -13,-26 7,-22 9,1 22,-7 29,-19 12,-21 12,-21 13,0 0,11 -6,26 -12,33 -11,11 -9,11 11,1 13,-6 26,-21 28,-31 3,-10 9,-19 13,-19 11,0 60,-104 60,-127 0,-12 7,-23 15,-27 8,-3 15,-14 15,-24 0,-10 22,-61 48,-113 27,-53 46,-101 44,-107 -2,-7 0,-12 5,-12 14,0 40,-52 48,-95 4,-22 12,-43 18,-47 9,-6 9,-12 0,-27 -10,-15 -9,-22 1,-30 7,-6 16,-8 19,-4 4,3 7,-5 7,-18 0,-19 -2,-21 -10,-9 -7,11 -10,7 -10,-17 0,-17 5,-35 12,-39 6,-4 8,-3 5,2 -3,6 -2,16 4,24 6,11 9,6 9,-17 0,-18 4,-33 10,-33 5,0 9,-3 8,-7 -1,-5 4,-39 12,-78 14,-71 15,-128 10,-542 -1,-176 -5,-235 -15,-243 -9,-7 -27,-8 -57,-1 -23,5 -74,14 -113,21 -123,20 -138,26 -164,69 -14,22 -29,38 -33,35 -7,-5 31,113 53,161 23,51 66,185 60,185 -7,0 -81,-150 -81,-163 0,-13 -51,-116 -60,-122 -6,-3 -10,-15 -10,-26 0,-10 -18,-53 -40,-95 -31,-59 -40,-88 -40,-125 0,-36 -4,-49 -14,-49 -8,0 -18,5 -21,10 -3,6 -11,10 -16,10 -6,0 -7,-4 -4,-10 4,-6 -7,-10 -27,-10 h -34 v 88 c -1,49 -6,97 -12,108 -11,18 -11,17 -13,-6 0,-14 -3,-36 -5,-50 -2,-14 -7,-71 -10,-127 -5,-82 -10,-104 -23,-108 -9,-3 -29,-23 -46,-45 -16,-21 -33,-39 -37,-40 -14,0 -48,34 -48,50 0,8 -30,46 -66,84 -71,75 -77,86 -105,191 l -18,70 5,-64 c 3,-36 14,-85 24,-109 19,-42 137,-190 190,-239 l 25,-23 -27,-20 c -23,-18 -25,-24 -17,-52 5,-17 14,-35 21,-40 8,-4 -3,-8 -27,-8 -22,0 -49,6 -60,14 -11,7 -22,14 -25,13 -3,0 -16,4 -29,8 -19,6 -29,3 -43,-15 -10,-13 -16,-25 -13,-29 3,-3 10,1 15,9 6,8 10,11 10,6 0,-6 5,-5 11,1 17,17 49,-16 49,-51 0,-17 9,-40 21,-52 19,-21 20,-26 9,-54 -7,-16 -17,-30 -23,-30 -6,0 -8,-3 -5,-6 4,-3 -1,-14 -10,-23 -135,-144 -174,-179 -224,-203 -68,-33 -68,-33 -68,-9 0,22 -17,37 -28,26 -4,-4 -2,-10 5,-12 7,-2 9,-11 6,-19 -5,-15 -28,-19 -36,-6 -2,4 -3,2 -1,-4 1,-5 -25,-21 -57,-34 -32,-12 -59,-27 -59,-31 0,-9 97,26 117,43 7,5 20,8 30,6 11,-2 -10,-15 -52,-32 -38,-15 -89,-36 -112,-47 -41,-18 -49,-16 -44,14 2,14 -27,62 -61,99 -19,20 -47,55 -61,77 -15,23 -32,41 -37,41 -10,0 -72,-33 -105,-56 -40,-28 10,-14 54,15 25,17 49,27 54,24 5,-3 3,-9 -4,-13 -12,-8 10,-44 62,-96 26,-27 49,-71 49,-95 0,-10 5,-21 11,-24 6,-4 8,-13 5,-21 -3,-7 -1,-16 3,-19 5,-3 11,1 14,9 3,8 19,17 36,21 17,4 33,11 36,16 4,5 17,9 31,9 13,0 45,11 72,23 187,93 220,113 262,157 37,38 52,47 83,49 36,2 37,1 37,-34 0,-20 4,-44 9,-53 10,-19 23,-92 16,-92 -2,0 -12,16 -21,35 -18,39 -34,46 -31,15 1,-11 8,-20 15,-20 10,0 13,-8 10,-24 -3,-14 -1,-31 4,-38 7,-9 8,-7 4,7 -5,18 -4,17 14,-4 11,-13 21,-32 21,-42 3,-47 5,-55 13,-68 6,-10 5,-12 -2,-7 -13,8 -12,-20 2,-42 7,-12 -8,-168 -21,-222 -6,-21 -10,-14 -29,45 -14,46 -22,61 -23,44 -2,-40 10,-89 20,-83 5,3 9,0 9,-5 0,-6 -4,-11 -9,-11 -6,0 -6,-12 -2,-27 4,-16 6,-34 5,-40 -1,-7 -2,-17 -3,-23 0,-5 -8,-10 -16,-10 -12,0 -13,4 -6,18 7,13 6,23 -1,30 -9,9 -8,12 2,12 9,0 11,3 5,8 -5,4 -10,16 -10,26 0,11 -6,21 -13,24 -9,3 -11,-4 -8,-22 3,-14 0,-26 -5,-26 -5,0 -9,-5 -9,-11 0,-5 4,-7 10,-4 5,3 10,1 10,-4 0,-6 -5,-11 -11,-11 -5,0 -8,-3 -6,-7 3,-5 8,-42 11,-84 3,-42 10,-88 17,-103 10,-21 10,-31 -1,-51 -7,-14 -20,-25 -27,-25 -8,0 -12,-4 -9,-9 3,-5 -4,-20 -15,-35 l -20,-26 -54,30 c -34,19 -68,30 -93,30 -22,0 -52,6 -67,14 -28,15 -59,11 -49,-6 3,-5 8,-7 11,-5 2,3 20,-1 38,-9 19,-8 49,-14 67,-14 18,0 58,-13 89,-29 l 56,-27 24,20 c 13,12 25,24 27,29 4,14 17,4 14,-13 -1,-9 4,-17 12,-17 14,0 16,14 4,32 -4,6 -3,17 2,25 4,7 6,19 4,25 -3,7 4,15 16,18 17,4 20,12 18,54 -1,26 0,53 4,58 4,6 8,43 9,83 2,40 6,72 10,72 4,0 14,35 24,78 9,42 19,88 22,102 4,14 8,33 10,44 2,10 -4,53 -13,95 -9,42 -18,85 -19,96 -2,11 -8,48 -15,83 -6,35 -13,107 -15,160 -2,83 0,101 16,123 23,33 23,39 2,54 -14,11 -9,14 37,20 52,7 90,23 90,37 0,3 -11,19 -24,35 -36,44 -42,72 -17,89 22,16 29,44 10,44 -12,0 63,70 112,105 31,22 38,45 14,45 -8,0 -15,5 -15,11 0,5 -6,7 -12,3 -8,-4 -10,-3 -5,2 5,5 44,9 88,10 43,0 82,4 86,7 4,4 9,34 11,66 5,68 40,126 63,104 7,-7 22,-13 34,-13 12,0 25,-4 30,-8 6,-5 42,-14 80,-21 39,-7 103,-20 143,-27 65,-13 76,-13 106,1 48,23 53,47 44,233 -1,34 -6,62 -10,62 -4,0 -3,11 2,24 5,13 9,33 8,43 0,10 2,74 6,142 6,97 4,126 -6,132 -10,7 -10,9 -1,9 9,0 11,16 8,58 -8,84 -49,258 -67,279 -6,7 -7,13 -3,13 4,0 2,7 -5,15 -7,8 -10,15 -7,15 6,0 -18,69 -79,230 -14,36 -29,79 -33,95 -17,61 -65,149 -101,185 -3,3 -6,12 -8,20 -2,8 -19,48 -38,88 -27,54 -41,72 -57,74 -48,3 -109,3 -113,-1 z m -754,-201 c 0,-5 -22,-10 -48,-10 -27,0 -56,-6 -65,-13 -15,-10 -11,-12 28,-9 36,3 45,1 45,-12 0,-9 6,-13 15,-10 8,4 12,11 8,18 -4,6 2,4 12,-4 10,-8 16,-10 12,-3 -9,14 35,29 52,18 20,-12 11,-22 -31,-35 -67,-21 -88,-23 -88,-6 0,8 -6,16 -12,19 -17,5 -49,-3 -44,-12 2,-3 -2,-12 -10,-19 -21,-19 -27,7 -15,70 0,4 7,5 15,2 8,-3 17,-1 21,5 8,14 105,14 105,1 z"
       id="path1" />
    <path
       d="m 2510,3745 c 0,-8 5,-15 10,-15 6,0 10,5 10,11 0,8 5,8 15,-1 12,-10 15,-10 15,4 0,10 -9,16 -25,16 -16,0 -25,-6 -25,-15 z"
       id="path2" />
    <path
       d="m 2443,3698 c -54,-12 -75,-35 -49,-54 17,-12 21,-11 32,4 13,16 14,15 20,-5 6,-21 26,-34 23,-15 -4,23 2,52 10,48 5,-3 12,1 15,10 4,9 11,12 18,7 7,-4 21,-9 32,-10 14,-3 16,0 8,10 -13,16 -54,18 -109,5 z"
       id="path3" />
    <path
       d="m 2559,3598 c -1,-17 -2,-19 -6,-6 -5,19 -36,19 -55,0 -12,-12 -2,-16 47,-15 39,1 43,3 38,23 -7,27 -23,25 -24,-2 z"
       id="path4" />
    <path
       d="m 1144,3378 c -3,-4 -2,-8 3,-7 4,1 10,0 13,-1 3,-1 16,-3 30,-5 14,-2 48,-8 77,-13 29,-5 50,-6 48,-2 -3,4 -22,10 -42,14 -21,4 -57,10 -81,15 -24,5 -45,5 -48,-1 z"
       id="path5" />
    <path
       d="m 1919,3327 c -24,-5 -53,-9 -65,-8 -16,0 -27,-15 -52,-77 -40,-99 -40,-109 -2,-106 26,2 30,-1 30,-23 0,-26 0,-26 68,-20 55,5 168,40 187,59 12,11 -17,163 -33,176 -17,13 -61,13 -133,-1 z m 105,-23 c 4,-9 -12,-12 -57,-11 -84,1 -103,-7 -118,-51 -12,-37 -27,-54 -40,-46 -11,7 32,84 57,101 15,10 40,14 69,11 25,-2 45,-1 45,2 0,11 40,5 44,-6 z m 24,-49 c 3,-3 0,-5 -6,-5 -8,0 -9,-8 -4,-22 11,-30 4,-58 -14,-58 -8,0 -14,-5 -14,-11 0,-5 -4,-8 -8,-5 -5,3 -22,-2 -38,-11 -60,-31 -138,-9 -118,35 4,9 6,20 6,25 -1,4 2,7 7,7 5,0 11,7 13,16 4,23 64,41 122,37 27,-1 52,-5 54,-8 z"
       id="path6" />
    <path
       d="m 665,3271 c -147,-61 -275,-125 -267,-133 4,-4 52,14 107,41 55,27 111,52 125,56 14,4 45,18 70,30 25,12 56,27 70,33 21,9 22,11 5,11 -11,0 -60,-17 -110,-38 z"
       id="path7" />
    <path
       d="m 811,3119 c -34,-18 -82,-17 -89,3 -6,13 -72,10 -72,-4 0,-10 -2,-10 -8,0 -9,14 -192,15 -192,0 0,-7 25,-12 58,-11 12,1 13,-3 16,-46 2,-39 14,-31 13,8 -1,23 3,41 8,42 6,0 20,2 32,3 12,1 20,-1 17,-6 -3,-4 -14,-8 -24,-8 -14,0 -18,-5 -14,-22 9,-40 9,-138 1,-138 -5,0 -7,17 -5,37 2,30 -1,38 -15,41 -9,2 -17,-2 -17,-8 0,-6 5,-8 10,-5 6,4 10,-13 10,-44 0,-29 -5,-51 -11,-51 -5,0 -7,5 -4,10 3,6 -2,10 -12,11 -10,0 -13,3 -5,6 18,7 15,40 -5,52 -10,6 -12,11 -6,11 8,0 12,14 11,40 -1,36 -4,40 -27,40 -25,-1 -25,-1 -7,-15 11,-8 17,-17 14,-20 -9,-10 -38,25 -38,45 0,11 -6,18 -12,16 -7,-1 -10,-1 -5,1 17,10 5,20 -18,15 -27,-5 -30,-12 -17,-40 39,-79 68,-131 87,-152 12,-14 25,-33 28,-42 4,-10 13,-15 25,-11 11,2 23,0 26,-6 4,-6 16,-11 26,-11 11,0 24,-12 32,-30 7,-16 17,-30 21,-30 5,0 5,-5 1,-12 -5,-7 -2,-9 7,-6 15,6 19,-7 19,-62 0,-14 16,-45 35,-69 37,-47 42,-69 24,-120 -7,-20 -8,-36 -1,-44 14,-17 25,-117 13,-117 -5,0 -8,10 -6,23 4,21 4,21 -10,3 -25,-33 -19,-66 13,-72 24,-5 28,-10 24,-30 -4,-21 0,-24 23,-24 23,0 26,3 21,23 -3,12 -6,28 -6,35 0,6 -3,11 -7,11 -19,-3 -47,3 -35,8 6,2 12,15 12,27 0,12 5,27 12,34 9,9 7,13 -5,18 -9,3 -17,11 -17,16 0,6 6,5 15,-2 9,-8 15,-9 15,-2 0,6 -5,14 -11,17 -5,4 -8,21 -5,38 4,22 3,26 -2,13 -8,-17 -9,-18 -15,-3 -3,9 -2,19 4,23 5,3 9,13 8,22 -4,40 0,45 19,31 16,-13 16,-13 0,6 -9,11 -16,34 -16,51 1,17 -4,39 -10,49 -8,15 -7,22 4,30 16,11 10,40 -9,48 -7,2 -19,-2 -27,-11 -12,-14 -11,-15 8,-10 14,4 22,2 22,-7 0,-7 -9,-15 -21,-18 -24,-6 -37,17 -20,37 9,11 8,15 -5,20 -9,4 -14,9 -11,12 3,3 -7,19 -23,34 -16,15 -26,30 -24,33 3,3 -11,15 -30,27 -36,22 -47,34 -23,24 8,-3 14,2 14,10 0,8 -8,13 -19,11 -13,-3 -18,2 -18,18 -1,12 -2,43 -4,69 -3,41 -1,48 18,54 11,4 24,12 28,18 5,7 8,5 8,-6 0,-9 4,-20 10,-23 6,-4 7,1 3,11 -5,14 -3,16 11,11 11,-4 19,-1 23,9 5,12 7,13 14,3 5,-8 23,-13 46,-12 21,2 32,0 26,-3 -18,-8 -16,-27 2,-21 11,5 13,0 9,-22 -5,-25 1,-34 51,-75 59,-48 70,-53 80,-36 8,13 35,13 35,-1 0,-5 -4,-7 -10,-4 -5,3 -10,1 -10,-4 0,-15 57,-14 62,1 3,7 7,2 11,-11 4,-18 -2,-31 -27,-55 -18,-17 -36,-38 -42,-46 -5,-9 3,-2 19,15 l 27,30 -5,-29 c -2,-16 -9,-32 -14,-35 -6,-4 -6,-12 -1,-21 7,-10 10,-11 10,-2 0,6 5,12 11,12 6,0 8,-7 5,-16 -4,-10 -2,-13 6,-8 7,5 9,0 6,-14 -4,-12 -2,-25 4,-28 10,-7 4,-89 -11,-142 -5,-17 -8,-32 -6,-34 2,-2 -7,-4 -20,-4 -19,-2 -22,3 -20,22 3,32 -11,40 -18,12 -4,-12 -9,-19 -12,-16 -4,3 -2,22 3,41 15,55 0,54 -19,0 -11,-30 -22,-47 -30,-45 -8,2 -11,1 -7,-3 4,-4 3,-18 -2,-31 -7,-18 -6,-22 5,-18 7,3 12,11 9,18 -3,7 2,19 11,26 20,17 20,-1 -1,-42 -9,-16 -11,-28 -6,-24 5,3 13,-14 16,-39 4,-25 11,-45 15,-45 8,0 71,-84 71,-94 0,-14 -19,-4 -23,12 -2,9 -4,0 -3,-20 0,-21 3,-38 7,-38 4,0 10,-7 13,-16 5,-14 4,-15 -8,-5 -8,7 -20,10 -26,6 -7,-4 -9,2 -6,19 3,14 0,26 -5,26 -5,0 -9,-10 -10,-22 0,-22 -1,-22 -9,-3 -8,19 -9,19 -9,1 -2,-36 -13,-7 -17,41 -2,26 -6,71 -8,98 -3,28 -5,54 -5,59 -1,6 -7,1 -15,-10 -9,-12 -11,-23 -5,-28 12,-13 12,-36 -1,-36 -5,0 -7,8 -3,18 3,9 3,14 -1,11 -12,-11 -16,-50 -4,-43 7,5 9,-2 5,-22 l -6,-29 14,30 14,30 1,-26 c 0,-14 -9,-34 -20,-44 -11,-10 -20,-26 -20,-37 0,-26 37,-60 59,-53 12,3 21,0 25,-11 3,-9 13,-14 21,-11 8,4 16,-2 20,-14 4,-10 10,-19 15,-19 4,0 10,-9 13,-20 3,-11 13,-20 22,-20 12,0 15,5 9,23 -4,12 -7,30 -6,40 0,9 -3,17 -8,17 -5,0 -7,6 -4,14 3,8 -3,23 -14,34 -11,11 -18,23 -15,26 3,3 17,-6 30,-20 36,-39 27,-10 -36,121 l -58,120 44,13 c 117,34 140,73 104,174 -13,35 -24,73 -26,86 -2,13 -8,29 -14,36 -8,10 -7,23 4,50 15,35 28,49 24,24 -9,-44 48,-176 88,-207 15,-12 48,-36 72,-54 23,-18 50,-45 60,-62 9,-16 18,-32 21,-35 16,-16 140,-280 140,-297 0,-11 7,-23 14,-26 26,-10 27,27 3,79 -13,27 -32,68 -42,92 -11,23 -22,42 -26,42 -4,0 -11,15 -15,32 -3,18 -14,38 -23,45 -14,10 -14,14 -2,25 12,11 13,10 7,-7 -5,-13 -4,-17 3,-10 5,6 13,22 16,38 6,21 4,27 -10,27 -9,0 -19,-9 -22,-20 -7,-27 -19,-25 -27,3 -7,30 -49,73 -105,108 -47,30 -101,104 -101,138 0,11 -4,22 -9,25 -5,3 -12,33 -16,66 -4,39 -11,58 -18,53 -6,-4 -8,0 -4,10 5,14 -3,16 -70,14 -54,-1 -77,2 -80,11 -3,6 -11,12 -19,12 -8,0 -14,7 -14,16 0,11 -6,14 -20,9 -11,-3 -20,-3 -21,2 0,4 -2,20 -4,36 -2,15 0,25 5,22 5,-3 18,8 29,24 37,51 24,69 -28,40 z m -84,-429 c 3,-11 9,-20 14,-20 5,0 9,-8 9,-17 0,-14 -6,-11 -25,12 -27,33 -31,45 -14,45 6,0 13,-9 16,-20 z"
       id="path8" />
    <path
       d="m 2774,3107 c -2,-7 -6,-34 -7,-59 -1,-25 -4,-44 -7,-41 -2,2 -12,-17 -21,-44 l -16,-48 -44,2 c -243,13 -250,12 -272,-8 -11,-10 -17,-19 -11,-19 5,0 2,-5 -6,-10 -8,-5 -10,-10 -4,-10 7,0 8,-15 3,-47 -4,-27 -8,-64 -8,-83 1,-36 3,-34 13,13 15,67 33,-2 42,-155 1,-32 7,-65 13,-75 11,-17 10,2 -3,135 -2,19 1,32 8,32 7,0 6,4 -2,9 -9,5 -14,29 -14,65 -1,57 -9,69 -27,39 -9,-16 -10,-16 -11,5 0,12 5,21 13,20 7,-2 13,9 15,25 2,16 9,30 15,32 34,12 78,13 146,3 107,-15 113,-15 144,-5 15,5 27,16 27,26 0,10 3,21 7,25 12,12 12,36 0,36 -9,0 -9,2 0,8 19,12 39,142 22,142 -5,0 -12,-6 -15,-13 z"
       id="path9" />
    <path
       d="m 2120,2905 c 0,-12 43,-85 48,-81 7,8 -29,86 -40,86 -4,0 -8,-2 -8,-5 z"
       id="path10" />
    <path
       d="m 2175,2779 c 4,-19 13,-45 20,-59 13,-25 28,-84 25,-96 -1,-4 3,-10 8,-13 12,-7 42,-147 42,-196 0,-25 4,-35 13,-32 18,6 10,97 -20,202 -14,50 -29,95 -33,100 -4,6 -15,34 -24,62 -20,61 -42,84 -31,32 z"
       id="path11" />
    <path
       d="m 2236,2782 c -6,-10 17,-29 72,-59 51,-28 60,-29 37,-3 -10,11 -26,20 -36,20 -10,0 -22,6 -26,13 -14,21 -41,38 -47,29 z"
       id="path12" />
    <path
       d="m 2605,2780 c -11,-5 -14,-9 -7,-9 6,-1 12,-11 13,-23 v -23 l 9,22 c 6,15 15,20 29,16 12,-3 19,-9 16,-13 -8,-14 -56,-252 -57,-288 -1,-22 -8,-37 -21,-44 -20,-10 -20,-11 -2,-24 10,-8 29,-14 42,-14 19,0 23,6 24,33 2,61 21,209 34,267 19,81 18,88 -6,95 -45,13 -54,13 -74,5 z"
       id="path13" />
    <path
       d="m 2316,2692 c -3,-5 -17,-7 -31,-4 -18,3 -25,0 -25,-12 0,-17 2,-18 51,-20 37,-1 47,10 26,31 -8,9 -17,11 -21,5 z"
       id="path14" />
    <path
       d="m 953,2590 c -8,-40 -7,-50 3,-50 10,0 14,15 14,50 0,28 -2,50 -4,50 -2,0 -8,-22 -13,-50 z"
       id="path15" />
    <path
       d="m 2093,2618 c -4,-7 -8,-16 -8,-19 0,-11 -51,-64 -66,-68 -7,-2 -25,-5 -39,-7 -24,-3 -67,-20 -182,-73 l -58,-26 v -68 c 0,-61 3,-71 26,-92 37,-34 44,-31 31,12 -11,34 -12,35 -18,12 -8,-26 -9,-26 -15,11 -11,61 -10,88 3,105 7,11 13,16 13,13 0,-10 102,28 110,41 4,7 11,11 16,10 5,-1 16,0 24,3 8,3 37,12 65,20 34,10 54,22 62,38 7,14 13,21 13,17 0,-4 10,-2 23,5 12,6 27,13 33,14 27,5 59,18 69,28 12,14 19,39 8,34 -4,-2 -29,-14 -55,-26 -27,-13 -48,-27 -48,-33 0,-6 -5,-7 -10,-4 -7,4 -7,11 -2,18 11,15 23,47 17,47 -2,0 -7,-6 -12,-12 z"
       id="path16" />
    <path
       d="m 1310,2595 c -13,-14 -20,-28 -16,-32 3,-4 14,3 22,16 9,12 26,26 38,31 21,9 21,9 0,9 -11,1 -31,-10 -44,-24 z"
       id="path17" />
    <path
       d="m 2335,2560 c -9,-16 -11,-30 -6,-30 10,0 26,19 34,43 11,29 -11,19 -28,-13 z"
       id="path18" />
    <path
       d="m 2395,2510 c 3,-24 11,-48 18,-52 19,-12 19,-3 -3,48 l -21,49 z"
       id="path19" />
    <path
       d="m 2341,2515 c -1,-5 6,-30 15,-54 8,-24 13,-50 10,-58 -4,-8 -1,-11 5,-7 13,8 3,67 -16,104 -8,14 -14,21 -14,15 z"
       id="path20" />
    <path
       d="m 814,2475 c -4,-17 -9,-23 -14,-15 -4,7 -6,-7 -4,-29 1,-23 -2,-41 -7,-41 -5,0 -9,-10 -9,-22 1,-22 1,-22 12,-3 14,23 39,127 33,133 -2,3 -7,-8 -11,-23 z"
       id="path21" />
    <path
       d="m 955,2399 c 4,-5 12,-9 19,-9 17,0 46,-34 85,-100 21,-36 51,-68 87,-93 30,-21 54,-42 54,-48 0,-5 6,-9 12,-9 13,0 113,-102 129,-131 8,-17 2,-18 -108,-13 -65,3 -129,10 -143,15 -28,11 -56,65 -37,72 8,2 8,15 -1,45 -14,45 -40,74 -29,31 4,-13 7,-50 7,-82 0,-53 2,-59 31,-76 17,-10 56,-22 87,-26 32,-3 89,-21 127,-40 39,-18 79,-36 90,-40 20,-6 20,-7 0,-21 -10,-8 -44,-22 -73,-31 -36,-12 -78,-37 -124,-76 -39,-33 -67,-53 -63,-46 14,26 -60,-55 -102,-112 -57,-77 -52,-101 22,-98 28,1 57,-1 63,-5 7,-4 12,-2 12,5 0,7 3,9 7,6 3,-4 12,-2 19,3 16,14 36,9 52,-12 12,-16 16,-15 61,17 27,19 57,35 67,35 16,0 17,2 4,11 -12,9 -10,10 9,5 55,-12 214,37 329,100 23,13 43,23 45,22 1,-1 23,10 48,25 46,27 116,96 112,109 -2,4 4,5 12,2 8,-4 15,-11 15,-17 0,-5 9,-2 20,8 11,10 20,26 20,37 0,19 -16,25 -22,8 -4,-13 -98,17 -98,31 0,5 3,9 8,9 4,0 5,29 4,65 -2,36 -8,65 -12,65 -5,0 -10,-31 -12,-69 l -3,-68 -52,24 c -29,14 -50,29 -47,34 3,5 -2,6 -10,3 -8,-3 -28,3 -43,14 -15,11 -51,31 -79,45 -49,25 -77,58 -55,65 5,2 7,10 4,19 -4,11 -2,14 5,9 6,-3 16,3 22,15 9,17 9,20 0,14 -9,-6 -10,1 -5,24 6,27 4,31 -14,31 -12,0 -21,-6 -21,-14 0,-8 -6,-17 -12,-19 -10,-4 -10,-6 0,-6 6,-1 12,-11 12,-23 0,-19 -2,-20 -10,-8 -6,10 -10,11 -10,3 0,-22 -20,-14 -30,12 -5,14 -14,25 -20,25 -7,0 -6,-8 2,-22 7,-13 11,-26 10,-30 -1,-5 2,-8 8,-8 5,0 7,-6 5,-12 -12,-31 62,-86 214,-162 84,-42 159,-76 167,-76 8,0 14,-4 14,-10 0,-5 -4,-10 -10,-10 -5,0 -10,-6 -10,-13 0,-31 -75,-83 -192,-133 -93,-40 -95,-40 -102,-16 -4,10 -15,28 -27,40 -16,18 -21,38 -23,100 -4,98 -23,137 -79,162 -24,11 -50,32 -61,50 -24,41 -103,130 -109,124 -3,-3 -16,5 -29,18 -14,13 -41,35 -60,50 -20,15 -50,51 -67,80 -17,29 -37,61 -45,71 -14,18 -81,43 -71,26 z m 495,-495 c 0,-4 -7,-12 -16,-19 -14,-10 -15,-22 -7,-81 9,-73 0,-128 -27,-157 -8,-9 -21,-24 -29,-33 -14,-16 -15,-16 -22,2 -8,22 6,43 38,55 13,5 23,13 23,19 0,14 -17,13 -23,-2 -4,-10 -8,-9 -16,2 -9,13 -11,13 -11,-2 0,-10 -9,-22 -20,-28 -15,-8 -19,-17 -15,-33 5,-17 4,-19 -4,-7 -7,10 -11,11 -11,3 0,-7 -6,-13 -13,-13 -8,0 -28,-16 -46,-35 -17,-19 -38,-35 -46,-35 -18,0 -18,0 1,38 8,18 14,42 12,54 -2,19 -10,23 -45,25 -23,2 -45,-2 -48,-7 -9,-14 -35,-13 -35,2 0,6 3,8 7,5 3,-4 15,7 25,24 20,33 41,34 46,2 2,-15 9,-19 22,-16 17,5 17,7 -7,29 l -26,24 39,35 c 42,38 132,88 177,99 16,4 27,12 24,19 -2,7 3,17 12,24 17,13 41,17 41,7 z m 50,-213 c 22,-44 21,-46 -45,-65 l -46,-14 21,33 c 11,18 20,39 20,47 0,12 18,38 27,38 1,0 12,-18 23,-39 z m -305,-69 c -9,-2 -12,-9 -8,-15 3,-7 -4,-3 -16,8 -18,15 -22,16 -21,5 6,-39 -1,-70 -15,-70 -8,0 -15,-4 -15,-9 0,-6 -11,-7 -27,-1 -16,5 -39,8 -53,7 -17,-1 -26,4 -28,16 -2,10 0,17 5,16 20,-4 27,2 13,12 -12,9 -12,10 4,5 12,-4 27,1 41,14 28,26 95,39 95,19 1,-9 4,-7 11,5 9,15 13,16 20,5 6,-9 3,-15 -6,-17 z"
       id="path22" />
    <path
       d="m 1243,1748 c -14,-17 -5,-80 10,-71 7,4 8,0 3,-12 -5,-15 -4,-16 9,-5 12,10 13,16 4,26 -6,8 -9,22 -6,33 7,27 -7,46 -20,29 z"
       id="path23" />
    <path
       d="m 1766,2363 c 1,-16 3,-31 3,-35 1,-5 5,-8 11,-8 5,0 8,10 6,23 -3,12 -5,28 -5,35 -1,6 -5,12 -9,12 -4,0 -7,-12 -6,-27 z"
       id="path24" />
    <path
       d="m 1919,2286 c 12,-20 28,-47 35,-59 8,-12 21,-46 31,-74 15,-47 35,-79 35,-55 0,43 -68,182 -105,212 -14,11 -13,7 4,-24 z"
       id="path25" />
    <path
       d="m 2293,2297 c -3,-5 0,-14 6,-20 13,-13 62,1 68,19 5,14 -66,14 -74,1 z"
       id="path26" />
    <path
       d="m 1765,2208 c 8,-44 24,-65 36,-47 4,7 8,5 12,-4 4,-11 0,-15 -14,-12 -13,3 -19,-2 -19,-13 0,-15 -2,-15 -10,-2 -9,13 -12,13 -25,-3 -26,-35 1,-57 72,-57 36,0 53,17 27,27 -10,4 -19,2 -22,-5 -3,-9 -9,-9 -23,-1 -23,12 -16,29 13,29 16,0 19,5 14,23 -3,12 -6,32 -6,44 0,22 -35,63 -53,63 -5,0 -6,-19 -2,-42 z"
       id="path27" />
    <path
       d="m 1690,2010 c 0,-13 45,-24 66,-16 8,3 12,10 9,16 -8,13 -75,13 -75,0 z"
       id="path28" />
    <path
       d="m 1848,1974 c -5,-4 -8,-25 -8,-48 0,-28 3,-37 11,-29 6,6 9,27 7,48 -2,20 -6,33 -10,29 z"
       id="path29" />
    <path
       d="m 1857,1807 c -10,-25 -7,-30 20,-33 16,-1 22,0 16,3 -7,2 -13,11 -13,18 0,19 -17,28 -23,12 z"
       id="path30" />
    <path
       d="m 1804,1756 c -18,-14 -18,-15 -1,-22 10,-3 21,-4 24,-1 3,4 15,1 26,-4 14,-8 22,-8 27,1 5,8 11,7 23,-4 11,-11 18,-13 22,-5 4,6 16,9 26,6 11,-3 19,-1 19,4 0,15 -46,29 -79,24 -17,-2 -33,1 -36,6 -9,13 -28,11 -51,-5 z"
       id="path31" />
    <path
       d="m 1971,1663 c -7,-13 -13,-15 -18,-6 -6,8 -12,8 -25,-1 -10,-7 -15,-16 -11,-20 4,-4 0,-4 -9,-1 -23,9 -110,-24 -101,-38 4,-6 0,-8 -10,-4 -10,3 -17,2 -17,-4 0,-6 -5,-7 -10,-4 -13,8 -42,-14 -35,-26 9,-14 -31,-29 -77,-29 -32,0 -57,8 -91,30 -73,46 -79,36 -10,-15 53,-38 68,-44 100,-41 22,3 57,13 79,24 21,11 83,39 137,63 54,23 103,51 108,62 14,24 4,34 -10,10 z"
       id="path32" />
    <path
       d="m 1086,1475 c -10,-8 -23,-12 -28,-9 -5,3 -12,-3 -15,-15 -3,-11 -9,-18 -14,-15 -5,3 -9,-1 -9,-9 0,-10 7,-13 20,-10 11,3 20,10 20,16 0,10 29,36 41,37 3,0 6,-7 6,-15 0,-8 -4,-15 -9,-15 -5,0 -18,-9 -30,-20 -12,-11 -32,-21 -45,-21 -13,-1 -27,-3 -33,-4 -5,-1 -13,-3 -17,-4 -5,-1 4,-8 19,-17 l 28,-14 -22,-25 c -11,-13 -26,-22 -31,-18 -6,3 -7,1 -3,-5 4,-7 1,-12 -7,-12 -7,0 -29,-21 -48,-47 -19,-25 -58,-78 -87,-117 -29,-38 -57,-88 -64,-111 C 730,921 696,822 678,794 634,719 608,595 641,616 c 6,3 1,-11 -10,-32 -12,-21 -21,-42 -21,-46 0,-4 -11,-32 -25,-62 -14,-30 -25,-58 -25,-63 0,-9 47,-33 64,-33 6,0 1,7 -11,15 l -21,15 24,67 c 37,102 54,164 44,158 -6,-4 -10,-2 -10,4 0,5 6,12 13,14 9,4 9,6 -1,6 -10,1 -10,6 2,23 9,12 16,28 16,36 0,22 47,85 53,70 3,-7 6,10 6,38 1,28 10,80 21,114 11,34 20,73 20,85 0,29 104,177 145,207 5,4 6,8 1,8 -5,0 -3,7 5,16 11,13 13,14 21,0 10,-18 -24,-80 -38,-68 -4,4 -2,-1 5,-10 12,-16 11,-18 -8,-18 -12,0 -21,-6 -19,-12 1,-7 -10,-40 -26,-73 -41,-88 -57,-135 -45,-135 6,0 9,-10 7,-22 -5,-34 32,-35 65,-2 18,17 28,39 29,60 0,19 1,39 2,46 1,6 -5,13 -11,15 -9,3 -13,-9 -13,-39 0,-44 -26,-88 -52,-88 -14,0 -1,88 18,117 8,13 15,26 16,30 0,5 12,26 26,48 14,22 40,68 58,102 29,54 31,62 16,68 -16,6 -16,7 1,17 31,17 197,193 186,197 -6,1 -18,-4 -29,-14 -16,-14 -19,-15 -27,-2 -7,13 -11,13 -27,2 z"
       id="path33" />
    <path
       d="m 1740,1448 c -2,-10 -3,-23 -4,-30 -2,-18 -24,-21 -29,-3 -4,12 -5,11 -3,-2 2,-29 34,-28 42,1 3,14 4,31 1,38 -4,9 -6,7 -7,-4 z"
       id="path34" />
    <path
       d="m 1166,1390 c -20,-22 -41,-40 -46,-40 -12,0 -45,-18 -79,-42 -32,-24 -9,-23 39,2 22,11 46,20 54,20 8,0 21,12 28,28 9,16 20,26 31,24 9,-2 17,1 17,7 0,5 3,16 6,25 11,28 -13,17 -50,-24 z"
       id="path35" />
    <path
       d="m 1165,1330 c -33,-21 -67,-46 -77,-54 -9,-8 -18,-12 -21,-10 -2,3 -7,-2 -10,-10 -3,-8 0,-17 8,-20 8,-3 17,3 20,12 3,9 22,25 42,35 l 37,19 -39,-44 C 1003,1123 976,1070 951,910 940,841 921,751 910,710 881,607 875,565 889,574 c 6,4 11,14 11,22 0,8 7,28 15,44 8,16 16,37 18,47 2,10 9,36 15,58 6,22 18,92 28,155 9,63 25,136 35,162 23,60 86,154 107,164 10,4 46,8 82,10 146,8 165,10 165,19 0,6 -7,9 -15,7 -8,-1 -40,-4 -70,-6 -30,-2 -71,-7 -90,-11 -56,-12 -32,0 59,31 46,15 80,29 74,31 -6,2 -44,-8 -84,-22 -40,-14 -77,-25 -83,-25 -6,0 8,18 32,40 23,21 42,46 42,55 0,19 5,21 -65,-25 z"
       id="path36" />
    <path
       d="m 1771,1324 c -1,-12 6,-27 14,-34 8,-7 15,-25 15,-41 0,-21 4,-27 15,-23 21,9 19,28 -9,61 -12,15 -26,35 -29,43 -4,10 -6,8 -6,-6 z"
       id="path37" />
    <path
       d="m 1900,1312 c 0,-12 61,-72 72,-72 18,0 6,18 -32,49 -22,17 -40,28 -40,23 z"
       id="path38" />
    <path
       d="m 1295,1219 c -4,-5 0,-9 7,-9 8,0 19,-12 25,-27 l 11,-28 1,35 c 1,29 -3,36 -19,37 -11,1 -22,-2 -25,-8 z"
       id="path39" />
    <path
       d="m 1748,1173 c -6,-7 -15,-13 -21,-13 -13,0 -111,-74 -155,-117 -18,-18 -44,-40 -57,-49 -14,-9 -25,-23 -25,-32 0,-8 -3,-12 -7,-9 -3,4 -23,-10 -43,-31 -63,-63 -68,-66 -63,-35 4,22 2,25 -6,13 -6,-8 -11,-23 -11,-32 0,-10 -4,-18 -10,-18 -5,0 -10,-7 -10,-16 0,-9 -5,-12 -12,-8 -7,4 -10,4 -6,-1 10,-10 -19,-38 -32,-30 -6,4 -7,-1 -3,-11 5,-13 3,-16 -10,-11 -10,4 -17,1 -18,-6 -1,-7 -3,-27 -5,-44 -3,-25 0,-33 12,-33 12,0 14,8 9,38 -3,20 -2,31 1,24 4,-8 17,0 40,23 l 34,35 -1,-52 c 0,-29 -3,-47 -6,-40 -8,19 -23,14 -23,-9 0,-11 5,-17 10,-14 6,3 10,1 10,-4 0,-6 -4,-11 -8,-11 -13,0 -13,-63 0,-72 9,-5 8,-8 -6,-8 -12,0 -16,-5 -12,-15 3,-8 1,-15 -4,-15 -6,0 -10,6 -10,13 0,18 -24,67 -32,67 -5,0 -8,-12 -8,-28 0,-15 -7,-38 -16,-51 -9,-13 -20,-37 -24,-55 -4,-17 -11,-40 -16,-50 -6,-15 -4,-17 6,-11 10,6 12,4 7,-8 -4,-11 -1,-17 9,-17 10,0 13,8 9,27 -2,16 1,30 8,35 9,6 9,8 0,8 -8,0 -4,9 8,21 12,12 19,29 16,40 -3,10 1,23 9,30 11,9 14,8 14,-4 0,-24 21,-32 35,-14 9,13 13,9 23,-26 19,-70 39,-160 47,-207 10,-65 15,-68 37,-20 22,48 17,66 -6,23 -13,-23 -15,-25 -15,-8 -1,27 -29,155 -53,237 -16,55 -17,74 -8,107 6,22 12,65 13,95 1,31 6,56 10,56 5,0 47,37 94,83 48,45 96,91 107,102 53,51 207,155 229,155 15,0 51,-45 61,-78 4,-12 12,-22 17,-22 13,0 11,14 -3,28 -15,15 -4,26 17,19 22,-9 33,-42 40,-119 8,-78 27,-94 22,-18 -2,28 0,50 5,50 5,0 4,9 -2,19 -5,11 -15,42 -21,70 -6,28 -15,53 -19,56 -9,6 -5,-28 5,-45 9,-14 -9,-12 -23,2 -7,7 -12,8 -12,4 0,-4 -18,6 -39,23 -40,32 -83,38 -103,14 z"
       id="path40" />
    <path
       d="m 2005,1084 c -3,-25 -4,-48 -1,-52 3,-3 6,-1 6,4 0,5 4,26 9,47 5,20 5,39 1,42 -4,3 -11,-16 -15,-41 z"
       id="path41" />
    <path
       d="m 1350,1047 c -14,-6 -27,-14 -30,-17 -3,-3 -51,-27 -107,-55 -57,-27 -103,-53 -103,-58 0,-13 29,-1 144,62 117,64 172,103 96,68 z"
       id="path42" />
    <path
       d="m 1375,961 c -16,-10 -75,-64 -130,-119 -65,-66 -102,-96 -107,-89 -4,7 -8,-52 -7,-130 0,-82 5,-145 10,-149 6,-3 9,-39 8,-79 -1,-40 1,-77 5,-83 9,-15 46,-3 39,14 -3,8 -9,11 -15,8 -6,-4 -8,26 -5,80 3,67 1,86 -9,82 -22,-9 -23,6 -2,62 l 21,56 -22,14 c -21,14 -30,62 -11,62 6,0 10,14 10,30 0,17 4,30 8,30 10,0 67,54 109,102 18,21 38,39 45,40 7,2 19,11 26,21 7,9 20,17 29,17 10,0 13,6 9,16 -3,8 -2,13 3,9 12,-7 41,4 41,16 0,14 -23,10 -55,-10 z"
       id="path43" />
    <path
       d="m 789,873 c -7,-32 -14,-62 -15,-68 -1,-5 -5,-26 -9,-45 -3,-19 -10,-39 -15,-46 -6,-6 -11,-24 -13,-41 -2,-17 -13,-47 -26,-68 -12,-21 -20,-44 -17,-51 3,-7 1,-16 -4,-19 -13,-8 -10,-82 4,-101 17,-23 63,-2 82,39 13,27 14,41 5,75 -7,23 -16,42 -21,42 -12,0 0,62 14,73 8,6 7,10 -1,14 -18,7 -16,26 2,19 17,-6 21,9 5,19 -11,7 -10,55 2,55 3,0 9,8 12,18 8,27 19,142 13,142 -3,0 -11,-26 -18,-57 z M 751,558 c 3,-26 -3,-44 -23,-73 l -20,-30 6,48 c 3,27 8,53 12,58 8,13 24,11 25,-3 z"
       id="path44" />
    <path
       d="m 989,808 c -3,-15 -2,-29 2,-30 5,-2 10,-22 11,-45 1,-25 5,-40 11,-36 6,3 7,1 3,-5 -4,-6 -2,-19 3,-29 6,-10 13,-36 16,-58 6,-35 8,-38 19,-23 7,10 15,17 17,15 2,-1 -3,4 -11,11 -16,14 -17,19 -19,108 -1,46 -4,57 -20,61 -12,3 -21,15 -23,32 l -3,26 z"
       id="path45" />
    <path
       d="m 834,685 c -4,-8 -1,-22 6,-30 9,-10 9,-15 1,-15 -7,0 -11,-35 -11,-109 0,-86 -3,-113 -16,-125 -14,-15 -14,-17 0,-22 9,-3 16,-17 16,-31 0,-21 -3,-23 -22,-17 -13,4 -45,13 -73,19 -47,11 -50,14 -50,43 0,19 -5,32 -12,32 -7,0 -13,-5 -13,-11 0,-5 -3,-8 -7,-6 -5,3 -9,-7 -10,-22 -2,-25 3,-29 48,-40 43,-11 48,-15 43,-35 -3,-15 -1,-23 8,-24 25,-1 85,-27 101,-44 21,-21 89,-32 182,-31 66,0 68,0 36,-11 -36,-13 -53,-35 -29,-38 54,-6 103,-20 164,-49 34,-16 73,-29 88,-29 15,0 25,-4 22,-9 -3,-5 1,-12 10,-15 22,-9 24,-8 24,10 0,11 6,13 19,9 35,-11 295,-14 332,-5 20,6 49,12 65,14 16,3 38,7 49,9 11,3 39,8 62,12 24,4 45,11 48,16 13,20 -50,20 -137,-1 -106,-25 -237,-34 -355,-25 l -83,7 v 60 c 0,50 -3,59 -15,54 -12,-4 -15,1 -12,29 3,21 0,35 -6,35 -8,0 -8,3 0,11 5,5 8,22 5,37 -11,54 -19,-10 -15,-115 3,-83 1,-103 -10,-103 -10,0 -14,20 -15,86 -1,47 -4,90 -7,94 -3,5 -1,11 3,14 11,6 9,36 -3,55 -5,10 -4,12 3,7 9,-5 11,3 10,27 -3,38 -17,40 -19,4 -1,-17 -2,-18 -6,-4 -2,9 -9,17 -15,17 -6,0 -8,-10 -4,-25 5,-18 1,-27 -15,-35 -11,-7 -18,-14 -16,-17 3,-2 15,0 26,7 21,11 21,10 15,-102 -4,-62 -8,-115 -10,-117 -2,-2 -15,4 -29,13 -14,9 -48,22 -76,29 -51,13 -51,14 -27,29 13,9 32,17 43,19 10,2 18,9 17,14 -1,6 -43,10 -100,11 -162,1 -178,3 -202,24 -19,17 -20,21 -7,26 14,5 15,23 11,132 -2,70 -5,160 -6,200 -1,68 -11,91 -24,57 z"
       id="path46" />
    <path
       d="m 1011,648 c 0,-10 -5,-18 -11,-18 -5,0 -10,-12 -9,-27 0,-17 3,-22 6,-13 3,8 10,18 15,21 6,4 8,17 5,30 -2,14 -5,17 -6,7 z"
       id="path47" />
    <path
       d="m 1928,626 c -3,-14 -1,-31 3,-38 5,-7 9,-11 9,-8 1,3 3,20 4,38 4,37 -9,44 -16,8 z"
       id="path48" />
    <path
       d="m 1575,590 c -7,-12 95,-300 107,-300 14,0 23,33 10,38 -7,2 -12,10 -12,18 0,7 -20,64 -44,126 -31,80 -41,115 -33,120 8,5 6,8 -5,8 -9,0 -20,-4 -23,-10 z"
       id="path49" />
    <path
       d="m 1012,578 c -17,-17 -15,-28 7,-28 20,0 37,-29 23,-39 -9,-6 -12,-33 -11,-96 0,-67 2,-80 13,-87 7,-5 7,-8 -1,-8 -27,0 -13,-38 18,-49 40,-14 44,-14 32,2 -6,6 -9,23 -8,37 1,14 -2,31 -7,38 -6,6 -8,12 -5,12 3,0 2,14 -3,30 -5,17 -5,30 0,30 16,0 -2,114 -20,130 -10,8 -19,21 -21,28 -3,10 -7,10 -17,0 z"
       id="path50" />
    <path
       d="m 1313,523 c -1,-16 -5,-52 -8,-80 -8,-63 -2,-77 26,-62 18,9 20,17 14,82 -3,39 -8,74 -11,79 -10,16 -20,7 -21,-19 z"
       id="path51" />
    <path
       d="m 1997,484 c 5,-14 3,-15 -15,-5 -11,6 -22,11 -25,11 -8,0 6,-66 18,-80 6,-8 16,-22 20,-30 6,-12 5,-12 -5,-3 -19,18 -38,5 -32,-23 3,-18 -3,-30 -21,-44 -16,-13 -24,-28 -22,-40 2,-11 0,-20 -5,-20 -11,0 -21,-30 -14,-41 10,-16 43,10 39,31 -2,11 0,20 4,20 4,0 13,10 18,23 9,20 11,18 17,-20 4,-24 12,-43 18,-43 6,0 8,13 4,34 -5,25 -3,35 9,40 8,3 15,12 15,20 0,8 4,16 9,18 5,2 4,31 -1,68 -6,36 -10,73 -10,83 1,9 -6,17 -13,17 -9,0 -12,-6 -8,-16 z"
       id="path52" />
    <path
       d="m 1437,473 c -4,-3 -6,-27 -6,-52 2,-43 2,-44 8,-12 3,19 11,36 18,38 13,5 53,-35 53,-54 0,-7 5,-13 11,-13 6,0 28,-15 49,-32 70,-62 80,-69 80,-55 0,7 -21,31 -47,53 -62,52 -98,87 -109,106 -10,18 -47,32 -57,21 z"
       id="path53" />
    <path
       d="m 1870,427 c 17,-14 19,-25 6,-47 -6,-10 -2,-8 12,3 24,22 20,43 -11,51 -19,4 -20,3 -7,-7 z"
       id="path54" />
    <path
       d="m 1758,254 c 2,-30 8,-54 13,-54 5,0 9,6 9,14 0,7 7,19 15,26 10,8 15,9 15,1 0,-16 46,-9 57,9 9,13 3,15 -33,15 -23,0 -40,-3 -38,-7 2,-4 0,-9 -6,-13 -6,-4 -13,7 -16,25 -11,51 -19,42 -16,-16 z"
       id="path55" />
    <path
       d="m 1437,273 c -3,-5 -3,-20 0,-32 l 6,-22 20,22 21,23 13,-33 c 14,-34 36,-37 41,-6 3,10 0,15 -7,11 -6,-4 -11,-2 -11,4 0,6 -4,9 -9,6 -5,-3 -12,1 -15,10 -4,10 -12,14 -23,10 -9,-4 -20,-2 -23,5 -5,6 -10,7 -13,2 z"
       id="path56" />
    <path
       d="m 1585,219 -30,-6 29,-12 c 22,-9 36,-9 62,1 19,7 34,14 34,18 0,7 -59,7 -95,-1 z"
       id="path57" />
  </g>
</svg>
