<?xml version="1.0" encoding="UTF-8" standalone="no"?>
<svg
   version="1.0"
   width="300.000000pt"
   height="300.000000pt"
   viewBox="0 0 300.000000 300.000000"
   preserveAspectRatio="xMidYMid meet"
   id="svg16"
   sodipodi:docname="little night.svg"
   inkscape:version="1.4 (86a8ad7, 2024-10-11)"
   xmlns:inkscape="http://www.inkscape.org/namespaces/inkscape"
   xmlns:sodipodi="http://sodipodi.sourceforge.net/DTD/sodipodi-0.dtd"
   xmlns="http://www.w3.org/2000/svg"
   xmlns:svg="http://www.w3.org/2000/svg">
  <defs
     id="defs16" />
  <sodipodi:namedview
     id="namedview16"
     pagecolor="#ffffff"
     bordercolor="#000000"
     borderopacity="0.25"
     inkscape:showpageshadow="2"
     inkscape:pageopacity="0.0"
     inkscape:pagecheckerboard="0"
     inkscape:deskcolor="#d1d1d1"
     inkscape:document-units="pt"
     inkscape:zoom="2.0825"
     inkscape:cx="199.7599"
     inkscape:cy="200"
     inkscape:window-width="1920"
     inkscape:window-height="1051"
     inkscape:window-x="-9"
     inkscape:window-y="-9"
     inkscape:window-maximized="1"
     inkscape:current-layer="svg16" />
  <metadata
     id="metadata1">
Created by potrace 1.10, written by Peter Selinger 2001-2011
</metadata>
  <g
     transform="matrix(0.05722025,0,0,-0.0528523,-38.21461,123.27325)"
     fill="#000000"
     stroke="none"
     id="g16">
    <path
       d="m 760,2317 c 0,-18 50,-96 63,-97 14,0 7,22 -20,58 -40,55 -43,58 -43,39 z"
       id="path1" />
    <path
       d="m 727,2234 c -10,-11 3,-24 22,-24 10,0 24,-7 31,-15 7,-8 16,-12 21,-9 18,11 8,24 -27,39 -42,17 -39,17 -47,9 z"
       id="path2" />
    <path
       d="m 2182,2147 c -34,-35 -39,-47 -19,-47 11,0 67,62 67,74 0,14 -19,3 -48,-27 z"
       id="path3" />
    <path
       d="m 1020,2054 c -114,-11 -201,-27 -197,-38 4,-12 7,-12 107,4 36,5 102,10 148,10 66,0 82,3 82,15 0,15 -42,18 -140,9 z"
       id="path4" />
    <path
       d="m 1196,2041 c -3,-5 13,-30 37,-56 68,-76 68,-78 58,-132 -5,-26 -12,-103 -15,-171 -5,-96 -3,-123 7,-120 8,3 14,44 18,134 3,71 11,149 18,173 12,42 11,45 -16,74 -15,17 -34,37 -41,45 -7,8 -20,25 -29,38 -16,25 -28,30 -37,15 z"
       id="path5" />
    <path
       d="m 1157,2004 c -11,-37 -12,-389 -2,-392 6,-1 12,71 15,195 5,181 1,245 -13,197 z"
       id="path6" />
    <path
       d="m 1834,2008 c -170,-104 -305,-350 -251,-455 23,-44 67,-93 83,-93 22,0 17,12 -25,58 -69,76 -61,159 25,289 55,83 157,176 207,188 28,8 40,-11 13,-21 -22,-8 -86,-95 -79,-106 8,-14 -17,-28 -50,-28 -18,0 -27,-5 -25,-12 5,-14 108,-12 123,3 5,5 1,9 -13,9 -30,0 -28,19 7,67 42,58 83,85 113,74 89,-35 267,-381 196,-381 -6,0 -8,-6 -5,-13 3,-7 -10,-34 -28,-59 -29,-39 -44,-49 -99,-68 -37,-12 -64,-26 -60,-31 3,-5 11,-9 19,-9 7,0 16,-12 20,-27 5,-21 1,-31 -17,-44 -12,-10 -20,-21 -16,-25 4,-4 14,-1 23,6 8,7 21,10 28,7 17,-6 63,-142 82,-237 18,-98 13,-104 -92,-104 l -78,-1 -3,35 -3,35 58,2 c 71,4 93,10 93,29 0,9 -5,12 -11,8 -7,-4 -40,-10 -75,-13 l -64,-7 6,70 c 3,39 9,92 14,119 7,44 -1,70 -15,47 -10,-16 -27,-251 -23,-302 4,-41 3,-47 -15,-50 -11,-2 -22,-9 -25,-15 -3,-10 9,-11 45,-7 26,4 52,11 57,15 6,5 20,9 32,9 18,0 23,-7 26,-36 3,-25 0,-38 -12,-44 -24,-13 -220,-12 -220,1 0,6 8,8 18,5 17,-6 18,-1 14,55 -3,43 -1,64 8,69 8,5 10,15 5,26 -5,13 -9,15 -12,7 -7,-20 -32,-15 -29,5 4,25 33,27 48,3 7,-12 16,-21 20,-21 15,0 8,26 -12,48 -11,12 -20,26 -20,32 0,5 -4,10 -10,10 -5,0 -10,-6 -10,-14 0,-8 -4,-18 -10,-21 -6,-3 -10,5 -10,18 0,20 7,27 36,34 21,4 42,16 48,26 9,15 6,22 -16,41 -33,26 -34,30 -8,56 11,11 20,27 20,35 0,8 -9,20 -20,27 -15,10 -20,24 -20,55 0,24 -4,43 -10,43 -5,0 -10,-18 -10,-41 0,-28 -4,-39 -12,-36 -14,5 -15,19 -4,55 6,16 3,22 -8,22 -12,0 -16,-10 -16,-39 0,-25 -5,-41 -15,-45 -10,-4 -15,-20 -15,-51 0,-46 0,-46 32,-43 20,2 33,-2 36,-11 3,-10 0,-12 -11,-8 -10,4 -24,-3 -37,-20 -24,-31 -27,-83 -5,-83 8,0 15,-9 15,-20 0,-11 -6,-20 -14,-20 -15,0 -26,-21 -26,-51 0,-13 7,-19 23,-19 21,0 22,-5 23,-71 2,-58 -1,-69 -13,-65 -8,3 -41,6 -74,6 -59,0 -59,0 -59,30 0,16 7,55 15,87 8,32 22,103 31,158 9,55 20,108 26,118 5,9 6,22 2,29 -11,17 -31,-29 -44,-102 -18,-100 -23,-113 -52,-130 -26,-14 -28,-13 -56,15 -61,63 -67,103 -19,134 l 32,20 8,-32 c 5,-18 13,-36 18,-41 17,-18 19,1 5,42 l -15,40 40,26 c 21,14 42,26 47,26 11,0 52,43 52,55 0,4 8,13 17,20 15,11 14,15 -12,39 -15,14 -34,26 -41,26 -25,0 -15,-30 13,-41 l 27,-10 -54,-49 c -30,-27 -83,-63 -118,-81 -34,-18 -60,-34 -57,-37 6,-7 -35,-42 -49,-42 -6,0 -21,-3 -34,-6 -22,-6 -23,-5 -17,29 6,28 3,41 -11,54 -9,10 -46,52 -81,94 -34,42 -74,84 -88,93 -14,9 -25,22 -25,29 0,8 4,7 10,-3 8,-12 10,-12 15,2 4,9 13,19 22,22 11,4 13,2 9,-9 -3,-9 0,-15 9,-15 33,0 15,26 -45,67 -44,30 -48,31 -140,27 -136,-5 -258,-29 -286,-55 -28,-26 -24,-38 10,-32 13,3 33,0 44,-6 14,-7 23,-8 27,-1 8,13 25,13 25,0 0,-6 -33,-55 -72,-109 -109,-148 -138,-198 -145,-251 -5,-34 -2,-40 24,-53 25,-13 29,-20 25,-50 -3,-28 0,-35 16,-39 11,-3 25,-1 31,5 18,18 25,-21 13,-72 -6,-25 -11,-53 -11,-61 0,-8 -7,-58 -15,-110 -20,-124 -20,-130 4,-130 11,0 20,-5 20,-11 0,-5 15,1 33,15 17,13 45,26 61,28 26,3 29,0 42,-47 l 13,-50 -36,-33 c -26,-23 -34,-35 -26,-43 8,-8 18,-7 34,4 13,8 39,18 56,22 18,4 35,11 38,16 8,13 -6,80 -15,74 -4,-3 -16,29 -25,70 l -16,75 h -38 c -20,0 -42,-5 -49,-12 -9,-9 -12,-9 -12,-1 0,7 4,14 9,17 4,3 6,57 3,120 l -5,115 49,100 c 46,94 64,118 64,88 0,-23 73,-128 133,-193 36,-39 55,-67 51,-77 -3,-8 2,-42 10,-75 9,-33 16,-62 16,-64 0,-3 -23,-4 -52,-4 -51,1 -53,2 -62,36 -12,44 -15,48 -26,30 -8,-13 -10,-12 -10,2 0,9 4,18 10,20 10,3 -19,168 -39,221 -15,39 -39,34 -47,-9 -9,-46 4,-288 18,-336 10,-34 13,-37 42,-31 17,3 43,14 58,24 15,10 29,15 31,11 3,-4 8,-33 12,-66 6,-55 5,-61 -24,-101 -37,-52 -40,-70 -8,-61 12,4 43,12 69,19 39,11 45,15 37,30 -6,9 -13,55 -16,102 -5,74 -4,85 10,85 9,0 19,-4 22,-10 3,-5 21,-10 38,-10 18,0 41,-7 51,-15 11,-8 30,-15 43,-15 22,0 23,3 17,38 -10,58 -61,252 -90,343 -14,44 -23,83 -20,87 3,3 6,0 6,-6 0,-7 15,-18 34,-26 18,-8 37,-19 40,-25 11,-17 34,-13 57,10 19,19 22,19 45,4 18,-12 29,-13 43,-5 33,17 60,11 78,-16 14,-23 22,-25 55,-21 21,3 38,2 38,-1 0,-4 -7,-36 -15,-71 -15,-61 -12,-125 5,-136 5,-3 11,-1 15,5 3,5 21,10 39,10 29,0 34,-4 40,-31 3,-17 6,-85 6,-150 0,-108 -2,-119 -20,-129 -45,-24 -12,-38 57,-24 l 29,6 -3,164 -2,164 h 33 32 V 718 c -1,-122 -4,-147 -20,-170 -22,-34 -11,-41 55,-35 51,5 47,-14 48,200 l 1,137 h 31 c 18,0 51,10 75,22 39,19 44,26 50,65 3,24 11,46 16,49 43,27 10,216 -63,367 -16,33 -29,66 -29,72 0,6 20,16 44,24 36,10 52,23 84,70 23,32 44,70 48,85 16,67 -88,288 -178,373 -28,27 -43,33 -98,38 -44,4 -72,1 -86,-7 z m -786,-479 c 2,-10 -11,-25 -31,-38 -43,-26 -52,-27 -34,0 8,11 12,29 10,40 -5,18 -2,20 23,17 17,-2 30,-10 32,-19 z m 96,6 c -4,-9 3,-16 20,-21 14,-3 26,-10 26,-15 0,-13 -8,-11 -51,7 -29,14 -35,20 -26,30 16,18 38,17 31,-1 z m -199,-6 c -4,-6 -13,-8 -21,-5 -8,3 -23,-4 -33,-16 -21,-21 -52,-19 -50,4 0,10 2,10 6,1 2,-7 9,-13 14,-13 6,0 7,5 4,10 -7,12 29,28 63,29 14,1 21,-3 17,-10 z m 5,-29 c 15,0 19,-44 6,-69 -37,-72 -38,-76 -23,-114 24,-57 9,-127 -54,-250 -29,-59 -57,-107 -60,-107 -4,0 0,26 7,58 7,31 15,73 18,92 3,19 15,84 26,144 21,107 21,136 1,99 -11,-21 -49,-207 -53,-263 -3,-31 -6,-35 -28,-31 -34,4 -80,29 -86,45 -3,8 2,30 10,51 l 16,37 30,-32 c 23,-24 34,-30 42,-22 8,8 5,17 -13,31 -13,11 -27,20 -31,21 -9,0 3,41 21,70 9,14 41,59 71,100 46,62 56,71 58,52 4,-26 22,-30 22,-4 0,10 7,28 16,40 17,25 13,29 -10,7 -9,-9 -17,-11 -21,-5 -3,5 -1,10 4,10 6,0 11,7 11,15 0,8 -4,15 -10,15 -5,0 -10,5 -10,11 0,6 7,8 16,5 9,-3 19,-6 24,-6 z m 119,-27 c -5,-16 -12,-34 -15,-42 -3,-11 -9,-9 -21,9 -15,22 -15,24 6,42 32,25 42,23 30,-9 z m 92,4 c 31,-19 76,-66 142,-146 23,-29 22,-41 -13,-81 -29,-35 -38,-60 -21,-60 6,0 22,17 37,38 16,20 31,41 36,46 8,10 47,-31 48,-50 0,-6 -16,-29 -36,-52 -28,-33 -42,-42 -64,-40 -16,1 -26,6 -23,11 2,4 -1,14 -7,23 -7,8 -22,31 -34,53 -28,51 -84,117 -92,108 -4,-3 1,-17 10,-29 49,-67 74,-111 70,-122 -3,-7 20,-98 50,-203 30,-104 57,-212 60,-239 l 6,-49 -17,38 c -8,20 -21,37 -28,37 -14,0 -38,47 -30,60 8,13 -16,60 -31,60 -8,0 -11,-6 -8,-15 4,-8 10,-15 16,-15 5,0 6,-9 3,-20 -4,-11 1,-34 9,-51 9,-17 13,-35 10,-40 -3,-5 -1,-9 3,-9 5,0 18,-7 29,-15 18,-13 17,-14 -11,-6 -25,6 -32,15 -43,57 -15,56 -21,88 -26,125 -3,28 -29,66 -114,167 -56,68 -112,168 -112,201 0,11 -4,23 -10,26 -5,3 -10,15 -10,26 0,10 -4,19 -10,19 -5,0 -10,9 -10,20 0,18 1,18 23,-3 12,-12 21,-30 19,-39 -9,-37 18,-16 40,32 13,28 28,50 34,50 6,0 18,25 28,55 9,30 22,55 29,55 7,0 28,-10 48,-23 z m -154,-20 c -3,-7 1,-21 9,-32 16,-21 19,-39 5,-30 -5,3 -11,-5 -13,-17 -2,-12 -9,-23 -15,-26 -18,-5 -16,23 2,38 11,9 12,17 5,30 -13,25 -13,50 1,50 6,0 9,-6 6,-13 z m 837,-133 c 21,-8 20,-24 -1,-24 -14,0 -15,-2 -5,-9 11,-7 10,-10 -3,-15 -29,-11 -35,-7 -35,24 0,30 11,37 44,24 z m 9,-133 c 3,-12 -1,-22 -10,-25 -26,-10 -33,-6 -33,19 0,31 35,35 43,6 z m -63,0 c 0,-5 3,-16 6,-25 4,-11 1,-16 -10,-16 -10,0 -16,9 -16,25 0,14 5,25 10,25 6,0 10,-4 10,-9 z m -790,-45 c 0,-8 7,-19 15,-26 8,-7 15,-20 15,-29 0,-9 -11,2 -25,24 -26,43 -31,60 -15,50 6,-3 10,-12 10,-19 z m 496,2 c 7,-24 7,-24 -33,-31 -36,-7 -45,0 -37,30 7,27 61,28 70,1 z m -116,-12 c 0,-16 -7,-27 -21,-31 -31,-10 -35,2 -9,30 29,31 30,31 30,1 z M 1116,991 c 6,-12 24,-37 40,-54 l 29,-32 -33,30 c -43,39 -81,90 -61,83 8,-2 19,-15 25,-27 z m 696,-18 c -7,-65 -12,-67 -12,-5 0,29 4,52 9,52 5,0 6,-21 3,-47 z m 268,-12 c 0,-17 -12,-41 -21,-41 -5,0 -9,11 -9,25 0,16 6,25 15,25 8,0 15,-4 15,-9 z M 830,712 c -5,-2 -10,-8 -10,-14 0,-6 7,-7 16,-4 8,3 12,2 9,-4 -3,-6 1,-10 10,-10 9,0 14,4 11,9 -6,10 24,25 32,16 3,-2 -1,-11 -7,-19 -7,-8 -10,-20 -6,-26 3,-5 -1,-10 -10,-10 -9,0 -13,5 -9,11 4,7 1,10 -7,7 -8,-3 -13,-11 -11,-17 1,-7 -2,-9 -9,-5 -7,4 -17,0 -23,-9 -10,-12 -12,-3 -14,45 -2,51 0,59 13,55 11,-5 15,0 14,21 -1,17 -3,20 -6,10 -5,-20 -18,-23 -28,-8 -3,6 -1,10 5,10 7,0 8,6 0,19 -7,13 -7,22 0,26 5,3 10,-1 10,-10 0,-9 5,-13 10,-10 6,3 11,27 12,53 1,26 4,7 5,-43 3,-56 0,-91 -7,-93 z m 163,66 c 4,-43 3,-78 -1,-78 -8,0 -9,0 -16,115 -4,48 -2,72 3,60 4,-11 11,-55 14,-97 z m 211,35 c 9,-34 19,-69 22,-78 3,-8 2,-15 -3,-15 -12,0 -43,98 -43,135 0,40 6,30 24,-42 z m -179,10 c 0,-21 4,-51 8,-66 5,-18 4,-26 -2,-23 -5,4 -12,-2 -14,-11 -2,-10 -2,-2 0,17 2,23 1,30 -5,22 -6,-9 -9,3 -8,35 1,38 8,59 21,63 1,0 1,-17 0,-37 z m 751,21 c -3,-9 -6,-78 -6,-155 0,-76 -4,-139 -9,-139 -4,0 -9,63 -10,141 -1,77 -5,147 -8,155 -3,9 2,14 17,14 16,0 20,-4 16,-16 z m 129,8 c 6,-4 8,-63 5,-157 -5,-137 -7,-150 -24,-153 -14,-3 -17,0 -12,13 3,9 6,82 6,161 0,138 3,153 25,136 z M 1148,651 c 2,-34 0,-61 -5,-61 -4,0 -9,30 -11,66 -1,36 1,63 5,61 5,-3 10,-33 11,-66 z M 953,628 c 24,-115 24,-112 5,-116 -13,-2 -16,1 -12,13 8,20 -17,165 -28,165 -4,0 -8,5 -8,10 0,6 6,10 13,10 8,0 19,-30 30,-82 z m 207,-71 c 0,-16 -9,-28 -26,-36 -37,-16 -41,-7 -13,28 29,36 39,38 39,8 z"
       id="path7" />
    <path
       d="m 796,1992 c -21,-34 -46,-452 -27,-452 9,0 15,41 13,80 -3,41 20,303 28,324 10,28 -1,69 -14,48 z"
       id="path8" />
    <path
       d="m 1034,1786 c -13,-21 -14,-29 -4,-41 27,-33 75,-7 68,37 -5,34 -42,36 -64,4 z"
       id="path9" />
    <path
       d="m 842,1779 c -30,-48 10,-87 49,-48 22,22 24,33 7,46 -26,20 -45,21 -56,2 z"
       id="path10" />
    <path
       d="m 1785,1762 c -43,-5 -72,-37 -85,-94 -16,-65 -8,-120 24,-169 25,-37 29,-39 79,-39 61,0 85,14 128,73 27,37 40,97 20,97 -5,0 -11,17 -15,38 -10,67 -71,105 -151,94 z m 12,-39 c -4,-3 0,-14 9,-24 14,-16 13,-21 -10,-66 -28,-53 -35,-46 -11,10 18,43 19,57 4,57 -5,0 -8,-4 -5,-9 3,-5 0,-24 -8,-42 -7,-19 -16,-43 -20,-54 -6,-18 -8,-17 -26,10 -16,24 -17,30 -5,39 8,6 16,22 17,36 3,27 24,49 47,50 8,0 11,-3 8,-7 z m 101,-16 c 7,-6 11,-16 8,-24 -3,-7 -2,-13 3,-13 5,0 8,-30 7,-67 -1,-48 -6,-68 -16,-71 -8,-3 -18,-10 -22,-16 -5,-8 -8,-7 -8,1 0,7 -7,10 -16,6 -17,-6 -17,-7 20,64 10,19 15,49 14,72 -3,46 -13,54 -20,16 -3,-13 -1,-22 3,-19 15,9 10,-43 -5,-55 -8,-7 -24,-36 -36,-66 -12,-30 -25,-55 -29,-55 -6,0 -31,49 -31,62 0,15 50,121 55,116 3,-3 -4,-29 -15,-58 -30,-77 -16,-98 18,-30 16,31 24,60 20,66 -4,6 -5,14 -1,18 4,4 1,11 -7,16 -11,7 -12,10 -2,10 7,0 10,5 7,10 -4,6 -4,17 -1,25 5,15 29,11 54,-8 z m -132,-167 c -1,-29 -5,-48 -11,-46 -13,4 -6,96 8,96 2,0 3,-22 3,-50 z"
       id="path11" />
    <path
       d="m 1647,1725 c -15,-22 -29,-56 -32,-75 -5,-34 -5,-34 15,10 12,25 28,52 37,62 8,9 13,23 11,30 -3,7 -16,-4 -31,-27 z"
       id="path12" />
    <path
       d="m 1970,1704 c 28,-80 26,-140 -5,-186 -27,-40 -30,-48 -15,-48 5,0 21,17 35,37 20,30 25,49 24,93 -1,59 -28,151 -47,158 -7,2 -4,-18 8,-54 z"
       id="path13" />
    <path
       d="m 812,1669 c -12,-19 -11,-20 7,-14 10,3 22,1 26,-5 7,-12 25,-4 25,12 0,5 -7,8 -15,4 -9,-3 -15,0 -15,9 0,21 -13,18 -28,-6 z"
       id="path14" />
    <path
       d="m 2047,1564 c -10,-11 3,-24 24,-24 10,0 19,7 19,15 0,15 -31,21 -43,9 z"
       id="path15" />
    <path
       d="m 1664,989 c -8,-14 5,-26 37,-34 30,-8 51,12 22,21 -10,3 -26,10 -35,15 -11,5 -19,5 -24,-2 z"
       id="path16" />
  </g>
</svg>
